<svg width="352" height="424" viewBox="0 0 352 424" fill="none" xmlns="http://www.w3.org/2000/svg">
<ellipse cx="193.217" cy="414.493" rx="157.913" ry="9.19141" fill="black" fill-opacity="0.15" style="fill:black;fill-opacity:0.15;"/>
<path d="M138.868 341.4C138.256 341.58 137.653 341.78 137.06 342.01C123.982 349.41 108.401 351.21 94.008 347.63C85.7155 345.57 77.8248 341.72 71.0391 336.13C70.1167 335.37 69.2126 334.58 68.3359 333.76C60.1529 326.1 53.9335 316.21 45.8602 308.41C37.7959 300.6 26.7453 294.86 16.3979 298.09C13.9869 298.84 11.6032 300.07 9.11 299.86C6.60762 299.65 4.02306 297.19 4.67148 294.54C4.94546 293.46 5.68522 292.6 6.39757 291.79C18.6446 277.93 71.0391 228.533 71.0391 228.533L39.659 190.6C39.659 190.6 32.8835 164.154 42.829 150.094C53.0942 135.574 65.026 140.431 81.5745 143.401C91.0086 145.091 99.7228 151.94 108.344 156.55C119.614 132.25 114.794 112.73 125.525 88.1305C134.475 67.6005 151.48 51.4605 171.308 44.6705C191.135 37.8705 219.657 40.5204 237.704 51.7904C254.316 62.1704 266.901 79.2804 274.837 98.3304C280.436 111.75 282.88 119.674 284.871 134.284C290.342 130.514 291.485 132.78 297.714 130.86C303.933 128.95 310.819 128.82 316.692 131.77C325.222 136.06 330.318 146.32 331.213 156.55C332.108 166.78 329.405 176.99 325.815 186.49C322.226 195.98 317.121 206.7 314.135 216.45C319.642 223.82 325.56 230.88 330.701 238.55C339.222 251.27 345.789 267.01 343.04 282.51C341.076 293.62 334.144 303.55 324.875 308.55C317.139 312.72 307.924 313.39 299.714 310.56C295.942 309.26 291.814 310.12 288.636 312.71C281.047 318.92 275.494 327.53 269.969 336.13C265.777 342.66 261.594 349.18 256.553 354.65C252.589 358.94 248.041 362.48 243.109 365.24C225.547 375.08 203.226 375.04 186.249 363.8C184.139 362.4 182.121 360.86 180.139 359.25C174.924 355.02 169.992 350.33 164.467 346.59C157.38 341.79 147.051 339.08 138.868 341.4Z" fill="white" fill-opacity="0.75" style="fill:white;fill-opacity:0.75;"/>
<path d="M327.953 237.071C343.105 248.701 348.475 273.271 339.762 291.141C331.059 309.021 309.432 317.821 292.144 310.481C274.326 322.891 265.933 346.921 249.229 361.061C234.014 373.941 212.333 376.961 194.661 368.671C176.542 360.171 162.066 340.781 142.084 340.271C130.714 344.661 119.151 348.981 107.133 349.971C95.1141 350.971 82.3922 348.301 73.0128 340.001C65.661 333.491 61.3868 323.651 54.4916 316.561C33.0845 294.571 10.2069 299.911 5.66797 294.171C17.5405 278.851 44.9059 254.519 44.9059 254.519C44.9059 254.519 33.8419 277.409 58.4918 292.471C64.4281 299.261 73.643 301.271 82.2369 301.241C103.982 301.171 126.01 290.491 146.897 297.111C157.984 300.621 167.363 308.681 175.948 317.131C184.533 325.581 192.752 334.691 202.725 341.051C212.698 347.411 225 350.751 235.895 346.601C247.996 341.991 255.805 329.501 263.421 318.221C271.038 306.941 280.655 295.321 293.404 294.011C303.076 293.021 312.82 298.301 322.337 296.171C332.803 293.821 340.31 282.361 340.986 270.681C341.662 259.001 336.52 247.591 327.935 237.051L327.953 237.071Z" fill="#BCBBFF" fill-opacity="0.4" style="fill:#BCBBFF;fill:color(display-p3 0.7373 0.7333 1.0000);fill-opacity:0.4;"/>
<path d="M305.969 202.721C312.015 200.171 316.882 194.961 320.472 189.041C324.061 183.121 326.481 176.481 328.883 169.881C326.39 185.901 321.686 201.501 314.992 216.001C312.353 211.731 309.722 207.471 305.969 202.711V202.721Z" fill="#BCBBFF" fill-opacity="0.4" style="fill:#BCBBFF;fill:color(display-p3 0.7373 0.7333 1.0000);fill-opacity:0.4;"/>
<path d="M99.2727 151.641C92.0095 148.965 78.1064 144.888 70.4195 144.456C62.7325 144.025 54.7367 147.786 49.3779 153.576C43.4036 160.034 40.5609 170.089 42.8201 181.634C44.5444 190.446 48.3672 202.13 56.2822 213.66" stroke="#BCBBFF" stroke-opacity="0.4" style="stroke:#BCBBFF;stroke:color(display-p3 0.7373 0.7333 1.0000);stroke-opacity:0.4;" stroke-width="8" stroke-linecap="round" stroke-linejoin="round"/>
<path d="M238.171 50.8605C219.824 41.0105 191.3 43.2402 172.13 50.9802C152.961 58.7202 136.924 78.0402 128.814 98.5802C121.065 118.19 120.445 140.441 114.662 160.731" stroke="#BCBBFF" stroke-opacity="0.4" style="stroke:#BCBBFF;stroke:color(display-p3 0.7373 0.7333 1.0000);stroke-opacity:0.4;" stroke-width="8" stroke-linecap="round" stroke-linejoin="round"/>
<path d="M121.518 166.996C116.448 163.276 111.318 159.516 105.981 156.096C98.8957 151.554 91.2038 147.286 82.3027 143.172C70.703 137.81 57.7808 137.913 47.1312 147.286C36.8141 156.362 34.7528 171.394 38.5685 184.315C40.6813 191.467 44.3174 198.115 48.6889 204.412C52.208 209.478 64.1878 223.141 72.1563 228.044" stroke="black" style="stroke:black;stroke-opacity:1;" stroke-width="8" stroke-linecap="round" stroke-linejoin="round"/>
<path d="M83.7014 212.213C65.8681 246.71 18.6446 277.931 6.39757 291.791C5.68522 292.601 4.94546 293.461 4.67148 294.541C4.02306 297.191 6.60762 299.651 9.11 299.861C11.6032 300.071 13.9869 298.841 16.3979 298.091C26.7453 294.861 37.7959 300.601 45.8602 308.411C53.9335 316.211 60.1529 326.101 68.3358 333.761C69.2126 334.581 70.1167 335.371 71.0391 336.131C77.8248 341.721 85.7155 345.571 94.008 347.631C108.401 351.211 123.982 349.411 137.06 342.011C139.151 340.831 141.169 339.511 143.115 338.051" stroke="black" style="stroke:black;stroke-opacity:1;" stroke-width="8" stroke-linecap="round" stroke-linejoin="round"/>
<path d="M141.217 338.209C146.368 334.329 150.971 329.599 156.341 326.109C161.711 322.619 168.213 320.419 174.223 322.259" stroke="black" style="stroke:black;stroke-opacity:1;" stroke-width="6" stroke-linecap="round" stroke-linejoin="round"/>
<path d="M138.867 341.4C147.05 339.08 157.379 341.79 164.466 346.59C169.992 350.33 174.923 355.02 180.138 359.25C182.12 360.86 184.138 362.4 186.248 363.8C203.226 375.04 225.546 375.08 243.108 365.24C248.04 362.48 252.588 358.94 256.552 354.65C261.593 349.18 265.776 342.66 269.968 336.13C275.493 327.53 281.046 318.92 288.635 312.71C291.813 310.12 295.941 309.26 299.713 310.56C307.923 313.39 317.138 312.72 324.874 308.55C334.144 303.55 341.075 293.62 343.039 282.51C345.788 267.01 339.221 251.27 330.7 238.55C325.559 230.88 319.641 223.82 314.134 216.45" stroke="black" style="stroke:black;stroke-opacity:1;" stroke-width="8" stroke-linecap="round" stroke-linejoin="round"/>
<path d="M137.061 342.011C137.654 341.781 138.257 341.581 138.869 341.411" stroke="black" style="stroke:black;stroke-opacity:1;" stroke-width="8" stroke-linecap="round" stroke-linejoin="round"/>
<path d="M303.668 296.991C310.207 291.481 315.924 284.791 320.527 277.281" stroke="black" style="stroke:black;stroke-opacity:1;" stroke-width="6" stroke-linecap="round" stroke-linejoin="round"/>
<path d="M314.137 216.451C317.123 206.701 322.228 195.981 325.817 186.491C329.407 176.991 332.11 166.781 331.215 156.551C330.32 146.321 325.224 136.061 316.694 131.771C310.821 128.821 303.935 128.951 297.716 130.861C294.224 131.937 290.945 133.588 287.773 135.496" stroke="black" style="stroke:black;stroke-opacity:1;" stroke-width="8" stroke-linecap="round" stroke-linejoin="round"/>
<path d="M158.678 289.931C165.399 283.441 171.272 275.901 176.085 267.621" stroke="black" style="stroke:black;stroke-opacity:1;" stroke-width="6" stroke-linecap="round" stroke-linejoin="round"/>
<path d="M56.4375 295.931C75.8811 285.351 93.6808 271.151 108.841 254.131" stroke="black" style="stroke:black;stroke-opacity:1;" stroke-width="6" stroke-linecap="round" stroke-linejoin="round"/>
<path d="M288.739 154.098C288.339 148.004 287.743 141.91 286.896 135.855C284.867 121.448 281.396 107.287 275.691 94.053C267.603 75.2673 254.778 58.3947 237.849 48.1587C219.459 37.045 196.667 34.4318 176.462 41.1375C156.257 47.8333 138.927 63.7493 129.807 83.9945C119.682 106.453 120.176 135.378 111.191 158.562" stroke="black" style="stroke:black;stroke-opacity:1;" stroke-width="8" stroke-linecap="round" stroke-linejoin="round"/>
<path d="M313.653 217.418C310.027 212.578 306.584 207.598 303.652 202.218" stroke="black" style="stroke:black;stroke-opacity:1;" stroke-width="6" stroke-linecap="round" stroke-linejoin="round"/>
<ellipse cx="7.9148" cy="6.57367" rx="7.9148" ry="6.57367" transform="matrix(-0.995669 0.0929736 0.0929736 0.995669 267.828 97.9824)" fill="#BCBBFF" fill-opacity="0.4" style="fill:#BCBBFF;fill:color(display-p3 0.7373 0.7333 1.0000);fill-opacity:0.4;"/>
<ellipse cx="9.18965" cy="7.6325" rx="9.18965" ry="7.6325" transform="matrix(-0.997188 0.0749427 0.0749427 0.997188 187.121 101.729)" fill="#BCBBFF" fill-opacity="0.4" style="fill:#BCBBFF;fill:color(display-p3 0.7373 0.7333 1.0000);fill-opacity:0.4;"/>
<path d="M202.551 92.3703C201.067 90.582 198.957 89.3625 196.557 89.4798C194.152 89.5918 192.2 91.0104 190.941 92.9323C189.68 94.8576 189.028 97.39 189.187 100.074L189.187 100.076C189.351 102.766 190.305 105.221 191.792 107.014C193.275 108.803 195.384 110.025 197.783 109.913L197.786 109.913C200.19 109.796 202.141 108.379 203.401 106.456C204.663 104.53 205.315 101.998 205.156 99.3101L205.156 99.3072C204.992 96.6174 204.037 94.1622 202.551 92.3703Z" fill="black" style="fill:black;fill-opacity:1;"/>
<path d="M246.81 89.2151C245.207 87.7257 243.098 86.8477 240.905 87.316C238.71 87.7837 237.14 89.4433 236.282 91.4581C235.423 93.4775 235.209 95.9789 235.752 98.5045C236.289 101.034 237.507 103.232 239.114 104.727C240.717 106.218 242.826 107.096 245.019 106.628C247.215 106.16 248.785 104.496 249.642 102.48C250.501 100.458 250.715 97.9547 250.172 95.4289C249.634 92.9037 248.417 90.7082 246.81 89.2151Z" fill="black" style="fill:black;fill-opacity:1;"/>
<path d="M115.804 14.0054C115.358 16.0447 115.822 18.3961 117.406 19.7543C118.992 21.1189 122.231 21.1567 123.334 19.3802L123.547 19.5017C125.447 16.3198 127.57 13.4003 129.878 10.9463C130.431 9.20649 130.159 7.28169 128.947 5.91166C127.63 4.41554 125.29 4.17176 123.421 4.87168C121.557 5.56919 120.089 7.0358 118.812 8.56698C117.47 10.1738 116.253 11.9573 115.804 14.0054Z" fill="#E5E5FF" style="fill:#E5E5FF;fill:color(display-p3 0.8980 0.8980 1.0000);fill-opacity:1;"/>
<path d="M110.275 66.642C111.028 81.1915 114.683 95.5905 120.559 108.883C121.055 108.166 121.55 107.45 122.064 106.742C126.745 100.139 131.905 93.8824 137.48 88.006L136.587 87.1652C131.25 76.7487 127.037 66.7039 125.179 54.0926C125.179 45.3133 126.25 39.4635 128.984 31.5869H128.976C118.09 43.5787 110.275 57.7477 110.275 66.642Z" fill="#BCBBFF" style="fill:#BCBBFF;fill:color(display-p3 0.7391 0.7337 1.0000);fill-opacity:1;"/>
<path d="M137.482 88.0052C131.907 93.8816 126.747 100.139 122.065 106.741L122.331 106.927C126.951 100.484 133.809 95.6693 141.447 93.5276C148.678 91.5009 156.421 91.8284 163.652 89.784C177.299 85.9431 187.149 74.4292 198.813 66.3756C208.61 59.623 220.266 55.1538 232.16 55.3662C244.055 55.5874 259.816 61.2603 266.728 70.9334C274.41 69.6325 279.384 68.2961 284.756 63.5967C287.614 61.101 289.597 57.8265 290.128 55.4724C291.022 51.4633 287.34 47.9675 283.844 45.8081C272.419 38.7723 258.834 35.6837 245.426 35.7191C245.223 35.7191 245.01 35.7191 244.807 35.7191C231.602 35.8341 218.54 38.8343 206.097 43.2416C180.113 52.4457 156.43 67.9863 137.482 87.9963V88.0052Z" fill="#BCBBFF" style="fill:#BCBBFF;fill:color(display-p3 0.7391 0.7337 1.0000);fill-opacity:1;"/>
<path d="M128.986 31.5867C126.251 39.4633 125.18 45.3132 125.18 54.0924C127.039 66.7037 131.252 76.7485 136.588 87.165L137.482 88.0058C156.43 67.9958 180.113 52.4551 206.097 43.2511C218.54 38.8438 231.602 35.8436 244.807 35.7285V35.525C237.452 28.2856 230.992 19.0639 220.106 13.3645C199.025 3.12495 173.263 3.0807 152.2 13.2848C148.235 15.2053 144.279 17.7806 140.473 20.7808C136.42 23.9757 132.535 27.6661 128.977 31.5779H128.986V31.5867Z" fill="#E5E5FF" style="fill:#E5E5FF;fill:color(display-p3 0.8980 0.8980 1.0000);fill-opacity:1;"/>
<path d="M243.025 35.8901C236.754 28.2277 230.99 19.0639 220.105 13.3645C199.024 3.12495 173.262 3.0807 152.198 13.2848C148.234 15.2053 144.278 17.7806 140.472 20.7808C136.419 23.9757 132.534 27.6661 128.976 31.5779C118.09 43.5785 112.682 58.466 112.682 70.2183C112.682 84.7872 114.683 95.5903 120.559 108.883M243.025 35.8901C229.821 36.0051 218.538 38.8438 206.095 43.2511C180.111 52.4551 156.429 67.9958 137.481 88.0058C131.905 93.8822 126.746 100.139 122.064 106.741M243.025 35.8901C243.229 35.8901 242.822 35.8901 243.025 35.8901ZM243.025 35.8901C256.433 35.8547 274.738 37.8039 283.557 43.2511C288.374 46.2269 290.557 50.9656 290.126 55.4819C289.83 58.5895 287.469 61.7717 284.61 64.2674C279.238 68.9668 272.584 71.1489 264.903 72.4498C257.991 62.7767 244.053 55.5969 232.159 55.3757C220.264 55.1633 208.609 59.6325 198.812 66.3851C187.147 74.4387 177.297 85.9526 163.65 89.7935C156.42 91.8379 148.676 91.5104 141.446 93.5371C133.808 95.6788 126.684 100.299 122.064 106.741M120.559 108.883C121.055 108.166 121.551 107.449 122.064 106.741M120.559 108.883C120.843 108.441 121.754 107.175 122.064 106.741" stroke="black" style="stroke:black;stroke-opacity:1;" stroke-width="8" stroke-linecap="round" stroke-linejoin="round"/>
<path d="M129.876 10.9463C130.429 9.20649 130.157 7.28169 128.945 5.91166C127.628 4.41554 125.288 4.17176 123.419 4.87168C121.555 5.56919 120.087 7.0358 118.81 8.56698C117.468 10.1738 116.251 11.9573 115.802 14.0054C115.356 16.0447 115.82 18.3961 117.404 19.7543C118.99 21.1189 122.229 21.1567 123.332 19.3802" stroke="black" style="stroke:black;stroke-opacity:1;" stroke-width="8" stroke-linecap="round" stroke-linejoin="round"/>
<path d="M133.332 28.3116C128.754 33.7481 126.26 40.4652 125.697 44.9018C124.925 50.9849 125.468 57.178 126.995 63.1168C129.214 71.7499 132.584 79.3527 136.586 87.1645" stroke="black" style="stroke:black;stroke-opacity:1;" stroke-width="6" stroke-linecap="round" stroke-linejoin="round"/>
<path d="M177.052 28.5538C177.701 30.0764 179.463 30.7846 180.984 30.1358C182.505 29.4871 183.213 27.726 182.564 26.2034C181.915 24.6807 180.154 23.9739 178.633 24.6226C177.112 25.2714 176.403 27.0325 177.052 28.5538Z" fill="#7B7BAC" style="fill:#7B7BAC;fill:color(display-p3 0.4837 0.4809 0.6755);fill-opacity:1;"/>
<path d="M183.999 25.5899C184.649 27.1126 186.41 27.8207 187.932 27.1714C189.455 26.5221 190.163 24.761 189.514 23.2384C188.865 21.7157 187.104 21.0089 185.581 21.6582C184.059 22.3075 183.351 24.0686 183.999 25.5899Z" fill="#7B7BAC" style="fill:#7B7BAC;fill:color(display-p3 0.4837 0.4809 0.6755);fill-opacity:1;"/>
<path d="M193.097 19.3288C189.619 15.6314 184.113 14.2877 179.217 16.3754C172.929 19.0568 170.029 26.3833 172.74 32.7396C175.45 39.0959 182.745 42.075 189.033 39.3936C194.272 37.1595 197.159 31.7009 196.409 26.2654L200.011 34.7123" stroke="#7B7BAC" style="stroke:#7B7BAC;stroke:color(display-p3 0.4837 0.4809 0.6755);stroke-opacity:1;" stroke-width="5" stroke-linecap="round" stroke-linejoin="round"/>
</svg>
