<svg width="351" height="392" viewBox="0 0 351 392" fill="none" xmlns="http://www.w3.org/2000/svg">
<ellipse cx="192.776" cy="381.863" rx="157.913" ry="9.19141" fill="black" fill-opacity="0.15" style="fill:black;fill-opacity:0.15;"/>
<path d="M138.427 308.771C137.815 308.951 137.212 309.151 136.618 309.381C123.54 316.781 107.96 318.581 93.5666 315.001C85.2741 312.941 77.3834 309.091 70.5977 303.501C69.6753 302.741 68.7712 301.951 67.8944 301.131C59.7115 293.471 53.4921 283.581 45.4188 275.781C37.3545 267.971 26.3039 262.231 15.9565 265.461C13.5455 266.211 11.1618 267.441 8.66859 267.231C6.16622 267.021 3.58165 264.561 4.23008 261.911C4.50406 260.831 5.24381 259.971 5.95617 259.161C18.2032 245.301 70.5977 195.903 70.5977 195.903L39.2175 157.97C39.2175 157.97 32.4421 131.524 42.3876 117.464C52.6528 102.944 64.5846 107.801 81.1331 110.771C90.5672 112.461 99.2814 119.311 107.903 123.921C119.173 99.6205 114.353 80.1006 125.084 55.5006C134.034 34.9706 151.039 18.8306 170.866 12.0406C190.693 5.24057 219.216 7.8905 237.262 19.1605C253.875 29.5405 266.46 46.6505 274.396 65.7005C279.994 79.1205 282.439 87.0439 284.43 101.654C289.9 97.8839 291.044 100.151 297.272 98.2306C303.492 96.3206 310.378 96.1905 316.25 99.1405C324.78 103.431 329.876 113.691 330.771 123.921C331.666 134.151 328.963 144.361 325.374 153.861C321.785 163.351 316.68 174.071 313.693 183.821C319.2 191.191 325.118 198.251 330.26 205.921C338.781 218.641 345.347 234.381 342.598 249.881C340.635 260.991 333.703 270.921 324.433 275.921C316.698 280.091 307.483 280.761 299.273 277.931C295.501 276.631 291.373 277.491 288.195 280.081C280.605 286.291 275.053 294.901 269.527 303.501C265.335 310.031 261.152 316.551 256.111 322.021C252.148 326.311 247.599 329.851 242.668 332.611C225.106 342.451 202.785 342.411 185.807 331.171C183.698 329.771 181.679 328.231 179.698 326.621C174.483 322.391 169.551 317.701 164.026 313.961C156.939 309.161 146.61 306.451 138.427 308.771Z" fill="white" fill-opacity="0.75" style="fill:white;fill-opacity:0.75;"/>
<path d="M327.512 204.441C342.663 216.071 348.033 240.641 339.321 258.511C330.617 276.391 308.991 285.191 291.703 277.851C273.885 290.261 265.492 314.291 248.788 328.431C233.573 341.311 211.891 344.331 194.22 336.041C176.1 327.541 161.625 308.151 141.642 307.641C130.272 312.031 118.71 316.351 106.691 317.341C94.6727 318.341 81.9508 315.671 72.5714 307.371C65.2196 300.861 60.9454 291.021 54.0502 283.931C32.6431 261.941 9.76554 267.281 5.22656 261.541C17.0991 246.221 44.4645 221.889 44.4645 221.889C44.4645 221.889 33.4005 244.779 58.0504 259.841C63.9866 266.631 73.2016 268.641 81.7955 268.611C103.541 268.541 125.569 257.861 146.455 264.481C157.542 267.991 166.922 276.051 175.507 284.501C184.091 292.951 192.311 302.061 202.284 308.421C212.257 314.781 224.559 318.121 235.454 313.971C247.555 309.361 255.363 296.871 262.98 285.591C270.597 274.311 280.214 262.691 292.963 261.381C302.634 260.391 312.379 265.671 321.895 263.541C332.361 261.191 339.869 249.731 340.544 238.051C341.22 226.371 336.079 214.961 327.494 204.421L327.512 204.441Z" fill="black" fill-opacity="0.15" style="fill:black;fill-opacity:0.15;"/>
<path d="M305.527 170.091C311.573 167.541 316.441 162.331 320.03 156.411C323.619 150.491 326.039 143.851 328.441 137.251C325.948 153.271 321.245 168.871 314.55 183.371C311.911 179.101 309.281 174.841 305.527 170.081V170.091Z" fill="black" fill-opacity="0.15" style="fill:black;fill-opacity:0.15;"/>
<path d="M98.8312 119.011C91.5681 116.335 77.665 112.258 69.9781 111.827C62.2911 111.395 54.2953 115.156 48.9365 120.946C42.9622 127.404 40.1194 137.459 42.3787 149.004C44.103 157.816 47.9258 169.5 55.8408 181.03" stroke="black" stroke-opacity="0.15" style="stroke:black;stroke-opacity:0.15;" stroke-width="8" stroke-linecap="round" stroke-linejoin="round"/>
<path d="M237.73 18.2306C219.382 8.38065 190.859 10.6103 171.689 18.3503C152.519 26.0903 136.482 45.4103 128.372 65.9503C120.624 85.5603 120.003 107.812 114.221 128.102" stroke="black" stroke-opacity="0.15" style="stroke:black;stroke-opacity:0.15;" stroke-width="8" stroke-linecap="round" stroke-linejoin="round"/>
<path d="M121.076 134.366C116.006 130.646 110.877 126.887 105.54 123.467C98.4543 118.924 90.7624 114.656 81.8613 110.542C70.2616 105.181 57.3394 105.283 46.6898 114.656C36.3727 123.732 34.3114 138.764 38.1271 151.685C40.2399 158.838 43.876 165.485 48.2474 171.782C51.7666 176.848 63.7464 190.511 71.7149 195.415" stroke="black" style="stroke:black;stroke-opacity:1;" stroke-width="8" stroke-linecap="round" stroke-linejoin="round"/>
<path d="M83.26 179.583C65.4267 214.08 18.2032 245.301 5.95616 259.161C5.24381 259.971 4.50406 260.831 4.23008 261.911C3.58165 264.561 6.16622 267.021 8.66859 267.231C11.1618 267.441 13.5455 266.211 15.9565 265.461C26.3039 262.231 37.3545 267.971 45.4188 275.781C53.4921 283.581 59.7115 293.471 67.8944 301.131C68.7712 301.951 69.6753 302.741 70.5977 303.501C77.3834 309.091 85.2741 312.941 93.5666 315.001C107.96 318.581 123.54 316.781 136.618 309.381C138.71 308.201 140.728 306.881 142.673 305.421" stroke="black" style="stroke:black;stroke-opacity:1;" stroke-width="8" stroke-linecap="round" stroke-linejoin="round"/>
<path d="M140.775 305.579C145.926 301.699 150.529 296.969 155.899 293.479C161.269 289.989 167.772 287.789 173.781 289.629" stroke="black" style="stroke:black;stroke-opacity:1;" stroke-width="6" stroke-linecap="round" stroke-linejoin="round"/>
<path d="M138.426 308.77C146.609 306.45 156.938 309.16 164.025 313.96C169.55 317.7 174.482 322.39 179.697 326.62C181.678 328.23 183.697 329.77 185.806 331.17C202.784 342.41 225.105 342.45 242.667 332.61C247.599 329.85 252.147 326.31 256.11 322.02C261.152 316.55 265.334 310.03 269.526 303.5C275.052 294.9 280.604 286.29 288.194 280.08C291.372 277.49 295.5 276.63 299.272 277.93C307.482 280.76 316.697 280.09 324.432 275.92C333.702 270.92 340.634 260.99 342.597 249.88C345.346 234.38 338.78 218.64 330.259 205.92C325.117 198.25 319.199 191.19 313.692 183.82" stroke="black" style="stroke:black;stroke-opacity:1;" stroke-width="8" stroke-linecap="round" stroke-linejoin="round"/>
<path d="M136.619 309.381C137.213 309.151 137.816 308.951 138.427 308.781" stroke="black" style="stroke:black;stroke-opacity:1;" stroke-width="8" stroke-linecap="round" stroke-linejoin="round"/>
<path d="M303.227 264.361C309.766 258.851 315.483 252.161 320.086 244.651" stroke="black" style="stroke:black;stroke-opacity:1;" stroke-width="6" stroke-linecap="round" stroke-linejoin="round"/>
<path d="M313.695 183.821C316.682 174.071 321.787 163.351 325.376 153.861C328.965 144.361 331.668 134.151 330.773 123.921C329.878 113.691 324.782 103.431 316.252 99.1409C310.38 96.1909 303.494 96.3209 297.275 98.2309C293.783 99.3072 290.504 100.959 287.332 102.866" stroke="black" style="stroke:black;stroke-opacity:1;" stroke-width="8" stroke-linecap="round" stroke-linejoin="round"/>
<path d="M158.236 257.301C164.958 250.811 170.83 243.271 175.643 234.991" stroke="black" style="stroke:black;stroke-opacity:1;" stroke-width="6" stroke-linecap="round" stroke-linejoin="round"/>
<path d="M55.9961 263.301C75.4397 252.721 93.2394 238.521 108.4 221.501" stroke="black" style="stroke:black;stroke-opacity:1;" stroke-width="6" stroke-linecap="round" stroke-linejoin="round"/>
<path d="M288.297 121.468C287.897 115.374 287.302 109.28 286.455 103.225C284.426 88.8177 280.954 74.6569 275.249 61.4231C267.162 42.6374 254.337 25.7648 237.408 15.5288C219.018 4.41516 196.225 1.80193 176.02 8.50759C155.815 15.2034 138.486 31.1195 129.365 51.3646C119.241 73.8235 119.734 102.748 110.75 125.932" stroke="black" style="stroke:black;stroke-opacity:1;" stroke-width="8" stroke-linecap="round" stroke-linejoin="round"/>
<path d="M313.211 184.788C309.586 179.948 306.143 174.968 303.211 169.588" stroke="black" style="stroke:black;stroke-opacity:1;" stroke-width="6" stroke-linecap="round" stroke-linejoin="round"/>
<ellipse cx="7.9148" cy="6.57367" rx="7.9148" ry="6.57367" transform="matrix(-0.995669 0.0929736 0.0929736 0.995669 267.387 65.3525)" fill="black" fill-opacity="0.15" style="fill:black;fill-opacity:0.15;"/>
<ellipse cx="9.18965" cy="7.6325" rx="9.18965" ry="7.6325" transform="matrix(-0.997188 0.0749427 0.0749427 0.997188 186.68 69.0986)" fill="black" fill-opacity="0.15" style="fill:black;fill-opacity:0.15;"/>
<path d="M202.109 59.7395C200.625 57.9511 198.515 56.7317 196.116 56.849C193.71 56.9609 191.759 58.3796 190.5 60.3014C189.238 62.2267 188.586 64.7591 188.745 67.443L188.745 67.4453C188.909 70.1353 189.864 72.5902 191.35 74.383C192.834 76.1726 194.943 77.3942 197.341 77.2824L197.345 77.2822C199.748 77.1649 201.7 75.7482 202.96 73.8251C204.221 71.8996 204.873 69.3672 204.715 66.6792L204.715 66.6764C204.551 63.9866 203.596 61.5313 202.109 59.7395Z" fill="black" style="fill:black;fill-opacity:1;"/>
<path d="M246.369 56.5852C244.766 55.0958 242.657 54.2178 240.464 54.6861C238.269 55.1538 236.698 56.8134 235.841 58.8282C234.982 60.8476 234.768 63.3491 235.311 65.8746C235.848 68.4042 237.065 70.6023 238.672 72.097C240.275 73.588 242.384 74.4662 244.577 73.9978C246.774 73.5298 248.344 71.8663 249.201 69.85C250.059 67.8286 250.274 65.3248 249.731 62.799C249.193 60.2738 247.976 58.0783 246.369 56.5852Z" fill="black" style="fill:black;fill-opacity:1;"/>
</svg>
