<svg width="352" height="392" viewBox="0 0 352 392" fill="none" xmlns="http://www.w3.org/2000/svg">
<ellipse cx="193.217" cy="381.863" rx="157.913" ry="9.19141" fill="black" fill-opacity="0.15" style="fill:black;fill-opacity:0.15;"/>
<path d="M138.868 308.771C138.256 308.951 137.653 309.151 137.06 309.381C123.982 316.781 108.401 318.581 94.008 315.001C85.7155 312.941 77.8248 309.091 71.0391 303.501C70.1167 302.741 69.2126 301.951 68.3359 301.131C60.1529 293.471 53.9335 283.581 45.8602 275.781C37.7959 267.971 26.7453 262.231 16.3979 265.461C13.9869 266.211 11.6032 267.441 9.11 267.231C6.60762 267.021 4.02306 264.561 4.67148 261.911C4.94546 260.831 5.68522 259.971 6.39757 259.161C18.6446 245.301 71.0391 195.903 71.0391 195.903L39.659 157.97C39.659 157.97 32.8835 131.524 42.829 117.464C53.0942 102.944 65.026 107.801 81.5745 110.771C91.0086 112.461 99.7228 119.311 108.344 123.921C119.614 99.6205 114.794 80.1006 125.525 55.5006C134.475 34.9706 151.48 18.8306 171.308 12.0406C191.135 5.24057 219.657 7.8905 237.704 19.1605C254.316 29.5405 266.901 46.6505 274.837 65.7005C280.436 79.1205 282.88 87.0439 284.871 101.654C290.342 97.8839 291.485 100.151 297.714 98.2306C303.933 96.3206 310.819 96.1905 316.692 99.1405C325.222 103.431 330.318 113.691 331.213 123.921C332.108 134.151 329.405 144.361 325.815 153.861C322.226 163.351 317.121 174.071 314.135 183.821C319.642 191.191 325.56 198.251 330.701 205.921C339.222 218.641 345.789 234.381 343.04 249.881C341.076 260.991 334.144 270.921 324.875 275.921C317.139 280.091 307.924 280.761 299.714 277.931C295.942 276.631 291.814 277.491 288.636 280.081C281.047 286.291 275.494 294.901 269.969 303.501C265.777 310.031 261.594 316.551 256.553 322.021C252.589 326.311 248.041 329.851 243.109 332.611C225.547 342.451 203.226 342.411 186.249 331.171C184.139 329.771 182.121 328.231 180.139 326.621C174.924 322.391 169.992 317.701 164.467 313.961C157.38 309.161 147.051 306.451 138.868 308.771Z" fill="white" fill-opacity="0.75" style="fill:white;fill-opacity:0.75;"/>
<path d="M327.953 204.441C343.105 216.071 348.475 240.641 339.762 258.511C331.059 276.391 309.432 285.191 292.144 277.851C274.326 290.261 265.933 314.291 249.229 328.431C234.014 341.311 212.333 344.331 194.661 336.041C176.542 327.541 162.066 308.151 142.084 307.641C130.714 312.031 119.151 316.351 107.133 317.341C95.1141 318.341 82.3922 315.671 73.0128 307.371C65.661 300.861 61.3868 291.021 54.4916 283.931C33.0845 261.941 10.2069 267.281 5.66797 261.541C17.5405 246.221 44.9059 221.889 44.9059 221.889C44.9059 221.889 33.8419 244.779 58.4918 259.841C64.4281 266.631 73.643 268.641 82.2369 268.611C103.982 268.541 126.01 257.861 146.897 264.481C157.984 267.991 167.363 276.051 175.948 284.501C184.533 292.951 192.752 302.061 202.725 308.421C212.698 314.781 225 318.121 235.895 313.971C247.996 309.361 255.805 296.871 263.421 285.591C271.038 274.311 280.655 262.691 293.404 261.381C303.076 260.391 312.82 265.671 322.337 263.541C332.803 261.191 340.31 249.731 340.986 238.051C341.662 226.371 336.52 214.961 327.935 204.421L327.953 204.441Z" fill="#BCBBFF" fill-opacity="0.4" style="fill:#BCBBFF;fill:color(display-p3 0.7373 0.7333 1.0000);fill-opacity:0.4;"/>
<path d="M305.969 170.091C312.015 167.541 316.882 162.331 320.472 156.411C324.061 150.491 326.481 143.851 328.883 137.251C326.39 153.271 321.686 168.871 314.992 183.371C312.353 179.101 309.722 174.841 305.969 170.081V170.091Z" fill="#BCBBFF" fill-opacity="0.4" style="fill:#BCBBFF;fill:color(display-p3 0.7373 0.7333 1.0000);fill-opacity:0.4;"/>
<path d="M99.2727 119.011C92.0095 116.335 78.1064 112.258 70.4195 111.827C62.7325 111.395 54.7367 115.156 49.3779 120.946C43.4036 127.404 40.5609 137.459 42.8201 149.004C44.5444 157.816 48.3672 169.5 56.2822 181.03" stroke="#BCBBFF" stroke-opacity="0.4" style="stroke:#BCBBFF;stroke:color(display-p3 0.7373 0.7333 1.0000);stroke-opacity:0.4;" stroke-width="8" stroke-linecap="round" stroke-linejoin="round"/>
<path d="M238.171 18.2306C219.824 8.38065 191.3 10.6103 172.13 18.3503C152.961 26.0903 136.924 45.4103 128.814 65.9503C121.065 85.5603 120.445 107.812 114.662 128.102" stroke="#BCBBFF" stroke-opacity="0.4" style="stroke:#BCBBFF;stroke:color(display-p3 0.7373 0.7333 1.0000);stroke-opacity:0.4;" stroke-width="8" stroke-linecap="round" stroke-linejoin="round"/>
<path d="M121.518 134.366C116.448 130.646 111.318 126.887 105.981 123.467C98.8957 118.924 91.2038 114.656 82.3027 110.542C70.703 105.181 57.7808 105.283 47.1312 114.656C36.8141 123.732 34.7528 138.764 38.5685 151.685C40.6813 158.838 44.3174 165.485 48.6889 171.782C52.208 176.848 64.1878 190.511 72.1563 195.415" stroke="black" style="stroke:black;stroke-opacity:1;" stroke-width="8" stroke-linecap="round" stroke-linejoin="round"/>
<path d="M83.7014 179.583C65.8681 214.08 18.6446 245.301 6.39757 259.161C5.68522 259.971 4.94546 260.831 4.67148 261.911C4.02306 264.561 6.60762 267.021 9.11 267.231C11.6032 267.441 13.9869 266.211 16.3979 265.461C26.7453 262.231 37.7959 267.971 45.8602 275.781C53.9335 283.581 60.1529 293.471 68.3358 301.131C69.2126 301.951 70.1167 302.741 71.0391 303.501C77.8248 309.091 85.7155 312.941 94.008 315.001C108.401 318.581 123.982 316.781 137.06 309.381C139.151 308.201 141.169 306.881 143.115 305.421" stroke="black" style="stroke:black;stroke-opacity:1;" stroke-width="8" stroke-linecap="round" stroke-linejoin="round"/>
<path d="M141.217 305.579C146.368 301.699 150.971 296.969 156.341 293.479C161.711 289.989 168.213 287.789 174.223 289.629" stroke="black" style="stroke:black;stroke-opacity:1;" stroke-width="6" stroke-linecap="round" stroke-linejoin="round"/>
<path d="M138.867 308.77C147.05 306.45 157.379 309.16 164.466 313.96C169.992 317.7 174.923 322.39 180.138 326.62C182.12 328.23 184.138 329.77 186.248 331.17C203.226 342.41 225.546 342.45 243.108 332.61C248.04 329.85 252.588 326.31 256.552 322.02C261.593 316.55 265.776 310.03 269.968 303.5C275.493 294.9 281.046 286.29 288.635 280.08C291.813 277.49 295.941 276.63 299.713 277.93C307.923 280.76 317.138 280.09 324.874 275.92C334.144 270.92 341.075 260.99 343.039 249.88C345.788 234.38 339.221 218.64 330.7 205.92C325.559 198.25 319.641 191.19 314.134 183.82" stroke="black" style="stroke:black;stroke-opacity:1;" stroke-width="8" stroke-linecap="round" stroke-linejoin="round"/>
<path d="M137.061 309.381C137.654 309.151 138.257 308.951 138.869 308.781" stroke="black" style="stroke:black;stroke-opacity:1;" stroke-width="8" stroke-linecap="round" stroke-linejoin="round"/>
<path d="M303.668 264.361C310.207 258.851 315.924 252.161 320.527 244.651" stroke="black" style="stroke:black;stroke-opacity:1;" stroke-width="6" stroke-linecap="round" stroke-linejoin="round"/>
<path d="M314.137 183.821C317.123 174.071 322.228 163.351 325.817 153.861C329.407 144.361 332.11 134.151 331.215 123.921C330.32 113.691 325.224 103.431 316.694 99.1409C310.821 96.1909 303.935 96.3209 297.716 98.2309C294.224 99.3072 290.945 100.959 287.773 102.866" stroke="black" style="stroke:black;stroke-opacity:1;" stroke-width="8" stroke-linecap="round" stroke-linejoin="round"/>
<path d="M158.678 257.301C165.399 250.811 171.272 243.271 176.085 234.991" stroke="black" style="stroke:black;stroke-opacity:1;" stroke-width="6" stroke-linecap="round" stroke-linejoin="round"/>
<path d="M56.4375 263.301C75.8811 252.721 93.6808 238.521 108.841 221.501" stroke="black" style="stroke:black;stroke-opacity:1;" stroke-width="6" stroke-linecap="round" stroke-linejoin="round"/>
<path d="M288.739 121.468C288.339 115.374 287.743 109.28 286.896 103.225C284.867 88.8177 281.396 74.6569 275.691 61.4231C267.603 42.6374 254.778 25.7648 237.849 15.5288C219.459 4.41516 196.667 1.80193 176.462 8.50759C156.257 15.2034 138.927 31.1195 129.807 51.3646C119.682 73.8235 120.176 102.748 111.191 125.932" stroke="black" style="stroke:black;stroke-opacity:1;" stroke-width="8" stroke-linecap="round" stroke-linejoin="round"/>
<path d="M313.653 184.788C310.027 179.948 306.584 174.968 303.652 169.588" stroke="black" style="stroke:black;stroke-opacity:1;" stroke-width="6" stroke-linecap="round" stroke-linejoin="round"/>
<ellipse cx="7.9148" cy="6.57367" rx="7.9148" ry="6.57367" transform="matrix(-0.995669 0.0929736 0.0929736 0.995669 267.828 65.3525)" fill="#BCBBFF" fill-opacity="0.4" style="fill:#BCBBFF;fill:color(display-p3 0.7373 0.7333 1.0000);fill-opacity:0.4;"/>
<ellipse cx="9.18965" cy="7.6325" rx="9.18965" ry="7.6325" transform="matrix(-0.997188 0.0749427 0.0749427 0.997188 187.121 69.0986)" fill="#BCBBFF" fill-opacity="0.4" style="fill:#BCBBFF;fill:color(display-p3 0.7373 0.7333 1.0000);fill-opacity:0.4;"/>
<path d="M202.551 59.7395C201.067 57.9511 198.957 56.7317 196.557 56.849C194.152 56.9609 192.2 58.3796 190.941 60.3014C189.68 62.2267 189.028 64.7591 189.187 67.443L189.187 67.4453C189.351 70.1353 190.305 72.5902 191.792 74.383C193.275 76.1726 195.384 77.3942 197.783 77.2824L197.786 77.2822C200.19 77.1649 202.141 75.7482 203.401 73.8251C204.663 71.8996 205.315 69.3672 205.156 66.6792L205.156 66.6764C204.992 63.9866 204.037 61.5313 202.551 59.7395Z" fill="black" style="fill:black;fill-opacity:1;"/>
<path d="M246.81 56.5852C245.207 55.0958 243.098 54.2178 240.905 54.6861C238.71 55.1538 237.14 56.8134 236.282 58.8282C235.423 60.8476 235.209 63.3491 235.752 65.8746C236.289 68.4042 237.507 70.6023 239.114 72.097C240.717 73.588 242.826 74.4662 245.019 73.9978C247.215 73.5298 248.785 71.8663 249.642 69.85C250.501 67.8286 250.715 65.3248 250.172 62.799C249.634 60.2738 248.417 58.0783 246.81 56.5852Z" fill="black" style="fill:black;fill-opacity:1;"/>
</svg>
