<svg width="351" height="424" viewBox="0 0 351 424" fill="none" xmlns="http://www.w3.org/2000/svg">
<ellipse cx="192.776" cy="414.493" rx="157.913" ry="9.19141" fill="black" fill-opacity="0.15" style="fill:black;fill-opacity:0.15;"/>
<path d="M138.427 341.4C137.815 341.58 137.212 341.78 136.618 342.01C123.54 349.41 107.96 351.21 93.5666 347.63C85.2741 345.57 77.3834 341.72 70.5977 336.13C69.6753 335.37 68.7712 334.58 67.8944 333.76C59.7115 326.1 53.4921 316.21 45.4188 308.41C37.3545 300.6 26.3039 294.86 15.9565 298.09C13.5455 298.84 11.1618 300.07 8.66859 299.86C6.16622 299.65 3.58165 297.19 4.23008 294.54C4.50406 293.46 5.24381 292.6 5.95617 291.79C18.2032 277.93 70.5977 228.533 70.5977 228.533L39.2175 190.6C39.2175 190.6 32.4421 164.154 42.3876 150.094C52.6528 135.574 64.5846 140.431 81.1331 143.401C90.5672 145.091 99.2814 151.94 107.903 156.55C119.173 132.25 114.353 112.73 125.084 88.1305C134.034 67.6005 151.039 51.4605 170.866 44.6705C190.693 37.8705 219.216 40.5204 237.262 51.7904C253.875 62.1704 266.46 79.2804 274.396 98.3304C279.994 111.75 282.439 119.674 284.43 134.284C289.9 130.514 291.044 132.78 297.272 130.86C303.492 128.95 310.378 128.82 316.25 131.77C324.78 136.06 329.876 146.32 330.771 156.55C331.666 166.78 328.963 176.99 325.374 186.49C321.785 195.98 316.68 206.7 313.693 216.45C319.2 223.82 325.118 230.88 330.26 238.55C338.781 251.27 345.347 267.01 342.598 282.51C340.635 293.62 333.703 303.55 324.433 308.55C316.698 312.72 307.483 313.39 299.273 310.56C295.501 309.26 291.373 310.12 288.195 312.71C280.605 318.92 275.053 327.53 269.527 336.13C265.335 342.66 261.152 349.18 256.111 354.65C252.148 358.94 247.599 362.48 242.668 365.24C225.106 375.08 202.785 375.04 185.807 363.8C183.698 362.4 181.679 360.86 179.698 359.25C174.483 355.02 169.551 350.33 164.026 346.59C156.939 341.79 146.61 339.08 138.427 341.4Z" fill="white" fill-opacity="0.75" style="fill:white;fill-opacity:0.75;"/>
<path d="M327.512 237.071C342.663 248.701 348.033 273.271 339.321 291.141C330.617 309.021 308.991 317.821 291.703 310.481C273.885 322.891 265.492 346.921 248.788 361.061C233.573 373.941 211.891 376.961 194.22 368.671C176.1 360.171 161.625 340.781 141.642 340.271C130.272 344.661 118.71 348.981 106.691 349.971C94.6727 350.971 81.9508 348.301 72.5714 340.001C65.2196 333.491 60.9454 323.651 54.0502 316.561C32.6431 294.571 9.76554 299.911 5.22656 294.171C17.0991 278.851 44.4645 254.519 44.4645 254.519C44.4645 254.519 33.4005 277.409 58.0504 292.471C63.9866 299.261 73.2016 301.271 81.7955 301.241C103.541 301.171 125.569 290.491 146.455 297.111C157.542 300.621 166.922 308.681 175.507 317.131C184.091 325.581 192.311 334.691 202.284 341.051C212.257 347.411 224.559 350.751 235.454 346.601C247.555 341.991 255.363 329.501 262.98 318.221C270.597 306.941 280.214 295.321 292.963 294.011C302.634 293.021 312.379 298.301 321.895 296.171C332.361 293.821 339.869 282.361 340.544 270.681C341.22 259.001 336.079 247.591 327.494 237.051L327.512 237.071Z" fill="black" fill-opacity="0.15" style="fill:black;fill-opacity:0.15;"/>
<path d="M305.527 202.721C311.573 200.171 316.441 194.961 320.03 189.041C323.619 183.121 326.039 176.481 328.441 169.881C325.948 185.901 321.245 201.501 314.55 216.001C311.911 211.731 309.281 207.471 305.527 202.711V202.721Z" fill="black" fill-opacity="0.15" style="fill:black;fill-opacity:0.15;"/>
<path d="M98.8312 151.641C91.5681 148.965 77.665 144.888 69.9781 144.456C62.2911 144.025 54.2953 147.786 48.9365 153.576C42.9622 160.034 40.1194 170.089 42.3787 181.634C44.103 190.446 47.9258 202.13 55.8408 213.66" stroke="black" stroke-opacity="0.15" style="stroke:black;stroke-opacity:0.15;" stroke-width="8" stroke-linecap="round" stroke-linejoin="round"/>
<path d="M237.73 50.8605C219.382 41.0105 190.859 43.2402 171.689 50.9802C152.519 58.7202 136.482 78.0402 128.372 98.5802C120.624 118.19 120.003 140.441 114.221 160.731" stroke="black" stroke-opacity="0.15" style="stroke:black;stroke-opacity:0.15;" stroke-width="8" stroke-linecap="round" stroke-linejoin="round"/>
<path d="M121.076 166.996C116.006 163.276 110.877 159.516 105.54 156.096C98.4543 151.554 90.7624 147.286 81.8613 143.172C70.2616 137.81 57.3394 137.913 46.6898 147.286C36.3727 156.362 34.3114 171.394 38.1271 184.315C40.2399 191.467 43.876 198.115 48.2474 204.412C51.7666 209.478 63.7464 223.141 71.7149 228.044" stroke="black" style="stroke:black;stroke-opacity:1;" stroke-width="8" stroke-linecap="round" stroke-linejoin="round"/>
<path d="M83.26 212.213C65.4267 246.71 18.2032 277.931 5.95616 291.791C5.24381 292.601 4.50406 293.461 4.23008 294.541C3.58165 297.191 6.16622 299.651 8.66859 299.861C11.1618 300.071 13.5455 298.841 15.9565 298.091C26.3039 294.861 37.3545 300.601 45.4188 308.411C53.4921 316.211 59.7115 326.101 67.8944 333.761C68.7712 334.581 69.6753 335.371 70.5977 336.131C77.3834 341.721 85.2741 345.571 93.5666 347.631C107.96 351.211 123.54 349.411 136.618 342.011C138.71 340.831 140.728 339.511 142.673 338.051" stroke="black" style="stroke:black;stroke-opacity:1;" stroke-width="8" stroke-linecap="round" stroke-linejoin="round"/>
<path d="M140.775 338.209C145.926 334.329 150.529 329.599 155.899 326.109C161.269 322.619 167.772 320.419 173.781 322.259" stroke="black" style="stroke:black;stroke-opacity:1;" stroke-width="6" stroke-linecap="round" stroke-linejoin="round"/>
<path d="M138.426 341.4C146.609 339.08 156.938 341.79 164.025 346.59C169.55 350.33 174.482 355.02 179.697 359.25C181.678 360.86 183.697 362.4 185.806 363.8C202.784 375.04 225.105 375.08 242.667 365.24C247.599 362.48 252.147 358.94 256.11 354.65C261.152 349.18 265.334 342.66 269.526 336.13C275.052 327.53 280.604 318.92 288.194 312.71C291.372 310.12 295.5 309.26 299.272 310.56C307.482 313.39 316.697 312.72 324.432 308.55C333.702 303.55 340.634 293.62 342.597 282.51C345.346 267.01 338.78 251.27 330.259 238.55C325.117 230.88 319.199 223.82 313.692 216.45" stroke="black" style="stroke:black;stroke-opacity:1;" stroke-width="8" stroke-linecap="round" stroke-linejoin="round"/>
<path d="M136.619 342.011C137.213 341.781 137.816 341.581 138.427 341.411" stroke="black" style="stroke:black;stroke-opacity:1;" stroke-width="8" stroke-linecap="round" stroke-linejoin="round"/>
<path d="M303.227 296.991C309.766 291.481 315.483 284.791 320.086 277.281" stroke="black" style="stroke:black;stroke-opacity:1;" stroke-width="6" stroke-linecap="round" stroke-linejoin="round"/>
<path d="M313.695 216.451C316.682 206.701 321.787 195.981 325.376 186.491C328.965 176.991 331.668 166.781 330.773 156.551C329.878 146.321 324.782 136.061 316.252 131.771C310.38 128.821 303.494 128.951 297.275 130.861C293.783 131.937 290.504 133.588 287.332 135.496" stroke="black" style="stroke:black;stroke-opacity:1;" stroke-width="8" stroke-linecap="round" stroke-linejoin="round"/>
<path d="M158.236 289.931C164.958 283.441 170.83 275.901 175.643 267.621" stroke="black" style="stroke:black;stroke-opacity:1;" stroke-width="6" stroke-linecap="round" stroke-linejoin="round"/>
<path d="M55.9961 295.931C75.4397 285.351 93.2394 271.151 108.4 254.131" stroke="black" style="stroke:black;stroke-opacity:1;" stroke-width="6" stroke-linecap="round" stroke-linejoin="round"/>
<path d="M288.297 154.098C287.897 148.004 287.302 141.91 286.455 135.855C284.426 121.448 280.954 107.287 275.249 94.053C267.162 75.2673 254.337 58.3947 237.408 48.1587C219.018 37.045 196.225 34.4318 176.02 41.1375C155.815 47.8333 138.486 63.7493 129.365 83.9945C119.241 106.453 119.734 135.378 110.75 158.562" stroke="black" style="stroke:black;stroke-opacity:1;" stroke-width="8" stroke-linecap="round" stroke-linejoin="round"/>
<path d="M313.211 217.418C309.586 212.578 306.143 207.598 303.211 202.218" stroke="black" style="stroke:black;stroke-opacity:1;" stroke-width="6" stroke-linecap="round" stroke-linejoin="round"/>
<ellipse cx="7.9148" cy="6.57367" rx="7.9148" ry="6.57367" transform="matrix(-0.995669 0.0929736 0.0929736 0.995669 267.387 97.9824)" fill="black" fill-opacity="0.15" style="fill:black;fill-opacity:0.15;"/>
<ellipse cx="9.18965" cy="7.6325" rx="9.18965" ry="7.6325" transform="matrix(-0.997188 0.0749427 0.0749427 0.997188 186.68 101.729)" fill="black" fill-opacity="0.15" style="fill:black;fill-opacity:0.15;"/>
<path d="M202.109 92.3703C200.625 90.582 198.515 89.3625 196.116 89.4798C193.71 89.5918 191.759 91.0104 190.5 92.9323C189.238 94.8576 188.586 97.39 188.745 100.074L188.745 100.076C188.909 102.766 189.864 105.221 191.35 107.014C192.834 108.803 194.943 110.025 197.341 109.913L197.345 109.913C199.748 109.796 201.7 108.379 202.96 106.456C204.221 104.53 204.873 101.998 204.715 99.3101L204.715 99.3072C204.551 96.6174 203.596 94.1622 202.109 92.3703Z" fill="black" style="fill:black;fill-opacity:1;"/>
<path d="M246.369 89.2151C244.766 87.7257 242.657 86.8477 240.464 87.316C238.269 87.7837 236.698 89.4433 235.841 91.4581C234.982 93.4775 234.768 95.9789 235.311 98.5045C235.848 101.034 237.065 103.232 238.672 104.727C240.275 106.218 242.384 107.096 244.577 106.628C246.774 106.16 248.344 104.496 249.201 102.48C250.059 100.458 250.274 97.9547 249.731 95.4289C249.193 92.9037 247.976 90.7082 246.369 89.2151Z" fill="black" style="fill:black;fill-opacity:1;"/>
<path d="M115.362 14.0054C114.917 16.0447 115.381 18.3961 116.965 19.7543C118.551 21.1189 121.789 21.1567 122.893 19.3802L123.106 19.5017C125.006 16.3198 127.129 13.4003 129.437 10.9463C129.989 9.20649 129.718 7.28169 128.506 5.91166C127.188 4.41554 124.849 4.17176 122.979 4.87168C121.116 5.56919 119.647 7.0358 118.37 8.56698C117.028 10.1738 115.811 11.9573 115.362 14.0054Z" fill="#F2F2F2" style="fill:#F2F2F2;fill:color(display-p3 0.9472 0.9472 0.9472);fill-opacity:1;"/>
<path d="M109.834 66.642C110.586 81.1915 114.241 95.5905 120.118 108.883C120.613 108.166 121.109 107.45 121.622 106.742C126.304 100.139 131.464 93.8824 137.039 88.006L136.145 87.1652C130.809 76.7487 126.596 66.7039 124.737 54.0926C124.737 45.3133 125.808 39.4635 128.543 31.5869H128.534C117.649 43.5787 109.834 57.7477 109.834 66.642Z" fill="#D5D5D5" style="fill:#D5D5D5;fill:color(display-p3 0.8353 0.8353 0.8353);fill-opacity:1;"/>
<path d="M137.041 88.0052C131.465 93.8816 126.306 100.139 121.624 106.741L121.889 106.927C126.509 100.484 133.368 95.6693 141.006 93.5276C148.236 91.5009 155.98 91.8284 163.21 89.784C176.857 85.9431 186.707 74.4292 198.372 66.3756C208.169 59.623 219.824 55.1538 231.719 55.3662C243.613 55.5874 259.375 61.2603 266.287 70.9334C273.969 69.6325 278.943 68.2961 284.315 63.5967C287.173 61.101 289.155 57.8265 289.686 55.4724C290.58 51.4633 286.899 47.9675 283.403 45.8081C271.978 38.7723 258.393 35.6837 244.985 35.7191C244.781 35.7191 244.569 35.7191 244.365 35.7191C231.161 35.8341 218.098 38.8343 205.655 43.2416C179.671 52.4457 155.989 67.9863 137.041 87.9963V88.0052Z" fill="#D5D5D5" style="fill:#D5D5D5;fill:color(display-p3 0.8353 0.8353 0.8353);fill-opacity:1;"/>
<path d="M128.545 31.5867C125.81 39.4633 124.739 45.3132 124.739 54.0924C126.598 66.7037 130.81 76.7485 136.147 87.165L137.041 88.0058C155.989 67.9958 179.671 52.4551 205.655 43.2511C218.098 38.8438 231.161 35.8436 244.365 35.7285V35.525C237.011 28.2856 230.55 19.0639 219.665 13.3645C198.584 3.12495 172.821 3.0807 151.758 13.2848C147.793 15.2053 143.837 17.7806 140.032 20.7808C135.979 23.9757 132.093 27.6661 128.536 31.5779H128.545V31.5867Z" fill="#F2F2F2" style="fill:#F2F2F2;fill:color(display-p3 0.9472 0.9472 0.9472);fill-opacity:1;"/>
<path d="M242.584 35.8901C236.312 28.2277 230.549 19.0639 219.663 13.3645C198.583 3.12495 172.82 3.0807 151.757 13.2848C147.792 15.2053 143.836 17.7806 140.031 20.7808C135.977 23.9757 132.092 27.6661 128.534 31.5779C117.649 43.5785 112.241 58.466 112.241 70.2183C112.241 84.7872 114.242 95.5903 120.118 108.883M242.584 35.8901C229.38 36.0051 218.097 38.8438 205.654 43.2511C179.67 52.4551 155.987 67.9958 137.039 88.0058C131.464 93.8822 126.304 100.139 121.623 106.741M242.584 35.8901C242.787 35.8901 242.38 35.8901 242.584 35.8901ZM242.584 35.8901C255.992 35.8547 274.296 37.8039 283.115 43.2511C287.933 46.2269 290.116 50.9656 289.685 55.4819C289.389 58.5895 287.028 61.7717 284.169 64.2674C278.797 68.9668 272.143 71.1489 264.461 72.4498C257.549 62.7767 243.612 55.5969 231.717 55.3757C219.823 55.1633 208.167 59.6325 198.37 66.3851C186.706 74.4387 176.856 85.9526 163.209 89.7935C155.978 91.8379 148.235 91.5104 141.004 93.5371C133.367 95.6788 126.242 100.299 121.623 106.741M120.118 108.883C120.614 108.166 121.109 107.449 121.623 106.741M120.118 108.883C120.401 108.441 121.313 107.175 121.623 106.741" stroke="black" style="stroke:black;stroke-opacity:1;" stroke-width="8" stroke-linecap="round" stroke-linejoin="round"/>
<path d="M129.435 10.9463C129.987 9.20649 129.716 7.28169 128.504 5.91166C127.186 4.41554 124.847 4.17176 122.977 4.87168C121.114 5.56919 119.645 7.0358 118.368 8.56698C117.026 10.1738 115.809 11.9573 115.36 14.0054C114.915 16.0447 115.379 18.3961 116.963 19.7543C118.549 21.1189 121.787 21.1567 122.891 19.3802" stroke="black" style="stroke:black;stroke-opacity:1;" stroke-width="8" stroke-linecap="round" stroke-linejoin="round"/>
<path d="M132.891 28.3116C128.313 33.7481 125.819 40.4652 125.256 44.9018C124.483 50.9849 125.027 57.178 126.553 63.1168C128.772 71.7499 132.142 79.3527 136.145 87.1645" stroke="black" style="stroke:black;stroke-opacity:1;" stroke-width="6" stroke-linecap="round" stroke-linejoin="round"/>
<path d="M176.611 28.5538C177.26 30.0764 179.021 30.7846 180.542 30.1358C182.064 29.4871 182.772 27.726 182.123 26.2034C181.473 24.6807 179.713 23.9739 178.191 24.6226C176.67 25.2714 175.962 27.0325 176.611 28.5538Z" fill="#8D8D8D" style="fill:#8D8D8D;fill:color(display-p3 0.5513 0.5513 0.5513);fill-opacity:1;"/>
<path d="M183.558 25.5899C184.207 27.1126 185.968 27.8207 187.491 27.1714C189.014 26.5221 189.722 24.761 189.073 23.2384C188.423 21.7157 186.663 21.0089 185.14 21.6582C183.617 22.3075 182.909 24.0686 183.558 25.5899Z" fill="#8D8D8D" style="fill:#8D8D8D;fill:color(display-p3 0.5513 0.5513 0.5513);fill-opacity:1;"/>
<path d="M192.655 19.3288C189.178 15.6314 183.672 14.2877 178.776 16.3754C172.488 19.0568 169.588 26.3833 172.298 32.7396C175.009 39.0959 182.304 42.075 188.592 39.3936C193.831 37.1595 196.718 31.7009 195.968 26.2654L199.57 34.7123" stroke="#8D8D8D" style="stroke:#8D8D8D;stroke:color(display-p3 0.5513 0.5513 0.5513);stroke-opacity:1;" stroke-width="5" stroke-linecap="round" stroke-linejoin="round"/>
</svg>
