<svg width="480" height="418" viewBox="0 0 480 418" fill="none" xmlns="http://www.w3.org/2000/svg">
<path d="M208.364 339.895C200.952 346.141 192.989 351.623 184.197 355.787C161.426 366.571 131.391 366.27 113.783 348.252C107.364 341.682 102.821 333.089 95.0397 328.204C83.2557 320.793 68.0066 324.032 54.1763 322.389C38.8554 320.564 24.1545 311.814 16.5715 298.372C8.98841 284.93 9.39891 266.954 18.8141 254.72C24.8575 246.862 33.7781 241.888 42.01 236.37C59.8959 224.37 75.4409 208.898 87.5298 191.083C96.2913 178.159 104.694 160.305 104.221 147.941C103.608 131.81 99.2913 116.042 98.6681 99.9094C97.2808 63.5822 126.145 28.5468 162.071 22.9627C190.213 18.5904 226.621 28.959 247.45 48.3771C268.288 67.7969 274.518 95.5593 285.247 121.932C292.113 138.813 297.872 156.063 302.808 173.558C307.836 191.344 311.998 209.397 315.589 227.577C320.695 253.318 324.668 279.333 328.318 305.282C329.026 310.302 328.935 316.799 324.26 318.763C320.842 320.19 317.061 318.147 313.392 317.654C306.015 316.653 299.314 322.056 294.69 327.893C290.065 333.73 286.238 340.545 279.894 344.446C269.426 350.882 255.89 347.331 244.377 343.04C232.862 338.758 219.896 335.609 208.39 339.92L208.364 339.895Z" fill="white" fill-opacity="0.75" style="fill:white;fill-opacity:0.75;"/>
<path d="M323.315 192.771C323.119 198.337 321.537 203.758 319.9 209.089C318.263 214.42 316.087 222.023 315.598 227.579L315.588 227.578C311.996 209.398 307.835 191.344 302.807 173.559C308.064 171.694 314.988 172.852 318.584 177.115C322.181 181.369 323.503 187.193 323.315 192.771Z" fill="white" fill-opacity="0.75" style="fill:white;fill-opacity:0.75;"/>
<path d="M317.687 240.766C324.121 266.266 327.428 292.563 325.633 320.345C317.547 317.134 307.885 318.239 300.73 323.21C292.011 329.263 287.348 340.216 278.066 345.352C268.447 350.674 256.491 348.387 246.063 344.929C235.635 341.471 225.021 336.906 214.165 338.113C199.981 347.609 185.099 356.681 168.506 360.665C151.913 364.649 133.138 362.854 119.781 352.224C111.544 345.67 105.79 336.201 96.9137 330.542C81.119 320.47 60.2052 325.048 42.2692 319.633C30.6037 316.117 20.2128 308.029 14.7189 297.154C9.22498 286.279 8.98944 272.697 14.8631 262.021C20.7947 251.243 31.8338 244.488 41.9661 237.519C66.7193 220.509 89.4891 198.344 99.1543 169.912C90.3427 199.707 63.8701 220.086 41.4215 241.555C35.8981 246.833 30.4673 252.401 26.9314 259.174C23.3954 265.947 21.9556 274.172 24.7216 281.287C29.1175 292.594 42.3066 297.709 54.3474 299.138C66.3882 300.568 79.0318 299.706 90.1454 304.559C110.767 313.565 120.204 339.545 141.15 347.775C158.588 354.626 178.457 346.828 193.668 335.884C203.561 328.772 214.032 319.811 226.14 321.202C240.904 322.902 252.052 339.78 266.75 337.513C275.792 336.12 281.902 327.929 287.691 320.849C293.48 313.77 301.618 306.603 310.58 308.422C316.05 309.535 322.959 313.409 326.17 308.843C327.523 306.912 327.263 304.322 326.951 301.986C324.304 282.304 321.648 262.619 317.708 240.759L317.687 240.766Z" fill="#BCBBFF" fill-opacity="0.4" style="fill:#BCBBFF;fill:color(display-p3 0.7373 0.7333 1.0000);fill-opacity:0.4;"/>
<path d="M214.586 27.7792C192.062 19.4235 160.983 24.5833 140.095 37.6554C119.205 50.7373 105.655 74.8158 105.337 99.4616C105.114 116.039 109.53 142.555 102.2 162.326" stroke="#BCBBFF" stroke-opacity="0.4" style="stroke:#BCBBFF;stroke:color(display-p3 0.7373 0.7333 1.0000);stroke-opacity:0.4;" stroke-width="8" stroke-linecap="round" stroke-linejoin="round"/>
<path d="M119.758 315.328C136.468 308.037 152.19 298.498 166.364 287.033" stroke="black" style="stroke:black;stroke-opacity:1;" stroke-width="6" stroke-linecap="round" stroke-linejoin="round"/>
<path d="M305.079 297.576C305.655 286.679 304.854 275.709 302.677 265.012" stroke="black" style="stroke:black;stroke-opacity:1;" stroke-width="6" stroke-linecap="round" stroke-linejoin="round"/>
<path d="M208.389 339.921C219.895 335.609 232.861 338.758 244.376 343.04C255.889 347.332 269.426 350.882 279.893 344.447C286.237 340.545 290.064 333.731 294.689 327.893C299.313 322.056 306.014 316.654 313.391 317.655C317.06 318.147 320.841 320.19 324.259 318.763C328.934 316.8 329.025 310.303 328.317 305.283C324.667 279.333 320.694 253.318 315.589 227.578C311.997 209.398 307.835 191.344 302.807 173.559C297.871 156.063 294.234 143.518 284.576 116.217C273.899 86.0363 265.253 64.1233 244.414 44.7035C223.586 25.2854 193.603 20.208 165.461 24.5803C129.535 30.1644 100.134 64.9991 101.69 105.287C102.314 121.42 103.607 131.81 104.221 147.942C104.694 160.306 96.2904 178.16 87.5289 191.083C75.44 208.898 59.895 224.37 42.0091 236.371C33.7772 241.888 24.8566 246.863 18.8132 254.72C9.39802 266.955 8.98752 284.93 16.5706 298.373C24.1536 311.815 38.8545 320.564 54.1754 322.389C68.0057 324.032 83.2548 320.794 95.0388 328.205C102.82 333.089 107.363 341.683 113.782 348.252C131.39 366.27 161.425 366.572 184.196 355.788C192.989 351.624 200.951 346.141 208.363 339.896" stroke="black" style="stroke:black;stroke-opacity:1;" stroke-width="8" stroke-linecap="round" stroke-linejoin="round"/>
<path d="M315.598 227.579C316.087 222.023 318.263 214.42 319.9 209.089C321.537 203.758 323.119 198.337 323.315 192.771C323.503 187.193 322.181 181.369 318.584 177.115C314.988 172.852 308.064 171.694 302.807 173.559" stroke="black" style="stroke:black;stroke-opacity:1;" stroke-width="8" stroke-linecap="round" stroke-linejoin="round"/>
<ellipse cx="6.35279" cy="5.81744" rx="6.35279" ry="5.81744" transform="matrix(-0.992958 0.118468 0.118468 0.992958 266.765 94.4448)" fill="#BCBBFF" fill-opacity="0.4" style="fill:#BCBBFF;fill:color(display-p3 0.7373 0.7333 1.0000);fill-opacity:0.4;"/>
<ellipse cx="9.18965" cy="7.6325" rx="9.18965" ry="7.6325" transform="matrix(-0.978062 0.208314 0.208314 0.978062 189.892 100.064)" fill="#BCBBFF" fill-opacity="0.4" style="fill:#BCBBFF;fill:color(display-p3 0.7373 0.7333 1.0000);fill-opacity:0.4;"/>
<path d="M207.374 89.5243C205.725 87.8246 203.507 86.7765 201.13 87.1399C198.746 87.4984 196.941 89.1624 195.873 91.2769C194.803 93.3953 194.399 96.0799 194.816 98.8394L194.817 98.8419C195.239 101.607 196.427 104.05 198.079 105.754C199.729 107.455 201.946 108.505 204.322 108.147L204.326 108.147C206.707 107.783 208.512 106.121 209.581 104.005C210.65 101.887 211.055 99.202 210.638 96.4381L210.637 96.4352C210.214 93.6701 209.027 91.2274 207.374 89.5243Z" fill="black" style="fill:black;fill-opacity:1;"/>
<path d="M247.668 84.8322C245.961 83.4245 243.818 82.7003 241.723 83.388C239.624 84.0753 238.25 85.9489 237.606 88.1282C236.96 90.3123 236.99 92.9408 237.762 95.5255C238.528 98.115 239.926 100.297 241.638 101.71C243.345 103.119 245.488 103.844 247.584 103.156C249.684 102.468 251.057 100.59 251.701 98.4097C252.346 96.2234 252.316 93.5926 251.544 91.0076C250.778 88.4228 249.38 86.2435 247.668 84.8322Z" fill="black" style="fill:black;fill-opacity:1;"/>
<path d="M201.022 344.926C212.814 335.003 221.888 325.102 233.344 311.453" stroke="black" style="stroke:black;stroke-opacity:1;" stroke-width="6" stroke-linecap="round" stroke-linejoin="round"/>
<ellipse cx="190.671" cy="408.474" rx="139.778" ry="9.19141" fill="black" fill-opacity="0.15" style="fill:black;fill-opacity:0.15;"/>
<path d="M426.085 185.44C420.46 220.089 378.343 242.081 332.014 234.559C285.685 227.037 252.688 192.851 258.313 158.202C263.939 123.553 306.056 101.562 352.385 109.083C398.714 116.605 431.711 150.791 426.085 185.44Z" fill="#ADACE7" style="fill:#ADACE7;fill:color(display-p3 0.6770 0.6736 0.9045);fill-opacity:1;"/>
<path d="M429.559 164.046C423.434 201.77 380.912 226.253 334.583 218.732C288.254 211.21 255.662 174.532 261.787 136.808C267.911 99.0844 310.433 74.6009 356.762 82.1225C403.091 89.6441 435.683 126.323 429.559 164.046Z" fill="#D2D1FF" style="fill:#D2D1FF;fill:color(display-p3 0.8217 0.8191 1.0000);fill-opacity:1;"/>
<path fill-rule="evenodd" clip-rule="evenodd" d="M368.736 218.553L284.855 98.8273C295.373 90.4782 308.708 84.6535 323.486 82.1456L407.119 201.519C396.713 209.971 383.459 215.914 368.736 218.553Z" fill="white" fill-opacity="0.5" style="fill:white;fill-opacity:0.5;"/>
<path d="M392.272 145.992C392.11 144.732 391.891 143.485 391.616 142.252C387.694 124.668 372.469 110.119 352.371 106.856C326.558 102.665 302.48 118.679 298.593 142.623C294.706 166.567 312.48 189.375 338.293 193.566C359.801 197.058 380.102 186.524 388.526 169.064L381.368 213.152" stroke="#020075" stroke-opacity="0.4" style="stroke:#020075;stroke:color(display-p3 0.0067 0.0000 0.4578);stroke-opacity:0.4;" stroke-width="11" stroke-linecap="round" stroke-linejoin="round"/>
<path d="M320.985 138.576C320.054 144.312 324.368 149.786 330.613 150.8C336.858 151.814 342.681 147.986 343.613 142.25C344.544 136.514 340.23 131.046 333.985 130.032C327.739 129.018 321.916 132.846 320.985 138.576Z" fill="#020075" fill-opacity="0.4" style="fill:#020075;fill:color(display-p3 0.0067 0.0000 0.4578);fill-opacity:0.4;"/>
<path d="M349.507 143.206C348.576 148.942 352.889 154.416 359.14 155.431C365.39 156.446 371.214 152.618 372.145 146.882C373.076 141.146 368.762 135.677 362.511 134.662C356.261 133.648 350.437 137.476 349.507 143.206Z" fill="#020075" fill-opacity="0.4" style="fill:#020075;fill:color(display-p3 0.0067 0.0000 0.4578);fill-opacity:0.4;"/>
<path d="M429.559 164.046C423.434 201.77 380.912 226.253 334.583 218.732C288.254 211.21 255.662 174.532 261.787 136.808M429.559 164.046C435.683 126.323 403.091 89.6441 356.762 82.1225C310.433 74.6009 267.911 99.0844 261.787 136.808M429.559 164.046L425.241 190.643C419.667 224.973 372.22 244.29 331.508 237.68C290.796 231.07 251.802 198.317 257.41 163.77L261.787 136.808" stroke="black" style="stroke:black;stroke-opacity:1;" stroke-width="8"/>
<path d="M275.626 209.467L254.663 238.648L240.689 243.992H228.77L225.071 251.801L213.974 259.61L181.915 206.179L197.944 184.395L216.44 175.764L231.647 163.845L254.663 153.981L273.159 161.79L283.434 172.887V189.327L275.626 209.467Z" fill="url(#paint0_radial_97_3118)" style=""/>
<path d="M273.694 162.251C266.545 156.511 255.47 158.349 246.964 161.782C238.458 165.214 231.332 171.264 223.888 176.622C216.444 181.979 205.782 185.866 196.623 186.276" stroke="#BCBBFF" stroke-opacity="0.4" style="stroke:#BCBBFF;stroke:color(display-p3 0.7373 0.7333 1.0000);stroke-opacity:0.4;" stroke-width="8" stroke-linecap="round" stroke-linejoin="round"/>
<path d="M212.409 260.313C220.958 257.699 227.309 250.716 228.279 242.867C234.87 246.758 244.272 245.152 250.53 241.043C256.786 236.944 260.686 230.892 264.697 225.144C269.891 217.689 275.581 210.42 279.592 202.46C283.614 194.502 285.912 185.642 283.96 177.084C282.019 168.517 275.241 160.364 265.441 157.389C252.806 153.545 238.953 158.898 228.493 165.761C218.033 172.634 208.843 181.275 196.539 185.512" stroke="black" style="stroke:black;stroke-opacity:1;" stroke-width="8" stroke-linecap="round" stroke-linejoin="round"/>
<path d="M409.079 31.6501C409.824 29.8302 412.401 29.8302 413.146 31.6501L416.055 38.7556C416.948 40.9362 418.679 42.6671 420.86 43.5599L427.965 46.4689C429.785 47.2141 429.785 49.7914 427.965 50.5365L420.859 53.4459C418.679 54.3387 416.948 56.0696 416.055 58.2502L413.146 65.3546C412.401 67.1745 409.824 67.1745 409.079 65.3546L406.17 58.2498C405.277 56.0692 403.546 54.3383 401.365 53.4455L394.26 50.5365C392.441 49.7913 392.441 47.2141 394.26 46.4689L401.365 43.5601C403.546 42.6672 405.276 40.9364 406.169 38.7558L409.079 31.6501Z" fill="white" fill-opacity="0.75" style="fill:white;fill-opacity:0.75;"/>
<path d="M462.8 52.7004C463.419 51.1864 465.563 51.1864 466.183 52.7004L468.604 58.6114C469.346 60.4255 470.786 61.8654 472.6 62.6081L478.511 65.0282C480.025 65.648 480.025 67.7921 478.511 68.412L472.6 70.8322C470.786 71.575 469.346 73.0149 468.603 74.8289L466.183 80.739C465.563 82.253 463.419 82.253 462.8 80.739L460.38 74.8286C459.637 73.0146 458.197 71.5747 456.383 70.832L450.472 68.4119C448.958 67.7921 448.958 65.648 450.472 65.0281L456.383 62.6083C458.197 61.8655 459.637 60.4256 460.379 58.6116L462.8 52.7004Z" fill="white" fill-opacity="0.75" style="fill:white;fill-opacity:0.75;"/>
<path d="M433.159 79.3057C433.587 78.2607 435.067 78.2607 435.495 79.3057L437.165 83.3858C437.678 84.638 438.672 85.6319 439.924 86.1446L444.004 87.815C445.049 88.2429 445.049 89.7228 444.004 90.1507L439.924 91.8213C438.671 92.334 437.677 93.3279 437.165 94.58L435.495 98.6595C435.067 99.7045 433.587 99.7045 433.159 98.6595L431.488 94.5798C430.976 93.3277 429.982 92.3338 428.73 91.8211L424.65 90.1507C423.605 89.7228 423.605 88.2429 424.65 87.815L428.73 86.1447C429.982 85.632 430.976 84.6381 431.488 83.386L433.159 79.3057Z" fill="white" fill-opacity="0.75" style="fill:white;fill-opacity:0.75;"/>
<defs>
<radialGradient id="paint0_radial_97_3118" cx="0" cy="0" r="1" gradientUnits="userSpaceOnUse" gradientTransform="translate(192.5 228) rotate(-28.6858) scale(76.7684 206.313)">
<stop offset="0.2132" stop-color="white" stop-opacity="0" style="stop-color:none;stop-opacity:0;"/>
<stop offset="1" stop-color="white" style="stop-color:white;stop-opacity:1;"/>
</radialGradient>
</defs>
</svg>
