<svg width="385" height="411" viewBox="0 0 385 411" fill="none" xmlns="http://www.w3.org/2000/svg">
<path d="M108.622 176.599C104.835 153.498 102.028 147.884 105.007 124.751C108.592 96.988 127.061 70.8202 150.503 55.5114C169.342 43.2081 193.798 40.246 215.276 46.9345C236.753 53.633 254.986 69.6601 265.104 89.7559C277.955 115.284 272.303 125.68 277.659 153.74C283.853 186.158 297.932 217.04 318.332 242.986C322.953 248.846 327.932 254.536 331.248 261.227C334.564 267.927 342.801 279.459 340.047 286.404C333.405 303.139 318.232 295.878 306.546 309.581C298.006 319.601 287.246 339.066 274.07 346.911C262.862 353.584 241.936 349.909 241.936 349.909L205.698 339.764C205.698 339.764 189.747 338.564 186.216 333.823L186.206 333.822C178.297 326.884 167.584 328.197 157.443 330.989C147.304 333.771 137.656 338.657 127.195 339.764C105.793 342.021 85.5444 327.619 73.8111 309.581C71.7991 306.478 69.8952 303.187 66.9696 300.94C64.0341 298.692 59.7011 297.775 56.6648 299.878C53.9561 301.746 52.0842 305.838 48.8505 305.213C46.2641 304.724 45.3909 301.504 45.1692 298.874C43.1631 275.69 81.8743 262.866 93.5506 242.733C105.235 222.613 109.592 195.796 107.596 176.773L108.622 176.599Z" fill="white" fill-opacity="0.75" style="fill:white;fill-opacity:0.75;"/>
<ellipse cx="182.788" cy="154.468" rx="55.4233" ry="53.7661" transform="rotate(-1.40641 182.788 154.468)" fill="white" fill-opacity="0.4" style="fill:white;fill-opacity:0.4;"/>
<path d="M44.8969 304.728L47.8339 284.653L63.4268 269.741C71.1024 269.156 75.0272 274.308 78.574 281.153C82.1207 287.999 83.6251 295.748 87.196 302.566C94.0145 315.58 108.669 324.08 123.345 323.518C140.479 322.871 156.329 311.101 173.352 313.146C183.78 314.398 241.369 345.329 268.874 323.518C283.805 311.678 272.026 303.398 288.675 291.138C295.268 286.281 318.414 294.334 326.913 281.491C337.012 266.231 317.285 243.501 311.138 237.367C318.878 245.048 326.817 253.031 330.778 263.191C334.741 273.341 345.013 284.202 336.601 291.138C329.337 297.13 321.678 298.501 313.643 303.409C297.574 313.217 297.42 320.022 285.978 334.963C277.609 345.887 263.05 351.176 249.342 349.889C235.634 348.602 216.647 349.268 207.173 339.282C199.721 331.431 185.565 331.082 175.005 328.658C164.18 326.175 153.642 332.79 143.103 336.302C121.92 343.351 96.8781 336.909 81.744 320.496C74.1881 312.317 68.3141 301.483 57.8001 297.843C56.2968 302.525 51.1031 305.696 44.8979 304.728C43.0649 257.142 44.8969 304.728 44.8969 304.728Z" fill="black" fill-opacity="0.15" style="fill:black;fill-opacity:0.15;"/>
<path d="M127.132 221.082C132.424 215.079 138.562 208.635 146.085 208.419C152.969 208.235 159.143 213.794 161.567 220.774C164 227.746 163.17 235.763 160.728 242.881C158.279 249.99 154.324 256.377 150.412 262.69" stroke="black" style="stroke:black;stroke-opacity:1;" stroke-width="8" stroke-linecap="round" stroke-linejoin="round"/>
<path d="M252.993 227.011C249.144 222.437 245.261 217.823 240.327 214.109C235.392 210.394 229.249 207.616 222.853 207.473C213.063 207.241 204.37 213.47 201.001 221.303C197.632 229.137 198.889 238.169 202.433 246.204C205.977 254.24 211.649 261.482 217.273 268.638" stroke="black" style="stroke:black;stroke-opacity:1;" stroke-width="8" stroke-linecap="round" stroke-linejoin="round"/>
<path d="M77.849 279.597C80.8304 268.057 85.6119 256.993 91.9684 246.906" stroke="black" style="stroke:black;stroke-opacity:1;" stroke-width="6" stroke-linecap="round" stroke-linejoin="round"/>
<path d="M275.103 260.992C279.12 270.908 284.513 280.267 291.068 288.724" stroke="black" style="stroke:black;stroke-opacity:1;" stroke-width="6" stroke-linecap="round" stroke-linejoin="round"/>
<ellipse cx="140.398" cy="168.587" rx="7.35099" ry="8.38049" transform="rotate(-99.0809 140.398 168.587)" fill="black" fill-opacity="0.15" style="fill:black;fill-opacity:0.15;"/>
<ellipse cx="7.35099" cy="8.38049" rx="7.35099" ry="8.38049" transform="matrix(0.157828 -0.987467 -0.987467 -0.157828 232.195 177.169)" fill="black" fill-opacity="0.15" style="fill:black;fill-opacity:0.15;"/>
<path d="M155.419 150.96C156.68 149.056 158.618 147.623 160.986 147.505C163.358 147.385 165.394 148.615 166.79 150.386C168.189 152.161 169.05 154.587 169.142 157.237C169.24 159.891 168.556 162.395 167.292 164.306C166.03 166.212 164.093 167.644 161.724 167.763C159.351 167.882 157.315 166.649 155.919 164.876C154.519 163.099 153.657 160.671 153.566 158.02C153.469 155.371 154.154 152.869 155.419 150.96Z" fill="black" style="fill:black;fill-opacity:1;"/>
<path d="M199.447 150.689C200.797 148.846 202.799 147.506 205.17 147.499C207.545 147.49 209.521 148.813 210.833 150.648C212.147 152.487 212.894 154.95 212.862 157.602C212.836 160.257 212.035 162.727 210.683 164.576C209.334 166.421 207.332 167.761 204.96 167.769C202.584 167.777 200.607 166.45 199.296 164.614C197.981 162.773 197.234 160.308 197.266 157.655C197.294 155.005 198.095 152.537 199.447 150.689Z" fill="black" style="fill:black;fill-opacity:1;"/>
<path d="M182.591 315.671C176.772 322.558 161.978 328.491 153.64 331.08" stroke="black" style="stroke:black;stroke-opacity:1;" stroke-width="6" stroke-linecap="round" stroke-linejoin="round"/>
<path d="M166.45 212.441L182.136 239.006L148.015 200.279L166.45 212.441Z" fill="#181818" fill-opacity="0.4" style="fill:#181818;fill:color(display-p3 0.0929 0.0929 0.0929);fill-opacity:0.4;"/>
<path d="M197.822 212.44L182.136 239.006L166.45 212.44L197.822 212.44Z" fill="#848484" fill-opacity="0.4" style="fill:#848484;fill:color(display-p3 0.5191 0.5191 0.5191);fill-opacity:0.4;"/>
<path d="M216.256 200.278L182.136 239.006L197.822 212.44L216.256 200.278Z" fill="#181818" fill-opacity="0.4" style="fill:#181818;fill:color(display-p3 0.0929 0.0929 0.0929);fill-opacity:0.4;"/>
<path d="M207.979 190.495L216.256 200.278L197.822 212.44L194.636 198.31L207.979 190.495Z" fill="#848484" fill-opacity="0.4" style="fill:#848484;fill:color(display-p3 0.5191 0.5191 0.5191);fill-opacity:0.4;"/>
<path d="M194.636 198.31L197.822 212.44L166.45 212.441L169.627 198.31L194.636 198.31Z" fill="#C7C7C7" fill-opacity="0.4" style="fill:#C7C7C7;fill:color(display-p3 0.7786 0.7786 0.7786);fill-opacity:0.4;"/>
<path d="M169.627 198.31L166.45 212.441L148.015 200.279L156.292 190.496L169.627 198.31Z" fill="#848484" fill-opacity="0.4" style="fill:#848484;fill:color(display-p3 0.5191 0.5191 0.5191);fill-opacity:0.4;"/>
<path d="M207.979 190.496L194.635 198.31L169.626 198.31L156.292 190.496L164.208 183.555L200.062 183.555L207.979 190.496Z" fill="white" fill-opacity="0.4" style="fill:white;fill-opacity:0.4;"/>
<path d="M161.467 185.96L162.312 185.22C163.536 184.146 165.109 183.555 166.737 183.555L197.533 183.555C199.161 183.555 200.733 184.146 201.957 185.22L202.802 185.96C206.248 188.981 209.464 192.255 212.424 195.753C214.638 198.37 214.65 202.2 212.452 204.831L190.575 231.007C186.178 236.268 178.091 236.268 173.694 231.007L151.818 204.831C149.62 202.2 149.631 198.37 151.845 195.753C154.805 192.255 158.021 188.981 161.467 185.96Z" stroke="black" style="stroke:black;stroke-opacity:1;" stroke-width="8" stroke-linecap="round" stroke-linejoin="round"/>
<path d="M84.8151 198.16L61.0208 192.069" stroke="white" stroke-opacity="0.3" style="stroke:white;stroke-opacity:0.3;" stroke-width="8" stroke-linecap="round" stroke-linejoin="round"/>
<path d="M88.478 183.864L76.7163 172.361" stroke="white" stroke-opacity="0.3" style="stroke:white;stroke-opacity:0.3;" stroke-width="8" stroke-linecap="round" stroke-linejoin="round"/>
<path d="M81.1561 212.456L65.314 216.892" stroke="white" stroke-opacity="0.3" style="stroke:white;stroke-opacity:0.3;" stroke-width="8" stroke-linecap="round" stroke-linejoin="round"/>
<path d="M306.203 184.496L330.182 179.175" stroke="white" stroke-opacity="0.3" style="stroke:white;stroke-opacity:0.3;" stroke-width="8" stroke-linecap="round" stroke-linejoin="round"/>
<path d="M309.399 198.901L325.09 203.846" stroke="white" stroke-opacity="0.3" style="stroke:white;stroke-opacity:0.3;" stroke-width="8" stroke-linecap="round" stroke-linejoin="round"/>
<path d="M303.008 170.088L315.135 158.972" stroke="white" stroke-opacity="0.3" style="stroke:white;stroke-opacity:0.3;" stroke-width="8" stroke-linecap="round" stroke-linejoin="round"/>
<path d="M176.519 329.182C196.327 332.913 233.512 354.991 261.125 350.771C279.626 347.943 292.759 333.269 300.189 318.349C304.379 309.699 308.195 306.241 317.335 303.061C323.455 300.601 330.355 299.021 335.265 294.211C343.435 286.601 340.205 274.761 334.665 266.591C326.315 253.621 318.158 243.378 309.408 230.728" stroke="black" style="stroke:black;stroke-opacity:1;" stroke-width="8" stroke-linecap="round" stroke-linejoin="round"/>
<ellipse cx="205.354" cy="401.809" rx="139.778" ry="9.19141" fill="black" fill-opacity="0.15" style="fill:black;fill-opacity:0.15;"/>
</svg>
