<svg width="385" height="411" viewBox="0 0 385 411" fill="none" xmlns="http://www.w3.org/2000/svg">
<path d="M108.239 176.599C104.452 153.498 101.645 147.884 104.624 124.751C108.209 96.988 126.678 70.8202 150.121 55.5114C168.959 43.2081 193.415 40.246 214.893 46.9345C236.37 53.633 254.603 69.6601 264.721 89.7559C277.572 115.284 271.92 125.68 277.276 153.74C283.47 186.158 297.549 217.04 317.949 242.986C322.57 248.846 327.549 254.536 330.866 261.227C334.181 267.927 342.418 279.459 339.664 286.404C333.022 303.139 317.849 295.878 306.163 309.581C297.623 319.601 286.863 339.066 273.687 346.911C262.479 353.584 241.553 349.909 241.553 349.909L205.316 339.764C205.316 339.764 189.365 338.564 185.834 333.823L185.824 333.822C177.914 326.884 167.201 328.197 157.061 330.989C146.921 333.771 137.273 338.657 126.812 339.764C105.411 342.021 85.1615 327.619 73.4283 309.581C71.4163 306.478 69.5124 303.187 66.5868 300.94C63.6512 298.692 59.3183 297.775 56.282 299.878C53.5733 301.746 51.7014 305.838 48.4677 305.213C45.8813 304.724 45.0081 301.504 44.7863 298.874C42.7803 275.69 81.4915 262.866 93.1678 242.733C104.852 222.613 109.209 195.796 107.213 176.773L108.239 176.599Z" fill="white" fill-opacity="0.75" style="fill:white;fill-opacity:0.75;"/>
<ellipse cx="182.405" cy="154.468" rx="55.4233" ry="53.7661" transform="rotate(-1.40641 182.405 154.468)" fill="white" fill-opacity="0.4" style="fill:white;fill-opacity:0.4;"/>
<path d="M44.5141 304.728L47.4511 284.653L63.044 269.741C70.7195 269.156 74.6444 274.308 78.1912 281.153C81.7379 287.999 83.2423 295.748 86.8132 302.566C93.6317 315.58 108.286 324.08 122.962 323.518C140.096 322.871 155.946 311.101 172.969 313.146C183.398 314.398 240.986 345.329 268.491 323.518C283.422 311.678 271.643 303.398 288.292 291.138C294.885 286.281 318.031 294.334 326.53 281.491C336.629 266.231 316.903 243.501 310.756 237.367C318.496 245.048 326.434 253.031 330.395 263.191C334.358 273.341 344.63 284.202 336.218 291.138C328.955 297.13 321.295 298.501 313.26 303.409C297.191 313.217 297.038 320.022 285.595 334.963C277.226 345.887 262.668 351.176 248.96 349.889C235.252 348.602 216.265 349.268 206.79 339.282C199.338 331.431 185.182 331.082 174.622 328.658C163.797 326.175 153.259 332.79 142.72 336.302C121.537 343.351 96.4953 336.909 81.3612 320.496C73.8053 312.317 67.9313 301.483 57.4173 297.843C55.914 302.525 50.7203 305.696 44.5151 304.728C42.6821 257.142 44.5141 304.728 44.5141 304.728Z" fill="#BCBBFF" fill-opacity="0.4" style="fill:#BCBBFF;fill:color(display-p3 0.7373 0.7333 1.0000);fill-opacity:0.4;"/>
<path d="M126.749 221.082C132.041 215.079 138.179 208.635 145.702 208.419C152.586 208.235 158.76 213.794 161.184 220.774C163.617 227.746 162.787 235.763 160.345 242.881C157.897 249.99 153.941 256.377 150.029 262.69" stroke="black" style="stroke:black;stroke-opacity:1;" stroke-width="8" stroke-linecap="round" stroke-linejoin="round"/>
<path d="M252.61 227.011C248.761 222.437 244.878 217.823 239.944 214.109C235.009 210.394 228.867 207.616 222.47 207.473C212.68 207.241 203.988 213.47 200.619 221.303C197.25 229.137 198.506 238.169 202.05 246.204C205.595 254.24 211.266 261.482 216.89 268.638" stroke="black" style="stroke:black;stroke-opacity:1;" stroke-width="8" stroke-linecap="round" stroke-linejoin="round"/>
<path d="M77.4662 279.597C80.4476 268.057 85.2291 256.993 91.5856 246.906" stroke="black" style="stroke:black;stroke-opacity:1;" stroke-width="6" stroke-linecap="round" stroke-linejoin="round"/>
<path d="M274.72 260.992C278.738 270.908 284.13 280.267 290.685 288.724" stroke="black" style="stroke:black;stroke-opacity:1;" stroke-width="6" stroke-linecap="round" stroke-linejoin="round"/>
<ellipse cx="140.015" cy="168.587" rx="7.35099" ry="8.38049" transform="rotate(-99.0809 140.015 168.587)" fill="#BCBBFF" fill-opacity="0.4" style="fill:#BCBBFF;fill:color(display-p3 0.7373 0.7333 1.0000);fill-opacity:0.4;"/>
<ellipse cx="7.35099" cy="8.38049" rx="7.35099" ry="8.38049" transform="matrix(0.157828 -0.987467 -0.987467 -0.157828 231.812 177.169)" fill="#BCBBFF" fill-opacity="0.4" style="fill:#BCBBFF;fill:color(display-p3 0.7373 0.7333 1.0000);fill-opacity:0.4;"/>
<path d="M155.036 150.96C156.298 149.056 158.235 147.623 160.604 147.505C162.975 147.385 165.011 148.615 166.407 150.386C167.806 152.161 168.668 154.587 168.759 157.237C168.857 159.891 168.173 162.395 166.909 164.306C165.648 166.212 163.71 167.644 161.341 167.763C158.968 167.882 156.932 166.649 155.536 164.876C154.137 163.099 153.274 160.671 153.183 158.02C153.086 155.371 153.771 152.869 155.036 150.96Z" fill="black" style="fill:black;fill-opacity:1;"/>
<path d="M199.065 150.689C200.414 148.846 202.416 147.506 204.788 147.499C207.162 147.49 209.138 148.813 210.45 150.648C211.765 152.487 212.512 154.95 212.479 157.602C212.453 160.257 211.652 162.727 210.3 164.576C208.951 166.421 206.949 167.761 204.577 167.769C202.201 167.777 200.225 166.45 198.913 164.614C197.598 162.773 196.851 160.308 196.883 157.655C196.911 155.005 197.712 152.537 199.065 150.689Z" fill="black" style="fill:black;fill-opacity:1;"/>
<path d="M182.208 315.671C176.389 322.558 161.595 328.491 153.257 331.08" stroke="black" style="stroke:black;stroke-opacity:1;" stroke-width="6" stroke-linecap="round" stroke-linejoin="round"/>
<path d="M166.067 212.441L181.753 239.006L147.632 200.279L166.067 212.441Z" fill="#020075" fill-opacity="0.4" style="fill:#020075;fill:color(display-p3 0.0067 0.0000 0.4578);fill-opacity:0.4;"/>
<path d="M197.439 212.44L181.753 239.006L166.067 212.44L197.439 212.44Z" fill="#6E6CE7" fill-opacity="0.4" style="fill:#6E6CE7;fill:color(display-p3 0.4320 0.4249 0.9051);fill-opacity:0.4;"/>
<path d="M215.874 200.278L181.753 239.006L197.439 212.44L215.874 200.278Z" fill="#020075" fill-opacity="0.4" style="fill:#020075;fill:color(display-p3 0.0067 0.0000 0.4578);fill-opacity:0.4;"/>
<path d="M207.597 190.495L215.874 200.278L197.439 212.44L194.253 198.31L207.597 190.495Z" fill="#6E6CE7" fill-opacity="0.4" style="fill:#6E6CE7;fill:color(display-p3 0.4320 0.4249 0.9051);fill-opacity:0.4;"/>
<path d="M194.253 198.31L197.439 212.44L166.067 212.441L169.244 198.31L194.253 198.31Z" fill="#BCBBFF" fill-opacity="0.4" style="fill:#BCBBFF;fill:color(display-p3 0.7373 0.7333 1.0000);fill-opacity:0.4;"/>
<path d="M169.244 198.31L166.067 212.441L147.632 200.279L155.909 190.496L169.244 198.31Z" fill="#6E6CE7" fill-opacity="0.4" style="fill:#6E6CE7;fill:color(display-p3 0.4320 0.4249 0.9051);fill-opacity:0.4;"/>
<path d="M207.596 190.496L194.253 198.31L169.243 198.31L155.909 190.496L163.826 183.555L199.679 183.555L207.596 190.496Z" fill="white" fill-opacity="0.4" style="fill:white;fill-opacity:0.4;"/>
<path d="M161.085 185.96L161.929 185.22C163.153 184.146 164.726 183.555 166.354 183.555L197.15 183.555C198.778 183.555 200.35 184.146 201.574 185.22L202.419 185.96C205.865 188.981 209.082 192.255 212.041 195.753C214.255 198.37 214.267 202.2 212.069 204.831L190.192 231.007C185.795 236.268 177.709 236.268 173.311 231.007L151.435 204.831C149.237 202.2 149.248 198.37 151.462 195.753C154.422 192.255 157.639 188.981 161.085 185.96Z" stroke="black" style="stroke:black;stroke-opacity:1;" stroke-width="8" stroke-linecap="round" stroke-linejoin="round"/>
<path d="M84.4322 198.16L60.638 192.069" stroke="white" stroke-opacity="0.3" style="stroke:white;stroke-opacity:0.3;" stroke-width="8" stroke-linecap="round" stroke-linejoin="round"/>
<path d="M88.0952 183.864L76.3335 172.361" stroke="white" stroke-opacity="0.3" style="stroke:white;stroke-opacity:0.3;" stroke-width="8" stroke-linecap="round" stroke-linejoin="round"/>
<path d="M80.7733 212.456L64.9312 216.892" stroke="white" stroke-opacity="0.3" style="stroke:white;stroke-opacity:0.3;" stroke-width="8" stroke-linecap="round" stroke-linejoin="round"/>
<path d="M305.82 184.496L329.799 179.175" stroke="white" stroke-opacity="0.3" style="stroke:white;stroke-opacity:0.3;" stroke-width="8" stroke-linecap="round" stroke-linejoin="round"/>
<path d="M309.016 198.901L324.707 203.846" stroke="white" stroke-opacity="0.3" style="stroke:white;stroke-opacity:0.3;" stroke-width="8" stroke-linecap="round" stroke-linejoin="round"/>
<path d="M302.625 170.088L314.752 158.972" stroke="white" stroke-opacity="0.3" style="stroke:white;stroke-opacity:0.3;" stroke-width="8" stroke-linecap="round" stroke-linejoin="round"/>
<path d="M176.136 329.182C195.944 332.913 233.129 354.991 260.742 350.771C279.244 347.943 292.376 333.269 299.806 318.349C303.996 309.699 307.812 306.241 316.952 303.061C323.072 300.601 329.972 299.021 334.882 294.211C343.052 286.601 339.822 274.761 334.282 266.591C325.932 253.621 317.776 243.378 309.026 230.728" stroke="black" style="stroke:black;stroke-opacity:1;" stroke-width="8" stroke-linecap="round" stroke-linejoin="round"/>
<ellipse cx="204.971" cy="401.809" rx="139.778" ry="9.19141" fill="black" fill-opacity="0.15" style="fill:black;fill-opacity:0.15;"/>
</svg>
