<svg width="472" height="425" viewBox="0 0 472 425" fill="none" xmlns="http://www.w3.org/2000/svg">
<path d="M195.873 206.716C196.339 209.77 194.504 216.093 194.504 216.093L189.027 232.98L181.876 247.433C181.876 247.433 173.461 244.72 167.05 240.404C160.634 236.08 155.176 230.651 153.306 224.321C151.449 217.995 153.783 210.731 160.539 206.716C167.129 202.805 187.693 205.302 195.873 206.716Z" fill="white" fill-opacity="0.75" style="fill:white;fill-opacity:0.75;"/>
<path d="M193.439 206.715C182.484 203.161 167.129 202.804 160.539 206.715C153.783 210.73 151.449 217.994 153.305 224.32C155.176 230.65 160.634 236.079 167.049 240.403C169.035 241.74 178.066 246.846 180.203 248.041" stroke="black" style="stroke:black;stroke-opacity:1;" stroke-width="8" stroke-linecap="round" stroke-linejoin="round"/>
<path d="M196.105 189.804C192.318 166.703 189.511 161.089 192.49 137.956C196.075 110.193 214.544 84.0253 237.986 68.7165C256.825 56.4131 281.281 53.451 302.759 60.1396C324.236 66.838 342.469 82.8652 352.587 102.961C365.438 128.489 359.786 138.885 365.142 166.945C371.336 199.363 385.415 230.245 405.815 256.191C410.436 262.051 415.415 267.741 418.731 274.432C422.047 281.132 430.283 292.664 427.53 299.609C420.888 316.344 405.714 309.083 394.028 322.787C385.489 332.806 374.729 352.271 361.553 360.116C350.345 366.789 329.419 363.114 329.419 363.114L293.181 352.969C293.181 352.969 277.23 351.769 273.699 347.028L273.689 347.027C265.78 340.089 255.067 341.403 244.926 344.194C234.787 346.976 225.139 351.862 214.678 352.97C193.276 355.226 173.027 340.824 161.294 322.787C159.282 319.683 157.378 316.393 154.452 314.146C151.517 311.897 147.184 310.98 144.148 313.083C141.439 314.951 139.567 319.043 136.333 318.418C133.747 317.929 132.874 314.709 132.652 312.079C130.646 288.895 169.357 276.071 181.033 255.939C192.718 235.818 197.075 209.002 195.079 189.978L196.105 189.804Z" fill="white" fill-opacity="0.75" style="fill:white;fill-opacity:0.75;"/>
<ellipse cx="259.271" cy="165.673" rx="55.4233" ry="53.7661" transform="rotate(-1.40641 259.271 165.673)" fill="white" fill-opacity="0.4" style="fill:white;fill-opacity:0.4;"/>
<path d="M132.38 317.933L135.317 297.858L150.91 282.946C158.585 282.361 162.51 287.513 166.057 294.358C169.604 301.204 171.108 308.953 174.679 315.772C181.497 328.785 196.152 337.285 210.827 336.723C227.961 336.076 243.812 324.306 260.835 326.351C271.263 327.603 328.852 358.534 356.357 336.723C371.288 324.883 359.509 316.603 376.158 304.343C382.75 299.486 405.896 307.539 414.396 294.696C424.495 279.436 404.768 256.706 398.621 250.572C406.361 258.253 414.3 266.236 418.261 276.396C422.224 286.547 432.496 297.408 424.084 304.343C416.82 310.335 409.16 311.706 401.125 316.615C385.057 326.423 384.903 333.227 373.461 348.168C365.092 359.092 350.533 364.381 336.825 363.094C323.117 361.807 304.13 362.473 294.656 352.487C287.203 344.636 273.048 344.287 262.487 341.863C251.663 339.38 241.125 345.995 230.585 349.507C209.402 356.556 184.361 350.114 169.227 333.701C161.671 325.522 155.797 314.688 145.283 311.048C143.78 315.73 138.586 318.901 132.381 317.933C130.548 270.347 132.38 317.933 132.38 317.933Z" fill="black" fill-opacity="0.15" style="fill:black;fill-opacity:0.15;"/>
<path d="M302.683 256.405C307.119 260.411 311.595 264.453 316.99 267.46C322.384 270.467 328.848 272.382 335.205 271.653C344.935 270.547 352.697 263.192 354.967 254.973C357.237 246.753 354.762 237.977 350.155 230.499C345.549 223.022 338.943 216.621 332.397 210.297" stroke="black" style="stroke:black;stroke-opacity:1;" stroke-width="8" stroke-linecap="round" stroke-linejoin="round"/>
<path d="M165.332 292.802C168.313 281.262 173.095 270.198 179.451 260.112" stroke="black" style="stroke:black;stroke-opacity:1;" stroke-width="6" stroke-linecap="round" stroke-linejoin="round"/>
<path d="M370.889 276.457C374.906 286.373 380.298 295.732 386.854 304.189" stroke="black" style="stroke:black;stroke-opacity:1;" stroke-width="6" stroke-linecap="round" stroke-linejoin="round"/>
<ellipse cx="196.865" cy="179.795" rx="7.35099" ry="8.38049" transform="rotate(-99.0809 196.865 179.795)" fill="black" fill-opacity="0.15" style="fill:black;fill-opacity:0.15;"/>
<ellipse cx="7.35099" cy="8.38049" rx="7.35099" ry="8.38049" transform="matrix(0.157828 -0.987467 -0.987467 -0.157828 288.662 188.377)" fill="black" fill-opacity="0.15" style="fill:black;fill-opacity:0.15;"/>
<path d="M211.886 162.169C213.148 160.265 215.085 158.832 217.454 158.714C219.825 158.594 221.861 159.824 223.257 161.595C224.656 163.37 225.518 165.796 225.609 168.446C225.707 171.1 225.023 173.604 223.759 175.515C222.498 177.421 220.56 178.853 218.191 178.972C215.819 179.091 213.782 177.858 212.386 176.085C210.987 174.308 210.124 171.88 210.033 169.229C209.936 166.58 210.621 164.078 211.886 162.169Z" fill="black" style="fill:black;fill-opacity:1;"/>
<path d="M255.915 161.898C257.264 160.055 259.266 158.715 261.638 158.708C264.012 158.699 265.988 160.022 267.3 161.857C268.615 163.696 269.362 166.159 269.329 168.811C269.303 171.466 268.503 173.936 267.15 175.785C265.801 177.63 263.799 178.97 261.427 178.978C259.051 178.986 257.075 177.659 255.763 175.823C254.449 173.982 253.701 171.517 253.733 168.864C253.761 166.214 254.562 163.746 255.915 161.898Z" fill="black" style="fill:black;fill-opacity:1;"/>
<path d="M270.074 328.876C264.255 335.763 249.461 341.696 241.123 344.286" stroke="black" style="stroke:black;stroke-opacity:1;" stroke-width="6" stroke-linecap="round" stroke-linejoin="round"/>
<path d="M52.0758 178.458L28.2816 172.367" stroke="white" stroke-opacity="0.3" style="stroke:white;stroke-opacity:0.3;" stroke-width="8" stroke-linecap="round" stroke-linejoin="round"/>
<path d="M55.7387 164.162L43.9771 152.659" stroke="white" stroke-opacity="0.3" style="stroke:white;stroke-opacity:0.3;" stroke-width="8" stroke-linecap="round" stroke-linejoin="round"/>
<path d="M48.4168 192.754L32.5747 197.189" stroke="white" stroke-opacity="0.3" style="stroke:white;stroke-opacity:0.3;" stroke-width="8" stroke-linecap="round" stroke-linejoin="round"/>
<path d="M264.002 342.387C283.81 346.118 320.995 368.196 348.608 363.976C367.109 361.148 380.241 346.474 387.671 331.554C391.861 322.904 395.678 319.446 404.818 316.266C410.938 313.806 417.838 312.226 422.748 307.416C430.918 299.806 427.688 287.966 422.148 279.796C413.798 266.826 405.641 256.583 396.891 243.933" stroke="black" style="stroke:black;stroke-opacity:1;" stroke-width="8" stroke-linecap="round" stroke-linejoin="round"/>
<path d="M114.735 216.905L146.89 187.345L147.256 187.23C147.675 188.594 147.612 190.119 146.942 191.548L124.157 240.272C123.272 242.168 121.607 243.342 119.763 243.688L114.735 216.905Z" fill="#AEAEAE" style="fill:#AEAEAE;fill:color(display-p3 0.6824 0.6824 0.6824);fill-opacity:1;"/>
<path d="M74.04 201.024L114.734 216.907L119.763 243.69C117.927 244.035 115.935 243.548 114.422 242.102L75.5234 204.958C74.3803 203.869 73.7687 202.471 73.6569 201.049L74.04 201.024Z" fill="#C8C8C8" style="fill:#C8C8C8;fill:color(display-p3 0.7843 0.7843 0.7843);fill-opacity:1;"/>
<path d="M141.299 182.785L142.272 182.928C144.767 183.282 146.605 185.055 147.254 187.23L146.887 187.345L114.732 216.905L74.0379 201.022L73.6548 201.048C73.4706 198.786 74.5479 196.465 76.7444 195.231L77.5996 194.744L77.8668 194.019L109.431 205.611C110.481 205.996 111.599 206.081 112.663 205.881C113.727 205.681 114.73 205.198 115.569 204.459L141.133 181.901L141.645 182.48L141.299 182.785Z" fill="#8D8D8D" style="fill:#8D8D8D;fill:color(display-p3 0.5513 0.5513 0.5513);fill-opacity:1;"/>
<path d="M146.243 174.953L146.738 174.86C146.845 176.671 146.15 178.508 144.686 179.799L141.644 182.48L141.132 181.902L115.568 204.46C114.729 205.199 113.726 205.682 112.662 205.882L104.818 164.103L146.243 174.953Z" fill="#AEAEAE" style="fill:#AEAEAE;fill:color(display-p3 0.6824 0.6824 0.6824);fill-opacity:1;"/>
<path d="M77.8702 194.021L77.6029 194.746L73.3547 193.193C71.5217 192.521 70.2154 191.059 69.6525 189.342L70.1471 189.249L104.822 164.103L112.666 205.883C111.602 206.082 110.484 205.997 109.435 205.613L77.8702 194.021Z" fill="#C8C8C8" style="fill:#C8C8C8;fill:color(display-p3 0.7843 0.7843 0.7843);fill-opacity:1;"/>
<path d="M145.209 171.176C146.153 172.24 146.661 173.541 146.74 174.869L146.245 174.962L104.818 164.104L96.7397 121.073C98.7257 120.7 100.901 121.293 102.427 123.016L145.209 171.176Z" fill="#C8C8C8" style="fill:#C8C8C8;fill:color(display-p3 0.7843 0.7843 0.7843);fill-opacity:1;"/>
<path d="M104.82 164.103L70.1438 189.24L69.6491 189.333C69.2423 188.075 69.2438 186.678 69.7381 185.344L92.1466 124.945C92.9438 122.786 94.7557 121.445 96.7416 121.072L104.82 164.103Z" fill="#FAFAFA" style="fill:#FAFAFA;fill:color(display-p3 0.9804 0.9804 0.9804);fill-opacity:1;"/>
<path d="M69.6506 189.341C69.2423 188.075 69.2438 186.678 69.7381 185.344L92.1466 124.945C92.9438 122.786 94.7557 121.445 96.7416 121.072C98.7275 120.699 100.902 121.292 102.428 123.014L145.211 171.175C146.155 172.239 146.663 173.54 146.742 174.867C146.848 176.671 146.153 178.508 144.688 179.799L141.646 182.48L141.3 182.786L142.274 182.929C144.768 183.283 146.606 185.056 147.255 187.231C147.674 188.595 147.611 190.12 146.941 191.549L124.156 240.273C123.271 242.17 121.606 243.343 119.762 243.689C117.919 244.035 115.934 243.547 114.421 242.101L75.5228 204.957C74.3796 203.868 73.7681 202.47 73.6562 201.048C73.4721 198.786 74.5493 196.466 76.7458 195.232L77.601 194.745L73.3527 193.192C71.5197 192.52 70.2135 191.058 69.6506 189.341Z" stroke="black" style="stroke:black;stroke-opacity:1;" stroke-width="8" stroke-linecap="round" stroke-linejoin="round"/>
<path d="M77.4312 193.861L77.8645 194.02L109.429 205.612C110.479 205.997 111.596 206.082 112.66 205.882C113.724 205.683 114.728 205.199 115.566 204.46L141.13 181.902" stroke="black" style="stroke:black;stroke-opacity:1;" stroke-width="6" stroke-linecap="round" stroke-linejoin="round"/>
<ellipse cx="292.834" cy="415.014" rx="139.778" ry="9.19141" fill="black" fill-opacity="0.15" style="fill:black;fill-opacity:0.15;"/>
</svg>
