<svg width="481" height="418" viewBox="0 0 481 418" fill="none" xmlns="http://www.w3.org/2000/svg">
<path d="M209.013 339.895C201.6 346.141 193.638 351.623 184.845 355.787C162.074 366.571 132.039 366.27 114.432 348.252C108.012 341.682 103.469 333.089 95.6881 328.204C83.9042 320.793 68.6551 324.032 54.8247 322.389C39.5038 320.564 24.8029 311.814 17.2199 298.372C9.63685 284.93 10.0473 266.954 19.4625 254.72C25.5059 246.862 34.4265 241.888 42.6584 236.37C60.5443 224.37 76.0893 208.898 88.1782 191.083C96.9397 178.159 105.343 160.305 104.87 147.941C104.257 131.81 99.9397 116.042 99.3165 99.9094C97.9292 63.5822 126.794 28.5468 162.719 22.9627C190.861 18.5904 227.27 28.959 248.098 48.3771C268.937 67.7969 275.167 95.5593 285.896 121.932C292.762 138.813 298.52 156.063 303.456 173.558C308.485 191.344 312.646 209.397 316.238 227.577C321.343 253.318 325.317 279.333 328.966 305.282C329.675 310.302 329.584 316.799 324.908 318.763C321.49 320.19 317.709 318.147 314.04 317.654C306.664 316.653 299.963 322.056 295.338 327.893C290.714 333.73 286.887 340.545 280.542 344.446C270.075 350.882 256.539 347.331 245.025 343.04C233.51 338.758 220.545 335.609 209.039 339.92L209.013 339.895Z" fill="white" fill-opacity="0.75" style="fill:white;fill-opacity:0.75;"/>
<path d="M323.964 192.771C323.767 198.337 322.186 203.758 320.549 209.089C318.911 214.42 316.735 222.023 316.247 227.579L316.237 227.578C312.645 209.398 308.484 191.344 303.455 173.559C308.712 171.694 315.636 172.852 319.232 177.115C322.83 181.369 324.152 187.193 323.964 192.771Z" fill="white" fill-opacity="0.75" style="fill:white;fill-opacity:0.75;"/>
<path d="M318.335 240.766C324.77 266.266 328.076 292.563 326.282 320.345C318.196 317.134 308.533 318.239 301.378 323.21C292.66 329.263 287.997 340.216 278.714 345.352C269.095 350.674 257.139 348.387 246.712 344.929C236.284 341.471 225.669 336.906 214.813 338.113C200.63 347.609 185.747 356.681 169.154 360.665C152.561 364.649 133.786 362.854 120.43 352.224C112.192 345.67 106.439 336.201 97.5621 330.542C81.7675 320.47 60.8536 325.048 42.9177 319.633C31.2521 316.117 20.8612 308.029 15.3673 297.154C9.87342 286.279 9.63787 272.697 15.5115 262.021C21.4431 251.243 32.4822 244.488 42.6145 237.519C67.3678 220.509 90.1376 198.344 99.8027 169.912C90.9912 199.707 64.5185 220.086 42.07 241.555C36.5465 246.833 31.1158 252.401 27.5798 259.174C24.0439 265.947 22.6041 274.172 25.3701 281.287C29.766 292.594 42.9551 297.709 54.9959 299.138C67.0366 300.568 79.6802 299.706 90.7938 304.559C111.416 313.565 120.852 339.545 141.799 347.775C159.236 354.626 179.106 346.828 194.317 335.884C204.209 328.772 214.68 319.811 226.789 321.202C241.553 322.902 252.7 339.78 267.398 337.513C276.44 336.12 282.55 327.929 288.34 320.849C294.129 313.77 302.266 306.603 311.228 308.422C316.699 309.535 323.607 313.409 326.818 308.843C328.171 306.912 327.912 304.322 327.599 301.986C324.953 282.304 322.296 262.619 318.357 240.759L318.335 240.766Z" fill="black" fill-opacity="0.15" style="fill:black;fill-opacity:0.15;"/>
<path d="M215.234 27.7792C192.711 19.4235 161.632 24.5833 140.743 37.6554C119.854 50.7373 106.304 74.8158 105.986 99.4616C105.762 116.039 110.178 142.555 102.848 162.326" stroke="black" stroke-opacity="0.15" style="stroke:black;stroke-opacity:0.15;" stroke-width="8" stroke-linecap="round" stroke-linejoin="round"/>
<path d="M120.407 315.328C137.116 308.037 152.838 298.498 167.012 287.033" stroke="black" style="stroke:black;stroke-opacity:1;" stroke-width="6" stroke-linecap="round" stroke-linejoin="round"/>
<path d="M305.728 297.576C306.304 286.679 305.502 275.709 303.325 265.012" stroke="black" style="stroke:black;stroke-opacity:1;" stroke-width="6" stroke-linecap="round" stroke-linejoin="round"/>
<path d="M209.038 339.921C220.544 335.609 233.509 338.758 245.024 343.04C256.538 347.332 270.074 350.882 280.542 344.447C286.886 340.545 290.713 333.731 295.337 327.893C299.962 322.056 306.663 316.654 314.039 317.655C317.709 318.147 321.489 320.19 324.907 318.763C329.583 316.8 329.674 310.303 328.966 305.283C325.316 279.333 321.342 253.318 316.237 227.578C312.645 209.398 308.484 191.344 303.455 173.559C298.52 156.063 294.883 143.518 285.225 116.217C274.548 86.0363 265.901 64.1233 245.063 44.7035C224.234 25.2854 194.251 20.208 166.109 24.5803C130.184 30.1644 100.783 64.9991 102.339 105.287C102.962 121.42 104.256 131.81 104.869 147.942C105.342 160.306 96.9388 178.16 88.1773 191.083C76.0884 208.898 60.5434 224.37 42.6576 236.371C34.4256 241.888 25.505 246.863 19.4616 254.72C10.0465 266.955 9.63596 284.93 17.219 298.373C24.802 311.815 39.5029 320.564 54.8238 322.389C68.6542 324.032 83.9033 320.794 95.6873 328.205C103.468 333.089 108.011 341.683 114.431 348.252C132.038 366.27 162.073 366.572 184.844 355.788C193.637 351.624 201.599 346.141 209.012 339.896" stroke="black" style="stroke:black;stroke-opacity:1;" stroke-width="8" stroke-linecap="round" stroke-linejoin="round"/>
<path d="M316.247 227.579C316.735 222.023 318.911 214.42 320.549 209.089C322.186 203.758 323.767 198.337 323.964 192.771C324.152 187.193 322.83 181.369 319.232 177.115C315.636 172.852 308.712 171.694 303.455 173.559" stroke="black" style="stroke:black;stroke-opacity:1;" stroke-width="8" stroke-linecap="round" stroke-linejoin="round"/>
<ellipse cx="6.35279" cy="5.81744" rx="6.35279" ry="5.81744" transform="matrix(-0.992958 0.118468 0.118468 0.992958 267.413 94.4448)" fill="black" fill-opacity="0.15" style="fill:black;fill-opacity:0.15;"/>
<ellipse cx="9.18965" cy="7.6325" rx="9.18965" ry="7.6325" transform="matrix(-0.978062 0.208314 0.208314 0.978062 190.54 100.064)" fill="black" fill-opacity="0.15" style="fill:black;fill-opacity:0.15;"/>
<path d="M208.023 89.5243C206.373 87.8246 204.155 86.7765 201.778 87.1399C199.395 87.4984 197.589 89.1624 196.522 91.2769C195.452 93.3953 195.047 96.0799 195.465 98.8394L195.465 98.8419C195.888 101.607 197.075 104.05 198.728 105.754C200.377 107.455 202.594 108.505 204.971 108.147L204.974 108.147C207.355 107.783 209.161 106.121 210.229 104.005C211.299 101.887 211.703 99.202 211.286 96.4381L211.286 96.4352C210.863 93.6701 209.675 91.2274 208.023 89.5243Z" fill="black" style="fill:black;fill-opacity:1;"/>
<path d="M248.317 84.8322C246.609 83.4245 244.467 82.7003 242.371 83.388C240.273 84.0753 238.898 85.9489 238.254 88.1282C237.609 90.3123 237.639 92.9408 238.41 95.5255C239.177 98.115 240.575 100.297 242.286 101.71C243.994 103.119 246.137 103.844 248.232 103.156C250.332 102.468 251.706 100.59 252.349 98.4097C252.994 96.2234 252.964 93.5926 252.193 91.0076C251.426 88.4228 250.028 86.2435 248.317 84.8322Z" fill="black" style="fill:black;fill-opacity:1;"/>
<path d="M201.671 344.926C213.462 335.003 222.537 325.102 233.992 311.453" stroke="black" style="stroke:black;stroke-opacity:1;" stroke-width="6" stroke-linecap="round" stroke-linejoin="round"/>
<ellipse cx="191.32" cy="408.474" rx="139.778" ry="9.19141" fill="black" fill-opacity="0.15" style="fill:black;fill-opacity:0.15;"/>
<path d="M426.734 185.44C421.109 220.089 378.991 242.081 332.662 234.559C286.333 227.037 253.336 192.851 258.962 158.202C264.587 123.553 306.705 101.562 353.033 109.083C399.362 116.605 432.359 150.791 426.734 185.44Z" fill="#C8C8C8" style="fill:#C8C8C8;fill:color(display-p3 0.7843 0.7843 0.7843);fill-opacity:1;"/>
<path d="M430.207 164.046C424.083 201.77 381.561 226.253 335.232 218.732C288.903 211.21 256.311 174.532 262.435 136.808C268.56 99.0844 311.081 74.6009 357.41 82.1225C403.739 89.6441 436.332 126.323 430.207 164.046Z" fill="#D9D9D9" style="fill:#D9D9D9;fill:color(display-p3 0.8510 0.8510 0.8510);fill-opacity:1;"/>
<path fill-rule="evenodd" clip-rule="evenodd" d="M369.384 218.553L285.504 98.8273C296.021 90.4782 309.357 84.6535 324.134 82.1456L407.767 201.519C397.361 209.971 384.108 215.914 369.384 218.553Z" fill="white" fill-opacity="0.5" style="fill:white;fill-opacity:0.5;"/>
<path d="M392.92 145.992C392.758 144.732 392.539 143.485 392.264 142.252C388.342 124.668 373.117 110.119 353.019 106.856C327.206 102.665 303.129 118.679 299.241 142.623C295.354 166.567 313.129 189.375 338.942 193.566C360.449 197.058 380.751 186.524 389.174 169.064L382.017 213.152" stroke="#2D2D2D" stroke-opacity="0.4" style="stroke:#2D2D2D;stroke:color(display-p3 0.1752 0.1752 0.1752);stroke-opacity:0.4;" stroke-width="11" stroke-linecap="round" stroke-linejoin="round"/>
<path d="M321.634 138.576C320.703 144.312 325.016 149.786 331.261 150.8C337.506 151.814 343.33 147.986 344.261 142.25C345.192 136.514 340.878 131.046 334.633 130.032C328.388 129.018 322.564 132.846 321.634 138.576Z" fill="#2D2D2D" fill-opacity="0.4" style="fill:#2D2D2D;fill:color(display-p3 0.1752 0.1752 0.1752);fill-opacity:0.4;"/>
<path d="M350.155 143.206C349.224 148.942 353.537 154.416 359.788 155.431C366.039 156.446 371.862 152.618 372.793 146.882C373.725 141.146 369.411 135.677 363.16 134.662C356.909 133.648 351.086 137.476 350.155 143.206Z" fill="#2D2D2D" fill-opacity="0.4" style="fill:#2D2D2D;fill:color(display-p3 0.1752 0.1752 0.1752);fill-opacity:0.4;"/>
<path d="M430.207 164.046C424.083 201.77 381.561 226.253 335.232 218.732C288.903 211.21 256.311 174.532 262.435 136.808M430.207 164.046C436.332 126.323 403.739 89.6441 357.41 82.1225C311.081 74.6009 268.56 99.0844 262.435 136.808M430.207 164.046L425.889 190.643C420.315 224.973 372.868 244.29 332.157 237.68C291.445 231.07 252.45 198.317 258.059 163.77L262.435 136.808" stroke="black" style="stroke:black;stroke-opacity:1;" stroke-width="8"/>
<path d="M276.275 209.467L255.312 238.648L241.338 243.992H229.419L225.72 251.801L214.622 259.61L182.563 206.179L198.593 184.395L217.088 175.764L232.296 163.845L255.312 153.981L273.808 161.79L284.083 172.887V189.327L276.275 209.467Z" fill="url(#paint0_radial_97_3152)" style=""/>
<path d="M274.342 162.251C267.194 156.511 256.119 158.349 247.612 161.782C239.106 165.214 231.981 171.264 224.537 176.622C217.093 181.979 206.43 185.866 197.272 186.276" stroke="black" stroke-opacity="0.15" style="stroke:black;stroke-opacity:0.15;" stroke-width="8" stroke-linecap="round" stroke-linejoin="round"/>
<path d="M213.057 260.313C221.606 257.699 227.958 250.716 228.928 242.867C235.518 246.758 244.921 245.152 251.179 241.043C257.435 236.944 261.335 230.892 265.346 225.144C270.539 217.689 276.229 210.42 280.241 202.46C284.262 194.502 286.561 185.642 284.609 177.084C282.668 168.517 275.889 160.364 266.089 157.389C253.455 153.545 239.601 158.898 229.142 165.761C218.681 172.634 209.492 181.275 197.187 185.512" stroke="black" style="stroke:black;stroke-opacity:1;" stroke-width="8" stroke-linecap="round" stroke-linejoin="round"/>
<path d="M409.727 31.6501C410.472 29.8302 413.049 29.8302 413.795 31.6501L416.704 38.7556C417.597 40.9362 419.328 42.6671 421.508 43.5599L428.613 46.4689C430.433 47.2141 430.433 49.7914 428.613 50.5365L421.508 53.4459C419.327 54.3387 417.596 56.0696 416.703 58.2502L413.795 65.3546C413.049 67.1745 410.472 67.1745 409.727 65.3546L406.818 58.2498C405.925 56.0692 404.194 54.3383 402.014 53.4455L394.909 50.5365C393.089 49.7913 393.089 47.2141 394.909 46.4689L402.013 43.5601C404.194 42.6672 405.925 40.9364 406.818 38.7558L409.727 31.6501Z" fill="white" fill-opacity="0.75" style="fill:white;fill-opacity:0.75;"/>
<path d="M463.448 52.7004C464.068 51.1864 466.212 51.1864 466.832 52.7004L469.252 58.6114C469.995 60.4255 471.435 61.8654 473.249 62.6081L479.159 65.0282C480.673 65.648 480.673 67.7921 479.159 68.412L473.248 70.8322C471.434 71.575 469.994 73.0149 469.252 74.8289L466.832 80.739C466.212 82.253 464.068 82.253 463.448 80.739L461.028 74.8286C460.285 73.0146 458.845 71.5747 457.031 70.832L451.121 68.4119C449.607 67.7921 449.607 65.648 451.121 65.0281L457.031 62.6083C458.845 61.8655 460.285 60.4256 461.028 58.6116L463.448 52.7004Z" fill="white" fill-opacity="0.75" style="fill:white;fill-opacity:0.75;"/>
<path d="M433.807 79.3057C434.235 78.2607 435.715 78.2607 436.143 79.3057L437.813 83.3858C438.326 84.638 439.32 85.6319 440.572 86.1446L444.652 87.815C445.697 88.2429 445.697 89.7228 444.652 90.1507L440.572 91.8213C439.32 92.334 438.326 93.3279 437.813 94.58L436.143 98.6595C435.715 99.7045 434.235 99.7045 433.807 98.6595L432.137 94.5798C431.624 93.3277 430.63 92.3338 429.378 91.8211L425.298 90.1507C424.253 89.7228 424.253 88.2429 425.298 87.815L429.378 86.1447C430.63 85.632 431.624 84.6381 432.137 83.386L433.807 79.3057Z" fill="white" fill-opacity="0.75" style="fill:white;fill-opacity:0.75;"/>
<defs>
<radialGradient id="paint0_radial_97_3152" cx="0" cy="0" r="1" gradientUnits="userSpaceOnUse" gradientTransform="translate(193.148 228) rotate(-28.6858) scale(76.7684 206.313)">
<stop offset="0.2132" stop-color="white" stop-opacity="0" style="stop-color:none;stop-opacity:0;"/>
<stop offset="1" stop-color="white" style="stop-color:white;stop-opacity:1;"/>
</radialGradient>
</defs>
</svg>
