<svg width="472" height="425" viewBox="0 0 472 425" fill="none" xmlns="http://www.w3.org/2000/svg">
<path d="M195.323 206.667C195.789 209.722 193.954 216.044 193.954 216.044L188.477 232.931L181.327 247.384C181.327 247.384 172.912 244.671 166.5 240.355C160.085 236.031 154.626 230.602 152.756 224.272C150.899 217.946 153.233 210.682 159.99 206.667C166.58 202.756 187.143 205.253 195.323 206.667Z" fill="white" fill-opacity="0.75" style="fill:white;fill-opacity:0.75;"/>
<path d="M192.886 206.667C181.931 203.113 166.576 202.756 159.986 206.667C153.23 210.682 150.896 217.946 152.753 224.272C154.623 230.602 160.081 236.032 166.496 240.355C168.482 241.692 177.513 246.798 179.65 247.993" stroke="black" style="stroke:black;stroke-opacity:1;" stroke-width="8" stroke-linecap="round" stroke-linejoin="round"/>
<path d="M195.555 189.756C191.768 166.655 188.961 161.041 191.94 137.909C195.525 110.145 213.994 83.9774 237.436 68.6686C256.275 56.3653 280.731 53.4032 302.209 60.0917C323.686 66.7902 341.919 82.8174 352.037 102.913C364.888 128.442 359.236 138.837 364.592 166.897C370.786 199.315 384.865 230.198 405.265 256.143C409.886 262.003 414.865 267.694 418.182 274.384C421.497 281.084 429.734 292.616 426.98 299.561C420.338 316.296 405.165 309.036 393.479 322.739C384.939 332.758 374.179 352.224 361.003 360.068C349.795 366.741 328.869 363.066 328.869 363.066L292.631 352.922C292.631 352.922 276.681 351.721 273.149 346.98L273.14 346.979C265.23 340.041 254.517 341.355 244.377 344.147C234.237 346.929 224.589 351.814 214.128 352.922C192.726 355.178 172.477 340.776 160.744 322.739C158.732 319.635 156.828 316.345 153.903 314.098C150.967 311.849 146.634 310.933 143.598 313.035C140.889 314.903 139.017 318.995 135.784 318.371C133.197 317.881 132.324 314.661 132.102 312.031C130.096 288.847 168.807 276.023 180.484 255.891C192.168 235.77 196.525 208.954 194.529 189.93L195.555 189.756Z" fill="white" fill-opacity="0.75" style="fill:white;fill-opacity:0.75;"/>
<ellipse cx="258.719" cy="165.624" rx="55.4233" ry="53.7661" transform="rotate(-1.40641 258.719 165.624)" fill="white" fill-opacity="0.4" style="fill:white;fill-opacity:0.4;"/>
<path d="M131.828 317.884L134.765 297.81L150.358 282.897C158.034 282.312 161.958 287.464 165.505 294.31C169.052 301.155 170.556 308.904 174.127 315.723C180.946 328.736 195.6 337.237 210.276 336.674C227.41 336.027 243.26 324.257 260.283 326.302C270.712 327.554 328.3 358.485 355.805 336.674C370.736 324.834 358.957 316.554 375.606 304.294C382.199 299.437 405.345 307.491 413.844 294.648C423.943 279.387 404.217 256.658 398.07 250.523C405.809 258.204 413.748 266.187 417.709 276.347C421.672 286.498 431.944 297.359 423.532 304.294C416.269 310.286 408.609 311.657 400.574 316.566C384.505 326.374 384.352 333.178 372.909 348.12C364.54 359.044 349.981 364.332 336.273 363.045C322.565 361.758 303.579 362.424 294.104 352.438C286.652 344.587 272.496 344.238 261.936 341.814C251.111 339.332 240.573 345.946 230.034 349.458C208.851 356.507 183.809 350.065 168.675 333.652C161.119 325.473 155.245 314.639 144.731 310.999C143.228 315.681 138.034 318.853 131.829 317.884C129.996 270.298 131.828 317.884 131.828 317.884Z" fill="#BCBBFF" fill-opacity="0.4" style="fill:#BCBBFF;fill:color(display-p3 0.7373 0.7333 1.0000);fill-opacity:0.4;"/>
<path d="M302.132 256.356C306.568 260.362 311.043 264.404 316.438 267.411C321.833 270.419 328.297 272.333 334.653 271.604C344.383 270.498 352.146 263.143 354.416 254.924C356.686 246.704 354.21 237.928 349.604 230.45C344.997 222.973 338.391 216.572 331.845 210.249" stroke="black" style="stroke:black;stroke-opacity:1;" stroke-width="8" stroke-linecap="round" stroke-linejoin="round"/>
<path d="M164.782 292.755C167.764 281.215 172.545 270.15 178.902 260.064" stroke="black" style="stroke:black;stroke-opacity:1;" stroke-width="6" stroke-linecap="round" stroke-linejoin="round"/>
<path d="M370.337 276.408C374.354 286.324 379.747 295.683 386.302 304.14" stroke="black" style="stroke:black;stroke-opacity:1;" stroke-width="6" stroke-linecap="round" stroke-linejoin="round"/>
<ellipse cx="196.314" cy="179.747" rx="7.35099" ry="8.38049" transform="rotate(-99.0809 196.314 179.747)" fill="#BCBBFF" fill-opacity="0.4" style="fill:#BCBBFF;fill:color(display-p3 0.7373 0.7333 1.0000);fill-opacity:0.4;"/>
<ellipse cx="7.35099" cy="8.38049" rx="7.35099" ry="8.38049" transform="matrix(0.157828 -0.987467 -0.987467 -0.157828 288.11 188.328)" fill="#BCBBFF" fill-opacity="0.4" style="fill:#BCBBFF;fill:color(display-p3 0.7373 0.7333 1.0000);fill-opacity:0.4;"/>
<path d="M211.334 162.12C212.596 160.216 214.533 158.784 216.902 158.665C219.273 158.546 221.309 159.775 222.705 161.546C224.105 163.322 224.966 165.747 225.058 168.398C225.155 171.051 224.471 173.556 223.207 175.466C221.946 177.372 220.008 178.804 217.64 178.923C215.267 179.043 213.23 177.809 211.834 176.036C210.435 174.259 209.573 171.831 209.481 169.18C209.385 166.531 210.07 164.029 211.334 162.12Z" fill="black" style="fill:black;fill-opacity:1;"/>
<path d="M255.363 161.85C256.712 160.007 258.714 158.667 261.086 158.659C263.46 158.65 265.437 159.974 266.748 161.808C268.063 163.647 268.81 166.11 268.777 168.762C268.751 171.417 267.951 173.887 266.599 175.736C265.25 177.581 263.247 178.921 260.875 178.929C258.5 178.938 256.523 177.61 255.211 175.774C253.897 173.933 253.149 171.468 253.182 168.816C253.209 166.165 254.01 163.697 255.363 161.85Z" fill="black" style="fill:black;fill-opacity:1;"/>
<path d="M269.524 328.827C263.705 335.715 248.911 341.648 240.573 344.237" stroke="black" style="stroke:black;stroke-opacity:1;" stroke-width="6" stroke-linecap="round" stroke-linejoin="round"/>
<path d="M51.8785 178.408L28.0843 172.317" stroke="white" stroke-opacity="0.3" style="stroke:white;stroke-opacity:0.3;" stroke-width="8" stroke-linecap="round" stroke-linejoin="round"/>
<path d="M55.5414 164.112L43.7798 152.609" stroke="white" stroke-opacity="0.3" style="stroke:white;stroke-opacity:0.3;" stroke-width="8" stroke-linecap="round" stroke-linejoin="round"/>
<path d="M48.2196 192.704L32.3774 197.14" stroke="white" stroke-opacity="0.3" style="stroke:white;stroke-opacity:0.3;" stroke-width="8" stroke-linecap="round" stroke-linejoin="round"/>
<path d="M263.45 342.339C283.258 346.069 320.443 368.147 348.056 363.927C366.558 361.1 379.69 346.425 387.12 331.505C391.31 322.855 395.126 319.397 404.266 316.217C410.386 313.757 417.286 312.177 422.196 307.367C430.366 299.757 427.136 287.917 421.596 279.747C413.246 266.777 405.089 256.534 396.339 243.884" stroke="black" style="stroke:black;stroke-opacity:1;" stroke-width="8" stroke-linecap="round" stroke-linejoin="round"/>
<path d="M114.186 216.856L146.341 187.296L146.707 187.181C147.126 188.545 147.064 190.07 146.393 191.499L123.608 240.223C122.723 242.12 121.058 243.293 119.214 243.639L114.186 216.856Z" fill="#B9B8E9" style="fill:#B9B8E9;fill:color(display-p3 0.7255 0.7216 0.9137);fill-opacity:1;"/>
<path d="M73.4912 200.975L114.186 216.858L119.214 243.641C117.378 243.986 115.386 243.499 113.873 242.053L74.9746 204.909C73.8314 203.82 73.2198 202.422 73.108 201L73.4912 200.975Z" fill="#E7E6F3" style="fill:#E7E6F3;fill:color(display-p3 0.9059 0.9020 0.9529);fill-opacity:1;"/>
<path d="M140.75 182.736L141.723 182.879C144.218 183.233 146.056 185.006 146.705 187.181L146.339 187.296L114.184 216.856L73.4891 200.973L73.106 200.999C72.9218 198.737 73.9991 196.417 76.1956 195.182L77.0507 194.696L77.318 193.97L108.882 205.562C109.932 205.947 111.05 206.032 112.114 205.832C113.178 205.633 114.181 205.149 115.02 204.41L140.584 181.852L141.096 182.431L140.75 182.736Z" fill="#8E8DBC" style="fill:#8E8DBC;fill:color(display-p3 0.5569 0.5529 0.7373);fill-opacity:1;"/>
<path d="M145.694 174.904L146.189 174.811C146.296 176.622 145.602 178.459 144.137 179.75L141.095 182.432L140.583 181.853L115.019 204.411C114.18 205.15 113.177 205.633 112.113 205.833L104.269 164.054L145.694 174.904Z" fill="#B9B8E9" style="fill:#B9B8E9;fill:color(display-p3 0.7255 0.7216 0.9137);fill-opacity:1;"/>
<path d="M77.3214 193.972L77.0541 194.697L72.8058 193.144C70.9728 192.472 69.6666 191.01 69.1036 189.293L69.5982 189.2L104.273 164.055L112.117 205.834C111.053 206.034 109.935 205.949 108.886 205.564L77.3214 193.972Z" fill="#E0DFFF" fill-opacity="0.4" style="fill:#E0DFFF;fill:color(display-p3 0.8777 0.8759 1.0000);fill-opacity:0.4;"/>
<path d="M144.66 171.127C145.604 172.191 146.112 173.492 146.191 174.82L145.696 174.913L104.27 164.055L96.1909 121.024C98.1768 120.652 100.352 121.244 101.878 122.967L144.66 171.127Z" fill="#D8D8F3" style="fill:#D8D8F3;fill:color(display-p3 0.8471 0.8471 0.9529);fill-opacity:1;"/>
<path d="M104.272 164.054L69.5949 189.192L69.1003 189.284C68.6935 188.026 68.695 186.63 69.1893 185.296L91.5978 124.896C92.395 122.737 94.2069 121.396 96.1928 121.023L104.272 164.054Z" fill="#FAFAFA" style="fill:#FAFAFA;fill:color(display-p3 0.9804 0.9804 0.9804);fill-opacity:1;"/>
<path d="M69.1017 189.292C68.6935 188.026 68.695 186.63 69.1893 185.296L91.5978 124.896C92.3949 122.737 94.2069 121.396 96.1928 121.023C98.1787 120.65 100.354 121.243 101.88 122.966L144.662 171.126C145.606 172.19 146.114 173.491 146.193 174.819C146.299 176.622 145.604 178.459 144.14 179.75L141.098 182.432L140.751 182.737L141.725 182.88C144.22 183.234 146.058 185.007 146.706 187.182C147.125 188.546 147.063 190.071 146.392 191.5L123.607 240.224C122.722 242.121 121.057 243.294 119.213 243.641C117.37 243.987 115.385 243.498 113.872 242.052L74.974 204.908C73.8308 203.82 73.2192 202.422 73.1074 201C72.9233 198.738 74.0005 196.417 76.197 195.183L77.0522 194.696L72.8039 193.143C70.9709 192.471 69.6647 191.009 69.1017 189.292Z" stroke="black" style="stroke:black;stroke-opacity:1;" stroke-width="8" stroke-linecap="round" stroke-linejoin="round"/>
<path d="M76.8823 193.812L77.3156 193.972L108.88 205.564C109.93 205.948 111.047 206.033 112.111 205.834C113.176 205.634 114.179 205.151 115.018 204.411L140.582 181.853" stroke="black" style="stroke:black;stroke-opacity:1;" stroke-width="6" stroke-linecap="round" stroke-linejoin="round"/>
<ellipse cx="292.285" cy="414.965" rx="139.778" ry="9.19141" fill="black" fill-opacity="0.15" style="fill:black;fill-opacity:0.15;"/>
</svg>
