<svg width="413" height="520" viewBox="0 0 413 520" fill="none" xmlns="http://www.w3.org/2000/svg">
<ellipse cx="244.555" cy="510.486" rx="139.778" ry="9.19141" fill="black" fill-opacity="0.15" style="fill:black;fill-opacity:0.15;"/>
<path d="M306.051 459.008C306.235 459.037 306.428 459.076 306.612 459.114C306.563 459.134 306.505 459.143 306.467 459.163C306.331 459.105 306.186 459.056 306.051 459.008Z" fill="black" style="fill:black;fill-opacity:1;"/>
<path d="M251.858 136.128C252.603 138.42 252.584 141.176 251.742 143.875H251.733C250.881 146.583 249.305 148.846 247.39 150.297C245.465 151.748 243.076 152.454 240.755 151.719H240.745C238.414 150.984 236.867 149.04 236.132 146.748C235.387 144.455 235.406 141.699 236.248 139H236.257C237.108 136.282 238.685 134.019 240.61 132.578C242.525 131.127 244.914 130.421 247.235 131.156C249.576 131.891 251.123 133.845 251.858 136.128Z" fill="black" style="fill:black;fill-opacity:1;"/>
<path d="M211.382 132.22C211.537 134.329 211.005 136.708 209.844 138.923C208.674 141.147 207.04 142.888 205.279 143.865C203.519 144.852 201.507 145.132 199.805 144.136C198.103 143.14 197.261 141.186 197.116 139.087C196.961 136.988 197.493 134.599 198.654 132.384C199.824 130.17 201.459 128.429 203.219 127.452C204.979 126.465 206.991 126.185 208.693 127.181C210.396 128.177 211.237 130.131 211.382 132.22Z" fill="black" style="fill:black;fill-opacity:1;"/>
<path d="M176.9 140.692C176.667 141.05 176.445 141.418 176.213 141.785C176.387 141.398 176.609 141.031 176.9 140.692Z" fill="black" style="fill:black;fill-opacity:1;"/>
<path d="M136.607 271.274L136.133 271.884C135.572 276.836 133.957 281.914 131.597 287.079L130.059 286.392C119.362 278.809 104.834 266.893 100.83 256.176C96.8258 245.47 97.6769 232.673 104.457 223.466C111.227 214.248 123.54 209.886 134.15 214.171C131.239 216.434 128.724 219.258 126.664 222.305C122.253 228.882 119.719 236.881 120.493 244.764C121.422 254.136 126.935 262.589 133.889 268.944C134.769 269.746 135.678 270.52 136.607 271.274Z" fill="white" style="fill:white;fill-opacity:1;"/>
<path d="M84.7936 373.043C84.368 371.583 84.1262 370.064 84.0488 368.536C84.0972 368.169 84.1746 367.811 84.2616 367.443C84.2133 369.445 84.397 371.312 84.7936 373.043Z" fill="black" style="fill:black;fill-opacity:1;"/>
<path d="M80.9345 374.92C82.8206 347.132 118.52 315.756 131.596 287.078C133.956 281.914 135.572 276.836 136.133 271.884L136.607 271.274C135.678 270.52 134.769 269.746 133.889 268.943C126.935 262.589 121.422 254.136 120.493 244.763C119.719 236.881 122.253 228.882 126.664 222.305C128.724 219.258 131.239 216.434 134.15 214.171C137.477 211.55 141.298 209.644 145.466 208.909C146.898 208.658 148.329 208.551 149.77 208.551L151.714 207.478C156.395 190.455 161.125 171.982 168.582 155.974C170.671 151.487 173.002 147.067 175.585 142.821C175.575 144.01 175.923 145.209 176.629 146.167C178.245 148.363 181.359 149.204 183.97 148.45C186.601 147.686 188.681 145.509 189.696 142.975C190.499 140.944 190.673 138.613 189.899 136.563C189.126 134.522 187.346 132.82 185.218 132.384C183.313 131.998 182.781 134.077 179.018 137.453C184.986 128.69 192.134 120.797 200.664 114.549C220.095 100.293 245.862 95.6211 269.442 100.535C284.259 103.63 298.526 110.487 308.971 121.426C323.886 137.037 329.766 159.543 329.466 181.112C329.36 188.318 328.78 195.61 327.832 202.913C324.272 230.362 328.867 258.807 342.997 282.6C355.939 304.382 367.622 325.041 389.549 343.863C396.406 349.753 403.67 355.895 406.823 364.377C408.487 368.855 408.709 373.769 407.713 378.43C406.223 385.462 401.977 391.942 395.778 395.608C395.468 395.792 395.159 395.966 394.839 396.14C390.593 398.384 384.423 397.774 378.639 396.275C374.673 395.25 370.108 400.773 371.849 404.487C372.304 405.454 372.681 406.373 372.961 407.224C373.551 409.004 374.035 410.812 374.393 412.65C375.515 418.086 375.66 423.705 374.78 429.179C372.516 443.01 363.618 455.603 351.335 462.354C331.246 473.39 305.596 468.022 290.943 455.497C288.641 453.534 286.523 451.435 284.53 449.278L284.172 449.259C266.801 463.215 241.074 462.171 224.206 446.55C215.83 438.803 207.957 429.76 199.794 425.108L199.774 425.137C188.323 419.063 175.827 422.399 164.81 427.245C153.794 432.1 140.766 435.921 130.213 427.197C123.82 421.906 119.739 413.056 114.922 405.396C110.105 397.736 103.287 390.53 96.1389 391.42C92.5893 391.855 89.001 394.254 85.5868 392.261C80.9249 389.524 80.4993 381.264 80.9345 374.92ZM306.611 459.114C306.428 459.076 306.234 459.037 306.05 459.008C306.186 459.056 306.331 459.105 306.466 459.163C306.505 459.143 306.563 459.134 306.611 459.114ZM251.742 143.875C252.584 141.176 252.603 138.42 251.858 136.127C251.123 133.845 249.576 131.891 247.235 131.156C244.914 130.421 242.525 131.127 240.61 132.578C238.685 134.019 237.108 136.282 236.257 138.99H236.248C235.406 141.699 235.387 144.455 236.132 146.747C236.867 149.04 238.414 150.984 240.745 151.719H240.755C243.076 152.454 245.465 151.748 247.39 150.297C249.305 148.846 250.881 146.583 251.732 143.875H251.742ZM209.843 138.923C211.004 136.708 211.536 134.328 211.381 132.22C211.236 130.131 210.394 128.177 208.692 127.181C206.99 126.185 204.978 126.465 203.218 127.452C201.457 128.429 199.823 130.17 198.652 132.384C197.492 134.599 196.96 136.988 197.115 139.087C197.26 141.186 198.101 143.14 199.803 144.136C201.506 145.132 203.518 144.852 205.278 143.865C207.038 142.888 208.673 141.147 209.843 138.923Z" fill="white" style="fill:white;fill-opacity:1;"/>
<path d="M394.722 357.925C395.157 356.213 395.37 354.549 395.872 353.012C396.269 352.015 396.579 351.019 397.681 350.874C399.093 350.758 401.647 352.683 403.958 355.807C407.431 360.449 408.968 366.311 408.05 372.191C406.783 380.48 402.024 389.011 394.325 392.715C390.398 394.804 381.087 395.436 377.121 397.061C362.545 403.976 388.715 432.235 360.241 456.87C349.195 467.383 336.506 470.904 321.708 468.64C312.935 467.625 304.733 464.182 296.976 460.158C293.465 458.311 290.051 456.502 286.56 455.641C279.228 453.523 272.052 456.657 264.923 458.64C256.712 460.767 247.891 460.264 239.95 457.315C225.152 451.714 215.461 437.748 202.549 429.101C193.94 423.172 182.943 421.925 172.962 424.652C164.373 426.77 156.529 431.113 147.573 431.887C138.297 432.97 129.128 429.266 123.267 422.108C117.406 415.386 113.837 406.353 107.599 400.105C105.18 397.619 102.385 395.568 99.2612 394.06C96.1275 392.261 84.75 391.284 84.75 391.284C84.75 391.284 90.4404 385.587 92.22 384.784C95.7696 383.217 100.49 382.917 104.436 383.923C121.11 387.966 126.091 403.944 138.036 412.688C151.432 421.876 167.033 412.175 179.945 406.672C188.988 402.677 199.492 401.43 208.642 405.772C221.448 411.285 230.975 423.172 244.341 427.167C250.821 428.83 256.393 425.271 261.625 421.702C266.49 418.346 272.177 415.831 278.164 416.595C294.558 418.017 306.494 440.601 324.232 442.033C336.419 442.942 343.276 432.641 344.379 421.567C345.878 411.711 342.657 400.965 344.853 391.922C347.425 380.625 358.452 373.652 369.41 372.23C380.03 370.624 392.468 370.431 394.702 358.08L394.741 357.915L394.722 357.925Z" fill="black" fill-opacity="0.15" style="fill:black;fill-opacity:0.15;"/>
<path d="M189.899 136.562C190.673 138.613 190.498 140.944 189.696 142.975C188.68 145.509 186.601 147.685 183.97 148.449C181.358 149.204 178.244 148.362 176.629 146.167C175.923 145.209 175.575 144.01 175.584 142.82C175.787 142.472 176 142.124 176.213 141.785C176.445 141.418 176.667 141.05 176.9 140.692C177.596 139.599 178.302 138.516 179.027 137.452C182.79 134.077 183.322 131.997 185.227 132.384C187.355 132.819 189.135 134.521 189.908 136.562H189.899Z" fill="black" fill-opacity="0.15" style="fill:black;fill-opacity:0.15;"/>
<path d="M220.521 234.81C202.831 226.831 185.112 218.842 166.832 212.342C161.919 210.601 156.802 208.947 151.647 208.609C151.018 208.57 150.399 208.551 149.771 208.551C148.33 208.551 146.898 208.657 145.467 208.909C141.298 209.644 137.478 211.549 134.15 214.17C131.239 216.433 128.724 219.258 126.664 222.304C122.254 228.881 119.72 236.88 120.494 244.763C121.422 254.135 126.935 262.588 133.889 268.943C134.769 269.746 135.679 270.519 136.607 271.274C142.981 276.448 150.341 280.423 157.934 284.457L171.049 289.68" stroke="black" style="stroke:black;stroke-opacity:1;" stroke-width="8" stroke-linecap="round" stroke-linejoin="round"/>
<path d="M134.15 214.171C123.54 209.886 111.227 214.248 104.457 223.466C97.6769 232.673 96.8258 245.47 100.83 256.176C104.834 266.893 119.362 278.809 130.059 286.392" stroke="black" style="stroke:black;stroke-opacity:1;" stroke-width="8" stroke-linecap="round" stroke-linejoin="round"/>
<path d="M176.891 140.693C177.587 139.6 178.293 138.516 179.018 137.453C184.986 128.69 192.134 120.797 200.664 114.549C220.095 100.293 245.862 95.6211 269.442 100.535C284.26 103.63 298.526 110.487 308.971 121.426C323.886 137.037 329.766 159.543 329.466 181.112C329.36 188.318 328.78 195.61 327.832 202.913C324.273 230.362 328.867 258.807 342.998 282.6C355.939 304.382 367.623 325.041 389.549 343.863C396.406 349.753 403.67 355.895 406.823 364.377C408.487 368.855 408.709 373.769 407.713 378.43C406.223 385.462 401.977 391.942 395.778 395.608C395.468 395.792 395.159 395.966 394.84 396.14C390.594 398.384 384.423 397.774 378.639 396.275C374.673 395.25 370.108 400.773 371.849 404.487C372.304 405.454 372.681 406.373 372.961 407.224C373.551 409.004 374.035 410.812 374.393 412.65C375.515 418.086 375.66 423.705 374.78 429.179C372.517 443.01 363.618 455.603 351.335 462.354C331.246 473.39 305.596 468.022 290.943 455.497C288.641 453.534 286.523 451.435 284.53 449.278" stroke="black" style="stroke:black;stroke-opacity:1;" stroke-width="8" stroke-linecap="round" stroke-linejoin="round"/>
<path d="M151.715 207.478C156.396 190.456 161.126 171.982 168.583 155.975C170.672 151.487 173.003 147.067 175.585 142.821C175.788 142.473 176.001 142.125 176.214 141.786" stroke="black" style="stroke:black;stroke-opacity:1;" stroke-width="8" stroke-linecap="round" stroke-linejoin="round"/>
<path d="M353.182 387.126C339.796 375.655 327.948 362.385 318.092 347.761" stroke="black" style="stroke:black;stroke-opacity:1;" stroke-width="6" stroke-linecap="round" stroke-linejoin="round"/>
<path d="M199.774 425.137C188.323 419.063 175.827 422.399 164.81 427.245C153.794 432.1 140.766 435.921 130.213 427.197C123.82 421.906 119.739 413.056 114.922 405.396C110.105 397.736 103.287 390.53 96.1389 391.42C92.5893 391.855 89.001 394.254 85.5868 392.262C80.9249 389.524 80.4993 381.264 80.9345 374.92C82.8206 347.132 118.52 315.756 131.596 287.079C133.956 281.914 135.572 276.836 136.133 271.884" stroke="black" style="stroke:black;stroke-opacity:1;" stroke-width="8" stroke-linecap="round" stroke-linejoin="round"/>
<path d="M199.793 425.107C207.956 429.76 215.829 438.803 224.205 446.55C241.073 462.171 266.801 463.215 284.172 449.258" stroke="black" style="stroke:black;stroke-opacity:1;" stroke-width="8" stroke-linecap="round" stroke-linejoin="round"/>
<path d="M120.358 379.262C119.797 368.72 120.571 358.11 122.68 347.761" stroke="black" style="stroke:black;stroke-opacity:1;" stroke-width="6" stroke-linecap="round" stroke-linejoin="round"/>
<path d="M257.895 423.135C268.766 425.775 275.797 438.426 286.088 449.549" stroke="black" style="stroke:black;stroke-opacity:1;" stroke-width="6" stroke-linecap="round" stroke-linejoin="round"/>
<path d="M162.895 287.581C160.912 293.558 159.5 299.874 160.245 306.132C160.99 312.38 164.201 318.599 169.675 321.714C176.184 325.418 184.522 324.083 191.205 320.688C197.879 317.303 203.44 312.119 210.075 308.037C211.942 320.369 217.832 332.14 227.001 340.584C236.18 349.018 248.637 353.95 261.095 353.467C273.543 352.973 285.797 346.909 293.68 337.015" stroke="black" style="stroke:black;stroke-opacity:1;" stroke-width="8" stroke-linecap="round" stroke-linejoin="round"/>
<path d="M273.401 158.025C273.449 160.472 273.091 162.977 271.969 165.143C270.838 167.31 268.874 169.118 266.485 169.689C263.429 170.415 260.112 168.935 258.138 166.488C256.156 164.031 255.401 160.772 255.469 157.618C255.527 155.162 256.088 152.647 257.49 150.616C258.893 148.585 261.214 147.115 263.681 147.124C266.389 146.505 269.348 147.908 271.041 150.132C272.743 152.347 273.353 155.229 273.401 158.025Z" fill="black" fill-opacity="0.15" style="fill:black;fill-opacity:0.15;"/>
<path d="M13.2041 105.595C13.7829 104.182 15.785 104.182 16.3638 105.595L18.6238 111.115C19.3173 112.809 20.6619 114.154 22.3559 114.847L27.8752 117.107C29.289 117.686 29.289 119.688 27.8752 120.267L22.3555 122.527C20.6615 123.22 19.317 124.565 18.6234 126.259L16.3638 131.778C15.785 133.191 13.7829 133.191 13.2041 131.778L10.9444 126.259C10.2508 124.565 8.90627 123.22 7.21235 122.526L1.69312 120.267C0.279376 119.688 0.279378 117.686 1.69312 117.107L7.21201 114.847C8.90593 114.154 10.2505 112.809 10.944 111.115L13.2041 105.595Z" fill="white" fill-opacity="0.75" style="fill:white;fill-opacity:0.75;"/>
<path d="M62.4912 138.302C62.9727 137.126 64.6382 137.126 65.1198 138.302L66.9998 142.894C67.5768 144.303 68.6953 145.421 70.1045 145.998L74.6961 147.878C75.8721 148.36 75.8722 150.025 74.6961 150.507L70.1042 152.387C68.695 152.964 67.5765 154.083 66.9995 155.492L65.1198 160.083C64.6383 161.259 62.9727 161.259 62.4912 160.083L60.6114 155.491C60.0344 154.082 58.9159 152.964 57.5067 152.387L52.9153 150.507C51.7392 150.025 51.7392 148.36 52.9153 147.878L57.5064 145.999C58.9156 145.422 60.0341 144.303 60.6111 142.894L62.4912 138.302Z" fill="white" fill-opacity="0.75" style="fill:white;fill-opacity:0.75;"/>
<path d="M113.813 136.434C114.233 135.409 115.685 135.409 116.104 136.434L117.743 140.436C118.246 141.665 119.221 142.64 120.45 143.143L124.452 144.781C125.477 145.201 125.477 146.653 124.452 147.073L120.449 148.711C119.221 149.214 118.246 150.189 117.743 151.418L116.104 155.42C115.685 156.445 114.233 156.445 113.813 155.42L112.175 151.418C111.672 150.189 110.697 149.214 109.468 148.711L105.466 147.073C104.441 146.653 104.441 145.201 105.466 144.781L109.468 143.143C110.696 142.64 111.671 141.665 112.174 140.437L113.813 136.434Z" fill="white" fill-opacity="0.75" style="fill:white;fill-opacity:0.75;"/>
<path d="M97.6523 180.915C97.9846 180.104 99.1343 180.104 99.4666 180.915L100.764 184.085C101.163 185.058 101.935 185.83 102.907 186.228L106.077 187.526C106.888 187.858 106.888 189.008 106.077 189.34L102.907 190.638C101.934 191.036 101.162 191.808 100.764 192.781L99.4666 195.95C99.1343 196.762 97.9846 196.762 97.6523 195.95L96.3547 192.781C95.9564 191.808 95.1844 191.036 94.2117 190.638L91.0424 189.34C90.2306 189.008 90.2306 187.858 91.0424 187.526L94.2115 186.228C95.1842 185.83 95.9562 185.058 96.3545 184.085L97.6523 180.915Z" fill="white" fill-opacity="0.75" style="fill:white;fill-opacity:0.75;"/>
<path d="M44.6511 172.309C44.9227 171.646 45.8622 171.646 46.1338 172.309L47.1943 174.899C47.5198 175.694 48.1507 176.325 48.9456 176.651L51.5356 177.711C52.1991 177.983 52.1991 178.922 51.5356 179.194L48.9455 180.254C48.1506 180.58 47.5196 181.211 47.1942 182.005L46.1338 184.595C45.8622 185.259 44.9227 185.259 44.6511 184.595L43.5907 182.005C43.2653 181.21 42.6343 180.58 41.8394 180.254L39.2495 179.194C38.5861 178.922 38.5861 177.983 39.2495 177.711L41.8393 176.651C42.6342 176.325 43.2651 175.694 43.5906 174.899L44.6511 172.309Z" fill="white" fill-opacity="0.75" style="fill:white;fill-opacity:0.75;"/>
<path d="M153.811 63.7994C157.578 88.1805 134.204 112.029 101.605 117.066C69.0051 122.103 39.5239 106.421 35.7567 82.0404C31.9895 57.6593 55.3628 33.8112 87.9625 28.7741C120.562 23.737 150.043 39.4183 153.811 63.7994Z" fill="#C8C8C8" style="fill:#C8C8C8;fill:color(display-p3 0.7843 0.7843 0.7843);fill-opacity:1;"/>
<path d="M151.484 48.7449C155.586 75.2893 132.483 100.891 99.8837 105.928C67.284 110.965 37.5318 93.5303 33.4303 66.9858C29.3288 40.4414 52.4312 14.8395 85.0309 9.80237C117.631 4.76527 147.383 22.2004 151.484 48.7449Z" fill="#D9D9D9" style="fill:#D9D9D9;fill:color(display-p3 0.8510 0.8510 0.8510);fill-opacity:1;"/>
<path fill-rule="evenodd" clip-rule="evenodd" d="M122.671 98.3914L40.5975 36.5898C45.8134 28.7247 53.4615 21.9346 62.7939 17.0482L144.625 78.6672C139.506 86.5773 131.939 93.4284 122.671 98.3914Z" fill="white" fill-opacity="0.5" style="fill:white;fill-opacity:0.5;"/>
<path d="M122.641 44.7775C122.26 43.9706 121.842 43.1842 121.39 42.42C114.949 31.5191 101.612 25.1023 87.4704 27.2874C69.3066 30.094 56.6925 46.0276 59.2958 62.8762C61.8991 79.7248 78.7342 91.1081 96.8979 88.3016C112.031 85.9632 123.313 74.5122 125.15 61.0119L129.943 92.0346" stroke="#2D2D2D" stroke-opacity="0.4" style="stroke:#2D2D2D;stroke:color(display-p3 0.1752 0.1752 0.1752);stroke-opacity:0.4;" stroke-width="8" stroke-linecap="round" stroke-linejoin="round"/>
<path d="M73.3846 55.3071C74.0082 59.3431 78.0803 62.0647 82.4748 61.3857C86.8693 60.7067 89.93 56.883 89.3064 52.8469C88.6828 48.8109 84.6112 46.0929 80.2168 46.7719C75.8223 47.4509 72.7615 51.2746 73.3846 55.3071Z" fill="#2D2D2D" fill-opacity="0.4" style="fill:#2D2D2D;fill:color(display-p3 0.1752 0.1752 0.1752);fill-opacity:0.4;"/>
<path d="M93.453 52.2055C94.0766 56.2415 98.1487 58.9631 102.547 58.2835C106.945 57.6039 110.006 53.7802 109.382 49.7442C108.759 45.7082 104.687 42.9901 100.289 43.6697C95.8906 44.3493 92.8299 48.173 93.453 52.2055Z" fill="#2D2D2D" fill-opacity="0.4" style="fill:#2D2D2D;fill:color(display-p3 0.1752 0.1752 0.1752);fill-opacity:0.4;"/>
<path d="M151.484 48.7449C155.586 75.2893 132.483 100.891 99.8837 105.928C67.284 110.965 37.5318 93.5303 33.4303 66.9858M151.484 48.7449C147.383 22.2004 117.631 4.76527 85.0309 9.80237C52.4312 14.8395 29.3288 40.4414 33.4303 66.9858M151.484 48.7449L154.376 67.46C158.109 91.6168 130.592 114.835 101.945 119.261C73.2974 123.688 40.1187 110.267 36.3626 85.9579L33.4303 66.9858" stroke="black" style="stroke:black;stroke-opacity:1;" stroke-width="8"/>
</svg>
