<svg width="413" height="520" viewBox="0 0 413 520" fill="none" xmlns="http://www.w3.org/2000/svg">
<ellipse cx="244.877" cy="510.478" rx="139.778" ry="9.19141" fill="black" fill-opacity="0.15" style="fill:black;fill-opacity:0.15;"/>
<path d="M306.371 458.997C306.555 459.026 306.748 459.065 306.932 459.103C306.884 459.123 306.826 459.132 306.787 459.152C306.652 459.094 306.507 459.045 306.371 458.997Z" fill="black" style="fill:black;fill-opacity:1;"/>
<path d="M252.179 136.117C252.923 138.409 252.904 141.166 252.063 143.864H252.053C251.202 146.572 249.625 148.836 247.71 150.286C245.785 151.737 243.396 152.443 241.075 151.708H241.065C238.735 150.973 237.187 149.029 236.452 146.737C235.707 144.445 235.727 141.688 236.568 138.99H236.578C237.429 136.272 239.005 134.008 240.93 132.567C242.845 131.117 245.234 130.41 247.555 131.146C249.896 131.881 251.444 133.834 252.179 136.117Z" fill="black" style="fill:black;fill-opacity:1;"/>
<path d="M211.703 132.209C211.857 134.318 211.325 136.697 210.165 138.912C208.994 141.137 207.36 142.877 205.6 143.854C203.839 144.841 201.827 145.121 200.125 144.125C198.423 143.129 197.581 141.175 197.436 139.076C197.282 136.978 197.814 134.589 198.974 132.374C200.145 130.159 201.779 128.418 203.539 127.441C205.3 126.454 207.312 126.174 209.014 127.17C210.716 128.166 211.558 130.12 211.703 132.209Z" fill="black" style="fill:black;fill-opacity:1;"/>
<path d="M177.22 140.682C176.988 141.04 176.765 141.407 176.533 141.775C176.707 141.388 176.93 141.02 177.22 140.682Z" fill="black" style="fill:black;fill-opacity:1;"/>
<path d="M136.927 271.264L136.453 271.873C135.892 276.825 134.277 281.903 131.917 287.068L130.379 286.381C119.682 278.798 105.155 266.882 101.15 256.166C97.1461 245.459 97.9972 232.663 104.777 223.455C111.548 214.238 123.86 209.876 134.47 214.16C131.559 216.423 129.044 219.248 126.984 222.294C122.574 228.871 120.04 236.87 120.813 244.753C121.742 254.125 127.255 262.578 134.209 268.933C135.089 269.736 135.999 270.509 136.927 271.264Z" fill="white" style="fill:white;fill-opacity:1;"/>
<path d="M85.1139 373.033C84.6883 371.572 84.4465 370.054 84.3691 368.526C84.4175 368.158 84.4949 367.8 84.5819 367.433C84.5336 369.435 84.7173 371.301 85.1139 373.033Z" fill="black" style="fill:black;fill-opacity:1;"/>
<path d="M81.2548 374.909C83.1409 347.121 118.84 315.745 131.917 287.068C134.277 281.903 135.892 276.825 136.453 271.873L136.927 271.264C135.998 270.509 135.089 269.735 134.209 268.933C127.255 262.578 121.742 254.125 120.813 244.753C120.04 236.87 122.574 228.871 126.984 222.294C129.044 219.248 131.559 216.423 134.47 214.16C137.797 211.539 141.618 209.634 145.786 208.899C147.218 208.647 148.649 208.541 150.09 208.541L152.035 207.467C156.716 190.444 161.445 171.971 168.903 155.964C170.992 151.476 173.323 147.056 175.905 142.81C175.895 143.999 176.244 145.199 176.95 146.156C178.565 148.352 181.679 149.193 184.291 148.439C186.921 147.675 189.001 145.499 190.017 142.965C190.819 140.933 190.993 138.602 190.22 136.552C189.446 134.511 187.666 132.809 185.538 132.374C183.633 131.987 183.101 134.066 179.339 137.442C185.306 128.679 192.454 120.787 200.985 114.538C220.416 100.282 246.182 95.6104 269.762 100.524C284.58 103.619 298.846 110.476 309.292 121.415C324.206 137.026 330.086 159.533 329.787 181.101C329.68 188.307 329.1 195.6 328.152 202.902C324.593 230.351 329.187 258.796 343.318 282.59C356.259 304.371 367.943 325.03 389.869 343.852C396.727 349.742 403.99 355.884 407.143 364.366C408.807 368.844 409.029 373.758 408.033 378.42C406.544 385.451 402.298 391.932 396.098 395.597C395.788 395.781 395.479 395.955 395.16 396.129C390.914 398.373 384.743 397.764 378.959 396.265C374.994 395.239 370.428 400.762 372.169 404.476C372.624 405.443 373.001 406.362 373.282 407.213C373.872 408.993 374.355 410.802 374.713 412.639C375.835 418.075 375.98 423.694 375.1 429.169C372.837 443 363.938 455.593 351.655 462.344C331.566 473.379 305.916 468.012 291.263 455.486C288.961 453.523 286.843 451.424 284.851 449.267L284.493 449.248C267.122 463.205 241.394 462.16 224.526 446.54C216.15 438.792 208.277 429.749 200.114 425.097L200.095 425.126C188.643 419.052 176.147 422.389 165.13 427.234C154.114 432.09 141.086 435.91 130.534 427.186C124.141 421.895 120.059 413.046 115.242 405.385C110.426 397.725 103.607 390.519 96.4592 391.409C92.9096 391.844 89.3213 394.243 85.9071 392.251C81.2452 389.514 80.8196 381.254 81.2548 374.909ZM306.932 459.104C306.748 459.065 306.554 459.026 306.371 458.997C306.506 459.046 306.651 459.094 306.787 459.152C306.825 459.133 306.883 459.123 306.932 459.104ZM252.062 143.864C252.904 141.166 252.923 138.409 252.178 136.117C251.443 133.834 249.896 131.88 247.555 131.145C245.234 130.41 242.845 131.116 240.93 132.567C239.005 134.008 237.429 136.271 236.578 138.98H236.568C235.726 141.688 235.707 144.444 236.452 146.737C237.187 149.029 238.734 150.973 241.065 151.708H241.075C243.396 152.443 245.785 151.737 247.71 150.286C249.625 148.835 251.202 146.572 252.053 143.864H252.062ZM210.163 138.912C211.324 136.697 211.856 134.318 211.701 132.209C211.556 130.12 210.715 128.166 209.012 127.17C207.31 126.174 205.298 126.454 203.538 127.441C201.778 128.418 200.143 130.159 198.973 132.374C197.812 134.589 197.28 136.978 197.435 139.076C197.58 141.175 198.421 143.129 200.124 144.125C201.826 145.121 203.838 144.841 205.598 143.854C207.358 142.877 208.993 141.137 210.163 138.912Z" fill="white" style="fill:white;fill-opacity:1;"/>
<path d="M395.042 357.914C395.477 356.202 395.69 354.539 396.193 353.001C396.589 352.005 396.899 351.008 398.001 350.863C399.414 350.747 401.967 352.672 404.279 355.796C407.751 360.439 409.289 366.3 408.37 372.18C407.103 380.469 402.344 389 394.645 392.704C390.718 394.794 381.407 395.425 377.441 397.05C362.866 403.965 389.036 432.224 360.561 456.859C349.516 467.372 336.826 470.893 322.028 468.63C313.255 467.614 305.054 464.171 297.297 460.147C293.786 458.3 290.371 456.491 286.88 455.631C279.548 453.512 272.372 456.646 265.244 458.629C257.032 460.757 248.211 460.254 240.27 457.304C225.472 451.704 215.781 437.737 202.869 429.091C194.261 423.162 183.264 421.914 173.282 424.641C164.693 426.76 156.849 431.102 147.893 431.876C138.618 432.959 129.449 429.255 123.587 422.098C117.726 415.376 114.157 406.342 107.919 400.094C105.501 397.608 102.706 395.558 99.5815 394.049C96.4478 392.25 85.0703 391.273 85.0703 391.273C85.0703 391.273 90.7607 385.576 92.5403 384.773C96.0899 383.207 100.81 382.907 104.756 383.913C121.431 387.955 126.412 403.934 138.357 412.677C151.752 421.866 167.353 412.165 180.265 406.661C189.309 402.667 199.812 401.419 208.962 405.762C221.768 411.275 231.295 423.162 244.662 427.156C251.142 428.82 256.713 425.26 261.945 421.691C266.81 418.335 272.498 415.821 278.485 416.585C294.879 418.006 306.814 440.591 324.552 442.022C336.739 442.931 343.596 432.63 344.699 421.556C346.198 411.7 342.977 400.955 345.173 391.911C347.746 380.614 358.772 373.641 369.73 372.219C380.35 370.614 392.788 370.42 395.023 358.069L395.061 357.905L395.042 357.914Z" fill="#BCBBFF" fill-opacity="0.4" style="fill:#BCBBFF;fill:color(display-p3 0.7373 0.7333 1.0000);fill-opacity:0.4;"/>
<path d="M190.219 136.552C190.993 138.602 190.819 140.933 190.016 142.964C189 145.498 186.921 147.674 184.29 148.438C181.679 149.193 178.564 148.351 176.949 146.156C176.243 145.198 175.895 143.999 175.904 142.809C176.108 142.461 176.32 142.113 176.533 141.774C176.765 141.407 176.988 141.039 177.22 140.681C177.916 139.589 178.622 138.505 179.348 137.441C183.11 134.066 183.642 131.986 185.547 132.373C187.675 132.808 189.455 134.511 190.229 136.552H190.219Z" fill="#BCBBFF" fill-opacity="0.4" style="fill:#BCBBFF;fill:color(display-p3 0.7373 0.7333 1.0000);fill-opacity:0.4;"/>
<path d="M220.842 234.8C203.152 226.82 185.433 218.831 167.152 212.331C162.239 210.591 157.123 208.937 151.967 208.598C151.339 208.559 150.72 208.54 150.091 208.54C148.65 208.54 147.218 208.646 145.787 208.898C141.618 209.633 137.798 211.538 134.471 214.159C131.56 216.423 129.045 219.247 126.985 222.294C122.574 228.871 120.04 236.869 120.814 244.752C121.742 254.124 127.255 262.578 134.21 268.932C135.09 269.735 135.999 270.509 136.927 271.263C143.301 276.437 150.662 280.413 158.254 284.446L171.369 289.669" stroke="black" style="stroke:black;stroke-opacity:1;" stroke-width="8" stroke-linecap="round" stroke-linejoin="round"/>
<path d="M134.47 214.16C123.86 209.876 111.548 214.238 104.777 223.455C97.9972 232.663 97.1461 245.459 101.15 256.166C105.155 266.882 119.682 278.798 130.379 286.381" stroke="black" style="stroke:black;stroke-opacity:1;" stroke-width="8" stroke-linecap="round" stroke-linejoin="round"/>
<path d="M177.211 140.682C177.907 139.589 178.613 138.506 179.339 137.442C185.306 128.679 192.454 120.787 200.985 114.538C220.416 100.282 246.182 95.6104 269.762 100.524C284.58 103.619 298.846 110.476 309.292 121.415C324.206 137.026 330.087 159.533 329.787 181.101C329.68 188.307 329.1 195.6 328.152 202.902C324.593 230.351 329.187 258.796 343.318 282.59C356.259 304.371 367.943 325.03 389.869 343.852C396.727 349.742 403.99 355.884 407.143 364.366C408.807 368.844 409.029 373.758 408.033 378.42C406.544 385.451 402.298 391.932 396.098 395.597C395.789 395.781 395.479 395.955 395.16 396.129C390.914 398.373 384.743 397.764 378.959 396.265C374.994 395.239 370.429 400.762 372.169 404.476C372.624 405.443 373.001 406.362 373.282 407.213C373.872 408.993 374.355 410.802 374.713 412.639C375.835 418.075 375.98 423.694 375.1 429.169C372.837 443 363.939 455.593 351.655 462.344C331.566 473.379 305.916 468.012 291.263 455.486C288.961 453.523 286.843 451.424 284.851 449.267" stroke="black" style="stroke:black;stroke-opacity:1;" stroke-width="8" stroke-linecap="round" stroke-linejoin="round"/>
<path d="M152.035 207.468C156.716 190.445 161.446 171.971 168.903 155.964C170.992 151.476 173.323 147.056 175.906 142.81C176.109 142.462 176.322 142.114 176.534 141.775" stroke="black" style="stroke:black;stroke-opacity:1;" stroke-width="8" stroke-linecap="round" stroke-linejoin="round"/>
<path d="M353.502 387.115C340.116 375.644 328.268 362.374 318.412 347.75" stroke="black" style="stroke:black;stroke-opacity:1;" stroke-width="6" stroke-linecap="round" stroke-linejoin="round"/>
<path d="M200.095 425.126C188.643 419.052 176.147 422.389 165.13 427.234C154.114 432.09 141.086 435.91 130.534 427.186C124.141 421.895 120.059 413.046 115.242 405.385C110.426 397.725 103.607 390.52 96.4592 391.409C92.9096 391.845 89.3213 394.243 85.9071 392.251C81.2452 389.514 80.8196 381.254 81.2548 374.909C83.1409 347.121 118.84 315.745 131.917 287.068C134.277 281.903 135.892 276.825 136.453 271.873" stroke="black" style="stroke:black;stroke-opacity:1;" stroke-width="8" stroke-linecap="round" stroke-linejoin="round"/>
<path d="M200.113 425.097C208.276 429.749 216.149 438.792 224.525 446.54C241.393 462.16 267.121 463.204 284.492 449.248" stroke="black" style="stroke:black;stroke-opacity:1;" stroke-width="8" stroke-linecap="round" stroke-linejoin="round"/>
<path d="M120.679 379.252C120.118 368.709 120.892 358.099 123 347.75" stroke="black" style="stroke:black;stroke-opacity:1;" stroke-width="6" stroke-linecap="round" stroke-linejoin="round"/>
<path d="M258.215 423.124C269.086 425.764 276.118 438.415 286.409 449.538" stroke="black" style="stroke:black;stroke-opacity:1;" stroke-width="6" stroke-linecap="round" stroke-linejoin="round"/>
<path d="M163.215 287.57C161.233 293.548 159.82 299.863 160.565 306.121C161.31 312.369 164.521 318.588 169.995 321.703C176.505 325.407 184.842 324.072 191.525 320.678C198.199 317.292 203.76 312.108 210.395 308.027C212.262 320.358 218.152 332.129 227.321 340.573C236.5 349.007 248.958 353.94 261.415 353.456C273.863 352.963 286.117 346.898 294 337.004" stroke="black" style="stroke:black;stroke-opacity:1;" stroke-width="8" stroke-linecap="round" stroke-linejoin="round"/>
<path d="M273.721 158.014C273.77 160.461 273.412 162.966 272.29 165.133C271.158 167.299 269.195 169.108 266.806 169.678C263.749 170.404 260.432 168.924 258.459 166.477C256.476 164.02 255.722 160.761 255.789 157.608C255.847 155.151 256.408 152.636 257.811 150.605C259.213 148.574 261.534 147.104 264.001 147.114C266.709 146.495 269.669 147.897 271.361 150.122C273.064 152.336 273.673 155.219 273.721 158.014Z" fill="#BCBBFF" fill-opacity="0.4" style="fill:#BCBBFF;fill:color(display-p3 0.7373 0.7333 1.0000);fill-opacity:0.4;"/>
<path d="M13.5264 105.605C14.1052 104.191 16.1073 104.191 16.6861 105.605L18.946 111.125C19.6396 112.819 20.9842 114.163 22.6781 114.857L28.1975 117.117C29.6112 117.696 29.6113 119.698 28.1975 120.276L22.6777 122.537C20.9838 123.23 19.6393 124.575 18.9457 126.269L16.6861 131.787C16.1073 133.201 14.1052 133.201 13.5264 131.787L11.2667 126.268C10.5731 124.574 9.22853 123.23 7.53461 122.536L2.01538 120.276C0.601642 119.698 0.601643 117.696 2.01539 117.117L7.53428 114.857C9.22819 114.164 10.5728 112.819 11.2663 111.125L13.5264 105.605Z" fill="white" fill-opacity="0.75" style="fill:white;fill-opacity:0.75;"/>
<path d="M62.8154 138.312C63.297 137.136 64.9625 137.136 65.444 138.312L67.324 142.904C67.901 144.313 69.0195 145.431 70.4287 146.008L75.0203 147.888C76.1964 148.37 76.1964 150.035 75.0203 150.517L70.4284 152.397C69.0192 152.974 67.9007 154.092 67.3237 155.501L65.444 160.093C64.9625 161.269 63.297 161.269 62.8154 160.093L60.9356 155.501C60.3586 154.092 59.2401 152.974 57.8309 152.397L53.2395 150.517C52.0634 150.035 52.0634 148.37 53.2395 147.888L57.8306 146.008C59.2398 145.431 60.3583 144.313 60.9353 142.904L62.8154 138.312Z" fill="white" fill-opacity="0.75" style="fill:white;fill-opacity:0.75;"/>
<path d="M114.134 136.444C114.553 135.419 116.005 135.419 116.425 136.444L118.064 140.446C118.566 141.675 119.541 142.65 120.77 143.152L124.772 144.791C125.797 145.211 125.797 146.663 124.772 147.082L120.77 148.721C119.541 149.224 118.566 150.199 118.063 151.427L116.425 155.429C116.005 156.455 114.553 156.455 114.134 155.429L112.495 151.427C111.992 150.199 111.017 149.224 109.789 148.721L105.786 147.082C104.761 146.663 104.761 145.211 105.786 144.791L109.788 143.153C111.017 142.65 111.992 141.675 112.495 140.446L114.134 136.444Z" fill="white" fill-opacity="0.75" style="fill:white;fill-opacity:0.75;"/>
<path d="M97.9745 180.925C98.3069 180.113 99.4565 180.113 99.7889 180.925L101.087 184.095C101.485 185.067 102.257 185.839 103.23 186.238L106.399 187.535C107.211 187.868 107.211 189.017 106.399 189.35L103.229 190.648C102.257 191.046 101.485 191.818 101.086 192.791L99.7889 195.96C99.4565 196.771 98.3069 196.771 97.9745 195.96L96.677 192.79C96.2787 191.818 95.5066 191.046 94.5339 190.647L91.3647 189.35C90.5529 189.017 90.5529 187.868 91.3647 187.535L94.5338 186.238C95.5064 185.84 96.2785 185.068 96.6768 184.095L97.9745 180.925Z" fill="white" fill-opacity="0.75" style="fill:white;fill-opacity:0.75;"/>
<path d="M44.9753 172.319C45.247 171.655 46.1864 171.655 46.4581 172.319L47.5185 174.909C47.844 175.704 48.475 176.335 49.2699 176.66L51.8599 177.721C52.5233 177.992 52.5233 178.932 51.8599 179.203L49.2697 180.264C48.4748 180.589 47.8438 181.22 47.5184 182.015L46.4581 184.605C46.1864 185.268 45.247 185.268 44.9753 184.605L43.9149 182.015C43.5895 181.22 42.9585 180.589 42.1637 180.264L39.5737 179.203C38.9103 178.932 38.9103 177.992 39.5737 177.721L42.1635 176.66C42.9584 176.335 43.5893 175.704 43.9148 174.909L44.9753 172.319Z" fill="white" fill-opacity="0.75" style="fill:white;fill-opacity:0.75;"/>
<path d="M154.133 63.8092C157.9 88.1902 134.527 112.038 101.927 117.075C69.3274 122.113 39.8462 106.431 36.0789 82.0501C32.3117 57.6691 55.6851 33.8209 88.2848 28.7838C120.884 23.7467 150.366 39.4281 154.133 63.8092Z" fill="#ADACE7" style="fill:#ADACE7;fill:color(display-p3 0.6770 0.6736 0.9045);fill-opacity:1;"/>
<path d="M151.807 48.7546C155.908 75.2991 132.806 100.901 100.206 105.938C67.6062 110.975 37.854 93.54 33.7526 66.9956C29.6511 40.4511 52.7534 14.8492 85.3531 9.81214C117.953 4.77504 147.705 22.2102 151.807 48.7546Z" fill="#D2D1FF" style="fill:#D2D1FF;fill:color(display-p3 0.8217 0.8191 1.0000);fill-opacity:1;"/>
<path fill-rule="evenodd" clip-rule="evenodd" d="M122.994 98.4012L40.9198 36.5996C46.1357 28.7345 53.7837 21.9444 63.1162 17.0579L144.948 78.677C139.829 86.587 132.261 93.4382 122.994 98.4012Z" fill="white" fill-opacity="0.5" style="fill:white;fill-opacity:0.5;"/>
<path d="M122.962 44.7873C122.58 43.9803 122.162 43.194 121.711 42.4297C115.269 31.5289 101.933 25.1121 87.7907 27.2972C69.6269 30.1038 57.0128 46.0374 59.6161 62.886C62.2194 79.7346 79.0545 91.1179 97.2182 88.3113C112.352 85.973 123.633 74.522 125.47 61.0216L130.263 92.0444" stroke="#020075" stroke-opacity="0.4" style="stroke:#020075;stroke:color(display-p3 0.0067 0.0000 0.4578);stroke-opacity:0.4;" stroke-width="8" stroke-linecap="round" stroke-linejoin="round"/>
<path d="M73.7049 55.3168C74.3285 59.3529 78.4006 62.0745 82.7951 61.3954C87.1896 60.7164 90.2503 56.8927 89.6267 52.8567C89.0031 48.8207 84.9315 46.1026 80.5371 46.7817C76.1426 47.4607 73.0818 51.2844 73.7049 55.3168Z" fill="#020075" fill-opacity="0.4" style="fill:#020075;fill:color(display-p3 0.0067 0.0000 0.4578);fill-opacity:0.4;"/>
<path d="M93.7733 52.2153C94.3969 56.2513 98.469 58.9729 102.867 58.2933C107.266 57.6137 110.326 53.79 109.703 49.754C109.079 45.7179 105.008 42.9999 100.609 43.6795C96.2109 44.3591 93.1502 48.1828 93.7733 52.2153Z" fill="#020075" fill-opacity="0.4" style="fill:#020075;fill:color(display-p3 0.0067 0.0000 0.4578);fill-opacity:0.4;"/>
<path d="M151.807 48.7546C155.908 75.2991 132.806 100.901 100.206 105.938C67.6062 110.975 37.854 93.54 33.7526 66.9956M151.807 48.7546C147.705 22.2102 117.953 4.77504 85.3531 9.81214C52.7534 14.8492 29.6511 40.4511 33.7526 66.9956M151.807 48.7546L154.698 67.4698C158.431 91.6265 130.914 114.845 102.267 119.271C73.6197 123.697 40.441 110.277 36.6849 85.9677L33.7526 66.9956" stroke="black" style="stroke:black;stroke-opacity:1;" stroke-width="8"/>
</svg>
