<svg width="415" height="493" viewBox="0 0 415 493" fill="none" xmlns="http://www.w3.org/2000/svg">
<ellipse cx="246.424" cy="483.187" rx="139.778" ry="9.19141" fill="black" fill-opacity="0.15" style="fill:black;fill-opacity:0.15;"/>
<path d="M307.92 431.707C308.104 431.736 308.297 431.775 308.481 431.813C308.433 431.833 308.375 431.842 308.336 431.862C308.2 431.804 308.055 431.755 307.92 431.707Z" fill="black" style="fill:black;fill-opacity:1;"/>
<path d="M253.727 108.827C254.472 111.119 254.453 113.876 253.611 116.574H253.602C252.751 119.282 251.174 121.546 249.259 122.996C247.334 124.447 244.945 125.153 242.624 124.418H242.614C240.283 123.683 238.736 121.739 238.001 119.447C237.256 117.154 237.275 114.398 238.117 111.699H238.126C238.978 108.982 240.554 106.718 242.479 105.277C244.394 103.826 246.783 103.12 249.104 103.855C251.445 104.591 252.992 106.544 253.727 108.827Z" fill="black" style="fill:black;fill-opacity:1;"/>
<path d="M213.251 104.919C213.406 107.028 212.874 109.407 211.714 111.622C210.543 113.846 208.909 115.587 207.148 116.564C205.388 117.551 203.376 117.831 201.674 116.835C199.972 115.839 199.13 113.885 198.985 111.786C198.83 109.688 199.362 107.299 200.523 105.084C201.693 102.869 203.328 101.128 205.088 100.151C206.849 99.1644 208.86 98.8839 210.563 99.8801C212.265 100.876 213.106 102.83 213.251 104.919Z" fill="black" style="fill:black;fill-opacity:1;"/>
<path d="M178.769 113.392C178.537 113.749 178.314 114.117 178.082 114.485C178.256 114.098 178.479 113.73 178.769 113.392Z" fill="black" style="fill:black;fill-opacity:1;"/>
<path d="M138.476 243.974L138.002 244.583C137.441 249.535 135.826 254.613 133.466 259.778L131.928 259.091C121.231 251.508 106.703 239.592 102.699 228.876C98.6949 218.169 99.5461 205.373 106.326 196.165C113.097 186.948 125.409 182.585 136.019 186.87C133.108 189.133 130.593 191.958 128.533 195.004C124.123 201.581 121.589 209.58 122.362 217.463C123.291 226.835 128.804 235.288 135.758 241.643C136.638 242.446 137.547 243.219 138.476 243.974Z" fill="white" style="fill:white;fill-opacity:1;"/>
<path d="M86.6627 345.743C86.2371 344.282 85.9953 342.764 85.918 341.236C85.9663 340.868 86.0437 340.51 86.1308 340.143C86.0824 342.145 86.2662 344.011 86.6627 345.743Z" fill="black" style="fill:black;fill-opacity:1;"/>
<path d="M82.8037 347.619C84.6897 319.831 120.389 288.455 133.466 259.778C135.826 254.613 137.441 249.535 138.002 244.583L138.476 243.974C137.547 243.219 136.638 242.445 135.758 241.643C128.804 235.288 123.291 226.835 122.362 217.463C121.588 209.58 124.122 201.581 128.533 195.004C130.593 191.958 133.108 189.133 136.019 186.87C139.346 184.249 143.167 182.344 147.335 181.609C148.767 181.357 150.198 181.251 151.639 181.251L153.583 180.177C158.265 163.154 162.994 144.681 170.451 128.674C172.541 124.186 174.871 119.766 177.454 115.52C177.444 116.709 177.792 117.909 178.498 118.866C180.114 121.062 183.228 121.903 185.84 121.149C188.47 120.385 190.55 118.209 191.565 115.674C192.368 113.643 192.542 111.312 191.768 109.262C190.995 107.221 189.215 105.519 187.087 105.084C185.182 104.697 184.65 106.776 180.887 110.152C186.855 101.389 194.003 93.4966 202.533 87.2485C221.964 72.9919 247.731 68.3203 271.311 73.2337C286.129 76.3288 300.395 83.1862 310.84 94.1252C325.755 109.736 331.635 132.243 331.335 153.811C331.229 161.017 330.649 168.31 329.701 175.612C326.142 203.061 330.736 231.506 344.867 255.3C357.808 277.081 369.492 297.74 391.418 316.562C398.275 322.452 405.539 328.594 408.692 337.076C410.356 341.554 410.578 346.468 409.582 351.13C408.092 358.161 403.846 364.641 397.647 368.307C397.337 368.491 397.028 368.665 396.709 368.839C392.463 371.083 386.292 370.474 380.508 368.975C376.542 367.949 371.977 373.472 373.718 377.186C374.173 378.153 374.55 379.072 374.83 379.923C375.42 381.703 375.904 383.512 376.262 385.349C377.384 390.785 377.529 396.404 376.649 401.879C374.386 415.71 365.487 428.303 353.204 435.054C333.115 446.089 307.465 440.721 292.812 428.196C290.51 426.233 288.392 424.134 286.399 421.977L286.041 421.958C268.671 435.914 242.943 434.87 226.075 419.25C217.699 411.502 209.826 402.459 201.663 397.807L201.644 397.836C190.192 391.762 177.696 395.099 166.679 399.944C155.663 404.8 142.635 408.62 132.083 399.896C125.689 394.605 121.608 385.755 116.791 378.095C111.974 370.435 105.156 363.229 98.0081 364.119C94.4584 364.554 90.8701 366.953 87.4559 364.961C82.794 362.223 82.3684 353.964 82.8037 347.619ZM308.481 431.814C308.297 431.775 308.103 431.736 307.92 431.707C308.055 431.756 308.2 431.804 308.335 431.862C308.374 431.843 308.432 431.833 308.481 431.814ZM253.611 116.574C254.453 113.875 254.472 111.119 253.727 108.827C252.992 106.544 251.445 104.59 249.104 103.855C246.783 103.12 244.394 103.826 242.479 105.277C240.554 106.718 238.978 108.981 238.126 111.69H238.117C237.275 114.398 237.256 117.154 238.001 119.447C238.736 121.739 240.283 123.683 242.614 124.418H242.624C244.945 125.153 247.334 124.447 249.259 122.996C251.174 121.545 252.75 119.282 253.602 116.574H253.611ZM211.712 111.622C212.873 109.407 213.405 107.028 213.25 104.919C213.105 102.83 212.263 100.876 210.561 99.8801C208.859 98.8839 206.847 99.1644 205.087 100.151C203.327 101.128 201.692 102.869 200.522 105.084C199.361 107.299 198.829 109.688 198.984 111.786C199.129 113.885 199.97 115.839 201.673 116.835C203.375 117.831 205.387 117.551 207.147 116.564C208.907 115.587 210.542 113.846 211.712 111.622Z" fill="white" style="fill:white;fill-opacity:1;"/>
<path d="M396.591 330.624C397.026 328.912 397.239 327.249 397.742 325.711C398.138 324.715 398.448 323.718 399.55 323.573C400.962 323.457 403.516 325.382 405.827 328.506C409.3 333.149 410.838 339.01 409.919 344.89C408.652 353.179 403.893 361.71 396.194 365.414C392.267 367.504 382.956 368.135 378.99 369.76C364.414 376.675 390.584 404.934 362.11 429.569C351.065 440.082 338.375 443.603 323.577 441.34C314.804 440.324 306.602 436.881 298.845 432.857C295.334 431.01 291.92 429.201 288.429 428.34C281.097 426.222 273.921 429.356 266.792 431.339C258.581 433.467 249.76 432.964 241.819 430.014C227.021 424.414 217.33 410.447 204.418 401.8C195.81 395.872 184.813 394.624 174.831 397.351C166.242 399.47 158.398 403.812 149.442 404.586C140.167 405.669 130.998 401.965 125.136 394.808C119.275 388.086 115.706 379.052 109.468 372.804C107.05 370.318 104.254 368.268 101.13 366.759C97.9966 364.96 86.6191 363.983 86.6191 363.983C86.6191 363.983 92.3095 358.286 94.0892 357.483C97.6388 355.917 102.359 355.617 106.305 356.623C122.979 360.665 127.961 376.644 139.905 385.387C153.301 394.576 168.902 384.874 181.814 379.371C190.858 375.377 201.361 374.129 210.511 378.472C223.317 383.985 232.844 395.872 246.21 399.866C252.691 401.53 258.262 397.97 263.494 394.401C268.359 391.045 274.046 388.531 280.033 389.295C296.427 390.716 308.363 413.301 326.101 414.732C338.288 415.641 345.145 405.34 346.248 394.266C347.747 384.41 344.526 373.665 346.722 364.621C349.295 353.324 360.321 346.351 371.279 344.929C381.899 343.324 394.337 343.13 396.571 330.779L396.61 330.615L396.591 330.624Z" fill="#BCBBFF" fill-opacity="0.4" style="fill:#BCBBFF;fill:color(display-p3 0.7373 0.7333 1.0000);fill-opacity:0.4;"/>
<path d="M191.768 109.262C192.542 111.312 192.368 113.643 191.565 115.674C190.549 118.208 188.47 120.384 185.839 121.148C183.228 121.903 180.113 121.061 178.498 118.866C177.792 117.908 177.444 116.709 177.453 115.519C177.656 115.171 177.869 114.823 178.082 114.484C178.314 114.117 178.537 113.749 178.769 113.391C179.465 112.299 180.171 111.215 180.897 110.151C184.659 106.776 185.191 104.696 187.096 105.083C189.224 105.518 191.004 107.221 191.778 109.262H191.768Z" fill="#BCBBFF" fill-opacity="0.4" style="fill:#BCBBFF;fill:color(display-p3 0.7373 0.7333 1.0000);fill-opacity:0.4;"/>
<path d="M222.391 207.509C204.7 199.53 186.981 191.541 168.701 185.041C163.788 183.3 158.671 181.647 153.516 181.308C152.888 181.269 152.269 181.25 151.64 181.25C150.199 181.25 148.767 181.356 147.336 181.608C143.167 182.343 139.347 184.248 136.02 186.869C133.108 189.133 130.594 191.957 128.533 195.004C124.123 201.581 121.589 209.579 122.363 217.462C123.291 226.834 128.804 235.287 135.758 241.642C136.639 242.445 137.548 243.219 138.476 243.973C144.85 249.147 152.211 253.123 159.803 257.156L172.918 262.379" stroke="black" style="stroke:black;stroke-opacity:1;" stroke-width="8" stroke-linecap="round" stroke-linejoin="round"/>
<path d="M136.019 186.87C125.409 182.585 113.097 186.948 106.326 196.165C99.5461 205.373 98.6949 218.169 102.699 228.876C106.703 239.592 121.231 251.508 131.928 259.091" stroke="black" style="stroke:black;stroke-opacity:1;" stroke-width="8" stroke-linecap="round" stroke-linejoin="round"/>
<path d="M178.76 113.392C179.456 112.299 180.162 111.216 180.888 110.152C186.855 101.389 194.003 93.4966 202.534 87.2485C221.965 72.9919 247.731 68.3203 271.311 73.2337C286.129 76.3288 300.395 83.1862 310.841 94.1252C325.755 109.736 331.635 132.243 331.336 153.811C331.229 161.017 330.649 168.31 329.701 175.612C326.142 203.061 330.736 231.506 344.867 255.3C357.808 277.081 369.492 297.74 391.418 316.562C398.276 322.452 405.539 328.594 408.692 337.076C410.356 341.554 410.578 346.468 409.582 351.13C408.093 358.161 403.847 364.641 397.647 368.307C397.337 368.491 397.028 368.665 396.709 368.839C392.463 371.083 386.292 370.474 380.508 368.975C376.543 367.949 371.977 373.472 373.718 377.186C374.173 378.153 374.55 379.072 374.831 379.923C375.421 381.703 375.904 383.512 376.262 385.349C377.384 390.785 377.529 396.404 376.649 401.879C374.386 415.71 365.487 428.303 353.204 435.054C333.115 446.089 307.465 440.721 292.812 428.196C290.51 426.233 288.392 424.134 286.399 421.977" stroke="black" style="stroke:black;stroke-opacity:1;" stroke-width="8" stroke-linecap="round" stroke-linejoin="round"/>
<path d="M153.584 180.178C158.265 163.155 162.995 144.681 170.452 128.674C172.541 124.186 174.872 119.766 177.454 115.52C177.658 115.172 177.87 114.824 178.083 114.485" stroke="black" style="stroke:black;stroke-opacity:1;" stroke-width="8" stroke-linecap="round" stroke-linejoin="round"/>
<path d="M355.051 359.825C341.665 348.354 329.817 335.084 319.961 320.46" stroke="black" style="stroke:black;stroke-opacity:1;" stroke-width="6" stroke-linecap="round" stroke-linejoin="round"/>
<path d="M201.644 397.836C190.192 391.762 177.696 395.099 166.679 399.944C155.663 404.8 142.635 408.62 132.083 399.896C125.689 394.605 121.608 385.756 116.791 378.095C111.974 370.435 105.156 363.229 98.0081 364.119C94.4584 364.555 90.8701 366.953 87.4559 364.961C82.794 362.224 82.3684 353.964 82.8037 347.619C84.6897 319.831 120.389 288.455 133.466 259.778C135.826 254.613 137.441 249.535 138.002 244.583" stroke="black" style="stroke:black;stroke-opacity:1;" stroke-width="8" stroke-linecap="round" stroke-linejoin="round"/>
<path d="M201.662 397.807C209.825 402.459 217.698 411.502 226.074 419.249C242.942 434.87 268.67 435.914 286.041 421.958" stroke="black" style="stroke:black;stroke-opacity:1;" stroke-width="8" stroke-linecap="round" stroke-linejoin="round"/>
<path d="M122.228 351.962C121.667 341.419 122.44 330.809 124.549 320.46" stroke="black" style="stroke:black;stroke-opacity:1;" stroke-width="6" stroke-linecap="round" stroke-linejoin="round"/>
<path d="M259.764 395.834C270.635 398.474 277.667 411.125 287.958 422.248" stroke="black" style="stroke:black;stroke-opacity:1;" stroke-width="6" stroke-linecap="round" stroke-linejoin="round"/>
<path d="M164.764 260.28C162.781 266.258 161.369 272.573 162.114 278.831C162.859 285.079 166.07 291.298 171.544 294.413C178.053 298.117 186.391 296.782 193.074 293.388C199.748 290.002 205.309 284.818 211.944 280.737C213.811 293.068 219.701 304.839 228.87 313.283C238.049 321.717 250.506 326.65 262.964 326.166C275.412 325.673 287.666 319.608 295.549 309.714" stroke="black" style="stroke:black;stroke-opacity:1;" stroke-width="8" stroke-linecap="round" stroke-linejoin="round"/>
<path d="M275.27 130.724C275.318 133.171 274.961 135.676 273.839 137.842C272.707 140.009 270.744 141.818 268.355 142.388C265.298 143.114 261.981 141.634 260.008 139.187C258.025 136.73 257.27 133.471 257.338 130.318C257.396 127.861 257.957 125.346 259.36 123.315C260.762 121.284 263.083 119.814 265.55 119.824C268.258 119.205 271.217 120.607 272.91 122.832C274.612 125.046 275.222 127.929 275.27 130.724Z" fill="#BCBBFF" fill-opacity="0.4" style="fill:#BCBBFF;fill:color(display-p3 0.7373 0.7333 1.0000);fill-opacity:0.4;"/>
<path d="M7.66979 51.1415C11.7455 14.2154 62.3277 13.7814 68.9285 41.5851C62.2599 13.4957 107.71 -8.56778 127.948 22.5859C150.485 57.2855 86.7024 116.451 86.7024 116.451C86.7024 116.451 3.13464 92.2682 7.66979 51.1415Z" fill="#6E6CE7" fill-opacity="0.4" style="fill:#6E6CE7;fill:color(display-p3 0.4320 0.4249 0.9051);fill-opacity:0.4;"/>
<path d="M6.88906 47.8529C12.2131 16.185 62.3934 14.0584 67.9747 37.5673C62.3361 13.8168 108.177 -6.59819 127.167 19.2974C143.418 41.4625 108.611 77.7327 91.6227 93.34C86.2773 98.2506 78.9012 100.002 71.9191 98.0177C49.7286 91.7119 2.33552 74.9569 6.88906 47.8529Z" fill="white" fill-opacity="0.5" style="fill:white;fill-opacity:0.5;"/>
<path d="M7.66979 51.1415C11.7455 14.2154 62.3277 13.7814 68.9285 41.5851C62.2599 13.4957 107.71 -8.56778 127.948 22.5859C144.514 48.0913 114.443 86.8152 97.344 105.545C90.9551 112.544 81.1472 114.872 72.2945 111.492C48.6022 102.446 4.33632 81.3709 7.66979 51.1415Z" stroke="black" style="stroke:black;stroke-opacity:1;" stroke-width="8" stroke-linecap="round" stroke-linejoin="round"/>
<ellipse cx="12.4847" cy="7.36214" rx="12.4847" ry="7.36214" transform="matrix(-0.832058 0.554688 0.554688 0.832058 37.6348 28.1787)" fill="white" fill-opacity="0.5" style="fill:white;fill-opacity:0.5;"/>
<ellipse cx="6.33323" cy="3.92625" rx="6.33323" ry="3.92625" transform="matrix(-0.832058 0.554688 0.554688 0.832058 29.4375 51.1104)" fill="white" fill-opacity="0.5" style="fill:white;fill-opacity:0.5;"/>
<path d="M18.0615 111.621C18.6404 110.207 20.6424 110.207 21.2213 111.621L23.4812 117.14C24.1747 118.834 25.5193 120.179 27.2133 120.873L32.7326 123.132C34.1464 123.711 34.1464 125.713 32.7327 126.292L27.2129 128.552C25.519 129.246 24.1744 130.59 23.4809 132.284L21.2213 137.803C20.6424 139.217 18.6404 139.217 18.0615 137.803L15.8018 132.284C15.1083 130.59 13.7637 129.245 12.0698 128.552L6.55054 126.292C5.1368 125.713 5.1368 123.711 6.55054 123.132L12.0694 120.873C13.7633 120.179 15.1079 118.835 15.8015 117.141L18.0615 111.621Z" fill="white" fill-opacity="0.75" style="fill:white;fill-opacity:0.75;"/>
<path d="M59.792 127.973C60.2735 126.797 61.939 126.797 62.4206 127.973L64.3006 132.565C64.8776 133.974 65.9961 135.092 67.4053 135.669L71.9968 137.549C73.1729 138.031 73.1729 139.696 71.9968 140.178L67.405 142.058C65.9958 142.635 64.8773 143.753 64.3003 145.163L62.4206 149.754C61.939 150.93 60.2735 150.93 59.792 149.754L57.9121 145.162C57.3352 143.753 56.2166 142.635 54.8075 142.058L50.216 140.178C49.04 139.696 49.04 138.031 50.216 137.549L54.8072 135.669C56.2164 135.092 57.3349 133.974 57.9119 132.565L59.792 127.973Z" fill="white" fill-opacity="0.75" style="fill:white;fill-opacity:0.75;"/>
<path d="M124.612 111.329C125.032 110.304 126.484 110.304 126.903 111.329L128.542 115.332C129.045 116.56 130.02 117.535 131.248 118.038L135.251 119.677C136.276 120.097 136.276 121.548 135.251 121.968L131.248 123.607C130.02 124.11 129.045 125.085 128.542 126.313L126.903 130.315C126.484 131.34 125.032 131.34 124.612 130.315L122.973 126.313C122.471 125.085 121.496 124.11 120.267 123.607L116.265 121.968C115.24 121.548 115.24 120.097 116.265 119.677L120.267 118.038C121.495 117.535 122.47 116.56 122.973 115.332L124.612 111.329Z" fill="white" fill-opacity="0.75" style="fill:white;fill-opacity:0.75;"/>
<path d="M36.7675 156.409C37.0999 155.597 38.2495 155.597 38.5819 156.409L39.8796 159.578C40.2778 160.551 41.0499 161.323 42.0226 161.721L45.1919 163.019C46.0037 163.351 46.0037 164.501 45.1919 164.833L42.0224 166.131C41.0497 166.529 40.2776 167.301 39.8794 168.274L38.5819 171.443C38.2495 172.255 37.0999 172.255 36.7675 171.443L35.4699 168.274C35.0717 167.301 34.2996 166.529 33.3269 166.131L30.1577 164.833C29.3459 164.501 29.3459 163.351 30.1577 163.019L33.3267 161.721C34.2994 161.323 35.0715 160.551 35.4697 159.578L36.7675 156.409Z" fill="white" fill-opacity="0.75" style="fill:white;fill-opacity:0.75;"/>
<path d="M99.3847 164.535C99.7171 163.723 100.867 163.723 101.199 164.535L102.497 167.704C102.895 168.677 103.667 169.449 104.64 169.847L107.809 171.145C108.621 171.477 108.621 172.627 107.809 172.959L104.64 174.257C103.667 174.655 102.895 175.427 102.497 176.4L101.199 179.569C100.867 180.381 99.7171 180.381 99.3847 179.569L98.0871 176.4C97.6889 175.427 96.9168 174.655 95.9441 174.257L92.7749 172.959C91.9631 172.627 91.9631 171.477 92.7749 171.145L95.9439 169.847C96.9166 169.449 97.6887 168.677 98.0869 167.704L99.3847 164.535Z" fill="white" fill-opacity="0.75" style="fill:white;fill-opacity:0.75;"/>
</svg>
