<svg width="374" height="520" viewBox="0 0 374 520" fill="none" xmlns="http://www.w3.org/2000/svg">
<ellipse cx="206.077" cy="510.705" rx="139.778" ry="9.19141" fill="black" fill-opacity="0.15" style="fill:black;fill-opacity:0.15;"/>
<path d="M267.57 459.226C267.754 459.255 267.948 459.293 268.131 459.332C268.083 459.351 268.025 459.361 267.986 459.38C267.851 459.322 267.706 459.274 267.57 459.226Z" fill="black" style="fill:black;fill-opacity:1;"/>
<path d="M213.378 136.345C214.123 138.638 214.103 141.394 213.262 144.093H213.252C212.401 146.801 210.824 149.064 208.909 150.515C206.985 151.966 204.596 152.672 202.274 151.937H202.265C199.934 151.202 198.386 149.258 197.651 146.965C196.906 144.673 196.926 141.917 197.767 139.218H197.777C198.628 136.5 200.205 134.237 202.129 132.796C204.044 131.345 206.433 130.639 208.755 131.374C211.095 132.109 212.643 134.063 213.378 136.345Z" fill="black" style="fill:black;fill-opacity:1;"/>
<path d="M172.902 132.438C173.057 134.546 172.525 136.926 171.364 139.14C170.194 141.365 168.559 143.106 166.799 144.083C165.038 145.069 163.027 145.35 161.324 144.354C159.622 143.357 158.781 141.404 158.636 139.305C158.481 137.206 159.013 134.817 160.173 132.602C161.344 130.387 162.978 128.646 164.739 127.669C166.499 126.683 168.511 126.402 170.213 127.399C171.915 128.395 172.757 130.349 172.902 132.438Z" fill="black" style="fill:black;fill-opacity:1;"/>
<path d="M138.419 140.91C138.187 141.268 137.965 141.636 137.732 142.003C137.907 141.616 138.129 141.249 138.419 140.91Z" fill="black" style="fill:black;fill-opacity:1;"/>
<path d="M98.1263 271.492L97.6523 272.102C97.0913 277.054 95.4761 282.131 93.1162 287.296L91.5783 286.61C80.8811 279.027 66.3537 267.111 62.3495 256.394C58.3453 245.687 59.1964 232.891 65.9765 223.684C72.7469 214.466 85.0594 210.104 95.6696 214.389C92.7583 216.652 90.2436 219.476 88.1834 222.523C83.773 229.1 81.2389 237.099 82.0127 244.981C82.9412 254.353 88.4543 262.807 95.4084 269.161C96.2886 269.964 97.1977 270.738 98.1263 271.492Z" fill="white" style="fill:white;fill-opacity:1;"/>
<path d="M46.3131 373.261C45.8875 371.801 45.6457 370.282 45.5684 368.754C45.6167 368.387 45.6941 368.029 45.7811 367.661C45.7328 369.663 45.9166 371.53 46.3131 373.261Z" fill="black" style="fill:black;fill-opacity:1;"/>
<path d="M42.4541 375.137C44.3401 347.35 80.0395 315.974 93.116 287.296C95.476 282.131 97.0912 277.054 97.6522 272.101L98.1261 271.492C97.1976 270.738 96.2884 269.964 95.4083 269.161C88.4541 262.807 82.9411 254.353 82.0126 244.981C81.2388 237.099 83.7729 229.1 88.1833 222.523C90.2434 219.476 92.7582 216.652 95.6694 214.389C98.9966 211.768 102.817 209.862 106.986 209.127C108.417 208.876 109.849 208.769 111.29 208.769L113.234 207.696C117.915 190.673 122.645 172.199 130.102 156.192C132.191 151.704 134.522 147.284 137.104 143.038C137.095 144.228 137.443 145.427 138.149 146.385C139.764 148.58 142.878 149.422 145.49 148.667C148.121 147.903 150.2 145.727 151.216 143.193C152.019 141.162 152.193 138.831 151.419 136.78C150.645 134.74 148.865 133.037 146.738 132.602C144.832 132.215 144.3 134.295 140.538 137.67C146.505 128.907 153.653 121.015 162.184 114.767C181.615 100.51 207.381 95.8389 230.961 100.752C245.779 103.847 260.045 110.705 270.491 121.644C285.405 137.254 291.286 159.761 290.986 181.33C290.879 188.535 290.299 195.828 289.351 203.13C285.792 230.58 290.386 259.025 304.517 282.818C317.458 304.599 329.142 325.259 351.068 344.081C357.926 349.971 365.189 356.112 368.343 364.595C370.006 369.073 370.229 373.986 369.232 378.648C367.743 385.68 363.497 392.16 357.297 395.826C356.988 396.01 356.678 396.184 356.359 396.358C352.113 398.602 345.942 397.992 340.158 396.493C336.193 395.468 331.628 400.991 333.369 404.705C333.823 405.672 334.2 406.591 334.481 407.442C335.071 409.221 335.554 411.03 335.912 412.868C337.034 418.303 337.179 423.923 336.299 429.397C334.036 443.228 325.138 455.821 312.854 462.572C292.765 473.608 267.115 468.24 252.462 455.715C250.16 453.751 248.042 451.653 246.05 449.496L245.692 449.476C228.321 463.433 202.593 462.388 185.725 446.768C177.349 439.021 169.476 429.978 161.313 425.325L161.294 425.354C149.842 419.28 137.346 422.617 126.33 427.463C115.313 432.318 102.285 436.139 91.7329 427.414C85.3397 422.124 81.2581 413.274 76.4415 405.614C71.6248 397.954 64.8061 390.748 57.6585 391.638C54.1088 392.073 50.5205 394.472 47.1063 392.479C42.4444 389.742 42.0188 381.482 42.4541 375.137ZM268.131 459.332C267.947 459.293 267.754 459.255 267.57 459.226C267.705 459.274 267.85 459.322 267.986 459.38C268.025 459.361 268.083 459.351 268.131 459.332ZM213.262 144.093C214.103 141.394 214.122 138.638 213.378 136.345C212.643 134.063 211.095 132.109 208.754 131.374C206.433 130.639 204.044 131.345 202.129 132.796C200.204 134.237 198.628 136.5 197.777 139.208H197.767C196.926 141.916 196.906 144.673 197.651 146.965C198.386 149.257 199.934 151.201 202.265 151.937H202.274C204.596 152.672 206.985 151.966 208.909 150.515C210.824 149.064 212.401 146.801 213.252 144.093H213.262ZM171.363 139.14C172.523 136.926 173.055 134.546 172.9 132.438C172.755 130.349 171.914 128.395 170.212 127.399C168.509 126.402 166.498 126.683 164.737 127.669C162.977 128.646 161.342 130.387 160.172 132.602C159.011 134.817 158.479 137.206 158.634 139.305C158.779 141.404 159.621 143.357 161.323 144.354C163.025 145.35 165.037 145.069 166.797 144.083C168.558 143.106 170.192 141.365 171.363 139.14Z" fill="white" style="fill:white;fill-opacity:1;"/>
<path d="M356.241 358.143C356.676 356.431 356.889 354.767 357.392 353.229C357.789 352.233 358.098 351.237 359.201 351.092C360.613 350.976 363.166 352.901 365.478 356.025C368.95 360.667 370.488 366.528 369.569 372.409C368.302 380.698 363.543 389.229 355.845 392.933C351.918 395.022 342.606 395.654 338.641 397.279C324.065 404.194 350.235 432.453 321.76 457.087C310.715 467.601 298.025 471.121 283.227 468.858C274.455 467.843 266.253 464.399 258.496 460.376C254.985 458.528 251.571 456.72 248.079 455.859C240.748 453.741 233.571 456.875 226.443 458.857C218.231 460.985 209.41 460.482 201.47 457.532C186.672 451.932 176.98 437.966 164.068 429.319C155.46 423.39 144.463 422.142 134.481 424.87C125.893 426.988 118.049 431.331 109.092 432.105C99.817 433.188 90.6479 429.483 84.7867 422.326C78.9254 415.604 75.3565 406.57 69.118 400.322C66.7 397.837 63.9048 395.786 60.7808 394.277C57.647 392.478 46.2695 391.502 46.2695 391.502C46.2695 391.502 51.9599 385.805 53.7395 385.002C57.2892 383.435 62.0091 383.135 65.9553 384.141C82.6298 388.184 87.6109 404.162 99.5558 412.906C112.952 422.094 128.552 412.393 141.465 406.89C150.508 402.895 161.012 401.647 170.161 405.99C182.967 411.503 192.494 423.39 205.861 427.385C212.341 429.048 217.912 425.489 223.145 421.92C228.01 418.564 233.697 416.049 239.684 416.813C256.078 418.235 268.013 440.819 285.751 442.251C297.938 443.16 304.796 432.859 305.898 421.785C307.397 411.929 304.177 401.183 306.372 392.14C308.945 380.843 319.971 373.869 330.929 372.448C341.549 370.842 353.987 370.649 356.222 358.298L356.26 358.133L356.241 358.143Z" fill="#BCBBFF" fill-opacity="0.4" style="fill:#BCBBFF;fill:color(display-p3 0.7373 0.7333 1.0000);fill-opacity:0.4;"/>
<path d="M151.418 136.78C152.192 138.831 152.018 141.161 151.215 143.193C150.2 145.727 148.12 147.903 145.489 148.667C142.878 149.421 139.764 148.58 138.148 146.384C137.442 145.427 137.094 144.228 137.104 143.038C137.307 142.69 137.52 142.341 137.732 142.003C137.965 141.635 138.187 141.268 138.419 140.91C139.115 139.817 139.822 138.734 140.547 137.67C144.309 134.294 144.841 132.215 146.747 132.602C148.875 133.037 150.654 134.739 151.428 136.78H151.418Z" fill="#BCBBFF" fill-opacity="0.4" style="fill:#BCBBFF;fill:color(display-p3 0.7373 0.7333 1.0000);fill-opacity:0.4;"/>
<path d="M182.041 235.028C164.351 227.049 146.632 219.06 128.352 212.56C123.438 210.819 118.322 209.165 113.167 208.827C112.538 208.788 111.919 208.769 111.29 208.769C109.849 208.769 108.418 208.875 106.986 209.126C102.818 209.861 98.9972 211.767 95.67 214.388C92.7587 216.651 90.244 219.475 88.1839 222.522C83.7734 229.099 81.2394 237.098 82.0131 244.981C82.9416 254.353 88.4547 262.806 95.4089 269.161C96.289 269.963 97.1982 270.737 98.1267 271.491C104.501 276.666 111.861 280.641 119.453 284.674L132.569 289.897" stroke="black" style="stroke:black;stroke-opacity:1;" stroke-width="8" stroke-linecap="round" stroke-linejoin="round"/>
<path d="M95.6696 214.389C85.0594 210.104 72.7469 214.466 65.9765 223.684C59.1964 232.891 58.3453 245.687 62.3495 256.394C66.3537 267.111 80.8811 279.027 91.5783 286.61" stroke="black" style="stroke:black;stroke-opacity:1;" stroke-width="8" stroke-linecap="round" stroke-linejoin="round"/>
<path d="M138.41 140.91C139.107 139.818 139.813 138.734 140.538 137.67C146.506 128.907 153.653 121.015 162.184 114.767C181.615 100.51 207.381 95.8389 230.962 100.752C245.779 103.847 260.045 110.705 270.491 121.644C285.405 137.254 291.286 159.761 290.986 181.33C290.88 188.535 290.299 195.828 289.351 203.13C285.792 230.58 290.386 259.025 304.517 282.818C317.458 304.599 329.142 325.259 351.068 344.081C357.926 349.971 365.19 356.112 368.343 364.595C370.006 369.073 370.229 373.986 369.232 378.648C367.743 385.68 363.497 392.16 357.297 395.826C356.988 396.01 356.678 396.184 356.359 396.358C352.113 398.602 345.942 397.992 340.158 396.493C336.193 395.468 331.628 400.991 333.369 404.705C333.823 405.672 334.2 406.591 334.481 407.442C335.071 409.221 335.555 411.03 335.912 412.868C337.034 418.303 337.179 423.923 336.299 429.397C334.036 443.228 325.138 455.821 312.854 462.572C292.766 473.608 267.115 468.24 252.462 455.715C250.16 453.751 248.042 451.653 246.05 449.496" stroke="black" style="stroke:black;stroke-opacity:1;" stroke-width="8" stroke-linecap="round" stroke-linejoin="round"/>
<path d="M113.234 207.696C117.916 190.673 122.645 172.2 130.102 156.193C132.192 151.705 134.522 147.285 137.105 143.039C137.308 142.691 137.521 142.342 137.734 142.004" stroke="black" style="stroke:black;stroke-opacity:1;" stroke-width="8" stroke-linecap="round" stroke-linejoin="round"/>
<path d="M314.701 387.344C301.315 375.873 289.467 362.603 279.611 347.979" stroke="black" style="stroke:black;stroke-opacity:1;" stroke-width="6" stroke-linecap="round" stroke-linejoin="round"/>
<path d="M161.294 425.354C149.842 419.28 137.346 422.617 126.33 427.463C115.313 432.318 102.285 436.139 91.7329 427.415C85.3397 422.124 81.2581 413.274 76.4415 405.614C71.6248 397.954 64.8061 390.748 57.6585 391.638C54.1088 392.073 50.5205 394.472 47.1063 392.479C42.4444 389.742 42.0188 381.482 42.4541 375.137C44.3401 347.35 80.0395 315.974 93.116 287.296C95.476 282.131 97.0912 277.054 97.6522 272.102" stroke="black" style="stroke:black;stroke-opacity:1;" stroke-width="8" stroke-linecap="round" stroke-linejoin="round"/>
<path d="M161.312 425.325C169.476 429.977 177.349 439.021 185.725 446.768C202.593 462.388 228.32 463.433 245.691 449.476" stroke="black" style="stroke:black;stroke-opacity:1;" stroke-width="8" stroke-linecap="round" stroke-linejoin="round"/>
<path d="M81.878 379.48C81.317 368.938 82.0908 358.328 84.1993 347.979" stroke="black" style="stroke:black;stroke-opacity:1;" stroke-width="6" stroke-linecap="round" stroke-linejoin="round"/>
<path d="M219.414 423.353C230.285 425.993 237.317 438.644 247.608 449.767" stroke="black" style="stroke:black;stroke-opacity:1;" stroke-width="6" stroke-linecap="round" stroke-linejoin="round"/>
<path d="M124.415 287.799C122.432 293.776 121.02 300.092 121.764 306.35C122.509 312.598 125.72 318.817 131.195 321.931C137.704 325.636 146.041 324.301 152.725 320.906C159.398 317.521 164.96 312.337 171.595 308.255C173.461 320.587 179.352 332.358 188.521 340.801C197.699 349.235 210.157 354.168 222.614 353.685C235.062 353.191 247.317 347.127 255.199 337.232" stroke="black" style="stroke:black;stroke-opacity:1;" stroke-width="8" stroke-linecap="round" stroke-linejoin="round"/>
<path d="M234.92 158.242C234.969 160.689 234.611 163.195 233.489 165.361C232.357 167.528 230.394 169.336 228.005 169.907C224.949 170.632 221.631 169.152 219.658 166.705C217.675 164.249 216.921 160.989 216.989 157.836C217.047 155.38 217.608 152.865 219.01 150.834C220.412 148.803 222.734 147.332 225.2 147.342C227.908 146.723 230.868 148.126 232.56 150.35C234.263 152.565 234.872 155.447 234.92 158.242Z" fill="#BCBBFF" fill-opacity="0.4" style="fill:#BCBBFF;fill:color(display-p3 0.7373 0.7333 1.0000);fill-opacity:0.4;"/>
<path d="M13.5264 108.918C14.1052 107.504 16.1073 107.504 16.6861 108.918L18.946 114.437C19.6396 116.131 20.9842 117.476 22.6781 118.169L28.1975 120.429C29.6112 121.008 29.6113 123.01 28.1975 123.589L22.6777 125.849C20.9838 126.543 19.6393 127.887 18.9457 129.581L16.6861 135.1C16.1073 136.514 14.1052 136.514 13.5264 135.1L11.2667 129.581C10.5731 127.887 9.22853 126.542 7.53461 125.849L2.01538 123.589C0.601642 123.01 0.601643 121.008 2.01539 120.429L7.53428 118.17C9.22819 117.476 10.5728 116.131 11.2663 114.438L13.5264 108.918Z" fill="white" fill-opacity="0.75" style="fill:white;fill-opacity:0.75;"/>
<path d="M52.206 136.121C52.6876 134.945 54.3531 134.945 54.8346 136.121L56.7146 140.713C57.2916 142.122 58.4102 143.241 59.8194 143.818L64.4109 145.698C65.587 146.179 65.587 147.845 64.4109 148.326L59.819 150.206C58.4099 150.783 57.2913 151.902 56.7144 153.311L54.8346 157.902C54.3531 159.078 52.6876 159.078 52.206 157.902L50.3262 153.311C49.7492 151.902 48.6307 150.783 47.2215 150.206L42.6301 148.326C41.454 147.845 41.454 146.179 42.6301 145.698L47.2213 143.818C48.6304 143.241 49.749 142.122 50.3259 140.713L52.206 136.121Z" fill="white" fill-opacity="0.75" style="fill:white;fill-opacity:0.75;"/>
<path d="M96.7859 137.076C97.2056 136.05 98.6574 136.05 99.0771 137.076L100.716 141.078C101.219 142.306 102.194 143.281 103.422 143.784L107.424 145.423C108.45 145.843 108.45 147.294 107.424 147.714L103.422 149.353C102.194 149.856 101.219 150.831 100.716 152.059L99.0771 156.061C98.6574 157.086 97.2056 157.086 96.7859 156.061L95.1473 152.059C94.6443 150.831 93.6693 149.856 92.441 149.353L88.4388 147.714C87.4136 147.294 87.4136 145.843 88.4388 145.423L92.4408 143.784C93.6691 143.281 94.6441 142.306 95.147 141.078L96.7859 137.076Z" fill="white" fill-opacity="0.75" style="fill:white;fill-opacity:0.75;"/>
<path d="M80.7948 170.701C81.1272 169.889 82.2768 169.889 82.6092 170.701L83.9069 173.87C84.3052 174.843 85.0773 175.615 86.0499 176.013L89.2193 177.311C90.0311 177.643 90.0311 178.793 89.2193 179.125L86.0497 180.423C85.077 180.821 84.305 181.593 83.9067 182.566L82.6092 185.735C82.2768 186.547 81.1272 186.547 80.7948 185.735L79.4973 182.566C79.099 181.593 78.3269 180.821 77.3543 180.423L74.185 179.125C73.3732 178.793 73.3732 177.643 74.185 177.311L77.3541 176.013C78.3267 175.615 79.0988 174.843 79.4971 173.87L80.7948 170.701Z" fill="white" fill-opacity="0.75" style="fill:white;fill-opacity:0.75;"/>
<path d="M24.3386 148.434C24.6102 147.771 25.5497 147.771 25.8213 148.434L26.8818 151.024C27.2073 151.819 27.8382 152.45 28.6331 152.776L31.2231 153.836C31.8866 154.108 31.8866 155.047 31.2231 155.319L28.633 156.379C27.8381 156.705 27.2071 157.336 26.8817 158.13L25.8213 160.72C25.5497 161.384 24.6102 161.384 24.3386 160.72L23.2782 158.13C22.9528 157.335 22.3218 156.705 21.5269 156.379L18.937 155.319C18.2736 155.047 18.2736 154.108 18.937 153.836L21.5268 152.776C22.3217 152.45 22.9526 151.819 23.2781 151.024L24.3386 148.434Z" fill="white" fill-opacity="0.75" style="fill:white;fill-opacity:0.75;"/>
<path d="M84.3856 102.707L124.299 84.9711L124.683 84.9788C124.644 86.4055 124.097 87.8301 123.005 88.9702L85.8477 127.86C84.403 129.374 82.4504 129.954 80.593 129.693L84.3856 102.707Z" fill="#6E6CE7" fill-opacity="0.4" style="fill:#6E6CE7;fill:color(display-p3 0.4320 0.4249 0.9051);fill-opacity:0.4;"/>
<path d="M50.8999 74.6559L84.3856 102.707L80.593 129.693C78.7431 129.433 77.011 128.335 76.0396 126.481L51.0485 78.8578C50.3132 77.4609 50.1803 75.9408 50.5287 74.5576L50.8999 74.6559Z" fill="#E0DFFF" fill-opacity="0.4" style="fill:#E0DFFF;fill:color(display-p3 0.8777 0.8759 1.0000);fill-opacity:0.4;"/>
<path d="M120.459 78.8642L121.336 79.3108C123.587 80.4433 124.762 82.7104 124.682 84.9783L124.298 84.9705L84.3849 102.707L50.8992 74.655L50.528 74.5567C51.0762 72.3546 52.8382 70.5002 55.314 70.032L56.2798 69.8443L56.7647 69.2426L82.9701 90.3114C83.8418 91.0114 84.8737 91.449 85.9459 91.5997C87.018 91.7504 88.123 91.6131 89.1539 91.1805L120.585 77.9732L120.885 78.6853L120.459 78.8642Z" fill="#020075" fill-opacity="0.4" style="fill:#020075;fill:color(display-p3 0.0067 0.0000 0.4578);fill-opacity:0.4;"/>
<path d="M127.648 73.0222L128.146 73.0923C127.669 74.8423 126.424 76.3613 124.624 77.1169L120.884 78.6857L120.584 77.9737L89.1534 91.1809C88.1225 91.6135 87.0175 91.7508 85.9454 91.6001L91.8613 49.5059L127.648 73.0222Z" fill="#6E6CE7" fill-opacity="0.4" style="fill:#6E6CE7;fill:color(display-p3 0.4320 0.4249 0.9051);fill-opacity:0.4;"/>
<path d="M56.7643 69.2436L56.2794 69.8454L52.7501 67.0164C51.228 65.7938 50.4573 63.9915 50.4726 62.1843L50.9709 62.2543L91.8615 49.5065L85.9455 91.6007C84.8733 91.45 83.8415 91.0124 82.9697 90.3124L56.7643 69.2436Z" fill="#E0DFFF" fill-opacity="0.4" style="fill:#E0DFFF;fill:color(display-p3 0.8777 0.8759 1.0000);fill-opacity:0.4;"/>
<path d="M127.872 69.1125C128.427 70.4224 128.493 71.8176 128.143 73.1005L127.645 73.0305L91.8599 49.5066L97.9531 6.15137C99.954 6.43257 101.826 7.68886 102.721 9.80893L127.872 69.1125Z" fill="#BCBBFF" fill-opacity="0.4" style="fill:#BCBBFF;fill:color(display-p3 0.7373 0.7333 1.0000);fill-opacity:0.4;"/>
<path d="M91.8618 49.5062L50.9723 62.2465L50.474 62.1764C50.4904 60.8544 50.9381 59.5314 51.8328 58.4252L92.3636 8.35264C93.8088 6.56153 95.9541 5.86977 97.955 6.15098L91.8618 49.5062Z" fill="white" fill-opacity="0.75" style="fill:white;fill-opacity:0.75;"/>
<path d="M50.4729 62.184C50.4904 60.8544 50.9381 59.5314 51.8328 58.4252L92.3636 8.35264C93.8088 6.56153 95.9541 5.86977 97.955 6.15098C99.9559 6.43219 101.827 7.68848 102.723 9.80855L127.874 69.1121C128.429 70.422 128.495 71.8172 128.145 73.1001C127.669 74.8427 126.424 76.3616 124.624 77.1173L120.885 78.686L120.459 78.8649L121.336 79.3115C123.587 80.444 124.762 82.7112 124.682 84.979C124.643 86.4057 124.096 87.8303 123.004 88.9704L85.847 127.86C84.4023 129.374 82.4497 129.954 80.5923 129.693C78.7349 129.432 77.0103 128.335 76.0389 126.481L51.0478 78.8576C50.3124 77.4607 50.1796 75.9406 50.528 74.5574C51.0762 72.3553 52.8382 70.501 55.314 70.0327L56.2797 69.8451L52.7505 67.0161C51.2284 65.7935 50.4576 63.9913 50.4729 62.184Z" stroke="black" style="stroke:black;stroke-opacity:1;" stroke-width="8" stroke-linecap="round" stroke-linejoin="round"/>
<path d="M56.4043 68.9541L56.764 69.2433L82.9694 90.3121C83.8412 91.0121 84.873 91.4497 85.9452 91.6004C87.0174 91.7511 88.1223 91.6138 89.1533 91.1812L120.584 77.974" stroke="black" style="stroke:black;stroke-opacity:1;" stroke-width="6" stroke-linecap="round" stroke-linejoin="round"/>
</svg>
