<svg width="402" height="520" viewBox="0 0 402 520" fill="none" xmlns="http://www.w3.org/2000/svg">
<ellipse cx="233.766" cy="510.712" rx="139.778" ry="9.19141" fill="black" fill-opacity="0.15" style="fill:black;fill-opacity:0.15;"/>
<path d="M295.262 459.233C295.445 459.262 295.639 459.301 295.823 459.34C295.774 459.359 295.716 459.369 295.678 459.388C295.542 459.33 295.397 459.282 295.262 459.233Z" fill="black" style="fill:black;fill-opacity:1;"/>
<path d="M241.069 136.353C241.814 138.646 241.795 141.402 240.953 144.101H240.944C240.092 146.809 238.516 149.072 236.601 150.523C234.676 151.974 232.287 152.68 229.966 151.945H229.956C227.625 151.209 226.078 149.265 225.343 146.973C224.598 144.681 224.617 141.924 225.459 139.226H225.468C226.319 136.508 227.896 134.245 229.821 132.804C231.736 131.353 234.125 130.647 236.446 131.382C238.787 132.117 240.334 134.071 241.069 136.353Z" fill="black" style="fill:black;fill-opacity:1;"/>
<path d="M200.593 132.446C200.748 134.554 200.216 136.933 199.055 139.148C197.885 141.373 196.25 143.114 194.49 144.091C192.73 145.077 190.718 145.358 189.016 144.362C187.314 143.365 186.472 141.412 186.327 139.313C186.172 137.214 186.704 134.825 187.865 132.61C189.035 130.395 190.67 128.654 192.43 127.677C194.19 126.691 196.202 126.41 197.904 127.406C199.607 128.403 200.448 130.356 200.593 132.446Z" fill="black" style="fill:black;fill-opacity:1;"/>
<path d="M166.111 140.918C165.878 141.276 165.656 141.643 165.424 142.011C165.598 141.624 165.82 141.256 166.111 140.918Z" fill="black" style="fill:black;fill-opacity:1;"/>
<path d="M125.818 271.5L125.344 272.109C124.783 277.061 123.168 282.139 120.808 287.304L119.27 286.617C108.572 279.035 94.0451 267.119 90.0409 256.402C86.0367 245.695 86.8878 232.899 93.6679 223.691C100.438 214.474 112.751 210.112 123.361 214.397C120.45 216.66 117.935 219.484 115.875 222.531C111.464 229.108 108.93 237.106 109.704 244.989C110.633 254.361 116.146 262.815 123.1 269.169C123.98 269.972 124.889 270.746 125.818 271.5Z" fill="white" style="fill:white;fill-opacity:1;"/>
<path d="M74.0045 373.269C73.5789 371.809 73.3371 370.29 73.2598 368.762C73.3081 368.394 73.3855 368.036 73.4725 367.669C73.4242 369.671 73.608 371.538 74.0045 373.269Z" fill="black" style="fill:black;fill-opacity:1;"/>
<path d="M70.1455 375.145C72.0315 347.357 107.731 315.981 120.807 287.304C123.167 282.139 124.783 277.061 125.344 272.109L125.818 271.5C124.889 270.746 123.98 269.972 123.1 269.169C116.146 262.814 110.632 254.361 109.704 244.989C108.93 237.106 111.464 229.108 115.875 222.531C117.935 219.484 120.45 216.66 123.361 214.396C126.688 211.775 130.508 209.87 134.677 209.135C136.109 208.883 137.54 208.777 138.981 208.777L140.925 207.703C145.606 190.681 150.336 172.207 157.793 156.2C159.882 151.712 162.213 147.292 164.796 143.046C164.786 144.236 165.134 145.435 165.84 146.393C167.455 148.588 170.57 149.43 173.181 148.675C175.812 147.911 177.892 145.735 178.907 143.201C179.71 141.17 179.884 138.839 179.11 136.788C178.336 134.748 176.557 133.045 174.429 132.61C172.524 132.223 171.992 134.303 168.229 137.678C174.197 128.915 181.344 121.023 189.875 114.775C209.306 100.518 235.072 95.8467 258.653 100.76C273.47 103.855 287.737 110.713 298.182 121.652C313.097 137.262 318.977 159.769 318.677 181.338C318.571 188.543 317.991 195.836 317.043 203.138C313.483 230.587 318.078 259.033 332.208 282.826C345.15 304.607 356.833 325.267 378.76 344.088C385.617 349.979 392.881 356.12 396.034 364.603C397.698 369.081 397.92 373.994 396.924 378.656C395.434 385.688 391.188 392.168 384.989 395.834C384.679 396.017 384.37 396.191 384.05 396.365C379.804 398.609 373.634 398 367.85 396.501C363.884 395.476 359.319 400.998 361.06 404.712C361.515 405.68 361.892 406.598 362.172 407.45C362.762 409.229 363.246 411.038 363.604 412.876C364.726 418.311 364.871 423.931 363.991 429.405C361.727 443.236 352.829 455.829 340.546 462.58C320.457 473.616 294.807 468.248 280.154 455.723C277.852 453.759 275.734 451.66 273.741 449.503L273.383 449.484C256.012 463.441 230.285 462.396 213.417 446.776C205.041 439.029 197.168 429.985 189.005 425.333L188.985 425.362C177.534 419.288 165.037 422.625 154.021 427.471C143.005 432.326 129.976 436.146 119.424 427.422C113.031 422.132 108.95 413.282 104.133 405.622C99.3162 397.961 92.4975 390.756 85.3499 391.646C81.8002 392.081 78.2119 394.479 74.7977 392.487C70.1358 389.75 69.7102 381.49 70.1455 375.145ZM295.822 459.34C295.639 459.301 295.445 459.263 295.261 459.234C295.397 459.282 295.542 459.33 295.677 459.388C295.716 459.369 295.774 459.359 295.822 459.34ZM240.953 144.1C241.795 141.402 241.814 138.645 241.069 136.353C240.334 134.07 238.787 132.117 236.446 131.382C234.125 130.647 231.736 131.353 229.821 132.803C227.896 134.245 226.319 136.508 225.468 139.216H225.459C224.617 141.924 224.598 144.681 225.342 146.973C226.078 149.265 227.625 151.209 229.956 151.944H229.966C232.287 152.679 234.676 151.973 236.601 150.523C238.516 149.072 240.092 146.808 240.943 144.1H240.953ZM199.054 139.148C200.215 136.933 200.747 134.554 200.592 132.446C200.447 130.356 199.605 128.403 197.903 127.406C196.201 126.41 194.189 126.691 192.429 127.677C190.668 128.654 189.034 130.395 187.863 132.61C186.703 134.825 186.171 137.214 186.326 139.313C186.471 141.412 187.312 143.365 189.014 144.361C190.717 145.358 192.728 145.077 194.489 144.091C196.249 143.114 197.884 141.373 199.054 139.148Z" fill="white" style="fill:white;fill-opacity:1;"/>
<path d="M383.932 358.151C384.368 356.439 384.58 354.775 385.083 353.237C385.48 352.241 385.789 351.245 386.892 351.1C388.304 350.984 390.858 352.908 393.169 356.032C396.641 360.675 398.179 366.536 397.26 372.417C395.993 380.706 391.235 389.236 383.536 392.941C379.609 395.03 370.297 395.661 366.332 397.286C351.756 404.202 377.926 432.461 349.452 457.095C338.406 467.609 325.717 471.129 310.919 468.866C302.146 467.85 293.944 464.407 286.187 460.384C282.676 458.536 279.262 456.728 275.77 455.867C268.439 453.749 261.262 456.882 254.134 458.865C245.923 460.993 237.102 460.49 229.161 457.54C214.363 451.94 204.672 437.974 191.759 429.327C183.151 423.398 172.154 422.15 162.173 424.878C153.584 426.996 145.74 431.339 136.784 432.112C127.508 433.196 118.339 429.491 112.478 422.334C106.617 415.612 103.048 406.578 96.8094 400.33C94.3914 397.844 91.5962 395.794 88.4722 394.285C85.3384 392.486 73.9609 391.509 73.9609 391.509C73.9609 391.509 79.6513 385.813 81.4309 385.01C84.9806 383.443 89.7005 383.143 93.6467 384.149C110.321 388.192 115.302 404.17 127.247 412.913C140.643 422.102 156.244 412.401 169.156 406.897C178.199 402.903 188.703 401.655 197.853 405.998C210.659 411.511 220.185 423.398 233.552 427.392C240.032 429.056 245.603 425.497 250.836 421.928C255.701 418.572 261.388 416.057 267.375 416.821C283.769 418.243 295.704 440.827 313.443 442.258C325.63 443.167 332.487 432.867 333.59 421.792C335.089 411.937 331.868 401.191 334.064 392.148C336.636 380.851 347.662 373.877 358.621 372.455C369.241 370.85 381.679 370.656 383.913 358.305L383.952 358.141L383.932 358.151Z" fill="black" fill-opacity="0.15" style="fill:black;fill-opacity:0.15;"/>
<path d="M179.11 136.788C179.883 138.838 179.709 141.169 178.907 143.2C177.891 145.734 175.812 147.911 173.181 148.675C170.569 149.429 167.455 148.588 165.84 146.392C165.134 145.435 164.785 144.235 164.795 143.046C164.998 142.697 165.211 142.349 165.424 142.011C165.656 141.643 165.878 141.276 166.111 140.918C166.807 139.825 167.513 138.742 168.238 137.678C172.001 134.302 172.533 132.223 174.438 132.61C176.566 133.045 178.346 134.747 179.119 136.788H179.11Z" fill="black" fill-opacity="0.15" style="fill:black;fill-opacity:0.15;"/>
<path d="M209.732 235.036C192.042 227.056 174.323 219.067 156.043 212.568C151.13 210.827 146.013 209.173 140.858 208.834C140.229 208.796 139.61 208.776 138.982 208.776C137.541 208.776 136.109 208.883 134.678 209.134C130.509 209.869 126.689 211.775 123.361 214.396C120.45 216.659 117.935 219.483 115.875 222.53C111.465 229.107 108.931 237.106 109.705 244.988C110.633 254.361 116.146 262.814 123.1 269.168C123.98 269.971 124.89 270.745 125.818 271.499C132.192 276.674 139.552 280.649 147.145 284.682L160.26 289.905" stroke="black" style="stroke:black;stroke-opacity:1;" stroke-width="8" stroke-linecap="round" stroke-linejoin="round"/>
<path d="M123.361 214.397C112.751 210.112 100.438 214.474 93.6679 223.691C86.8878 232.899 86.0367 245.695 90.0409 256.402C94.0451 267.119 108.572 279.035 119.27 286.617" stroke="black" style="stroke:black;stroke-opacity:1;" stroke-width="8" stroke-linecap="round" stroke-linejoin="round"/>
<path d="M166.102 140.918C166.798 139.825 167.504 138.742 168.229 137.678C174.197 128.915 181.345 121.023 189.875 114.775C209.306 100.518 235.073 95.8467 258.653 100.76C273.47 103.855 287.737 110.713 298.182 121.652C313.097 137.262 318.977 159.769 318.677 181.338C318.571 188.543 317.991 195.836 317.043 203.138C313.484 230.587 318.078 259.033 332.209 282.826C345.15 304.607 356.833 325.267 378.76 344.088C385.617 349.979 392.881 356.12 396.034 364.603C397.698 369.081 397.92 373.994 396.924 378.656C395.434 385.688 391.188 392.168 384.989 395.834C384.679 396.017 384.37 396.191 384.05 396.365C379.804 398.609 373.634 398 367.85 396.501C363.884 395.476 359.319 400.998 361.06 404.712C361.515 405.68 361.892 406.598 362.172 407.45C362.762 409.229 363.246 411.038 363.604 412.876C364.726 418.311 364.871 423.931 363.991 429.405C361.727 443.236 352.829 455.829 340.546 462.58C320.457 473.616 294.807 468.248 280.154 455.723C277.852 453.759 275.734 451.66 273.741 449.503" stroke="black" style="stroke:black;stroke-opacity:1;" stroke-width="8" stroke-linecap="round" stroke-linejoin="round"/>
<path d="M140.926 207.704C145.607 190.681 150.337 172.208 157.794 156.201C159.883 151.713 162.214 147.293 164.796 143.047C164.999 142.698 165.212 142.35 165.425 142.012" stroke="black" style="stroke:black;stroke-opacity:1;" stroke-width="8" stroke-linecap="round" stroke-linejoin="round"/>
<path d="M342.393 387.351C329.007 375.88 317.159 362.61 307.303 347.986" stroke="black" style="stroke:black;stroke-opacity:1;" stroke-width="6" stroke-linecap="round" stroke-linejoin="round"/>
<path d="M188.985 425.362C177.534 419.288 165.037 422.625 154.021 427.471C143.005 432.326 129.976 436.147 119.424 427.422C113.031 422.132 108.95 413.282 104.133 405.622C99.3162 397.961 92.4975 390.756 85.3499 391.646C81.8002 392.081 78.2119 394.48 74.7977 392.487C70.1358 389.75 69.7102 381.49 70.1455 375.145C72.0315 347.358 107.731 315.982 120.807 287.304C123.167 282.139 124.783 277.061 125.344 272.109" stroke="black" style="stroke:black;stroke-opacity:1;" stroke-width="8" stroke-linecap="round" stroke-linejoin="round"/>
<path d="M189.004 425.333C197.167 429.985 205.04 439.029 213.416 446.776C230.284 462.396 256.012 463.441 273.382 449.484" stroke="black" style="stroke:black;stroke-opacity:1;" stroke-width="8" stroke-linecap="round" stroke-linejoin="round"/>
<path d="M109.569 379.488C109.008 368.946 109.782 358.335 111.891 347.986" stroke="black" style="stroke:black;stroke-opacity:1;" stroke-width="6" stroke-linecap="round" stroke-linejoin="round"/>
<path d="M247.105 423.36C257.977 426.001 265.008 438.652 275.299 449.775" stroke="black" style="stroke:black;stroke-opacity:1;" stroke-width="6" stroke-linecap="round" stroke-linejoin="round"/>
<path d="M152.106 287.807C150.123 293.784 148.711 300.1 149.456 306.358C150.201 312.606 153.412 318.825 158.886 321.939C165.395 325.644 173.733 324.309 180.416 320.914C187.09 317.529 192.651 312.345 199.286 308.263C201.153 320.595 207.043 332.366 216.212 340.809C225.391 349.243 237.848 354.176 250.306 353.692C262.754 353.199 275.008 347.135 282.891 337.24" stroke="black" style="stroke:black;stroke-opacity:1;" stroke-width="8" stroke-linecap="round" stroke-linejoin="round"/>
<path d="M262.612 158.25C262.66 160.697 262.302 163.202 261.18 165.369C260.049 167.535 258.085 169.344 255.696 169.915C252.64 170.64 249.322 169.16 247.349 166.713C245.367 164.257 244.612 160.997 244.68 157.844C244.738 155.387 245.299 152.873 246.701 150.842C248.104 148.81 250.425 147.34 252.891 147.35C255.6 146.731 258.559 148.133 260.252 150.358C261.954 152.573 262.563 155.455 262.612 158.25Z" fill="black" fill-opacity="0.15" style="fill:black;fill-opacity:0.15;"/>
<path d="M13.4033 122.147C13.9822 120.733 15.9842 120.733 16.5631 122.147L18.823 127.667C19.5165 129.361 20.8611 130.705 22.5551 131.399L28.0744 133.659C29.4882 134.238 29.4882 136.24 28.0745 136.818L22.5547 139.078C20.8608 139.772 19.5162 141.117 18.8227 142.811L16.5631 148.329C15.9842 149.743 13.9822 149.743 13.4033 148.329L11.1436 142.81C10.4501 141.116 9.10549 139.772 7.41156 139.078L1.89234 136.818C0.478595 136.24 0.478596 134.238 1.89234 133.659L7.41123 131.399C9.10514 130.705 10.4497 129.361 11.1433 127.667L13.4033 122.147Z" fill="white" fill-opacity="0.75" style="fill:white;fill-opacity:0.75;"/>
<path d="M55.1357 138.499C55.6173 137.323 57.2828 137.323 57.7643 138.499L59.6443 143.091C60.2213 144.5 61.3399 145.619 62.749 146.196L67.3406 148.076C68.5167 148.557 68.5167 150.223 67.3406 150.704L62.7487 152.584C61.3396 153.161 60.221 154.28 59.6441 155.689L57.7643 160.28C57.2828 161.456 55.6173 161.456 55.1357 160.28L53.2559 155.689C52.6789 154.28 51.5604 153.161 50.1512 152.584L45.5598 150.704C44.3837 150.223 44.3837 148.557 45.5598 148.076L50.1509 146.196C51.5601 145.619 52.6786 144.5 53.2556 143.091L55.1357 138.499Z" fill="white" fill-opacity="0.75" style="fill:white;fill-opacity:0.75;"/>
<path d="M111.954 138.856C112.374 137.831 113.825 137.831 114.245 138.856L115.884 142.858C116.387 144.087 117.362 145.062 118.59 145.565L122.592 147.203C123.618 147.623 123.618 149.075 122.592 149.494L118.59 151.133C117.362 151.636 116.387 152.611 115.884 153.84L114.245 157.841C113.825 158.867 112.374 158.867 111.954 157.841L110.315 153.839C109.812 152.611 108.837 151.636 107.609 151.133L103.607 149.494C102.582 149.075 102.582 147.623 103.607 147.203L107.609 145.565C108.837 145.062 109.812 144.087 110.315 142.858L111.954 138.856Z" fill="white" fill-opacity="0.75" style="fill:white;fill-opacity:0.75;"/>
<path d="M32.1073 166.935C32.4397 166.123 33.5893 166.123 33.9217 166.935L35.2194 170.104C35.6177 171.077 36.3898 171.849 37.3624 172.248L40.5318 173.545C41.3436 173.878 41.3436 175.027 40.5318 175.36L37.3622 176.657C36.3895 177.056 35.6175 177.828 35.2192 178.8L33.9217 181.969C33.5893 182.781 32.4397 182.781 32.1073 181.969L30.8098 178.8C30.4115 177.827 29.6394 177.055 28.6668 176.657L25.4975 175.36C24.6857 175.027 24.6857 173.878 25.4975 173.545L28.6666 172.248C29.6392 171.849 30.4113 171.077 30.8096 170.105L32.1073 166.935Z" fill="white" fill-opacity="0.75" style="fill:white;fill-opacity:0.75;"/>
<path d="M86.7284 192.06C87.0608 191.248 88.2104 191.248 88.5428 192.06L89.8405 195.229C90.2388 196.202 91.0108 196.974 91.9835 197.373L95.1529 198.67C95.9647 199.003 95.9647 200.152 95.1529 200.485L91.9833 201.782C91.0106 202.181 90.2386 202.953 89.8403 203.925L88.5428 207.094C88.2104 207.906 87.0608 207.906 86.7284 207.094L85.4309 203.925C85.0326 202.952 84.2605 202.18 83.2879 201.782L80.1186 200.485C79.3068 200.152 79.3068 199.003 80.1186 198.67L83.2877 197.373C84.2603 196.974 85.0324 196.202 85.4307 195.23L86.7284 192.06Z" fill="white" fill-opacity="0.75" style="fill:white;fill-opacity:0.75;"/>
<path d="M83.8524 102.701L123.765 84.9652L124.149 84.973C124.111 86.3997 123.564 87.8243 122.472 88.9644L85.3145 127.854C83.8698 129.368 81.9172 129.948 80.0598 129.687L83.8524 102.701Z" fill="#525252" fill-opacity="0.4" style="fill:#525252;fill:color(display-p3 0.3235 0.3235 0.3235);fill-opacity:0.4;"/>
<path d="M50.3666 74.6501L83.8524 102.702L80.0598 129.687C78.2099 129.427 76.4778 128.329 75.5064 126.476L50.5153 78.8519C49.78 77.455 49.6471 75.9349 49.9955 74.5517L50.3666 74.6501Z" fill="black" fill-opacity="0.15" style="fill:black;fill-opacity:0.15;"/>
<path d="M119.926 78.8583L120.803 79.3049C123.054 80.4374 124.229 82.7046 124.149 84.9724L123.765 84.9647L83.8517 102.701L50.366 74.6492L49.9948 74.5508C50.543 72.3487 52.305 70.4944 54.7808 70.0261L55.7465 69.8385L56.2315 69.2368L82.4368 90.3056C83.3086 91.0056 84.3405 91.4432 85.4127 91.5938C86.4848 91.7445 87.5898 91.6072 88.6207 91.1746L120.051 77.9674L120.352 78.6794L119.926 78.8583Z" fill="black" fill-opacity="0.4" style="fill:black;fill-opacity:0.4;"/>
<path d="M127.114 73.0164L127.613 73.0864C127.136 74.8365 125.891 76.3554 124.09 77.1111L120.351 78.6799L120.051 77.9678L88.6202 91.1751C87.5893 91.6077 86.4843 91.7449 85.4122 91.5943L91.3281 49.5L127.114 73.0164Z" fill="#525252" fill-opacity="0.4" style="fill:#525252;fill:color(display-p3 0.3235 0.3235 0.3235);fill-opacity:0.4;"/>
<path d="M56.2311 69.2378L55.7462 69.8395L52.2169 67.0105C50.6948 65.7879 49.9241 63.9857 49.9394 62.1784L50.4377 62.2484L91.3283 49.5006L85.4123 91.5949C84.3401 91.4442 83.3083 91.0066 82.4365 90.3066L56.2311 69.2378Z" fill="black" fill-opacity="0.15" style="fill:black;fill-opacity:0.15;"/>
<path d="M127.339 69.1066C127.894 70.4166 127.96 71.8118 127.61 73.0947L127.112 73.0246L91.3267 49.5007L97.4199 6.14551C99.4208 6.42672 101.292 7.683 102.188 9.80307L127.339 69.1066Z" fill="black" fill-opacity="0.15" style="fill:black;fill-opacity:0.15;"/>
<path d="M91.3286 49.5003L50.4391 62.2406L49.9408 62.1706C49.9572 60.8485 50.4049 59.5255 51.2996 58.4193L91.8304 8.34678C93.2756 6.55567 95.4209 5.86392 97.4218 6.14512L91.3286 49.5003Z" fill="white" fill-opacity="0.75" style="fill:white;fill-opacity:0.75;"/>
<path d="M49.9397 62.1781C49.9572 60.8485 50.4049 59.5255 51.2996 58.4193L91.8304 8.34678C93.2756 6.55567 95.4209 5.86391 97.4218 6.14512C99.4227 6.42633 101.294 7.68262 102.19 9.80269L127.341 69.1062C127.896 70.4162 127.962 71.8114 127.612 73.0943C127.136 74.8368 125.891 76.3557 124.091 77.1114L120.352 78.6802L119.926 78.8591L120.803 79.3057C123.054 80.4382 124.229 82.7053 124.149 84.9732C124.11 86.3999 123.563 87.8245 122.471 88.9646L85.3138 127.854C83.8691 129.368 81.9165 129.948 80.0591 129.687C78.2017 129.426 76.4771 128.329 75.5057 126.475L50.5146 78.8517C49.7792 77.4548 49.6464 75.9347 49.9948 74.5515C50.543 72.3495 52.305 70.4951 54.7808 70.0269L55.7465 69.8392L52.2173 67.0102C50.6952 65.7876 49.9244 63.9854 49.9397 62.1781Z" stroke="black" style="stroke:black;stroke-opacity:1;" stroke-width="8" stroke-linecap="round" stroke-linejoin="round"/>
<path d="M55.8711 68.9482L56.2308 69.2375L82.4362 90.3063C83.308 91.0063 84.3398 91.4439 85.412 91.5946C86.4842 91.7453 87.5891 91.608 88.6201 91.1754L120.051 77.9681" stroke="black" style="stroke:black;stroke-opacity:1;" stroke-width="6" stroke-linecap="round" stroke-linejoin="round"/>
</svg>
