<svg width="414" height="493" viewBox="0 0 414 493" fill="none" xmlns="http://www.w3.org/2000/svg">
<ellipse cx="245.649" cy="483.162" rx="139.778" ry="9.19141" fill="black" fill-opacity="0.15" style="fill:black;fill-opacity:0.15;"/>
<path d="M307.145 431.684C307.328 431.713 307.522 431.751 307.706 431.79C307.657 431.809 307.599 431.819 307.56 431.838C307.425 431.78 307.28 431.732 307.145 431.684Z" fill="black" style="fill:black;fill-opacity:1;"/>
<path d="M252.952 108.803C253.697 111.096 253.677 113.852 252.836 116.551H252.826C251.975 119.259 250.399 121.522 248.484 122.973C246.559 124.424 244.17 125.13 241.849 124.395H241.839C239.508 123.66 237.96 121.716 237.225 119.423C236.481 117.131 236.5 114.375 237.341 111.676H237.351C238.202 108.958 239.779 106.695 241.704 105.254C243.619 103.803 246.008 103.097 248.329 103.832C250.669 104.567 252.217 106.521 252.952 108.803Z" fill="black" style="fill:black;fill-opacity:1;"/>
<path d="M212.476 104.896C212.631 107.004 212.099 109.384 210.938 111.598C209.768 113.823 208.133 115.564 206.373 116.541C204.613 117.527 202.601 117.808 200.899 116.812C199.196 115.815 198.355 113.862 198.21 111.763C198.055 109.664 198.587 107.275 199.748 105.06C200.918 102.845 202.553 101.104 204.313 100.128C206.073 99.141 208.085 98.8605 209.787 99.8567C211.489 100.853 212.331 102.807 212.476 104.896Z" fill="black" style="fill:black;fill-opacity:1;"/>
<path d="M177.993 113.368C177.761 113.726 177.539 114.094 177.307 114.461C177.481 114.074 177.703 113.707 177.993 113.368Z" fill="black" style="fill:black;fill-opacity:1;"/>
<path d="M137.7 243.95L137.227 244.56C136.666 249.512 135.05 254.589 132.69 259.754L131.153 259.068C120.455 251.485 105.928 239.569 101.924 228.852C97.9195 218.145 98.7707 205.349 105.551 196.142C112.321 186.924 124.634 182.562 135.244 186.847C132.333 189.11 129.818 191.934 127.758 194.981C123.347 201.558 120.813 209.557 121.587 217.439C122.515 226.811 128.028 235.265 134.983 241.619C135.863 242.422 136.772 243.196 137.7 243.95Z" fill="white" style="fill:white;fill-opacity:1;"/>
<path d="M85.8873 345.719C85.4618 344.259 85.22 342.74 85.1426 341.212C85.1909 340.845 85.2683 340.487 85.3554 340.119C85.307 342.121 85.4908 343.988 85.8873 345.719Z" fill="black" style="fill:black;fill-opacity:1;"/>
<path d="M82.0283 347.595C83.9143 319.808 119.614 288.432 132.69 259.754C135.05 254.589 136.665 249.512 137.226 244.559L137.7 243.95C136.772 243.196 135.863 242.422 134.983 241.619C128.028 235.265 122.515 226.811 121.587 217.439C120.813 209.557 123.347 201.558 127.758 194.981C129.818 191.934 132.332 189.11 135.244 186.847C138.571 184.226 142.391 182.32 146.56 181.585C147.991 181.334 149.423 181.227 150.864 181.227L152.808 180.154C157.489 163.131 162.219 144.657 169.676 128.65C171.765 124.162 174.096 119.742 176.679 115.496C176.669 116.686 177.017 117.885 177.723 118.843C179.338 121.038 182.453 121.88 185.064 121.125C187.695 120.361 189.774 118.185 190.79 115.651C191.593 113.62 191.767 111.289 190.993 109.238C190.219 107.198 188.44 105.495 186.312 105.06C184.406 104.673 183.874 106.753 180.112 110.128C186.08 101.365 193.227 93.4731 201.758 87.225C221.189 72.9685 246.955 68.2969 270.536 73.2103C285.353 76.3053 299.619 83.1628 310.065 94.1018C324.979 109.712 330.86 132.219 330.56 153.788C330.454 160.993 329.873 168.286 328.926 175.588C325.366 203.038 329.96 231.483 344.091 255.276C357.032 277.057 368.716 297.717 390.643 316.539C397.5 322.429 404.764 328.57 407.917 337.053C409.58 341.531 409.803 346.444 408.807 351.106C407.317 358.138 403.071 364.618 396.871 368.284C396.562 368.468 396.252 368.642 395.933 368.816C391.687 371.06 385.516 370.45 379.733 368.951C375.767 367.926 371.202 373.449 372.943 377.163C373.397 378.13 373.775 379.049 374.055 379.9C374.645 381.679 375.129 383.488 375.487 385.326C376.608 390.761 376.754 396.381 375.873 401.855C373.61 415.686 364.712 428.279 352.428 435.03C332.34 446.066 306.69 440.698 292.036 428.173C289.735 426.209 287.616 424.111 285.624 421.954L285.266 421.934C267.895 435.891 242.168 434.846 225.3 419.226C216.924 411.479 209.051 402.436 200.888 397.783L200.868 397.812C189.417 391.738 176.92 395.075 165.904 399.921C154.887 404.776 141.859 408.597 131.307 399.873C124.914 394.582 120.832 385.732 116.016 378.072C111.199 370.412 104.38 363.206 97.2327 364.096C93.6831 364.531 90.0947 366.93 86.6805 364.937C82.0186 362.2 81.593 353.94 82.0283 347.595ZM307.705 431.79C307.521 431.751 307.328 431.713 307.144 431.684C307.28 431.732 307.425 431.78 307.56 431.838C307.599 431.819 307.657 431.809 307.705 431.79ZM252.836 116.551C253.677 113.852 253.697 111.096 252.952 108.803C252.217 106.521 250.669 104.567 248.329 103.832C246.007 103.097 243.618 103.803 241.703 105.254C239.779 106.695 238.202 108.958 237.351 111.666H237.341C236.5 114.374 236.481 117.131 237.225 119.423C237.96 121.715 239.508 123.659 241.839 124.395H241.848C244.17 125.13 246.559 124.424 248.483 122.973C250.399 121.522 251.975 119.259 252.826 116.551H252.836ZM210.937 111.598C212.097 109.384 212.629 107.004 212.475 104.896C212.33 102.807 211.488 100.853 209.786 99.8567C208.083 98.8604 206.072 99.1409 204.311 100.127C202.551 101.104 200.917 102.845 199.746 105.06C198.586 107.275 198.054 109.664 198.208 111.763C198.353 113.862 199.195 115.815 200.897 116.812C202.599 117.808 204.611 117.527 206.372 116.541C208.132 115.564 209.766 113.823 210.937 111.598Z" fill="white" style="fill:white;fill-opacity:1;"/>
<path d="M395.815 330.601C396.251 328.889 396.463 327.225 396.966 325.687C397.363 324.691 397.672 323.695 398.775 323.55C400.187 323.434 402.74 325.359 405.052 328.483C408.524 333.125 410.062 338.986 409.143 344.867C407.876 353.156 403.118 361.687 395.419 365.391C391.492 367.48 382.18 368.112 378.215 369.737C363.639 376.652 389.809 404.911 361.335 429.545C350.289 440.059 337.599 443.579 322.801 441.316C314.029 440.301 305.827 436.857 298.07 432.834C294.559 430.987 291.145 429.178 287.653 428.317C280.322 426.199 273.145 429.333 266.017 431.315C257.805 433.443 248.985 432.94 241.044 429.99C226.246 424.39 216.554 410.424 203.642 401.777C195.034 395.848 184.037 394.6 174.056 397.328C165.467 399.446 157.623 403.789 148.667 404.563C139.391 405.646 130.222 401.941 124.361 394.784C118.5 388.062 114.931 379.029 108.692 372.78C106.274 370.295 103.479 368.244 100.355 366.735C97.2212 364.936 85.8438 363.96 85.8438 363.96C85.8438 363.96 91.5341 358.263 93.3138 357.46C96.8634 355.893 101.583 355.593 105.53 356.599C122.204 360.642 127.185 376.62 139.13 385.364C152.526 394.552 168.127 384.851 181.039 379.348C190.082 375.353 200.586 374.105 209.736 378.448C222.541 383.961 232.068 395.848 245.435 399.843C251.915 401.506 257.486 397.947 262.719 394.378C267.584 391.022 273.271 388.507 279.258 389.271C295.652 390.693 307.587 413.277 325.326 414.709C337.512 415.618 344.37 405.317 345.473 394.243C346.972 384.387 343.751 373.641 345.946 364.598C348.519 353.301 359.545 346.327 370.504 344.906C381.123 343.3 393.562 343.107 395.796 330.756L395.835 330.591L395.815 330.601Z" fill="black" fill-opacity="0.15" style="fill:black;fill-opacity:0.15;"/>
<path d="M190.992 109.238C191.766 111.289 191.592 113.619 190.789 115.651C189.774 118.185 187.694 120.361 185.064 121.125C182.452 121.879 179.338 121.038 177.723 118.842C177.016 117.885 176.668 116.686 176.678 115.496C176.881 115.148 177.094 114.799 177.307 114.461C177.539 114.093 177.761 113.726 177.993 113.368C178.69 112.275 179.396 111.192 180.121 110.128C183.884 106.752 184.416 104.673 186.321 105.06C188.449 105.495 190.228 107.197 191.002 109.238H190.992Z" fill="black" fill-opacity="0.15" style="fill:black;fill-opacity:0.15;"/>
<path d="M221.615 207.486C203.925 199.507 186.206 191.518 167.926 185.018C163.013 183.277 157.896 181.623 152.741 181.285C152.112 181.246 151.493 181.227 150.864 181.227C149.423 181.227 147.992 181.333 146.56 181.584C142.392 182.32 138.571 184.225 135.244 186.846C132.333 189.109 129.818 191.933 127.758 194.98C123.348 201.557 120.814 209.556 121.587 217.439C122.516 226.811 128.029 235.264 134.983 241.619C135.863 242.421 136.772 243.195 137.701 243.949C144.075 249.124 151.435 253.099 159.028 257.132L172.143 262.355" stroke="black" style="stroke:black;stroke-opacity:1;" stroke-width="8" stroke-linecap="round" stroke-linejoin="round"/>
<path d="M135.244 186.847C124.634 182.562 112.321 186.924 105.551 196.142C98.7707 205.349 97.9195 218.145 101.924 228.852C105.928 239.569 120.455 251.485 131.153 259.068" stroke="black" style="stroke:black;stroke-opacity:1;" stroke-width="8" stroke-linecap="round" stroke-linejoin="round"/>
<path d="M177.984 113.368C178.681 112.276 179.387 111.192 180.112 110.128C186.08 101.365 193.227 93.4731 201.758 87.225C221.189 72.9685 246.955 68.2969 270.536 73.2103C285.353 76.3053 299.619 83.1628 310.065 94.1018C324.979 109.712 330.86 132.219 330.56 153.788C330.454 160.993 329.873 168.286 328.926 175.588C325.366 203.038 329.961 231.483 344.091 255.276C357.032 277.057 368.716 297.717 390.643 316.539C397.5 322.429 404.764 328.57 407.917 337.053C409.58 341.531 409.803 346.444 408.807 351.106C407.317 358.138 403.071 364.618 396.871 368.284C396.562 368.468 396.252 368.642 395.933 368.816C391.687 371.06 385.517 370.45 379.733 368.951C375.767 367.926 371.202 373.449 372.943 377.163C373.398 378.13 373.775 379.049 374.055 379.9C374.645 381.679 375.129 383.488 375.487 385.326C376.609 390.761 376.754 396.381 375.874 401.855C373.61 415.686 364.712 428.279 352.429 435.03C332.34 446.066 306.69 440.698 292.037 428.173C289.735 426.209 287.617 424.111 285.624 421.954" stroke="black" style="stroke:black;stroke-opacity:1;" stroke-width="8" stroke-linecap="round" stroke-linejoin="round"/>
<path d="M152.809 180.154C157.49 163.131 162.219 144.658 169.677 128.651C171.766 124.163 174.097 119.743 176.679 115.497C176.882 115.149 177.095 114.8 177.308 114.462" stroke="black" style="stroke:black;stroke-opacity:1;" stroke-width="8" stroke-linecap="round" stroke-linejoin="round"/>
<path d="M354.276 359.802C340.89 348.331 329.041 335.061 319.186 320.437" stroke="black" style="stroke:black;stroke-opacity:1;" stroke-width="6" stroke-linecap="round" stroke-linejoin="round"/>
<path d="M200.868 397.812C189.417 391.738 176.92 395.075 165.904 399.921C154.887 404.776 141.859 408.597 131.307 399.873C124.914 394.582 120.832 385.732 116.016 378.072C111.199 370.412 104.38 363.206 97.2327 364.096C93.6831 364.531 90.0947 366.93 86.6805 364.937C82.0186 362.2 81.593 353.94 82.0283 347.595C83.9143 319.808 119.614 288.432 132.69 259.754C135.05 254.589 136.665 249.512 137.226 244.56" stroke="black" style="stroke:black;stroke-opacity:1;" stroke-width="8" stroke-linecap="round" stroke-linejoin="round"/>
<path d="M200.887 397.783C209.05 402.435 216.923 411.479 225.299 419.226C242.167 434.846 267.894 435.891 285.265 421.934" stroke="black" style="stroke:black;stroke-opacity:1;" stroke-width="8" stroke-linecap="round" stroke-linejoin="round"/>
<path d="M121.452 351.938C120.891 341.396 121.665 330.786 123.773 320.437" stroke="black" style="stroke:black;stroke-opacity:1;" stroke-width="6" stroke-linecap="round" stroke-linejoin="round"/>
<path d="M258.988 395.811C269.86 398.451 276.891 411.102 287.182 422.225" stroke="black" style="stroke:black;stroke-opacity:1;" stroke-width="6" stroke-linecap="round" stroke-linejoin="round"/>
<path d="M163.989 260.257C162.006 266.234 160.594 272.55 161.339 278.808C162.083 285.056 165.294 291.275 170.769 294.389C177.278 298.094 185.615 296.759 192.299 293.364C198.972 289.979 204.534 284.795 211.169 280.713C213.035 293.045 218.926 304.816 228.095 313.259C237.274 321.693 249.731 326.626 262.189 326.143C274.636 325.649 286.891 319.585 294.774 309.69" stroke="black" style="stroke:black;stroke-opacity:1;" stroke-width="8" stroke-linecap="round" stroke-linejoin="round"/>
<path d="M274.495 130.7C274.543 133.147 274.185 135.653 273.063 137.819C271.932 139.986 269.968 141.794 267.579 142.365C264.523 143.09 261.205 141.61 259.232 139.163C257.249 136.707 256.495 133.447 256.563 130.294C256.621 127.838 257.182 125.323 258.584 123.292C259.987 121.261 262.308 119.79 264.774 119.8C267.482 119.181 270.442 120.584 272.135 122.808C273.837 125.023 274.446 127.905 274.495 130.7Z" fill="black" fill-opacity="0.15" style="fill:black;fill-opacity:0.15;"/>
<path d="M6.8944 51.1532C10.9701 14.2272 61.5523 13.7931 68.1531 41.5968C61.4845 13.5074 106.934 -8.55606 127.173 22.5976C149.71 57.2972 85.927 116.463 85.927 116.463C85.927 116.463 2.35925 92.2799 6.8944 51.1532Z" fill="black" fill-opacity="0.15" style="fill:black;fill-opacity:0.15;"/>
<path d="M6.11367 47.8646C11.4377 16.1967 61.6181 14.0701 67.1993 37.579C61.5607 13.8285 107.402 -6.58647 126.392 19.3091C142.643 41.4742 107.836 77.7445 90.8473 93.3517C85.502 98.2624 78.1258 100.013 71.1437 98.0294C48.9532 91.7237 1.56012 74.9686 6.11367 47.8646Z" fill="white" fill-opacity="0.5" style="fill:white;fill-opacity:0.5;"/>
<path d="M6.8944 51.1532C10.9701 14.2272 61.5523 13.7931 68.1531 41.5968C61.4845 13.5074 106.934 -8.55606 127.173 22.5976C143.738 48.103 113.667 86.8269 96.5686 105.557C90.1798 112.556 80.3718 114.884 71.5191 111.504C47.8269 102.458 3.56092 81.3826 6.8944 51.1532Z" stroke="black" style="stroke:black;stroke-opacity:1;" stroke-width="8" stroke-linecap="round" stroke-linejoin="round"/>
<ellipse cx="12.4847" cy="7.36214" rx="12.4847" ry="7.36214" transform="matrix(-0.832058 0.554688 0.554688 0.832058 36.8594 28.1904)" fill="white" fill-opacity="0.5" style="fill:white;fill-opacity:0.5;"/>
<ellipse cx="6.33323" cy="3.92625" rx="6.33323" ry="3.92625" transform="matrix(-0.832058 0.554688 0.554688 0.832058 28.6621 51.1221)" fill="white" fill-opacity="0.5" style="fill:white;fill-opacity:0.5;"/>
<path d="M17.2861 111.596C17.865 110.183 19.867 110.183 20.4459 111.596L22.7058 117.116C23.3994 118.81 24.7439 120.155 26.4379 120.848L31.9573 123.108C33.371 123.687 33.371 125.689 31.9573 126.268L26.4375 128.528C24.7436 129.221 23.399 130.566 22.7055 132.26L20.4459 137.779C19.867 139.192 17.865 139.192 17.2861 137.779L15.0264 132.259C14.3329 130.566 12.9883 129.221 11.2944 128.527L5.77515 126.268C4.36141 125.689 4.36141 123.687 5.77515 123.108L11.294 120.848C12.988 120.155 14.3325 118.81 15.0261 117.116L17.2861 111.596Z" fill="white" fill-opacity="0.75" style="fill:white;fill-opacity:0.75;"/>
<path d="M59.0185 127.948C59.5001 126.772 61.1656 126.772 61.6471 127.948L63.5271 132.54C64.1041 133.949 65.2227 135.068 66.6319 135.645L71.2234 137.525C72.3995 138.006 72.3995 139.672 71.2234 140.153L66.6315 142.034C65.2224 142.61 64.1038 143.729 63.5269 145.138L61.6471 149.729C61.1656 150.905 59.5001 150.905 59.0185 149.729L57.1387 145.138C56.5617 143.729 55.4432 142.61 54.034 142.033L49.4426 140.153C48.2665 139.672 48.2665 138.006 49.4426 137.525L54.0338 135.645C55.4429 135.068 56.5615 133.95 57.1384 132.54L59.0185 127.948Z" fill="white" fill-opacity="0.75" style="fill:white;fill-opacity:0.75;"/>
<path d="M123.837 111.305C124.256 110.28 125.708 110.28 126.128 111.305L127.767 115.307C128.27 116.536 129.245 117.511 130.473 118.014L134.475 119.652C135.5 120.072 135.5 121.524 134.475 121.944L130.473 123.583C129.244 124.085 128.269 125.06 127.766 126.289L126.128 130.291C125.708 131.316 124.256 131.316 123.837 130.291L122.198 126.289C121.695 125.06 120.72 124.085 119.492 123.582L115.49 121.944C114.464 121.524 114.464 120.072 115.49 119.652L119.492 118.014C120.72 117.511 121.695 116.536 122.198 115.308L123.837 111.305Z" fill="white" fill-opacity="0.75" style="fill:white;fill-opacity:0.75;"/>
<path d="M35.9901 156.384C36.3225 155.572 37.4721 155.572 37.8045 156.384L39.1022 159.554C39.5005 160.526 40.2726 161.298 41.2453 161.697L44.4146 162.994C45.2264 163.327 45.2264 164.476 44.4146 164.809L41.245 166.106C40.2724 166.505 39.5003 167.277 39.102 168.25L37.8045 171.418C37.4722 172.23 36.3225 172.23 35.9902 171.418L34.6926 168.249C34.2943 167.277 33.5223 166.505 32.5496 166.106L29.3803 164.809C28.5685 164.476 28.5685 163.327 29.3803 162.994L32.5494 161.697C33.5221 161.299 34.2941 160.526 34.6924 159.554L35.9901 156.384Z" fill="white" fill-opacity="0.75" style="fill:white;fill-opacity:0.75;"/>
<path d="M98.6112 164.51C98.9436 163.698 100.093 163.698 100.426 164.51L101.723 167.68C102.122 168.652 102.894 169.424 103.866 169.823L107.036 171.12C107.847 171.453 107.847 172.602 107.036 172.935L103.866 174.232C102.893 174.631 102.121 175.403 101.723 176.375L100.426 179.544C100.093 180.356 98.9436 180.356 98.6112 179.544L97.3137 176.375C96.9154 175.403 96.1433 174.631 95.1707 174.232L92.0014 172.935C91.1896 172.602 91.1896 171.453 92.0014 171.12L95.1705 169.823C96.1432 169.425 96.9152 168.652 97.3135 167.68L98.6112 164.51Z" fill="white" fill-opacity="0.75" style="fill:white;fill-opacity:0.75;"/>
</svg>
