<svg width="521" height="231" viewBox="0 0 521 231" fill="none" xmlns="http://www.w3.org/2000/svg">
<path d="M216.855 204.732C212.805 196.752 209.075 188.652 205.815 180.412C199.375 164.152 194.765 147.342 193.155 129.742C190.735 103.232 195.195 75.7022 208.495 52.6422C221.785 29.5822 244.405 11.4422 270.505 6.20222C296.605 0.962217 325.715 9.78222 342.545 30.4122C353.605 43.9822 358.755 61.1022 362.745 78.3122C368.285 70.6222 373.905 62.3622 381.645 56.8722C389.375 51.3922 399.425 48.3822 408.505 51.1122C417.585 53.8422 424.765 63.4322 422.785 72.7022C436.995 63.7222 456.635 63.7822 470.335 73.3322C484.045 82.8822 490.895 101.282 486.775 117.472C484.295 127.202 478.285 137.282 482.115 146.562C487.355 159.222 507.215 160.572 512.135 173.362C515.305 181.612 510.685 190.542 508.265 199.042C505.855 207.552 507.785 220.492 516.495 222.012L223.365 226.282C221.175 224.242 219.445 221.822 218.245 219.212C216.085 214.582 215.545 209.372 216.855 204.732Z" fill="white" fill-opacity="0.75" style="fill:white;fill-opacity:0.75;"/>
<path d="M205.641 104.725C190.693 133.763 214.71 166.42 227.973 188.391L263.864 166.42L283.828 161.202L303.052 162.908C303.052 162.908 327.585 152.388 323.096 138.805C318.607 125.223 303.052 134.489 297.548 127.913C292.043 121.337 297.298 91.2601 281.531 78.4918C255.436 57.3589 219.993 76.8447 205.641 104.725Z" fill="white" fill-opacity="0.4" style="fill:white;fill-opacity:0.4;"/>
<path d="M227.838 194.553L239.215 226.1H283.95C283.95 226.1 307.957 228.013 304.817 218.512C301.677 209.012 290.797 215.493 286.947 210.893C283.097 206.293 286.772 185.255 275.743 176.324C257.49 161.541 227.838 194.553 227.838 194.553Z" fill="white" fill-opacity="0.4" style="fill:white;fill-opacity:0.4;"/>
<path d="M218.245 219.212L181.605 219.052C171.545 194.622 192.785 187.762 205.815 180.412C209.075 188.652 212.805 196.752 216.855 204.732C215.545 209.372 216.085 214.582 218.245 219.212Z" fill="white" fill-opacity="0.75" style="fill:white;fill-opacity:0.75;"/>
<path d="M251.544 171.122C240.874 176.462 230.524 183.392 224.234 193.522C217.944 203.662 216.634 217.592 223.514 228.292C319.464 222.942 415.614 221.082 511.704 222.702C504.784 217.352 505.644 206.712 508.154 198.342C510.664 189.972 514.114 180.732 510.314 172.852C504.874 161.582 488.054 160.272 481.704 149.502C476.854 141.272 479.934 130.862 482.944 121.802C485.964 112.742 488.614 102.072 483.174 94.2324C489.694 102.772 485.114 115.062 479.714 124.352C474.314 133.642 468.014 144.392 471.864 154.422C475.054 162.762 484.184 167.212 489.124 174.642C495.724 184.572 492.864 199.562 483.364 207.532C399.634 211.422 315.764 212.002 231.984 209.262C229.604 209.182 226.994 209.012 225.264 207.382C222.314 204.602 223.754 199.672 225.744 196.132C231.614 185.722 240.604 177.102 251.524 171.122H251.544Z" fill="black" fill-opacity="0.15" style="fill:black;fill-opacity:0.15;"/>
<path d="M193.043 217.558C198.404 216.162 203.149 212.538 205.903 207.734C208.658 202.93 209.4 197.005 207.901 191.674C212.846 198.772 215.682 207.318 215.957 215.969C215.986 216.83 215.957 217.766 215.422 218.434C214.732 219.288 213.477 219.377 212.37 219.384C205.695 219.473 199.02 219.555 193.043 217.558Z" fill="black" fill-opacity="0.15" style="fill:black;fill-opacity:0.15;"/>
<path d="M485.467 121.632C491.417 105.772 483.347 91.0049 470.045 79.7326C455.81 67.6693 434.705 66.2921 422.785 72.7021" stroke="black" stroke-opacity="0.15" style="stroke:black;stroke-opacity:0.15;" stroke-width="8" stroke-linecap="round" stroke-linejoin="round"/>
<path d="M364.926 88.1626C358.296 59.7826 345.546 37.1226 325.166 22.5726C302.606 6.47255 270.786 6.39255 246.256 19.3026C221.726 32.2026 204.146 57.5625 196.176 84.1025" stroke="black" stroke-opacity="0.15" style="stroke:black;stroke-opacity:0.15;" stroke-width="8" stroke-linecap="round" stroke-linejoin="round"/>
<path d="M301.285 161.612C275.305 159.282 248.495 168.492 229.425 186.292C223.915 191.432 218.905 197.482 216.855 204.732C215.545 209.372 216.085 214.582 218.245 219.212V219.212C220.603 224.341 226.504 226.282 232.149 226.282H369.732H516.1C507.87 226.282 505.855 207.552 508.265 199.042C510.685 190.542 515.305 181.612 512.135 173.362C507.215 160.572 487.355 159.222 482.115 146.562C478.285 137.282 484.295 127.202 486.775 117.472C490.895 101.282 484.045 82.8818 470.335 73.3318C456.635 63.7818 436.995 63.7218 422.785 72.7018C424.765 63.4318 417.585 53.8418 408.505 51.1118C399.425 48.3818 389.375 51.3918 381.645 56.8718C373.905 62.3618 368.285 70.6218 362.745 78.3118C362.735 78.3118 362.735 78.3118 362.735 78.3118" stroke="black" style="stroke:black;stroke-opacity:1;" stroke-width="8" stroke-linecap="round" stroke-linejoin="round"/>
<path d="M414.774 84.1025C404.044 93.7225 391.494 101.293 377.984 106.303" stroke="black" style="stroke:black;stroke-opacity:1;" stroke-width="6" stroke-linecap="round" stroke-linejoin="round"/>
<path d="M496.186 160.52C483.699 155.687 472.026 153.382 458.676 153.382" stroke="black" style="stroke:black;stroke-opacity:1;" stroke-width="6" stroke-linecap="round" stroke-linejoin="round"/>
<path d="M491.224 207.701L445.254 207.702" stroke="black" style="stroke:black;stroke-opacity:1;" stroke-width="6" stroke-linecap="round" stroke-linejoin="round"/>
<path d="M364.925 88.1622C364.215 84.8922 363.505 81.6022 362.745 78.3122C358.755 61.1022 353.605 43.9822 342.545 30.4122C325.715 9.78222 296.605 0.962217 270.505 6.20222C244.405 11.4422 221.785 29.5822 208.495 52.6422C195.195 75.7022 190.735 103.232 193.155 129.742C194.765 147.342 199.375 164.152 205.815 180.412C209.075 188.652 212.805 196.752 216.855 204.732" stroke="black" style="stroke:black;stroke-opacity:1;" stroke-width="8" stroke-linecap="round" stroke-linejoin="round"/>
<path d="M205.815 180.412C194.846 186.6 178.057 192.554 179.024 208.858C179.408 215.33 185.836 219.212 192.32 219.212H218.245" stroke="black" style="stroke:black;stroke-opacity:1;" stroke-width="8" stroke-linecap="round" stroke-linejoin="round"/>
<path d="M226.566 133.572C226.466 132.342 226.166 131.132 225.676 130.002" stroke="black" style="stroke:black;stroke-opacity:1;" stroke-width="8" stroke-linecap="round" stroke-linejoin="round"/>
<path d="M226.564 133.582V133.572" stroke="black" style="stroke:black;stroke-opacity:1;" stroke-width="8" stroke-linecap="round" stroke-linejoin="round"/>
<ellipse cx="210.319" cy="142.151" rx="6.35279" ry="5.81744" transform="rotate(-3.25097 210.319 142.151)" fill="black" fill-opacity="0.15" style="fill:black;fill-opacity:0.15;"/>
<ellipse cx="290.244" cy="138.776" rx="9.18965" ry="7.6325" transform="rotate(1.98161 290.244 138.776)" fill="black" fill-opacity="0.15" style="fill:black;fill-opacity:0.15;"/>
<path d="M262.271 123.5C263.599 121.539 265.6 120.12 268.004 120.063C270.413 120.001 272.481 121.324 273.901 123.22C275.324 125.12 276.191 127.693 276.261 130.483L276.261 130.485C276.327 133.282 275.583 135.894 274.254 137.86C272.926 139.822 270.926 141.243 268.524 141.306L268.52 141.306C266.112 141.362 264.044 140.041 262.623 138.144C261.201 136.244 260.334 133.671 260.263 130.877L260.263 130.874C260.197 128.077 260.94 125.465 262.271 123.5Z" fill="black" style="fill:black;fill-opacity:1;"/>
<path d="M221.661 123.974C223.072 122.269 225.039 121.153 227.227 121.432C229.417 121.711 231.121 123.291 232.165 125.309C233.212 127.332 233.679 129.919 233.41 132.603C233.146 135.291 232.185 137.697 230.771 139.408C229.361 141.115 227.393 142.231 225.205 141.951C223.014 141.673 221.31 140.088 220.266 138.068C219.22 136.043 218.752 133.454 219.022 130.77C219.286 128.087 220.247 125.683 221.661 123.974Z" fill="black" style="fill:black;fill-opacity:1;"/>
<path d="M230.915 204.342L238.246 225.264C238.246 225.264 234.665 226.282 231.695 226.282H52.0949L4.29492 106.122H192.355L222.765 183.592L230.915 204.342Z" fill="white" style="fill:white;fill-opacity:1;"/>
<path d="M191.671 105.518L52.0221 225.461H239.598L233.474 207.031L191.671 105.518Z" fill="black" fill-opacity="0.15" style="fill:black;fill-opacity:0.15;"/>
<path d="M192.355 106.122L239.264 226.282H52.0949L4.29492 106.122H192.355Z" stroke="black" style="stroke:black;stroke-opacity:1;" stroke-width="8" stroke-linecap="round" stroke-linejoin="round"/>
<path d="M149.875 87.0673L149.874 62.5059" stroke="white" stroke-opacity="0.3" style="stroke:white;stroke-opacity:0.3;" stroke-width="8" stroke-linecap="round" stroke-linejoin="round"/>
<path d="M164.629 87.0673L172.855 72.8203" stroke="white" stroke-opacity="0.3" style="stroke:white;stroke-opacity:0.3;" stroke-width="8" stroke-linecap="round" stroke-linejoin="round"/>
<path d="M135.117 87.0673L126.891 72.8203" stroke="white" stroke-opacity="0.3" style="stroke:white;stroke-opacity:0.3;" stroke-width="8" stroke-linecap="round" stroke-linejoin="round"/>
<path fill-rule="evenodd" clip-rule="evenodd" d="M130.046 194.826C113.592 194.826 96.551 182.011 91.9851 166.202C87.4192 150.394 97.057 137.578 113.512 137.578C129.967 137.578 147.007 150.394 151.573 166.202C153.773 173.821 152.675 180.744 149.105 185.873L144.544 170.08C144.156 168.737 142.838 167.887 141.455 168.086C140.072 168.286 139.048 169.474 139.056 170.871C139.073 174.152 137.896 176.859 135.92 178.752C133.939 180.651 130.971 181.904 127.123 181.904C122.473 181.904 117.587 180.06 113.482 176.947C109.379 173.835 106.248 169.598 104.937 165.06C103.636 160.554 104.402 156.77 106.334 154.162C108.262 151.56 111.616 149.77 116.225 149.77C123.519 149.77 131.3 154.313 135.674 160.835C135.976 161.285 136.26 161.743 136.526 162.207C137.294 163.549 139.004 164.014 140.345 163.246C141.687 162.478 142.152 160.768 141.384 159.427C141.051 158.845 140.697 158.275 140.323 157.717C135.059 149.869 125.638 144.172 116.225 144.172C110.105 144.172 104.967 146.605 101.836 150.83C98.7091 155.051 97.8512 160.7 99.5592 166.613C101.258 172.494 105.2 177.691 110.099 181.407C114.998 185.122 121.044 187.501 127.123 187.501C132.214 187.501 136.633 185.822 139.793 182.794C140.518 182.099 141.167 181.343 141.736 180.533L144.604 190.463C140.819 193.228 135.858 194.826 130.046 194.826ZM110.109 162.58C110.83 165.076 113.521 167.1 116.117 167.1C118.713 167.1 120.235 165.076 119.514 162.58C118.793 160.085 116.103 158.063 113.507 158.063C110.911 158.063 109.389 160.087 110.109 162.58ZM127.975 167.1C125.377 167.1 122.686 165.076 121.966 162.58C121.245 160.087 122.767 158.063 125.365 158.063C127.963 158.063 130.654 160.085 131.374 162.58C132.095 165.076 130.573 167.1 127.975 167.1Z" fill="#8D8D8D" style="fill:#8D8D8D;fill:color(display-p3 0.5513 0.5513 0.5513);fill-opacity:1;"/>
</svg>
