<svg width="520" height="231" viewBox="0 0 520 231" fill="none" xmlns="http://www.w3.org/2000/svg">
<path d="M216.656 204.732C212.606 196.752 208.876 188.652 205.616 180.412C199.176 164.152 194.566 147.342 192.956 129.742C190.536 103.232 194.996 75.7022 208.296 52.6422C221.586 29.5822 244.206 11.4422 270.306 6.20222C296.406 0.962217 325.516 9.78222 342.346 30.4122C353.406 43.9822 358.556 61.1022 362.546 78.3122C368.086 70.6222 373.706 62.3622 381.446 56.8722C389.176 51.3922 399.226 48.3822 408.306 51.1122C417.386 53.8422 424.566 63.4322 422.586 72.7022C436.796 63.7222 456.436 63.7822 470.136 73.3322C483.846 82.8822 490.696 101.282 486.576 117.472C484.096 127.202 478.086 137.282 481.916 146.562C487.156 159.222 507.016 160.572 511.936 173.362C515.106 181.612 510.486 190.542 508.066 199.042C505.656 207.552 507.586 220.492 516.296 222.012L223.166 226.282C220.976 224.242 219.246 221.822 218.046 219.212C215.886 214.582 215.346 209.372 216.656 204.732Z" fill="white" fill-opacity="0.75" style="fill:white;fill-opacity:0.75;"/>
<path d="M205.442 104.725C190.494 133.763 214.511 166.42 227.774 188.391L263.665 166.42L283.629 161.202L302.852 162.908C302.852 162.908 327.386 152.388 322.897 138.805C318.407 125.223 302.852 134.489 297.348 127.913C291.844 121.337 297.099 91.2601 281.332 78.4918C255.237 57.3589 219.794 76.8447 205.442 104.725Z" fill="white" fill-opacity="0.4" style="fill:white;fill-opacity:0.4;"/>
<path d="M227.639 194.553L239.016 226.1H283.751C283.751 226.1 307.758 228.013 304.618 218.512C301.478 209.012 290.597 215.493 286.747 210.893C282.897 206.293 286.573 185.255 275.544 176.324C257.291 161.541 227.639 194.553 227.639 194.553Z" fill="white" fill-opacity="0.4" style="fill:white;fill-opacity:0.4;"/>
<path d="M218.046 219.212L181.406 219.052C171.346 194.622 192.586 187.762 205.616 180.412C208.876 188.652 212.606 196.752 216.656 204.732C215.346 209.372 215.886 214.582 218.046 219.212Z" fill="white" fill-opacity="0.75" style="fill:white;fill-opacity:0.75;"/>
<path d="M251.345 171.122C240.675 176.462 230.325 183.392 224.035 193.522C217.745 203.662 216.435 217.592 223.315 228.292C319.265 222.942 415.415 221.082 511.505 222.702C504.585 217.352 505.445 206.712 507.955 198.342C510.465 189.972 513.915 180.732 510.115 172.852C504.675 161.582 487.855 160.272 481.505 149.502C476.655 141.272 479.735 130.862 482.745 121.802C485.765 112.742 488.415 102.072 482.975 94.2324C489.495 102.772 484.915 115.062 479.515 124.352C474.115 133.642 467.815 144.392 471.665 154.422C474.855 162.762 483.985 167.212 488.925 174.642C495.525 184.572 492.665 199.562 483.165 207.532C399.435 211.422 315.565 212.002 231.785 209.262C229.405 209.182 226.795 209.012 225.065 207.382C222.115 204.602 223.555 199.672 225.545 196.132C231.415 185.722 240.405 177.102 251.325 171.122H251.345Z" fill="#BCBBFF" fill-opacity="0.4" style="fill:#BCBBFF;fill:color(display-p3 0.7373 0.7333 1.0000);fill-opacity:0.4;"/>
<path d="M192.844 217.558C198.205 216.162 202.949 212.538 205.704 207.734C208.459 202.93 209.201 197.005 207.701 191.674C212.646 198.772 215.483 207.318 215.758 215.969C215.787 216.83 215.758 217.766 215.223 218.434C214.532 219.288 213.278 219.377 212.171 219.384C205.496 219.473 198.821 219.555 192.844 217.558Z" fill="#BCBBFF" fill-opacity="0.4" style="fill:#BCBBFF;fill:color(display-p3 0.7373 0.7333 1.0000);fill-opacity:0.4;"/>
<path d="M485.268 121.632C491.218 105.772 483.148 91.0049 469.846 79.7326C455.611 67.6693 434.506 66.2921 422.586 72.7021" stroke="#BCBBFF" stroke-opacity="0.4" style="stroke:#BCBBFF;stroke:color(display-p3 0.7373 0.7333 1.0000);stroke-opacity:0.4;" stroke-width="8" stroke-linecap="round" stroke-linejoin="round"/>
<path d="M364.727 88.1626C358.097 59.7826 345.347 37.1226 324.967 22.5726C302.407 6.47255 270.587 6.39255 246.057 19.3026C221.527 32.2026 203.947 57.5625 195.977 84.1025" stroke="#BCBBFF" stroke-opacity="0.4" style="stroke:#BCBBFF;stroke:color(display-p3 0.7373 0.7333 1.0000);stroke-opacity:0.4;" stroke-width="8" stroke-linecap="round" stroke-linejoin="round"/>
<path d="M301.086 161.612C275.106 159.282 248.295 168.492 229.225 186.292C223.715 191.432 218.705 197.482 216.655 204.732C215.345 209.372 215.885 214.582 218.045 219.212V219.212C220.404 224.341 226.304 226.282 231.95 226.282H369.533H515.901C507.671 226.282 505.655 207.552 508.065 199.042C510.485 190.542 515.105 181.612 511.935 173.362C507.015 160.572 487.155 159.222 481.915 146.562C478.085 137.282 484.096 127.202 486.576 117.472C490.696 101.282 483.845 82.8818 470.135 73.3318C456.435 63.7818 436.795 63.7218 422.585 72.7018C424.565 63.4318 417.385 53.8418 408.305 51.1118C399.225 48.3818 389.175 51.3918 381.445 56.8718C373.705 62.3618 368.085 70.6218 362.545 78.3118C362.535 78.3118 362.535 78.3118 362.535 78.3118" stroke="black" style="stroke:black;stroke-opacity:1;" stroke-width="8" stroke-linecap="round" stroke-linejoin="round"/>
<path d="M414.575 84.1025C403.845 93.7225 391.295 101.293 377.785 106.303" stroke="black" style="stroke:black;stroke-opacity:1;" stroke-width="6" stroke-linecap="round" stroke-linejoin="round"/>
<path d="M495.987 160.52C483.5 155.687 471.826 153.382 458.477 153.382" stroke="black" style="stroke:black;stroke-opacity:1;" stroke-width="6" stroke-linecap="round" stroke-linejoin="round"/>
<path d="M491.025 207.701L445.055 207.702" stroke="black" style="stroke:black;stroke-opacity:1;" stroke-width="6" stroke-linecap="round" stroke-linejoin="round"/>
<path d="M364.726 88.1622C364.016 84.8922 363.306 81.6022 362.546 78.3122C358.556 61.1022 353.406 43.9822 342.346 30.4122C325.516 9.78222 296.406 0.962217 270.306 6.20222C244.206 11.4422 221.586 29.5822 208.296 52.6422C194.996 75.7022 190.536 103.232 192.956 129.742C194.566 147.342 199.176 164.152 205.616 180.412C208.876 188.652 212.606 196.752 216.656 204.732" stroke="black" style="stroke:black;stroke-opacity:1;" stroke-width="8" stroke-linecap="round" stroke-linejoin="round"/>
<path d="M205.616 180.412C194.646 186.6 177.858 192.554 178.825 208.858C179.209 215.33 185.637 219.212 192.121 219.212H218.046" stroke="black" style="stroke:black;stroke-opacity:1;" stroke-width="8" stroke-linecap="round" stroke-linejoin="round"/>
<path d="M226.367 133.572C226.267 132.342 225.967 131.132 225.477 130.002" stroke="black" style="stroke:black;stroke-opacity:1;" stroke-width="8" stroke-linecap="round" stroke-linejoin="round"/>
<path d="M226.365 133.582V133.572" stroke="black" style="stroke:black;stroke-opacity:1;" stroke-width="8" stroke-linecap="round" stroke-linejoin="round"/>
<ellipse cx="210.12" cy="142.151" rx="6.35279" ry="5.81744" transform="rotate(-3.25097 210.12 142.151)" fill="#BCBBFF" fill-opacity="0.4" style="fill:#BCBBFF;fill:color(display-p3 0.7373 0.7333 1.0000);fill-opacity:0.4;"/>
<ellipse cx="290.045" cy="138.776" rx="9.18965" ry="7.6325" transform="rotate(1.98161 290.045 138.776)" fill="#BCBBFF" fill-opacity="0.4" style="fill:#BCBBFF;fill:color(display-p3 0.7373 0.7333 1.0000);fill-opacity:0.4;"/>
<path d="M262.072 123.5C263.4 121.539 265.401 120.12 267.805 120.063C270.214 120.001 272.282 121.324 273.702 123.22C275.125 125.12 275.991 127.693 276.062 130.483L276.062 130.485C276.127 133.282 275.384 135.894 274.054 137.86C272.727 139.822 270.727 141.243 268.324 141.306L268.321 141.306C265.913 141.362 263.845 140.041 262.424 138.144C261.001 136.244 260.135 133.671 260.064 130.877L260.064 130.874C259.998 128.077 260.741 125.465 262.072 123.5Z" fill="black" style="fill:black;fill-opacity:1;"/>
<path d="M221.462 123.974C222.873 122.269 224.84 121.153 227.028 121.432C229.218 121.711 230.922 123.291 231.966 125.309C233.013 127.332 233.479 129.919 233.21 132.603C232.947 135.291 231.986 137.697 230.572 139.408C229.162 141.115 227.194 142.231 225.006 141.951C222.814 141.673 221.111 140.088 220.067 138.068C219.021 136.043 218.553 133.454 218.822 130.77C219.087 128.087 220.048 125.683 221.462 123.974Z" fill="black" style="fill:black;fill-opacity:1;"/>
<path d="M230.714 204.342L238.045 225.264C238.045 225.264 234.464 226.282 231.494 226.282H51.8937L4.09375 106.122H192.154L222.564 183.592L230.714 204.342Z" fill="white" style="fill:white;fill-opacity:1;"/>
<path d="M191.467 105.518L51.8189 225.461H239.394L233.271 207.031L191.467 105.518Z" fill="#BCBBFF" fill-opacity="0.4" style="fill:#BCBBFF;fill:color(display-p3 0.7373 0.7333 1.0000);fill-opacity:0.4;"/>
<path d="M192.154 106.122L239.063 226.282H51.8937L4.09375 106.122H192.154Z" stroke="black" style="stroke:black;stroke-opacity:1;" stroke-width="8" stroke-linecap="round" stroke-linejoin="round"/>
<path d="M149.672 87.0673L149.671 62.5059" stroke="white" stroke-opacity="0.3" style="stroke:white;stroke-opacity:0.3;" stroke-width="8" stroke-linecap="round" stroke-linejoin="round"/>
<path d="M164.426 87.0673L172.652 72.8203" stroke="white" stroke-opacity="0.3" style="stroke:white;stroke-opacity:0.3;" stroke-width="8" stroke-linecap="round" stroke-linejoin="round"/>
<path d="M134.914 87.0673L126.688 72.8203" stroke="white" stroke-opacity="0.3" style="stroke:white;stroke-opacity:0.3;" stroke-width="8" stroke-linecap="round" stroke-linejoin="round"/>
<path fill-rule="evenodd" clip-rule="evenodd" d="M129.843 194.826C113.389 194.826 96.3479 182.011 91.782 166.202C87.2161 150.394 96.8539 137.578 113.309 137.578C129.763 137.578 146.804 150.394 151.37 166.202C153.57 173.821 152.472 180.744 148.902 185.873L144.34 170.08C143.953 168.737 142.635 167.887 141.252 168.086C139.869 168.286 138.845 169.474 138.853 170.871C138.87 174.152 137.693 176.859 135.717 178.752C133.735 180.651 130.768 181.904 126.92 181.904C122.27 181.904 117.384 180.06 113.279 176.947C109.176 173.835 106.045 169.598 104.734 165.06C103.433 160.554 104.199 156.77 106.131 154.162C108.059 151.56 111.413 149.77 116.022 149.77C123.315 149.77 131.096 154.313 135.471 160.835C135.773 161.285 136.057 161.743 136.323 162.207C137.091 163.549 138.801 164.014 140.142 163.246C141.484 162.478 141.949 160.768 141.181 159.427C140.848 158.845 140.494 158.275 140.12 157.717C134.855 149.869 125.435 144.172 116.022 144.172C109.902 144.172 104.764 146.605 101.633 150.83C98.506 155.051 97.6481 160.7 99.3561 166.613C101.055 172.494 104.997 177.691 109.896 181.407C114.795 185.122 120.841 187.501 126.92 187.501C132.011 187.501 136.43 185.822 139.59 182.794C140.315 182.099 140.964 181.343 141.533 180.533L144.401 190.463C140.616 193.228 135.655 194.826 129.843 194.826ZM109.906 162.58C110.627 165.076 113.318 167.1 115.914 167.1C118.51 167.1 120.032 165.076 119.311 162.58C118.59 160.085 115.899 158.063 113.304 158.063C110.708 158.063 109.186 160.087 109.906 162.58ZM127.772 167.1C125.174 167.1 122.483 165.076 121.762 162.58C121.042 160.087 122.564 158.063 125.162 158.063C127.76 158.063 130.45 160.085 131.171 162.58C131.892 165.076 130.37 167.1 127.772 167.1Z" fill="#7B7BAC" style="fill:#7B7BAC;fill:color(display-p3 0.4824 0.4824 0.6745);fill-opacity:1;"/>
</svg>
