<svg width="520" height="264" viewBox="0 0 520 264" fill="none" xmlns="http://www.w3.org/2000/svg">
<path d="M216.654 237.653C212.604 229.673 208.874 221.573 205.614 213.333C199.174 197.073 194.564 180.263 192.954 162.663C190.534 136.153 194.994 108.623 208.294 85.5631C221.584 62.5031 244.204 44.3631 270.304 39.1231C296.404 33.8831 325.514 42.7031 342.344 63.3331C353.404 76.9031 358.554 94.0231 362.544 111.233C368.084 103.543 373.704 95.2831 381.444 89.7931C389.174 84.3131 399.224 81.3031 408.304 84.0331C417.384 86.7631 424.564 96.3531 422.584 105.623C436.794 96.6431 456.434 96.7031 470.134 106.253C483.844 115.803 490.694 134.203 486.574 150.393C484.094 160.123 478.084 170.203 481.914 179.483C487.154 192.143 507.014 193.493 511.934 206.283C515.104 214.533 510.484 223.463 508.064 231.963C505.654 240.473 507.584 253.413 516.294 254.933L223.164 259.203C220.974 257.163 219.244 254.743 218.044 252.133C215.884 247.503 215.344 242.293 216.654 237.653Z" fill="white" fill-opacity="0.75" style="fill:white;fill-opacity:0.75;"/>
<path d="M205.44 137.646C190.492 166.684 214.509 199.34 227.772 221.311L263.663 199.34L283.627 194.123L302.85 195.829C302.85 195.829 327.384 185.309 322.895 171.726C318.406 158.144 302.85 167.41 297.346 160.834C291.842 154.258 297.097 124.181 281.33 111.413C255.235 90.2798 219.792 109.766 205.44 137.646Z" fill="white" fill-opacity="0.4" style="fill:white;fill-opacity:0.4;"/>
<path d="M227.637 227.474L239.014 259.021H283.749C283.749 259.021 307.756 260.934 304.616 251.433C301.476 241.933 290.596 248.414 286.745 243.814C282.895 239.214 286.571 218.176 275.542 209.245C257.289 194.462 227.637 227.474 227.637 227.474Z" fill="white" fill-opacity="0.4" style="fill:white;fill-opacity:0.4;"/>
<path d="M218.044 252.133L181.404 251.973C171.344 227.543 192.584 220.683 205.614 213.333C208.874 221.573 212.604 229.673 216.654 237.653C215.344 242.293 215.884 247.503 218.044 252.133Z" fill="white" fill-opacity="0.75" style="fill:white;fill-opacity:0.75;"/>
<path d="M251.343 204.043C240.673 209.383 230.323 216.313 224.033 226.443C217.743 236.583 216.433 250.513 223.313 261.213C319.263 255.863 415.413 254.003 511.503 255.623C504.583 250.273 505.443 239.633 507.953 231.263C510.463 222.893 513.913 213.653 510.113 205.773C504.673 194.503 487.853 193.193 481.503 182.423C476.653 174.193 479.733 163.783 482.743 154.723C485.763 145.663 488.413 134.993 482.973 127.153C489.493 135.693 484.913 147.983 479.513 157.273C474.113 166.563 467.813 177.313 471.663 187.343C474.853 195.683 483.983 200.133 488.923 207.563C495.523 217.493 492.663 232.483 483.163 240.453C399.433 244.343 315.563 244.923 231.783 242.183C229.403 242.103 226.793 241.933 225.063 240.303C222.113 237.523 223.553 232.593 225.543 229.053C231.413 218.643 240.403 210.023 251.323 204.043H251.343Z" fill="#BCBBFF" fill-opacity="0.4" style="fill:#BCBBFF;fill:color(display-p3 0.7373 0.7333 1.0000);fill-opacity:0.4;"/>
<path d="M192.844 250.479C198.205 249.083 202.949 245.459 205.704 240.655C208.459 235.851 209.201 229.926 207.701 224.595C212.646 231.693 215.483 240.239 215.758 248.89C215.787 249.751 215.758 250.686 215.223 251.355C214.532 252.209 213.278 252.298 212.171 252.305C205.496 252.394 198.821 252.476 192.844 250.479Z" fill="#BCBBFF" fill-opacity="0.4" style="fill:#BCBBFF;fill:color(display-p3 0.7373 0.7333 1.0000);fill-opacity:0.4;"/>
<path d="M485.266 154.553C491.216 138.693 483.146 123.926 469.844 112.653C455.609 100.59 434.504 99.213 422.584 105.623" stroke="#BCBBFF" stroke-opacity="0.4" style="stroke:#BCBBFF;stroke:color(display-p3 0.7373 0.7333 1.0000);stroke-opacity:0.4;" stroke-width="8" stroke-linecap="round" stroke-linejoin="round"/>
<path d="M364.725 121.083C358.095 92.7035 345.345 70.0435 324.965 55.4935C302.405 39.3934 270.585 39.3134 246.055 52.2234C221.525 65.1234 203.945 90.4834 195.975 117.023" stroke="#BCBBFF" stroke-opacity="0.4" style="stroke:#BCBBFF;stroke:color(display-p3 0.7373 0.7333 1.0000);stroke-opacity:0.4;" stroke-width="8" stroke-linecap="round" stroke-linejoin="round"/>
<path d="M301.084 194.533C275.104 192.203 248.294 201.413 229.224 219.213C223.714 224.353 218.704 230.403 216.654 237.653C215.344 242.293 215.884 247.503 218.044 252.133V252.133C220.402 257.262 226.303 259.203 231.948 259.203H369.531H515.899C507.669 259.203 505.654 240.473 508.064 231.963C510.484 223.463 515.104 214.533 511.934 206.283C507.014 193.493 487.154 192.143 481.914 179.483C478.084 170.203 484.094 160.123 486.574 150.393C490.694 134.203 483.844 115.803 470.134 106.253C456.434 96.7027 436.794 96.6427 422.584 105.623C424.564 96.3527 417.384 86.7627 408.304 84.0327C399.224 81.3027 389.174 84.3127 381.444 89.7927C373.704 95.2827 368.084 103.543 362.544 111.233C362.534 111.233 362.534 111.233 362.534 111.233" stroke="black" style="stroke:black;stroke-opacity:1;" stroke-width="8" stroke-linecap="round" stroke-linejoin="round"/>
<path d="M414.573 117.023C403.843 126.643 391.293 134.213 377.783 139.223" stroke="black" style="stroke:black;stroke-opacity:1;" stroke-width="6" stroke-linecap="round" stroke-linejoin="round"/>
<path d="M495.985 193.441C483.498 188.608 471.824 186.303 458.475 186.303" stroke="black" style="stroke:black;stroke-opacity:1;" stroke-width="6" stroke-linecap="round" stroke-linejoin="round"/>
<path d="M491.023 240.622L445.053 240.622" stroke="black" style="stroke:black;stroke-opacity:1;" stroke-width="6" stroke-linecap="round" stroke-linejoin="round"/>
<path d="M364.724 121.083C364.014 117.813 363.304 114.523 362.544 111.233C358.554 94.0231 353.404 76.9031 342.344 63.3331C325.514 42.7031 296.404 33.8831 270.304 39.1231C244.204 44.3631 221.584 62.5031 208.294 85.5631C194.994 108.623 190.534 136.153 192.954 162.663C194.564 180.263 199.174 197.073 205.614 213.333C208.874 221.573 212.604 229.673 216.654 237.653" stroke="black" style="stroke:black;stroke-opacity:1;" stroke-width="8" stroke-linecap="round" stroke-linejoin="round"/>
<path d="M205.614 213.333C194.644 219.521 177.856 225.475 178.823 241.779C179.207 248.251 185.635 252.133 192.119 252.133H218.044" stroke="black" style="stroke:black;stroke-opacity:1;" stroke-width="8" stroke-linecap="round" stroke-linejoin="round"/>
<path d="M226.365 166.493C226.265 165.263 225.965 164.053 225.475 162.923" stroke="black" style="stroke:black;stroke-opacity:1;" stroke-width="8" stroke-linecap="round" stroke-linejoin="round"/>
<path d="M226.363 166.503V166.493" stroke="black" style="stroke:black;stroke-opacity:1;" stroke-width="8" stroke-linecap="round" stroke-linejoin="round"/>
<ellipse cx="210.118" cy="175.072" rx="6.35279" ry="5.81744" transform="rotate(-3.25097 210.118 175.072)" fill="#BCBBFF" fill-opacity="0.4" style="fill:#BCBBFF;fill:color(display-p3 0.7373 0.7333 1.0000);fill-opacity:0.4;"/>
<ellipse cx="290.043" cy="171.697" rx="9.18965" ry="7.6325" transform="rotate(1.98161 290.043 171.697)" fill="#BCBBFF" fill-opacity="0.4" style="fill:#BCBBFF;fill:color(display-p3 0.7373 0.7333 1.0000);fill-opacity:0.4;"/>
<path d="M262.07 156.421C263.398 154.46 265.399 153.041 267.803 152.984C270.212 152.922 272.28 154.245 273.7 156.141C275.123 158.041 275.989 160.614 276.06 163.403L276.06 163.406C276.126 166.203 275.382 168.815 274.052 170.781C272.725 172.743 270.725 174.164 268.322 174.226L268.319 174.227C265.911 174.283 263.843 172.962 262.422 171.065C260.999 169.165 260.133 166.592 260.062 163.798L260.062 163.795C259.996 160.998 260.739 158.386 262.07 156.421Z" fill="black" style="fill:black;fill-opacity:1;"/>
<path d="M221.46 156.894C222.871 155.19 224.838 154.074 227.026 154.353C229.216 154.632 230.92 156.212 231.964 158.23C233.011 160.253 233.477 162.84 233.208 165.524C232.945 168.212 231.984 170.618 230.57 172.329C229.16 174.036 227.192 175.152 225.004 174.872C222.812 174.594 221.109 173.009 220.065 170.989C219.019 168.964 218.551 166.375 218.82 163.691C219.085 161.008 220.046 158.604 221.46 156.894Z" fill="black" style="fill:black;fill-opacity:1;"/>
<path d="M346.485 13.492C347.459 15.6402 347.503 18.3479 346.074 20.223C344.643 22.1057 341.074 22.9129 339.435 21.2108L339.228 21.3954C336.377 18.3286 333.341 15.6046 330.211 13.4385C329.189 11.6468 329.034 9.45576 330.049 7.65555C331.152 5.69095 333.679 4.86873 335.91 5.20016C338.134 5.53041 340.103 6.8039 341.876 8.19394C343.739 9.65214 345.505 11.3352 346.485 13.492Z" fill="#E5E5FF" style="fill:#E5E5FF;fill:color(display-p3 0.8980 0.8980 1.0000);fill-opacity:1;"/>
<path d="M365.033 70.3458C367.64 86.5999 367.005 103.374 363.654 119.45C362.937 118.776 362.22 118.101 361.485 117.44C354.752 111.251 347.572 105.557 340.022 100.382L340.811 99.2415C344.246 86.4705 346.526 74.376 345.599 60.0019C343.524 50.3014 340.958 44.0907 336.075 36.0339L336.085 36.0318C350.947 46.7092 362.931 60.5181 365.033 70.3458Z" fill="#BCBBFF" style="fill:#BCBBFF;fill:color(display-p3 0.7391 0.7337 1.0000);fill-opacity:1;"/>
<path d="M340.022 100.381C347.572 105.556 354.752 111.25 361.485 117.439L361.236 117.707C354.608 111.68 345.892 107.981 336.947 107.42C328.478 106.889 319.999 109.082 311.527 108.532C295.54 107.513 281.935 97.1189 267.143 90.9771C254.722 85.8315 240.787 83.648 227.694 86.694C214.604 89.7498 198.529 99.7434 193.178 112.065C184.382 112.443 178.571 112.142 171.524 108.219C167.776 106.138 164.812 102.988 163.668 100.512C161.733 96.2937 164.975 91.561 168.327 88.3487C179.289 77.8741 193.569 71.2505 208.392 68.1206C208.617 68.0725 208.852 68.0223 209.077 67.9742C223.694 64.9805 238.837 65.2081 253.627 67.1369C284.513 71.1655 314.354 82.7395 340.02 100.371L340.022 100.381Z" fill="#BCBBFF" style="fill:#BCBBFF;fill:color(display-p3 0.7391 0.7337 1.0000);fill-opacity:1;"/>
<path d="M336.074 36.0327C340.957 44.0895 343.523 50.3001 345.598 60.0007C346.525 74.3747 344.245 86.4693 340.81 99.2402L340.021 100.381C314.355 82.7491 284.514 71.175 253.628 67.1465C238.838 65.2176 223.695 64.99 209.078 67.9838L209.03 67.7588C215.445 58.0216 220.404 46.3051 231.085 37.4347C251.958 21.1381 280.413 15.0002 306.098 21.2968C310.933 22.4817 315.913 24.3923 320.827 26.8079C326.061 29.38 331.226 32.5395 336.082 36.0208L336.072 36.0229L336.074 36.0327Z" fill="#E5E5FF" style="fill:#E5E5FF;fill:color(display-p3 0.8980 0.8980 1.0000);fill-opacity:1;"/>
<path d="M211.084 67.7417C216.203 57.7929 220.405 46.3053 231.086 37.4349C251.959 21.1384 280.414 15.0004 306.1 21.297C310.934 22.4819 315.914 24.3925 320.828 26.8081C326.062 29.3802 331.227 32.5397 336.083 36.021C350.947 46.7082 360.442 61.8797 363.219 74.8654C366.663 90.9631 367.005 103.373 363.654 119.449M211.084 67.7417C225.701 64.748 238.839 65.2178 253.63 67.1467C284.515 71.1753 314.357 82.7493 340.022 100.381C347.572 105.556 354.752 111.25 361.485 117.439M211.084 67.7417C210.859 67.7899 211.309 67.6936 211.084 67.7417ZM211.084 67.7417C196.261 70.8716 176.496 77.3517 168.039 85.4549C163.419 89.8817 162.127 95.6337 163.671 100.522C164.733 103.886 168.094 106.844 171.842 108.926C178.889 112.849 186.757 113.687 195.552 113.309C200.903 100.987 214.606 89.7596 227.697 86.7038C240.789 83.6578 254.724 85.8413 267.145 90.9869C281.937 97.1287 295.542 107.523 311.529 108.541C320.001 109.091 328.481 106.899 336.949 107.43C345.894 107.991 354.858 111.412 361.485 117.439M363.654 119.449C362.937 118.775 362.22 118.1 361.485 117.439M363.654 119.449C363.236 119.027 361.93 117.845 361.485 117.439" stroke="black" style="stroke:black;stroke-opacity:1;" stroke-width="8" stroke-linecap="round" stroke-linejoin="round"/>
<path d="M330.211 13.4385C329.189 11.6468 329.034 9.45576 330.049 7.65555C331.152 5.69095 333.679 4.86873 335.91 5.20016C338.134 5.53041 340.103 6.8039 341.876 8.19394C343.739 9.65214 345.505 11.3352 346.485 13.492C347.459 15.6402 347.503 18.3479 346.074 20.223C344.643 22.1057 341.074 22.9129 339.435 21.2108" stroke="black" style="stroke:black;stroke-opacity:1;" stroke-width="8" stroke-linecap="round" stroke-linejoin="round"/>
<path d="M330.498 33.4429C336.841 38.3679 341.184 45.2006 342.855 49.9696C345.146 56.5085 346.009 63.4799 345.726 70.4028C345.315 80.4663 343.388 89.6634 340.812 99.241" stroke="black" style="stroke:black;stroke-opacity:1;" stroke-width="6" stroke-linecap="round" stroke-linejoin="round"/>
<path d="M260.791 42.8561C260.567 44.4961 261.715 46.0079 263.353 46.2321C264.992 46.4563 266.504 45.3084 266.728 43.6684C266.952 42.0284 265.804 40.518 264.166 40.2938C262.527 40.0696 261.015 41.2175 260.791 42.8561Z" fill="#7B7BAC" style="fill:#7B7BAC;fill:color(display-p3 0.4837 0.4809 0.6755);fill-opacity:1;"/>
<path d="M268.275 43.8795C268.051 45.5195 269.199 47.0313 270.839 47.2557C272.479 47.4801 273.991 46.3322 274.215 44.6922C274.44 43.0522 273.291 41.5419 271.651 41.3175C270.011 41.0931 268.5 42.2409 268.275 43.8795Z" fill="#7B7BAC" style="fill:#7B7BAC;fill:color(display-p3 0.4837 0.4809 0.6755);fill-opacity:1;"/>
<path d="M279.297 43.1761C278.21 38.2179 274.175 34.2383 268.902 33.5168C262.129 32.5901 255.879 37.3889 254.943 44.2352C254.006 51.0815 258.737 57.3828 265.51 58.3095C271.152 59.0816 276.432 55.8791 278.579 50.8293L277.334 59.9273" stroke="#7B7BAC" style="stroke:#7B7BAC;stroke:color(display-p3 0.4837 0.4809 0.6755);stroke-opacity:1;" stroke-width="5" stroke-linecap="round" stroke-linejoin="round"/>
<path d="M230.714 237.263L238.045 258.184C238.045 258.184 234.464 259.203 231.494 259.203H51.8937L4.09375 139.043H192.154L222.564 216.513L230.714 237.263Z" fill="white" style="fill:white;fill-opacity:1;"/>
<path d="M191.467 138.438L51.8189 258.382H239.394L233.271 239.952L191.467 138.438Z" fill="#BCBBFF" fill-opacity="0.4" style="fill:#BCBBFF;fill:color(display-p3 0.7373 0.7333 1.0000);fill-opacity:0.4;"/>
<path d="M192.154 139.043L239.063 259.203H51.8937L4.09375 139.043H192.154Z" stroke="black" style="stroke:black;stroke-opacity:1;" stroke-width="8" stroke-linecap="round" stroke-linejoin="round"/>
<path d="M149.672 119.988L149.671 95.4268" stroke="white" stroke-opacity="0.3" style="stroke:white;stroke-opacity:0.3;" stroke-width="8" stroke-linecap="round" stroke-linejoin="round"/>
<path d="M164.426 119.988L172.652 105.741" stroke="white" stroke-opacity="0.3" style="stroke:white;stroke-opacity:0.3;" stroke-width="8" stroke-linecap="round" stroke-linejoin="round"/>
<path d="M134.914 119.988L126.688 105.741" stroke="white" stroke-opacity="0.3" style="stroke:white;stroke-opacity:0.3;" stroke-width="8" stroke-linecap="round" stroke-linejoin="round"/>
<path fill-rule="evenodd" clip-rule="evenodd" d="M129.843 227.747C113.389 227.747 96.3479 214.932 91.782 199.123C87.2161 183.314 96.8539 170.499 113.309 170.499C129.763 170.499 146.804 183.314 151.37 199.123C153.57 206.741 152.472 213.665 148.902 218.793L144.34 203.001C143.953 201.658 142.635 200.808 141.252 201.007C139.869 201.206 138.845 202.395 138.853 203.792C138.87 207.073 137.693 209.78 135.717 211.673C133.735 213.572 130.768 214.824 126.92 214.824C122.27 214.824 117.384 212.981 113.279 209.868C109.176 206.755 106.045 202.519 104.734 197.981C103.433 193.475 104.199 189.691 106.131 187.083C108.059 184.481 111.413 182.69 116.022 182.69C123.315 182.69 131.096 187.234 135.471 193.756C135.773 194.206 136.057 194.664 136.323 195.128C137.091 196.47 138.801 196.935 140.142 196.167C141.484 195.399 141.949 193.689 141.181 192.347C140.848 191.766 140.494 191.196 140.12 190.638C134.855 182.79 125.435 177.093 116.022 177.093C109.902 177.093 104.764 179.525 101.633 183.751C98.506 187.972 97.6481 193.621 99.3561 199.534C101.055 205.415 104.997 210.612 109.896 214.328C114.795 218.043 120.841 220.422 126.92 220.422C132.011 220.422 136.43 218.743 139.59 215.714C140.315 215.02 140.964 214.264 141.533 213.454L144.401 223.384C140.616 226.149 135.655 227.747 129.843 227.747ZM109.906 195.501C110.627 197.997 113.318 200.021 115.914 200.021C118.51 200.021 120.032 197.997 119.311 195.501C118.59 193.005 115.899 190.984 113.304 190.984C110.708 190.984 109.186 193.008 109.906 195.501ZM127.772 200.021C125.174 200.021 122.483 197.997 121.762 195.501C121.042 193.008 122.564 190.984 125.162 190.984C127.76 190.984 130.45 193.005 131.171 195.501C131.892 197.997 130.37 200.021 127.772 200.021Z" fill="#7B7BAC" style="fill:#7B7BAC;fill:color(display-p3 0.4824 0.4824 0.6745);fill-opacity:1;"/>
</svg>
