<svg width="521" height="264" viewBox="0 0 521 264" fill="none" xmlns="http://www.w3.org/2000/svg">
<path d="M216.855 237.643C212.805 229.663 209.075 221.563 205.815 213.323C199.375 197.063 194.765 180.253 193.155 162.653C190.735 136.143 195.195 108.613 208.495 85.5533C221.785 62.4933 244.405 44.3533 270.505 39.1133C296.605 33.8733 325.715 42.6933 342.545 63.3233C353.605 76.8933 358.755 94.0133 362.745 111.223C368.285 103.533 373.905 95.2734 381.645 89.7834C389.375 84.3034 399.425 81.2933 408.505 84.0233C417.585 86.7533 424.765 96.3433 422.785 105.613C436.995 96.6334 456.635 96.6933 470.335 106.243C484.045 115.793 490.895 134.193 486.775 150.383C484.295 160.113 478.285 170.193 482.115 179.473C487.355 192.133 507.215 193.483 512.135 206.273C515.305 214.523 510.685 223.453 508.265 231.953C505.855 240.463 507.785 253.403 516.495 254.923L223.365 259.193C221.175 257.153 219.445 254.733 218.245 252.123C216.085 247.493 215.545 242.283 216.855 237.643Z" fill="white" fill-opacity="0.75" style="fill:white;fill-opacity:0.75;"/>
<path d="M205.641 137.636C190.693 166.674 214.71 199.331 227.973 221.302L263.864 199.331L283.828 194.113L303.052 195.819C303.052 195.819 327.585 185.299 323.096 171.717C318.607 158.134 303.052 167.4 297.548 160.824C292.043 154.248 297.298 124.171 281.531 111.403C255.436 90.27 219.993 109.756 205.641 137.636Z" fill="white" fill-opacity="0.4" style="fill:white;fill-opacity:0.4;"/>
<path d="M227.838 227.465L239.215 259.012H283.95C283.95 259.012 307.957 260.925 304.817 251.425C301.677 241.924 290.797 248.405 286.947 243.805C283.097 239.205 286.772 218.167 275.743 209.236C257.49 194.454 227.838 227.465 227.838 227.465Z" fill="white" fill-opacity="0.4" style="fill:white;fill-opacity:0.4;"/>
<path d="M218.245 252.124L181.605 251.964C171.545 227.534 192.785 220.674 205.815 213.324C209.075 221.564 212.805 229.664 216.855 237.644C215.545 242.284 216.085 247.494 218.245 252.124Z" fill="white" fill-opacity="0.75" style="fill:white;fill-opacity:0.75;"/>
<path d="M251.544 204.034C240.874 209.374 230.524 216.304 224.234 226.434C217.944 236.574 216.634 250.504 223.514 261.204C319.464 255.854 415.614 253.994 511.704 255.614C504.784 250.264 505.644 239.624 508.154 231.254C510.664 222.884 514.114 213.644 510.314 205.764C504.874 194.494 488.054 193.184 481.704 182.414C476.854 174.184 479.934 163.774 482.944 154.714C485.964 145.654 488.614 134.984 483.174 127.144C489.694 135.684 485.114 147.974 479.714 157.264C474.314 166.554 468.014 177.304 471.864 187.334C475.054 195.674 484.184 200.124 489.124 207.554C495.724 217.484 492.864 232.474 483.364 240.444C399.634 244.334 315.764 244.914 231.984 242.174C229.604 242.094 226.994 241.924 225.264 240.294C222.314 237.514 223.754 232.584 225.744 229.044C231.614 218.634 240.604 210.014 251.524 204.034H251.544Z" fill="black" fill-opacity="0.15" style="fill:black;fill-opacity:0.15;"/>
<path d="M193.045 250.47C198.406 249.074 203.15 245.45 205.905 240.646C208.66 235.842 209.402 229.917 207.903 224.586C212.848 231.684 215.684 240.231 215.959 248.881C215.988 249.742 215.959 250.678 215.424 251.346C214.734 252.2 213.479 252.289 212.372 252.296C205.697 252.385 199.022 252.467 193.045 250.47Z" fill="black" fill-opacity="0.15" style="fill:black;fill-opacity:0.15;"/>
<path d="M485.467 154.543C491.417 138.683 483.347 123.916 470.045 112.644C455.81 100.58 434.705 99.2033 422.785 105.613" stroke="black" stroke-opacity="0.15" style="stroke:black;stroke-opacity:0.15;" stroke-width="8" stroke-linecap="round" stroke-linejoin="round"/>
<path d="M364.926 121.074C358.296 92.6937 345.546 70.0337 325.166 55.4837C302.606 39.3837 270.786 39.3037 246.256 52.2137C221.726 65.1137 204.146 90.4737 196.176 117.014" stroke="black" stroke-opacity="0.15" style="stroke:black;stroke-opacity:0.15;" stroke-width="8" stroke-linecap="round" stroke-linejoin="round"/>
<path d="M301.285 194.523C275.305 192.193 248.495 201.403 229.425 219.203C223.915 224.343 218.905 230.393 216.855 237.643C215.545 242.283 216.085 247.493 218.245 252.123V252.123C220.603 257.252 226.504 259.193 232.149 259.193H369.732H516.1C507.87 259.193 505.855 240.463 508.265 231.953C510.685 223.453 515.305 214.523 512.135 206.273C507.215 193.483 487.355 192.133 482.115 179.473C478.285 170.193 484.295 160.113 486.775 150.383C490.895 134.193 484.045 115.793 470.335 106.243C456.635 96.693 436.995 96.633 422.785 105.613C424.765 96.343 417.585 86.753 408.505 84.023C399.425 81.293 389.375 84.303 381.645 89.783C373.905 95.273 368.285 103.533 362.745 111.223C362.735 111.223 362.735 111.223 362.735 111.223" stroke="black" style="stroke:black;stroke-opacity:1;" stroke-width="8" stroke-linecap="round" stroke-linejoin="round"/>
<path d="M414.774 117.014C404.044 126.634 391.494 134.204 377.984 139.214" stroke="black" style="stroke:black;stroke-opacity:1;" stroke-width="6" stroke-linecap="round" stroke-linejoin="round"/>
<path d="M496.186 193.433C483.699 188.599 472.026 186.294 458.676 186.294" stroke="black" style="stroke:black;stroke-opacity:1;" stroke-width="6" stroke-linecap="round" stroke-linejoin="round"/>
<path d="M491.224 240.613L445.254 240.614" stroke="black" style="stroke:black;stroke-opacity:1;" stroke-width="6" stroke-linecap="round" stroke-linejoin="round"/>
<path d="M364.925 121.073C364.215 117.803 363.505 114.513 362.745 111.223C358.755 94.0133 353.605 76.8933 342.545 63.3233C325.715 42.6933 296.605 33.8733 270.505 39.1133C244.405 44.3533 221.785 62.4933 208.495 85.5533C195.195 108.613 190.735 136.143 193.155 162.653C194.765 180.253 199.375 197.063 205.815 213.323C209.075 221.563 212.805 229.663 216.855 237.643" stroke="black" style="stroke:black;stroke-opacity:1;" stroke-width="8" stroke-linecap="round" stroke-linejoin="round"/>
<path d="M205.815 213.324C194.846 219.512 178.057 225.466 179.024 241.77C179.408 248.242 185.836 252.124 192.32 252.124H218.245" stroke="black" style="stroke:black;stroke-opacity:1;" stroke-width="8" stroke-linecap="round" stroke-linejoin="round"/>
<path d="M226.566 166.484C226.466 165.254 226.166 164.044 225.676 162.914" stroke="black" style="stroke:black;stroke-opacity:1;" stroke-width="8" stroke-linecap="round" stroke-linejoin="round"/>
<path d="M226.564 166.494V166.484" stroke="black" style="stroke:black;stroke-opacity:1;" stroke-width="8" stroke-linecap="round" stroke-linejoin="round"/>
<ellipse cx="210.319" cy="175.063" rx="6.35279" ry="5.81744" transform="rotate(-3.25097 210.319 175.063)" fill="black" fill-opacity="0.15" style="fill:black;fill-opacity:0.15;"/>
<ellipse cx="290.244" cy="171.688" rx="9.18965" ry="7.6325" transform="rotate(1.98161 290.244 171.688)" fill="black" fill-opacity="0.15" style="fill:black;fill-opacity:0.15;"/>
<path d="M262.271 156.412C263.599 154.451 265.6 153.032 268.004 152.975C270.413 152.913 272.481 154.236 273.901 156.132C275.324 158.032 276.191 160.605 276.261 163.395L276.261 163.397C276.327 166.194 275.583 168.806 274.254 170.772C272.926 172.734 270.926 174.155 268.524 174.218L268.52 174.218C266.112 174.275 264.044 172.953 262.623 171.056C261.201 169.156 260.334 166.583 260.263 163.789L260.263 163.786C260.197 160.99 260.94 158.377 262.271 156.412Z" fill="black" style="fill:black;fill-opacity:1;"/>
<path d="M221.661 156.886C223.072 155.181 225.039 154.065 227.227 154.344C229.417 154.623 231.121 156.203 232.165 158.221C233.212 160.244 233.679 162.831 233.41 165.515C233.146 168.203 232.185 170.61 230.771 172.32C229.361 174.027 227.393 175.143 225.205 174.864C223.014 174.585 221.31 173 220.266 170.981C219.22 168.955 218.752 166.366 219.022 163.682C219.286 160.999 220.247 158.595 221.661 156.886Z" fill="black" style="fill:black;fill-opacity:1;"/>
<path d="M347.329 13.4901C348.303 15.6382 348.347 18.3459 346.917 20.221C345.487 22.1037 341.918 22.9109 340.278 21.2089L340.072 21.3935C337.221 18.3267 334.185 15.6026 331.054 13.4366C330.033 11.6448 329.878 9.4538 330.893 7.6536C331.996 5.689 334.523 4.86678 336.754 5.19821C338.978 5.52846 340.947 6.80194 342.72 8.19198C344.583 9.65019 346.349 11.3333 347.329 13.4901Z" fill="#F2F2F2" style="fill:#F2F2F2;fill:color(display-p3 0.9472 0.9472 0.9472);fill-opacity:1;"/>
<path d="M365.877 70.3438C368.484 86.5979 367.849 103.372 364.498 119.449C363.78 118.774 363.063 118.099 362.329 117.438C355.596 111.249 348.416 105.555 340.866 100.38L341.655 99.2395C345.09 86.4686 347.37 74.374 346.443 60C344.368 50.2994 341.802 44.0887 336.919 36.032L336.929 36.0299C351.791 46.7073 363.774 60.5161 365.877 70.3438Z" fill="#D5D5D5" style="fill:#D5D5D5;fill:color(display-p3 0.8353 0.8353 0.8353);fill-opacity:1;"/>
<path d="M340.866 100.379C348.415 105.554 355.595 111.248 362.329 117.437L362.079 117.705C355.452 111.678 346.736 107.979 337.79 107.418C329.322 106.887 320.843 109.08 312.371 108.53C296.384 107.511 282.779 97.117 267.987 90.9752C255.566 85.8295 241.631 83.6461 228.538 86.6921C215.448 89.7478 199.373 99.7414 194.022 112.063C185.226 112.441 179.415 112.14 172.368 108.218C168.62 106.136 165.655 102.986 164.512 100.51C162.577 96.2918 165.819 91.559 169.171 88.3467C180.132 77.8722 194.413 71.2486 209.236 68.1187C209.461 68.0706 209.696 68.0204 209.921 67.9723C224.538 64.9785 239.68 65.2061 254.471 67.135C285.357 71.1635 315.198 82.7376 340.864 100.369L340.866 100.379Z" fill="#D5D5D5" style="fill:#D5D5D5;fill:color(display-p3 0.8353 0.8353 0.8353);fill-opacity:1;"/>
<path d="M336.918 36.0307C341.801 44.0875 344.367 50.2982 346.442 59.9987C347.369 74.3728 345.088 86.4673 341.654 99.2383L340.865 100.379C315.199 82.7471 285.358 71.1731 254.472 67.1445C239.681 65.2157 224.539 64.9881 209.922 67.9818L209.874 67.7569C216.289 58.0196 221.248 46.3031 231.928 37.4328C252.801 21.1362 281.257 14.9982 306.942 21.2948C311.777 22.4797 316.757 24.3904 321.671 26.8059C326.905 29.378 332.07 32.5375 336.925 36.0189L336.916 36.021L336.918 36.0307Z" fill="#F2F2F2" style="fill:#F2F2F2;fill:color(display-p3 0.9472 0.9472 0.9472);fill-opacity:1;"/>
<path d="M211.928 67.7398C217.047 57.7909 221.249 46.3034 231.93 37.433C252.803 21.1364 281.258 14.9985 306.943 21.2951C311.778 22.48 316.758 24.3906 321.672 26.8061C326.906 29.3783 332.071 32.5377 336.927 36.0191C351.791 46.7063 361.285 61.8777 364.063 74.8634C367.507 90.9612 367.849 103.371 364.498 119.448M211.928 67.7398C226.545 64.746 239.683 65.2159 254.473 67.1447C285.359 71.1733 315.2 82.7474 340.866 100.379C348.416 105.554 355.596 111.248 362.329 117.437M211.928 67.7398C211.703 67.7879 212.153 67.6917 211.928 67.7398ZM211.928 67.7398C197.105 70.8697 177.34 77.3497 168.883 85.453C164.263 89.8797 162.971 95.6317 164.514 100.52C165.577 103.884 168.938 106.842 172.686 108.924C179.732 112.847 187.6 113.685 196.396 113.307C201.747 100.985 215.45 89.7576 228.54 86.7018C241.633 83.6558 255.568 85.8393 267.989 90.985C282.781 97.1267 296.386 107.521 312.373 108.539C320.845 109.089 329.324 106.897 337.793 107.428C346.738 107.989 355.702 111.41 362.329 117.437M364.498 119.448C363.781 118.773 363.063 118.098 362.329 117.437M364.498 119.448C364.08 119.026 362.774 117.843 362.329 117.437" stroke="black" style="stroke:black;stroke-opacity:1;" stroke-width="8" stroke-linecap="round" stroke-linejoin="round"/>
<path d="M331.054 13.4366C330.033 11.6448 329.878 9.4538 330.893 7.6536C331.996 5.689 334.523 4.86678 336.754 5.19821C338.978 5.52846 340.947 6.80194 342.72 8.19198C344.583 9.65019 346.349 11.3333 347.329 13.4901C348.303 15.6382 348.347 18.3459 346.917 20.221C345.487 22.1037 341.918 22.9109 340.278 21.2089" stroke="black" style="stroke:black;stroke-opacity:1;" stroke-width="8" stroke-linecap="round" stroke-linejoin="round"/>
<path d="M331.341 33.441C337.685 38.3659 342.028 45.1986 343.699 49.9676C345.99 56.5065 346.853 63.478 346.57 70.4009C346.159 80.4643 344.232 89.6615 341.656 99.239" stroke="black" style="stroke:black;stroke-opacity:1;" stroke-width="6" stroke-linecap="round" stroke-linejoin="round"/>
<path d="M261.635 42.8541C261.41 44.4941 262.558 46.0059 264.197 46.2301C265.835 46.4543 267.347 45.3064 267.572 43.6664C267.796 42.0264 266.648 40.5161 265.009 40.2919C263.371 40.0677 261.859 41.2156 261.635 42.8541Z" fill="#8D8D8D" style="fill:#8D8D8D;fill:color(display-p3 0.5513 0.5513 0.5513);fill-opacity:1;"/>
<path d="M269.119 43.8776C268.895 45.5176 270.043 47.0294 271.683 47.2537C273.323 47.4781 274.835 46.3303 275.059 44.6903C275.283 43.0502 274.135 41.5399 272.495 41.3155C270.855 41.0911 269.343 42.239 269.119 43.8776Z" fill="#8D8D8D" style="fill:#8D8D8D;fill:color(display-p3 0.5513 0.5513 0.5513);fill-opacity:1;"/>
<path d="M280.141 43.1741C279.054 38.2159 275.019 34.2363 269.746 33.5148C262.973 32.5881 256.723 37.387 255.786 44.2333C254.85 51.0796 259.581 57.3808 266.353 58.3075C271.996 59.0796 277.276 55.8771 279.422 50.8274L278.178 59.9254" stroke="#8D8D8D" style="stroke:#8D8D8D;stroke:color(display-p3 0.5513 0.5513 0.5513);stroke-opacity:1;" stroke-width="5" stroke-linecap="round" stroke-linejoin="round"/>
<path d="M230.915 237.253L238.246 258.175C238.246 258.175 234.665 259.193 231.695 259.193H52.0949L4.29492 139.033H192.355L222.765 216.503L230.915 237.253Z" fill="white" style="fill:white;fill-opacity:1;"/>
<path d="M191.671 138.429L52.0221 258.372H239.598L233.474 239.942L191.671 138.429Z" fill="black" fill-opacity="0.15" style="fill:black;fill-opacity:0.15;"/>
<path d="M192.355 139.033L239.264 259.193H52.0949L4.29492 139.033H192.355Z" stroke="black" style="stroke:black;stroke-opacity:1;" stroke-width="8" stroke-linecap="round" stroke-linejoin="round"/>
<path d="M149.875 119.978L149.874 95.417" stroke="white" stroke-opacity="0.3" style="stroke:white;stroke-opacity:0.3;" stroke-width="8" stroke-linecap="round" stroke-linejoin="round"/>
<path d="M164.629 119.978L172.855 105.731" stroke="white" stroke-opacity="0.3" style="stroke:white;stroke-opacity:0.3;" stroke-width="8" stroke-linecap="round" stroke-linejoin="round"/>
<path d="M135.117 119.978L126.891 105.731" stroke="white" stroke-opacity="0.3" style="stroke:white;stroke-opacity:0.3;" stroke-width="8" stroke-linecap="round" stroke-linejoin="round"/>
<path fill-rule="evenodd" clip-rule="evenodd" d="M130.046 227.737C113.592 227.737 96.551 214.922 91.9851 199.113C87.4192 183.305 97.057 170.489 113.512 170.489C129.967 170.489 147.007 183.305 151.573 199.113C153.773 206.732 152.675 213.655 149.105 218.784L144.544 202.991C144.156 201.649 142.838 200.798 141.455 200.997C140.072 201.197 139.048 202.385 139.056 203.782C139.073 207.064 137.896 209.77 135.92 211.663C133.939 213.562 130.971 214.815 127.123 214.815C122.473 214.815 117.587 212.971 113.482 209.858C109.379 206.746 106.248 202.509 104.937 197.971C103.636 193.465 104.402 189.681 106.334 187.074C108.262 184.471 111.616 182.681 116.225 182.681C123.519 182.681 131.3 187.225 135.674 193.746C135.976 194.196 136.26 194.654 136.526 195.118C137.294 196.46 139.004 196.925 140.345 196.157C141.687 195.389 142.152 193.679 141.384 192.338C141.051 191.756 140.697 191.186 140.323 190.628C135.059 182.78 125.638 177.083 116.225 177.083C110.105 177.083 104.967 179.516 101.836 183.741C98.7091 187.962 97.8512 193.611 99.5592 199.524C101.258 205.405 105.2 210.602 110.099 214.318C114.998 218.033 121.044 220.412 127.123 220.412C132.214 220.412 136.633 218.733 139.793 215.705C140.518 215.01 141.167 214.254 141.736 213.444L144.604 223.374C140.819 226.139 135.858 227.737 130.046 227.737ZM110.109 195.492C110.83 197.987 113.521 200.011 116.117 200.011C118.713 200.011 120.235 197.987 119.514 195.492C118.793 192.996 116.103 190.974 113.507 190.974C110.911 190.974 109.389 192.998 110.109 195.492ZM127.975 200.011C125.377 200.011 122.686 197.987 121.966 195.492C121.245 192.998 122.767 190.974 125.365 190.974C127.963 190.974 130.654 192.996 131.374 195.492C132.095 197.987 130.573 200.011 127.975 200.011Z" fill="#8D8D8D" style="fill:#8D8D8D;fill:color(display-p3 0.5513 0.5513 0.5513);fill-opacity:1;"/>
</svg>
