<svg width="656" height="461" viewBox="0 0 656 461" fill="none" xmlns="http://www.w3.org/2000/svg">
<rect x="338.271" y="4.94336" width="313.456" height="197.972" rx="8" fill="white" fill-opacity="0.75" style="fill:white;fill-opacity:0.75;"/>
<path d="M341.689 197.207H648.714V103.23V56.2422H571.958L495.202 103.23L341.689 197.207Z" fill="#BCBBFF" fill-opacity="0.4" style="fill:#BCBBFF;fill:color(display-p3 0.7373 0.7333 1.0000);fill-opacity:0.4;"/>
<path d="M338.271 60.7829V194.916C338.271 199.334 341.853 202.916 346.271 202.916H643.728C648.146 202.916 651.728 199.334 651.728 194.916V60.7829M338.271 60.7829V12.9434C338.271 8.52508 341.853 4.94336 346.271 4.94336H643.728C648.146 4.94336 651.728 8.52508 651.728 12.9434V60.7829M338.271 60.7829H651.728" stroke="black" style="stroke:black;stroke-opacity:1;" stroke-width="8" stroke-linecap="round" stroke-linejoin="round"/>
<circle cx="366.387" cy="32.3123" r="10.032" fill="#BCBBFF" fill-opacity="0.75" style="fill:#BCBBFF;fill:color(display-p3 0.7373 0.7333 1.0000);fill-opacity:0.75;"/>
<circle cx="394.434" cy="32.3123" r="10.032" fill="#BCBBFF" fill-opacity="0.75" style="fill:#BCBBFF;fill:color(display-p3 0.7373 0.7333 1.0000);fill-opacity:0.75;"/>
<circle cx="422.481" cy="32.3123" r="10.032" fill="#BCBBFF" fill-opacity="0.75" style="fill:#BCBBFF;fill:color(display-p3 0.7373 0.7333 1.0000);fill-opacity:0.75;"/>
<circle cx="438.239" cy="130.024" r="38.3797" fill="white" fill-opacity="0.75" stroke="black" style="fill:white;fill-opacity:0.75;stroke:black;stroke-opacity:1;" stroke-width="8" stroke-linecap="round" stroke-linejoin="round"/>
<circle cx="495.202" cy="130.024" r="38.3797" fill="white" fill-opacity="0.75" stroke="black" style="fill:white;fill-opacity:0.75;stroke:black;stroke-opacity:1;" stroke-width="6" stroke-linecap="round" stroke-linejoin="round" stroke-dasharray="12 12"/>
<circle cx="552.163" cy="130.024" r="38.3797" fill="#BCBBFF" fill-opacity="0.75" style="fill:#BCBBFF;fill:color(display-p3 0.7373 0.7333 1.0000);fill-opacity:0.75;"/>
<ellipse cx="176.973" cy="451.74" rx="122.897" ry="9.19141" fill="black" fill-opacity="0.15" style="fill:black;fill-opacity:0.15;"/>
<path d="M348.129 154.36C354.619 158.58 358.729 166.74 357.009 174.29C355.139 182.52 347.479 187.89 340.639 192.85C321.799 206.49 300.959 226.18 286.859 244.67C295.159 221.2 303.019 197.43 305.039 172.62C305.309 169.39 305.449 166.14 305.469 162.89H305.479C311.519 158.04 318.239 153.34 325.739 151.43C333.249 149.53 341.629 150.15 348.129 154.36Z" fill="white" fill-opacity="0.75" style="fill:white;fill-opacity:0.75;"/>
<path d="M286.35 246.11C286.33 246.18 286.3 246.24 286.28 246.31C292.1 254.4 299.87 268.08 299.87 268.08C299.87 268.08 325.35 309.59 337.27 328.32C338.14 329.67 338.5 331.32 338.12 332.88C337.02 337.36 331.62 336.85 327.89 335.38C324.52 334.06 319.9 330.91 317.61 334.84C308.85 350.11 291.42 361.17 273.74 360.73C265.84 360.54 258.15 358.27 250.32 357.11C242.5 355.96 232.69 357.15 225.92 361.24C220.63 369.05 215.42 376.99 208.94 383.68C194.99 398.06 174.85 406.23 154.83 405.63C134.8 405.03 115.19 395.66 102.13 380.46C96.28 373.65 85.7668 355.255 78.1468 350.495C68.8868 344.725 55.84 331.174 45.14 329.034C32.2968 323.376 30.7359 322.4 18.835 313.62C10.125 301.52 0.321454 291.936 5.37145 277.916C11.4715 260.976 30.55 259.88 45.14 249.34C73.66 228.76 100.07 205.26 123.85 179.34C127.85 174.98 130.36 169.49 131.25 163.64C134.45 142.45 142.88 121.67 156.93 105.39C172.89 86.9103 196.2 74.6103 220.57 73.2603C244.95 71.9203 270 81.9803 285.65 100.72C299.9 117.79 305.63 140.51 305.47 162.89C305.45 166.14 305.31 169.39 305.04 172.62C303.02 197.43 295.16 221.2 286.86 244.67L286.35 246.11Z" fill="white" fill-opacity="0.75" style="fill:white;fill-opacity:0.75;"/>
<path d="M11.5347 267.692L42.27 255.452C42.27 255.452 19.2554 267.916 17.3754 282.016C15.4954 296.116 31.1209 308.797 43.6109 315.597C59.6809 324.347 72.831 329.181 90.241 334.831C109.121 340.961 119.771 361.101 137.001 370.971C152.421 379.801 172.801 379.101 187.581 369.241C196.021 363.611 202.421 355.511 209.601 348.341C216.781 341.171 225.391 334.601 235.471 333.481C254.361 331.371 272.621 348.791 290.761 343.131C304.541 338.831 314.061 322.03 328.411 323.64C333.081 324.17 338.081 328.761 335.941 332.941C334.681 335.411 331.421 336.291 328.711 335.681C326.001 335.071 323.721 333.311 320.411 332.451C309.411 350.571 288.121 361.921 266.951 360.961C253.301 360.341 239.031 355.121 225.441 359.991C215.881 382.501 194.471 399.57 170.391 403.88C146.311 408.19 120.311 399.601 103.531 381.801C96.551 374.401 87.7758 354.754 78.9658 349.674C68.5358 343.664 43.6109 329.867 43.6109 329.867L8.04298 300.901L4.30274 279.652L11.5347 267.692Z" fill="#BCBBFF" fill-opacity="0.4" style="fill:#BCBBFF;fill:color(display-p3 0.7373 0.7333 1.0000);fill-opacity:0.4;"/>
<path d="M307.611 165.729C305.361 171.679 303.631 177.969 304.021 184.319C304.421 190.669 307.241 197.11 312.511 200.66C317.781 204.21 325.641 204.079 330.011 199.449C316.131 212.999 302.251 226.55 288.371 240.1C294.261 221.15 300.141 202.189 306.031 183.239" fill="#BCBBFF" fill-opacity="0.4" style="fill:#BCBBFF;fill:color(display-p3 0.7373 0.7333 1.0000);fill-opacity:0.4;"/>
<path d="M267.171 84.9399C244.901 75.8699 215.161 75.4299 193.171 85.1699C171.181 94.9099 153.461 113.87 145.211 136.46C142.421 144.11 140.671 152.13 137.751 159.73C134.831 167.33 127.741 175.85 118.031 185.56" stroke="#BCBBFF" stroke-opacity="0.4" style="stroke:#BCBBFF;stroke:color(display-p3 0.7373 0.7333 1.0000);stroke-opacity:0.4;" stroke-width="8" stroke-linecap="round" stroke-linejoin="round"/>
<path d="M125.833 220.267C115.62 228.933 99.4861 234.473 90.7155 240.142C81.961 245.815 74.9368 255.517 75.6744 266.231C76.4941 278.234 87.1448 288.181 98.7131 290.985C110.278 293.806 122.346 290.755 132.965 285.848" stroke="black" style="stroke:black;stroke-opacity:1;" stroke-width="8" stroke-linecap="round" stroke-linejoin="round"/>
<path d="M286.859 244.67C300.959 226.18 321.799 206.49 340.639 192.85C347.479 187.89 355.139 182.52 357.009 174.29C358.729 166.74 354.619 158.58 348.129 154.36C341.629 150.15 333.249 149.53 325.739 151.43C318.239 153.34 311.519 158.04 305.479 162.89" stroke="black" style="stroke:black;stroke-opacity:1;" stroke-width="8" stroke-linecap="round" stroke-linejoin="round"/>
<path d="M299.871 268.08C299.871 268.08 292.101 254.4 286.281 246.31" stroke="black" style="stroke:black;stroke-opacity:1;" stroke-width="8" stroke-linecap="round" stroke-linejoin="round"/>
<path d="M225.922 361.24C232.692 357.15 242.502 355.96 250.322 357.11C258.152 358.27 265.842 360.54 273.742 360.73C291.422 361.17 308.852 350.11 317.612 334.84C319.902 330.91 324.522 334.06 327.892 335.38C331.622 336.85 337.022 337.36 338.122 332.88C338.502 331.32 338.142 329.67 337.272 328.32C325.352 309.59 299.872 268.08 299.872 268.08" stroke="black" style="stroke:black;stroke-opacity:1;" stroke-width="8" stroke-linecap="round" stroke-linejoin="round"/>
<path d="M101.191 336.258C108.106 337.174 114.692 333.453 120.676 329.871C134.176 321.776 147.684 313.675 161.191 305.581" stroke="black" style="stroke:black;stroke-opacity:1;" stroke-width="6" stroke-linecap="round" stroke-linejoin="round"/>
<path d="M309.779 321.08C302.139 311.65 294.499 302.23 286.859 292.8" stroke="black" style="stroke:black;stroke-opacity:1;" stroke-width="6" stroke-linecap="round" stroke-linejoin="round"/>
<path d="M15.8854 277.695C23.5254 268.265 40.7185 258.732 51.7793 246.542" stroke="black" style="stroke:black;stroke-opacity:1;" stroke-width="6" stroke-linecap="round" stroke-linejoin="round"/>
<path d="M287.96 241.29C287.42 242.9 286.89 244.5 286.35 246.11C286.33 246.18 286.3 246.24 286.28 246.31C284.85 250.59 283.42 254.86 282 259.14" stroke="black" style="stroke:black;stroke-opacity:1;" stroke-width="8" stroke-linecap="round" stroke-linejoin="round"/>
<path d="M224.727 361.24C231.857 350.73 239.107 340.47 249.787 333.88" stroke="black" style="stroke:black;stroke-opacity:1;" stroke-width="6" stroke-linecap="round" stroke-linejoin="round"/>
<ellipse cx="6.72413" cy="6.57367" rx="6.72413" ry="6.57367" transform="matrix(-0.98011 0.198457 0.198457 0.98011 295.277 129.605)" fill="#BCBBFF" fill-opacity="0.4" style="fill:#BCBBFF;fill:color(display-p3 0.7373 0.7333 1.0000);fill-opacity:0.4;"/>
<ellipse cx="10.2568" cy="8.51883" rx="10.2568" ry="8.51883" transform="matrix(-0.994472 -0.105 -0.105 0.994472 224.93 139.756)" fill="#BCBBFF" fill-opacity="0.4" style="fill:#BCBBFF;fill:color(display-p3 0.7373 0.7333 1.0000);fill-opacity:0.4;"/>
<path d="M238.406 124.774C236.74 123.153 234.512 122.166 232.139 122.538C229.759 122.905 227.97 124.523 226.922 126.568C225.873 128.617 225.494 131.205 225.938 133.856L225.939 133.859C226.388 136.516 227.599 138.855 229.267 140.479C230.933 142.101 233.16 143.091 235.533 142.724L235.537 142.724C237.914 142.351 239.704 140.735 240.752 138.689C241.801 136.64 242.179 134.052 241.736 131.396L241.735 131.394C241.286 128.737 240.075 126.397 238.406 124.774Z" fill="black" style="fill:black;fill-opacity:1;"/>
<path d="M276.702 119.715C275.069 118.24 272.955 117.409 270.803 117.96C268.648 118.511 267.151 120.264 266.37 122.358C265.587 124.456 265.458 127.028 266.078 129.599C266.692 132.175 267.968 134.389 269.606 135.869C271.24 137.346 273.354 138.178 275.506 137.626C277.662 137.075 279.159 135.318 279.939 133.223C280.722 131.122 280.851 128.548 280.231 125.976C279.616 123.405 278.34 121.194 276.702 119.715Z" fill="black" style="fill:black;fill-opacity:1;"/>
<path d="M286.35 246.11L286.86 244.67C295.16 221.2 303.02 197.43 305.04 172.62C305.31 169.39 305.45 166.14 305.47 162.89C305.63 140.51 299.9 117.79 285.65 100.72C270 81.9803 244.95 71.9203 220.57 73.2603C196.2 74.6103 172.89 86.9103 156.93 105.39C142.88 121.67 134.45 142.45 131.25 163.64C130.36 169.49 127.85 174.98 123.85 179.34C117.488 186.274 110.938 193.035 104.21 199.614C79.6904 222.625 48.3141 251.461 35.2829 257.503C29.1474 260.348 23.2005 262.723 19.0531 264.298C15.2793 265.731 11.3431 267.141 8.72901 270.217C5.20789 274.36 1.65613 282.241 6.0584 295.68C13.3672 317.99 69.6404 339.392 81.5252 352.616C93.4101 365.84 97.3088 373.65 103.159 380.46C116.219 395.66 134.8 405.03 154.83 405.63C174.85 406.23 194.99 398.06 208.94 383.68C215.42 376.99 220.63 369.05 225.92 361.24" stroke="black" style="stroke:black;stroke-opacity:1;" stroke-width="8" stroke-linecap="round" stroke-linejoin="round"/>
</svg>
