<svg width="656" height="461" viewBox="0 0 656 461" fill="none" xmlns="http://www.w3.org/2000/svg">
<rect x="338.271" y="4.93164" width="313.456" height="197.972" rx="8" fill="white" fill-opacity="0.75" style="fill:white;fill-opacity:0.75;"/>
<path d="M341.689 197.195H648.714V103.219V56.2305H571.958L495.202 103.219L341.689 197.195Z" fill="#BCBBFF" fill-opacity="0.4" style="fill:#BCBBFF;fill:color(display-p3 0.7373 0.7333 1.0000);fill-opacity:0.4;"/>
<path d="M338.271 60.7712V194.904C338.271 199.322 341.853 202.904 346.271 202.904H643.728C648.146 202.904 651.728 199.322 651.728 194.904V60.7712M338.271 60.7712V12.9316C338.271 8.51336 341.853 4.93164 346.271 4.93164H643.728C648.146 4.93164 651.728 8.51336 651.728 12.9316V60.7712M338.271 60.7712H651.728" stroke="black" style="stroke:black;stroke-opacity:1;" stroke-width="8" stroke-linecap="round" stroke-linejoin="round"/>
<circle cx="366.387" cy="32.3005" r="10.032" fill="#BCBBFF" fill-opacity="0.75" style="fill:#BCBBFF;fill:color(display-p3 0.7373 0.7333 1.0000);fill-opacity:0.75;"/>
<circle cx="394.434" cy="32.3005" r="10.032" fill="#BCBBFF" fill-opacity="0.75" style="fill:#BCBBFF;fill:color(display-p3 0.7373 0.7333 1.0000);fill-opacity:0.75;"/>
<circle cx="422.481" cy="32.3005" r="10.032" fill="#BCBBFF" fill-opacity="0.75" style="fill:#BCBBFF;fill:color(display-p3 0.7373 0.7333 1.0000);fill-opacity:0.75;"/>
<circle cx="438.239" cy="130.012" r="38.3797" fill="white" fill-opacity="0.75" stroke="black" style="fill:white;fill-opacity:0.75;stroke:black;stroke-opacity:1;" stroke-width="8" stroke-linecap="round" stroke-linejoin="round"/>
<circle cx="495.202" cy="130.012" r="38.3797" fill="white" fill-opacity="0.75" stroke="black" style="fill:white;fill-opacity:0.75;stroke:black;stroke-opacity:1;" stroke-width="6" stroke-linecap="round" stroke-linejoin="round" stroke-dasharray="12 12"/>
<circle cx="552.163" cy="130.012" r="38.3797" fill="#BCBBFF" fill-opacity="0.75" style="fill:#BCBBFF;fill:color(display-p3 0.7373 0.7333 1.0000);fill-opacity:0.75;"/>
<ellipse cx="176.973" cy="451.729" rx="122.897" ry="9.19141" fill="black" fill-opacity="0.15" style="fill:black;fill-opacity:0.15;"/>
<path d="M348.129 154.349C354.619 158.569 358.729 166.729 357.009 174.279C355.139 182.509 347.479 187.879 340.639 192.839C321.799 206.479 300.959 226.169 286.859 244.659C295.159 221.189 303.019 197.419 305.039 172.609C305.309 169.379 305.449 166.129 305.469 162.879H305.479C311.519 158.029 318.239 153.329 325.739 151.419C333.249 149.519 341.629 150.139 348.129 154.349Z" fill="white" fill-opacity="0.75" style="fill:white;fill-opacity:0.75;"/>
<path d="M286.35 246.099C286.33 246.169 286.3 246.229 286.28 246.299C292.1 254.389 299.87 268.069 299.87 268.069C299.87 268.069 325.35 309.579 337.27 328.309C338.14 329.659 338.5 331.309 338.12 332.869C337.02 337.349 331.62 336.839 327.89 335.369C324.52 334.049 319.9 330.899 317.61 334.829C308.85 350.099 291.42 361.159 273.74 360.719C265.84 360.529 258.15 358.259 250.32 357.099C242.5 355.949 232.69 357.139 225.92 361.229C220.63 369.039 215.42 376.979 208.94 383.669C194.99 398.049 174.85 406.219 154.83 405.619C134.8 405.019 115.19 395.649 102.13 380.449C96.28 373.639 85.7668 355.244 78.1468 350.484C68.8868 344.714 55.84 331.162 45.14 329.022C32.2968 323.364 30.7359 322.388 18.835 313.608C10.125 301.508 0.321454 291.924 5.37145 277.904C11.4715 260.964 30.55 259.869 45.14 249.329C73.66 228.749 100.07 205.249 123.85 179.329C127.85 174.969 130.36 169.479 131.25 163.629C134.45 142.439 142.88 121.659 156.93 105.379C172.89 86.8986 196.2 74.5986 220.57 73.2486C244.95 71.9086 270 81.9686 285.65 100.709C299.9 117.779 305.63 140.499 305.47 162.879C305.45 166.129 305.31 169.379 305.04 172.609C303.02 197.419 295.16 221.189 286.86 244.659L286.35 246.099Z" fill="white" fill-opacity="0.75" style="fill:white;fill-opacity:0.75;"/>
<path d="M11.5347 267.68L42.27 255.441C42.27 255.441 19.2554 267.905 17.3754 282.005C15.4954 296.105 31.1209 308.785 43.6109 315.585C59.6809 324.335 72.831 329.169 90.241 334.819C109.121 340.949 119.771 361.089 137.001 370.959C152.421 379.789 172.801 379.089 187.581 369.229C196.021 363.599 202.421 355.499 209.601 348.329C216.781 341.159 225.391 334.589 235.471 333.469C254.361 331.359 272.621 348.779 290.761 343.119C304.541 338.819 314.061 322.019 328.411 323.629C333.081 324.159 338.081 328.749 335.941 332.929C334.681 335.399 331.421 336.279 328.711 335.669C326.001 335.059 323.721 333.299 320.411 332.439C309.411 350.559 288.121 361.909 266.951 360.949C253.301 360.329 239.031 355.109 225.441 359.979C215.881 382.489 194.471 399.559 170.391 403.869C146.311 408.179 120.311 399.589 103.531 381.789C96.551 374.389 87.7758 354.742 78.9658 349.662C68.5358 343.652 43.6109 329.855 43.6109 329.855L8.04298 300.889L4.30274 279.64L11.5347 267.68Z" fill="#BCBBFF" fill-opacity="0.4" style="fill:#BCBBFF;fill:color(display-p3 0.7373 0.7333 1.0000);fill-opacity:0.4;"/>
<path d="M307.611 165.718C305.361 171.668 303.631 177.958 304.021 184.308C304.421 190.658 307.241 197.098 312.511 200.648C317.781 204.198 325.641 204.068 330.011 199.438C316.131 212.988 302.251 226.538 288.371 240.088C294.261 221.138 300.141 202.178 306.031 183.228" fill="#BCBBFF" fill-opacity="0.4" style="fill:#BCBBFF;fill:color(display-p3 0.7373 0.7333 1.0000);fill-opacity:0.4;"/>
<path d="M267.171 84.9282C244.901 75.8582 215.161 75.4182 193.171 85.1582C171.181 94.8982 153.461 113.858 145.211 136.448C142.421 144.098 140.671 152.118 137.751 159.718C134.831 167.318 127.741 175.838 118.031 185.548" stroke="#BCBBFF" stroke-opacity="0.4" style="stroke:#BCBBFF;stroke:color(display-p3 0.7373 0.7333 1.0000);stroke-opacity:0.4;" stroke-width="8" stroke-linecap="round" stroke-linejoin="round"/>
<path d="M125.833 220.255C115.62 228.921 99.4861 234.461 90.7155 240.13C81.961 245.803 74.9368 255.505 75.6744 266.219C76.4941 278.222 87.1448 288.169 98.7131 290.973C110.278 293.794 122.346 290.743 132.965 285.836" stroke="black" style="stroke:black;stroke-opacity:1;" stroke-width="8" stroke-linecap="round" stroke-linejoin="round"/>
<path d="M286.859 244.659C300.959 226.169 321.799 206.479 340.639 192.839C347.479 187.879 355.139 182.509 357.009 174.279C358.729 166.729 354.619 158.569 348.129 154.349C341.629 150.139 333.249 149.519 325.739 151.419C318.239 153.329 311.519 158.029 305.479 162.879" stroke="black" style="stroke:black;stroke-opacity:1;" stroke-width="8" stroke-linecap="round" stroke-linejoin="round"/>
<path d="M299.871 268.068C299.871 268.068 292.101 254.388 286.281 246.298" stroke="black" style="stroke:black;stroke-opacity:1;" stroke-width="8" stroke-linecap="round" stroke-linejoin="round"/>
<path d="M225.922 361.228C232.692 357.138 242.502 355.948 250.322 357.098C258.152 358.258 265.842 360.528 273.742 360.718C291.422 361.158 308.852 350.098 317.612 334.828C319.902 330.898 324.522 334.048 327.892 335.368C331.622 336.838 337.022 337.348 338.122 332.868C338.502 331.308 338.142 329.658 337.272 328.308C325.352 309.578 299.872 268.068 299.872 268.068" stroke="black" style="stroke:black;stroke-opacity:1;" stroke-width="8" stroke-linecap="round" stroke-linejoin="round"/>
<path d="M101.191 336.246C108.106 337.162 114.692 333.441 120.676 329.859C134.176 321.765 147.684 313.663 161.191 305.569" stroke="black" style="stroke:black;stroke-opacity:1;" stroke-width="6" stroke-linecap="round" stroke-linejoin="round"/>
<path d="M309.779 321.068C302.139 311.638 294.499 302.218 286.859 292.788" stroke="black" style="stroke:black;stroke-opacity:1;" stroke-width="6" stroke-linecap="round" stroke-linejoin="round"/>
<path d="M15.8854 277.682C23.5254 268.252 40.7185 258.72 51.7793 246.529" stroke="black" style="stroke:black;stroke-opacity:1;" stroke-width="6" stroke-linecap="round" stroke-linejoin="round"/>
<path d="M287.96 241.278C287.42 242.888 286.89 244.488 286.35 246.098C286.33 246.168 286.3 246.228 286.28 246.298C284.85 250.578 283.42 254.848 282 259.128" stroke="black" style="stroke:black;stroke-opacity:1;" stroke-width="8" stroke-linecap="round" stroke-linejoin="round"/>
<path d="M224.727 361.228C231.857 350.718 239.107 340.458 249.787 333.868" stroke="black" style="stroke:black;stroke-opacity:1;" stroke-width="6" stroke-linecap="round" stroke-linejoin="round"/>
<ellipse cx="6.72413" cy="6.57367" rx="6.72413" ry="6.57367" transform="matrix(-0.98011 0.198457 0.198457 0.98011 295.277 129.594)" fill="#BCBBFF" fill-opacity="0.4" style="fill:#BCBBFF;fill:color(display-p3 0.7373 0.7333 1.0000);fill-opacity:0.4;"/>
<ellipse cx="10.2568" cy="8.51883" rx="10.2568" ry="8.51883" transform="matrix(-0.994472 -0.105 -0.105 0.994472 224.93 139.744)" fill="#BCBBFF" fill-opacity="0.4" style="fill:#BCBBFF;fill:color(display-p3 0.7373 0.7333 1.0000);fill-opacity:0.4;"/>
<path d="M238.406 124.762C236.74 123.142 234.512 122.154 232.139 122.526C229.759 122.893 227.97 124.512 226.922 126.557C225.873 128.605 225.494 131.193 225.938 133.844L225.939 133.847C226.388 136.504 227.599 138.843 229.267 140.468C230.933 142.089 233.16 143.079 235.533 142.713L235.537 142.712C237.914 142.34 239.704 140.723 240.752 138.677C241.801 136.628 242.179 134.041 241.736 131.385L241.735 131.382C241.286 128.725 240.075 126.385 238.406 124.762Z" fill="black" style="fill:black;fill-opacity:1;"/>
<path d="M276.702 119.703C275.069 118.229 272.955 117.397 270.803 117.949C268.648 118.5 267.151 120.252 266.37 122.346C265.587 124.444 265.458 127.016 266.078 129.588C266.692 132.164 267.968 134.378 269.606 135.858C271.24 137.334 273.354 138.166 275.506 137.614C277.662 137.063 279.159 135.306 279.939 133.211C280.722 131.111 280.851 128.537 280.231 125.965C279.616 123.393 278.34 121.182 276.702 119.703Z" fill="black" style="fill:black;fill-opacity:1;"/>
<path d="M286.35 246.099L286.86 244.659C295.16 221.189 303.02 197.419 305.04 172.609C305.31 169.379 305.45 166.129 305.47 162.879C305.63 140.499 299.9 117.779 285.65 100.709C270 81.9686 244.95 71.9086 220.57 73.2486C196.2 74.5986 172.89 86.8986 156.93 105.379C142.88 121.659 134.45 142.439 131.25 163.629C130.36 169.479 127.85 174.969 123.85 179.329C117.488 186.263 110.938 193.024 104.21 199.602C79.6904 222.613 48.3141 251.45 35.2829 257.491C29.1474 260.336 23.2005 262.712 19.0531 264.286C15.2793 265.719 11.3431 267.129 8.72901 270.205C5.20789 274.348 1.65613 282.23 6.0584 295.668C13.3672 317.978 69.6404 339.38 81.5252 352.604C93.4101 365.828 97.3088 373.638 103.159 380.448C116.219 395.648 134.8 405.019 154.83 405.619C174.85 406.219 194.99 398.049 208.94 383.669C215.42 376.979 220.63 369.039 225.92 361.229" stroke="black" style="stroke:black;stroke-opacity:1;" stroke-width="8" stroke-linecap="round" stroke-linejoin="round"/>
<path d="M130.183 43.0115C129.705 45.1995 130.202 47.7224 131.902 49.1797C133.604 50.6437 137.079 50.6843 138.263 48.7783L138.491 48.9086C140.529 45.4947 142.807 42.3623 145.284 39.7293C145.877 37.8626 145.585 35.7975 144.285 34.3275C142.871 32.7223 140.361 32.4607 138.355 33.2117C136.356 33.9601 134.78 35.5337 133.41 37.1765C131.97 38.9005 130.664 40.8141 130.183 43.0115Z" fill="#E5E5FF" style="fill:#E5E5FF;fill:color(display-p3 0.8980 0.8980 1.0000);fill-opacity:1;"/>
<path d="M124.252 99.487C125.059 115.098 128.981 130.547 135.286 144.809C135.818 144.04 136.35 143.271 136.9 142.511C141.923 135.427 147.459 128.714 153.441 122.409L152.482 121.507C146.757 110.331 142.237 99.5535 140.243 86.0224C140.243 76.603 141.392 70.3264 144.326 61.8755H144.316C132.637 74.7418 124.252 89.9441 124.252 99.487Z" fill="#BCBBFF" style="fill:#BCBBFF;fill:color(display-p3 0.7391 0.7337 1.0000);fill-opacity:1;"/>
<path d="M153.442 122.409C147.46 128.714 141.924 135.427 136.901 142.51L137.186 142.71C142.142 135.797 149.501 130.632 157.696 128.334C165.454 126.159 173.762 126.511 181.52 124.317C196.162 120.196 206.73 107.843 219.245 99.2017C229.757 91.9566 242.262 87.1614 255.024 87.3893C267.786 87.6267 284.698 93.7133 292.114 104.092C300.356 102.696 305.692 101.262 311.456 96.2201C314.523 93.5424 316.65 90.0291 317.22 87.5033C318.179 83.2018 314.228 79.4511 310.478 77.1342C298.219 69.5853 283.644 66.2714 269.258 66.3094C269.04 66.3094 268.812 66.3094 268.593 66.3094C254.426 66.4328 240.411 69.6518 227.06 74.3805C199.181 84.2558 173.772 100.93 153.442 122.399V122.409Z" fill="#BCBBFF" style="fill:#BCBBFF;fill:color(display-p3 0.7391 0.7337 1.0000);fill-opacity:1;"/>
<path d="M144.327 61.8746C141.393 70.3255 140.244 76.602 140.244 86.0215C142.238 99.5526 146.757 110.33 152.483 121.506L153.442 122.408C173.772 100.939 199.182 84.2649 227.061 74.3896C240.411 69.6609 254.427 66.4419 268.594 66.3185V66.1001C260.703 58.3328 253.771 48.4385 242.092 42.3234C219.474 31.3372 191.832 31.2897 169.233 42.238C164.979 44.2985 160.735 47.0617 156.652 50.2806C152.303 53.7085 148.134 57.6681 144.317 61.8651H144.327V61.8746Z" fill="#E5E5FF" style="fill:#E5E5FF;fill:color(display-p3 0.8980 0.8980 1.0000);fill-opacity:1;"/>
<path d="M266.684 66.4918C259.955 58.2706 253.772 48.4385 242.092 42.3234C219.474 31.3372 191.833 31.2897 169.233 42.238C164.98 44.2985 160.735 47.0617 156.652 50.2806C152.303 53.7085 148.135 57.6681 144.317 61.8651C132.638 74.7409 126.835 90.7141 126.835 103.323C126.835 118.955 128.982 130.546 135.287 144.808M266.684 66.4918C252.517 66.6152 240.411 69.6609 227.061 74.3896C199.182 84.2649 173.772 100.939 153.443 122.408C147.46 128.713 141.925 135.426 136.901 142.51M266.684 66.4918C266.903 66.4918 266.466 66.4918 266.684 66.4918ZM266.684 66.4918C281.07 66.4538 300.709 68.5451 310.171 74.3896C315.34 77.5824 317.682 82.6668 317.22 87.5123C316.902 90.8466 314.369 94.2609 311.302 96.9386C305.538 101.981 298.399 104.322 290.157 105.718C282.741 95.3392 267.787 87.6358 255.025 87.3984C242.263 87.1705 229.758 91.9657 219.246 99.2107C206.731 107.852 196.163 120.205 181.521 124.326C173.763 126.52 165.454 126.168 157.696 128.343C149.502 130.641 141.858 135.597 136.901 142.51M135.287 144.808C135.819 144.039 136.351 143.27 136.901 142.51M135.287 144.808C135.591 144.333 136.569 142.975 136.901 142.51" stroke="black" style="stroke:black;stroke-opacity:1;" stroke-width="8" stroke-linecap="round" stroke-linejoin="round"/>
<path d="M145.284 39.7293C145.877 37.8626 145.585 35.7975 144.285 34.3275C142.871 32.7223 140.361 32.4607 138.355 33.2117C136.356 33.9601 134.78 35.5337 133.41 37.1765C131.97 38.9005 130.664 40.8141 130.183 43.0115C129.705 45.1995 130.202 47.7224 131.902 49.1797C133.604 50.6437 137.079 50.6843 138.263 48.7783" stroke="black" style="stroke:black;stroke-opacity:1;" stroke-width="8" stroke-linecap="round" stroke-linejoin="round"/>
<path d="M148.993 58.3609C144.081 64.1939 141.406 71.4009 140.801 76.161C139.973 82.6877 140.556 89.3324 142.194 95.7044C144.575 104.967 148.19 113.124 152.484 121.506" stroke="black" style="stroke:black;stroke-opacity:1;" stroke-width="6" stroke-linecap="round" stroke-linejoin="round"/>
<path d="M195.898 58.6215C196.594 60.2551 198.484 61.0149 200.116 60.3189C201.748 59.6229 202.508 57.7333 201.811 56.0996C201.115 54.466 199.226 53.7076 197.594 54.4036C195.961 55.0997 195.202 56.9892 195.898 58.6215Z" fill="#7B7BAC" style="fill:#7B7BAC;fill:color(display-p3 0.4837 0.4809 0.6755);fill-opacity:1;"/>
<path d="M203.353 55.4408C204.049 57.0745 205.939 57.8343 207.573 57.1376C209.206 56.441 209.966 54.5514 209.269 52.9177C208.573 51.2841 206.684 50.5257 205.05 51.2224C203.416 51.919 202.657 53.8086 203.353 55.4408Z" fill="#7B7BAC" style="fill:#7B7BAC;fill:color(display-p3 0.4837 0.4809 0.6755);fill-opacity:1;"/>
<path d="M213.113 48.7238C209.382 44.7568 203.474 43.315 198.222 45.555C191.475 48.4319 188.363 56.2927 191.272 63.1126C194.18 69.9324 202.007 73.1288 208.753 70.2519C214.374 67.8549 217.472 61.9981 216.667 56.1663L220.532 65.2291" stroke="#7B7BAC" style="stroke:#7B7BAC;stroke:color(display-p3 0.4837 0.4809 0.6755);stroke-opacity:1;" stroke-width="5" stroke-linecap="round" stroke-linejoin="round"/>
</svg>
