<svg width="657" height="461" viewBox="0 0 657 461" fill="none" xmlns="http://www.w3.org/2000/svg">
<rect x="339.006" y="4.94336" width="313.456" height="197.972" rx="8" fill="white" fill-opacity="0.75" style="fill:white;fill-opacity:0.75;"/>
<path d="M342.424 197.207H649.448V103.23V56.2422H572.692L495.936 103.23L342.424 197.207Z" fill="black" fill-opacity="0.15" style="fill:black;fill-opacity:0.15;"/>
<path d="M339.006 60.7829V194.916C339.006 199.334 342.588 202.916 347.006 202.916H644.462C648.88 202.916 652.462 199.334 652.462 194.916V60.7829M339.006 60.7829V12.9434C339.006 8.52508 342.588 4.94336 347.006 4.94336H644.462C648.88 4.94336 652.462 8.52508 652.462 12.9434V60.7829M339.006 60.7829H652.462" stroke="black" style="stroke:black;stroke-opacity:1;" stroke-width="8" stroke-linecap="round" stroke-linejoin="round"/>
<circle cx="367.124" cy="32.3123" r="10.032" fill="#9F9F9F" fill-opacity="0.75" style="fill:#9F9F9F;fill:color(display-p3 0.6248 0.6248 0.6248);fill-opacity:0.75;"/>
<circle cx="395.171" cy="32.3123" r="10.032" fill="#9F9F9F" fill-opacity="0.75" style="fill:#9F9F9F;fill:color(display-p3 0.6248 0.6248 0.6248);fill-opacity:0.75;"/>
<circle cx="423.216" cy="32.3123" r="10.032" fill="#9F9F9F" fill-opacity="0.75" style="fill:#9F9F9F;fill:color(display-p3 0.6248 0.6248 0.6248);fill-opacity:0.75;"/>
<circle cx="438.973" cy="130.024" r="38.3797" fill="white" fill-opacity="0.75" stroke="black" style="fill:white;fill-opacity:0.75;stroke:black;stroke-opacity:1;" stroke-width="8" stroke-linecap="round" stroke-linejoin="round"/>
<circle cx="495.936" cy="130.024" r="38.3797" fill="white" fill-opacity="0.75" stroke="black" style="fill:white;fill-opacity:0.75;stroke:black;stroke-opacity:1;" stroke-width="6" stroke-linecap="round" stroke-linejoin="round" stroke-dasharray="12 12"/>
<circle cx="552.897" cy="130.024" r="38.3797" fill="#9F9F9F" fill-opacity="0.75" style="fill:#9F9F9F;fill:color(display-p3 0.6248 0.6248 0.6248);fill-opacity:0.75;"/>
<ellipse cx="177.708" cy="451.74" rx="122.897" ry="9.19141" fill="black" fill-opacity="0.15" style="fill:black;fill-opacity:0.15;"/>
<path d="M348.864 154.36C355.354 158.58 359.464 166.74 357.744 174.29C355.874 182.52 348.214 187.89 341.374 192.85C322.534 206.49 301.694 226.18 287.594 244.67C295.894 221.2 303.754 197.43 305.774 172.62C306.044 169.39 306.184 166.14 306.204 162.89H306.214C312.254 158.04 318.974 153.34 326.474 151.43C333.984 149.53 342.364 150.15 348.864 154.36Z" fill="white" fill-opacity="0.75" style="fill:white;fill-opacity:0.75;"/>
<path d="M287.084 246.11C287.064 246.18 287.034 246.24 287.014 246.31C292.834 254.4 300.604 268.08 300.604 268.08C300.604 268.08 326.084 309.59 338.004 328.32C338.874 329.67 339.234 331.32 338.854 332.88C337.754 337.36 332.354 336.85 328.624 335.38C325.254 334.06 320.634 330.91 318.344 334.84C309.584 350.11 292.154 361.17 274.474 360.73C266.574 360.54 258.884 358.27 251.054 357.11C243.234 355.96 233.424 357.15 226.654 361.24C221.364 369.05 216.154 376.99 209.674 383.68C195.724 398.06 175.584 406.23 155.564 405.63C135.534 405.03 115.924 395.66 102.864 380.46C97.0144 373.65 86.5012 355.255 78.8812 350.495C69.6212 344.725 56.5744 331.174 45.8744 329.034C33.0312 323.376 31.4703 322.4 19.5693 313.62C10.8593 301.52 1.05583 291.936 6.10583 277.916C12.2058 260.976 31.2844 259.88 45.8744 249.34C74.3944 228.76 100.804 205.26 124.584 179.34C128.584 174.98 131.094 169.49 131.984 163.64C135.184 142.45 143.614 121.67 157.664 105.39C173.624 86.9103 196.934 74.6103 221.304 73.2603C245.684 71.9203 270.734 81.9803 286.384 100.72C300.634 117.79 306.364 140.51 306.204 162.89C306.184 166.14 306.044 169.39 305.774 172.62C303.754 197.43 295.894 221.2 287.594 244.67L287.084 246.11Z" fill="white" fill-opacity="0.75" style="fill:white;fill-opacity:0.75;"/>
<path d="M12.2691 267.692L43.0044 255.452C43.0044 255.452 19.9898 267.916 18.1098 282.016C16.2298 296.116 31.8553 308.797 44.3453 315.597C60.4153 324.347 73.5654 329.181 90.9754 334.831C109.855 340.961 120.505 361.101 137.735 370.971C153.155 379.801 173.535 379.101 188.315 369.241C196.755 363.611 203.155 355.511 210.335 348.341C217.515 341.171 226.125 334.601 236.205 333.481C255.095 331.371 273.355 348.791 291.495 343.131C305.275 338.831 314.795 322.03 329.145 323.64C333.815 324.17 338.815 328.761 336.675 332.941C335.415 335.411 332.155 336.291 329.445 335.681C326.735 335.071 324.455 333.311 321.145 332.451C310.145 350.571 288.855 361.921 267.685 360.961C254.035 360.341 239.765 355.121 226.175 359.991C216.615 382.501 195.205 399.57 171.125 403.88C147.045 408.19 121.045 399.601 104.265 381.801C97.2854 374.401 88.5102 354.754 79.7002 349.674C69.2702 343.664 44.3453 329.867 44.3453 329.867L8.77736 300.901L5.03712 279.652L12.2691 267.692Z" fill="black" fill-opacity="0.15" style="fill:black;fill-opacity:0.15;"/>
<path d="M308.345 165.729C306.095 171.679 304.365 177.969 304.755 184.319C305.155 190.669 307.975 197.11 313.245 200.66C318.515 204.21 326.375 204.079 330.745 199.449C316.865 212.999 302.985 226.55 289.105 240.1C294.995 221.15 300.875 202.189 306.765 183.239" fill="black" fill-opacity="0.15" style="fill:black;fill-opacity:0.15;"/>
<path d="M267.906 84.9399C245.636 75.8699 215.896 75.4299 193.906 85.1699C171.916 94.9099 154.196 113.87 145.946 136.46C143.156 144.11 141.406 152.13 138.486 159.73C135.566 167.33 128.476 175.85 118.766 185.56" stroke="black" stroke-opacity="0.15" style="stroke:black;stroke-opacity:0.15;" stroke-width="8" stroke-linecap="round" stroke-linejoin="round"/>
<path d="M126.567 220.267C116.354 228.933 100.22 234.473 91.4499 240.142C82.6953 245.815 75.6712 255.517 76.4088 266.231C77.2285 278.234 87.8792 288.181 99.4475 290.985C111.012 293.806 123.08 290.755 133.7 285.848" stroke="black" style="stroke:black;stroke-opacity:1;" stroke-width="8" stroke-linecap="round" stroke-linejoin="round"/>
<path d="M287.594 244.67C301.694 226.18 322.534 206.49 341.374 192.85C348.214 187.89 355.874 182.52 357.744 174.29C359.464 166.74 355.354 158.58 348.864 154.36C342.364 150.15 333.984 149.53 326.474 151.43C318.974 153.34 312.254 158.04 306.214 162.89" stroke="black" style="stroke:black;stroke-opacity:1;" stroke-width="8" stroke-linecap="round" stroke-linejoin="round"/>
<path d="M300.606 268.08C300.606 268.08 292.836 254.4 287.016 246.31" stroke="black" style="stroke:black;stroke-opacity:1;" stroke-width="8" stroke-linecap="round" stroke-linejoin="round"/>
<path d="M226.656 361.24C233.426 357.15 243.236 355.96 251.056 357.11C258.886 358.27 266.576 360.54 274.476 360.73C292.156 361.17 309.586 350.11 318.346 334.84C320.636 330.91 325.256 334.06 328.626 335.38C332.356 336.85 337.756 337.36 338.856 332.88C339.236 331.32 338.876 329.67 338.006 328.32C326.086 309.59 300.606 268.08 300.606 268.08" stroke="black" style="stroke:black;stroke-opacity:1;" stroke-width="8" stroke-linecap="round" stroke-linejoin="round"/>
<path d="M101.926 336.258C108.841 337.174 115.426 333.453 121.411 329.871C134.911 321.776 148.418 313.675 161.926 305.581" stroke="black" style="stroke:black;stroke-opacity:1;" stroke-width="6" stroke-linecap="round" stroke-linejoin="round"/>
<path d="M310.514 321.08C302.874 311.65 295.234 302.23 287.594 292.8" stroke="black" style="stroke:black;stroke-opacity:1;" stroke-width="6" stroke-linecap="round" stroke-linejoin="round"/>
<path d="M16.6197 277.695C24.2597 268.265 41.4529 258.732 52.5137 246.542" stroke="black" style="stroke:black;stroke-opacity:1;" stroke-width="6" stroke-linecap="round" stroke-linejoin="round"/>
<path d="M288.694 241.29C288.154 242.9 287.624 244.5 287.084 246.11C287.064 246.18 287.034 246.24 287.014 246.31C285.584 250.59 284.154 254.86 282.734 259.14" stroke="black" style="stroke:black;stroke-opacity:1;" stroke-width="8" stroke-linecap="round" stroke-linejoin="round"/>
<path d="M225.461 361.24C232.591 350.73 239.841 340.47 250.521 333.88" stroke="black" style="stroke:black;stroke-opacity:1;" stroke-width="6" stroke-linecap="round" stroke-linejoin="round"/>
<ellipse cx="6.72413" cy="6.57367" rx="6.72413" ry="6.57367" transform="matrix(-0.98011 0.198457 0.198457 0.98011 296.012 129.605)" fill="black" fill-opacity="0.15" style="fill:black;fill-opacity:0.15;"/>
<ellipse cx="10.2568" cy="8.51883" rx="10.2568" ry="8.51883" transform="matrix(-0.994472 -0.105 -0.105 0.994472 225.664 139.756)" fill="black" fill-opacity="0.15" style="fill:black;fill-opacity:0.15;"/>
<path d="M239.14 124.774C237.475 123.153 235.247 122.166 232.874 122.538C230.494 122.905 228.704 124.523 227.657 126.568C226.608 128.617 226.229 131.205 226.673 133.856L226.673 133.859C227.122 136.516 228.333 138.855 230.002 140.479C231.668 142.101 233.895 143.091 236.268 142.724L236.271 142.724C238.649 142.351 240.438 140.735 241.486 138.689C242.535 136.64 242.914 134.052 242.47 131.396L242.47 131.394C242.02 128.737 240.81 126.397 239.14 124.774Z" fill="black" style="fill:black;fill-opacity:1;"/>
<path d="M277.437 119.715C275.803 118.24 273.689 117.409 271.537 117.96C269.382 118.511 267.885 120.264 267.104 122.358C266.321 124.456 266.192 127.028 266.812 129.599C267.427 132.175 268.702 134.389 270.34 135.869C271.974 137.346 274.088 138.178 276.24 137.626C278.396 137.075 279.893 135.318 280.674 133.223C281.456 131.122 281.585 128.548 280.965 125.976C280.35 123.405 279.075 121.194 277.437 119.715Z" fill="black" style="fill:black;fill-opacity:1;"/>
<path d="M287.084 246.11L287.594 244.67C295.894 221.2 303.754 197.43 305.774 172.62C306.044 169.39 306.184 166.14 306.204 162.89C306.364 140.51 300.634 117.79 286.384 100.72C270.734 81.9803 245.684 71.9203 221.304 73.2603C196.934 74.6103 173.624 86.9103 157.664 105.39C143.614 121.67 135.184 142.45 131.984 163.64C131.094 169.49 128.584 174.98 124.584 179.34C118.223 186.274 111.673 193.035 104.945 199.614C80.4247 222.625 49.0485 251.461 36.0173 257.503C29.8817 260.348 23.9349 262.723 19.7875 264.298C16.0136 265.731 12.0775 267.141 9.46339 270.217C5.94226 274.36 2.3905 282.241 6.79277 295.68C14.1016 317.99 70.3748 339.392 82.2596 352.616C94.1445 365.84 98.0432 373.65 103.893 380.46C116.953 395.66 135.534 405.03 155.564 405.63C175.584 406.23 195.724 398.06 209.674 383.68C216.154 376.99 221.364 369.05 226.654 361.24" stroke="black" style="stroke:black;stroke-opacity:1;" stroke-width="8" stroke-linecap="round" stroke-linejoin="round"/>
</svg>
