<svg width="657" height="461" viewBox="0 0 657 461" fill="none" xmlns="http://www.w3.org/2000/svg">
<rect x="339.006" y="4.93164" width="313.456" height="197.972" rx="8" fill="white" fill-opacity="0.75" style="fill:white;fill-opacity:0.75;"/>
<path d="M342.424 197.195H649.448V103.219V56.2305H572.692L495.936 103.219L342.424 197.195Z" fill="black" fill-opacity="0.15" style="fill:black;fill-opacity:0.15;"/>
<path d="M339.006 60.7712V194.904C339.006 199.322 342.588 202.904 347.006 202.904H644.462C648.88 202.904 652.462 199.322 652.462 194.904V60.7712M339.006 60.7712V12.9316C339.006 8.51336 342.588 4.93164 347.006 4.93164H644.462C648.88 4.93164 652.462 8.51336 652.462 12.9316V60.7712M339.006 60.7712H652.462" stroke="black" style="stroke:black;stroke-opacity:1;" stroke-width="8" stroke-linecap="round" stroke-linejoin="round"/>
<circle cx="367.124" cy="32.3005" r="10.032" fill="#9F9F9F" fill-opacity="0.75" style="fill:#9F9F9F;fill:color(display-p3 0.6248 0.6248 0.6248);fill-opacity:0.75;"/>
<circle cx="395.171" cy="32.3005" r="10.032" fill="#9F9F9F" fill-opacity="0.75" style="fill:#9F9F9F;fill:color(display-p3 0.6248 0.6248 0.6248);fill-opacity:0.75;"/>
<circle cx="423.216" cy="32.3005" r="10.032" fill="#9F9F9F" fill-opacity="0.75" style="fill:#9F9F9F;fill:color(display-p3 0.6248 0.6248 0.6248);fill-opacity:0.75;"/>
<circle cx="438.973" cy="130.012" r="38.3797" fill="white" fill-opacity="0.75" stroke="black" style="fill:white;fill-opacity:0.75;stroke:black;stroke-opacity:1;" stroke-width="8" stroke-linecap="round" stroke-linejoin="round"/>
<circle cx="495.936" cy="130.012" r="38.3797" fill="white" fill-opacity="0.75" stroke="black" style="fill:white;fill-opacity:0.75;stroke:black;stroke-opacity:1;" stroke-width="6" stroke-linecap="round" stroke-linejoin="round" stroke-dasharray="12 12"/>
<circle cx="552.897" cy="130.012" r="38.3797" fill="#9F9F9F" fill-opacity="0.75" style="fill:#9F9F9F;fill:color(display-p3 0.6248 0.6248 0.6248);fill-opacity:0.75;"/>
<ellipse cx="177.708" cy="451.728" rx="122.897" ry="9.19141" fill="black" fill-opacity="0.15" style="fill:black;fill-opacity:0.15;"/>
<path d="M348.864 154.349C355.354 158.569 359.464 166.729 357.744 174.279C355.874 182.509 348.214 187.879 341.374 192.839C322.534 206.479 301.694 226.169 287.594 244.659C295.894 221.189 303.754 197.419 305.774 172.609C306.044 169.379 306.184 166.129 306.204 162.879H306.214C312.254 158.029 318.974 153.329 326.474 151.419C333.984 149.519 342.364 150.139 348.864 154.349Z" fill="white" fill-opacity="0.75" style="fill:white;fill-opacity:0.75;"/>
<path d="M287.084 246.099C287.064 246.169 287.034 246.229 287.014 246.299C292.834 254.389 300.604 268.069 300.604 268.069C300.604 268.069 326.084 309.579 338.004 328.309C338.874 329.659 339.234 331.309 338.854 332.869C337.754 337.349 332.354 336.839 328.624 335.369C325.254 334.049 320.634 330.899 318.344 334.829C309.584 350.099 292.154 361.159 274.474 360.719C266.574 360.529 258.884 358.259 251.054 357.099C243.234 355.949 233.424 357.139 226.654 361.229C221.364 369.039 216.154 376.979 209.674 383.669C195.724 398.049 175.584 406.219 155.564 405.619C135.534 405.019 115.924 395.649 102.864 380.449C97.0144 373.639 86.5012 355.244 78.8812 350.484C69.6212 344.714 56.5744 331.162 45.8744 329.022C33.0312 323.364 31.4703 322.388 19.5693 313.608C10.8593 301.508 1.05583 291.924 6.10583 277.904C12.2058 260.964 31.2844 259.869 45.8744 249.329C74.3944 228.749 100.804 205.249 124.584 179.329C128.584 174.969 131.094 169.479 131.984 163.629C135.184 142.439 143.614 121.659 157.664 105.379C173.624 86.8986 196.934 74.5986 221.304 73.2486C245.684 71.9086 270.734 81.9686 286.384 100.709C300.634 117.779 306.364 140.499 306.204 162.879C306.184 166.129 306.044 169.379 305.774 172.609C303.754 197.419 295.894 221.189 287.594 244.659L287.084 246.099Z" fill="white" fill-opacity="0.75" style="fill:white;fill-opacity:0.75;"/>
<path d="M12.2691 267.68L43.0044 255.441C43.0044 255.441 19.9898 267.905 18.1098 282.005C16.2298 296.105 31.8553 308.785 44.3453 315.585C60.4153 324.335 73.5654 329.169 90.9754 334.819C109.855 340.949 120.505 361.089 137.735 370.959C153.155 379.789 173.535 379.089 188.315 369.229C196.755 363.599 203.155 355.499 210.335 348.329C217.515 341.159 226.125 334.589 236.205 333.469C255.095 331.359 273.355 348.779 291.495 343.119C305.275 338.819 314.795 322.019 329.145 323.629C333.815 324.159 338.815 328.749 336.675 332.929C335.415 335.399 332.155 336.279 329.445 335.669C326.735 335.059 324.455 333.299 321.145 332.439C310.145 350.559 288.855 361.909 267.685 360.949C254.035 360.329 239.765 355.109 226.175 359.979C216.615 382.489 195.205 399.559 171.125 403.869C147.045 408.179 121.045 399.589 104.265 381.789C97.2854 374.389 88.5102 354.742 79.7002 349.662C69.2702 343.652 44.3453 329.855 44.3453 329.855L8.77736 300.889L5.03712 279.64L12.2691 267.68Z" fill="black" fill-opacity="0.15" style="fill:black;fill-opacity:0.15;"/>
<path d="M308.345 165.718C306.095 171.668 304.365 177.958 304.755 184.308C305.155 190.658 307.975 197.098 313.245 200.648C318.515 204.198 326.375 204.068 330.745 199.438C316.865 212.988 302.985 226.538 289.105 240.088C294.995 221.138 300.875 202.178 306.765 183.228" fill="black" fill-opacity="0.15" style="fill:black;fill-opacity:0.15;"/>
<path d="M267.906 84.9282C245.636 75.8582 215.896 75.4182 193.906 85.1582C171.916 94.8982 154.196 113.858 145.946 136.448C143.156 144.098 141.406 152.118 138.486 159.718C135.566 167.318 128.476 175.838 118.766 185.548" stroke="black" stroke-opacity="0.15" style="stroke:black;stroke-opacity:0.15;" stroke-width="8" stroke-linecap="round" stroke-linejoin="round"/>
<path d="M126.567 220.255C116.354 228.921 100.22 234.461 91.4499 240.13C82.6953 245.803 75.6712 255.505 76.4088 266.219C77.2285 278.222 87.8792 288.169 99.4475 290.973C111.012 293.794 123.08 290.743 133.7 285.836" stroke="black" style="stroke:black;stroke-opacity:1;" stroke-width="8" stroke-linecap="round" stroke-linejoin="round"/>
<path d="M287.594 244.659C301.694 226.169 322.534 206.479 341.374 192.839C348.214 187.879 355.874 182.509 357.744 174.279C359.464 166.729 355.354 158.569 348.864 154.349C342.364 150.139 333.984 149.519 326.474 151.419C318.974 153.329 312.254 158.029 306.214 162.879" stroke="black" style="stroke:black;stroke-opacity:1;" stroke-width="8" stroke-linecap="round" stroke-linejoin="round"/>
<path d="M300.606 268.068C300.606 268.068 292.836 254.388 287.016 246.298" stroke="black" style="stroke:black;stroke-opacity:1;" stroke-width="8" stroke-linecap="round" stroke-linejoin="round"/>
<path d="M226.656 361.228C233.426 357.138 243.236 355.948 251.056 357.098C258.886 358.258 266.576 360.528 274.476 360.718C292.156 361.158 309.586 350.098 318.346 334.828C320.636 330.898 325.256 334.048 328.626 335.368C332.356 336.838 337.756 337.348 338.856 332.868C339.236 331.308 338.876 329.658 338.006 328.308C326.086 309.578 300.606 268.068 300.606 268.068" stroke="black" style="stroke:black;stroke-opacity:1;" stroke-width="8" stroke-linecap="round" stroke-linejoin="round"/>
<path d="M101.926 336.246C108.841 337.162 115.426 333.441 121.411 329.859C134.911 321.765 148.418 313.663 161.926 305.569" stroke="black" style="stroke:black;stroke-opacity:1;" stroke-width="6" stroke-linecap="round" stroke-linejoin="round"/>
<path d="M310.514 321.068C302.874 311.638 295.234 302.218 287.594 292.788" stroke="black" style="stroke:black;stroke-opacity:1;" stroke-width="6" stroke-linecap="round" stroke-linejoin="round"/>
<path d="M16.6197 277.683C24.2597 268.253 41.4529 258.72 52.5137 246.53" stroke="black" style="stroke:black;stroke-opacity:1;" stroke-width="6" stroke-linecap="round" stroke-linejoin="round"/>
<path d="M288.694 241.278C288.154 242.888 287.624 244.488 287.084 246.098C287.064 246.168 287.034 246.228 287.014 246.298C285.584 250.578 284.154 254.848 282.734 259.128" stroke="black" style="stroke:black;stroke-opacity:1;" stroke-width="8" stroke-linecap="round" stroke-linejoin="round"/>
<path d="M225.461 361.228C232.591 350.718 239.841 340.458 250.521 333.868" stroke="black" style="stroke:black;stroke-opacity:1;" stroke-width="6" stroke-linecap="round" stroke-linejoin="round"/>
<ellipse cx="6.72413" cy="6.57367" rx="6.72413" ry="6.57367" transform="matrix(-0.98011 0.198457 0.198457 0.98011 296.012 129.594)" fill="black" fill-opacity="0.15" style="fill:black;fill-opacity:0.15;"/>
<ellipse cx="10.2568" cy="8.51883" rx="10.2568" ry="8.51883" transform="matrix(-0.994472 -0.105 -0.105 0.994472 225.664 139.744)" fill="black" fill-opacity="0.15" style="fill:black;fill-opacity:0.15;"/>
<path d="M239.14 124.762C237.475 123.142 235.247 122.154 232.874 122.526C230.494 122.893 228.704 124.512 227.657 126.557C226.608 128.605 226.229 131.193 226.673 133.844L226.673 133.847C227.122 136.504 228.333 138.843 230.002 140.468C231.668 142.089 233.895 143.079 236.268 142.713L236.271 142.712C238.649 142.34 240.438 140.723 241.486 138.677C242.535 136.628 242.914 134.041 242.47 131.385L242.47 131.382C242.02 128.725 240.81 126.385 239.14 124.762Z" fill="black" style="fill:black;fill-opacity:1;"/>
<path d="M277.437 119.703C275.803 118.229 273.689 117.397 271.537 117.949C269.382 118.5 267.885 120.252 267.104 122.346C266.321 124.444 266.192 127.016 266.812 129.588C267.427 132.164 268.702 134.378 270.34 135.858C271.974 137.334 274.088 138.166 276.24 137.614C278.396 137.063 279.893 135.306 280.674 133.211C281.456 131.111 281.585 128.537 280.965 125.965C280.35 123.393 279.075 121.182 277.437 119.703Z" fill="black" style="fill:black;fill-opacity:1;"/>
<path d="M287.084 246.099L287.594 244.659C295.894 221.189 303.754 197.419 305.774 172.609C306.044 169.379 306.184 166.129 306.204 162.879C306.364 140.499 300.634 117.779 286.384 100.709C270.734 81.9686 245.684 71.9086 221.304 73.2486C196.934 74.5986 173.624 86.8986 157.664 105.379C143.614 121.659 135.184 142.439 131.984 163.629C131.094 169.479 128.584 174.969 124.584 179.329C118.223 186.263 111.673 193.024 104.945 199.602C80.4247 222.613 49.0485 251.45 36.0173 257.491C29.8817 260.336 23.9349 262.712 19.7875 264.286C16.0136 265.719 12.0775 267.129 9.46339 270.205C5.94226 274.348 2.3905 282.23 6.79277 295.668C14.1016 317.978 70.3748 339.38 82.2596 352.604C94.1445 365.828 98.0432 373.638 103.893 380.448C116.953 395.648 135.534 405.019 155.564 405.619C175.584 406.219 195.724 398.049 209.674 383.669C216.154 376.979 221.364 369.039 226.654 361.229" stroke="black" style="stroke:black;stroke-opacity:1;" stroke-width="8" stroke-linecap="round" stroke-linejoin="round"/>
<path d="M130.917 43.0115C130.439 45.1995 130.937 47.7224 132.636 49.1797C134.338 50.6437 137.813 50.6843 138.997 48.7783L139.226 48.9086C141.264 45.4947 143.542 42.3623 146.018 39.7293C146.611 37.8626 146.319 35.7975 145.019 34.3275C143.605 32.7223 141.096 32.4607 139.089 33.2117C137.09 33.9601 135.515 35.5337 134.144 37.1765C132.704 38.9005 131.399 40.8141 130.917 43.0115Z" fill="#E5E5FF" style="fill:#E5E5FF;fill:color(display-p3 0.8980 0.8980 1.0000);fill-opacity:1;"/>
<path d="M124.987 99.487C125.794 115.098 129.715 130.547 136.02 144.809C136.552 144.04 137.084 143.271 137.635 142.511C142.658 135.427 148.194 128.714 154.176 122.409L153.217 121.507C147.491 110.331 142.971 99.5535 140.977 86.0224C140.977 76.603 142.126 70.3264 145.06 61.8755H145.051C133.371 74.7418 124.987 89.9441 124.987 99.487Z" fill="#D5D5D5" style="fill:#D5D5D5;fill:color(display-p3 0.8353 0.8353 0.8353);fill-opacity:1;"/>
<path d="M154.176 122.409C148.194 128.714 142.658 135.427 137.635 142.51L137.92 142.71C142.877 135.797 150.236 130.632 158.43 128.334C166.188 126.159 174.497 126.511 182.254 124.317C196.896 120.196 207.465 107.843 219.98 99.2017C230.491 91.9566 242.997 87.1614 255.759 87.3893C268.521 87.6267 285.432 93.7133 292.848 104.092C301.09 102.696 306.426 101.262 312.19 96.2201C315.257 93.5424 317.384 90.0291 317.954 87.5033C318.913 83.2018 314.963 79.4511 311.212 77.1342C298.954 69.5853 284.378 66.2714 269.992 66.3094C269.774 66.3094 269.546 66.3094 269.328 66.3094C255.16 66.4328 241.145 69.6518 227.795 74.3805C199.916 84.2558 174.506 100.93 154.176 122.399V122.409Z" fill="#D5D5D5" style="fill:#D5D5D5;fill:color(display-p3 0.8353 0.8353 0.8353);fill-opacity:1;"/>
<path d="M145.059 61.8746C142.125 70.3255 140.976 76.602 140.976 86.0215C142.97 99.5526 147.49 110.33 153.216 121.506L154.175 122.408C174.504 100.939 199.914 84.2649 227.793 74.3896C241.144 69.6609 255.159 66.4419 269.326 66.3185V66.1001C261.435 58.3328 254.504 48.4385 242.824 42.3234C220.206 31.3372 192.565 31.2897 169.966 42.238C165.712 44.2985 161.467 47.0617 157.384 50.2806C153.035 53.7085 148.867 57.6681 145.05 61.8651H145.059V61.8746Z" fill="#F2F2F2" style="fill:#F2F2F2;fill:color(display-p3 0.9472 0.9472 0.9472);fill-opacity:1;"/>
<path d="M267.418 66.4918C260.689 58.2706 254.506 48.4385 242.827 42.3234C220.208 31.3372 192.567 31.2897 169.968 42.238C165.714 44.2985 161.469 47.0617 157.386 50.2806C153.037 53.7085 148.869 57.6681 145.052 61.8651C133.372 74.7409 127.57 90.7141 127.57 103.323C127.57 118.955 129.717 130.546 136.022 144.808M267.418 66.4918C253.251 66.6152 241.146 69.6609 227.795 74.3896C199.917 84.2649 174.507 100.939 154.177 122.408C148.195 128.713 142.659 135.426 137.636 142.51M267.418 66.4918C267.637 66.4918 267.2 66.4918 267.418 66.4918ZM267.418 66.4918C281.804 66.4538 301.444 68.5451 310.906 74.3896C316.075 77.5824 318.417 82.6668 317.955 87.5123C317.637 90.8466 315.103 94.2609 312.036 96.9386C306.273 101.981 299.133 104.322 290.891 105.718C283.475 95.3392 268.521 87.6358 255.759 87.3984C242.997 87.1705 230.492 91.9657 219.98 99.2107C207.465 107.852 196.897 120.205 182.255 124.326C174.497 126.52 166.189 126.168 158.431 128.343C150.236 130.641 142.592 135.597 137.636 142.51M136.022 144.808C136.553 144.039 137.085 143.27 137.636 142.51M136.022 144.808C136.325 144.333 137.303 142.975 137.636 142.51" stroke="black" style="stroke:black;stroke-opacity:1;" stroke-width="8" stroke-linecap="round" stroke-linejoin="round"/>
<path d="M146.018 39.7293C146.611 37.8626 146.319 35.7975 145.019 34.3275C143.605 32.7223 141.096 32.4607 139.089 33.2117C137.09 33.9601 135.515 35.5337 134.144 37.1765C132.704 38.9005 131.399 40.8141 130.917 43.0115C130.439 45.1995 130.937 47.7224 132.636 49.1797C134.338 50.6437 137.813 50.6843 138.997 48.7783" stroke="black" style="stroke:black;stroke-opacity:1;" stroke-width="8" stroke-linecap="round" stroke-linejoin="round"/>
<path d="M149.726 58.3609C144.814 64.1939 142.138 71.4009 141.534 76.161C140.705 82.6877 141.288 89.3324 142.926 95.7044C145.307 104.967 148.923 113.124 153.217 121.506" stroke="black" style="stroke:black;stroke-opacity:1;" stroke-width="6" stroke-linecap="round" stroke-linejoin="round"/>
<path d="M196.632 58.6215C197.329 60.2551 199.218 61.0149 200.85 60.3189C202.483 59.6229 203.242 57.7333 202.546 56.0996C201.849 54.466 199.96 53.7076 198.328 54.4036C196.696 55.0997 195.936 56.9892 196.632 58.6215Z" fill="#8D8D8D" style="fill:#8D8D8D;fill:color(display-p3 0.5513 0.5513 0.5513);fill-opacity:1;"/>
<path d="M204.087 55.4408C204.784 57.0745 206.673 57.8343 208.307 57.1376C209.941 56.441 210.7 54.5514 210.004 52.9177C209.307 51.2841 207.418 50.5257 205.785 51.2224C204.151 51.919 203.391 53.8086 204.087 55.4408Z" fill="#8D8D8D" style="fill:#8D8D8D;fill:color(display-p3 0.5513 0.5513 0.5513);fill-opacity:1;"/>
<path d="M213.847 48.7238C210.116 44.7568 204.209 43.315 198.956 45.555C192.209 48.4319 189.098 56.2927 192.006 63.1126C194.914 69.9324 202.741 73.1288 209.487 70.2519C215.109 67.8549 218.206 61.9981 217.401 56.1663L221.266 65.2291" stroke="#8D8D8D" style="stroke:#8D8D8D;stroke:color(display-p3 0.5513 0.5513 0.5513);stroke-opacity:1;" stroke-width="5" stroke-linecap="round" stroke-linejoin="round"/>
</svg>
