<svg width="285" height="404" viewBox="0 0 285 404" fill="none" xmlns="http://www.w3.org/2000/svg">
<path d="M29.908 233.6C29.908 233.6 28.6188 218.312 28.5033 208.516C28.3571 196.114 29.9076 176.851 29.9076 176.851C24.5422 181.792 18.8552 186.387 14.0787 191.996C9.29994 197.613 5.4165 204.447 4.55178 212.032C3.6973 219.611 6.35681 227.934 12.2824 232.07C18.0614 236.098 29.908 233.6 29.908 233.6Z" fill="white" fill-opacity="0.75" style="fill:white;fill-opacity:0.75;"/>
<path d="M261.456 239.254C261.906 242.794 265.586 248.024 268.676 249.814C271.776 251.604 275.226 253.004 277.556 255.714C281.486 260.274 281.096 267.214 279.016 272.864C276.196 280.514 270.666 287.124 263.646 291.254C259.136 293.914 253.986 295.614 250.156 299.174C245.086 303.894 243.206 311.004 240.256 317.274C234.096 330.394 222.036 340.844 207.906 344.084C193.096 347.474 177.306 342.894 164.526 334.664C163.636 334.094 162.756 333.504 161.896 332.894H161.886C157.206 329.694 149.806 332.114 145.056 335.214C140.296 338.304 136.556 342.764 131.846 345.934C121.206 353.104 105.876 352.364 95.9761 344.204C93.0561 341.804 90.5661 338.844 87.2461 337.034C83.9361 335.234 79.3261 334.964 76.7761 337.744C75.5161 339.114 74.9161 341.044 73.5061 342.254C69.3761 345.774 63.5461 340.604 60.8161 335.914C40.6861 301.374 30.3661 261.904 28.6461 221.874C27.6561 198.644 29.5561 175.234 34.1161 152.494C34.8961 148.584 35.7561 144.684 36.7161 140.804C42.4761 117.314 51.4961 94.5138 65.8261 75.1238C82.5361 52.5238 107.086 34.8838 134.846 30.4938C162.606 26.1038 193.216 36.5938 209.356 59.5938C221.036 76.2538 224.366 97.6338 222.606 117.894C221.246 133.624 217.076 148.904 212.296 163.994C215.576 173.674 224.246 181.264 232.736 186.964C241.226 192.664 250.446 197.574 257.416 205.054C264.386 212.534 268.776 223.554 265.156 233.114C264.296 235.384 263.026 237.444 261.456 239.254Z" fill="white" fill-opacity="0.75" style="fill:white;fill-opacity:0.75;"/>
<path d="M273.345 252.684C269.305 248.994 263.355 246.344 261.755 241.384C261.715 241.404 261.685 241.434 261.655 241.464C258.385 243.744 256.755 244.654 253.175 246.354C249.255 248.214 245.295 249.574 240.915 249.754C240.365 249.774 239.785 249.794 239.195 249.824C243.325 251.454 247.145 253.624 250.195 256.834C256.205 263.164 257.245 274.954 250.005 279.824C244.965 283.214 238.005 282.124 232.655 285.004C226.275 288.444 223.985 296.374 222.945 303.554C221.905 310.724 221.275 318.534 216.465 323.954C210.555 330.614 200.185 331.294 191.625 328.814C183.065 326.334 175.475 321.334 167.185 318.094C158.885 314.864 148.945 313.614 141.475 318.464C133.485 323.654 129.845 334.804 120.735 337.594C113.555 339.794 106.065 335.774 99.7654 331.664C93.4754 327.564 86.5154 323.014 79.0854 324.124C73.2454 324.994 67.9354 329.334 62.0854 328.524C58.0354 327.964 54.6554 324.934 52.6454 321.374C51.0654 318.584 48.6554 315.784 47.2754 312.774C50.4654 321.344 56.1354 328.654 60.5454 335.894C62.5054 339.114 65.0154 342.514 68.7254 343.184C72.8254 343.934 77.1454 340.294 77.1054 336.124C85.2454 337.664 91.4554 342.064 98.0654 345.604C104.675 349.144 112.165 351.894 119.565 350.644C134.115 348.184 144.025 331.174 158.765 331.704C170.145 341.714 185.785 346.864 200.715 345.014C215.645 343.164 229.565 334.364 237.635 321.674C242.235 314.434 245.055 305.994 250.875 299.694C259.135 290.754 272.795 286.804 277.945 275.784C281.505 268.184 279.545 258.364 273.335 252.704L273.345 252.684Z" fill="black" fill-opacity="0.15" style="fill:black;fill-opacity:0.15;"/>
<ellipse cx="69.5227" cy="112.218" rx="7.9148" ry="6.57367" transform="rotate(11.2397 69.5227 112.218)" fill="black" fill-opacity="0.15" style="fill:black;fill-opacity:0.15;"/>
<ellipse cx="151.479" cy="116.852" rx="9.18965" ry="7.6325" transform="rotate(1.09845 151.479 116.852)" fill="black" fill-opacity="0.15" style="fill:black;fill-opacity:0.15;"/>
<path d="M208.056 177.013C212.076 162.153 215.996 142.053 217.716 126.763C219.436 111.473 218.746 95.6532 213.516 81.1732C207.276 63.8832 194.486 49.0332 178.296 40.3032C162.116 31.5732 138.566 29.6632 120.686 33.9532" stroke="black" stroke-opacity="0.15" style="stroke:black;stroke-opacity:0.15;" stroke-width="8" stroke-linecap="round" stroke-linejoin="round"/>
<path d="M207.645 236.633C219.715 243.003 231.315 245.443 243.205 242.353C248.495 240.983 253.775 238.333 256.665 233.693C259.135 229.713 259.535 224.673 258.415 220.123C257.295 215.573 254.775 211.473 251.775 207.873C240.235 194.023 222.565 185.783 214.845 169.493" stroke="black" stroke-opacity="0.15" style="stroke:black;stroke-opacity:0.15;" stroke-width="8" stroke-linecap="round" stroke-linejoin="round"/>
<path d="M127.38 98.7895C129.043 97.1023 131.268 96.0709 133.642 96.4522C136.023 96.8287 137.816 98.5063 138.868 100.629C139.921 102.755 140.306 105.443 139.868 108.199L139.867 108.201C139.423 110.963 138.218 113.397 136.553 115.088C134.89 116.777 132.665 117.811 130.292 117.435L130.288 117.435C127.91 117.053 126.117 115.377 125.065 113.253C124.011 111.127 123.627 108.439 124.065 105.679L124.065 105.676C124.509 102.914 125.715 100.48 127.38 98.7895Z" fill="black" style="fill:black;fill-opacity:1;"/>
<path d="M83.4407 96.3165C85.0593 94.8442 87.1774 93.9886 89.3651 94.4801C91.5554 94.9711 93.108 96.6472 93.9439 98.671C94.7816 100.699 94.9692 103.203 94.3997 105.723C93.8354 108.246 92.5951 110.431 90.9724 111.909C89.3536 113.383 87.2352 114.239 85.0474 113.747C82.8557 113.256 81.3035 111.576 80.4683 109.551C79.6309 107.52 79.4432 105.014 80.0128 102.494C80.5773 99.975 81.818 97.7925 83.4407 96.3165Z" fill="black" style="fill:black;fill-opacity:1;"/>
<path d="M29.3305 233.764C23.5327 235.169 16.9337 235.311 12.2839 232.07C6.35827 227.934 3.69876 219.61 4.55324 212.032C5.41796 204.446 9.30141 197.613 14.0801 191.995C17.3961 188.097 23.0198 183.884 28.6758 177.979" stroke="black" style="stroke:black;stroke-opacity:1;" stroke-width="8" stroke-linecap="round" stroke-linejoin="round"/>
<path d="M208.056 177.014C209.486 172.684 210.916 168.354 212.296 163.994C217.076 148.904 221.246 133.624 222.606 117.894C224.366 97.6338 221.036 76.2538 209.356 59.5938C193.216 36.5938 162.606 26.1038 134.846 30.4938C107.086 34.8838 82.5361 52.5238 65.8261 75.1238C51.4961 94.5138 42.4761 117.314 36.7161 140.804C35.7561 144.684 34.8961 148.584 34.1161 152.494C29.5561 175.234 27.6561 198.644 28.6461 221.874C30.3661 261.904 40.6861 301.374 60.8161 335.914C63.5461 340.604 69.3761 345.774 73.5061 342.254C74.9161 341.044 75.5161 339.114 76.7761 337.744C79.3261 334.964 83.9361 335.234 87.2461 337.034C90.5661 338.844 93.0561 341.804 95.9761 344.204C105.876 352.364 121.206 353.104 131.846 345.934C136.556 342.764 140.296 338.304 145.056 335.214C149.806 332.114 157.206 329.694 161.886 332.904" stroke="black" style="stroke:black;stroke-opacity:1;" stroke-width="8" stroke-linecap="round" stroke-linejoin="round"/>
<path d="M161.895 332.894C162.755 333.504 163.635 334.094 164.525 334.664C177.305 342.894 193.095 347.474 207.905 344.084C222.035 340.844 234.095 330.394 240.255 317.274C243.205 311.004 245.085 303.894 250.155 299.174C253.985 295.614 259.135 293.914 263.645 291.254C270.665 287.124 276.195 280.514 279.015 272.864C281.095 267.214 281.485 260.274 277.555 255.714C275.225 253.004 271.775 251.604 268.675 249.814C265.585 248.024 261.905 242.794 261.455 239.254" stroke="black" style="stroke:black;stroke-opacity:1;" stroke-width="8" stroke-linecap="round" stroke-linejoin="round"/>
<path d="M133.945 303.044C143.197 314.363 153.041 325.486 165.078 333.787" stroke="black" style="stroke:black;stroke-opacity:1;" stroke-width="6" stroke-linecap="round" stroke-linejoin="round"/>
<path d="M74.6366 322.954C69.9566 315.514 66.0366 307.584 62.9766 299.344" stroke="black" style="stroke:black;stroke-opacity:1;" stroke-width="6" stroke-linecap="round" stroke-linejoin="round"/>
<path d="M234.015 289.043C217.255 282.933 201.665 273.643 188.305 261.813" stroke="black" style="stroke:black;stroke-opacity:1;" stroke-width="6" stroke-linecap="round" stroke-linejoin="round"/>
<path d="M205.416 235.344C212.006 239.154 218.646 242.994 225.836 245.474C233.026 247.954 240.906 249.024 248.286 247.174C253.316 245.914 258.076 243.144 261.456 239.254C263.026 237.444 264.296 235.384 265.156 233.114C268.776 223.554 264.386 212.534 257.416 205.054C250.446 197.574 241.226 192.664 232.736 186.964C224.246 181.264 215.576 173.674 212.296 163.994" stroke="black" style="stroke:black;stroke-opacity:1;" stroke-width="8" stroke-linecap="round" stroke-linejoin="round"/>
<path d="M228.695 15.0005C229.198 17.3048 228.674 19.9617 226.884 21.4965C225.092 23.0383 221.432 23.081 220.185 21.0737L219.945 21.211C217.798 17.6157 215.399 14.3169 212.791 11.5439C212.167 9.5781 212.474 7.4032 213.843 5.85515C215.332 4.16463 217.975 3.88917 220.088 4.68004C222.194 5.46819 223.853 7.12536 225.296 8.85549C226.812 10.6711 228.187 12.6863 228.695 15.0005Z" fill="#F2F2F2" style="fill:#F2F2F2;fill:color(display-p3 0.9472 0.9472 0.9472);fill-opacity:1;"/>
<path d="M234.939 74.4762C234.089 90.9162 229.959 107.186 223.319 122.206C222.759 121.396 222.199 120.586 221.619 119.786C216.329 112.326 210.499 105.256 204.199 98.6162L205.209 97.6662C211.239 85.8962 215.999 74.5462 218.099 60.2962C218.099 50.3762 216.889 43.7662 213.799 34.8662H213.809C226.109 48.4162 234.939 64.4262 234.939 74.4762Z" fill="#D5D5D5" style="fill:#D5D5D5;fill:color(display-p3 0.8353 0.8353 0.8353);fill-opacity:1;"/>
<path d="M204.2 98.6155C210.5 105.255 216.33 112.325 221.62 119.785L221.32 119.995C216.1 112.715 208.35 107.275 199.72 104.855C191.55 102.565 182.8 102.935 174.63 100.625C159.21 96.2855 148.08 83.2755 134.9 74.1755C123.83 66.5455 110.66 61.4955 97.2198 61.7355C83.7798 61.9855 65.9698 68.3955 58.1598 79.3255C49.4798 77.8555 43.8598 76.3455 37.7898 71.0355C34.5598 68.2155 32.3198 64.5155 31.7198 61.8555C30.7098 57.3255 34.8698 53.3755 38.8198 50.9355C51.7298 42.9855 67.0798 39.4955 82.2298 39.5355C82.4598 39.5355 82.6998 39.5355 82.9298 39.5355C97.8498 39.6655 112.61 43.0555 126.67 48.0355C156.03 58.4355 182.79 75.9955 204.2 98.6055V98.6155Z" fill="#D5D5D5" style="fill:#D5D5D5;fill:color(display-p3 0.8353 0.8353 0.8353);fill-opacity:1;"/>
<path d="M213.8 34.8659C216.89 43.7659 218.1 50.3759 218.1 60.2959C216 74.5459 211.24 85.8959 205.21 97.6659L204.2 98.6159C182.79 76.0059 156.03 58.4459 126.67 48.0459C112.61 43.0659 97.8497 39.6759 82.9297 39.5459V39.3159C91.2397 31.1359 98.5397 20.7159 110.84 14.2759C134.66 2.70594 163.77 2.65594 187.57 14.1859C192.05 16.3559 196.52 19.2659 200.82 22.6559C205.4 26.2659 209.79 30.4359 213.81 34.8559H213.8V34.8659Z" fill="#F2F2F2" style="fill:#F2F2F2;fill:color(display-p3 0.9472 0.9472 0.9472);fill-opacity:1;"/>
<path d="M84.9417 39.7285C92.0283 31.0704 98.5403 20.7159 110.84 14.2759C134.66 2.70594 163.77 2.65594 187.57 14.1859C192.05 16.3559 196.52 19.2659 200.82 22.6559C205.4 26.2659 209.79 30.4359 213.81 34.8559C226.11 48.4159 232.221 65.2378 232.221 78.5172C232.221 94.9792 229.96 107.186 223.32 122.206M84.9417 39.7285C99.8617 39.8585 112.61 43.0659 126.67 48.0459C156.03 58.4459 182.79 76.0059 204.2 98.6159C210.5 105.256 216.33 112.326 221.62 119.786M84.9417 39.7285C84.7117 39.7285 85.1717 39.7285 84.9417 39.7285ZM84.9417 39.7285C69.7917 39.6885 49.1087 41.8909 39.1439 48.0459C33.7001 51.4084 31.2336 56.7629 31.7203 61.8659C32.0552 65.3774 34.7231 68.9731 37.9531 71.7931C44.0231 77.1031 51.5417 79.5686 60.2217 81.0386C68.0317 70.1086 83.7803 61.9959 97.2203 61.7459C110.66 61.5059 123.83 66.5559 134.9 74.1859C148.08 83.2859 159.21 96.2959 174.63 100.636C182.8 102.946 191.55 102.576 199.72 104.866C208.35 107.286 216.4 112.506 221.62 119.786M223.32 122.206C222.76 121.396 222.2 120.586 221.62 119.786M223.32 122.206C223 121.706 221.97 120.276 221.62 119.786" stroke="black" style="stroke:black;stroke-opacity:1;" stroke-width="8" stroke-linecap="round" stroke-linejoin="round"/>
<path d="M212.791 11.5439C212.167 9.5781 212.474 7.4032 213.843 5.85515C215.332 4.16463 217.975 3.88917 220.088 4.68004C222.194 5.46819 223.853 7.12536 225.296 8.85549C226.812 10.6711 228.187 12.6863 228.695 15.0005C229.198 17.3048 228.674 19.9617 226.884 21.4965C225.092 23.0383 221.432 23.081 220.185 21.0737" stroke="black" style="stroke:black;stroke-opacity:1;" stroke-width="8" stroke-linecap="round" stroke-linejoin="round"/>
<path d="M208.888 31.1661C214.061 37.309 216.878 44.899 217.515 49.912C218.387 56.7855 217.773 63.7833 216.048 70.4938C213.541 80.2486 209.733 88.8393 205.211 97.6662" stroke="black" style="stroke:black;stroke-opacity:1;" stroke-width="6" stroke-linecap="round" stroke-linejoin="round"/>
<path d="M139.687 41.1438C142.218 41.6866 144.71 40.075 145.252 37.5441C145.795 35.0132 144.184 32.5215 141.653 31.9787C139.122 31.4359 136.63 33.0476 136.087 35.5785C135.545 38.1094 137.156 40.6011 139.687 41.1438Z" fill="#8D8D8D" style="fill:#8D8D8D;fill:color(display-p3 0.5513 0.5513 0.5513);fill-opacity:1;"/>
<path d="M151.098 45.5985C153.629 46.1413 156.121 44.5296 156.663 41.9988C157.206 39.4679 155.595 36.9762 153.064 36.4334C150.533 35.8906 148.041 37.5023 147.498 40.0331C146.956 42.564 148.567 45.0557 151.098 45.5985Z" fill="#8D8D8D" style="fill:#8D8D8D;fill:color(display-p3 0.5513 0.5513 0.5513);fill-opacity:1;"/>
<path d="M153.404 20.7632C142.459 16.4905 130.167 21.3133 124.637 31.5853C123.866 33.0164 124.63 34.7356 126.144 35.3267V35.3267C127.658 35.9178 129.345 35.1515 130.171 33.7515C134.456 26.4914 143.295 23.1343 151.264 26.2451C159.232 29.356 163.459 37.8135 161.691 46.0565C161.351 47.6459 162.072 49.3522 163.586 49.9434V49.9434C165.1 50.5344 166.827 49.7873 167.23 48.2127C170.121 36.9105 164.348 25.0356 153.404 20.7632Z" fill="#8D8D8D" style="fill:#8D8D8D;fill:color(display-p3 0.5513 0.5513 0.5513);fill-opacity:1;"/>
<ellipse cx="178.018" cy="394.304" rx="103.381" ry="9.19141" fill="black" fill-opacity="0.15" style="fill:black;fill-opacity:0.15;"/>
</svg>
