<svg width="286" height="379" viewBox="0 0 286 379" fill="none" xmlns="http://www.w3.org/2000/svg">
<path d="M30.572 208.994C30.572 208.994 29.2828 193.706 29.1673 183.91C29.0211 171.507 30.5717 152.245 30.5717 152.245C25.2063 157.186 19.5193 161.78 14.7427 167.389C9.96401 173.007 6.08056 179.84 5.21584 187.425C4.36136 195.004 7.02087 203.328 12.9465 207.464C18.7255 211.492 30.572 208.994 30.572 208.994Z" fill="white" fill-opacity="0.75" style="fill:white;fill-opacity:0.75;"/>
<path d="M262.12 214.647C262.57 218.187 266.25 223.417 269.34 225.207C272.44 226.997 275.89 228.397 278.22 231.107C282.15 235.667 281.76 242.607 279.68 248.257C276.86 255.907 271.33 262.517 264.31 266.647C259.8 269.307 254.65 271.007 250.82 274.567C245.75 279.287 243.87 286.397 240.92 292.667C234.76 305.787 222.7 316.237 208.57 319.477C193.76 322.867 177.97 318.287 165.19 310.057C164.3 309.487 163.42 308.897 162.56 308.287H162.55C157.87 305.087 150.47 307.507 145.72 310.607C140.96 313.697 137.22 318.157 132.51 321.327C121.87 328.497 106.54 327.757 96.6402 319.597C93.7202 317.197 91.2302 314.237 87.9102 312.427C84.6002 310.627 79.9902 310.357 77.4402 313.137C76.1802 314.507 75.5802 316.437 74.1702 317.647C70.0402 321.167 64.2102 315.997 61.4802 311.307C41.3502 276.767 31.0302 237.297 29.3102 197.267C28.3202 174.037 30.2202 150.627 34.7802 127.887C35.5602 123.977 36.4202 120.077 37.3802 116.197C43.1402 92.7073 52.1602 69.9073 66.4902 50.5173C83.2002 27.9173 107.75 10.2773 135.51 5.88732C163.27 1.49732 193.88 11.9873 210.02 34.9873C221.7 51.6473 225.03 73.0273 223.27 93.2873C221.91 109.017 217.74 124.297 212.96 139.387C216.24 149.067 224.91 156.657 233.4 162.357C241.89 168.057 251.11 172.967 258.08 180.447C265.05 187.927 269.44 198.947 265.82 208.507C264.96 210.777 263.69 212.837 262.12 214.647Z" fill="white" fill-opacity="0.75" style="fill:white;fill-opacity:0.75;"/>
<path d="M274.009 228.077C269.969 224.387 264.019 221.737 262.419 216.777C262.379 216.797 262.349 216.827 262.319 216.857C259.049 219.137 257.419 220.047 253.839 221.747C249.919 223.607 245.959 224.967 241.579 225.147C241.029 225.167 240.449 225.187 239.859 225.217C243.989 226.847 247.809 229.017 250.859 232.227C256.869 238.557 257.909 250.347 250.669 255.217C245.629 258.607 238.669 257.517 233.319 260.397C226.939 263.837 224.649 271.767 223.609 278.947C222.569 286.117 221.939 293.927 217.129 299.347C211.219 306.007 200.849 306.687 192.289 304.207C183.729 301.727 176.139 296.727 167.849 293.487C159.549 290.257 149.609 289.007 142.139 293.857C134.149 299.047 130.509 310.197 121.399 312.987C114.219 315.187 106.729 311.167 100.429 307.057C94.1395 302.957 87.1795 298.407 79.7495 299.517C73.9095 300.387 68.5995 304.727 62.7495 303.917C58.6995 303.357 55.3195 300.327 53.3095 296.767C51.7295 293.977 49.3195 291.177 47.9395 288.167C51.1295 296.737 56.7995 304.047 61.2095 311.287C63.1695 314.507 65.6795 317.907 69.3895 318.577C73.4895 319.327 77.8095 315.687 77.7695 311.517C85.9095 313.057 92.1195 317.457 98.7295 320.997C105.339 324.537 112.829 327.287 120.229 326.037C134.779 323.577 144.689 306.567 159.429 307.097C170.809 317.107 186.449 322.257 201.379 320.407C216.309 318.557 230.229 309.757 238.299 297.067C242.899 289.827 245.719 281.387 251.539 275.087C259.799 266.147 273.459 262.197 278.609 251.177C282.169 243.577 280.209 233.757 273.999 228.097L274.009 228.077Z" fill="#BCBBFF" fill-opacity="0.4" style="fill:#BCBBFF;fill:color(display-p3 0.7373 0.7333 1.0000);fill-opacity:0.4;"/>
<ellipse cx="70.1868" cy="87.6114" rx="7.9148" ry="6.57367" transform="rotate(11.2397 70.1868 87.6114)" fill="#BCBBFF" fill-opacity="0.4" style="fill:#BCBBFF;fill:color(display-p3 0.7373 0.7333 1.0000);fill-opacity:0.4;"/>
<ellipse cx="152.143" cy="92.2457" rx="9.18965" ry="7.6325" transform="rotate(1.09845 152.143 92.2457)" fill="#BCBBFF" fill-opacity="0.4" style="fill:#BCBBFF;fill:color(display-p3 0.7373 0.7333 1.0000);fill-opacity:0.4;"/>
<path d="M208.72 152.407C212.74 137.547 216.66 117.447 218.38 102.157C220.1 86.8668 219.41 71.0468 214.18 56.5668C207.94 39.2768 195.15 24.4268 178.96 15.6968C162.78 6.96678 139.23 5.05678 121.35 9.34678" stroke="#BCBBFF" stroke-opacity="0.4" style="stroke:#BCBBFF;stroke:color(display-p3 0.7373 0.7333 1.0000);stroke-opacity:0.4;" stroke-width="8" stroke-linecap="round" stroke-linejoin="round"/>
<path d="M208.311 212.027C220.381 218.397 231.981 220.837 243.871 217.747C249.161 216.377 254.441 213.727 257.331 209.087C259.801 205.107 260.201 200.067 259.081 195.517C257.961 190.967 255.441 186.867 252.441 183.267C240.901 169.417 223.231 161.177 215.511 144.887" stroke="#BCBBFF" stroke-opacity="0.4" style="stroke:#BCBBFF;stroke:color(display-p3 0.7373 0.7333 1.0000);stroke-opacity:0.4;" stroke-width="8" stroke-linecap="round" stroke-linejoin="round"/>
<path d="M128.044 74.1831C129.707 72.4959 131.932 71.4644 134.306 71.8458C136.687 72.2222 138.48 73.8998 139.532 76.0223C140.585 78.1487 140.97 80.8363 140.532 83.5925L140.531 83.595C140.088 86.357 138.882 88.7904 137.217 90.4819C135.554 92.1704 133.329 93.2041 130.956 92.8287L130.952 92.8281C128.574 92.4462 126.781 90.7707 125.729 88.6468C124.675 86.5202 124.291 83.8327 124.729 81.0721L124.729 81.0692C125.173 78.3073 126.379 75.8736 128.044 74.1831Z" fill="black" style="fill:black;fill-opacity:1;"/>
<path d="M84.1047 71.7101C85.7233 70.2378 87.8415 69.3821 90.0291 69.8737C92.2195 70.3647 93.7721 72.0408 94.608 74.0646C95.4457 76.0929 95.6333 78.5965 95.0638 81.1162C94.4995 83.64 93.2592 85.8251 91.6364 87.3026C90.0176 88.7765 87.8993 89.6323 85.7115 89.1407C83.5197 88.6494 81.9676 86.9694 81.1323 84.9441C80.295 82.9137 80.1073 80.4078 80.6769 77.8879C81.2414 75.3686 82.482 73.1861 84.1047 71.7101Z" fill="black" style="fill:black;fill-opacity:1;"/>
<path d="M29.9945 209.158C24.1968 210.563 17.5978 210.704 12.9479 207.463C7.02234 203.328 4.36282 195.004 5.2173 187.425C6.08202 179.84 9.96547 173.006 14.7442 167.389C18.0601 163.491 23.6839 159.277 29.3399 153.373" stroke="black" style="stroke:black;stroke-opacity:1;" stroke-width="8" stroke-linecap="round" stroke-linejoin="round"/>
<path d="M208.72 152.407C210.15 148.077 211.58 143.747 212.96 139.387C217.74 124.297 221.91 109.017 223.27 93.2873C225.03 73.0273 221.7 51.6473 210.02 34.9873C193.88 11.9873 163.27 1.49732 135.51 5.88732C107.75 10.2773 83.2002 27.9173 66.4902 50.5173C52.1602 69.9073 43.1402 92.7073 37.3802 116.197C36.4202 120.077 35.5602 123.977 34.7802 127.887C30.2202 150.627 28.3202 174.037 29.3102 197.267C31.0302 237.297 41.3502 276.767 61.4802 311.307C64.2102 315.997 70.0402 321.167 74.1702 317.647C75.5802 316.437 76.1802 314.507 77.4402 313.137C79.9902 310.357 84.6002 310.627 87.9102 312.427C91.2302 314.237 93.7202 317.197 96.6402 319.597C106.54 327.757 121.87 328.497 132.51 321.327C137.22 318.157 140.96 313.697 145.72 310.607C150.47 307.507 157.87 305.087 162.55 308.297" stroke="black" style="stroke:black;stroke-opacity:1;" stroke-width="8" stroke-linecap="round" stroke-linejoin="round"/>
<path d="M162.559 308.287C163.419 308.897 164.299 309.487 165.189 310.057C177.969 318.287 193.759 322.867 208.569 319.477C222.699 316.237 234.759 305.787 240.919 292.667C243.869 286.397 245.749 279.287 250.819 274.567C254.649 271.007 259.799 269.307 264.309 266.647C271.329 262.517 276.859 255.907 279.679 248.257C281.759 242.607 282.149 235.667 278.219 231.107C275.889 228.397 272.439 226.997 269.339 225.207C266.249 223.417 262.569 218.187 262.119 214.647" stroke="black" style="stroke:black;stroke-opacity:1;" stroke-width="8" stroke-linecap="round" stroke-linejoin="round"/>
<path d="M134.609 278.438C143.861 289.756 153.705 300.879 165.742 309.181" stroke="black" style="stroke:black;stroke-opacity:1;" stroke-width="6" stroke-linecap="round" stroke-linejoin="round"/>
<path d="M75.3006 298.347C70.6206 290.907 66.7006 282.977 63.6406 274.737" stroke="black" style="stroke:black;stroke-opacity:1;" stroke-width="6" stroke-linecap="round" stroke-linejoin="round"/>
<path d="M234.679 264.437C217.919 258.327 202.329 249.037 188.969 237.207" stroke="black" style="stroke:black;stroke-opacity:1;" stroke-width="6" stroke-linecap="round" stroke-linejoin="round"/>
<path d="M206.08 210.738C212.67 214.548 219.31 218.388 226.5 220.868C233.69 223.348 241.57 224.418 248.95 222.568C253.98 221.308 258.74 218.538 262.12 214.648C263.69 212.838 264.96 210.778 265.82 208.508C269.44 198.948 265.05 187.928 258.08 180.448C251.11 172.968 241.89 168.058 233.4 162.358C224.91 156.658 216.24 149.068 212.96 139.388" stroke="black" style="stroke:black;stroke-opacity:1;" stroke-width="8" stroke-linecap="round" stroke-linejoin="round"/>
<ellipse cx="178.68" cy="369.697" rx="103.381" ry="9.19141" fill="black" fill-opacity="0.15" style="fill:black;fill-opacity:0.15;"/>
</svg>
