<svg width="286" height="404" viewBox="0 0 286 404" fill="none" xmlns="http://www.w3.org/2000/svg">
<path d="M30.572 233.596C30.572 233.596 29.2828 218.308 29.1673 208.512C29.0211 196.11 30.5717 176.847 30.5717 176.847C25.2063 181.788 19.5193 186.383 14.7427 191.992C9.96401 197.609 6.08056 204.443 5.21584 212.028C4.36136 219.607 7.02087 227.931 12.9465 232.066C18.7255 236.094 30.572 233.596 30.572 233.596Z" fill="white" fill-opacity="0.75" style="fill:white;fill-opacity:0.75;"/>
<path d="M262.12 239.25C262.57 242.79 266.25 248.02 269.34 249.81C272.44 251.6 275.89 253 278.22 255.71C282.15 260.27 281.76 267.21 279.68 272.86C276.86 280.51 271.33 287.12 264.31 291.25C259.8 293.91 254.65 295.61 250.82 299.17C245.75 303.89 243.87 311 240.92 317.27C234.76 330.39 222.7 340.84 208.57 344.08C193.76 347.47 177.97 342.89 165.19 334.66C164.3 334.09 163.42 333.5 162.56 332.89H162.55C157.87 329.69 150.47 332.11 145.72 335.21C140.96 338.3 137.22 342.76 132.51 345.93C121.87 353.1 106.54 352.36 96.6402 344.2C93.7202 341.8 91.2302 338.84 87.9102 337.03C84.6002 335.23 79.9902 334.96 77.4402 337.74C76.1802 339.11 75.5802 341.04 74.1702 342.25C70.0402 345.77 64.2102 340.6 61.4802 335.91C41.3502 301.37 31.0302 261.9 29.3102 221.87C28.3202 198.64 30.2202 175.23 34.7802 152.49C35.5602 148.58 36.4202 144.68 37.3802 140.8C43.1402 117.31 52.1602 94.5099 66.4902 75.1199C83.2002 52.5199 107.75 34.8799 135.51 30.4899C163.27 26.0999 193.88 36.5899 210.02 59.5899C221.7 76.2499 225.03 97.6299 223.27 117.89C221.91 133.62 217.74 148.9 212.96 163.99C216.24 173.67 224.91 181.26 233.4 186.96C241.89 192.66 251.11 197.57 258.08 205.05C265.05 212.53 269.44 223.55 265.82 233.11C264.96 235.38 263.69 237.44 262.12 239.25Z" fill="white" fill-opacity="0.75" style="fill:white;fill-opacity:0.75;"/>
<path d="M274.009 252.68C269.969 248.99 264.019 246.34 262.419 241.38C262.379 241.4 262.349 241.43 262.319 241.46C259.049 243.74 257.419 244.65 253.839 246.35C249.919 248.21 245.959 249.57 241.579 249.75C241.029 249.77 240.449 249.79 239.859 249.82C243.989 251.45 247.809 253.62 250.859 256.83C256.869 263.16 257.909 274.95 250.669 279.82C245.629 283.21 238.669 282.12 233.319 285C226.939 288.44 224.649 296.37 223.609 303.55C222.569 310.72 221.939 318.53 217.129 323.95C211.219 330.61 200.849 331.29 192.289 328.81C183.729 326.33 176.139 321.33 167.849 318.09C159.549 314.86 149.609 313.61 142.139 318.46C134.149 323.65 130.509 334.8 121.399 337.59C114.219 339.79 106.729 335.77 100.429 331.66C94.1395 327.56 87.1795 323.01 79.7495 324.12C73.9095 324.99 68.5995 329.33 62.7495 328.52C58.6995 327.96 55.3195 324.93 53.3095 321.37C51.7295 318.58 49.3195 315.78 47.9395 312.77C51.1295 321.34 56.7995 328.65 61.2095 335.89C63.1695 339.11 65.6795 342.51 69.3895 343.18C73.4895 343.93 77.8095 340.29 77.7695 336.12C85.9095 337.66 92.1195 342.06 98.7295 345.6C105.339 349.14 112.829 351.89 120.229 350.64C134.779 348.18 144.689 331.17 159.429 331.7C170.809 341.71 186.449 346.86 201.379 345.01C216.309 343.16 230.229 334.36 238.299 321.67C242.899 314.43 245.719 305.99 251.539 299.69C259.799 290.75 273.459 286.8 278.609 275.78C282.169 268.18 280.209 258.36 273.999 252.7L274.009 252.68Z" fill="#BCBBFF" fill-opacity="0.4" style="fill:#BCBBFF;fill:color(display-p3 0.7373 0.7333 1.0000);fill-opacity:0.4;"/>
<ellipse cx="70.1868" cy="112.214" rx="7.9148" ry="6.57367" transform="rotate(11.2397 70.1868 112.214)" fill="#BCBBFF" fill-opacity="0.4" style="fill:#BCBBFF;fill:color(display-p3 0.7373 0.7333 1.0000);fill-opacity:0.4;"/>
<ellipse cx="152.143" cy="116.848" rx="9.18965" ry="7.6325" transform="rotate(1.09845 152.143 116.848)" fill="#BCBBFF" fill-opacity="0.4" style="fill:#BCBBFF;fill:color(display-p3 0.7373 0.7333 1.0000);fill-opacity:0.4;"/>
<path d="M208.72 177.009C212.74 162.149 216.66 142.049 218.38 126.759C220.1 111.469 219.41 95.6493 214.18 81.1693C207.94 63.8793 195.15 49.0293 178.96 40.2993C162.78 31.5693 139.23 29.6593 121.35 33.9493" stroke="#BCBBFF" stroke-opacity="0.4" style="stroke:#BCBBFF;stroke:color(display-p3 0.7373 0.7333 1.0000);stroke-opacity:0.4;" stroke-width="8" stroke-linecap="round" stroke-linejoin="round"/>
<path d="M208.309 236.629C220.379 242.999 231.979 245.439 243.869 242.349C249.159 240.979 254.439 238.329 257.329 233.689C259.799 229.709 260.199 224.669 259.079 220.119C257.959 215.569 255.439 211.469 252.439 207.869C240.899 194.019 223.229 185.779 215.509 169.489" stroke="#BCBBFF" stroke-opacity="0.4" style="stroke:#BCBBFF;stroke:color(display-p3 0.7373 0.7333 1.0000);stroke-opacity:0.4;" stroke-width="8" stroke-linecap="round" stroke-linejoin="round"/>
<path d="M128.044 98.7856C129.707 97.0984 131.932 96.067 134.306 96.4483C136.687 96.8248 138.48 98.5023 139.532 100.625C140.585 102.751 140.97 105.439 140.532 108.195L140.531 108.198C140.088 110.96 138.882 113.393 137.217 115.084C135.554 116.773 133.329 117.807 130.956 117.431L130.952 117.431C128.574 117.049 126.781 115.373 125.729 113.249C124.675 111.123 124.291 108.435 124.729 105.675L124.729 105.672C125.173 102.91 126.379 100.476 128.044 98.7856Z" fill="black" style="fill:black;fill-opacity:1;"/>
<path d="M84.1047 96.3126C85.7233 94.8403 87.8415 93.9847 90.0291 94.4762C92.2195 94.9672 93.7721 96.6433 94.608 98.6671C95.4457 100.695 95.6333 103.199 95.0638 105.719C94.4995 108.243 93.2592 110.428 91.6364 111.905C90.0176 113.379 87.8993 114.235 85.7115 113.743C83.5197 113.252 81.9676 111.572 81.1323 109.547C80.295 107.516 80.1073 105.01 80.6769 102.49C81.2414 99.9711 82.482 97.7886 84.1047 96.3126Z" fill="black" style="fill:black;fill-opacity:1;"/>
<path d="M29.9945 233.76C24.1968 235.166 17.5978 235.307 12.9479 232.066C7.02234 227.93 4.36282 219.606 5.2173 212.028C6.08202 204.442 9.96547 197.609 14.7442 191.991C18.0601 188.093 23.6839 183.88 29.3399 177.976" stroke="black" style="stroke:black;stroke-opacity:1;" stroke-width="8" stroke-linecap="round" stroke-linejoin="round"/>
<path d="M208.72 177.01C210.15 172.68 211.58 168.35 212.96 163.99C217.74 148.9 221.91 133.62 223.27 117.89C225.03 97.6299 221.7 76.2499 210.02 59.5899C193.88 36.5899 163.27 26.0999 135.51 30.4899C107.75 34.8799 83.2002 52.5199 66.4902 75.1199C52.1602 94.5099 43.1402 117.31 37.3802 140.8C36.4202 144.68 35.5602 148.58 34.7802 152.49C30.2202 175.23 28.3202 198.64 29.3102 221.87C31.0302 261.9 41.3502 301.37 61.4802 335.91C64.2102 340.6 70.0402 345.77 74.1702 342.25C75.5802 341.04 76.1802 339.11 77.4402 337.74C79.9902 334.96 84.6002 335.23 87.9102 337.03C91.2302 338.84 93.7202 341.8 96.6402 344.2C106.54 352.36 121.87 353.1 132.51 345.93C137.22 342.76 140.96 338.3 145.72 335.21C150.47 332.11 157.87 329.69 162.55 332.9" stroke="black" style="stroke:black;stroke-opacity:1;" stroke-width="8" stroke-linecap="round" stroke-linejoin="round"/>
<path d="M162.559 332.89C163.419 333.5 164.299 334.09 165.189 334.66C177.969 342.89 193.759 347.47 208.569 344.08C222.699 340.84 234.759 330.39 240.919 317.27C243.869 311 245.749 303.89 250.819 299.17C254.649 295.61 259.799 293.91 264.309 291.25C271.329 287.12 276.859 280.51 279.679 272.86C281.759 267.21 282.149 260.27 278.219 255.71C275.889 253 272.439 251.6 269.339 249.81C266.249 248.02 262.569 242.79 262.119 239.25" stroke="black" style="stroke:black;stroke-opacity:1;" stroke-width="8" stroke-linecap="round" stroke-linejoin="round"/>
<path d="M134.609 303.04C143.861 314.359 153.705 325.482 165.742 333.783" stroke="black" style="stroke:black;stroke-opacity:1;" stroke-width="6" stroke-linecap="round" stroke-linejoin="round"/>
<path d="M75.3006 322.95C70.6206 315.51 66.7006 307.58 63.6406 299.34" stroke="black" style="stroke:black;stroke-opacity:1;" stroke-width="6" stroke-linecap="round" stroke-linejoin="round"/>
<path d="M234.679 289.04C217.919 282.93 202.329 273.64 188.969 261.81" stroke="black" style="stroke:black;stroke-opacity:1;" stroke-width="6" stroke-linecap="round" stroke-linejoin="round"/>
<path d="M206.08 235.34C212.67 239.15 219.31 242.99 226.5 245.47C233.69 247.95 241.57 249.02 248.95 247.17C253.98 245.91 258.74 243.14 262.12 239.25C263.69 237.44 264.96 235.38 265.82 233.11C269.44 223.55 265.05 212.53 258.08 205.05C251.11 197.57 241.89 192.66 233.4 186.96C224.91 181.26 216.24 173.67 212.96 163.99" stroke="black" style="stroke:black;stroke-opacity:1;" stroke-width="8" stroke-linecap="round" stroke-linejoin="round"/>
<path d="M229.359 14.9966C229.862 17.3009 229.338 19.9578 227.548 21.4926C225.756 23.0344 222.096 23.0771 220.849 21.0698L220.609 21.2071C218.462 17.6118 216.063 14.313 213.455 11.54C212.831 9.57419 213.138 7.3993 214.507 5.85124C215.996 4.16072 218.639 3.88527 220.752 4.67614C222.858 5.46428 224.517 7.12145 225.96 8.85158C227.476 10.6672 228.851 12.6824 229.359 14.9966Z" fill="#E5E5FF" style="fill:#E5E5FF;fill:color(display-p3 0.8980 0.8980 1.0000);fill-opacity:1;"/>
<path d="M235.603 74.4723C234.753 90.9123 230.623 107.182 223.983 122.202C223.423 121.392 222.863 120.582 222.283 119.782C216.993 112.322 211.163 105.252 204.863 98.6123L205.873 97.6623C211.903 85.8923 216.663 74.5423 218.763 60.2923C218.763 50.3723 217.553 43.7623 214.463 34.8623H214.473C226.773 48.4123 235.603 64.4223 235.603 74.4723Z" fill="#BCBBFF" style="fill:#BCBBFF;fill:color(display-p3 0.7391 0.7337 1.0000);fill-opacity:1;"/>
<path d="M204.864 98.6116C211.164 105.252 216.994 112.322 222.284 119.782L221.984 119.992C216.764 112.712 209.014 107.272 200.384 104.852C192.214 102.562 183.464 102.932 175.294 100.622C159.874 96.2816 148.744 83.2716 135.564 74.1716C124.494 66.5416 111.324 61.4916 97.8839 61.7316C84.4439 61.9816 66.6339 68.3916 58.8239 79.3216C50.1439 77.8516 44.5239 76.3416 38.4539 71.0316C35.2239 68.2116 32.9839 64.5116 32.3839 61.8516C31.3739 57.3216 35.5339 53.3716 39.4839 50.9316C52.3939 42.9816 67.7439 39.4916 82.8939 39.5316C83.1239 39.5316 83.3639 39.5316 83.5939 39.5316C98.5139 39.6616 113.274 43.0516 127.334 48.0316C156.694 58.4316 183.454 75.9916 204.864 98.6016V98.6116Z" fill="#BCBBFF" style="fill:#BCBBFF;fill:color(display-p3 0.7391 0.7337 1.0000);fill-opacity:1;"/>
<path d="M214.464 34.862C217.554 43.762 218.764 50.372 218.764 60.292C216.664 74.542 211.904 85.892 205.874 97.662L204.864 98.612C183.454 76.002 156.694 58.442 127.334 48.042C113.274 43.062 98.5138 39.672 83.5938 39.542V39.312C91.9038 31.132 99.2037 20.712 111.504 14.272C135.324 2.70203 164.434 2.65203 188.234 14.182C192.714 16.352 197.184 19.262 201.484 22.652C206.064 26.262 210.454 30.432 214.474 34.852H214.464V34.862Z" fill="#E5E5FF" style="fill:#E5E5FF;fill:color(display-p3 0.8980 0.8980 1.0000);fill-opacity:1;"/>
<path d="M85.6057 39.7246C92.6924 31.0665 99.2044 20.712 111.504 14.272C135.324 2.70203 164.434 2.65203 188.234 14.182C192.714 16.352 197.184 19.262 201.484 22.652C206.064 26.262 210.454 30.432 214.474 34.852C226.774 48.412 232.885 65.2339 232.885 78.5133C232.885 94.9753 230.624 107.182 223.984 122.202M85.6057 39.7246C100.526 39.8546 113.274 43.062 127.334 48.042C156.694 58.442 183.454 76.002 204.864 98.612C211.164 105.252 216.994 112.322 222.284 119.782M85.6057 39.7246C85.3757 39.7246 85.8357 39.7246 85.6057 39.7246ZM85.6057 39.7246C70.4557 39.6846 49.7728 41.887 39.8079 48.042C34.3642 51.4045 31.8976 56.759 32.3844 61.862C32.7193 65.3735 35.3872 68.9691 38.6172 71.7891C44.6872 77.0991 52.2058 79.5647 60.8858 81.0347C68.6958 70.1047 84.4444 61.992 97.8844 61.742C111.324 61.502 124.494 66.552 135.564 74.182C148.744 83.282 159.874 96.292 175.294 100.632C183.464 102.942 192.214 102.572 200.384 104.862C209.014 107.282 217.064 112.502 222.284 119.782M223.984 122.202C223.424 121.392 222.864 120.582 222.284 119.782M223.984 122.202C223.664 121.702 222.634 120.272 222.284 119.782" stroke="black" style="stroke:black;stroke-opacity:1;" stroke-width="8" stroke-linecap="round" stroke-linejoin="round"/>
<path d="M213.455 11.54C212.831 9.57419 213.138 7.3993 214.507 5.85124C215.996 4.16072 218.639 3.88527 220.752 4.67614C222.858 5.46428 224.517 7.12145 225.96 8.85158C227.476 10.6672 228.851 12.6824 229.359 14.9966C229.862 17.3009 229.338 19.9578 227.548 21.4926C225.756 23.0344 222.096 23.0771 220.849 21.0698" stroke="black" style="stroke:black;stroke-opacity:1;" stroke-width="8" stroke-linecap="round" stroke-linejoin="round"/>
<path d="M209.552 31.1622C214.725 37.3051 217.542 44.895 218.179 49.9081C219.052 56.7816 218.437 63.7794 216.712 70.4899C214.205 80.2447 210.397 88.8354 205.875 97.6623" stroke="black" style="stroke:black;stroke-opacity:1;" stroke-width="6" stroke-linecap="round" stroke-linejoin="round"/>
<path d="M140.351 41.1399C142.882 41.6827 145.374 40.0711 145.916 37.5402C146.459 35.0093 144.848 32.5176 142.317 31.9748C139.786 31.432 137.294 33.0437 136.751 35.5746C136.209 38.1054 137.82 40.5971 140.351 41.1399Z" fill="#7B7BAC" style="fill:#7B7BAC;fill:color(display-p3 0.4824 0.4824 0.6745);fill-opacity:1;"/>
<path d="M151.762 45.5946C154.293 46.1374 156.785 44.5257 157.328 41.9949C157.87 39.464 156.259 36.9723 153.728 36.4295C151.197 35.8867 148.705 37.4984 148.162 40.0292C147.62 42.5601 149.231 45.0518 151.762 45.5946Z" fill="#7B7BAC" style="fill:#7B7BAC;fill:color(display-p3 0.4824 0.4824 0.6745);fill-opacity:1;"/>
<path d="M154.068 20.7593C143.123 16.4866 130.831 21.3094 125.301 31.5814C124.53 33.0125 125.294 34.7317 126.808 35.3227V35.3227C128.323 35.9139 130.009 35.1476 130.835 33.7476C135.12 26.4875 143.959 23.1304 151.928 26.2412C159.896 29.3521 164.123 37.8096 162.355 46.0526C162.015 47.642 162.736 49.3483 164.25 49.9395V49.9395C165.764 50.5305 167.491 49.7833 167.894 48.2088C170.785 36.9066 165.012 25.0317 154.068 20.7593Z" fill="#7B7BAC" style="fill:#7B7BAC;fill:color(display-p3 0.4824 0.4824 0.6745);fill-opacity:1;"/>
<ellipse cx="178.682" cy="394.3" rx="103.381" ry="9.19141" fill="black" fill-opacity="0.15" style="fill:black;fill-opacity:0.15;"/>
</svg>
