<svg width="285" height="404" viewBox="0 0 285 404" fill="none" xmlns="http://www.w3.org/2000/svg">
<path d="M29.908 233.732C29.908 233.732 28.6188 218.444 28.5033 208.648C28.3571 196.246 29.9076 176.983 29.9076 176.983C24.5422 181.924 18.8552 186.519 14.0787 192.127C9.29994 197.745 5.4165 204.578 4.55178 212.164C3.6973 219.743 6.35681 228.066 12.2824 232.202C18.0614 236.23 29.908 233.732 29.908 233.732Z" fill="white" fill-opacity="0.75" style="fill:white;fill-opacity:0.75;"/>
<path d="M261.456 239.386C261.906 242.926 265.586 248.156 268.676 249.946C271.776 251.736 275.226 253.136 277.556 255.846C281.486 260.406 281.096 267.346 279.016 272.996C276.196 280.646 270.666 287.256 263.646 291.386C259.136 294.046 253.986 295.746 250.156 299.306C245.086 304.026 243.206 311.136 240.256 317.406C234.096 330.526 222.036 340.976 207.906 344.216C193.096 347.606 177.306 343.026 164.526 334.796C163.636 334.226 162.756 333.636 161.896 333.026H161.886C157.206 329.826 149.806 332.246 145.056 335.346C140.296 338.436 136.556 342.896 131.846 346.066C121.206 353.236 105.876 352.496 95.9761 344.336C93.0561 341.936 90.5661 338.976 87.2461 337.166C83.9361 335.366 79.3261 335.096 76.7761 337.876C75.5161 339.246 74.9161 341.176 73.5061 342.386C69.3761 345.906 63.5461 340.736 60.8161 336.046C40.6861 301.506 30.3661 262.036 28.6461 222.006C27.6561 198.776 29.5561 175.366 34.1161 152.626C34.8961 148.716 35.7561 144.816 36.7161 140.936C42.4761 117.446 51.4961 94.6456 65.8261 75.2556C82.5361 52.6556 107.086 35.0156 134.846 30.6256C162.606 26.2356 193.216 36.7256 209.356 59.7256C221.036 76.3856 224.366 97.7656 222.606 118.026C221.246 133.756 217.076 149.036 212.296 164.126C215.576 173.806 224.246 181.396 232.736 187.096C241.226 192.796 250.446 197.706 257.416 205.186C264.386 212.666 268.776 223.686 265.156 233.246C264.296 235.516 263.026 237.576 261.456 239.386Z" fill="white" fill-opacity="0.75" style="fill:white;fill-opacity:0.75;"/>
<path d="M273.345 252.816C269.305 249.126 263.355 246.476 261.755 241.516C261.715 241.536 261.685 241.566 261.655 241.596C258.385 243.876 256.755 244.786 253.175 246.486C249.255 248.346 245.295 249.706 240.915 249.886C240.365 249.906 239.785 249.926 239.195 249.956C243.325 251.586 247.145 253.756 250.195 256.966C256.205 263.296 257.245 275.086 250.005 279.956C244.965 283.346 238.005 282.256 232.655 285.136C226.275 288.576 223.985 296.506 222.945 303.686C221.905 310.856 221.275 318.666 216.465 324.086C210.555 330.746 200.185 331.426 191.625 328.946C183.065 326.466 175.475 321.466 167.185 318.226C158.885 314.996 148.945 313.746 141.475 318.596C133.485 323.786 129.845 334.936 120.735 337.726C113.555 339.926 106.065 335.906 99.7654 331.796C93.4754 327.696 86.5154 323.146 79.0854 324.256C73.2454 325.126 67.9354 329.466 62.0854 328.656C58.0354 328.096 54.6554 325.066 52.6454 321.506C51.0654 318.716 48.6554 315.916 47.2754 312.906C50.4654 321.476 56.1354 328.786 60.5454 336.026C62.5054 339.246 65.0154 342.646 68.7254 343.316C72.8254 344.066 77.1454 340.426 77.1054 336.256C85.2454 337.796 91.4554 342.196 98.0654 345.736C104.675 349.276 112.165 352.026 119.565 350.776C134.115 348.316 144.025 331.306 158.765 331.836C170.145 341.846 185.785 346.996 200.715 345.146C215.645 343.296 229.565 334.496 237.635 321.806C242.235 314.566 245.055 306.126 250.875 299.826C259.135 290.886 272.795 286.936 277.945 275.916C281.505 268.316 279.545 258.496 273.335 252.836L273.345 252.816Z" fill="black" fill-opacity="0.15" style="fill:black;fill-opacity:0.15;"/>
<ellipse cx="69.5227" cy="112.35" rx="7.9148" ry="6.57367" transform="rotate(11.2397 69.5227 112.35)" fill="black" fill-opacity="0.15" style="fill:black;fill-opacity:0.15;"/>
<ellipse cx="151.479" cy="116.984" rx="9.18965" ry="7.6325" transform="rotate(1.09845 151.479 116.984)" fill="black" fill-opacity="0.15" style="fill:black;fill-opacity:0.15;"/>
<path d="M208.056 177.145C212.076 162.285 215.996 142.185 217.716 126.895C219.436 111.605 218.746 95.7851 213.516 81.3051C207.276 64.0151 194.486 49.1651 178.296 40.4351C162.116 31.7051 138.566 29.7951 120.686 34.0851" stroke="black" stroke-opacity="0.15" style="stroke:black;stroke-opacity:0.15;" stroke-width="8" stroke-linecap="round" stroke-linejoin="round"/>
<path d="M207.645 236.765C219.715 243.135 231.315 245.575 243.205 242.485C248.495 241.115 253.775 238.465 256.665 233.825C259.135 229.845 259.535 224.805 258.415 220.255C257.295 215.705 254.775 211.605 251.775 208.005C240.235 194.155 222.565 185.915 214.845 169.625" stroke="black" stroke-opacity="0.15" style="stroke:black;stroke-opacity:0.15;" stroke-width="8" stroke-linecap="round" stroke-linejoin="round"/>
<path d="M127.38 98.9213C129.043 97.2341 131.268 96.2027 133.642 96.584C136.023 96.9605 137.816 98.6381 138.868 100.761C139.921 102.887 140.306 105.575 139.868 108.331L139.867 108.333C139.423 111.095 138.218 113.529 136.553 115.22C134.89 116.909 132.665 117.942 130.292 117.567L130.288 117.566C127.91 117.185 126.117 115.509 125.065 113.385C124.011 111.258 123.627 108.571 124.065 105.81L124.065 105.807C124.509 103.046 125.715 100.612 127.38 98.9213Z" fill="black" style="fill:black;fill-opacity:1;"/>
<path d="M83.4407 96.4483C85.0593 94.9761 87.1774 94.1204 89.3651 94.612C91.5554 95.1029 93.108 96.7791 93.9439 98.8029C94.7816 100.831 94.9692 103.335 94.3997 105.854C93.8354 108.378 92.5951 110.563 90.9724 112.041C89.3536 113.515 87.2352 114.371 85.0474 113.879C82.8557 113.388 81.3035 111.708 80.4683 109.682C79.6309 107.652 79.4432 105.146 80.0128 102.626C80.5773 100.107 81.818 97.9243 83.4407 96.4483Z" fill="black" style="fill:black;fill-opacity:1;"/>
<path d="M29.3305 233.896C23.5327 235.301 16.9337 235.442 12.2839 232.202C6.35827 228.066 3.69876 219.742 4.55324 212.163C5.41796 204.578 9.30141 197.744 14.0801 192.127C17.3961 188.229 23.0198 184.016 28.6758 178.111" stroke="black" style="stroke:black;stroke-opacity:1;" stroke-width="8" stroke-linecap="round" stroke-linejoin="round"/>
<path d="M208.056 177.146C209.486 172.816 210.916 168.486 212.296 164.126C217.076 149.036 221.246 133.756 222.606 118.026C224.366 97.7656 221.036 76.3856 209.356 59.7256C193.216 36.7256 162.606 26.2356 134.846 30.6256C107.086 35.0156 82.5361 52.6556 65.8261 75.2556C51.4961 94.6456 42.4761 117.446 36.7161 140.936C35.7561 144.816 34.8961 148.716 34.1161 152.626C29.5561 175.366 27.6561 198.776 28.6461 222.006C30.3661 262.036 40.6861 301.506 60.8161 336.046C63.5461 340.736 69.3761 345.906 73.5061 342.386C74.9161 341.176 75.5161 339.246 76.7761 337.876C79.3261 335.096 83.9361 335.366 87.2461 337.166C90.5661 338.976 93.0561 341.936 95.9761 344.336C105.876 352.496 121.206 353.236 131.846 346.066C136.556 342.896 140.296 338.436 145.056 335.346C149.806 332.246 157.206 329.826 161.886 333.036" stroke="black" style="stroke:black;stroke-opacity:1;" stroke-width="8" stroke-linecap="round" stroke-linejoin="round"/>
<path d="M161.895 333.026C162.755 333.636 163.635 334.226 164.525 334.796C177.305 343.026 193.095 347.606 207.905 344.216C222.035 340.976 234.095 330.526 240.255 317.406C243.205 311.136 245.085 304.026 250.155 299.306C253.985 295.746 259.135 294.046 263.645 291.386C270.665 287.256 276.195 280.646 279.015 272.996C281.095 267.346 281.485 260.406 277.555 255.846C275.225 253.136 271.775 251.736 268.675 249.946C265.585 248.156 261.905 242.926 261.455 239.386" stroke="black" style="stroke:black;stroke-opacity:1;" stroke-width="8" stroke-linecap="round" stroke-linejoin="round"/>
<path d="M133.945 303.176C143.197 314.495 153.041 325.618 165.078 333.919" stroke="black" style="stroke:black;stroke-opacity:1;" stroke-width="6" stroke-linecap="round" stroke-linejoin="round"/>
<path d="M74.6366 323.086C69.9566 315.646 66.0366 307.716 62.9766 299.476" stroke="black" style="stroke:black;stroke-opacity:1;" stroke-width="6" stroke-linecap="round" stroke-linejoin="round"/>
<path d="M234.015 289.175C217.255 283.065 201.665 273.775 188.305 261.945" stroke="black" style="stroke:black;stroke-opacity:1;" stroke-width="6" stroke-linecap="round" stroke-linejoin="round"/>
<path d="M205.416 235.476C212.006 239.286 218.646 243.126 225.836 245.606C233.026 248.086 240.906 249.156 248.286 247.306C253.316 246.046 258.076 243.276 261.456 239.386C263.026 237.576 264.296 235.516 265.156 233.246C268.776 223.686 264.386 212.666 257.416 205.186C250.446 197.706 241.226 192.796 232.736 187.096C224.246 181.396 215.576 173.806 212.296 164.126" stroke="black" style="stroke:black;stroke-opacity:1;" stroke-width="8" stroke-linecap="round" stroke-linejoin="round"/>
<path d="M228.695 15.1324C229.198 17.4367 228.674 20.0936 226.884 21.6283C225.092 23.1702 221.432 23.2129 220.185 21.2056L219.945 21.3428C217.798 17.7475 215.399 14.4487 212.791 11.6758C212.167 9.70993 212.474 7.53504 213.843 5.98698C215.332 4.29646 217.975 4.02101 220.088 4.81188C222.194 5.60002 223.853 7.2572 225.296 8.98732C226.812 10.8029 228.187 12.8182 228.695 15.1324Z" fill="#F2F2F2" style="fill:#F2F2F2;fill:color(display-p3 0.9472 0.9472 0.9472);fill-opacity:1;"/>
<path d="M234.939 74.608C234.089 91.048 229.959 107.318 223.319 122.338C222.759 121.528 222.199 120.718 221.619 119.918C216.329 112.458 210.499 105.388 204.199 98.748L205.209 97.798C211.239 86.028 215.999 74.678 218.099 60.428C218.099 50.508 216.889 43.898 213.799 34.998H213.809C226.109 48.548 234.939 64.558 234.939 74.608Z" fill="#D5D5D5" style="fill:#D5D5D5;fill:color(display-p3 0.8353 0.8353 0.8353);fill-opacity:1;"/>
<path d="M204.2 98.7473C210.5 105.387 216.33 112.457 221.62 119.917L221.32 120.127C216.1 112.847 208.35 107.407 199.72 104.987C191.55 102.697 182.8 103.067 174.63 100.757C159.21 96.4173 148.08 83.4073 134.9 74.3073C123.83 66.6773 110.66 61.6273 97.2198 61.8673C83.7798 62.1173 65.9698 68.5273 58.1598 79.4573C49.4798 77.9873 43.8598 76.4773 37.7898 71.1673C34.5598 68.3473 32.3198 64.6473 31.7198 61.9873C30.7098 57.4573 34.8698 53.5073 38.8198 51.0673C51.7298 43.1173 67.0798 39.6273 82.2298 39.6673C82.4598 39.6673 82.6998 39.6673 82.9298 39.6673C97.8498 39.7973 112.61 43.1873 126.67 48.1673C156.03 58.5673 182.79 76.1273 204.2 98.7373V98.7473Z" fill="#D5D5D5" style="fill:#D5D5D5;fill:color(display-p3 0.8353 0.8353 0.8353);fill-opacity:1;"/>
<path d="M213.8 34.9978C216.89 43.8978 218.1 50.5078 218.1 60.4278C216 74.6778 211.24 86.0278 205.21 97.7978L204.2 98.7478C182.79 76.1378 156.03 58.5778 126.67 48.1778C112.61 43.1978 97.8497 39.8078 82.9297 39.6778V39.4478C91.2397 31.2678 98.5397 20.8478 110.84 14.4078C134.66 2.83778 163.77 2.78778 187.57 14.3178C192.05 16.4878 196.52 19.3978 200.82 22.7878C205.4 26.3978 209.79 30.5678 213.81 34.9878H213.8V34.9978Z" fill="#F2F2F2" style="fill:#F2F2F2;fill:color(display-p3 0.9472 0.9472 0.9472);fill-opacity:1;"/>
<path d="M84.9417 39.8603C92.0283 31.2023 98.5403 20.8478 110.84 14.4078C134.66 2.83778 163.77 2.78778 187.57 14.3178C192.05 16.4878 196.52 19.3978 200.82 22.7878C205.4 26.3978 209.79 30.5678 213.81 34.9878C226.11 48.5478 232.221 65.3696 232.221 78.649C232.221 95.111 229.96 107.318 223.32 122.338M84.9417 39.8603C99.8617 39.9903 112.61 43.1978 126.67 48.1778C156.03 58.5778 182.79 76.1378 204.2 98.7478C210.5 105.388 216.33 112.458 221.62 119.918M84.9417 39.8603C84.7117 39.8603 85.1717 39.8603 84.9417 39.8603ZM84.9417 39.8603C69.7917 39.8203 49.1087 42.0228 39.1439 48.1778C33.7001 51.5402 31.2336 56.8947 31.7203 61.9978C32.0552 65.5093 34.7231 69.1049 37.9531 71.9249C44.0231 77.2349 51.5417 79.7005 60.2217 81.1705C68.0317 70.2405 83.7803 62.1278 97.2203 61.8778C110.66 61.6378 123.83 66.6878 134.9 74.3178C148.08 83.4178 159.21 96.4278 174.63 100.768C182.8 103.078 191.55 102.708 199.72 104.998C208.35 107.418 216.4 112.638 221.62 119.918M223.32 122.338C222.76 121.528 222.2 120.718 221.62 119.918M223.32 122.338C223 121.838 221.97 120.408 221.62 119.918" stroke="black" style="stroke:black;stroke-opacity:1;" stroke-width="8" stroke-linecap="round" stroke-linejoin="round"/>
<path d="M212.791 11.6758C212.167 9.70993 212.474 7.53504 213.843 5.98698C215.332 4.29646 217.975 4.02101 220.088 4.81188C222.194 5.60002 223.853 7.2572 225.296 8.98732C226.812 10.8029 228.187 12.8182 228.695 15.1324C229.198 17.4367 228.674 20.0936 226.884 21.6283C225.092 23.1702 221.432 23.2129 220.185 21.2056" stroke="black" style="stroke:black;stroke-opacity:1;" stroke-width="8" stroke-linecap="round" stroke-linejoin="round"/>
<path d="M208.888 31.2979C214.061 37.4408 216.878 45.0308 217.515 50.0438C218.387 56.9173 217.773 63.9151 216.048 70.6257C213.541 80.3804 209.733 88.9711 205.211 97.798" stroke="black" style="stroke:black;stroke-opacity:1;" stroke-width="6" stroke-linecap="round" stroke-linejoin="round"/>
<path d="M138.322 25.7289C137.759 27.2857 138.566 29.0041 140.121 29.5661C141.676 30.1281 143.395 29.3218 143.957 27.7651C144.52 26.2083 143.713 24.4912 142.158 23.9292C140.602 23.3672 138.884 24.1735 138.322 25.7289Z" fill="#8D8D8D" style="fill:#8D8D8D;fill:color(display-p3 0.5513 0.5513 0.5513);fill-opacity:1;"/>
<path d="M145.427 28.2953C144.865 29.8521 145.671 31.5705 147.228 32.133C148.785 32.6955 150.503 31.8892 151.066 30.3324C151.628 28.7756 150.821 27.0586 149.264 26.4961C147.708 25.9336 145.989 26.7399 145.427 28.2953Z" fill="#8D8D8D" style="fill:#8D8D8D;fill:color(display-p3 0.5513 0.5513 0.5513);fill-opacity:1;"/>
<path d="M156.352 29.9128C156.327 24.837 153.213 20.1014 148.207 18.2928C141.778 15.97 134.663 19.3553 132.315 25.8543C129.967 32.3532 133.275 39.5046 139.704 41.8275C145.061 43.7629 150.894 41.7356 154.049 37.2466L150.928 45.8829" stroke="#8D8D8D" style="stroke:#8D8D8D;stroke:color(display-p3 0.5513 0.5513 0.5513);stroke-opacity:1;" stroke-width="5" stroke-linecap="round" stroke-linejoin="round"/>
<ellipse cx="178.018" cy="394.436" rx="103.381" ry="9.19141" fill="black" fill-opacity="0.15" style="fill:black;fill-opacity:0.15;"/>
</svg>
