<svg width="285" height="379" viewBox="0 0 285 379" fill="none" xmlns="http://www.w3.org/2000/svg">
<path d="M29.908 208.994C29.908 208.994 28.6188 193.706 28.5033 183.91C28.3571 171.507 29.9076 152.245 29.9076 152.245C24.5422 157.186 18.8552 161.78 14.0787 167.389C9.29994 173.007 5.4165 179.84 4.55178 187.425C3.6973 195.004 6.35681 203.328 12.2824 207.464C18.0614 211.492 29.908 208.994 29.908 208.994Z" fill="white" fill-opacity="0.75" style="fill:white;fill-opacity:0.75;"/>
<path d="M261.456 214.647C261.906 218.187 265.586 223.417 268.676 225.207C271.776 226.997 275.226 228.397 277.556 231.107C281.486 235.667 281.096 242.607 279.016 248.257C276.196 255.907 270.666 262.517 263.646 266.647C259.136 269.307 253.986 271.007 250.156 274.567C245.086 279.287 243.206 286.397 240.256 292.667C234.096 305.787 222.036 316.237 207.906 319.477C193.096 322.867 177.306 318.287 164.526 310.057C163.636 309.487 162.756 308.897 161.896 308.287H161.886C157.206 305.087 149.806 307.507 145.056 310.607C140.296 313.697 136.556 318.157 131.846 321.327C121.206 328.497 105.876 327.757 95.9761 319.597C93.0561 317.197 90.5661 314.237 87.2461 312.427C83.9361 310.627 79.3261 310.357 76.7761 313.137C75.5161 314.507 74.9161 316.437 73.5061 317.647C69.3761 321.167 63.5461 315.997 60.8161 311.307C40.6861 276.767 30.3661 237.297 28.6461 197.267C27.6561 174.037 29.5561 150.627 34.1161 127.887C34.8961 123.977 35.7561 120.077 36.7161 116.197C42.4761 92.7073 51.4961 69.9073 65.8261 50.5173C82.5361 27.9173 107.086 10.2773 134.846 5.88732C162.606 1.49732 193.216 11.9873 209.356 34.9873C221.036 51.6473 224.366 73.0273 222.606 93.2873C221.246 109.017 217.076 124.297 212.296 139.387C215.576 149.067 224.246 156.657 232.736 162.357C241.226 168.057 250.446 172.967 257.416 180.447C264.386 187.927 268.776 198.947 265.156 208.507C264.296 210.777 263.026 212.837 261.456 214.647Z" fill="white" fill-opacity="0.75" style="fill:white;fill-opacity:0.75;"/>
<path d="M273.345 228.077C269.305 224.387 263.355 221.737 261.755 216.777C261.715 216.797 261.685 216.827 261.655 216.857C258.385 219.137 256.755 220.047 253.175 221.747C249.255 223.607 245.295 224.967 240.915 225.147C240.365 225.167 239.785 225.187 239.195 225.217C243.325 226.847 247.145 229.017 250.195 232.227C256.205 238.557 257.245 250.347 250.005 255.217C244.965 258.607 238.005 257.517 232.655 260.397C226.275 263.837 223.985 271.767 222.945 278.947C221.905 286.117 221.275 293.927 216.465 299.347C210.555 306.007 200.185 306.687 191.625 304.207C183.065 301.727 175.475 296.727 167.185 293.487C158.885 290.257 148.945 289.007 141.475 293.857C133.485 299.047 129.845 310.197 120.735 312.987C113.555 315.187 106.065 311.167 99.7654 307.057C93.4754 302.957 86.5154 298.407 79.0854 299.517C73.2454 300.387 67.9354 304.727 62.0854 303.917C58.0354 303.357 54.6554 300.327 52.6454 296.767C51.0654 293.977 48.6554 291.177 47.2754 288.167C50.4654 296.737 56.1354 304.047 60.5454 311.287C62.5054 314.507 65.0154 317.907 68.7254 318.577C72.8254 319.327 77.1454 315.687 77.1054 311.517C85.2454 313.057 91.4554 317.457 98.0654 320.997C104.675 324.537 112.165 327.287 119.565 326.037C134.115 323.577 144.025 306.567 158.765 307.097C170.145 317.107 185.785 322.257 200.715 320.407C215.645 318.557 229.565 309.757 237.635 297.067C242.235 289.827 245.055 281.387 250.875 275.087C259.135 266.147 272.795 262.197 277.945 251.177C281.505 243.577 279.545 233.757 273.335 228.097L273.345 228.077Z" fill="black" fill-opacity="0.15" style="fill:black;fill-opacity:0.15;"/>
<ellipse cx="69.5227" cy="87.6114" rx="7.9148" ry="6.57367" transform="rotate(11.2397 69.5227 87.6114)" fill="black" fill-opacity="0.15" style="fill:black;fill-opacity:0.15;"/>
<ellipse cx="151.479" cy="92.2457" rx="9.18965" ry="7.6325" transform="rotate(1.09845 151.479 92.2457)" fill="black" fill-opacity="0.15" style="fill:black;fill-opacity:0.15;"/>
<path d="M208.056 152.407C212.076 137.547 215.996 117.447 217.716 102.157C219.436 86.8668 218.746 71.0468 213.516 56.5668C207.276 39.2768 194.486 24.4268 178.296 15.6968C162.116 6.96678 138.566 5.05678 120.686 9.34678" stroke="black" stroke-opacity="0.15" style="stroke:black;stroke-opacity:0.15;" stroke-width="8" stroke-linecap="round" stroke-linejoin="round"/>
<path d="M207.646 212.027C219.716 218.397 231.316 220.837 243.206 217.747C248.496 216.377 253.776 213.727 256.666 209.087C259.136 205.107 259.536 200.067 258.416 195.517C257.296 190.967 254.776 186.867 251.776 183.267C240.236 169.417 222.566 161.177 214.846 144.887" stroke="black" stroke-opacity="0.15" style="stroke:black;stroke-opacity:0.15;" stroke-width="8" stroke-linecap="round" stroke-linejoin="round"/>
<path d="M127.38 74.1831C129.043 72.4959 131.268 71.4644 133.642 71.8458C136.023 72.2222 137.816 73.8998 138.868 76.0223C139.921 78.1487 140.306 80.8363 139.868 83.5925L139.867 83.595C139.423 86.357 138.218 88.7904 136.553 90.4819C134.89 92.1704 132.665 93.2041 130.292 92.8287L130.288 92.8281C127.91 92.4462 126.117 90.7707 125.065 88.6468C124.011 86.5202 123.627 83.8327 124.065 81.0721L124.065 81.0692C124.509 78.3073 125.715 75.8736 127.38 74.1831Z" fill="black" style="fill:black;fill-opacity:1;"/>
<path d="M83.4407 71.7101C85.0593 70.2378 87.1774 69.3821 89.3651 69.8737C91.5554 70.3647 93.108 72.0408 93.9439 74.0646C94.7816 76.0929 94.9692 78.5965 94.3997 81.1162C93.8354 83.64 92.5951 85.8251 90.9724 87.3026C89.3536 88.7765 87.2352 89.6323 85.0474 89.1407C82.8557 88.6494 81.3035 86.9694 80.4683 84.9441C79.6309 82.9137 79.4432 80.4078 80.0128 77.8879C80.5773 75.3686 81.818 73.1861 83.4407 71.7101Z" fill="black" style="fill:black;fill-opacity:1;"/>
<path d="M29.3305 209.158C23.5327 210.563 16.9337 210.704 12.2839 207.463C6.35827 203.328 3.69876 195.004 4.55324 187.425C5.41796 179.84 9.30141 173.006 14.0801 167.389C17.3961 163.491 23.0198 159.277 28.6758 153.373" stroke="black" style="stroke:black;stroke-opacity:1;" stroke-width="8" stroke-linecap="round" stroke-linejoin="round"/>
<path d="M208.056 152.407C209.486 148.077 210.916 143.747 212.296 139.387C217.076 124.297 221.246 109.017 222.606 93.2873C224.366 73.0273 221.036 51.6473 209.356 34.9873C193.216 11.9873 162.606 1.49732 134.846 5.88732C107.086 10.2773 82.5361 27.9173 65.8261 50.5173C51.4961 69.9073 42.4761 92.7073 36.7161 116.197C35.7561 120.077 34.8961 123.977 34.1161 127.887C29.5561 150.627 27.6561 174.037 28.6461 197.267C30.3661 237.297 40.6861 276.767 60.8161 311.307C63.5461 315.997 69.3761 321.167 73.5061 317.647C74.9161 316.437 75.5161 314.507 76.7761 313.137C79.3261 310.357 83.9361 310.627 87.2461 312.427C90.5661 314.237 93.0561 317.197 95.9761 319.597C105.876 327.757 121.206 328.497 131.846 321.327C136.556 318.157 140.296 313.697 145.056 310.607C149.806 307.507 157.206 305.087 161.886 308.297" stroke="black" style="stroke:black;stroke-opacity:1;" stroke-width="8" stroke-linecap="round" stroke-linejoin="round"/>
<path d="M161.895 308.287C162.755 308.897 163.635 309.487 164.525 310.057C177.305 318.287 193.095 322.867 207.905 319.477C222.035 316.237 234.095 305.787 240.255 292.667C243.205 286.397 245.085 279.287 250.155 274.567C253.985 271.007 259.135 269.307 263.645 266.647C270.665 262.517 276.195 255.907 279.015 248.257C281.095 242.607 281.485 235.667 277.555 231.107C275.225 228.397 271.775 226.997 268.675 225.207C265.585 223.417 261.905 218.187 261.455 214.647" stroke="black" style="stroke:black;stroke-opacity:1;" stroke-width="8" stroke-linecap="round" stroke-linejoin="round"/>
<path d="M133.945 278.438C143.197 289.756 153.041 300.879 165.078 309.181" stroke="black" style="stroke:black;stroke-opacity:1;" stroke-width="6" stroke-linecap="round" stroke-linejoin="round"/>
<path d="M74.6366 298.347C69.9566 290.907 66.0366 282.977 62.9766 274.737" stroke="black" style="stroke:black;stroke-opacity:1;" stroke-width="6" stroke-linecap="round" stroke-linejoin="round"/>
<path d="M234.015 264.437C217.255 258.327 201.665 249.037 188.305 237.207" stroke="black" style="stroke:black;stroke-opacity:1;" stroke-width="6" stroke-linecap="round" stroke-linejoin="round"/>
<path d="M205.416 210.738C212.006 214.548 218.646 218.388 225.836 220.868C233.026 223.348 240.906 224.418 248.286 222.568C253.316 221.308 258.076 218.538 261.456 214.648C263.026 212.838 264.296 210.778 265.156 208.508C268.776 198.948 264.386 187.928 257.416 180.448C250.446 172.968 241.226 168.058 232.736 162.358C224.246 156.658 215.576 149.068 212.296 139.388" stroke="black" style="stroke:black;stroke-opacity:1;" stroke-width="8" stroke-linecap="round" stroke-linejoin="round"/>
<ellipse cx="178.016" cy="369.697" rx="103.381" ry="9.19141" fill="black" fill-opacity="0.15" style="fill:black;fill-opacity:0.15;"/>
</svg>
