<svg width="286" height="404" viewBox="0 0 286 404" fill="none" xmlns="http://www.w3.org/2000/svg">
<path d="M30.572 233.727C30.572 233.727 29.2828 218.439 29.1673 208.643C29.0211 196.241 30.5717 176.978 30.5717 176.978C25.2063 181.919 19.5193 186.514 14.7427 192.122C9.96401 197.74 6.08056 204.574 5.21584 212.159C4.36136 219.738 7.02087 228.061 12.9465 232.197C18.7255 236.225 30.572 233.727 30.572 233.727Z" fill="white" fill-opacity="0.75" style="fill:white;fill-opacity:0.75;"/>
<path d="M262.12 239.381C262.57 242.921 266.25 248.151 269.34 249.941C272.44 251.731 275.89 253.131 278.22 255.841C282.15 260.401 281.76 267.341 279.68 272.991C276.86 280.641 271.33 287.251 264.31 291.381C259.8 294.041 254.65 295.741 250.82 299.301C245.75 304.021 243.87 311.131 240.92 317.401C234.76 330.521 222.7 340.971 208.57 344.211C193.76 347.601 177.97 343.021 165.19 334.791C164.3 334.221 163.42 333.631 162.56 333.021H162.55C157.87 329.821 150.47 332.241 145.72 335.341C140.96 338.431 137.22 342.891 132.51 346.061C121.87 353.231 106.54 352.491 96.6402 344.331C93.7202 341.931 91.2302 338.971 87.9102 337.161C84.6002 335.361 79.9902 335.091 77.4402 337.871C76.1802 339.241 75.5802 341.171 74.1702 342.381C70.0402 345.901 64.2102 340.731 61.4802 336.041C41.3502 301.501 31.0302 262.031 29.3102 222.001C28.3202 198.771 30.2202 175.361 34.7802 152.621C35.5602 148.711 36.4202 144.811 37.3802 140.931C43.1402 117.441 52.1602 94.6407 66.4902 75.2507C83.2002 52.6507 107.75 35.0107 135.51 30.6207C163.27 26.2307 193.88 36.7207 210.02 59.7207C221.7 76.3807 225.03 97.7607 223.27 118.021C221.91 133.751 217.74 149.031 212.96 164.121C216.24 173.801 224.91 181.391 233.4 187.091C241.89 192.791 251.11 197.701 258.08 205.181C265.05 212.661 269.44 223.681 265.82 233.241C264.96 235.511 263.69 237.571 262.12 239.381Z" fill="white" fill-opacity="0.75" style="fill:white;fill-opacity:0.75;"/>
<path d="M274.009 252.812C269.969 249.122 264.019 246.472 262.419 241.512C262.379 241.532 262.349 241.562 262.319 241.592C259.049 243.872 257.419 244.782 253.839 246.482C249.919 248.342 245.959 249.702 241.579 249.882C241.029 249.902 240.449 249.922 239.859 249.952C243.989 251.582 247.809 253.752 250.859 256.962C256.869 263.292 257.909 275.082 250.669 279.952C245.629 283.342 238.669 282.252 233.319 285.132C226.939 288.572 224.649 296.502 223.609 303.682C222.569 310.852 221.939 318.662 217.129 324.082C211.219 330.742 200.849 331.422 192.289 328.942C183.729 326.462 176.139 321.462 167.849 318.222C159.549 314.992 149.609 313.742 142.139 318.592C134.149 323.782 130.509 334.932 121.399 337.722C114.219 339.922 106.729 335.902 100.429 331.792C94.1395 327.692 87.1795 323.142 79.7495 324.252C73.9095 325.122 68.5995 329.462 62.7495 328.652C58.6995 328.092 55.3195 325.062 53.3095 321.502C51.7295 318.712 49.3195 315.912 47.9395 312.902C51.1295 321.472 56.7995 328.782 61.2095 336.022C63.1695 339.242 65.6795 342.642 69.3895 343.312C73.4895 344.062 77.8095 340.422 77.7695 336.252C85.9095 337.792 92.1195 342.192 98.7295 345.732C105.339 349.272 112.829 352.022 120.229 350.772C134.779 348.312 144.689 331.302 159.429 331.832C170.809 341.842 186.449 346.992 201.379 345.142C216.309 343.292 230.229 334.492 238.299 321.802C242.899 314.562 245.719 306.122 251.539 299.822C259.799 290.882 273.459 286.932 278.609 275.912C282.169 268.312 280.209 258.492 273.999 252.832L274.009 252.812Z" fill="#BCBBFF" fill-opacity="0.4" style="fill:#BCBBFF;fill:color(display-p3 0.7373 0.7333 1.0000);fill-opacity:0.4;"/>
<ellipse cx="70.1868" cy="112.346" rx="7.9148" ry="6.57367" transform="rotate(11.2397 70.1868 112.346)" fill="#BCBBFF" fill-opacity="0.4" style="fill:#BCBBFF;fill:color(display-p3 0.7373 0.7333 1.0000);fill-opacity:0.4;"/>
<ellipse cx="152.143" cy="116.98" rx="9.18965" ry="7.6325" transform="rotate(1.09845 152.143 116.98)" fill="#BCBBFF" fill-opacity="0.4" style="fill:#BCBBFF;fill:color(display-p3 0.7373 0.7333 1.0000);fill-opacity:0.4;"/>
<path d="M208.72 177.141C212.74 162.281 216.66 142.181 218.38 126.891C220.1 111.601 219.41 95.7812 214.18 81.3012C207.94 64.0112 195.15 49.1612 178.96 40.4312C162.78 31.7012 139.23 29.7912 121.35 34.0812" stroke="#BCBBFF" stroke-opacity="0.4" style="stroke:#BCBBFF;stroke:color(display-p3 0.7373 0.7333 1.0000);stroke-opacity:0.4;" stroke-width="8" stroke-linecap="round" stroke-linejoin="round"/>
<path d="M208.309 236.761C220.379 243.131 231.979 245.571 243.869 242.481C249.159 241.111 254.439 238.461 257.329 233.821C259.799 229.841 260.199 224.801 259.079 220.251C257.959 215.701 255.439 211.601 252.439 208.001C240.899 194.151 223.229 185.911 215.509 169.621" stroke="#BCBBFF" stroke-opacity="0.4" style="stroke:#BCBBFF;stroke:color(display-p3 0.7373 0.7333 1.0000);stroke-opacity:0.4;" stroke-width="8" stroke-linecap="round" stroke-linejoin="round"/>
<path d="M128.044 98.9174C129.707 97.2302 131.932 96.1988 134.306 96.5801C136.687 96.9566 138.48 98.6342 139.532 100.757C140.585 102.883 140.97 105.571 140.532 108.327L140.531 108.329C140.088 111.091 138.882 113.525 137.217 115.216C135.554 116.905 133.329 117.938 130.956 117.563L130.952 117.562C128.574 117.181 126.781 115.505 125.729 113.381C124.675 111.255 124.291 108.567 124.729 105.806L124.729 105.804C125.173 103.042 126.379 100.608 128.044 98.9174Z" fill="black" style="fill:black;fill-opacity:1;"/>
<path d="M84.1047 96.4444C85.7233 94.9722 87.8415 94.1165 90.0291 94.6081C92.2195 95.099 93.7721 96.7752 94.608 98.799C95.4457 100.827 95.6333 103.331 95.0638 105.851C94.4995 108.374 93.2592 110.559 91.6364 112.037C90.0176 113.511 87.8993 114.367 85.7115 113.875C83.5197 113.384 81.9676 111.704 81.1323 109.678C80.295 107.648 80.1073 105.142 80.6769 102.622C81.2414 100.103 82.482 97.9204 84.1047 96.4444Z" fill="black" style="fill:black;fill-opacity:1;"/>
<path d="M29.9945 233.892C24.1968 235.297 17.5978 235.439 12.9479 232.198C7.02234 228.062 4.36282 219.738 5.2173 212.159C6.08202 204.574 9.96547 197.74 14.7442 192.123C18.0601 188.225 23.6839 184.012 29.3399 178.107" stroke="black" style="stroke:black;stroke-opacity:1;" stroke-width="8" stroke-linecap="round" stroke-linejoin="round"/>
<path d="M208.72 177.142C210.15 172.812 211.58 168.482 212.96 164.122C217.74 149.032 221.91 133.752 223.27 118.022C225.03 97.7617 221.7 76.3817 210.02 59.7217C193.88 36.7217 163.27 26.2317 135.51 30.6217C107.75 35.0117 83.2002 52.6517 66.4902 75.2517C52.1602 94.6417 43.1402 117.442 37.3802 140.932C36.4202 144.812 35.5602 148.712 34.7802 152.622C30.2202 175.362 28.3202 198.772 29.3102 222.002C31.0302 262.032 41.3502 301.502 61.4802 336.042C64.2102 340.732 70.0402 345.902 74.1702 342.382C75.5802 341.172 76.1802 339.242 77.4402 337.872C79.9902 335.092 84.6002 335.362 87.9102 337.162C91.2302 338.972 93.7202 341.932 96.6402 344.332C106.54 352.492 121.87 353.232 132.51 346.062C137.22 342.892 140.96 338.432 145.72 335.342C150.47 332.242 157.87 329.822 162.55 333.032" stroke="black" style="stroke:black;stroke-opacity:1;" stroke-width="8" stroke-linecap="round" stroke-linejoin="round"/>
<path d="M162.559 333.022C163.419 333.632 164.299 334.222 165.189 334.792C177.969 343.022 193.759 347.602 208.569 344.212C222.699 340.972 234.759 330.522 240.919 317.402C243.869 311.132 245.749 304.022 250.819 299.302C254.649 295.742 259.799 294.042 264.309 291.382C271.329 287.252 276.859 280.642 279.679 272.992C281.759 267.342 282.149 260.402 278.219 255.842C275.889 253.132 272.439 251.732 269.339 249.942C266.249 248.152 262.569 242.922 262.119 239.382" stroke="black" style="stroke:black;stroke-opacity:1;" stroke-width="8" stroke-linecap="round" stroke-linejoin="round"/>
<path d="M134.609 303.172C143.861 314.491 153.705 325.614 165.742 333.915" stroke="black" style="stroke:black;stroke-opacity:1;" stroke-width="6" stroke-linecap="round" stroke-linejoin="round"/>
<path d="M75.3006 323.082C70.6206 315.642 66.7006 307.712 63.6406 299.472" stroke="black" style="stroke:black;stroke-opacity:1;" stroke-width="6" stroke-linecap="round" stroke-linejoin="round"/>
<path d="M234.679 289.171C217.919 283.061 202.329 273.771 188.969 261.941" stroke="black" style="stroke:black;stroke-opacity:1;" stroke-width="6" stroke-linecap="round" stroke-linejoin="round"/>
<path d="M206.08 235.472C212.67 239.282 219.31 243.122 226.5 245.602C233.69 248.082 241.57 249.152 248.95 247.302C253.98 246.042 258.74 243.272 262.12 239.382C263.69 237.572 264.96 235.512 265.82 233.242C269.44 223.682 265.05 212.662 258.08 205.182C251.11 197.702 241.89 192.792 233.4 187.092C224.91 181.392 216.24 173.802 212.96 164.122" stroke="black" style="stroke:black;stroke-opacity:1;" stroke-width="8" stroke-linecap="round" stroke-linejoin="round"/>
<path d="M229.359 15.1285C229.862 17.4328 229.338 20.0897 227.548 21.6244C225.756 23.1662 222.096 23.209 220.849 21.2017L220.609 21.3389C218.462 17.7436 216.063 14.4448 213.455 11.6719C212.831 9.70603 213.138 7.53113 214.507 5.98308C215.996 4.29256 218.639 4.0171 220.752 4.80797C222.858 5.59612 224.517 7.25329 225.96 8.98342C227.476 10.799 228.851 12.8143 229.359 15.1285Z" fill="#E5E5FF" style="fill:#E5E5FF;fill:color(display-p3 0.8980 0.8980 1.0000);fill-opacity:1;"/>
<path d="M235.603 74.6041C234.753 91.0441 230.623 107.314 223.983 122.334C223.423 121.524 222.863 120.714 222.283 119.914C216.993 112.454 211.163 105.384 204.863 98.7441L205.873 97.7941C211.903 86.0241 216.663 74.6741 218.763 60.4241C218.763 50.5041 217.553 43.8941 214.463 34.9941H214.473C226.773 48.5441 235.603 64.5541 235.603 74.6041Z" fill="#BCBBFF" style="fill:#BCBBFF;fill:color(display-p3 0.7391 0.7337 1.0000);fill-opacity:1;"/>
<path d="M204.864 98.7434C211.164 105.383 216.994 112.453 222.284 119.913L221.984 120.123C216.764 112.843 209.014 107.403 200.384 104.983C192.214 102.693 183.464 103.063 175.294 100.753C159.874 96.4134 148.744 83.4034 135.564 74.3034C124.494 66.6734 111.324 61.6234 97.8839 61.8634C84.4439 62.1134 66.6339 68.5234 58.8239 79.4534C50.1439 77.9834 44.5239 76.4734 38.4539 71.1634C35.2239 68.3434 32.9839 64.6434 32.3839 61.9834C31.3739 57.4534 35.5339 53.5034 39.4839 51.0634C52.3939 43.1134 67.7439 39.6234 82.8939 39.6634C83.1239 39.6634 83.3639 39.6634 83.5939 39.6634C98.5139 39.7934 113.274 43.1834 127.334 48.1634C156.694 58.5634 183.454 76.1234 204.864 98.7334V98.7434Z" fill="#BCBBFF" style="fill:#BCBBFF;fill:color(display-p3 0.7391 0.7337 1.0000);fill-opacity:1;"/>
<path d="M214.464 34.9939C217.554 43.8939 218.764 50.5039 218.764 60.4239C216.664 74.6739 211.904 86.0239 205.874 97.7939L204.864 98.7439C183.454 76.1339 156.694 58.5739 127.334 48.1739C113.274 43.1939 98.5138 39.8039 83.5938 39.6739V39.4439C91.9038 31.2639 99.2037 20.8439 111.504 14.4039C135.324 2.83387 164.434 2.78387 188.234 14.3139C192.714 16.4839 197.184 19.3939 201.484 22.7839C206.064 26.3939 210.454 30.5639 214.474 34.9839H214.464V34.9939Z" fill="#E5E5FF" style="fill:#E5E5FF;fill:color(display-p3 0.8980 0.8980 1.0000);fill-opacity:1;"/>
<path d="M85.6057 39.8564C92.6924 31.1983 99.2044 20.8439 111.504 14.4039C135.324 2.83387 164.434 2.78387 188.234 14.3139C192.714 16.4839 197.184 19.3939 201.484 22.7839C206.064 26.3939 210.454 30.5639 214.474 34.9839C226.774 48.5439 232.885 65.3657 232.885 78.6451C232.885 95.1071 230.624 107.314 223.984 122.334M85.6057 39.8564C100.526 39.9864 113.274 43.1939 127.334 48.1739C156.694 58.5739 183.454 76.1339 204.864 98.7439C211.164 105.384 216.994 112.454 222.284 119.914M85.6057 39.8564C85.3757 39.8564 85.8357 39.8564 85.6057 39.8564ZM85.6057 39.8564C70.4557 39.8164 49.7728 42.0188 39.8079 48.1739C34.3642 51.5363 31.8976 56.8908 32.3844 61.9939C32.7193 65.5054 35.3872 69.101 38.6172 71.921C44.6872 77.231 52.2058 79.6966 60.8858 81.1666C68.6958 70.2366 84.4444 62.1239 97.8844 61.8739C111.324 61.6339 124.494 66.6839 135.564 74.3139C148.744 83.4139 159.874 96.4239 175.294 100.764C183.464 103.074 192.214 102.704 200.384 104.994C209.014 107.414 217.064 112.634 222.284 119.914M223.984 122.334C223.424 121.524 222.864 120.714 222.284 119.914M223.984 122.334C223.664 121.834 222.634 120.404 222.284 119.914" stroke="black" style="stroke:black;stroke-opacity:1;" stroke-width="8" stroke-linecap="round" stroke-linejoin="round"/>
<path d="M213.455 11.6719C212.831 9.70603 213.138 7.53113 214.507 5.98308C215.996 4.29256 218.639 4.0171 220.752 4.80797C222.858 5.59612 224.517 7.25329 225.96 8.98342C227.476 10.799 228.851 12.8143 229.359 15.1285C229.862 17.4328 229.338 20.0897 227.548 21.6244C225.756 23.1662 222.096 23.209 220.849 21.2017" stroke="black" style="stroke:black;stroke-opacity:1;" stroke-width="8" stroke-linecap="round" stroke-linejoin="round"/>
<path d="M209.552 31.294C214.725 37.4369 217.542 45.0269 218.179 50.0399C219.052 56.9134 218.437 63.9112 216.712 70.6218C214.205 80.3765 210.397 88.9672 205.875 97.7941" stroke="black" style="stroke:black;stroke-opacity:1;" stroke-width="6" stroke-linecap="round" stroke-linejoin="round"/>
<path d="M139.322 25.7289C138.759 27.2857 139.566 29.0041 141.121 29.5661C142.676 30.1281 144.395 29.3218 144.957 27.7651C145.52 26.2083 144.713 24.4912 143.158 23.9292C141.602 23.3672 139.884 24.1735 139.322 25.7289Z" fill="#7B7BAC" style="fill:#7B7BAC;fill:color(display-p3 0.4837 0.4809 0.6755);fill-opacity:1;"/>
<path d="M146.427 28.2953C145.865 29.8521 146.671 31.5705 148.228 32.133C149.785 32.6955 151.503 31.8892 152.066 30.3324C152.628 28.7756 151.821 27.0586 150.264 26.4961C148.708 25.9336 146.989 26.7399 146.427 28.2953Z" fill="#7B7BAC" style="fill:#7B7BAC;fill:color(display-p3 0.4837 0.4809 0.6755);fill-opacity:1;"/>
<path d="M157.352 29.9128C157.327 24.837 154.213 20.1014 149.207 18.2928C142.778 15.97 135.663 19.3553 133.315 25.8543C130.967 32.3532 134.275 39.5046 140.704 41.8275C146.061 43.7629 151.894 41.7356 155.049 37.2466L151.928 45.8829" stroke="#7B7BAC" style="stroke:#7B7BAC;stroke:color(display-p3 0.4837 0.4809 0.6755);stroke-opacity:1;" stroke-width="5" stroke-linecap="round" stroke-linejoin="round"/>
<ellipse cx="178.682" cy="394.431" rx="103.381" ry="9.19141" fill="black" fill-opacity="0.15" style="fill:black;fill-opacity:0.15;"/>
</svg>
