<svg width="500" height="500" viewBox="0 0 500 500" fill="none" xmlns="http://www.w3.org/2000/svg">
<rect width="500" height="500" fill="#E5E5FF" style="fill:#E5E5FF;fill:color(display-p3 0.8980 0.8980 1.0000);fill-opacity:1;"/>
<path d="M139.845 307.973C139.845 307.973 138.556 292.685 138.441 282.889C138.295 270.487 139.845 251.224 139.845 251.224C134.48 256.165 128.793 260.76 124.016 266.369C119.237 271.986 115.354 278.82 114.489 286.405C113.635 293.984 116.294 302.307 122.22 306.443C127.999 310.471 139.845 307.973 139.845 307.973Z" fill="white" fill-opacity="0.75" style="fill:white;fill-opacity:0.75;"/>
<path d="M371.394 313.627C371.844 317.167 375.524 322.397 378.614 324.187C381.714 325.977 385.164 327.377 387.494 330.087C391.424 334.647 391.034 341.587 388.954 347.237C386.134 354.887 380.604 361.497 373.584 365.627C369.074 368.287 363.924 369.987 360.094 373.547C355.024 378.267 353.144 385.377 350.194 391.647C344.034 404.767 331.974 415.217 317.844 418.457C303.034 421.847 287.244 417.267 274.464 409.037C273.574 408.467 272.694 407.877 271.834 407.267H271.824C267.144 404.067 259.744 406.487 254.994 409.587C250.234 412.677 246.494 417.137 241.784 420.307C231.144 427.477 215.814 426.737 205.914 418.577C202.994 416.177 200.504 413.217 197.184 411.407C193.874 409.607 189.264 409.337 186.714 412.117C185.454 413.487 184.854 415.417 183.444 416.627C179.314 420.147 173.484 414.977 170.754 410.287C150.624 375.747 140.304 336.277 138.584 296.247C137.594 273.017 139.494 249.607 144.054 226.867C144.834 222.957 145.694 219.057 146.654 215.177C152.414 191.687 161.434 168.887 175.764 149.497C192.474 126.897 217.024 109.257 244.784 104.867C272.544 100.477 303.154 110.967 319.294 133.967C330.974 150.627 334.304 172.007 332.544 192.267C331.184 207.997 327.014 223.277 322.234 238.367C325.514 248.047 334.184 255.637 342.674 261.337C351.164 267.037 360.384 271.947 367.354 279.427C374.324 286.907 378.714 297.927 375.094 307.487C374.234 309.757 372.964 311.817 371.394 313.627Z" fill="white" style="fill:white;fill-opacity:1;"/>
<path d="M383.283 327.057C379.243 323.367 373.293 320.717 371.693 315.757C371.653 315.777 371.623 315.807 371.593 315.837C368.323 318.117 366.693 319.027 363.113 320.727C359.193 322.587 355.233 323.947 350.853 324.127C350.303 324.147 349.723 324.167 349.133 324.197C353.263 325.827 357.083 327.997 360.133 331.207C366.143 337.537 367.183 349.327 359.943 354.197C354.903 357.587 347.943 356.497 342.593 359.377C336.213 362.817 333.923 370.747 332.883 377.927C331.843 385.097 331.213 392.907 326.403 398.327C320.493 404.987 310.123 405.667 301.563 403.187C293.003 400.707 285.413 395.707 277.123 392.467C268.823 389.237 258.883 387.987 251.413 392.837C243.423 398.027 239.783 409.177 230.673 411.967C223.493 414.167 216.003 410.147 209.703 406.037C203.413 401.937 196.453 397.387 189.023 398.497C183.183 399.367 177.873 403.707 172.023 402.897C167.973 402.337 164.593 399.307 162.583 395.747C161.003 392.957 158.593 390.157 157.213 387.147C160.403 395.717 166.073 403.027 170.483 410.267C172.443 413.487 174.953 416.887 178.663 417.557C182.763 418.307 187.083 414.667 187.043 410.497C195.183 412.037 201.393 416.437 208.003 419.977C214.613 423.517 222.103 426.267 229.503 425.017C244.053 422.557 253.963 405.547 268.703 406.077C280.083 416.087 295.723 421.237 310.653 419.387C325.583 417.537 339.503 408.737 347.573 396.047C352.173 388.807 354.993 380.367 360.813 374.067C369.073 365.127 382.733 361.177 387.883 350.157C391.443 342.557 389.483 332.737 383.273 327.077L383.283 327.057Z" fill="#BCBBFF" fill-opacity="0.4" style="fill:#BCBBFF;fill:color(display-p3 0.7373 0.7333 1.0000);fill-opacity:0.4;"/>
<ellipse cx="179.46" cy="186.591" rx="7.9148" ry="6.57367" transform="rotate(11.2397 179.46 186.591)" fill="#BCBBFF" fill-opacity="0.4" style="fill:#BCBBFF;fill:color(display-p3 0.7373 0.7333 1.0000);fill-opacity:0.4;"/>
<ellipse cx="261.417" cy="191.225" rx="9.18965" ry="7.6325" transform="rotate(1.09845 261.417 191.225)" fill="#BCBBFF" fill-opacity="0.4" style="fill:#BCBBFF;fill:color(display-p3 0.7373 0.7333 1.0000);fill-opacity:0.4;"/>
<path d="M317.993 251.386C322.013 236.526 325.933 216.426 327.653 201.136C329.373 185.846 328.683 170.026 323.453 155.546C317.213 138.256 304.423 123.406 288.233 114.676C272.053 105.946 248.503 104.036 230.623 108.326" stroke="#BCBBFF" stroke-opacity="0.4" style="stroke:#BCBBFF;stroke:color(display-p3 0.7373 0.7333 1.0000);stroke-opacity:0.4;" stroke-width="8" stroke-linecap="round" stroke-linejoin="round"/>
<path d="M317.582 311.006C329.652 317.376 341.252 319.816 353.142 316.726C358.432 315.356 363.712 312.706 366.602 308.066C369.072 304.086 369.472 299.046 368.352 294.496C367.232 289.946 364.712 285.846 361.712 282.246C350.172 268.396 332.502 260.156 324.782 243.866" stroke="#BCBBFF" stroke-opacity="0.4" style="stroke:#BCBBFF;stroke:color(display-p3 0.7373 0.7333 1.0000);stroke-opacity:0.4;" stroke-width="8" stroke-linecap="round" stroke-linejoin="round"/>
<path d="M237.318 173.163C238.98 171.475 241.206 170.444 243.58 170.825C245.96 171.202 247.753 172.879 248.805 175.002C249.859 177.128 250.243 179.816 249.805 182.572L249.805 182.574C249.361 185.336 248.155 187.77 246.49 189.461C244.828 191.15 242.603 192.184 240.229 191.808L240.226 191.808C237.847 191.426 236.055 189.75 235.002 187.626C233.948 185.5 233.564 182.812 234.002 180.052L234.003 180.049C234.446 177.287 235.652 174.853 237.318 173.163Z" fill="black" style="fill:black;fill-opacity:1;"/>
<path d="M193.378 170.69C194.997 169.217 197.115 168.362 199.303 168.853C201.493 169.344 203.046 171.02 203.881 173.044C204.719 175.072 204.907 177.576 204.337 180.096C203.773 182.619 202.533 184.805 200.91 186.282C199.291 187.756 197.173 188.612 194.985 188.12C192.793 187.629 191.241 185.949 190.406 183.924C189.568 181.893 189.381 179.387 189.95 176.867C190.515 174.348 191.755 172.166 193.378 170.69Z" fill="black" style="fill:black;fill-opacity:1;"/>
<path d="M139.268 308.137C133.47 309.542 126.871 309.684 122.221 306.443C116.296 302.307 113.636 293.983 114.491 286.405C115.355 278.819 119.239 271.986 124.018 266.368C127.334 262.47 132.957 258.257 138.613 252.353" stroke="black" style="stroke:black;stroke-opacity:1;" stroke-width="8" stroke-linecap="round" stroke-linejoin="round"/>
<path d="M317.994 251.387C319.424 247.057 320.854 242.727 322.234 238.367C327.014 223.277 331.184 207.997 332.544 192.267C334.304 172.007 330.974 150.627 319.294 133.967C303.154 110.967 272.544 100.477 244.784 104.867C217.024 109.257 192.474 126.897 175.764 149.497C161.434 168.887 152.414 191.687 146.654 215.177C145.694 219.057 144.834 222.957 144.054 226.867C139.494 249.607 137.594 273.017 138.584 296.247C140.304 336.277 150.624 375.747 170.754 410.287C173.484 414.977 179.314 420.147 183.444 416.627C184.854 415.417 185.454 413.487 186.714 412.117C189.264 409.337 193.874 409.607 197.184 411.407C200.504 413.217 202.994 416.177 205.914 418.577C215.814 426.737 231.144 427.477 241.784 420.307C246.494 417.137 250.234 412.677 254.994 409.587C259.744 406.487 267.144 404.067 271.824 407.277" stroke="black" style="stroke:black;stroke-opacity:1;" stroke-width="8" stroke-linecap="round" stroke-linejoin="round"/>
<path d="M271.832 407.267C272.692 407.877 273.572 408.467 274.462 409.037C287.242 417.267 303.032 421.847 317.842 418.457C331.972 415.217 344.032 404.767 350.192 391.647C353.142 385.377 355.022 378.267 360.092 373.547C363.922 369.987 369.072 368.287 373.582 365.627C380.602 361.497 386.132 354.887 388.952 347.237C391.032 341.587 391.422 334.647 387.492 330.087C385.162 327.377 381.712 325.977 378.612 324.187C375.522 322.397 371.842 317.167 371.392 313.627" stroke="black" style="stroke:black;stroke-opacity:1;" stroke-width="8" stroke-linecap="round" stroke-linejoin="round"/>
<path d="M243.883 377.417C253.134 388.736 262.978 399.859 275.016 408.16" stroke="black" style="stroke:black;stroke-opacity:1;" stroke-width="6" stroke-linecap="round" stroke-linejoin="round"/>
<path d="M184.574 397.327C179.894 389.887 175.974 381.957 172.914 373.717" stroke="black" style="stroke:black;stroke-opacity:1;" stroke-width="6" stroke-linecap="round" stroke-linejoin="round"/>
<path d="M343.952 363.417C327.192 357.307 311.602 348.017 298.242 336.187" stroke="black" style="stroke:black;stroke-opacity:1;" stroke-width="6" stroke-linecap="round" stroke-linejoin="round"/>
<path d="M315.354 309.717C321.944 313.527 328.584 317.367 335.774 319.847C342.964 322.327 350.844 323.397 358.224 321.547C363.254 320.287 368.014 317.517 371.394 313.627C372.964 311.817 374.234 309.757 375.094 307.487C378.714 297.927 374.324 286.907 367.354 279.427C360.384 271.947 351.164 267.037 342.674 261.337C334.184 255.637 325.514 248.047 322.234 238.367" stroke="black" style="stroke:black;stroke-opacity:1;" stroke-width="8" stroke-linecap="round" stroke-linejoin="round"/>
<path d="M338.632 89.3736C339.135 91.6779 338.611 94.3348 336.822 95.8695C335.029 97.4114 331.37 97.4541 330.123 95.4468L329.882 95.584C327.736 91.9887 325.337 88.6899 322.729 85.917C322.104 83.9511 322.411 81.7762 323.781 80.2282C325.27 78.5377 327.913 78.2622 330.025 79.0531C332.131 79.8412 333.79 81.4984 335.233 83.2285C336.75 85.0442 338.125 87.0594 338.632 89.3736Z" fill="#E5E5FF" style="fill:#E5E5FF;fill:color(display-p3 0.8980 0.8980 1.0000);fill-opacity:1;"/>
<path d="M344.877 148.849C344.027 165.289 339.897 181.559 333.257 196.579C332.697 195.769 332.137 194.959 331.557 194.159C326.267 186.699 320.437 179.629 314.137 172.989L315.147 172.039C321.177 160.269 325.937 148.919 328.037 134.669C328.037 124.749 326.827 118.139 323.737 109.239H323.747C336.047 122.789 344.877 138.799 344.877 148.849Z" fill="#BCBBFF" style="fill:#BCBBFF;fill:color(display-p3 0.7391 0.7337 1.0000);fill-opacity:1;"/>
<path d="M314.137 172.989C320.437 179.629 326.267 186.699 331.557 194.159L331.257 194.369C326.037 187.089 318.287 181.649 309.657 179.229C301.487 176.939 292.737 177.309 284.567 174.999C269.147 170.659 258.017 157.649 244.837 148.549C233.767 140.919 220.597 135.869 207.157 136.109C193.717 136.359 175.907 142.769 168.097 153.699C159.417 152.229 153.797 150.719 147.727 145.409C144.497 142.589 142.257 138.889 141.657 136.229C140.647 131.699 144.807 127.749 148.757 125.309C161.667 117.359 177.017 113.869 192.167 113.909C192.397 113.909 192.637 113.909 192.867 113.909C207.787 114.039 222.547 117.429 236.607 122.409C265.967 132.809 292.727 150.369 314.137 172.979V172.989Z" fill="#BCBBFF" style="fill:#BCBBFF;fill:color(display-p3 0.7391 0.7337 1.0000);fill-opacity:1;"/>
<path d="M323.737 109.239C326.827 118.139 328.037 124.749 328.037 134.669C325.937 148.919 321.177 160.269 315.147 172.039L314.137 172.989C292.727 150.379 265.967 132.819 236.607 122.419C222.547 117.439 207.787 114.049 192.867 113.919V113.689C201.177 105.509 208.477 95.089 220.777 88.649C244.597 77.079 273.707 77.029 297.507 88.559C301.987 90.729 306.457 93.639 310.757 97.029C315.337 100.639 319.727 104.809 323.747 109.229H323.737V109.239Z" fill="#E5E5FF" style="fill:#E5E5FF;fill:color(display-p3 0.8980 0.8980 1.0000);fill-opacity:1;"/>
<path d="M194.879 114.102C201.966 105.443 208.478 95.089 220.778 88.649C244.598 77.079 273.708 77.029 297.508 88.559C301.988 90.729 306.458 93.639 310.758 97.029C315.338 100.639 319.728 104.809 323.748 109.229C336.048 122.789 342.159 139.611 342.159 152.89C342.159 169.352 339.898 181.559 333.258 196.579M194.879 114.102C209.799 114.232 222.548 117.439 236.608 122.419C265.968 132.819 292.728 150.379 314.138 172.989C320.438 179.629 326.268 186.699 331.558 194.159M194.879 114.102C194.649 114.102 195.109 114.102 194.879 114.102ZM194.879 114.102C179.729 114.062 159.046 116.264 149.081 122.419C143.638 125.781 141.171 131.136 141.658 136.239C141.993 139.75 144.661 143.346 147.891 146.166C153.961 151.476 161.479 153.942 170.159 155.412C177.969 144.482 193.718 136.369 207.158 136.119C220.598 135.879 233.768 140.929 244.838 148.559C258.018 157.659 269.148 170.669 284.568 175.009C292.738 177.319 301.488 176.949 309.658 179.239C318.288 181.659 326.338 186.879 331.558 194.159M333.258 196.579C332.698 195.769 332.138 194.959 331.558 194.159M333.258 196.579C332.938 196.079 331.908 194.649 331.558 194.159" stroke="black" style="stroke:black;stroke-opacity:1;" stroke-width="8" stroke-linecap="round" stroke-linejoin="round"/>
<path d="M322.729 85.917C322.104 83.9511 322.411 81.7762 323.781 80.2282C325.27 78.5377 327.913 78.2622 330.025 79.0531C332.131 79.8412 333.79 81.4984 335.233 83.2285C336.75 85.0442 338.125 87.0594 338.632 89.3736C339.135 91.6779 338.611 94.3348 336.822 95.8695C335.029 97.4114 331.37 97.4541 330.123 95.4468" stroke="black" style="stroke:black;stroke-opacity:1;" stroke-width="8" stroke-linecap="round" stroke-linejoin="round"/>
<path d="M318.825 105.539C323.998 111.682 326.816 119.272 327.452 124.285C328.325 131.159 327.711 138.156 325.986 144.867C323.479 154.622 319.671 163.212 315.148 172.039" stroke="black" style="stroke:black;stroke-opacity:1;" stroke-width="6" stroke-linecap="round" stroke-linejoin="round"/>
<path d="M249.625 115.517C252.155 116.06 254.647 114.448 255.19 111.917C255.733 109.386 254.121 106.895 251.59 106.352C249.059 105.809 246.568 107.421 246.025 109.952C245.482 112.482 247.094 114.974 249.625 115.517Z" fill="#7B7BAC" style="fill:#7B7BAC;fill:color(display-p3 0.4824 0.4824 0.6745);fill-opacity:1;"/>
<path d="M261.036 119.972C263.566 120.514 266.058 118.903 266.601 116.372C267.144 113.841 265.532 111.349 263.001 110.806C260.47 110.264 257.979 111.875 257.436 114.406C256.893 116.937 258.505 119.429 261.036 119.972Z" fill="#7B7BAC" style="fill:#7B7BAC;fill:color(display-p3 0.4824 0.4824 0.6745);fill-opacity:1;"/>
<path d="M263.341 95.1363C252.396 90.8636 240.104 95.6864 234.574 105.958C233.804 107.389 234.568 109.109 236.082 109.7V109.7C237.596 110.291 239.283 109.525 240.109 108.125C244.394 100.864 253.232 97.5074 261.201 100.618C269.17 103.729 273.396 112.187 271.629 120.43C271.288 122.019 272.01 123.725 273.524 124.316V124.316C275.038 124.907 276.764 124.16 277.167 122.586C280.058 111.284 274.285 99.4086 263.341 95.1363Z" fill="#7B7BAC" style="fill:#7B7BAC;fill:color(display-p3 0.4824 0.4824 0.6745);fill-opacity:1;"/>
</svg>
