<svg width="500" height="500" viewBox="0 0 500 500" fill="none" xmlns="http://www.w3.org/2000/svg">
<rect width="500" height="500" fill="#9391F7" style="fill:#9391F7;fill:color(display-p3 0.5765 0.5686 0.9686);fill-opacity:1;"/>
<path d="M203.967 244.173C204.433 247.228 202.597 253.55 202.597 253.55L197.121 270.437L189.97 284.89C189.97 284.89 181.555 282.177 175.143 277.861C168.728 273.537 163.27 268.108 161.4 261.778C159.543 255.452 161.877 248.188 168.633 244.173C175.223 240.262 195.786 242.759 203.967 244.173Z" fill="white" fill-opacity="0.75" style="fill:white;fill-opacity:0.75;"/>
<path d="M201.531 244.173C190.576 240.619 175.221 240.262 168.631 244.173C161.875 248.188 159.541 255.452 161.398 261.778C163.268 268.108 168.726 273.537 175.141 277.861C177.127 279.198 186.158 284.304 188.295 285.499" stroke="black" style="stroke:black;stroke-opacity:1;" stroke-width="8" stroke-linecap="round" stroke-linejoin="round"/>
<path d="M204.198 227.262C200.411 204.161 197.604 198.547 200.583 175.414C204.169 147.651 222.638 121.483 246.08 106.174C264.919 93.8712 289.375 90.9091 310.853 97.5976C332.33 104.296 350.562 120.323 360.681 140.419C373.532 165.947 367.88 176.343 373.236 204.403C379.43 236.821 393.509 267.703 413.909 293.649C418.529 299.509 423.508 305.199 426.825 311.89C430.14 318.59 438.377 330.122 435.623 337.067C428.982 353.802 413.808 346.541 402.122 360.245C393.582 370.264 382.823 389.729 369.647 397.574C358.439 404.247 337.513 400.572 337.513 400.572L301.275 390.427C301.275 390.427 285.324 389.227 281.793 384.486L281.783 384.485C273.874 377.547 263.161 378.861 253.02 381.652C242.881 384.434 233.232 389.32 222.772 390.428C201.37 392.684 181.121 378.282 169.388 360.245C167.376 357.141 165.472 353.851 162.546 351.604C159.611 349.355 155.278 348.438 152.242 350.541C149.533 352.409 147.661 356.501 144.427 355.876C141.841 355.387 140.968 352.167 140.746 349.537C138.74 326.353 177.451 313.529 189.127 293.397C200.812 273.276 205.169 246.46 203.172 227.436L204.198 227.262Z" fill="white" fill-opacity="0.75" style="fill:white;fill-opacity:0.75;"/>
<ellipse cx="267.365" cy="203.13" rx="55.4233" ry="53.7661" transform="rotate(-1.40641 267.365 203.13)" fill="white" fill-opacity="0.4" style="fill:white;fill-opacity:0.4;"/>
<path d="M140.472 355.39L143.409 335.315L159.002 320.403C166.677 319.818 170.602 324.97 174.149 331.815C177.695 338.661 179.2 346.41 182.771 353.229C189.589 366.242 204.243 374.742 218.919 374.18C236.053 373.533 251.903 361.763 268.927 363.808C279.355 365.06 336.944 395.991 364.448 374.18C379.38 362.34 367.601 354.06 384.25 341.8C390.842 336.943 413.988 344.996 422.487 332.153C432.586 316.893 412.86 294.163 406.713 288.029C414.453 295.71 422.391 303.693 426.353 313.853C430.316 324.004 440.588 334.865 432.176 341.8C424.912 347.792 417.252 349.163 409.217 354.072C393.149 363.88 392.995 370.684 381.553 385.625C373.184 396.549 358.625 401.838 344.917 400.551C331.209 399.264 312.222 399.93 302.748 389.944C295.295 382.093 281.14 381.744 270.579 379.32C259.755 376.838 249.216 383.452 238.677 386.964C217.494 394.013 192.453 387.571 177.319 371.158C169.763 362.979 163.889 352.145 153.375 348.505C151.872 353.187 146.678 356.358 140.473 355.39C138.64 307.804 140.472 355.39 140.472 355.39Z" fill="#BCBBFF" fill-opacity="0.4" style="fill:#BCBBFF;fill:color(display-p3 0.7373 0.7333 1.0000);fill-opacity:0.4;"/>
<path d="M310.777 293.862C315.213 297.868 319.689 301.91 325.084 304.917C330.478 307.924 336.942 309.839 343.299 309.11C353.028 308.004 360.791 300.649 363.061 292.43C365.331 284.21 362.856 275.434 358.249 267.956C353.643 260.479 347.037 254.078 340.49 247.754" stroke="black" style="stroke:black;stroke-opacity:1;" stroke-width="8" stroke-linecap="round" stroke-linejoin="round"/>
<path d="M173.426 330.26C176.407 318.72 181.189 307.656 187.545 297.57" stroke="black" style="stroke:black;stroke-opacity:1;" stroke-width="6" stroke-linecap="round" stroke-linejoin="round"/>
<path d="M378.98 313.914C382.998 323.83 388.39 333.189 394.945 341.646" stroke="black" style="stroke:black;stroke-opacity:1;" stroke-width="6" stroke-linecap="round" stroke-linejoin="round"/>
<ellipse cx="204.959" cy="217.252" rx="7.35099" ry="8.38049" transform="rotate(-99.0809 204.959 217.252)" fill="#BCBBFF" fill-opacity="0.4" style="fill:#BCBBFF;fill:color(display-p3 0.7373 0.7333 1.0000);fill-opacity:0.4;"/>
<ellipse cx="7.35099" cy="8.38049" rx="7.35099" ry="8.38049" transform="matrix(0.157828 -0.987467 -0.987467 -0.157828 296.756 225.834)" fill="#BCBBFF" fill-opacity="0.4" style="fill:#BCBBFF;fill:color(display-p3 0.7373 0.7333 1.0000);fill-opacity:0.4;"/>
<path d="M219.978 199.626C221.239 197.722 223.177 196.289 225.545 196.171C227.917 196.051 229.953 197.281 231.349 199.052C232.748 200.827 233.61 203.253 233.701 205.903C233.799 208.557 233.115 211.061 231.851 212.972C230.589 214.878 228.652 216.31 226.283 216.429C223.91 216.548 221.874 215.315 220.478 213.542C219.078 211.765 218.216 209.337 218.125 206.686C218.028 204.037 218.713 201.535 219.978 199.626Z" fill="black" style="fill:black;fill-opacity:1;"/>
<path d="M264.007 199.355C265.356 197.512 267.358 196.172 269.729 196.165C272.104 196.156 274.08 197.479 275.392 199.314C276.706 201.153 277.454 203.616 277.421 206.268C277.395 208.923 276.594 211.393 275.242 213.242C273.893 215.087 271.891 216.427 269.519 216.435C267.143 216.443 265.166 215.116 263.855 213.28C262.54 211.439 261.793 208.974 261.825 206.321C261.853 203.671 262.654 201.203 264.007 199.355Z" fill="black" style="fill:black;fill-opacity:1;"/>
<path d="M278.17 366.333C272.351 373.22 257.557 379.153 249.218 381.743" stroke="black" style="stroke:black;stroke-opacity:1;" stroke-width="6" stroke-linecap="round" stroke-linejoin="round"/>
<path d="M60.5226 215.914L36.7284 209.823" stroke="white" stroke-opacity="0.3" style="stroke:white;stroke-opacity:0.3;" stroke-width="8" stroke-linecap="round" stroke-linejoin="round"/>
<path d="M64.1855 201.618L52.4238 190.115" stroke="white" stroke-opacity="0.3" style="stroke:white;stroke-opacity:0.3;" stroke-width="8" stroke-linecap="round" stroke-linejoin="round"/>
<path d="M56.8636 230.21L41.0215 234.646" stroke="white" stroke-opacity="0.3" style="stroke:white;stroke-opacity:0.3;" stroke-width="8" stroke-linecap="round" stroke-linejoin="round"/>
<path d="M272.093 379.845C291.902 383.575 329.087 405.653 356.7 401.433C375.201 398.606 388.333 383.931 395.763 369.011C399.953 360.361 403.77 356.903 412.91 353.723C419.03 351.263 425.93 349.683 430.84 344.873C439.01 337.263 435.78 325.423 430.24 317.253C421.89 304.283 413.733 294.04 404.983 281.39" stroke="black" style="stroke:black;stroke-opacity:1;" stroke-width="8" stroke-linecap="round" stroke-linejoin="round"/>
<path d="M122.831 254.362L154.986 224.802L155.352 224.687C155.771 226.051 155.709 227.576 155.038 229.005L132.253 277.729C131.368 279.625 129.703 280.799 127.859 281.145L122.831 254.362Z" fill="#B9B8E9" style="fill:#B9B8E9;fill:color(display-p3 0.7255 0.7216 0.9137);fill-opacity:1;"/>
<path d="M82.1362 238.481L122.831 254.364L127.859 281.147C126.023 281.492 124.031 281.005 122.518 279.559L83.6196 242.415C82.4764 241.326 81.8649 239.928 81.753 238.506L82.1362 238.481Z" fill="#E7E6F3" style="fill:#E7E6F3;fill:color(display-p3 0.9059 0.9020 0.9529);fill-opacity:1;"/>
<path d="M149.395 220.242L150.368 220.385C152.863 220.739 154.701 222.512 155.35 224.687L154.984 224.802L122.829 254.362L82.1341 238.479L81.751 238.505C81.5668 236.243 82.6441 233.923 84.8406 232.688L85.6958 232.201L85.963 231.476L117.527 243.068C118.577 243.453 119.695 243.538 120.759 243.338C121.823 243.138 122.826 242.655 123.665 241.916L149.229 219.358L149.741 219.937L149.395 220.242Z" fill="#8E8DBC" style="fill:#8E8DBC;fill:color(display-p3 0.5569 0.5529 0.7373);fill-opacity:1;"/>
<path d="M154.339 212.41L154.834 212.317C154.941 214.128 154.247 215.965 152.782 217.256L149.74 219.937L149.228 219.359L123.664 241.917C122.825 242.656 121.822 243.139 120.758 243.339L112.914 201.56L154.339 212.41Z" fill="#B9B8E9" style="fill:#B9B8E9;fill:color(display-p3 0.7255 0.7216 0.9137);fill-opacity:1;"/>
<path d="M85.9664 231.478L85.6991 232.203L81.4508 230.65C79.6178 229.978 78.3116 228.516 77.7487 226.799L78.2433 226.706L112.918 201.56L120.762 243.34C119.698 243.54 118.58 243.455 117.531 243.07L85.9664 231.478Z" fill="#E0DFFF" fill-opacity="0.4" style="fill:#E0DFFF;fill:color(display-p3 0.8777 0.8759 1.0000);fill-opacity:0.4;"/>
<path d="M153.305 208.633C154.249 209.697 154.758 210.998 154.836 212.326L154.341 212.419L112.915 201.561L104.836 158.53C106.822 158.157 108.997 158.75 110.523 160.473L153.305 208.633Z" fill="#D8D8F3" style="fill:#D8D8F3;fill:color(display-p3 0.8471 0.8471 0.9529);fill-opacity:1;"/>
<path d="M112.917 201.56L78.2399 226.697L77.7453 226.79C77.3385 225.532 77.34 224.135 77.8343 222.801L100.243 162.402C101.04 160.243 102.852 158.902 104.838 158.529L112.917 201.56Z" fill="#FAFAFA" style="fill:#FAFAFA;fill:color(display-p3 0.9804 0.9804 0.9804);fill-opacity:1;"/>
<path d="M77.7467 226.798C77.3385 225.532 77.34 224.135 77.8343 222.801L100.243 162.402C101.04 160.243 102.852 158.902 104.838 158.529C106.824 158.156 108.999 158.749 110.525 160.471L153.307 208.632C154.251 209.696 154.759 210.997 154.838 212.324C154.944 214.128 154.249 215.965 152.785 217.256L149.743 219.938L149.397 220.243L150.37 220.386C152.865 220.74 154.703 222.513 155.351 224.688C155.77 226.052 155.708 227.577 155.037 229.006L132.252 277.73C131.367 279.627 129.702 280.8 127.858 281.146C126.015 281.492 124.03 281.004 122.517 279.558L83.619 242.414C82.4758 241.325 81.8642 239.927 81.7524 238.505C81.5683 236.244 82.6455 233.923 84.842 232.689L85.6972 232.202L81.4489 230.649C79.6159 229.977 78.3097 228.515 77.7467 226.798Z" stroke="black" style="stroke:black;stroke-opacity:1;" stroke-width="8" stroke-linecap="round" stroke-linejoin="round"/>
<path d="M85.5273 231.318L85.9606 231.478L117.525 243.069C118.575 243.454 119.692 243.539 120.757 243.339C121.821 243.14 122.824 242.657 123.663 241.917L149.227 219.359" stroke="black" style="stroke:black;stroke-opacity:1;" stroke-width="6" stroke-linecap="round" stroke-linejoin="round"/>
</svg>
