<svg width="500" height="500" viewBox="0 0 500 500" fill="none" xmlns="http://www.w3.org/2000/svg">
<rect width="500" height="500" rx="250" fill="#BCBBFF" style="fill:#BCBBFF;fill:color(display-p3 0.7391 0.7337 1.0000);fill-opacity:1;"/>
<path d="M139.845 306.972C139.845 306.972 138.556 291.684 138.441 281.888C138.295 269.486 139.845 250.223 139.845 250.223C134.48 255.164 128.793 259.759 124.016 265.368C119.237 270.985 115.354 277.819 114.489 285.404C113.635 292.983 116.294 301.307 122.22 305.442C127.999 309.47 139.845 306.972 139.845 306.972Z" fill="white" fill-opacity="0.75" style="fill:white;fill-opacity:0.75;"/>
<path d="M371.394 312.626C371.844 316.166 375.524 321.396 378.614 323.186C381.714 324.976 385.164 326.376 387.494 329.086C391.424 333.646 391.034 340.586 388.954 346.236C386.134 353.886 380.604 360.496 373.584 364.626C369.074 367.286 363.924 368.986 360.094 372.546C355.024 377.266 353.144 384.376 350.194 390.646C344.034 403.766 331.974 414.216 317.844 417.456C303.034 420.846 287.244 416.266 274.464 408.036C273.574 407.466 272.694 406.876 271.834 406.266H271.824C267.144 403.066 259.744 405.486 254.994 408.586C250.234 411.676 246.494 416.136 241.784 419.306C231.144 426.476 215.814 425.736 205.914 417.576C202.994 415.176 200.504 412.216 197.184 410.406C193.874 408.606 189.264 408.336 186.714 411.116C185.454 412.486 184.854 414.416 183.444 415.626C179.314 419.146 173.484 413.976 170.754 409.286C150.624 374.746 140.304 335.276 138.584 295.246C137.594 272.016 139.494 248.606 144.054 225.866C144.834 221.956 145.694 218.056 146.654 214.176C152.414 190.686 161.434 167.886 175.764 148.496C192.474 125.896 217.024 108.256 244.784 103.866C272.544 99.4758 303.154 109.966 319.294 132.966C330.974 149.626 334.304 171.006 332.544 191.266C331.184 206.996 327.014 222.276 322.234 237.366C325.514 247.046 334.184 254.636 342.674 260.336C351.164 266.036 360.384 270.946 367.354 278.426C374.324 285.906 378.714 296.926 375.094 306.486C374.234 308.756 372.964 310.816 371.394 312.626Z" fill="white" style="fill:white;fill-opacity:1;"/>
<path d="M383.283 326.057C379.243 322.367 373.293 319.717 371.693 314.757C371.653 314.777 371.623 314.807 371.593 314.837C368.323 317.117 366.693 318.027 363.113 319.727C359.193 321.587 355.233 322.947 350.853 323.127C350.303 323.147 349.723 323.167 349.133 323.197C353.263 324.827 357.083 326.997 360.133 330.207C366.143 336.537 367.183 348.327 359.943 353.197C354.903 356.587 347.943 355.497 342.593 358.377C336.213 361.817 333.923 369.747 332.883 376.927C331.843 384.097 331.213 391.907 326.403 397.327C320.493 403.987 310.123 404.667 301.563 402.187C293.003 399.707 285.413 394.707 277.123 391.467C268.823 388.237 258.883 386.987 251.413 391.837C243.423 397.027 239.783 408.177 230.673 410.967C223.493 413.167 216.003 409.147 209.703 405.037C203.413 400.937 196.453 396.387 189.023 397.497C183.183 398.367 177.873 402.707 172.023 401.897C167.973 401.337 164.593 398.307 162.583 394.747C161.003 391.957 158.593 389.157 157.213 386.147C160.403 394.717 166.073 402.027 170.483 409.267C172.443 412.487 174.953 415.887 178.663 416.557C182.763 417.307 187.083 413.667 187.043 409.497C195.183 411.037 201.393 415.437 208.003 418.977C214.613 422.517 222.103 425.267 229.503 424.017C244.053 421.557 253.963 404.547 268.703 405.077C280.083 415.087 295.723 420.237 310.653 418.387C325.583 416.537 339.503 407.737 347.573 395.047C352.173 387.807 354.993 379.367 360.813 373.067C369.073 364.127 382.733 360.177 387.883 349.157C391.443 341.557 389.483 331.737 383.273 326.077L383.283 326.057Z" fill="#BCBBFF" fill-opacity="0.4" style="fill:#BCBBFF;fill:color(display-p3 0.7373 0.7333 1.0000);fill-opacity:0.4;"/>
<ellipse cx="179.46" cy="185.591" rx="7.9148" ry="6.57367" transform="rotate(11.2397 179.46 185.591)" fill="#BCBBFF" fill-opacity="0.4" style="fill:#BCBBFF;fill:color(display-p3 0.7373 0.7333 1.0000);fill-opacity:0.4;"/>
<ellipse cx="261.417" cy="190.225" rx="9.18965" ry="7.6325" transform="rotate(1.09845 261.417 190.225)" fill="#BCBBFF" fill-opacity="0.4" style="fill:#BCBBFF;fill:color(display-p3 0.7373 0.7333 1.0000);fill-opacity:0.4;"/>
<path d="M317.993 250.386C322.013 235.526 325.933 215.426 327.653 200.136C329.373 184.846 328.683 169.026 323.453 154.546C317.213 137.256 304.423 122.406 288.233 113.676C272.053 104.946 248.503 103.036 230.623 107.326" stroke="#BCBBFF" stroke-opacity="0.4" style="stroke:#BCBBFF;stroke:color(display-p3 0.7373 0.7333 1.0000);stroke-opacity:0.4;" stroke-width="8" stroke-linecap="round" stroke-linejoin="round"/>
<path d="M317.582 310.006C329.652 316.376 341.252 318.816 353.142 315.726C358.432 314.356 363.712 311.706 366.602 307.066C369.072 303.086 369.472 298.046 368.352 293.496C367.232 288.946 364.712 284.846 361.712 281.246C350.172 267.396 332.502 259.156 324.782 242.866" stroke="#BCBBFF" stroke-opacity="0.4" style="stroke:#BCBBFF;stroke:color(display-p3 0.7373 0.7333 1.0000);stroke-opacity:0.4;" stroke-width="8" stroke-linecap="round" stroke-linejoin="round"/>
<path d="M237.318 172.163C238.98 170.475 241.206 169.444 243.58 169.825C245.96 170.202 247.753 171.879 248.805 174.002C249.859 176.128 250.243 178.816 249.805 181.572L249.805 181.574C249.361 184.336 248.155 186.77 246.49 188.461C244.828 190.15 242.603 191.184 240.229 190.808L240.226 190.808C237.847 190.426 236.055 188.75 235.002 186.626C233.948 184.5 233.564 181.812 234.002 179.052L234.003 179.049C234.446 176.287 235.652 173.853 237.318 172.163Z" fill="black" style="fill:black;fill-opacity:1;"/>
<path d="M193.378 169.69C194.997 168.217 197.115 167.362 199.303 167.853C201.493 168.344 203.046 170.02 203.881 172.044C204.719 174.072 204.907 176.576 204.337 179.096C203.773 181.619 202.533 183.805 200.91 185.282C199.291 186.756 197.173 187.612 194.985 187.12C192.793 186.629 191.241 184.949 190.406 182.924C189.568 180.893 189.381 178.387 189.95 175.867C190.515 173.348 191.755 171.166 193.378 169.69Z" fill="black" style="fill:black;fill-opacity:1;"/>
<path d="M139.268 307.137C133.47 308.542 126.871 308.684 122.221 305.443C116.296 301.307 113.636 292.983 114.491 285.405C115.355 277.819 119.239 270.986 124.018 265.368C127.334 261.47 132.957 257.257 138.613 251.353" stroke="black" style="stroke:black;stroke-opacity:1;" stroke-width="8" stroke-linecap="round" stroke-linejoin="round"/>
<path d="M317.994 250.387C319.424 246.057 320.854 241.727 322.234 237.367C327.014 222.277 331.184 206.997 332.544 191.267C334.304 171.007 330.974 149.627 319.294 132.967C303.154 109.967 272.544 99.4768 244.784 103.867C217.024 108.257 192.474 125.897 175.764 148.497C161.434 167.887 152.414 190.687 146.654 214.177C145.694 218.057 144.834 221.957 144.054 225.867C139.494 248.607 137.594 272.017 138.584 295.247C140.304 335.277 150.624 374.747 170.754 409.287C173.484 413.977 179.314 419.147 183.444 415.627C184.854 414.417 185.454 412.487 186.714 411.117C189.264 408.337 193.874 408.607 197.184 410.407C200.504 412.217 202.994 415.177 205.914 417.577C215.814 425.737 231.144 426.477 241.784 419.307C246.494 416.137 250.234 411.677 254.994 408.587C259.744 405.487 267.144 403.067 271.824 406.277" stroke="black" style="stroke:black;stroke-opacity:1;" stroke-width="8" stroke-linecap="round" stroke-linejoin="round"/>
<path d="M271.832 406.267C272.692 406.877 273.572 407.467 274.462 408.037C287.242 416.267 303.032 420.847 317.842 417.457C331.972 414.217 344.032 403.767 350.192 390.647C353.142 384.377 355.022 377.267 360.092 372.547C363.922 368.987 369.072 367.287 373.582 364.627C380.602 360.497 386.132 353.887 388.952 346.237C391.032 340.587 391.422 333.647 387.492 329.087C385.162 326.377 381.712 324.977 378.612 323.187C375.522 321.397 371.842 316.167 371.392 312.627" stroke="black" style="stroke:black;stroke-opacity:1;" stroke-width="8" stroke-linecap="round" stroke-linejoin="round"/>
<path d="M243.883 376.417C253.134 387.736 262.978 398.859 275.016 407.16" stroke="black" style="stroke:black;stroke-opacity:1;" stroke-width="6" stroke-linecap="round" stroke-linejoin="round"/>
<path d="M184.574 396.327C179.894 388.887 175.974 380.957 172.914 372.717" stroke="black" style="stroke:black;stroke-opacity:1;" stroke-width="6" stroke-linecap="round" stroke-linejoin="round"/>
<path d="M343.952 362.417C327.192 356.307 311.602 347.017 298.242 335.187" stroke="black" style="stroke:black;stroke-opacity:1;" stroke-width="6" stroke-linecap="round" stroke-linejoin="round"/>
<path d="M315.354 308.717C321.944 312.527 328.584 316.367 335.774 318.847C342.964 321.327 350.844 322.397 358.224 320.547C363.254 319.287 368.014 316.517 371.394 312.627C372.964 310.817 374.234 308.757 375.094 306.487C378.714 296.927 374.324 285.907 367.354 278.427C360.384 270.947 351.164 266.037 342.674 260.337C334.184 254.637 325.514 247.047 322.234 237.367" stroke="black" style="stroke:black;stroke-opacity:1;" stroke-width="8" stroke-linecap="round" stroke-linejoin="round"/>
<path d="M338.632 88.3736C339.135 90.6779 338.611 93.3348 336.822 94.8695C335.029 96.4114 331.37 96.4541 330.123 94.4468L329.882 94.584C327.736 90.9887 325.337 87.6899 322.729 84.917C322.104 82.9511 322.411 80.7762 323.781 79.2282C325.27 77.5377 327.913 77.2622 330.025 78.0531C332.131 78.8412 333.79 80.4984 335.233 82.2285C336.75 84.0442 338.125 86.0594 338.632 88.3736Z" fill="#E5E5FF" style="fill:#E5E5FF;fill:color(display-p3 0.8980 0.8980 1.0000);fill-opacity:1;"/>
<path d="M344.877 147.849C344.027 164.289 339.897 180.559 333.257 195.579C332.697 194.769 332.137 193.959 331.557 193.159C326.267 185.699 320.437 178.629 314.137 171.989L315.147 171.039C321.177 159.269 325.937 147.919 328.037 133.669C328.037 123.749 326.827 117.139 323.737 108.239H323.747C336.047 121.789 344.877 137.799 344.877 147.849Z" fill="#BCBBFF" style="fill:#BCBBFF;fill:color(display-p3 0.7391 0.7337 1.0000);fill-opacity:1;"/>
<path d="M314.137 171.989C320.437 178.629 326.267 185.699 331.557 193.159L331.257 193.369C326.037 186.089 318.287 180.649 309.657 178.229C301.487 175.939 292.737 176.309 284.567 173.999C269.147 169.659 258.017 156.649 244.837 147.549C233.767 139.919 220.597 134.869 207.157 135.109C193.717 135.359 175.907 141.769 168.097 152.699C159.417 151.229 153.797 149.719 147.727 144.409C144.497 141.589 142.257 137.889 141.657 135.229C140.647 130.699 144.807 126.749 148.757 124.309C161.667 116.359 177.017 112.869 192.167 112.909C192.397 112.909 192.637 112.909 192.867 112.909C207.787 113.039 222.547 116.429 236.607 121.409C265.967 131.809 292.727 149.369 314.137 171.979V171.989Z" fill="#BCBBFF" style="fill:#BCBBFF;fill:color(display-p3 0.7391 0.7337 1.0000);fill-opacity:1;"/>
<path d="M323.737 108.239C326.827 117.139 328.037 123.749 328.037 133.669C325.937 147.919 321.177 159.269 315.147 171.039L314.137 171.989C292.727 149.379 265.967 131.819 236.607 121.419C222.547 116.439 207.787 113.049 192.867 112.919V112.689C201.177 104.509 208.477 94.089 220.777 87.649C244.597 76.079 273.707 76.029 297.507 87.559C301.987 89.729 306.457 92.639 310.757 96.029C315.337 99.639 319.727 103.809 323.747 108.229H323.737V108.239Z" fill="#E5E5FF" style="fill:#E5E5FF;fill:color(display-p3 0.8980 0.8980 1.0000);fill-opacity:1;"/>
<path d="M194.879 113.102C201.966 104.443 208.478 94.089 220.778 87.649C244.598 76.079 273.708 76.029 297.508 87.559C301.988 89.729 306.458 92.639 310.758 96.029C315.338 99.639 319.728 103.809 323.748 108.229C336.048 121.789 342.159 138.611 342.159 151.89C342.159 168.352 339.898 180.559 333.258 195.579M194.879 113.102C209.799 113.232 222.548 116.439 236.608 121.419C265.968 131.819 292.728 149.379 314.138 171.989C320.438 178.629 326.268 185.699 331.558 193.159M194.879 113.102C194.649 113.102 195.109 113.102 194.879 113.102ZM194.879 113.102C179.729 113.062 159.046 115.264 149.081 121.419C143.638 124.781 141.171 130.136 141.658 135.239C141.993 138.75 144.661 142.346 147.891 145.166C153.961 150.476 161.479 152.942 170.159 154.412C177.969 143.482 193.718 135.369 207.158 135.119C220.598 134.879 233.768 139.929 244.838 147.559C258.018 156.659 269.148 169.669 284.568 174.009C292.738 176.319 301.488 175.949 309.658 178.239C318.288 180.659 326.338 185.879 331.558 193.159M333.258 195.579C332.698 194.769 332.138 193.959 331.558 193.159M333.258 195.579C332.938 195.079 331.908 193.649 331.558 193.159" stroke="black" style="stroke:black;stroke-opacity:1;" stroke-width="8" stroke-linecap="round" stroke-linejoin="round"/>
<path d="M322.729 84.917C322.104 82.9511 322.411 80.7762 323.781 79.2282C325.27 77.5377 327.913 77.2622 330.025 78.0531C332.131 78.8412 333.79 80.4984 335.233 82.2285C336.75 84.0442 338.125 86.0594 338.632 88.3736C339.135 90.6779 338.611 93.3348 336.822 94.8695C335.029 96.4114 331.37 96.4541 330.123 94.4468" stroke="black" style="stroke:black;stroke-opacity:1;" stroke-width="8" stroke-linecap="round" stroke-linejoin="round"/>
<path d="M318.825 104.539C323.998 110.682 326.816 118.272 327.452 123.285C328.325 130.159 327.711 137.156 325.986 143.867C323.479 153.622 319.671 162.212 315.148 171.039" stroke="black" style="stroke:black;stroke-opacity:1;" stroke-width="6" stroke-linecap="round" stroke-linejoin="round"/>
<path d="M248.595 98.974C248.033 100.531 248.839 102.249 250.394 102.811C251.95 103.373 253.668 102.567 254.231 101.01C254.793 99.4534 253.986 97.7363 252.431 97.1743C250.876 96.6123 249.157 97.4186 248.595 98.974Z" fill="#7B7BAC" style="fill:#7B7BAC;fill:color(display-p3 0.4837 0.4809 0.6755);fill-opacity:1;"/>
<path d="M255.701 101.54C255.138 103.097 255.944 104.816 257.501 105.378C259.058 105.941 260.776 105.134 261.339 103.578C261.901 102.021 261.095 100.304 259.538 99.7412C257.981 99.1787 256.263 99.985 255.701 101.54Z" fill="#7B7BAC" style="fill:#7B7BAC;fill:color(display-p3 0.4837 0.4809 0.6755);fill-opacity:1;"/>
<path d="M266.625 103.158C266.6 98.0822 263.486 93.3465 258.481 91.5379C252.052 89.2151 244.936 92.6004 242.588 99.0994C240.24 105.598 243.548 112.75 249.978 115.073C255.334 117.008 261.167 114.981 264.322 110.492L261.202 119.128" stroke="#7B7BAC" style="stroke:#7B7BAC;stroke:color(display-p3 0.4837 0.4809 0.6755);stroke-opacity:1;" stroke-width="5" stroke-linecap="round" stroke-linejoin="round"/>
</svg>
