<svg width="500" height="500" viewBox="0 0 500 500" fill="none" xmlns="http://www.w3.org/2000/svg">
<rect width="500" height="500" rx="250" fill="#9391F7" style="fill:#9391F7;fill:color(display-p3 0.5765 0.5686 0.9686);fill-opacity:1;"/>
<path d="M165.765 221.474C161.978 198.373 159.171 192.759 162.15 169.626C165.735 141.863 184.204 115.695 207.646 100.386C226.485 88.0831 250.941 85.121 272.419 91.8095C293.896 98.508 312.129 114.535 322.247 134.631C335.098 160.159 329.446 170.555 334.802 198.615C340.996 231.033 355.075 261.915 375.475 287.861C380.096 293.721 385.075 299.411 388.391 306.102C391.707 312.802 399.944 324.334 397.19 331.279C390.548 348.014 375.375 340.753 363.689 354.456C355.149 364.476 344.389 383.941 331.213 391.786C320.005 398.459 299.079 394.784 299.079 394.784L262.841 384.639C262.841 384.639 246.89 383.439 243.359 378.698L243.349 378.697C235.44 371.759 224.727 373.072 214.587 375.864C204.447 378.646 194.799 383.532 184.338 384.639C162.936 386.896 142.687 372.494 130.954 354.456C128.942 351.353 127.038 348.062 124.113 345.815C121.177 343.567 116.844 342.65 113.808 344.753C111.099 346.621 109.227 350.713 105.994 350.088C103.407 349.599 102.534 346.379 102.312 343.749C100.306 320.565 139.017 307.741 150.694 287.608C162.378 267.488 166.735 240.671 164.739 221.648L165.765 221.474Z" fill="white" fill-opacity="0.75" style="fill:white;fill-opacity:0.75;"/>
<ellipse cx="239.931" cy="199.343" rx="55.4233" ry="53.7661" transform="rotate(-1.40641 239.931 199.343)" fill="white" fill-opacity="0.4" style="fill:white;fill-opacity:0.4;"/>
<path d="M102.04 349.603L104.977 329.528L120.57 314.616C128.245 314.031 132.17 319.183 135.717 326.028C139.264 332.874 140.768 340.623 144.339 347.441C151.158 360.455 165.812 368.955 180.488 368.393C197.622 367.746 213.472 355.976 230.495 358.021C240.924 359.273 298.512 390.204 326.017 368.393C340.948 356.553 329.169 348.273 345.818 336.013C352.411 331.156 375.557 339.209 384.056 326.366C394.155 311.106 374.428 288.376 368.281 282.242C376.021 289.923 383.96 297.906 387.921 308.066C391.884 318.216 402.156 329.077 393.744 336.013C386.48 342.005 378.821 343.376 370.786 348.284C354.717 358.092 354.564 364.897 343.121 379.838C334.752 390.762 320.193 396.051 306.485 394.764C292.777 393.477 273.791 394.143 264.316 384.157C256.864 376.306 242.708 375.957 232.148 373.533C221.323 371.05 210.785 377.665 200.246 381.177C179.063 388.226 154.021 381.784 138.887 365.371C131.331 357.192 125.457 346.358 114.943 342.718C113.44 347.4 108.246 350.571 102.041 349.603C100.208 302.017 102.04 349.603 102.04 349.603Z" fill="#BCBBFF" fill-opacity="0.4" style="fill:#BCBBFF;fill:color(display-p3 0.7373 0.7333 1.0000);fill-opacity:0.4;"/>
<path d="M184.275 265.957C189.567 259.954 195.705 253.51 203.228 253.294C210.112 253.11 216.286 258.669 218.71 265.649C221.143 272.621 220.313 280.638 217.871 287.756C215.422 294.865 211.467 301.252 207.555 307.565" stroke="black" style="stroke:black;stroke-opacity:1;" stroke-width="8" stroke-linecap="round" stroke-linejoin="round"/>
<path d="M310.136 271.886C306.287 267.312 302.404 262.698 297.47 258.984C292.535 255.269 286.392 252.491 279.996 252.348C270.206 252.116 261.514 258.345 258.144 266.178C254.775 274.012 256.032 283.044 259.576 291.079C263.121 299.115 268.792 306.357 274.416 313.513" stroke="black" style="stroke:black;stroke-opacity:1;" stroke-width="8" stroke-linecap="round" stroke-linejoin="round"/>
<path d="M134.992 324.472C137.973 312.932 142.755 301.868 149.111 291.781" stroke="black" style="stroke:black;stroke-opacity:1;" stroke-width="6" stroke-linecap="round" stroke-linejoin="round"/>
<path d="M332.246 305.867C336.263 315.783 341.656 325.142 348.211 333.599" stroke="black" style="stroke:black;stroke-opacity:1;" stroke-width="6" stroke-linecap="round" stroke-linejoin="round"/>
<ellipse cx="197.541" cy="213.462" rx="7.35099" ry="8.38049" transform="rotate(-99.0809 197.541 213.462)" fill="#BCBBFF" fill-opacity="0.4" style="fill:#BCBBFF;fill:color(display-p3 0.7373 0.7333 1.0000);fill-opacity:0.4;"/>
<ellipse cx="7.35099" cy="8.38049" rx="7.35099" ry="8.38049" transform="matrix(0.157828 -0.987467 -0.987467 -0.157828 289.338 222.044)" fill="#BCBBFF" fill-opacity="0.4" style="fill:#BCBBFF;fill:color(display-p3 0.7373 0.7333 1.0000);fill-opacity:0.4;"/>
<path d="M212.562 195.835C213.823 193.931 215.761 192.498 218.129 192.38C220.501 192.26 222.537 193.49 223.933 195.261C225.332 197.036 226.194 199.462 226.285 202.112C226.383 204.766 225.699 207.27 224.435 209.181C223.173 211.087 221.236 212.519 218.867 212.638C216.494 212.757 214.458 211.524 213.062 209.751C211.662 207.974 210.8 205.546 210.709 202.895C210.612 200.246 211.297 197.744 212.562 195.835Z" fill="black" style="fill:black;fill-opacity:1;"/>
<path d="M256.59 195.564C257.94 193.721 259.942 192.381 262.313 192.374C264.688 192.365 266.664 193.688 267.976 195.523C269.29 197.362 270.038 199.825 270.005 202.477C269.979 205.132 269.178 207.602 267.826 209.451C266.477 211.296 264.475 212.636 262.103 212.644C259.727 212.652 257.75 211.325 256.439 209.489C255.124 207.648 254.377 205.183 254.409 202.53C254.437 199.88 255.238 197.412 256.59 195.564Z" fill="black" style="fill:black;fill-opacity:1;"/>
<path d="M239.734 360.546C233.915 367.433 219.121 373.366 210.783 375.955" stroke="black" style="stroke:black;stroke-opacity:1;" stroke-width="6" stroke-linecap="round" stroke-linejoin="round"/>
<path d="M223.593 257.316L239.279 283.881L205.158 245.154L223.593 257.316Z" fill="#020075" fill-opacity="0.4" style="fill:#020075;fill:color(display-p3 0.0067 0.0000 0.4578);fill-opacity:0.4;"/>
<path d="M254.965 257.315L239.279 283.881L223.593 257.315L254.965 257.315Z" fill="#6E6CE7" fill-opacity="0.4" style="fill:#6E6CE7;fill:color(display-p3 0.4320 0.4249 0.9051);fill-opacity:0.4;"/>
<path d="M273.4 245.153L239.279 283.881L254.965 257.315L273.4 245.153Z" fill="#020075" fill-opacity="0.4" style="fill:#020075;fill:color(display-p3 0.0067 0.0000 0.4578);fill-opacity:0.4;"/>
<path d="M265.123 235.37L273.4 245.153L254.965 257.315L251.779 243.185L265.123 235.37Z" fill="#6E6CE7" fill-opacity="0.4" style="fill:#6E6CE7;fill:color(display-p3 0.4320 0.4249 0.9051);fill-opacity:0.4;"/>
<path d="M251.779 243.185L254.965 257.315L223.593 257.316L226.77 243.185L251.779 243.185Z" fill="#BCBBFF" fill-opacity="0.4" style="fill:#BCBBFF;fill:color(display-p3 0.7373 0.7333 1.0000);fill-opacity:0.4;"/>
<path d="M226.77 243.185L223.593 257.316L205.158 245.154L213.435 235.371L226.77 243.185Z" fill="#6E6CE7" fill-opacity="0.4" style="fill:#6E6CE7;fill:color(display-p3 0.4320 0.4249 0.9051);fill-opacity:0.4;"/>
<path d="M265.122 235.371L251.779 243.185L226.769 243.185L213.435 235.371L221.351 228.43L257.205 228.43L265.122 235.371Z" fill="white" fill-opacity="0.4" style="fill:white;fill-opacity:0.4;"/>
<path d="M218.61 230.835L219.455 230.095C220.679 229.021 222.252 228.43 223.88 228.43L254.676 228.43C256.304 228.43 257.876 229.021 259.1 230.095L259.945 230.835C263.391 233.856 266.607 237.13 269.567 240.628C271.781 243.245 271.793 247.075 269.595 249.706L247.718 275.882C243.321 281.143 235.234 281.143 230.837 275.882L208.961 249.706C206.763 247.075 206.774 243.245 208.988 240.628C211.948 237.13 215.164 233.856 218.61 230.835Z" stroke="black" style="stroke:black;stroke-opacity:1;" stroke-width="8" stroke-linecap="round" stroke-linejoin="round"/>
<path d="M141.956 243.035L118.162 236.944" stroke="white" stroke-opacity="0.3" style="stroke:white;stroke-opacity:0.3;" stroke-width="8" stroke-linecap="round" stroke-linejoin="round"/>
<path d="M145.619 228.739L133.857 217.236" stroke="white" stroke-opacity="0.3" style="stroke:white;stroke-opacity:0.3;" stroke-width="8" stroke-linecap="round" stroke-linejoin="round"/>
<path d="M138.297 257.331L122.455 261.767" stroke="white" stroke-opacity="0.3" style="stroke:white;stroke-opacity:0.3;" stroke-width="8" stroke-linecap="round" stroke-linejoin="round"/>
<path d="M363.346 229.371L387.324 224.05" stroke="white" stroke-opacity="0.3" style="stroke:white;stroke-opacity:0.3;" stroke-width="8" stroke-linecap="round" stroke-linejoin="round"/>
<path d="M366.542 243.776L382.232 248.721" stroke="white" stroke-opacity="0.3" style="stroke:white;stroke-opacity:0.3;" stroke-width="8" stroke-linecap="round" stroke-linejoin="round"/>
<path d="M360.15 214.963L372.277 203.847" stroke="white" stroke-opacity="0.3" style="stroke:white;stroke-opacity:0.3;" stroke-width="8" stroke-linecap="round" stroke-linejoin="round"/>
<path d="M233.662 374.057C253.47 377.788 290.655 399.866 318.268 395.646C336.769 392.818 349.902 378.144 357.332 363.224C361.522 354.574 365.338 351.116 374.478 347.936C380.598 345.476 387.498 343.896 392.408 339.086C400.578 331.476 397.348 319.636 391.808 311.466C383.458 298.496 375.301 288.253 366.551 275.603" stroke="black" style="stroke:black;stroke-opacity:1;" stroke-width="8" stroke-linecap="round" stroke-linejoin="round"/>
</svg>
