<svg width="856" height="545" viewBox="0 0 856 545" fill="none" xmlns="http://www.w3.org/2000/svg">
<path d="M323.896 412.127C323.896 412.127 331.181 401.255 331.398 394.079C331.674 384.994 338.017 372.574 338.017 372.574C341.881 376.267 345.985 379.711 349.409 383.885C352.834 388.066 355.587 393.126 356.117 398.695C356.64 404.26 354.579 410.322 350.181 413.272C345.892 416.145 323.896 412.127 323.896 412.127Z" fill="white" fill-opacity="0.75" style="fill:white;fill-opacity:0.75;"/>
<path d="M337.667 414.282C341.896 415.39 346.729 415.584 350.18 413.272C354.578 410.322 356.64 404.26 356.117 398.695C355.586 393.126 352.833 388.066 349.408 383.885C347.032 380.984 342.968 377.821 338.904 373.418" stroke="black" style="stroke:black;stroke-opacity:1;" stroke-width="8" stroke-linecap="round" stroke-linejoin="round"/>
<path d="M107.981 330.823C107.981 330.823 101.437 334.901 97.9889 335.83C94.5312 336.757 90.8364 337.216 87.8844 339.231C82.9081 342.618 81.4886 349.423 82.0354 355.419C82.7794 363.538 86.4102 371.354 92.122 377.16C95.7899 380.897 100.324 383.872 103.103 388.302C106.778 394.173 106.754 401.527 107.981 408.347C110.535 422.614 119.479 435.83 132.289 442.616C145.717 449.724 162.155 449.387 176.629 444.745C177.636 444.425 178.639 444.083 179.628 443.716L179.637 443.719C184.986 441.839 191.508 446.092 195.293 450.315C199.092 454.532 201.55 459.808 205.279 464.089C213.701 473.769 228.7 477.022 240.374 471.702C243.816 470.139 246.987 467.925 250.663 467.036C254.326 466.154 258.848 467.086 260.592 470.431C261.455 472.081 261.535 474.1 262.583 475.634C265.662 480.103 272.631 476.618 276.482 472.794C304.866 444.641 325.05 409.187 337.071 370.967C344.04 348.784 348.264 325.68 349.745 302.535C350.003 298.556 350.182 294.567 350.259 290.57C350.775 266.39 347.963 242.032 339.14 219.594C328.849 193.439 309.701 170.046 284.023 158.621C258.345 147.196 226.063 149.406 204.52 167.445C188.926 180.514 180.176 200.304 176.633 220.329C173.875 235.875 169.48 267.501 169.48 267.501L154.991 294.332L138.892 310.163L118.232 325.457L107.981 330.823Z" fill="white" fill-opacity="0.75" style="fill:white;fill-opacity:0.75;"/>
<path d="M92.7369 337.395C97.5943 334.876 104.027 333.857 106.857 329.48C106.89 329.509 106.911 329.546 106.933 329.583C109.501 332.631 125.653 322.282 125.653 322.282C125.653 322.282 107.91 337.72 104.744 348.863C102.141 358.028 102.524 363.073 108.257 369.651C112.248 374.23 119.253 374.978 123.675 379.145C128.948 384.119 129.107 392.372 128.253 399.576C127.402 406.771 125.989 414.478 129.233 420.958C133.218 428.921 143.058 432.262 151.968 432.082C160.879 431.902 169.504 429.036 178.35 428.052C187.203 427.081 197.128 428.446 203.088 435.064C209.463 442.145 210.093 453.857 218.17 458.91C224.536 462.893 232.812 460.949 239.961 458.61C247.098 456.277 254.998 453.684 261.888 456.679C267.303 459.031 271.309 464.597 277.17 465.329C281.226 465.836 285.276 463.784 288.138 460.866C290.387 458.58 293.439 456.499 295.551 453.949C290.252 461.401 282.883 466.994 276.75 472.846C274.023 475.449 270.718 478.084 266.961 477.771C262.807 477.434 259.576 472.8 260.694 468.782C252.433 468.163 245.296 470.806 237.995 472.515C230.694 474.223 222.747 474.941 215.923 471.818C202.506 465.676 197.336 446.681 182.961 443.378C169.378 450.101 152.938 451.028 138.995 445.377C125.053 439.726 113.885 427.623 109.374 413.277C106.805 405.093 106.265 396.21 102.274 388.619C96.6094 377.846 84.4372 370.495 82.3149 358.517C80.8432 350.255 85.2781 341.277 92.7414 337.417L92.7369 337.395Z" fill="#BCBBFF" fill-opacity="0.4" style="fill:#BCBBFF;fill:color(display-p3 0.7373 0.7333 1.0000);fill-opacity:0.4;"/>
<path d="M179.638 443.729C184.989 441.84 191.51 446.093 195.296 450.316C199.094 454.533 201.553 459.809 205.282 464.09C213.703 473.77 228.702 477.023 240.377 471.703C243.819 470.14 246.99 467.926 250.665 467.037C254.328 466.155 258.851 467.087 260.595 470.432C261.457 472.082 261.537 474.101 262.586 475.635C265.664 480.104 272.634 476.619 276.485 472.796C304.868 444.642 325.052 409.188 337.074 370.968C344.043 348.785 348.267 325.681 349.747 302.536C350.006 298.557 350.185 294.568 350.262 290.571C350.778 266.391 347.966 242.033 339.143 219.595C328.852 193.44 309.704 170.047 284.026 158.622C258.348 147.197 226.066 149.407 204.523 167.446C188.929 180.515 180.179 200.305 176.635 220.33C175.673 225.756 174.739 234.855 173.93 244.402C171.9 268.367 162.804 291.824 144.301 307.189C142.855 308.391 141.434 309.529 140.064 310.573C124.823 322.19 101.44 334.902 97.9923 335.831C94.5346 336.758 90.8398 337.217 87.8878 339.232C82.9115 342.62 81.492 349.424 82.0388 355.42C82.7827 363.539 86.4135 371.355 92.1254 377.161C95.7933 380.898 100.328 383.873 103.106 388.303C106.781 394.174 106.757 401.529 107.984 408.348C110.538 422.616 119.483 435.831 132.293 442.618C145.721 449.725 162.158 449.388 176.633 444.746C177.64 444.426 178.643 444.084 179.631 443.717" stroke="black" style="stroke:black;stroke-opacity:1;" stroke-width="8" stroke-linecap="round" stroke-linejoin="round"/>
<path d="M214.353 422.119C202.487 430.657 190.099 438.854 176.324 443.757" stroke="black" style="stroke:black;stroke-opacity:1;" stroke-width="6" stroke-linecap="round" stroke-linejoin="round"/>
<path d="M266.489 456.7C272.935 450.725 278.774 444.08 283.862 436.913" stroke="black" style="stroke:black;stroke-opacity:1;" stroke-width="6" stroke-linecap="round" stroke-linejoin="round"/>
<path d="M116.512 388.165C120.783 387.789 125.03 387.16 129.228 386.287" stroke="black" style="stroke:black;stroke-opacity:1;" stroke-width="6" stroke-linecap="round" stroke-linejoin="round"/>
<path d="M211.902 364.986C206.537 369.776 201.132 374.602 194.957 378.276C188.783 381.95 181.699 384.452 174.517 384.157C169.623 383.957 164.688 382.308 160.815 379.359C159.015 377.986 157.445 376.324 156.214 374.39C151.031 366.241 152.976 355.205 157.988 346.948C163 338.692 170.586 332.38 177.345 325.478" stroke="black" style="stroke:black;stroke-opacity:1;" stroke-width="8" stroke-linecap="round" stroke-linejoin="round"/>
<path d="M202.611 136.527C201.371 138.689 201.055 141.533 202.371 143.649C203.687 145.773 207.361 146.979 209.256 145.352L209.455 145.567C212.761 142.626 216.227 140.064 219.736 138.099C220.99 136.316 221.372 134.027 220.484 132.031C219.521 129.854 216.945 128.737 214.564 128.862C212.192 128.987 209.993 130.13 207.989 131.415C205.884 132.762 203.858 134.356 202.611 136.527Z" fill="#E5E5FF" style="fill:#E5E5FF;fill:color(display-p3 0.8980 0.8980 1.0000);fill-opacity:1;"/>
<path d="M177.413 194.479C173.045 211.317 172.036 229.026 173.953 246.273C174.775 245.634 175.597 244.996 176.435 244.374C184.138 238.538 192.26 233.266 200.719 228.577L200.003 227.299C197.668 213.521 196.478 200.57 198.891 185.542C202.044 175.545 205.364 169.268 211.307 161.281L211.297 161.278C194.595 171.024 180.608 184.351 177.413 194.479Z" fill="#BCBBFF" style="fill:#BCBBFF;fill:color(display-p3 0.7391 0.7337 1.0000);fill-opacity:1;"/>
<path d="M200.721 228.576C192.262 233.265 184.14 238.537 176.438 244.373L176.673 244.68C184.248 239.003 193.787 235.984 203.253 236.288C212.214 236.577 220.914 239.731 229.882 240C246.801 240.528 262.152 230.954 278.327 225.973C291.908 221.802 306.785 220.899 320.253 225.412C333.718 229.936 349.628 242.057 354.025 255.554C363.24 256.831 369.383 257.096 377.188 253.674C381.339 251.859 384.773 248.842 386.223 246.352C388.68 242.108 385.744 236.805 382.539 233.091C372.055 220.976 357.695 212.58 342.415 207.805C342.183 207.732 341.942 207.655 341.71 207.582C326.633 202.971 310.681 201.696 294.929 202.246C262.036 203.395 229.487 212.586 200.725 228.566L200.721 228.576Z" fill="#BCBBFF" style="fill:#BCBBFF;fill:color(display-p3 0.7391 0.7337 1.0000);fill-opacity:1;"/>
<path d="M211.308 161.281C205.365 169.268 202.045 175.545 198.892 185.542C196.479 200.57 197.669 213.521 200.004 227.298L200.72 228.577C229.483 212.596 262.031 203.406 294.925 202.257C310.676 201.707 326.628 202.982 341.705 207.593L341.779 207.361C336.004 196.477 331.959 183.656 321.611 173.256C301.283 154.026 271.964 144.723 244.314 148.778C239.11 149.541 233.68 151.052 228.269 153.102C222.507 155.284 216.757 158.091 211.301 161.268L211.311 161.271L211.308 161.281Z" fill="#E5E5FF" style="fill:#E5E5FF;fill:color(display-p3 0.8980 0.8980 1.0000);fill-opacity:1;"/>
<path d="M339.623 207.138C335.233 196.16 331.961 183.655 321.613 173.256C301.286 154.025 271.966 144.723 244.317 148.777C239.112 149.54 233.683 151.052 228.272 153.102C222.509 155.284 216.759 158.091 211.303 161.268C194.598 171.023 183.093 186.033 178.872 199.416C173.64 216.005 172.039 229.026 173.956 246.272M339.623 207.138C324.546 202.526 310.679 201.707 294.927 202.257C262.034 203.405 229.485 212.596 200.722 228.577C192.263 233.266 184.141 238.538 176.439 244.374M339.623 207.138C339.854 207.211 339.391 207.064 339.623 207.138ZM339.623 207.138C354.903 211.912 375.046 220.706 383.132 230.076C387.549 235.195 388.333 241.375 386.221 246.363C384.767 249.795 380.936 252.57 376.784 254.386C368.979 257.807 360.619 257.902 351.404 256.625C347.008 243.128 333.716 229.947 320.251 225.423C306.783 220.909 291.906 221.813 278.325 225.983C262.15 230.965 246.799 240.538 229.88 240.011C220.912 239.742 212.212 236.588 203.251 236.299C193.785 235.995 184.013 238.697 176.439 244.374M173.956 246.272C174.778 245.634 175.6 244.996 176.439 244.374M173.956 246.272C174.438 245.87 175.93 244.757 176.439 244.374" stroke="black" style="stroke:black;stroke-opacity:1;" stroke-width="8" stroke-linecap="round" stroke-linejoin="round"/>
<path d="M219.738 138.099C220.992 136.316 221.374 134.027 220.486 132.031C219.523 129.854 216.947 128.737 214.566 128.862C212.194 128.987 209.995 130.13 207.991 131.415C205.886 132.762 203.86 134.356 202.613 136.527C201.373 138.689 201.057 141.533 202.373 143.649C203.689 145.773 207.363 146.979 209.258 145.352" stroke="black" style="stroke:black;stroke-opacity:1;" stroke-width="8" stroke-linecap="round" stroke-linejoin="round"/>
<path d="M217.438 159.114C210.273 163.661 205.021 170.414 202.786 175.263C199.722 181.913 198.117 189.16 197.722 196.471C197.148 207.098 198.255 216.966 200.007 227.299" stroke="black" style="stroke:black;stroke-opacity:1;" stroke-width="6" stroke-linecap="round" stroke-linejoin="round"/>
<path d="M271.162 175.452C271.18 177.293 272.688 178.771 274.527 178.753C276.367 178.735 277.845 177.228 277.827 175.387C277.809 173.546 276.302 172.069 274.462 172.087C272.623 172.105 271.144 173.612 271.162 175.452Z" fill="#7B7BAC" style="fill:#7B7BAC;fill:color(display-p3 0.4837 0.4809 0.6755);fill-opacity:1;"/>
<path d="M279.565 175.369C279.583 177.21 281.09 178.689 282.931 178.671C284.772 178.653 286.251 177.145 286.233 175.304C286.215 173.463 284.708 171.986 282.866 172.004C281.025 172.022 279.547 173.53 279.565 175.369Z" fill="#7B7BAC" style="fill:#7B7BAC;fill:color(display-p3 0.4837 0.4809 0.6755);fill-opacity:1;"/>
<path d="M291.581 172.815C289.585 167.534 284.501 163.806 278.581 163.863C270.977 163.937 264.874 170.228 264.949 177.914C265.024 185.6 271.248 191.771 278.852 191.697C285.187 191.635 290.48 187.258 292.027 181.354L292.126 191.568" stroke="#7B7BAC" style="stroke:#7B7BAC;stroke:color(display-p3 0.4837 0.4809 0.6755);stroke-opacity:1;" stroke-width="5" stroke-linecap="round" stroke-linejoin="round"/>
<ellipse cx="103.381" cy="9.19141" rx="103.381" ry="9.19141" transform="matrix(-1 0 0 1 306.556 506.84)" fill="black" fill-opacity="0.15" style="fill:black;fill-opacity:0.15;"/>
<ellipse cx="7.82892" cy="5.74904" rx="7.82892" ry="5.74904" transform="matrix(-0.964939 -0.262475 -0.262475 0.964939 340.53 297.926)" fill="#BCBBFF" fill-opacity="0.4" style="fill:#BCBBFF;fill:color(display-p3 0.7373 0.7333 1.0000);fill-opacity:0.4;"/>
<ellipse cx="10.1032" cy="7.4608" rx="10.1032" ry="7.4608" transform="matrix(-0.981317 0.192399 0.192399 0.981317 246.495 289.973)" fill="#BCBBFF" fill-opacity="0.4" style="fill:#BCBBFF;fill:color(display-p3 0.7373 0.7333 1.0000);fill-opacity:0.4;"/>
<path d="M272.235 285.538C270.839 283.443 268.715 281.907 266.142 281.8C263.563 281.687 261.331 283.042 259.786 285.014C258.237 286.989 257.275 289.686 257.163 292.627L257.163 292.63C257.055 295.578 257.817 298.348 259.215 300.448C260.61 302.544 262.733 304.082 265.304 304.195L265.308 304.195C267.886 304.302 270.117 302.949 271.664 300.976C273.213 299 274.174 296.304 274.288 293.358L274.288 293.355C274.395 290.406 273.634 287.636 272.235 285.538Z" fill="black" style="fill:black;fill-opacity:1;"/>
<path d="M318.313 285.96C317.016 283.93 315.021 282.43 312.576 282.363C310.129 282.294 308.023 283.678 306.577 285.632C305.127 287.59 304.231 290.239 304.129 293.111C304.02 295.986 304.719 298.681 306.019 300.717C307.315 302.748 309.311 304.249 311.756 304.316C314.205 304.384 316.311 302.996 317.757 301.04C319.206 299.08 320.103 296.429 320.205 293.556C320.313 290.686 319.613 287.994 318.313 285.96Z" fill="black" style="fill:black;fill-opacity:1;"/>
<path d="M492.313 493.363C488.263 485.383 484.533 477.283 481.273 469.043C474.833 452.783 470.223 435.973 468.613 418.373C466.193 391.863 470.653 364.333 483.953 341.273C497.243 318.213 519.863 300.073 545.963 294.833C572.063 289.593 601.173 298.413 618.003 319.043C629.063 332.613 634.212 349.733 638.202 366.943C643.742 359.253 649.363 350.993 657.103 345.503C664.833 340.023 674.883 337.013 683.963 339.743C693.043 342.473 700.223 352.063 698.243 361.333C712.453 352.353 732.093 352.413 745.793 361.963C759.503 371.513 766.353 389.913 762.233 406.103C759.753 415.833 753.743 425.913 757.573 435.193C762.813 447.853 782.672 449.203 787.592 461.993C790.762 470.243 786.143 479.173 783.723 487.673C781.313 496.183 783.243 509.123 791.953 510.643L498.823 514.913C496.633 512.873 494.903 510.453 493.703 507.843C491.543 503.213 491.003 498.003 492.313 493.363Z" fill="white" fill-opacity="0.75" style="fill:white;fill-opacity:0.75;"/>
<path d="M481.098 393.355C466.15 422.394 490.167 455.05 503.43 477.021L539.321 455.05L559.285 449.832L578.509 451.538C578.509 451.538 603.042 441.018 598.553 427.436C594.064 413.853 578.509 423.12 573.005 416.543C567.5 409.967 572.755 379.89 556.988 367.122C530.893 345.989 495.45 365.475 481.098 393.355Z" fill="white" fill-opacity="0.4" style="fill:white;fill-opacity:0.4;"/>
<path d="M503.295 483.183L514.672 514.731H559.407C559.407 514.731 583.414 516.643 580.274 507.143C577.134 497.642 566.254 504.124 562.404 499.524C558.554 494.924 562.229 473.885 551.2 464.954C532.947 450.172 503.295 483.183 503.295 483.183Z" fill="white" fill-opacity="0.4" style="fill:white;fill-opacity:0.4;"/>
<path d="M493.702 507.842L457.062 507.682C447.002 483.252 468.242 476.392 481.272 469.042C484.532 477.282 488.262 485.382 492.312 493.362C491.002 498.002 491.542 503.212 493.702 507.842Z" fill="white" fill-opacity="0.75" style="fill:white;fill-opacity:0.75;"/>
<path d="M527.001 459.753C516.331 465.093 505.981 472.023 499.691 482.153C493.401 492.293 492.091 506.223 498.971 516.923C594.921 511.573 691.071 509.713 787.161 511.333C780.241 505.983 781.101 495.343 783.611 486.973C786.121 478.603 789.571 469.363 785.771 461.483C780.331 450.213 763.511 448.903 757.161 438.133C752.311 429.903 755.391 419.493 758.401 410.433C761.421 401.373 764.071 390.703 758.631 382.863C765.151 391.403 760.571 403.693 755.171 412.983C749.771 422.273 743.471 433.023 747.321 443.053C750.511 451.393 759.641 455.843 764.581 463.273C771.181 473.203 768.321 488.193 758.821 496.163C675.091 500.053 591.221 500.633 507.441 497.893C505.061 497.813 502.451 497.643 500.721 496.013C497.771 493.233 499.211 488.303 501.201 484.763C507.071 474.353 516.061 465.733 526.981 459.753H527.001Z" fill="#BCBBFF" fill-opacity="0.4" style="fill:#BCBBFF;fill:color(display-p3 0.7373 0.7333 1.0000);fill-opacity:0.4;"/>
<path d="M468.502 506.188C473.863 504.792 478.607 501.169 481.362 496.365C484.117 491.561 484.859 485.635 483.36 480.304C488.305 487.403 491.141 495.949 491.416 504.599C491.445 505.46 491.416 506.396 490.881 507.064C490.191 507.918 488.936 508.007 487.829 508.015C481.154 508.104 474.479 508.185 468.502 506.188Z" fill="#BCBBFF" fill-opacity="0.4" style="fill:#BCBBFF;fill:color(display-p3 0.7373 0.7333 1.0000);fill-opacity:0.4;"/>
<path d="M760.924 410.262C766.874 394.402 758.804 379.635 745.502 368.363C731.267 356.3 710.162 354.923 698.242 361.333" stroke="#BCBBFF" stroke-opacity="0.4" style="stroke:#BCBBFF;stroke:color(display-p3 0.7373 0.7333 1.0000);stroke-opacity:0.4;" stroke-width="8" stroke-linecap="round" stroke-linejoin="round"/>
<path d="M640.383 376.793C633.753 348.413 621.003 325.753 600.623 311.203C578.063 295.103 546.243 295.023 521.713 307.933C497.183 320.833 479.603 346.193 471.633 372.733" stroke="#BCBBFF" stroke-opacity="0.4" style="stroke:#BCBBFF;stroke:color(display-p3 0.7373 0.7333 1.0000);stroke-opacity:0.4;" stroke-width="8" stroke-linecap="round" stroke-linejoin="round"/>
<path d="M576.742 450.242C550.762 447.912 523.952 457.122 504.882 474.922C499.372 480.062 494.362 486.112 492.312 493.362C491.002 498.002 491.542 503.212 493.702 507.842V507.842C496.06 512.972 501.961 514.912 507.606 514.912H645.189H791.557C783.327 514.912 781.312 496.182 783.722 487.672C786.142 479.172 790.762 470.242 787.592 461.992C782.672 449.202 762.812 447.852 757.572 435.192C753.742 425.912 759.752 415.832 762.232 406.102C766.352 389.912 759.502 371.512 745.792 361.962C732.092 352.412 712.452 352.352 698.242 361.332C700.222 352.062 693.042 342.472 683.962 339.742C674.882 337.012 664.832 340.022 657.102 345.502C649.362 350.992 643.742 359.252 638.202 366.942C638.192 366.942 638.192 366.942 638.192 366.942" stroke="black" style="stroke:black;stroke-opacity:1;" stroke-width="8" stroke-linecap="round" stroke-linejoin="round"/>
<path d="M690.231 372.733C679.501 382.353 666.951 389.923 653.441 394.933" stroke="black" style="stroke:black;stroke-opacity:1;" stroke-width="6" stroke-linecap="round" stroke-linejoin="round"/>
<path d="M771.643 449.151C759.156 444.317 747.483 442.012 734.133 442.012" stroke="black" style="stroke:black;stroke-opacity:1;" stroke-width="6" stroke-linecap="round" stroke-linejoin="round"/>
<path d="M766.681 496.332L720.711 496.332" stroke="black" style="stroke:black;stroke-opacity:1;" stroke-width="6" stroke-linecap="round" stroke-linejoin="round"/>
<path d="M640.383 376.793C639.673 373.523 638.962 370.233 638.202 366.943C634.212 349.733 629.063 332.613 618.003 319.043C601.173 298.413 572.063 289.593 545.963 294.833C519.863 300.073 497.243 318.213 483.953 341.273C470.653 364.333 466.193 391.863 468.613 418.373C470.223 435.973 474.833 452.783 481.273 469.043C484.533 477.283 488.263 485.383 492.313 493.363" stroke="black" style="stroke:black;stroke-opacity:1;" stroke-width="8" stroke-linecap="round" stroke-linejoin="round"/>
<path d="M481.272 469.042C470.303 475.23 453.514 481.184 454.481 497.489C454.865 503.961 461.293 507.842 467.777 507.842H493.702" stroke="black" style="stroke:black;stroke-opacity:1;" stroke-width="8" stroke-linecap="round" stroke-linejoin="round"/>
<path d="M502.023 422.202C501.923 420.972 501.623 419.762 501.133 418.632" stroke="black" style="stroke:black;stroke-opacity:1;" stroke-width="8" stroke-linecap="round" stroke-linejoin="round"/>
<path d="M502.021 422.213V422.203" stroke="black" style="stroke:black;stroke-opacity:1;" stroke-width="8" stroke-linecap="round" stroke-linejoin="round"/>
<ellipse cx="485.776" cy="430.781" rx="6.35279" ry="5.81744" transform="rotate(-3.25097 485.776 430.781)" fill="#BCBBFF" fill-opacity="0.4" style="fill:#BCBBFF;fill:color(display-p3 0.7373 0.7333 1.0000);fill-opacity:0.4;"/>
<ellipse cx="565.701" cy="427.406" rx="9.18965" ry="7.6325" transform="rotate(1.98161 565.701 427.406)" fill="#BCBBFF" fill-opacity="0.4" style="fill:#BCBBFF;fill:color(display-p3 0.7373 0.7333 1.0000);fill-opacity:0.4;"/>
<path d="M537.728 412.13C539.056 410.169 541.057 408.75 543.461 408.694C545.87 408.631 547.938 409.955 549.359 411.851C550.781 413.75 551.648 416.323 551.718 419.113L551.718 419.115C551.784 421.912 551.04 424.524 549.711 426.49C548.383 428.453 546.383 429.874 543.981 429.936L543.977 429.936C541.569 429.993 539.501 428.671 538.08 426.774C536.658 424.874 535.791 422.301 535.72 419.507L535.72 419.504C535.654 416.708 536.397 414.095 537.728 412.13Z" fill="black" style="fill:black;fill-opacity:1;"/>
<path d="M497.118 412.604C498.529 410.899 500.496 409.783 502.684 410.063C504.874 410.341 506.578 411.921 507.622 413.94C508.669 415.963 509.136 418.549 508.867 421.233C508.603 423.921 507.642 426.328 506.228 428.039C504.818 429.745 502.85 430.861 500.662 430.582C498.471 430.303 496.767 428.719 495.723 426.699C494.677 424.674 494.209 422.085 494.479 419.4C494.743 416.717 495.704 414.313 497.118 412.604Z" fill="black" style="fill:black;fill-opacity:1;"/>
<path d="M506.37 492.972L513.701 513.894C513.701 513.894 510.12 514.912 507.15 514.912H327.55L279.75 394.752H467.81L498.22 472.222L506.37 492.972Z" fill="white" style="fill:white;fill-opacity:1;"/>
<path d="M467.126 394.148L327.477 514.092H515.053L508.929 495.661L467.126 394.148Z" fill="#BCBBFF" fill-opacity="0.4" style="fill:#BCBBFF;fill:color(display-p3 0.7373 0.7333 1.0000);fill-opacity:0.4;"/>
<path d="M467.81 394.752L514.719 514.912H327.55L279.75 394.752H467.81Z" stroke="black" style="stroke:black;stroke-opacity:1;" stroke-width="8" stroke-linecap="round" stroke-linejoin="round"/>
<path d="M425.33 375.698L425.329 351.136" stroke="white" stroke-opacity="0.3" style="stroke:white;stroke-opacity:0.3;" stroke-width="8" stroke-linecap="round" stroke-linejoin="round"/>
<path d="M440.084 375.698L448.311 361.451" stroke="white" stroke-opacity="0.3" style="stroke:white;stroke-opacity:0.3;" stroke-width="8" stroke-linecap="round" stroke-linejoin="round"/>
<path d="M410.572 375.698L402.346 361.451" stroke="white" stroke-opacity="0.3" style="stroke:white;stroke-opacity:0.3;" stroke-width="8" stroke-linecap="round" stroke-linejoin="round"/>
<path fill-rule="evenodd" clip-rule="evenodd" d="M405.501 483.457C389.047 483.457 372.006 470.641 367.44 454.833C362.874 439.024 372.512 426.208 388.967 426.208C405.422 426.208 422.462 439.024 427.028 454.833C429.229 462.451 428.13 469.374 424.56 474.503L419.999 458.71C419.611 457.368 418.293 456.517 416.91 456.716C415.527 456.916 414.503 458.104 414.511 459.502C414.528 462.783 413.351 465.489 411.375 467.382C409.394 469.282 406.426 470.534 402.578 470.534C397.928 470.534 393.042 468.69 388.937 465.577C384.834 462.465 381.703 458.229 380.392 453.69C379.091 449.184 379.857 445.4 381.789 442.793C383.717 440.19 387.072 438.4 391.68 438.4C398.974 438.4 406.755 442.944 411.129 449.466C411.431 449.916 411.715 450.373 411.981 450.837C412.749 452.179 414.459 452.644 415.8 451.876C417.142 451.108 417.607 449.398 416.839 448.057C416.506 447.475 416.152 446.905 415.778 446.347C410.514 438.499 401.093 432.802 391.68 432.802C385.56 432.802 380.422 435.235 377.291 439.461C374.164 443.681 373.306 449.33 375.014 455.244C376.713 461.124 380.655 466.321 385.555 470.037C390.453 473.752 396.499 476.132 402.578 476.132C407.669 476.132 412.088 474.452 415.248 471.424C415.973 470.73 416.622 469.973 417.191 469.163L420.059 479.094C416.274 481.858 411.313 483.457 405.501 483.457ZM385.565 451.211C386.285 453.707 388.977 455.731 391.572 455.731C394.168 455.731 395.69 453.707 394.969 451.211C394.248 448.715 391.558 446.693 388.962 446.693C386.366 446.693 384.844 448.717 385.565 451.211ZM403.431 455.731C400.833 455.731 398.141 453.707 397.421 451.211C396.7 448.717 398.222 446.693 400.82 446.693C403.418 446.693 406.109 448.715 406.83 451.211C407.55 453.707 406.028 455.731 403.431 455.731Z" fill="#7B7BAC" style="fill:#7B7BAC;fill:color(display-p3 0.4824 0.4824 0.6745);fill-opacity:1;"/>
<rect x="527.289" y="4.27832" width="324.553" height="204.981" rx="8" fill="white" fill-opacity="0.75" style="fill:white;fill-opacity:0.75;"/>
<path d="M701.71 107.428C701.71 107.428 719.948 76.6771 739.135 66.8456C764.49 53.8531 785.567 77.25 812.089 66.8456C829.859 59.8748 851.842 38.405 851.842 38.405V209.26H527.289C527.289 209.26 547.7 170.392 571.381 160.407C599.657 148.485 620.576 181.56 649.281 170.712C679.302 159.366 701.71 107.428 701.71 107.428Z" fill="#BCBBFF" fill-opacity="0.4" style="fill:#BCBBFF;fill:color(display-p3 0.7373 0.7333 1.0000);fill-opacity:0.4;"/>
<path d="M532.861 206.247C546.615 183.096 564.784 153.413 593.575 156.544C608.852 157.568 627.782 171.527 643.16 169.781C683.88 164.676 699.052 97.4458 732.794 72.9097C760.141 50.3281 789.913 76.5526 819.886 62.6811C833.038 56.5708 841.658 44.5136 851.842 33.811" stroke="#020075" stroke-opacity="0.4" style="stroke:#020075;stroke:color(display-p3 0.0067 0.0000 0.4578);stroke-opacity:0.4;" stroke-width="8" stroke-linecap="round" stroke-linejoin="round"/>
<rect x="527.289" y="4.27832" width="324.553" height="204.981" rx="8" stroke="black" style="stroke:black;stroke-opacity:1;" stroke-width="8" stroke-linecap="round" stroke-linejoin="round"/>
<path d="M423.825 311.479C420.005 309.909 401.525 303.739 411.345 299.849C415.055 298.519 422.225 298.179 429.515 297.489C444.135 296.019 485.685 290.369 485.775 271.619C484.745 257.879 466.505 247.689 455.595 240.119C438.825 229.289 422.885 213.979 429.905 193.479C437.075 173.029 455.155 165.709 475.495 162.919" stroke="white" stroke-opacity="0.3" style="stroke:white;stroke-opacity:0.3;" stroke-width="8" stroke-linecap="round" stroke-linejoin="round"/>
</svg>
