<svg width="796" height="461" viewBox="0 0 796 461" fill="none" xmlns="http://www.w3.org/2000/svg">
<path d="M323.841 327.889C323.841 327.889 331.126 317.017 331.344 309.842C331.619 300.757 337.962 288.336 337.962 288.336C341.826 292.029 345.931 295.473 349.354 299.647C352.779 303.828 355.532 308.888 356.063 314.457C356.586 320.022 354.524 326.084 350.126 329.034C345.837 331.907 323.841 327.889 323.841 327.889Z" fill="white" fill-opacity="0.75" style="fill:white;fill-opacity:0.75;"/>
<path d="M337.613 330.044C341.841 331.152 346.675 331.345 350.126 329.034C354.523 326.084 356.585 320.021 356.062 314.457C355.531 308.887 352.779 303.828 349.354 299.647C346.977 296.746 342.914 293.582 338.85 289.179" stroke="black" style="stroke:black;stroke-opacity:1;" stroke-width="8" stroke-linecap="round" stroke-linejoin="round"/>
<path d="M107.926 246.586C107.926 246.586 101.382 250.663 97.9342 251.592C94.4765 252.519 90.7818 252.978 87.8297 254.993C82.8534 258.38 81.434 265.185 81.9808 271.181C82.7247 279.3 86.3555 287.116 92.0673 292.922C95.7352 296.659 100.27 299.634 103.048 304.064C106.723 309.935 106.699 317.289 107.926 324.109C110.48 338.377 119.425 351.592 132.235 358.379C145.663 365.486 162.1 365.149 176.575 360.507C177.582 360.187 178.584 359.845 179.573 359.478L179.583 359.481C184.931 357.601 191.453 361.854 195.239 366.078C199.037 370.294 201.495 375.57 205.224 379.851C213.646 389.531 228.645 392.784 240.32 387.464C243.761 385.902 246.933 383.687 250.608 382.798C254.271 381.916 258.794 382.848 260.537 386.194C261.4 387.843 261.48 389.863 262.529 391.396C265.607 395.865 272.576 392.38 276.427 388.557C304.811 360.404 324.995 324.95 337.017 286.729C343.985 264.547 348.209 241.442 349.69 218.297C349.949 214.318 350.127 210.329 350.204 206.332C350.72 182.152 347.909 157.794 339.085 135.356C328.794 109.201 309.646 85.8085 283.968 74.3833C258.29 62.958 226.008 65.1681 204.465 83.2071C188.872 96.2764 180.121 116.066 176.578 136.091C173.82 151.637 169.425 183.263 169.425 183.263L154.936 210.094L138.837 225.925L118.177 241.219L107.926 246.586Z" fill="white" fill-opacity="0.75" style="fill:white;fill-opacity:0.75;"/>
<path d="M92.6822 253.157C97.5396 250.638 103.973 249.618 106.802 245.241C106.835 245.271 106.857 245.308 106.878 245.345C109.446 248.393 125.599 238.044 125.599 238.044C125.599 238.044 107.855 253.482 104.69 264.625C102.086 273.79 102.47 278.835 108.203 285.413C112.193 289.992 119.198 290.74 123.621 294.907C128.893 299.881 129.052 308.133 128.199 315.338C127.348 322.533 125.935 330.24 129.178 336.72C133.163 344.682 143.004 348.023 151.914 347.843C160.824 347.663 169.449 344.798 178.296 343.814C187.149 342.842 197.074 344.208 203.034 350.826C209.408 357.907 210.038 369.619 218.116 374.672C224.482 378.655 232.757 376.711 239.906 374.371C247.043 372.039 254.943 369.445 261.833 372.441C267.249 374.792 271.255 380.359 277.115 381.091C281.172 381.598 285.221 379.546 288.084 376.627C290.332 374.341 293.385 372.261 295.497 369.71C290.197 377.163 282.828 382.756 276.695 388.608C273.968 391.211 270.664 393.846 266.907 393.533C262.752 393.196 259.522 388.562 260.64 384.544C252.378 383.925 245.241 386.568 237.94 388.276C230.639 389.985 222.693 390.703 215.868 387.58C202.451 381.438 197.281 362.443 182.906 359.14C169.323 365.863 152.883 366.79 138.941 361.139C124.998 355.487 113.83 343.385 109.319 329.038C106.75 320.854 106.211 311.972 102.219 304.38C96.5548 293.607 84.3825 286.256 82.2602 274.279C80.7885 266.017 85.2234 257.038 92.6867 253.179L92.6822 253.157Z" fill="#BCBBFF" fill-opacity="0.4" style="fill:#BCBBFF;fill:color(display-p3 0.7373 0.7333 1.0000);fill-opacity:0.4;"/>
<path d="M179.583 359.491C184.934 357.602 191.456 361.855 195.242 366.079C199.04 370.295 201.498 375.571 205.227 379.852C213.649 389.532 228.648 392.785 240.322 387.465C243.764 385.903 246.935 383.688 250.611 382.799C254.274 381.917 258.797 382.849 260.54 386.195C261.403 387.844 261.483 389.864 262.531 391.397C265.61 395.866 272.579 392.381 276.43 388.558C304.814 360.405 324.998 324.951 337.02 286.73C343.988 264.548 348.212 241.443 349.693 218.298C349.951 214.319 350.13 210.33 350.207 206.333C350.723 182.153 347.911 157.795 339.088 135.357C328.797 109.202 309.649 85.8095 283.971 74.3843C258.293 62.959 226.011 65.1691 204.468 83.2081C188.874 96.2774 180.124 116.067 176.581 136.092C175.618 141.518 174.684 150.617 173.875 160.164C171.846 184.129 162.749 207.586 144.247 222.952C142.8 224.153 141.379 225.291 140.009 226.335C124.769 237.953 101.386 250.664 97.9376 251.594C94.4799 252.52 90.7851 252.98 87.8331 254.994C82.8568 258.382 81.4373 265.186 81.9841 271.182C82.7281 279.301 86.3588 287.117 92.0707 292.923C95.7386 296.66 100.273 299.635 103.051 304.065C106.727 309.936 106.703 317.291 107.929 324.111C110.484 338.378 119.428 351.593 132.238 358.38C145.666 365.488 162.103 365.15 176.578 360.508C177.585 360.188 178.588 359.846 179.576 359.479" stroke="black" style="stroke:black;stroke-opacity:1;" stroke-width="8" stroke-linecap="round" stroke-linejoin="round"/>
<path d="M214.298 337.88C202.432 346.419 190.045 354.615 176.269 359.518" stroke="black" style="stroke:black;stroke-opacity:1;" stroke-width="6" stroke-linecap="round" stroke-linejoin="round"/>
<path d="M266.434 372.462C272.88 366.487 278.719 359.842 283.808 352.675" stroke="black" style="stroke:black;stroke-opacity:1;" stroke-width="6" stroke-linecap="round" stroke-linejoin="round"/>
<path d="M116.457 303.927C120.728 303.551 124.976 302.922 129.173 302.049" stroke="black" style="stroke:black;stroke-opacity:1;" stroke-width="6" stroke-linecap="round" stroke-linejoin="round"/>
<path d="M211.847 280.749C206.483 285.538 201.078 290.364 194.903 294.038C188.728 297.712 181.644 300.214 174.463 299.919C169.568 299.719 164.634 298.071 160.76 295.121C158.961 293.748 157.391 292.086 156.159 290.152C150.976 282.004 152.922 270.967 157.933 262.711C162.945 254.454 170.531 248.143 177.29 241.241" stroke="black" style="stroke:black;stroke-opacity:1;" stroke-width="8" stroke-linecap="round" stroke-linejoin="round"/>
<path d="M202.556 52.2894C201.317 54.4517 201 57.2957 202.316 59.4112C203.632 61.5347 207.307 62.7408 209.201 61.1143L209.4 61.3291C212.706 58.3882 216.172 55.8263 219.682 53.8608C220.936 52.0781 221.317 49.7888 220.43 47.7935C219.466 45.6166 216.89 44.4989 214.51 44.6244C212.137 44.7494 209.939 45.8921 207.935 47.177C205.829 48.5247 203.803 50.1186 202.556 52.2894Z" fill="#E5E5FF" style="fill:#E5E5FF;fill:color(display-p3 0.8980 0.8980 1.0000);fill-opacity:1;"/>
<path d="M177.359 110.242C172.99 127.079 171.981 144.788 173.898 162.035C174.72 161.397 175.542 160.758 176.381 160.137C184.083 154.3 192.205 149.028 200.664 144.339L199.949 143.061C197.613 129.283 196.423 116.332 198.836 101.304C201.989 91.307 205.31 85.0304 211.252 77.0435L211.242 77.0403C194.54 86.786 180.553 100.114 177.359 110.242Z" fill="#BCBBFF" style="fill:#BCBBFF;fill:color(display-p3 0.7391 0.7337 1.0000);fill-opacity:1;"/>
<path d="M200.667 144.338C192.207 149.027 184.085 154.299 176.383 160.136L176.619 160.443C184.193 154.765 193.732 151.746 203.198 152.051C212.159 152.34 220.86 155.494 229.827 155.762C246.746 156.29 262.098 146.716 278.272 141.735C291.853 137.564 306.73 136.661 320.198 141.175C333.663 145.698 349.574 157.819 353.97 171.316C363.185 172.593 369.328 172.858 377.133 169.436C381.285 167.621 384.718 164.604 386.168 162.114C388.626 157.87 385.689 152.567 382.484 148.853C372.001 136.738 357.641 128.342 342.361 123.567C342.129 123.494 341.887 123.418 341.655 123.344C326.578 118.733 310.626 117.458 294.874 118.008C261.981 119.157 229.432 128.348 200.67 144.328L200.667 144.338Z" fill="#BCBBFF" style="fill:#BCBBFF;fill:color(display-p3 0.7391 0.7337 1.0000);fill-opacity:1;"/>
<path d="M211.253 77.0434C205.311 85.0303 201.99 91.307 198.837 101.304C196.424 116.332 197.614 129.283 199.95 143.061L200.666 144.339C229.428 128.359 261.977 119.168 294.87 118.019C310.622 117.469 326.574 118.744 341.651 123.355L341.724 123.124C335.949 112.239 331.905 99.4178 321.556 89.0185C301.229 69.7878 271.909 60.4851 244.26 64.54C239.055 65.3029 233.626 66.8147 228.215 68.8643C222.452 71.0466 216.702 73.8536 211.246 77.0301L211.257 77.0333L211.253 77.0434Z" fill="#E5E5FF" style="fill:#E5E5FF;fill:color(display-p3 0.8980 0.8980 1.0000);fill-opacity:1;"/>
<path d="M339.568 122.9C335.178 111.922 331.907 99.4176 321.558 89.0182C301.231 69.7875 271.911 60.4849 244.262 64.5397C239.057 65.3026 233.628 66.8144 228.217 68.864C222.454 71.0463 216.705 73.8533 211.249 77.0299C194.543 86.7856 183.038 101.796 178.818 115.178C173.585 131.768 171.984 144.788 173.902 162.035M339.568 122.9C324.491 118.289 310.624 117.469 294.872 118.019C261.979 119.168 229.43 128.358 200.668 144.339C192.208 149.028 184.086 154.3 176.384 160.136M339.568 122.9C339.8 122.973 339.336 122.827 339.568 122.9ZM339.568 122.9C354.848 127.675 374.992 136.468 383.077 145.838C387.495 150.957 388.278 157.137 386.166 162.125C384.712 165.557 380.881 168.333 376.73 170.148C368.925 173.57 360.564 173.665 351.35 172.387C346.953 158.89 333.661 145.709 320.196 141.185C306.728 136.672 291.851 137.575 278.27 141.746C262.095 146.727 246.744 156.3 229.825 155.773C220.857 155.504 212.157 152.35 203.196 152.061C193.73 151.757 183.958 154.459 176.384 160.136M173.902 162.035C174.723 161.396 175.545 160.758 176.384 160.136M173.902 162.035C174.383 161.632 175.875 160.519 176.384 160.136" stroke="black" style="stroke:black;stroke-opacity:1;" stroke-width="8" stroke-linecap="round" stroke-linejoin="round"/>
<path d="M219.684 53.8608C220.938 52.0781 221.319 49.7888 220.432 47.7935C219.468 45.6166 216.892 44.4989 214.512 44.6244C212.139 44.7494 209.941 45.8921 207.937 47.177C205.831 48.5247 203.805 50.1186 202.558 52.2894C201.319 54.4517 201.002 57.2957 202.318 59.4112C203.634 61.5347 207.308 62.7408 209.203 61.1143" stroke="black" style="stroke:black;stroke-opacity:1;" stroke-width="8" stroke-linecap="round" stroke-linejoin="round"/>
<path d="M217.384 74.8764C210.218 79.4227 204.966 86.1761 202.731 91.0257C199.667 97.6751 198.062 104.922 197.667 112.233C197.094 122.861 198.201 132.728 199.953 143.061" stroke="black" style="stroke:black;stroke-opacity:1;" stroke-width="6" stroke-linecap="round" stroke-linejoin="round"/>
<path d="M271.108 91.2139C271.126 93.055 272.633 94.5334 274.473 94.5155C276.312 94.4976 277.791 92.9902 277.773 91.149C277.755 89.3078 276.247 87.831 274.408 87.8489C272.568 87.8668 271.09 89.3743 271.108 91.2139Z" fill="#7B7BAC" style="fill:#7B7BAC;fill:color(display-p3 0.4837 0.4809 0.6755);fill-opacity:1;"/>
<path d="M279.51 91.1313C279.528 92.9725 281.035 94.4509 282.877 94.433C284.718 94.4151 286.196 92.9076 286.178 91.0664C286.16 89.2253 284.653 87.7485 282.812 87.7664C280.97 87.7843 279.492 89.2918 279.51 91.1313Z" fill="#7B7BAC" style="fill:#7B7BAC;fill:color(display-p3 0.4837 0.4809 0.6755);fill-opacity:1;"/>
<path d="M291.527 88.5771C289.53 83.2957 284.446 79.5677 278.526 79.6253C270.923 79.6993 264.819 85.9901 264.894 93.6762C264.969 101.362 271.193 107.533 278.797 107.459C285.132 107.398 290.426 103.02 291.972 97.116L292.072 107.33" stroke="#7B7BAC" style="stroke:#7B7BAC;stroke:color(display-p3 0.4837 0.4809 0.6755);stroke-opacity:1;" stroke-width="5" stroke-linecap="round" stroke-linejoin="round"/>
<ellipse cx="103.381" cy="9.19141" rx="103.381" ry="9.19141" transform="matrix(-1 0 0 1 306.501 422.603)" fill="black" fill-opacity="0.15" style="fill:black;fill-opacity:0.15;"/>
<ellipse cx="7.82892" cy="5.74904" rx="7.82892" ry="5.74904" transform="matrix(-0.964939 -0.262475 -0.262475 0.964939 340.476 213.688)" fill="#BCBBFF" fill-opacity="0.4" style="fill:#BCBBFF;fill:color(display-p3 0.7373 0.7333 1.0000);fill-opacity:0.4;"/>
<ellipse cx="10.1032" cy="7.4608" rx="10.1032" ry="7.4608" transform="matrix(-0.981317 0.192399 0.192399 0.981317 246.44 205.735)" fill="#BCBBFF" fill-opacity="0.4" style="fill:#BCBBFF;fill:color(display-p3 0.7373 0.7333 1.0000);fill-opacity:0.4;"/>
<path d="M272.181 201.3C270.785 199.205 268.661 197.669 266.088 197.562C263.509 197.449 261.277 198.804 259.731 200.776C258.182 202.751 257.22 205.448 257.108 208.39L257.108 208.392C257.001 211.341 257.762 214.11 259.16 216.21C260.556 218.306 262.678 219.844 265.25 219.957L265.253 219.957C267.831 220.065 270.063 218.711 271.609 216.738C273.158 214.763 274.12 212.066 274.233 209.12L274.233 209.117C274.341 206.169 273.579 203.399 272.181 201.3Z" fill="black" style="fill:black;fill-opacity:1;"/>
<path d="M318.258 201.721C316.962 199.692 314.966 198.191 312.521 198.124C310.074 198.056 307.968 199.44 306.522 201.394C305.073 203.352 304.176 206.001 304.074 208.873C303.966 211.748 304.664 214.443 305.964 216.479C307.26 218.51 309.256 220.01 311.701 220.078C314.15 220.146 316.256 218.758 317.702 216.802C319.152 214.841 320.049 212.191 320.151 209.318C320.258 206.447 319.558 203.756 318.258 201.721Z" fill="black" style="fill:black;fill-opacity:1;"/>
<path d="M492.258 409.125C488.208 401.145 484.478 393.045 481.218 384.805C474.778 368.545 470.168 351.735 468.558 334.135C466.138 307.625 470.598 280.095 483.898 257.035C497.188 233.975 519.808 215.835 545.908 210.595C572.008 205.355 601.118 214.175 617.948 234.805C629.008 248.375 634.158 265.495 638.148 282.705C643.688 275.015 649.308 266.755 657.048 261.265C664.778 255.785 674.828 252.775 683.908 255.505C692.988 258.235 700.168 267.825 698.188 277.095C712.398 268.115 732.038 268.175 745.738 277.725C759.448 287.275 766.298 305.675 762.178 321.865C759.698 331.595 753.688 341.675 757.518 350.955C762.758 363.615 782.618 364.965 787.538 377.755C790.708 386.005 786.088 394.935 783.668 403.435C781.258 411.945 783.188 424.885 791.898 426.405L498.768 430.675C496.578 428.635 494.848 426.215 493.648 423.605C491.488 418.975 490.948 413.765 492.258 409.125Z" fill="white" fill-opacity="0.75" style="fill:white;fill-opacity:0.75;"/>
<path d="M481.043 309.118C466.095 338.156 490.112 370.812 503.376 392.783L539.266 370.812L559.231 365.594L578.454 367.3C578.454 367.3 602.987 356.78 598.498 343.198C594.009 329.616 578.454 338.882 572.95 332.306C567.446 325.729 572.7 295.653 556.933 282.884C530.838 261.751 495.396 281.237 481.043 309.118Z" fill="white" fill-opacity="0.4" style="fill:white;fill-opacity:0.4;"/>
<path d="M503.24 398.945L514.617 430.493H559.353C559.353 430.493 583.36 432.406 580.22 422.905C577.08 413.404 566.199 419.886 562.349 415.286C558.499 410.686 562.174 389.648 551.146 380.716C532.892 365.934 503.24 398.945 503.24 398.945Z" fill="white" fill-opacity="0.4" style="fill:white;fill-opacity:0.4;"/>
<path d="M493.647 423.605L457.007 423.445C446.947 399.015 468.187 392.155 481.217 384.805C484.477 393.045 488.207 401.145 492.257 409.125C490.947 413.765 491.487 418.975 493.647 423.605Z" fill="white" fill-opacity="0.75" style="fill:white;fill-opacity:0.75;"/>
<path d="M526.946 375.515C516.276 380.855 505.926 387.785 499.636 397.915C493.346 408.055 492.036 421.985 498.916 432.685C594.866 427.335 691.017 425.475 787.107 427.095C780.187 421.745 781.047 411.105 783.557 402.735C786.067 394.365 789.516 385.125 785.716 377.245C780.276 365.975 763.457 364.665 757.107 353.895C752.257 345.665 755.336 335.255 758.346 326.195C761.366 317.135 764.017 306.465 758.577 298.625C765.097 307.165 760.517 319.455 755.117 328.745C749.717 338.035 743.417 348.785 747.267 358.815C750.457 367.155 759.587 371.605 764.527 379.035C771.127 388.965 768.267 403.955 758.767 411.925C675.037 415.815 591.166 416.395 507.386 413.655C505.006 413.575 502.396 413.405 500.666 411.775C497.716 408.995 499.156 404.065 501.146 400.525C507.016 390.115 516.006 381.495 526.926 375.515H526.946Z" fill="#BCBBFF" fill-opacity="0.4" style="fill:#BCBBFF;fill:color(display-p3 0.7373 0.7333 1.0000);fill-opacity:0.4;"/>
<path d="M468.447 421.95C473.808 420.554 478.553 416.931 481.308 412.127C484.062 407.323 484.805 401.398 483.305 396.066C488.25 403.165 491.086 411.711 491.361 420.361C491.391 421.223 491.361 422.158 490.826 422.826C490.136 423.68 488.881 423.769 487.775 423.777C481.1 423.866 474.424 423.948 468.447 421.95Z" fill="#BCBBFF" fill-opacity="0.4" style="fill:#BCBBFF;fill:color(display-p3 0.7373 0.7333 1.0000);fill-opacity:0.4;"/>
<path d="M760.87 326.025C766.82 310.165 758.75 295.397 745.448 284.125C731.212 272.062 710.108 270.685 698.188 277.095" stroke="#BCBBFF" stroke-opacity="0.4" style="stroke:#BCBBFF;stroke:color(display-p3 0.7373 0.7333 1.0000);stroke-opacity:0.4;" stroke-width="8" stroke-linecap="round" stroke-linejoin="round"/>
<path d="M640.328 292.555C633.698 264.175 620.948 241.515 600.568 226.965C578.008 210.865 546.188 210.785 521.658 223.695C497.128 236.595 479.548 261.955 471.578 288.495" stroke="#BCBBFF" stroke-opacity="0.4" style="stroke:#BCBBFF;stroke:color(display-p3 0.7373 0.7333 1.0000);stroke-opacity:0.4;" stroke-width="8" stroke-linecap="round" stroke-linejoin="round"/>
<path d="M576.687 366.004C550.707 363.674 523.897 372.884 504.827 390.684C499.317 395.824 494.307 401.874 492.257 409.124C490.947 413.764 491.487 418.974 493.647 423.604V423.604C496.005 428.734 501.906 430.674 507.552 430.674H645.135H791.502C783.272 430.674 781.257 411.944 783.667 403.434C786.087 394.934 790.707 386.004 787.537 377.754C782.617 364.964 762.757 363.614 757.517 350.954C753.687 341.674 759.697 331.594 762.177 321.864C766.297 305.674 759.447 287.274 745.737 277.724C732.037 268.174 712.397 268.114 698.187 277.094C700.167 267.824 692.987 258.234 683.907 255.504C674.827 252.774 664.777 255.784 657.047 261.264C649.307 266.754 643.687 275.014 638.147 282.704C638.137 282.704 638.137 282.704 638.137 282.704" stroke="black" style="stroke:black;stroke-opacity:1;" stroke-width="8" stroke-linecap="round" stroke-linejoin="round"/>
<path d="M690.177 288.495C679.447 298.115 666.897 305.685 653.387 310.695" stroke="black" style="stroke:black;stroke-opacity:1;" stroke-width="6" stroke-linecap="round" stroke-linejoin="round"/>
<path d="M771.589 364.913C759.101 360.079 747.428 357.774 734.078 357.774" stroke="black" style="stroke:black;stroke-opacity:1;" stroke-width="6" stroke-linecap="round" stroke-linejoin="round"/>
<path d="M766.626 412.094L720.656 412.094" stroke="black" style="stroke:black;stroke-opacity:1;" stroke-width="6" stroke-linecap="round" stroke-linejoin="round"/>
<path d="M640.328 292.555C639.618 289.285 638.908 285.995 638.148 282.705C634.158 265.495 629.008 248.375 617.948 234.805C601.118 214.175 572.008 205.355 545.908 210.595C519.808 215.835 497.188 233.975 483.898 257.035C470.598 280.095 466.138 307.625 468.558 334.135C470.168 351.735 474.778 368.545 481.218 384.805C484.478 393.045 488.208 401.145 492.258 409.125" stroke="black" style="stroke:black;stroke-opacity:1;" stroke-width="8" stroke-linecap="round" stroke-linejoin="round"/>
<path d="M481.217 384.805C470.248 390.992 453.46 396.946 454.427 413.251C454.811 419.723 461.239 423.605 467.722 423.605H493.647" stroke="black" style="stroke:black;stroke-opacity:1;" stroke-width="8" stroke-linecap="round" stroke-linejoin="round"/>
<path d="M501.968 337.965C501.868 336.735 501.568 335.525 501.078 334.395" stroke="black" style="stroke:black;stroke-opacity:1;" stroke-width="8" stroke-linecap="round" stroke-linejoin="round"/>
<path d="M501.967 337.975V337.965" stroke="black" style="stroke:black;stroke-opacity:1;" stroke-width="8" stroke-linecap="round" stroke-linejoin="round"/>
<ellipse cx="485.721" cy="346.544" rx="6.35279" ry="5.81744" transform="rotate(-3.25097 485.721 346.544)" fill="#BCBBFF" fill-opacity="0.4" style="fill:#BCBBFF;fill:color(display-p3 0.7373 0.7333 1.0000);fill-opacity:0.4;"/>
<ellipse cx="565.647" cy="343.168" rx="9.18965" ry="7.6325" transform="rotate(1.98161 565.647 343.168)" fill="#BCBBFF" fill-opacity="0.4" style="fill:#BCBBFF;fill:color(display-p3 0.7373 0.7333 1.0000);fill-opacity:0.4;"/>
<path d="M537.673 327.892C539.001 325.931 541.003 324.512 543.406 324.456C545.816 324.393 547.884 325.717 549.304 327.613C550.726 329.512 551.593 332.085 551.663 334.875L551.663 334.878C551.729 337.674 550.986 340.286 549.656 342.252C548.328 344.215 546.328 345.636 543.926 345.698L543.923 345.698C541.514 345.755 539.447 344.433 538.026 342.536C536.603 340.637 535.737 338.064 535.665 335.269L535.665 335.266C535.6 332.47 536.343 329.858 537.673 327.892Z" fill="black" style="fill:black;fill-opacity:1;"/>
<path d="M497.064 328.366C498.474 326.661 500.441 325.545 502.629 325.825C504.82 326.103 506.523 327.684 507.567 329.702C508.614 331.725 509.081 334.312 508.812 336.996C508.548 339.683 507.587 342.09 506.174 343.801C504.763 345.507 502.796 346.623 500.608 346.344C498.416 346.065 496.712 344.481 495.669 342.461C494.622 340.436 494.155 337.847 494.424 335.163C494.688 332.479 495.65 330.075 497.064 328.366Z" fill="black" style="fill:black;fill-opacity:1;"/>
<path d="M506.315 408.735L513.647 429.656C513.647 429.656 510.065 430.675 507.095 430.675H327.495L279.695 310.515H467.755L498.165 387.985L506.315 408.735Z" fill="white" style="fill:white;fill-opacity:1;"/>
<path d="M467.071 309.91L327.422 429.854H514.998L508.875 411.424L467.071 309.91Z" fill="#BCBBFF" fill-opacity="0.4" style="fill:#BCBBFF;fill:color(display-p3 0.7373 0.7333 1.0000);fill-opacity:0.4;"/>
<path d="M467.755 310.515L514.664 430.675H327.495L279.695 310.515H467.755Z" stroke="black" style="stroke:black;stroke-opacity:1;" stroke-width="8" stroke-linecap="round" stroke-linejoin="round"/>
<path d="M425.275 291.46L425.275 266.898" stroke="white" stroke-opacity="0.3" style="stroke:white;stroke-opacity:0.3;" stroke-width="8" stroke-linecap="round" stroke-linejoin="round"/>
<path d="M440.03 291.46L448.256 277.213" stroke="white" stroke-opacity="0.3" style="stroke:white;stroke-opacity:0.3;" stroke-width="8" stroke-linecap="round" stroke-linejoin="round"/>
<path d="M410.517 291.46L402.291 277.213" stroke="white" stroke-opacity="0.3" style="stroke:white;stroke-opacity:0.3;" stroke-width="8" stroke-linecap="round" stroke-linejoin="round"/>
<path fill-rule="evenodd" clip-rule="evenodd" d="M405.447 399.219C388.992 399.219 371.951 386.403 367.385 370.595C362.82 354.786 372.457 341.971 388.912 341.971C405.367 341.971 422.408 354.786 426.974 370.595C429.174 378.213 428.076 385.136 424.505 390.265L419.944 374.472C419.556 373.13 418.238 372.279 416.855 372.479C415.473 372.678 414.449 373.867 414.456 375.264C414.474 378.545 413.296 381.251 411.321 383.145C409.339 385.044 406.371 386.296 402.523 386.296C397.874 386.296 392.987 384.452 388.882 381.339C384.779 378.227 381.648 373.991 380.337 369.452C379.036 364.947 379.802 361.163 381.734 358.555C383.662 355.953 387.017 354.162 391.626 354.162C398.919 354.162 406.7 358.706 411.074 365.228C411.376 365.678 411.661 366.135 411.926 366.6C412.694 367.941 414.404 368.406 415.746 367.639C417.087 366.871 417.552 365.161 416.784 363.819C416.452 363.237 416.097 362.667 415.723 362.11C410.459 354.261 401.039 348.564 391.626 348.564C385.506 348.564 380.367 350.997 377.236 355.223C374.11 359.443 373.252 365.092 374.96 371.006C376.658 376.887 380.6 382.083 385.5 385.799C390.398 389.514 396.445 391.894 402.523 391.894C407.614 391.894 412.034 390.214 415.194 387.186C415.918 386.492 416.567 385.735 417.137 384.925L420.005 394.856C416.219 397.62 411.258 399.219 405.447 399.219ZM385.51 366.973C386.231 369.469 388.922 371.493 391.517 371.493C394.113 371.493 395.635 369.469 394.914 366.973C394.193 364.477 391.503 362.455 388.907 362.455C386.312 362.455 384.79 364.479 385.51 366.973ZM403.376 371.493C400.778 371.493 398.087 369.469 397.366 366.973C396.646 364.479 398.168 362.455 400.766 362.455C403.364 362.455 406.054 364.477 406.775 366.973C407.496 369.469 405.974 371.493 403.376 371.493Z" fill="#7B7BAC" style="fill:#7B7BAC;fill:color(display-p3 0.4824 0.4824 0.6745);fill-opacity:1;"/>
</svg>
