<svg width="796" height="461" viewBox="0 0 796 461" fill="none" xmlns="http://www.w3.org/2000/svg">
<path d="M324.288 327.889C324.288 327.889 331.573 317.017 331.791 309.842C332.066 300.757 338.41 288.336 338.41 288.336C342.274 292.029 346.378 295.473 349.802 299.647C353.227 303.828 355.979 308.888 356.51 314.457C357.033 320.022 354.971 326.084 350.574 329.034C346.285 331.907 324.288 327.889 324.288 327.889Z" fill="white" fill-opacity="0.75" style="fill:white;fill-opacity:0.75;"/>
<path d="M338.06 330.044C342.289 331.152 347.122 331.345 350.573 329.034C354.971 326.084 357.032 320.021 356.509 314.457C355.979 308.887 353.226 303.828 349.801 299.647C347.424 296.746 343.361 293.582 339.297 289.179" stroke="black" style="stroke:black;stroke-opacity:1;" stroke-width="8" stroke-linecap="round" stroke-linejoin="round"/>
<path d="M108.373 246.586C108.373 246.586 101.829 250.663 98.3815 251.592C94.9238 252.519 91.229 252.978 88.277 254.993C83.3007 258.38 81.8812 265.185 82.428 271.181C83.172 279.3 86.8027 287.116 92.5146 292.922C96.1825 296.659 100.717 299.634 103.495 304.064C107.171 309.935 107.146 317.289 108.373 324.109C110.928 338.377 119.872 351.592 132.682 358.379C146.11 365.486 162.547 365.149 177.022 360.507C178.029 360.187 179.032 359.845 180.02 359.478L180.03 359.481C185.379 357.601 191.9 361.854 195.686 366.078C199.484 370.294 201.942 375.57 205.671 379.851C214.093 389.531 229.092 392.784 240.767 387.464C244.209 385.902 247.38 383.687 251.055 382.798C254.718 381.916 259.241 382.848 260.985 386.194C261.847 387.843 261.927 389.863 262.976 391.396C266.054 395.865 273.024 392.38 276.874 388.557C305.258 360.404 325.442 324.95 337.464 286.729C344.433 264.547 348.656 241.442 350.137 218.297C350.396 214.318 350.575 210.329 350.651 206.332C351.167 182.152 348.356 157.794 339.533 135.356C329.241 109.201 310.093 85.8085 284.416 74.3833C258.738 62.958 226.456 65.1681 204.913 83.2071C189.319 96.2764 180.569 116.066 177.025 136.091C174.268 151.637 169.873 183.263 169.873 183.263L155.384 210.094L139.284 225.925L118.624 241.219L108.373 246.586Z" fill="white" fill-opacity="0.75" style="fill:white;fill-opacity:0.75;"/>
<path d="M93.1295 253.157C97.9869 250.638 104.42 249.618 107.249 245.241C107.283 245.271 107.304 245.308 107.325 245.345C109.894 248.393 126.046 238.044 126.046 238.044C126.046 238.044 108.302 253.482 105.137 264.625C102.534 273.79 102.917 278.835 108.65 285.413C112.641 289.992 119.646 290.74 124.068 294.907C129.34 299.881 129.5 308.133 128.646 315.338C127.795 322.533 126.382 330.24 129.625 336.72C133.61 344.682 143.451 348.023 152.361 347.843C161.271 347.663 169.897 344.798 178.743 343.814C187.596 342.842 197.521 344.208 203.481 350.826C209.855 357.907 210.486 369.619 218.563 374.672C224.929 378.655 233.204 376.711 240.353 374.371C247.49 372.039 255.391 369.445 262.28 372.441C267.696 374.792 271.702 380.359 277.562 381.091C281.619 381.598 285.668 379.546 288.531 376.627C290.779 374.341 293.832 372.261 295.944 369.71C290.644 377.163 283.276 382.756 277.142 388.608C274.416 391.211 271.111 393.846 267.354 393.533C263.2 393.196 259.969 388.562 261.087 384.544C252.826 383.925 245.688 386.568 238.387 388.276C231.086 389.985 223.14 390.703 216.316 387.58C202.898 381.438 197.728 362.443 183.353 359.14C169.77 365.863 153.33 366.79 139.388 361.139C125.445 355.487 114.277 343.385 109.767 329.038C107.197 320.854 106.658 311.972 102.667 304.38C97.002 293.607 84.8298 286.256 82.7075 274.279C81.2358 266.017 85.6706 257.038 93.134 253.179L93.1295 253.157Z" fill="black" fill-opacity="0.15" style="fill:black;fill-opacity:0.15;"/>
<path d="M180.03 359.491C185.382 357.602 191.903 361.855 195.689 366.079C199.487 370.295 201.945 375.571 205.674 379.852C214.096 389.532 229.095 392.785 240.77 387.465C244.211 385.903 247.383 383.688 251.058 382.799C254.721 381.917 259.244 382.849 260.987 386.195C261.85 387.844 261.93 389.864 262.979 391.397C266.057 395.866 273.026 392.381 276.877 388.558C305.261 360.405 325.445 324.951 337.467 286.73C344.435 264.548 348.659 241.443 350.14 218.298C350.399 214.319 350.577 210.33 350.654 206.333C351.17 182.153 348.359 157.795 339.535 135.357C329.244 109.202 310.096 85.8095 284.418 74.3843C258.74 62.959 226.458 65.1691 204.916 83.2081C189.322 96.2774 180.572 116.067 177.028 136.092C176.065 141.518 175.131 150.617 174.322 160.164C172.293 184.129 163.196 207.586 144.694 222.952C143.247 224.153 141.826 225.291 140.457 226.335C125.216 237.953 101.833 250.664 98.3848 251.594C94.9272 252.52 91.2324 252.98 88.2804 254.994C83.3041 258.382 81.8846 265.186 82.4314 271.182C83.1753 279.301 86.8061 287.117 92.518 292.923C96.1858 296.66 100.72 299.635 103.498 304.065C107.174 309.936 107.15 317.291 108.376 324.111C110.931 338.378 119.875 351.593 132.685 358.38C146.113 365.488 162.551 365.15 177.025 360.508C178.032 360.188 179.035 359.846 180.024 359.479" stroke="black" style="stroke:black;stroke-opacity:1;" stroke-width="8" stroke-linecap="round" stroke-linejoin="round"/>
<path d="M214.745 337.88C202.879 346.419 190.492 354.615 176.716 359.518" stroke="black" style="stroke:black;stroke-opacity:1;" stroke-width="6" stroke-linecap="round" stroke-linejoin="round"/>
<path d="M266.881 372.462C273.328 366.487 279.166 359.842 284.255 352.675" stroke="black" style="stroke:black;stroke-opacity:1;" stroke-width="6" stroke-linecap="round" stroke-linejoin="round"/>
<path d="M116.904 303.927C121.175 303.551 125.423 302.922 129.62 302.049" stroke="black" style="stroke:black;stroke-opacity:1;" stroke-width="6" stroke-linecap="round" stroke-linejoin="round"/>
<path d="M212.294 280.749C206.93 285.538 201.525 290.364 195.35 294.038C189.175 297.712 182.092 300.214 174.91 299.919C170.015 299.719 165.081 298.071 161.208 295.121C159.408 293.748 157.838 292.086 156.607 290.152C151.423 282.004 153.369 270.967 158.381 262.711C163.392 254.454 170.978 248.143 177.738 241.241" stroke="black" style="stroke:black;stroke-opacity:1;" stroke-width="8" stroke-linecap="round" stroke-linejoin="round"/>
<path d="M203.003 52.2894C201.764 54.4517 201.447 57.2957 202.763 59.4112C204.08 61.5347 207.754 62.7408 209.648 61.1143L209.847 61.3291C213.153 58.3882 216.619 55.8263 220.129 53.8608C221.383 52.0781 221.765 49.7888 220.877 47.7935C219.914 45.6166 217.338 44.4989 214.957 44.6244C212.585 44.7494 210.386 45.8921 208.382 47.177C206.276 48.5247 204.25 50.1186 203.003 52.2894Z" fill="#F2F2F2" style="fill:#F2F2F2;fill:color(display-p3 0.9472 0.9472 0.9472);fill-opacity:1;"/>
<path d="M177.806 110.242C173.437 127.079 172.428 144.788 174.346 162.035C175.167 161.397 175.989 160.758 176.828 160.137C184.53 154.3 192.652 149.028 201.112 144.339L200.396 143.061C198.06 129.283 196.871 116.332 199.284 101.304C202.437 91.307 205.757 85.0304 211.7 77.0435L211.689 77.0403C194.987 86.786 181 100.114 177.806 110.242Z" fill="#D5D5D5" style="fill:#D5D5D5;fill:color(display-p3 0.8353 0.8353 0.8353);fill-opacity:1;"/>
<path d="M201.114 144.338C192.655 149.027 184.532 154.299 176.83 160.136L177.066 160.443C184.64 154.765 194.179 151.746 203.645 152.051C212.607 152.34 221.307 155.494 230.274 155.762C247.193 156.29 262.545 146.716 278.719 141.735C292.3 137.564 307.178 136.661 320.646 141.175C334.11 145.698 350.021 157.819 354.418 171.316C363.632 172.593 369.776 172.858 377.581 169.436C381.732 167.621 385.165 164.604 386.615 162.114C389.073 157.87 386.136 152.567 382.931 148.853C372.448 136.738 358.088 128.342 342.808 123.567C342.576 123.494 342.334 123.418 342.102 123.344C327.025 118.733 311.073 117.458 295.322 118.008C262.428 119.157 229.88 128.348 201.117 144.328L201.114 144.338Z" fill="#D5D5D5" style="fill:#D5D5D5;fill:color(display-p3 0.8353 0.8353 0.8353);fill-opacity:1;"/>
<path d="M211.701 77.0434C205.758 85.0303 202.438 91.307 199.285 101.304C196.872 116.332 198.061 129.283 200.397 143.061L201.113 144.339C229.875 128.359 262.424 119.168 295.317 118.019C311.069 117.469 327.021 118.744 342.098 123.355L342.171 123.124C336.397 112.239 332.352 99.4178 322.003 89.0185C301.676 69.7878 272.356 60.4851 244.707 64.54C239.502 65.3029 234.073 66.8147 228.662 68.8643C222.899 71.0466 217.15 73.8536 211.694 77.0301L211.704 77.0333L211.701 77.0434Z" fill="#F2F2F2" style="fill:#F2F2F2;fill:color(display-p3 0.9472 0.9472 0.9472);fill-opacity:1;"/>
<path d="M340.015 122.9C335.626 111.922 332.354 99.4176 322.006 89.0182C301.678 69.7875 272.358 60.4849 244.709 64.5397C239.505 65.3026 234.075 66.8144 228.664 68.864C222.901 71.0463 217.152 73.8533 211.696 77.0299C194.991 86.7856 183.486 101.796 179.265 115.178C174.033 131.768 172.431 144.788 174.349 162.035M340.015 122.9C324.938 118.289 311.071 117.469 295.319 118.019C262.426 119.168 229.877 128.358 201.115 144.339C192.656 149.028 184.533 154.3 176.831 160.136M340.015 122.9C340.247 122.973 339.783 122.827 340.015 122.9ZM340.015 122.9C355.295 127.675 375.439 136.468 383.525 145.838C387.942 150.957 388.726 157.137 386.613 162.125C385.16 165.557 381.328 168.333 377.177 170.148C369.372 173.57 361.011 173.665 351.797 172.387C347.4 158.89 334.108 145.709 320.643 141.185C307.175 136.672 292.298 137.575 278.717 141.746C262.543 146.727 247.191 156.3 230.272 155.773C221.305 155.504 212.604 152.35 203.643 152.061C194.177 151.757 184.406 154.459 176.831 160.136M174.349 162.035C175.171 161.396 175.992 160.758 176.831 160.136M174.349 162.035C174.83 161.632 176.323 160.519 176.831 160.136" stroke="black" style="stroke:black;stroke-opacity:1;" stroke-width="8" stroke-linecap="round" stroke-linejoin="round"/>
<path d="M220.131 53.8608C221.385 52.0781 221.767 49.7888 220.879 47.7935C219.916 45.6166 217.34 44.4989 214.959 44.6244C212.586 44.7494 210.388 45.8921 208.384 47.177C206.278 48.5247 204.252 50.1186 203.005 52.2894C201.766 54.4517 201.449 57.2957 202.765 59.4112C204.082 61.5347 207.756 62.7408 209.65 61.1143" stroke="black" style="stroke:black;stroke-opacity:1;" stroke-width="8" stroke-linecap="round" stroke-linejoin="round"/>
<path d="M217.831 74.8764C210.665 79.4227 205.414 86.1761 203.179 91.0257C200.115 97.6751 198.509 104.922 198.115 112.233C197.541 122.861 198.648 132.728 200.4 143.061" stroke="black" style="stroke:black;stroke-opacity:1;" stroke-width="6" stroke-linecap="round" stroke-linejoin="round"/>
<path d="M271.555 91.2139C271.573 93.055 273.08 94.5334 274.92 94.5155C276.759 94.4976 278.238 92.9902 278.22 91.149C278.202 89.3078 276.695 87.831 274.855 87.8489C273.015 87.8668 271.537 89.3743 271.555 91.2139Z" fill="#8D8D8D" style="fill:#8D8D8D;fill:color(display-p3 0.5513 0.5513 0.5513);fill-opacity:1;"/>
<path d="M279.957 91.1313C279.975 92.9725 281.483 94.4509 283.324 94.433C285.165 94.4151 286.643 92.9076 286.625 91.0664C286.608 89.2253 285.1 87.7485 283.259 87.7664C281.418 87.7843 279.939 89.2918 279.957 91.1313Z" fill="#8D8D8D" style="fill:#8D8D8D;fill:color(display-p3 0.5513 0.5513 0.5513);fill-opacity:1;"/>
<path d="M291.974 88.5771C289.977 83.2957 284.893 79.5677 278.973 79.6253C271.37 79.6993 265.267 85.9901 265.341 93.6762C265.416 101.362 271.641 107.533 279.244 107.459C285.579 107.398 290.873 103.02 292.42 97.116L292.519 107.33" stroke="#8D8D8D" style="stroke:#8D8D8D;stroke:color(display-p3 0.5513 0.5513 0.5513);stroke-opacity:1;" stroke-width="5" stroke-linecap="round" stroke-linejoin="round"/>
<ellipse cx="103.381" cy="9.19141" rx="103.381" ry="9.19141" transform="matrix(-1 0 0 1 306.948 422.603)" fill="black" fill-opacity="0.15" style="fill:black;fill-opacity:0.15;"/>
<ellipse cx="7.82892" cy="5.74904" rx="7.82892" ry="5.74904" transform="matrix(-0.964939 -0.262475 -0.262475 0.964939 340.923 213.688)" fill="black" fill-opacity="0.15" style="fill:black;fill-opacity:0.15;"/>
<ellipse cx="10.1032" cy="7.4608" rx="10.1032" ry="7.4608" transform="matrix(-0.981317 0.192399 0.192399 0.981317 246.888 205.735)" fill="black" fill-opacity="0.15" style="fill:black;fill-opacity:0.15;"/>
<path d="M272.628 201.3C271.232 199.205 269.108 197.669 266.535 197.562C263.956 197.449 261.724 198.804 260.178 200.776C258.63 202.751 257.668 205.448 257.556 208.39L257.555 208.392C257.448 211.341 258.209 214.11 259.607 216.21C261.003 218.306 263.126 219.844 265.697 219.957L265.701 219.957C268.279 220.065 270.51 218.711 272.057 216.738C273.605 214.763 274.567 212.066 274.68 209.12L274.68 209.117C274.788 206.169 274.027 203.399 272.628 201.3Z" fill="black" style="fill:black;fill-opacity:1;"/>
<path d="M318.706 201.721C317.409 199.692 315.413 198.191 312.969 198.124C310.521 198.056 308.416 199.44 306.969 201.394C305.52 203.352 304.624 206.001 304.522 208.873C304.413 211.748 305.112 214.443 306.411 216.479C307.708 218.51 309.703 220.01 312.148 220.078C314.597 220.146 316.703 218.758 318.149 216.802C319.599 214.841 320.496 212.191 320.598 209.318C320.705 206.447 320.006 203.756 318.706 201.721Z" fill="black" style="fill:black;fill-opacity:1;"/>
<path d="M492.705 409.125C488.655 401.145 484.925 393.045 481.665 384.805C475.225 368.545 470.615 351.735 469.005 334.135C466.585 307.625 471.045 280.095 484.345 257.035C497.635 233.975 520.255 215.835 546.355 210.595C572.455 205.355 601.565 214.175 618.395 234.805C629.455 248.375 634.605 265.495 638.595 282.705C644.135 275.015 649.755 266.755 657.495 261.265C665.225 255.785 675.275 252.775 684.355 255.505C693.435 258.235 700.615 267.825 698.635 277.095C712.845 268.115 732.485 268.175 746.185 277.725C759.895 287.275 766.745 305.675 762.625 321.865C760.145 331.595 754.135 341.675 757.965 350.955C763.205 363.615 783.065 364.965 787.985 377.755C791.155 386.005 786.535 394.935 784.115 403.435C781.705 411.945 783.635 424.885 792.345 426.405L499.215 430.675C497.025 428.635 495.295 426.215 494.095 423.605C491.935 418.975 491.395 413.765 492.705 409.125Z" fill="white" fill-opacity="0.75" style="fill:white;fill-opacity:0.75;"/>
<path d="M481.491 309.118C466.542 338.156 490.56 370.812 503.823 392.783L539.714 370.812L559.678 365.594L578.901 367.3C578.901 367.3 603.434 356.78 598.945 343.198C594.456 329.616 578.901 338.882 573.397 332.306C567.893 325.729 573.147 295.653 557.381 282.884C531.285 261.751 495.843 281.237 481.491 309.118Z" fill="white" fill-opacity="0.4" style="fill:white;fill-opacity:0.4;"/>
<path d="M503.688 398.945L515.065 430.493H559.8C559.8 430.493 583.807 432.406 580.667 422.905C577.527 413.404 566.646 419.886 562.796 415.286C558.946 410.686 562.622 389.648 551.593 380.716C533.339 365.934 503.688 398.945 503.688 398.945Z" fill="white" fill-opacity="0.4" style="fill:white;fill-opacity:0.4;"/>
<path d="M494.095 423.605L457.455 423.445C447.395 399.015 468.635 392.155 481.665 384.805C484.925 393.045 488.655 401.145 492.705 409.125C491.395 413.765 491.935 418.975 494.095 423.605Z" fill="white" fill-opacity="0.75" style="fill:white;fill-opacity:0.75;"/>
<path d="M527.394 375.515C516.724 380.855 506.374 387.785 500.084 397.915C493.794 408.055 492.484 421.985 499.364 432.685C595.314 427.335 691.464 425.475 787.554 427.095C780.634 421.745 781.494 411.105 784.004 402.735C786.514 394.365 789.964 385.125 786.164 377.245C780.724 365.975 763.904 364.665 757.554 353.895C752.704 345.665 755.784 335.255 758.794 326.195C761.814 317.135 764.464 306.465 759.024 298.625C765.544 307.165 760.964 319.455 755.564 328.745C750.164 338.035 743.864 348.785 747.714 358.815C750.904 367.155 760.034 371.605 764.974 379.035C771.574 388.965 768.714 403.955 759.214 411.925C675.484 415.815 591.614 416.395 507.834 413.655C505.454 413.575 502.844 413.405 501.114 411.775C498.164 408.995 499.604 404.065 501.594 400.525C507.464 390.115 516.454 381.495 527.374 375.515H527.394Z" fill="black" fill-opacity="0.15" style="fill:black;fill-opacity:0.15;"/>
<path d="M468.895 421.95C474.255 420.554 479 416.931 481.755 412.127C484.509 407.323 485.252 401.398 483.752 396.066C488.697 403.165 491.534 411.711 491.808 420.361C491.838 421.223 491.808 422.158 491.274 422.826C490.583 423.68 489.328 423.769 488.222 423.777C481.547 423.866 474.872 423.948 468.895 421.95Z" fill="#BCBBFF" fill-opacity="0.4" style="fill:#BCBBFF;fill:color(display-p3 0.7373 0.7333 1.0000);fill-opacity:0.4;"/>
<path d="M761.317 326.025C767.267 310.165 759.197 295.397 745.895 284.125C731.659 272.062 710.555 270.685 698.635 277.095" stroke="#BCBBFF" stroke-opacity="0.4" style="stroke:#BCBBFF;stroke:color(display-p3 0.7373 0.7333 1.0000);stroke-opacity:0.4;" stroke-width="8" stroke-linecap="round" stroke-linejoin="round"/>
<path d="M640.775 292.555C634.145 264.175 621.395 241.515 601.015 226.965C578.455 210.865 546.635 210.785 522.105 223.695C497.575 236.595 479.995 261.955 472.025 288.495" stroke="#BCBBFF" stroke-opacity="0.4" style="stroke:#BCBBFF;stroke:color(display-p3 0.7373 0.7333 1.0000);stroke-opacity:0.4;" stroke-width="8" stroke-linecap="round" stroke-linejoin="round"/>
<path d="M577.134 366.004C551.154 363.674 524.344 372.884 505.274 390.684C499.764 395.824 494.754 401.874 492.704 409.124C491.394 413.764 491.934 418.974 494.094 423.604V423.604C496.453 428.734 502.353 430.674 507.999 430.674H645.582H791.949C783.719 430.674 781.704 411.944 784.114 403.434C786.534 394.934 791.154 386.004 787.984 377.754C783.064 364.964 763.204 363.614 757.964 350.954C754.134 341.674 760.144 331.594 762.624 321.864C766.744 305.674 759.894 287.274 746.184 277.724C732.484 268.174 712.844 268.114 698.634 277.094C700.614 267.824 693.434 258.234 684.354 255.504C675.274 252.774 665.224 255.784 657.494 261.264C649.754 266.754 644.134 275.014 638.594 282.704C638.584 282.704 638.584 282.704 638.584 282.704" stroke="black" style="stroke:black;stroke-opacity:1;" stroke-width="8" stroke-linecap="round" stroke-linejoin="round"/>
<path d="M690.624 288.495C679.894 298.115 667.344 305.685 653.834 310.695" stroke="black" style="stroke:black;stroke-opacity:1;" stroke-width="6" stroke-linecap="round" stroke-linejoin="round"/>
<path d="M772.036 364.913C759.548 360.079 747.875 357.774 734.525 357.774" stroke="black" style="stroke:black;stroke-opacity:1;" stroke-width="6" stroke-linecap="round" stroke-linejoin="round"/>
<path d="M767.074 412.094L721.104 412.094" stroke="black" style="stroke:black;stroke-opacity:1;" stroke-width="6" stroke-linecap="round" stroke-linejoin="round"/>
<path d="M640.775 292.555C640.065 289.285 639.355 285.995 638.595 282.705C634.605 265.495 629.455 248.375 618.395 234.805C601.565 214.175 572.455 205.355 546.355 210.595C520.255 215.835 497.635 233.975 484.345 257.035C471.045 280.095 466.585 307.625 469.005 334.135C470.615 351.735 475.225 368.545 481.665 384.805C484.925 393.045 488.655 401.145 492.705 409.125" stroke="black" style="stroke:black;stroke-opacity:1;" stroke-width="8" stroke-linecap="round" stroke-linejoin="round"/>
<path d="M481.665 384.805C470.695 390.992 453.907 396.946 454.874 413.251C455.258 419.723 461.686 423.605 468.169 423.605H494.095" stroke="black" style="stroke:black;stroke-opacity:1;" stroke-width="8" stroke-linecap="round" stroke-linejoin="round"/>
<path d="M502.415 337.965C502.315 336.735 502.015 335.525 501.525 334.395" stroke="black" style="stroke:black;stroke-opacity:1;" stroke-width="8" stroke-linecap="round" stroke-linejoin="round"/>
<path d="M502.414 337.975V337.965" stroke="black" style="stroke:black;stroke-opacity:1;" stroke-width="8" stroke-linecap="round" stroke-linejoin="round"/>
<ellipse cx="486.169" cy="346.544" rx="6.35279" ry="5.81744" transform="rotate(-3.25097 486.169 346.544)" fill="black" fill-opacity="0.15" style="fill:black;fill-opacity:0.15;"/>
<ellipse cx="566.094" cy="343.168" rx="9.18965" ry="7.6325" transform="rotate(1.98161 566.094 343.168)" fill="black" fill-opacity="0.15" style="fill:black;fill-opacity:0.15;"/>
<path d="M538.121 327.892C539.449 325.931 541.45 324.512 543.853 324.456C546.263 324.393 548.331 325.717 549.751 327.613C551.174 329.512 552.04 332.085 552.11 334.875L552.111 334.878C552.176 337.674 551.433 340.286 550.103 342.252C548.776 344.215 546.775 345.636 544.373 345.698L544.37 345.698C541.962 345.755 539.894 344.433 538.473 342.536C537.05 340.637 536.184 338.064 536.113 335.269L536.113 335.266C536.047 332.47 536.79 329.858 538.121 327.892Z" fill="black" style="fill:black;fill-opacity:1;"/>
<path d="M497.511 328.366C498.921 326.661 500.889 325.545 503.077 325.825C505.267 326.103 506.97 327.684 508.015 329.702C509.061 331.725 509.528 334.312 509.259 336.996C508.996 339.683 508.035 342.09 506.621 343.801C505.21 345.507 503.243 346.623 501.055 346.344C498.863 346.065 497.16 344.481 496.116 342.461C495.069 340.436 494.602 337.847 494.871 335.163C495.135 332.479 496.097 330.075 497.511 328.366Z" fill="black" style="fill:black;fill-opacity:1;"/>
<path d="M506.763 408.735L514.094 429.656C514.094 429.656 510.513 430.675 507.543 430.675H327.943L280.143 310.515H468.203L498.613 387.985L506.763 408.735Z" fill="white" style="fill:white;fill-opacity:1;"/>
<path d="M467.516 309.91L327.868 429.854H515.443L509.32 411.424L467.516 309.91Z" fill="black" fill-opacity="0.15" style="fill:black;fill-opacity:0.15;"/>
<path d="M468.203 310.515L515.112 430.675H327.943L280.143 310.515H468.203Z" stroke="black" style="stroke:black;stroke-opacity:1;" stroke-width="8" stroke-linecap="round" stroke-linejoin="round"/>
<path d="M425.721 291.46L425.72 266.898" stroke="white" stroke-opacity="0.3" style="stroke:white;stroke-opacity:0.3;" stroke-width="8" stroke-linecap="round" stroke-linejoin="round"/>
<path d="M440.475 291.46L448.701 277.213" stroke="white" stroke-opacity="0.3" style="stroke:white;stroke-opacity:0.3;" stroke-width="8" stroke-linecap="round" stroke-linejoin="round"/>
<path d="M410.963 291.46L402.736 277.213" stroke="white" stroke-opacity="0.3" style="stroke:white;stroke-opacity:0.3;" stroke-width="8" stroke-linecap="round" stroke-linejoin="round"/>
<path fill-rule="evenodd" clip-rule="evenodd" d="M405.892 399.219C389.437 399.219 372.397 386.403 367.831 370.595C363.265 354.786 372.903 341.971 389.357 341.971C405.812 341.971 422.853 354.786 427.419 370.595C429.619 378.213 428.521 385.136 424.951 390.265L420.389 374.472C420.002 373.13 418.684 372.279 417.301 372.479C415.918 372.678 414.894 373.867 414.902 375.264C414.919 378.545 413.742 381.251 411.766 383.145C409.784 385.044 406.817 386.296 402.969 386.296C398.319 386.296 393.432 384.452 389.328 381.339C385.224 378.227 382.094 373.991 380.783 369.452C379.481 364.947 380.248 361.163 382.179 358.555C384.107 355.953 387.462 354.162 392.071 354.162C399.364 354.162 407.145 358.706 411.52 365.228C411.822 365.678 412.106 366.135 412.372 366.6C413.139 367.941 414.849 368.406 416.191 367.639C417.532 366.871 417.998 365.161 417.23 363.819C416.897 363.237 416.543 362.667 416.169 362.11C410.904 354.261 401.484 348.564 392.071 348.564C385.951 348.564 380.812 350.997 377.682 355.223C374.555 359.443 373.697 365.092 375.405 371.006C377.103 376.887 381.046 382.083 385.945 385.799C390.844 389.514 396.89 391.894 402.969 391.894C408.06 391.894 412.479 390.214 415.639 387.186C416.364 386.492 417.012 385.735 417.582 384.925L420.45 394.856C416.665 397.62 411.704 399.219 405.892 399.219ZM385.955 366.973C386.676 369.469 389.367 371.493 391.963 371.493C394.558 371.493 396.08 369.469 395.36 366.973C394.639 364.477 391.948 362.455 389.353 362.455C386.757 362.455 385.235 364.479 385.955 366.973ZM403.821 371.493C401.223 371.493 398.532 369.469 397.811 366.973C397.091 364.479 398.613 362.455 401.211 362.455C403.809 362.455 406.499 364.477 407.22 366.973C407.941 369.469 406.419 371.493 403.821 371.493Z" fill="#9F9F9F" fill-opacity="0.75" style="fill:#9F9F9F;fill:color(display-p3 0.6248 0.6248 0.6248);fill-opacity:0.75;"/>
</svg>
