<svg width="857" height="545" viewBox="0 0 857 545" fill="none" xmlns="http://www.w3.org/2000/svg">
<path d="M324.343 412.127C324.343 412.127 331.628 401.255 331.845 394.079C332.121 384.994 338.464 372.574 338.464 372.574C342.328 376.267 346.433 379.711 349.856 383.885C353.281 388.066 356.034 393.126 356.565 398.695C357.088 404.26 355.026 410.322 350.628 413.272C346.339 416.145 324.343 412.127 324.343 412.127Z" fill="white" fill-opacity="0.75" style="fill:white;fill-opacity:0.75;"/>
<path d="M338.114 414.282C342.343 415.39 347.177 415.584 350.627 413.272C355.025 410.322 357.087 404.26 356.564 398.695C356.033 393.126 353.281 388.066 349.856 383.885C347.479 380.984 343.416 377.821 339.352 373.418" stroke="black" style="stroke:black;stroke-opacity:1;" stroke-width="8" stroke-linecap="round" stroke-linejoin="round"/>
<path d="M108.428 330.823C108.428 330.823 101.884 334.901 98.4362 335.83C94.9785 336.757 91.2837 337.216 88.3317 339.231C83.3554 342.618 81.9359 349.423 82.4827 355.419C83.2267 363.538 86.8574 371.354 92.5693 377.16C96.2372 380.897 100.772 383.872 103.55 388.302C107.225 394.173 107.201 401.527 108.428 408.347C110.982 422.614 119.927 435.83 132.737 442.616C146.165 449.724 162.602 449.387 177.077 444.745C178.084 444.425 179.086 444.083 180.075 443.716L180.085 443.719C185.433 441.839 191.955 446.092 195.741 450.315C199.539 454.532 201.997 459.808 205.726 464.089C214.148 473.769 229.147 477.022 240.822 471.702C244.263 470.139 247.435 467.925 251.11 467.036C254.773 466.154 259.296 467.086 261.039 470.431C261.902 472.081 261.982 474.1 263.031 475.634C266.109 480.103 273.078 476.618 276.929 472.794C305.313 444.641 325.497 409.187 337.519 370.967C344.487 348.784 348.711 325.68 350.192 302.535C350.451 298.556 350.629 294.567 350.706 290.57C351.222 266.39 348.411 242.032 339.587 219.594C329.296 193.439 310.148 170.046 284.47 158.621C258.792 147.196 226.51 149.406 204.967 167.445C189.374 180.514 180.623 200.304 177.08 220.329C174.322 235.875 169.927 267.501 169.927 267.501L155.438 294.332L139.339 310.163L118.679 325.457L108.428 330.823Z" fill="white" fill-opacity="0.75" style="fill:white;fill-opacity:0.75;"/>
<path d="M93.1842 337.395C98.0415 334.876 104.475 333.857 107.304 329.48C107.337 329.509 107.359 329.546 107.38 329.583C109.948 332.631 126.101 322.282 126.101 322.282C126.101 322.282 108.357 337.72 105.192 348.863C102.588 358.028 102.972 363.073 108.705 369.651C112.695 374.23 119.7 374.978 124.123 379.145C129.395 384.119 129.554 392.372 128.701 399.576C127.85 406.771 126.437 414.478 129.68 420.958C133.665 428.921 143.506 432.262 152.416 432.082C161.326 431.902 169.951 429.036 178.797 428.052C187.651 427.081 197.575 428.446 203.536 435.064C209.91 442.145 210.54 453.857 218.618 458.91C224.984 462.893 233.259 460.949 240.408 458.61C247.545 456.277 255.445 453.684 262.335 456.679C267.751 459.031 271.756 464.597 277.617 465.329C281.674 465.836 285.723 463.784 288.586 460.866C290.834 458.58 293.887 456.499 295.999 453.949C290.699 461.401 283.33 466.994 277.197 472.846C274.47 475.449 271.166 478.084 267.409 477.771C263.254 477.434 260.024 472.8 261.142 468.782C252.88 468.163 245.743 470.806 238.442 472.515C231.141 474.223 223.195 474.941 216.37 471.818C202.953 465.676 197.783 446.681 183.408 443.378C169.825 450.101 153.385 451.028 139.443 445.377C125.5 439.726 114.332 427.623 109.821 413.277C107.252 405.093 106.713 396.21 102.721 388.619C97.0567 377.846 84.8845 370.495 82.7622 358.517C81.2905 350.255 85.7253 341.277 93.1886 337.417L93.1842 337.395Z" fill="black" fill-opacity="0.15" style="fill:black;fill-opacity:0.15;"/>
<path d="M180.085 443.729C185.436 441.84 191.958 446.093 195.744 450.316C199.542 454.533 202 459.809 205.729 464.09C214.151 473.77 229.15 477.023 240.824 471.703C244.266 470.14 247.437 467.926 251.113 467.037C254.776 466.155 259.299 467.087 261.042 470.432C261.905 472.082 261.985 474.101 263.033 475.635C266.112 480.104 273.081 476.619 276.932 472.796C305.316 444.642 325.5 409.188 337.521 370.968C344.49 348.785 348.714 325.681 350.195 302.536C350.453 298.557 350.632 294.568 350.709 290.571C351.225 266.391 348.413 242.033 339.59 219.595C329.299 193.44 310.151 170.047 284.473 158.622C258.795 147.197 226.513 149.407 204.97 167.446C189.376 180.515 180.626 200.305 177.083 220.33C176.12 225.756 175.186 234.855 174.377 244.402C172.347 268.367 163.251 291.824 144.749 307.189C143.302 308.391 141.881 309.529 140.511 310.573C125.271 322.19 101.888 334.902 98.4395 335.831C94.9819 336.758 91.2871 337.217 88.3351 339.232C83.3588 342.62 81.9393 349.424 82.4861 355.42C83.23 363.539 86.8608 371.355 92.5727 377.161C96.2405 380.898 100.775 383.873 103.553 388.303C107.229 394.174 107.204 401.529 108.431 408.348C110.986 422.616 119.93 435.831 132.74 442.618C146.168 449.725 162.605 449.388 177.08 444.746C178.087 444.426 179.09 444.084 180.078 443.717" stroke="black" style="stroke:black;stroke-opacity:1;" stroke-width="8" stroke-linecap="round" stroke-linejoin="round"/>
<path d="M214.8 422.119C202.934 430.657 190.547 438.854 176.771 443.757" stroke="black" style="stroke:black;stroke-opacity:1;" stroke-width="6" stroke-linecap="round" stroke-linejoin="round"/>
<path d="M266.936 456.7C273.382 450.725 279.221 444.08 284.31 436.913" stroke="black" style="stroke:black;stroke-opacity:1;" stroke-width="6" stroke-linecap="round" stroke-linejoin="round"/>
<path d="M116.959 388.165C121.23 387.789 125.478 387.16 129.675 386.287" stroke="black" style="stroke:black;stroke-opacity:1;" stroke-width="6" stroke-linecap="round" stroke-linejoin="round"/>
<path d="M212.349 364.986C206.985 369.776 201.58 374.602 195.405 378.276C189.23 381.95 182.146 384.452 174.965 384.157C170.07 383.957 165.136 382.308 161.262 379.359C159.463 377.986 157.893 376.324 156.661 374.39C151.478 366.241 153.424 355.205 158.435 346.948C163.447 338.692 171.033 332.38 177.792 325.478" stroke="black" style="stroke:black;stroke-opacity:1;" stroke-width="8" stroke-linecap="round" stroke-linejoin="round"/>
<path d="M203.058 136.527C201.819 138.689 201.502 141.533 202.818 143.649C204.134 145.773 207.808 146.979 209.703 145.352L209.902 145.567C213.208 142.626 216.674 140.064 220.184 138.099C221.438 136.316 221.819 134.027 220.932 132.031C219.968 129.854 217.392 128.737 215.012 128.862C212.639 128.987 210.441 130.13 208.437 131.415C206.331 132.762 204.305 134.356 203.058 136.527Z" fill="#F2F2F2" style="fill:#F2F2F2;fill:color(display-p3 0.9472 0.9472 0.9472);fill-opacity:1;"/>
<path d="M177.861 194.479C173.492 211.317 172.483 229.026 174.4 246.273C175.222 245.634 176.044 244.996 176.883 244.374C184.585 238.538 192.707 233.266 201.166 228.577L200.451 227.299C198.115 213.521 196.925 200.57 199.338 185.542C202.491 175.545 205.812 169.268 211.754 161.281L211.744 161.278C195.042 171.024 181.055 184.351 177.861 194.479Z" fill="#D5D5D5" style="fill:#D5D5D5;fill:color(display-p3 0.8353 0.8353 0.8353);fill-opacity:1;"/>
<path d="M201.169 228.576C192.709 233.265 184.587 238.537 176.885 244.373L177.12 244.68C184.695 239.003 194.234 235.984 203.7 236.288C212.661 236.577 221.362 239.731 230.329 240C247.248 240.528 262.6 230.954 278.774 225.973C292.355 221.802 307.232 220.899 320.7 225.412C334.165 229.936 350.076 242.057 354.472 255.554C363.687 256.831 369.83 257.096 377.635 253.674C381.787 251.859 385.22 248.842 386.67 246.352C389.128 242.108 386.191 236.805 382.986 233.091C372.502 220.976 358.143 212.58 342.862 207.805C342.631 207.732 342.389 207.655 342.157 207.582C327.08 202.971 311.128 201.696 295.376 202.246C262.483 203.395 229.934 212.586 201.172 228.566L201.169 228.576Z" fill="#D5D5D5" style="fill:#D5D5D5;fill:color(display-p3 0.8353 0.8353 0.8353);fill-opacity:1;"/>
<path d="M211.755 161.281C205.813 169.268 202.492 175.545 199.339 185.542C196.926 200.57 198.116 213.521 200.452 227.298L201.167 228.577C229.93 212.596 262.479 203.406 295.372 202.257C311.124 201.707 327.076 202.982 342.153 207.593L342.226 207.361C336.451 196.477 332.407 183.656 322.058 173.256C301.731 154.026 272.411 144.723 244.762 148.778C239.557 149.541 234.128 151.052 228.717 153.102C222.954 155.284 217.204 158.091 211.748 161.268L211.758 161.271L211.755 161.281Z" fill="#F2F2F2" style="fill:#F2F2F2;fill:color(display-p3 0.9472 0.9472 0.9472);fill-opacity:1;"/>
<path d="M340.07 207.138C335.68 196.16 332.409 183.655 322.06 173.256C301.733 154.025 272.413 144.723 244.764 148.777C239.559 149.54 234.13 151.052 228.719 153.102C222.956 155.284 217.207 158.091 211.751 161.268C195.045 171.023 183.54 186.033 179.32 199.416C174.087 216.005 172.486 229.026 174.404 246.272M340.07 207.138C324.993 202.526 311.126 201.707 295.374 202.257C262.481 203.405 229.932 212.596 201.17 228.577C192.71 233.266 184.588 238.538 176.886 244.374M340.07 207.138C340.302 207.211 339.838 207.064 340.07 207.138ZM340.07 207.138C355.35 211.912 375.493 220.706 383.579 230.076C387.996 235.195 388.78 241.375 386.668 246.363C385.214 249.795 381.383 252.57 377.231 254.386C369.427 257.807 361.066 257.902 351.852 256.625C347.455 243.128 334.163 229.947 320.698 225.423C307.23 220.909 292.353 221.813 278.772 225.983C262.597 230.965 247.246 240.538 230.327 240.011C221.359 239.742 212.659 236.588 203.698 236.299C194.232 235.995 184.46 238.697 176.886 244.374M174.404 246.272C175.225 245.634 176.047 244.996 176.886 244.374M174.404 246.272C174.885 245.87 176.377 244.757 176.886 244.374" stroke="black" style="stroke:black;stroke-opacity:1;" stroke-width="8" stroke-linecap="round" stroke-linejoin="round"/>
<path d="M220.186 138.099C221.44 136.316 221.821 134.027 220.934 132.031C219.97 129.854 217.394 128.737 215.014 128.862C212.641 128.987 210.443 130.13 208.439 131.415C206.333 132.762 204.307 134.356 203.06 136.527C201.821 138.689 201.504 141.533 202.82 143.649C204.136 145.773 207.81 146.979 209.705 145.352" stroke="black" style="stroke:black;stroke-opacity:1;" stroke-width="8" stroke-linecap="round" stroke-linejoin="round"/>
<path d="M217.886 159.114C210.72 163.661 205.468 170.414 203.233 175.263C200.169 181.913 198.564 189.16 198.169 196.471C197.596 207.098 198.703 216.966 200.454 227.299" stroke="black" style="stroke:black;stroke-opacity:1;" stroke-width="6" stroke-linecap="round" stroke-linejoin="round"/>
<path d="M271.61 175.452C271.627 177.293 273.135 178.771 274.975 178.753C276.814 178.735 278.292 177.228 278.275 175.387C278.257 173.546 276.749 172.069 274.91 172.087C273.07 172.105 271.592 173.612 271.61 175.452Z" fill="#8D8D8D" style="fill:#8D8D8D;fill:color(display-p3 0.5513 0.5513 0.5513);fill-opacity:1;"/>
<path d="M280.012 175.369C280.03 177.21 281.537 178.689 283.378 178.671C285.22 178.653 286.698 177.145 286.68 175.304C286.662 173.463 285.155 171.986 283.314 172.004C281.472 172.022 279.994 173.53 280.012 175.369Z" fill="#8D8D8D" style="fill:#8D8D8D;fill:color(display-p3 0.5513 0.5513 0.5513);fill-opacity:1;"/>
<path d="M292.029 172.815C290.032 167.534 284.948 163.806 279.028 163.863C271.425 163.937 265.321 170.228 265.396 177.914C265.471 185.6 271.695 191.771 279.299 191.697C285.634 191.635 290.928 187.258 292.474 181.354L292.574 191.568" stroke="#8D8D8D" style="stroke:#8D8D8D;stroke:color(display-p3 0.5513 0.5513 0.5513);stroke-opacity:1;" stroke-width="5" stroke-linecap="round" stroke-linejoin="round"/>
<ellipse cx="103.381" cy="9.19141" rx="103.381" ry="9.19141" transform="matrix(-1 0 0 1 307.003 506.84)" fill="black" fill-opacity="0.15" style="fill:black;fill-opacity:0.15;"/>
<ellipse cx="7.82892" cy="5.74904" rx="7.82892" ry="5.74904" transform="matrix(-0.964939 -0.262475 -0.262475 0.964939 340.978 297.926)" fill="black" fill-opacity="0.15" style="fill:black;fill-opacity:0.15;"/>
<ellipse cx="10.1032" cy="7.4608" rx="10.1032" ry="7.4608" transform="matrix(-0.981317 0.192399 0.192399 0.981317 246.942 289.973)" fill="black" fill-opacity="0.15" style="fill:black;fill-opacity:0.15;"/>
<path d="M272.683 285.538C271.287 283.443 269.163 281.907 266.59 281.8C264.01 281.687 261.778 283.042 260.233 285.014C258.684 286.989 257.722 289.686 257.61 292.627L257.61 292.63C257.503 295.578 258.264 298.348 259.662 300.448C261.057 302.544 263.18 304.082 265.752 304.195L265.755 304.195C268.333 304.302 270.565 302.949 272.111 300.976C273.66 299 274.622 296.304 274.735 293.358L274.735 293.355C274.843 290.406 274.081 287.636 272.683 285.538Z" fill="black" style="fill:black;fill-opacity:1;"/>
<path d="M318.76 285.96C317.464 283.93 315.468 282.43 313.023 282.363C310.576 282.294 308.47 283.678 307.024 285.632C305.575 287.59 304.678 290.239 304.576 293.111C304.468 295.986 305.166 298.681 306.466 300.717C307.762 302.748 309.758 304.249 312.203 304.316C314.652 304.384 316.758 302.996 318.204 301.04C319.654 299.08 320.551 296.429 320.653 293.556C320.76 290.686 320.06 287.994 318.76 285.96Z" fill="black" style="fill:black;fill-opacity:1;"/>
<path d="M492.76 493.363C488.71 485.383 484.98 477.283 481.72 469.043C475.28 452.783 470.67 435.973 469.06 418.373C466.64 391.863 471.1 364.333 484.4 341.273C497.69 318.213 520.31 300.073 546.41 294.833C572.51 289.593 601.62 298.413 618.45 319.043C629.51 332.613 634.66 349.733 638.65 366.943C644.19 359.253 649.81 350.993 657.55 345.503C665.28 340.023 675.33 337.013 684.41 339.743C693.49 342.473 700.67 352.063 698.69 361.333C712.9 352.353 732.54 352.413 746.24 361.963C759.95 371.513 766.8 389.913 762.68 406.103C760.2 415.833 754.19 425.913 758.02 435.193C763.26 447.853 783.12 449.203 788.04 461.993C791.21 470.243 786.59 479.173 784.17 487.673C781.76 496.183 783.69 509.123 792.4 510.643L499.27 514.913C497.08 512.873 495.35 510.453 494.15 507.843C491.99 503.213 491.45 498.003 492.76 493.363Z" fill="white" fill-opacity="0.75" style="fill:white;fill-opacity:0.75;"/>
<path d="M481.545 393.355C466.597 422.394 490.614 455.05 503.877 477.021L539.768 455.05L559.733 449.832L578.956 451.538C578.956 451.538 603.489 441.018 599 427.436C594.511 413.853 578.956 423.12 573.452 416.543C567.948 409.967 573.202 379.89 557.435 367.122C531.34 345.989 495.898 365.475 481.545 393.355Z" fill="white" fill-opacity="0.4" style="fill:white;fill-opacity:0.4;"/>
<path d="M503.742 483.183L515.119 514.731H559.855C559.855 514.731 583.862 516.643 580.722 507.143C577.582 497.642 566.701 504.124 562.851 499.524C559.001 494.924 562.676 473.885 551.648 464.954C533.394 450.172 503.742 483.183 503.742 483.183Z" fill="white" fill-opacity="0.4" style="fill:white;fill-opacity:0.4;"/>
<path d="M494.149 507.842L457.509 507.682C447.449 483.252 468.689 476.392 481.719 469.042C484.979 477.282 488.709 485.382 492.759 493.362C491.449 498.002 491.989 503.212 494.149 507.842Z" fill="white" fill-opacity="0.75" style="fill:white;fill-opacity:0.75;"/>
<path d="M527.448 459.753C516.778 465.093 506.428 472.023 500.138 482.153C493.848 492.293 492.538 506.223 499.418 516.923C595.368 511.573 691.518 509.713 787.608 511.333C780.688 505.983 781.548 495.343 784.058 486.973C786.568 478.603 790.018 469.363 786.218 461.483C780.778 450.213 763.958 448.903 757.608 438.133C752.758 429.903 755.838 419.493 758.848 410.433C761.868 401.373 764.518 390.703 759.078 382.863C765.598 391.403 761.018 403.693 755.618 412.983C750.218 422.273 743.918 433.023 747.768 443.053C750.958 451.393 760.088 455.843 765.028 463.273C771.628 473.203 768.768 488.193 759.268 496.163C675.538 500.053 591.668 500.633 507.888 497.893C505.508 497.813 502.898 497.643 501.168 496.013C498.218 493.233 499.658 488.303 501.648 484.763C507.518 474.353 516.508 465.733 527.428 459.753H527.448Z" fill="black" fill-opacity="0.15" style="fill:black;fill-opacity:0.15;"/>
<path d="M468.949 506.188C474.31 504.792 479.055 501.169 481.809 496.365C484.564 491.561 485.307 485.635 483.807 480.304C488.752 487.403 491.588 495.949 491.863 504.599C491.893 505.46 491.863 506.396 491.328 507.064C490.638 507.918 489.383 508.007 488.277 508.015C481.602 508.104 474.926 508.185 468.949 506.188Z" fill="#BCBBFF" fill-opacity="0.4" style="fill:#BCBBFF;fill:color(display-p3 0.7373 0.7333 1.0000);fill-opacity:0.4;"/>
<path d="M761.371 410.262C767.321 394.402 759.252 379.635 745.95 368.363C731.714 356.3 710.609 354.923 698.689 361.333" stroke="#BCBBFF" stroke-opacity="0.4" style="stroke:#BCBBFF;stroke:color(display-p3 0.7373 0.7333 1.0000);stroke-opacity:0.4;" stroke-width="8" stroke-linecap="round" stroke-linejoin="round"/>
<path d="M640.83 376.793C634.2 348.413 621.45 325.753 601.07 311.203C578.51 295.103 546.69 295.023 522.16 307.933C497.63 320.833 480.05 346.193 472.08 372.733" stroke="#BCBBFF" stroke-opacity="0.4" style="stroke:#BCBBFF;stroke:color(display-p3 0.7373 0.7333 1.0000);stroke-opacity:0.4;" stroke-width="8" stroke-linecap="round" stroke-linejoin="round"/>
<path d="M577.189 450.242C551.209 447.912 524.399 457.122 505.329 474.922C499.819 480.062 494.809 486.112 492.759 493.362C491.449 498.002 491.989 503.212 494.149 507.842V507.842C496.507 512.972 502.408 514.912 508.054 514.912H645.637H792.004C783.774 514.912 781.759 496.182 784.169 487.672C786.589 479.172 791.209 470.242 788.039 461.992C783.119 449.202 763.259 447.852 758.019 435.192C754.189 425.912 760.199 415.832 762.679 406.102C766.799 389.912 759.949 371.512 746.239 361.962C732.539 352.412 712.899 352.352 698.689 361.332C700.669 352.062 693.489 342.472 684.409 339.742C675.329 337.012 665.279 340.022 657.549 345.502C649.809 350.992 644.189 359.252 638.649 366.942C638.639 366.942 638.639 366.942 638.639 366.942" stroke="black" style="stroke:black;stroke-opacity:1;" stroke-width="8" stroke-linecap="round" stroke-linejoin="round"/>
<path d="M690.679 372.733C679.949 382.353 667.399 389.923 653.889 394.933" stroke="black" style="stroke:black;stroke-opacity:1;" stroke-width="6" stroke-linecap="round" stroke-linejoin="round"/>
<path d="M772.09 449.151C759.603 444.317 747.93 442.012 734.58 442.012" stroke="black" style="stroke:black;stroke-opacity:1;" stroke-width="6" stroke-linecap="round" stroke-linejoin="round"/>
<path d="M767.128 496.332L721.158 496.332" stroke="black" style="stroke:black;stroke-opacity:1;" stroke-width="6" stroke-linecap="round" stroke-linejoin="round"/>
<path d="M640.83 376.793C640.12 373.523 639.41 370.233 638.65 366.943C634.66 349.733 629.51 332.613 618.45 319.043C601.62 298.413 572.51 289.593 546.41 294.833C520.31 300.073 497.69 318.213 484.4 341.273C471.1 364.333 466.64 391.863 469.06 418.373C470.67 435.973 475.28 452.783 481.72 469.043C484.98 477.283 488.71 485.383 492.76 493.363" stroke="black" style="stroke:black;stroke-opacity:1;" stroke-width="8" stroke-linecap="round" stroke-linejoin="round"/>
<path d="M481.719 469.042C470.75 475.23 453.962 481.184 454.929 497.489C455.313 503.961 461.741 507.842 468.224 507.842H494.149" stroke="black" style="stroke:black;stroke-opacity:1;" stroke-width="8" stroke-linecap="round" stroke-linejoin="round"/>
<path d="M502.47 422.202C502.37 420.972 502.07 419.762 501.58 418.632" stroke="black" style="stroke:black;stroke-opacity:1;" stroke-width="8" stroke-linecap="round" stroke-linejoin="round"/>
<path d="M502.469 422.213V422.203" stroke="black" style="stroke:black;stroke-opacity:1;" stroke-width="8" stroke-linecap="round" stroke-linejoin="round"/>
<ellipse cx="486.223" cy="430.781" rx="6.35279" ry="5.81744" transform="rotate(-3.25097 486.223 430.781)" fill="black" fill-opacity="0.15" style="fill:black;fill-opacity:0.15;"/>
<ellipse cx="566.149" cy="427.406" rx="9.18965" ry="7.6325" transform="rotate(1.98161 566.149 427.406)" fill="black" fill-opacity="0.15" style="fill:black;fill-opacity:0.15;"/>
<path d="M538.175 412.13C539.503 410.169 541.504 408.75 543.908 408.694C546.318 408.631 548.386 409.955 549.806 411.851C551.228 413.75 552.095 416.323 552.165 419.113L552.165 419.115C552.231 421.912 551.488 424.524 550.158 426.49C548.83 428.453 546.83 429.874 544.428 429.936L544.424 429.936C542.016 429.993 539.949 428.671 538.528 426.774C537.105 424.874 536.239 422.301 536.167 419.507L536.167 419.504C536.102 416.708 536.845 414.095 538.175 412.13Z" fill="black" style="fill:black;fill-opacity:1;"/>
<path d="M497.566 412.604C498.976 410.899 500.943 409.783 503.131 410.063C505.322 410.341 507.025 411.921 508.069 413.94C509.116 415.963 509.583 418.549 509.314 421.233C509.05 423.921 508.089 426.328 506.676 428.039C505.265 429.745 503.298 430.861 501.11 430.582C498.918 430.303 497.214 428.719 496.171 426.699C495.124 424.674 494.657 422.085 494.926 419.4C495.19 416.717 496.152 414.313 497.566 412.604Z" fill="black" style="fill:black;fill-opacity:1;"/>
<path d="M506.817 492.972L514.149 513.894C514.149 513.894 510.567 514.912 507.597 514.912H327.997L280.197 394.752H468.257L498.667 472.222L506.817 492.972Z" fill="white" style="fill:white;fill-opacity:1;"/>
<path d="M467.571 394.148L327.922 514.092H515.498L509.375 495.661L467.571 394.148Z" fill="black" fill-opacity="0.15" style="fill:black;fill-opacity:0.15;"/>
<path d="M468.257 394.752L515.166 514.912H327.997L280.197 394.752H468.257Z" stroke="black" style="stroke:black;stroke-opacity:1;" stroke-width="8" stroke-linecap="round" stroke-linejoin="round"/>
<path d="M425.775 375.698L425.775 351.136" stroke="white" stroke-opacity="0.3" style="stroke:white;stroke-opacity:0.3;" stroke-width="8" stroke-linecap="round" stroke-linejoin="round"/>
<path d="M440.53 375.698L448.756 361.451" stroke="white" stroke-opacity="0.3" style="stroke:white;stroke-opacity:0.3;" stroke-width="8" stroke-linecap="round" stroke-linejoin="round"/>
<path d="M411.017 375.698L402.791 361.451" stroke="white" stroke-opacity="0.3" style="stroke:white;stroke-opacity:0.3;" stroke-width="8" stroke-linecap="round" stroke-linejoin="round"/>
<path fill-rule="evenodd" clip-rule="evenodd" d="M405.947 483.457C389.492 483.457 372.451 470.641 367.885 454.833C363.32 439.024 372.957 426.208 389.412 426.208C405.867 426.208 422.908 439.024 427.474 454.833C429.674 462.451 428.576 469.374 425.005 474.503L420.444 458.71C420.056 457.368 418.738 456.517 417.355 456.716C415.973 456.916 414.949 458.104 414.956 459.502C414.974 462.783 413.796 465.489 411.821 467.382C409.839 469.282 406.871 470.534 403.023 470.534C398.374 470.534 393.487 468.69 389.382 465.577C385.279 462.465 382.148 458.229 380.837 453.69C379.536 449.184 380.302 445.4 382.234 442.793C384.162 440.19 387.517 438.4 392.126 438.4C399.419 438.4 407.2 442.944 411.574 449.466C411.876 449.916 412.161 450.373 412.426 450.837C413.194 452.179 414.904 452.644 416.246 451.876C417.587 451.108 418.052 449.398 417.284 448.057C416.952 447.475 416.597 446.905 416.223 446.347C410.959 438.499 401.539 432.802 392.126 432.802C386.006 432.802 380.867 435.235 377.736 439.461C374.61 443.681 373.752 449.33 375.46 455.244C377.158 461.124 381.1 466.321 386 470.037C390.898 473.752 396.945 476.132 403.023 476.132C408.114 476.132 412.534 474.452 415.694 471.424C416.418 470.73 417.067 469.973 417.637 469.163L420.505 479.094C416.719 481.858 411.758 483.457 405.947 483.457ZM386.01 451.211C386.731 453.707 389.422 455.731 392.017 455.731C394.613 455.731 396.135 453.707 395.414 451.211C394.693 448.715 392.003 446.693 389.407 446.693C386.812 446.693 385.29 448.717 386.01 451.211ZM403.876 455.731C401.278 455.731 398.587 453.707 397.866 451.211C397.146 448.717 398.668 446.693 401.266 446.693C403.864 446.693 406.554 448.715 407.275 451.211C407.996 453.707 406.474 455.731 403.876 455.731Z" fill="#9F9F9F" fill-opacity="0.75" style="fill:#9F9F9F;fill:color(display-p3 0.6248 0.6248 0.6248);fill-opacity:0.75;"/>
<rect x="527.736" y="4.27832" width="324.553" height="204.981" rx="8" fill="white" fill-opacity="0.75" style="fill:white;fill-opacity:0.75;"/>
<path d="M702.157 107.428C702.157 107.428 720.396 76.6771 739.582 66.8456C764.938 53.8531 786.014 77.25 812.537 66.8456C830.307 59.8748 852.289 38.405 852.289 38.405V209.26H527.736C527.736 209.26 548.147 170.392 571.828 160.407C600.105 148.485 621.023 181.56 649.729 170.712C679.75 159.366 702.157 107.428 702.157 107.428Z" fill="black" fill-opacity="0.15" style="fill:black;fill-opacity:0.15;"/>
<path d="M533.309 206.247C547.062 183.096 565.232 153.413 594.022 156.544C609.3 157.568 628.23 171.527 643.607 169.781C684.327 164.676 699.499 97.4458 733.242 72.9097C760.589 50.3281 790.36 76.5526 820.333 62.6811C833.485 56.5708 842.105 44.5136 852.29 33.811" stroke="black" stroke-opacity="0.5" style="stroke:black;stroke-opacity:0.5;" stroke-width="8" stroke-linecap="round" stroke-linejoin="round"/>
<rect x="527.736" y="4.27832" width="324.553" height="204.981" rx="8" stroke="black" style="stroke:black;stroke-opacity:1;" stroke-width="8" stroke-linecap="round" stroke-linejoin="round"/>
<path d="M426.341 311.479C422.521 309.909 404.041 303.739 413.861 299.849C417.571 298.519 424.741 298.179 432.031 297.489C446.651 296.019 488.201 290.369 488.291 271.619C487.261 257.879 469.021 247.689 458.111 240.119C441.341 229.289 425.401 213.979 432.421 193.479C439.591 173.029 457.671 165.709 478.011 162.919" stroke="white" stroke-opacity="0.3" style="stroke:white;stroke-opacity:0.3;" stroke-width="8" stroke-linecap="round" stroke-linejoin="round"/>
</svg>
