<svg width="293" height="379" viewBox="0 0 293 379" fill="none" xmlns="http://www.w3.org/2000/svg">
<path d="M44.5351 116.217C43.5751 120.097 42.7151 123.997 41.9351 127.907C37.3751 150.647 35.4751 174.057 36.4651 197.287H36.2051C34.2951 189.097 29.3251 181.207 24.5251 174.287C19.7351 167.367 14.4751 160.717 10.5551 153.267C6.63508 145.807 4.09508 137.327 5.25508 128.977C6.42508 120.637 11.8651 112.587 19.8851 110.007C27.7051 107.497 37.6751 111.697 44.5351 116.217Z" fill="white" fill-opacity="0.75" style="fill:white;fill-opacity:0.75;"/>
<path d="M269.276 214.667C269.726 218.207 273.406 223.437 276.496 225.227C279.596 227.017 283.046 228.417 285.376 231.127C289.306 235.687 288.916 242.627 286.836 248.277C284.016 255.927 278.486 262.537 271.466 266.667C266.956 269.327 261.806 271.027 257.976 274.587C252.906 279.307 251.026 286.417 248.076 292.687C241.916 305.807 229.856 316.257 215.726 319.497C200.916 322.887 185.126 318.307 172.346 310.077C171.456 309.507 170.576 308.917 169.716 308.307H169.706C165.026 305.107 157.626 307.527 152.876 310.627C148.116 313.717 144.376 318.177 139.666 321.347C129.026 328.517 113.696 327.777 103.796 319.617C100.876 317.217 98.3865 314.257 95.0665 312.447C91.7565 310.647 87.1465 310.377 84.5965 313.157C83.3365 314.527 82.7365 316.457 81.3265 317.667C77.1965 321.187 71.3665 316.017 68.6365 311.327C48.5065 276.787 38.1865 237.317 36.4665 197.287C35.4765 174.057 37.3765 150.647 41.9365 127.907C42.7165 123.997 43.5765 120.097 44.5365 116.217C50.2965 92.7269 59.3165 69.9269 73.6465 50.5369C90.3565 27.9369 114.906 10.2969 142.666 5.90686C170.426 1.51686 201.036 12.0069 217.176 35.0069C228.856 51.6669 232.186 73.0469 230.426 93.3069C229.066 109.037 224.896 124.317 220.116 139.407C223.396 149.087 232.066 156.677 240.556 162.377C249.046 168.077 258.266 172.987 265.236 180.467C272.206 187.947 276.596 198.967 272.976 208.527C272.116 210.797 270.846 212.857 269.276 214.667Z" fill="white" fill-opacity="0.75" style="fill:white;fill-opacity:0.75;"/>
<path d="M281.164 228.097C277.124 224.407 271.174 221.757 269.574 216.797C269.534 216.817 269.504 216.847 269.474 216.877C266.204 219.157 264.574 220.067 260.994 221.767C257.074 223.627 253.114 224.987 248.734 225.167C248.184 225.187 247.604 225.207 247.014 225.237C251.144 226.867 254.964 229.037 258.014 232.247C264.024 238.577 265.064 250.367 257.824 255.237C252.784 258.627 245.824 257.537 240.474 260.417C234.094 263.857 231.804 271.787 230.764 278.967C229.724 286.137 229.094 293.947 224.284 299.367C218.374 306.027 208.004 306.707 199.444 304.227C190.884 301.747 183.294 296.747 175.004 293.507C166.704 290.277 156.764 289.027 149.294 293.877C141.304 299.067 137.664 310.217 128.554 313.007C121.374 315.207 113.884 311.187 107.584 307.077C101.294 302.977 94.3338 298.427 86.9038 299.537C81.0638 300.407 75.7538 304.747 69.9038 303.937C65.8538 303.377 62.4738 300.347 60.4638 296.787C58.8838 293.997 56.4737 291.197 55.0938 288.187C58.2838 296.757 63.9538 304.067 68.3638 311.307C70.3238 314.527 72.8338 317.927 76.5438 318.597C80.6438 319.347 84.9637 315.707 84.9237 311.537C93.0637 313.077 99.2738 317.477 105.884 321.017C112.494 324.557 119.984 327.307 127.384 326.057C141.934 323.597 151.844 306.587 166.584 307.117C177.964 317.127 193.604 322.277 208.534 320.427C223.464 318.577 237.384 309.777 245.454 297.087C250.054 289.847 252.874 281.407 258.694 275.107C266.954 266.167 280.614 262.217 285.764 251.197C289.324 243.597 287.364 233.777 281.154 228.117L281.164 228.097Z" fill="black" fill-opacity="0.15" style="fill:black;fill-opacity:0.15;"/>
<ellipse cx="77.3411" cy="87.6309" rx="7.9148" ry="6.57367" transform="rotate(11.2397 77.3411 87.6309)" fill="black" fill-opacity="0.15" style="fill:black;fill-opacity:0.15;"/>
<ellipse cx="159.298" cy="92.2653" rx="9.18965" ry="7.6325" transform="rotate(1.09845 159.298 92.2653)" fill="black" fill-opacity="0.15" style="fill:black;fill-opacity:0.15;"/>
<path d="M215.874 152.426C219.894 137.566 223.814 117.466 225.534 102.176C227.254 86.8863 226.564 71.0663 221.334 56.5863C215.094 39.2963 202.304 24.4463 186.114 15.7163C169.934 6.98631 146.384 5.07631 128.504 9.36631" stroke="black" stroke-opacity="0.15" style="stroke:black;stroke-opacity:0.15;" stroke-width="8" stroke-linecap="round" stroke-linejoin="round"/>
<path d="M215.465 212.046C227.535 218.416 239.135 220.856 251.025 217.766C256.315 216.396 261.595 213.746 264.485 209.106C266.955 205.126 267.355 200.086 266.235 195.536C265.115 190.986 262.595 186.886 259.595 183.286C248.055 169.436 230.385 161.196 222.665 144.906" stroke="black" stroke-opacity="0.15" style="stroke:black;stroke-opacity:0.15;" stroke-width="8" stroke-linecap="round" stroke-linejoin="round"/>
<path d="M135.199 74.2026C136.861 72.5154 139.087 71.484 141.461 71.8653C143.841 72.2418 145.634 73.9193 146.686 76.0418C147.74 78.1682 148.124 80.8558 147.686 83.6121L147.686 83.6145C147.242 86.3765 146.036 88.8099 144.371 90.5014C142.709 92.19 140.484 93.2236 138.11 92.8482L138.107 92.8476C135.728 92.4658 133.935 90.7902 132.883 88.6664C131.829 86.5397 131.445 83.8522 131.883 81.0916L131.884 81.0887C132.327 78.3268 133.533 75.8931 135.199 74.2026Z" fill="black" style="fill:black;fill-opacity:1;"/>
<path d="M91.259 71.7296C92.8776 70.2573 94.9957 69.4017 97.1834 69.8932C99.3738 70.3842 100.926 72.0603 101.762 74.0841C102.6 76.1125 102.788 78.6161 102.218 81.1357C101.654 83.6595 100.413 85.8446 98.7907 87.3221C97.1719 88.796 95.0536 89.6518 92.8658 89.1602C90.674 88.6689 89.1219 86.9889 88.2866 84.9636C87.4493 82.9332 87.2616 80.4273 87.8312 77.9074C88.3957 75.3881 89.6363 73.2056 91.259 71.7296Z" fill="black" style="fill:black;fill-opacity:1;"/>
<path d="M215.876 152.427C217.306 148.097 218.736 143.767 220.116 139.407C224.896 124.317 229.066 109.037 230.426 93.3069C232.186 73.0469 228.856 51.6669 217.176 35.0069C201.036 12.0069 170.426 1.51686 142.666 5.90686C114.906 10.2969 90.3565 27.9369 73.6465 50.5369C59.3165 69.9269 50.2965 92.7269 44.5365 116.217C43.5765 120.097 42.7165 123.997 41.9365 127.907C37.3765 150.647 35.4765 174.057 36.4665 197.287C38.1865 237.317 48.5065 276.787 68.6365 311.327C71.3665 316.017 77.1965 321.187 81.3265 317.667C82.7365 316.457 83.3365 314.527 84.5965 313.157C87.1465 310.377 91.7565 310.647 95.0665 312.447C98.3865 314.257 100.876 317.217 103.796 319.617C113.696 327.777 129.026 328.517 139.666 321.347C144.376 318.177 148.116 313.717 152.876 310.627C157.626 307.527 165.026 305.107 169.706 308.317" stroke="black" style="stroke:black;stroke-opacity:1;" stroke-width="8" stroke-linecap="round" stroke-linejoin="round"/>
<path d="M169.715 308.307C170.575 308.917 171.455 309.507 172.345 310.077C185.125 318.307 200.915 322.887 215.725 319.497C229.855 316.257 241.915 305.807 248.075 292.687C251.025 286.417 252.905 279.307 257.975 274.587C261.805 271.027 266.955 269.327 271.465 266.667C278.485 262.537 284.015 255.927 286.835 248.277C288.915 242.627 289.305 235.687 285.375 231.127C283.045 228.417 279.595 227.017 276.495 225.227C273.405 223.437 269.725 218.207 269.275 214.667" stroke="black" style="stroke:black;stroke-opacity:1;" stroke-width="8" stroke-linecap="round" stroke-linejoin="round"/>
<path d="M141.766 278.457C151.017 289.776 160.861 300.899 172.898 309.2" stroke="black" style="stroke:black;stroke-opacity:1;" stroke-width="6" stroke-linecap="round" stroke-linejoin="round"/>
<path d="M82.4549 298.367C77.7749 290.927 73.8549 282.997 70.7949 274.757" stroke="black" style="stroke:black;stroke-opacity:1;" stroke-width="6" stroke-linecap="round" stroke-linejoin="round"/>
<path d="M241.835 264.457C225.075 258.347 209.485 249.057 196.125 237.227" stroke="black" style="stroke:black;stroke-opacity:1;" stroke-width="6" stroke-linecap="round" stroke-linejoin="round"/>
<path d="M36.2051 197.297C34.2951 189.097 29.3251 181.207 24.5251 174.287C19.7351 167.367 14.4751 160.717 10.5551 153.267C6.63508 145.807 4.09508 137.327 5.25508 128.977C6.42508 120.637 11.8651 112.587 19.8851 110.007C27.7051 107.497 37.6751 111.697 44.5351 116.217" stroke="black" style="stroke:black;stroke-opacity:1;" stroke-width="8" stroke-linecap="round" stroke-linejoin="round"/>
<path d="M213.234 210.757C219.824 214.567 226.464 218.407 233.654 220.887C240.844 223.367 248.724 224.437 256.104 222.587C261.134 221.327 265.894 218.557 269.274 214.667C270.844 212.857 272.114 210.797 272.974 208.527C276.594 198.967 272.204 187.947 265.234 180.467C258.264 172.987 249.044 168.077 240.554 162.377C232.064 156.677 223.394 149.087 220.114 139.407" stroke="black" style="stroke:black;stroke-opacity:1;" stroke-width="8" stroke-linecap="round" stroke-linejoin="round"/>
<ellipse cx="185.836" cy="369.717" rx="103.381" ry="9.19141" fill="black" fill-opacity="0.15" style="fill:black;fill-opacity:0.15;"/>
</svg>
