<svg width="293" height="404" viewBox="0 0 293 404" fill="none" xmlns="http://www.w3.org/2000/svg">
<path d="M44.5351 140.93C43.5751 144.81 42.7151 148.71 41.9351 152.62C37.3751 175.36 35.4751 198.77 36.4651 222H36.2051C34.2951 213.81 29.3251 205.92 24.5251 199C19.7351 192.08 14.4751 185.43 10.5551 177.98C6.63508 170.52 4.09508 162.04 5.25508 153.69C6.42508 145.35 11.8651 137.3 19.8851 134.72C27.7051 132.21 37.6751 136.41 44.5351 140.93Z" fill="white" fill-opacity="0.75" style="fill:white;fill-opacity:0.75;"/>
<path d="M269.276 239.38C269.726 242.92 273.406 248.15 276.496 249.94C279.596 251.73 283.046 253.13 285.376 255.84C289.306 260.4 288.916 267.34 286.836 272.99C284.016 280.64 278.486 287.25 271.466 291.38C266.956 294.04 261.806 295.74 257.976 299.3C252.906 304.02 251.026 311.13 248.076 317.4C241.916 330.52 229.856 340.97 215.726 344.21C200.916 347.6 185.126 343.02 172.346 334.79C171.456 334.22 170.576 333.63 169.716 333.02H169.706C165.026 329.82 157.626 332.24 152.876 335.34C148.116 338.43 144.376 342.89 139.666 346.06C129.026 353.23 113.696 352.49 103.796 344.33C100.876 341.93 98.3865 338.97 95.0665 337.16C91.7565 335.36 87.1465 335.09 84.5965 337.87C83.3365 339.24 82.7365 341.17 81.3265 342.38C77.1965 345.9 71.3665 340.73 68.6365 336.04C48.5065 301.5 38.1865 262.03 36.4665 222C35.4765 198.77 37.3765 175.36 41.9365 152.62C42.7165 148.71 43.5765 144.81 44.5365 140.93C50.2965 117.44 59.3165 94.6397 73.6465 75.2497C90.3565 52.6497 114.906 35.0097 142.666 30.6197C170.426 26.2297 201.036 36.7197 217.176 59.7197C228.856 76.3797 232.186 97.7597 230.426 118.02C229.066 133.75 224.896 149.03 220.116 164.12C223.396 173.8 232.066 181.39 240.556 187.09C249.046 192.79 258.266 197.7 265.236 205.18C272.206 212.66 276.596 223.68 272.976 233.24C272.116 235.51 270.846 237.57 269.276 239.38Z" fill="white" fill-opacity="0.75" style="fill:white;fill-opacity:0.75;"/>
<path d="M281.164 252.81C277.124 249.12 271.174 246.47 269.574 241.51C269.534 241.53 269.504 241.56 269.474 241.59C266.204 243.87 264.574 244.78 260.994 246.48C257.074 248.34 253.114 249.7 248.734 249.88C248.184 249.9 247.604 249.92 247.014 249.95C251.144 251.58 254.964 253.75 258.014 256.96C264.024 263.29 265.064 275.08 257.824 279.95C252.784 283.34 245.824 282.25 240.474 285.13C234.094 288.57 231.804 296.5 230.764 303.68C229.724 310.85 229.094 318.66 224.284 324.08C218.374 330.74 208.004 331.42 199.444 328.94C190.884 326.46 183.294 321.46 175.004 318.22C166.704 314.99 156.764 313.74 149.294 318.59C141.304 323.78 137.664 334.93 128.554 337.72C121.374 339.92 113.884 335.9 107.584 331.79C101.294 327.69 94.3338 323.14 86.9038 324.25C81.0638 325.12 75.7538 329.46 69.9038 328.65C65.8538 328.09 62.4738 325.06 60.4638 321.5C58.8838 318.71 56.4737 315.91 55.0938 312.9C58.2838 321.47 63.9538 328.78 68.3638 336.02C70.3238 339.24 72.8338 342.64 76.5438 343.31C80.6438 344.06 84.9637 340.42 84.9237 336.25C93.0637 337.79 99.2738 342.19 105.884 345.73C112.494 349.27 119.984 352.02 127.384 350.77C141.934 348.31 151.844 331.3 166.584 331.83C177.964 341.84 193.604 346.99 208.534 345.14C223.464 343.29 237.384 334.49 245.454 321.8C250.054 314.56 252.874 306.12 258.694 299.82C266.954 290.88 280.614 286.93 285.764 275.91C289.324 268.31 287.364 258.49 281.154 252.83L281.164 252.81Z" fill="black" fill-opacity="0.15" style="fill:black;fill-opacity:0.15;"/>
<ellipse cx="77.3411" cy="112.344" rx="7.9148" ry="6.57367" transform="rotate(11.2397 77.3411 112.344)" fill="black" fill-opacity="0.15" style="fill:black;fill-opacity:0.15;"/>
<ellipse cx="159.298" cy="116.978" rx="9.18965" ry="7.6325" transform="rotate(1.09845 159.298 116.978)" fill="black" fill-opacity="0.15" style="fill:black;fill-opacity:0.15;"/>
<path d="M215.874 177.139C219.894 162.279 223.814 142.179 225.534 126.889C227.254 111.599 226.564 95.7792 221.334 81.2992C215.094 64.0092 202.304 49.1592 186.114 40.4292C169.934 31.6992 146.384 29.7892 128.504 34.0792" stroke="black" stroke-opacity="0.15" style="stroke:black;stroke-opacity:0.15;" stroke-width="8" stroke-linecap="round" stroke-linejoin="round"/>
<path d="M215.465 236.759C227.535 243.129 239.135 245.569 251.025 242.479C256.315 241.109 261.595 238.459 264.485 233.819C266.955 229.839 267.355 224.799 266.235 220.249C265.115 215.699 262.595 211.599 259.595 207.999C248.055 194.149 230.385 185.909 222.665 169.619" stroke="black" stroke-opacity="0.15" style="stroke:black;stroke-opacity:0.15;" stroke-width="8" stroke-linecap="round" stroke-linejoin="round"/>
<path d="M135.199 98.9155C136.861 97.2283 139.087 96.1969 141.461 96.5782C143.841 96.9547 145.634 98.6322 146.686 100.755C147.74 102.881 148.124 105.569 147.686 108.325L147.686 108.327C147.242 111.089 146.036 113.523 144.371 115.214C142.709 116.903 140.484 117.937 138.11 117.561L138.107 117.561C135.728 117.179 133.935 115.503 132.883 113.379C131.829 111.253 131.445 108.565 131.883 105.804L131.884 105.802C132.327 103.04 133.533 100.606 135.199 98.9155Z" fill="black" style="fill:black;fill-opacity:1;"/>
<path d="M91.259 96.4425C92.8776 94.9702 94.9957 94.1146 97.1834 94.6061C99.3738 95.0971 100.926 96.7732 101.762 98.797C102.6 100.825 102.788 103.329 102.218 105.849C101.654 108.372 100.413 110.557 98.7907 112.035C97.1719 113.509 95.0536 114.365 92.8658 113.873C90.674 113.382 89.1219 111.702 88.2866 109.677C87.4493 107.646 87.2616 105.14 87.8312 102.62C88.3957 100.101 89.6363 97.9185 91.259 96.4425Z" fill="black" style="fill:black;fill-opacity:1;"/>
<path d="M215.876 177.14C217.306 172.81 218.736 168.48 220.116 164.12C224.896 149.03 229.066 133.75 230.426 118.02C232.186 97.7597 228.856 76.3797 217.176 59.7197C201.036 36.7197 170.426 26.2297 142.666 30.6197C114.906 35.0097 90.3565 52.6497 73.6465 75.2497C59.3165 94.6397 50.2965 117.44 44.5365 140.93C43.5765 144.81 42.7165 148.71 41.9365 152.62C37.3765 175.36 35.4765 198.77 36.4665 222C38.1865 262.03 48.5065 301.5 68.6365 336.04C71.3665 340.73 77.1965 345.9 81.3265 342.38C82.7365 341.17 83.3365 339.24 84.5965 337.87C87.1465 335.09 91.7565 335.36 95.0665 337.16C98.3865 338.97 100.876 341.93 103.796 344.33C113.696 352.49 129.026 353.23 139.666 346.06C144.376 342.89 148.116 338.43 152.876 335.34C157.626 332.24 165.026 329.82 169.706 333.03" stroke="black" style="stroke:black;stroke-opacity:1;" stroke-width="8" stroke-linecap="round" stroke-linejoin="round"/>
<path d="M169.715 333.02C170.575 333.63 171.455 334.22 172.345 334.79C185.125 343.02 200.915 347.6 215.725 344.21C229.855 340.97 241.915 330.52 248.075 317.4C251.025 311.13 252.905 304.02 257.975 299.3C261.805 295.74 266.955 294.04 271.465 291.38C278.485 287.25 284.015 280.64 286.835 272.99C288.915 267.34 289.305 260.4 285.375 255.84C283.045 253.13 279.595 251.73 276.495 249.94C273.405 248.15 269.725 242.92 269.275 239.38" stroke="black" style="stroke:black;stroke-opacity:1;" stroke-width="8" stroke-linecap="round" stroke-linejoin="round"/>
<path d="M141.766 303.17C151.017 314.489 160.861 325.612 172.898 333.913" stroke="black" style="stroke:black;stroke-opacity:1;" stroke-width="6" stroke-linecap="round" stroke-linejoin="round"/>
<path d="M82.4549 323.08C77.7749 315.64 73.8549 307.71 70.7949 299.47" stroke="black" style="stroke:black;stroke-opacity:1;" stroke-width="6" stroke-linecap="round" stroke-linejoin="round"/>
<path d="M241.835 289.169C225.075 283.059 209.485 273.769 196.125 261.939" stroke="black" style="stroke:black;stroke-opacity:1;" stroke-width="6" stroke-linecap="round" stroke-linejoin="round"/>
<path d="M36.2051 222.01C34.2951 213.81 29.3251 205.92 24.5251 199C19.7351 192.08 14.4751 185.43 10.5551 177.98C6.63508 170.52 4.09508 162.04 5.25508 153.69C6.42508 145.35 11.8651 137.3 19.8851 134.72C27.7051 132.21 37.6751 136.41 44.5351 140.93" stroke="black" style="stroke:black;stroke-opacity:1;" stroke-width="8" stroke-linecap="round" stroke-linejoin="round"/>
<path d="M213.234 235.47C219.824 239.28 226.464 243.12 233.654 245.6C240.844 248.08 248.724 249.15 256.104 247.3C261.134 246.04 265.894 243.27 269.274 239.38C270.844 237.57 272.114 235.51 272.974 233.24C276.594 223.68 272.204 212.66 265.234 205.18C258.264 197.7 249.044 192.79 240.554 187.09C232.064 181.39 223.394 173.8 220.114 164.12" stroke="black" style="stroke:black;stroke-opacity:1;" stroke-width="8" stroke-linecap="round" stroke-linejoin="round"/>
<path d="M236.509 15.1285C237.012 17.4328 236.488 20.0897 234.699 21.6244C232.906 23.1662 229.247 23.209 228 21.2017L227.759 21.3389C225.613 17.7436 223.214 14.4448 220.605 11.6719C219.981 9.70603 220.288 7.53113 221.657 5.98308C223.147 4.29256 225.79 4.0171 227.902 4.80797C230.008 5.59612 231.667 7.25329 233.11 8.98342C234.627 10.799 236.002 12.8143 236.509 15.1285Z" fill="#F2F2F2" style="fill:#F2F2F2;fill:color(display-p3 0.9472 0.9472 0.9472);fill-opacity:1;"/>
<path d="M242.756 74.6041C241.906 91.0441 237.776 107.314 231.136 122.334C230.576 121.524 230.016 120.714 229.436 119.914C224.146 112.454 218.316 105.384 212.016 98.7441L213.026 97.7941C219.056 86.0241 223.816 74.6741 225.916 60.4241C225.916 50.5041 224.706 43.8941 221.616 34.9941H221.626C233.926 48.5441 242.756 64.5541 242.756 74.6041Z" fill="#D5D5D5" style="fill:#D5D5D5;fill:color(display-p3 0.8353 0.8353 0.8353);fill-opacity:1;"/>
<path d="M212.014 98.7434C218.314 105.383 224.144 112.453 229.434 119.913L229.134 120.123C223.914 112.843 216.164 107.403 207.534 104.983C199.364 102.693 190.614 103.063 182.444 100.753C167.024 96.4134 155.894 83.4034 142.714 74.3034C131.644 66.6734 118.474 61.6234 105.034 61.8634C91.5943 62.1134 73.7843 68.5234 65.9743 79.4534C57.2943 77.9834 51.6743 76.4734 45.6043 71.1634C42.3743 68.3434 40.1343 64.6434 39.5343 61.9834C38.5243 57.4534 42.6843 53.5034 46.6343 51.0634C59.5443 43.1134 74.8943 39.6234 90.0443 39.6634C90.2743 39.6634 90.5143 39.6634 90.7443 39.6634C105.664 39.7934 120.424 43.1834 134.484 48.1634C163.844 58.5634 190.604 76.1234 212.014 98.7334V98.7434Z" fill="#D5D5D5" style="fill:#D5D5D5;fill:color(display-p3 0.8353 0.8353 0.8353);fill-opacity:1;"/>
<path d="M221.614 34.9939C224.704 43.8939 225.914 50.5039 225.914 60.4239C223.814 74.6739 219.054 86.0239 213.024 97.7939L212.014 98.7439C190.604 76.1339 163.844 58.5739 134.484 48.1739C120.424 43.1939 105.664 39.8039 90.7441 39.6739V39.4439C99.0541 31.2639 106.354 20.8439 118.654 14.4039C142.474 2.83387 171.584 2.78387 195.384 14.3139C199.864 16.4839 204.334 19.3939 208.634 22.7839C213.214 26.3939 217.604 30.5639 221.624 34.9839H221.614V34.9939Z" fill="#F2F2F2" style="fill:#F2F2F2;fill:color(display-p3 0.9472 0.9472 0.9472);fill-opacity:1;"/>
<path d="M92.7561 39.8564C99.8428 31.1983 106.355 20.8439 118.655 14.4039C142.475 2.83387 171.585 2.78387 195.385 14.3139C199.865 16.4839 204.335 19.3939 208.635 22.7839C213.215 26.3939 217.605 30.5639 221.625 34.9839C233.925 48.5439 240.036 65.3657 240.036 78.6451C240.036 95.1071 237.775 107.314 231.135 122.334M92.7561 39.8564C107.676 39.9864 120.425 43.1939 134.485 48.1739C163.845 58.5739 190.605 76.1339 212.015 98.7439C218.315 105.384 224.145 112.454 229.435 119.914M92.7561 39.8564C92.5261 39.8564 92.9861 39.8564 92.7561 39.8564ZM92.7561 39.8564C77.6061 39.8164 56.9232 42.0188 46.9583 48.1739C41.5146 51.5363 39.048 56.8908 39.5348 61.9939C39.8697 65.5054 42.5376 69.101 45.7676 71.921C51.8376 77.231 59.3562 79.6966 68.0362 81.1666C75.8462 70.2366 91.5948 62.1239 105.035 61.8739C118.475 61.6339 131.645 66.6839 142.715 74.3139C155.895 83.4139 167.025 96.4239 182.445 100.764C190.615 103.074 199.365 102.704 207.535 104.994C216.165 107.414 224.215 112.634 229.435 119.914M231.135 122.334C230.575 121.524 230.015 120.714 229.435 119.914M231.135 122.334C230.815 121.834 229.785 120.404 229.435 119.914" stroke="black" style="stroke:black;stroke-opacity:1;" stroke-width="8" stroke-linecap="round" stroke-linejoin="round"/>
<path d="M220.607 11.6719C219.983 9.70603 220.29 7.53113 221.659 5.98308C223.149 4.29256 225.792 4.0171 227.904 4.80797C230.01 5.59612 231.669 7.25329 233.112 8.98342C234.629 10.799 236.004 12.8143 236.511 15.1285C237.014 17.4328 236.49 20.0897 234.7 21.6244C232.908 23.1662 229.249 23.209 228.002 21.2017" stroke="black" style="stroke:black;stroke-opacity:1;" stroke-width="8" stroke-linecap="round" stroke-linejoin="round"/>
<path d="M216.702 31.294C221.875 37.4369 224.693 45.0269 225.329 50.0399C226.202 56.9134 225.588 63.9112 223.863 70.6218C221.355 80.3765 217.548 88.9672 213.025 97.7941" stroke="black" style="stroke:black;stroke-opacity:1;" stroke-width="6" stroke-linecap="round" stroke-linejoin="round"/>
<path d="M147.5 41.2718C150.03 41.8146 152.522 40.2029 153.065 37.672C153.608 35.1412 151.996 32.6495 149.465 32.1067C146.934 31.5639 144.443 33.1755 143.9 35.7064C143.357 38.2373 144.969 40.729 147.5 41.2718Z" fill="#8D8D8D" style="fill:#8D8D8D;fill:color(display-p3 0.5513 0.5513 0.5513);fill-opacity:1;"/>
<path d="M158.911 45.7264C161.441 46.2692 163.933 44.6576 164.476 42.1267C165.019 39.5958 163.407 37.1041 160.876 36.5613C158.345 36.0185 155.854 37.6302 155.311 40.1611C154.768 42.6919 156.38 45.1836 158.911 45.7264Z" fill="#8D8D8D" style="fill:#8D8D8D;fill:color(display-p3 0.5513 0.5513 0.5513);fill-opacity:1;"/>
<path d="M161.216 20.8912C150.271 16.6184 137.979 21.4412 132.449 31.7132C131.679 33.1443 132.443 34.8635 133.957 35.4546V35.4546C135.471 36.0457 137.158 35.2794 137.984 33.8795C142.269 26.6193 151.107 23.2622 159.076 26.3731C167.045 29.4839 171.271 37.9414 169.504 46.1844C169.163 47.7738 169.885 49.4802 171.399 50.0713V50.0713C172.913 50.6623 174.639 49.9152 175.042 48.3406C177.933 37.0385 172.16 25.1635 161.216 20.8912Z" fill="#8D8D8D" style="fill:#8D8D8D;fill:color(display-p3 0.5513 0.5513 0.5513);fill-opacity:1;"/>
<ellipse cx="185.836" cy="394.43" rx="103.381" ry="9.19141" fill="black" fill-opacity="0.15" style="fill:black;fill-opacity:0.15;"/>
</svg>
