<svg width="293" height="404" viewBox="0 0 293 404" fill="none" xmlns="http://www.w3.org/2000/svg">
<path d="M44.5351 141.063C43.5751 144.943 42.7151 148.843 41.9351 152.753C37.3751 175.493 35.4751 198.903 36.4651 222.133H36.2051C34.2951 213.943 29.3251 206.053 24.5251 199.133C19.7351 192.213 14.4751 185.563 10.5551 178.113C6.63508 170.653 4.09508 162.173 5.25508 153.823C6.42508 145.483 11.8651 137.433 19.8851 134.853C27.7051 132.343 37.6751 136.543 44.5351 141.063Z" fill="white" fill-opacity="0.75" style="fill:white;fill-opacity:0.75;"/>
<path d="M269.276 239.514C269.726 243.054 273.406 248.284 276.496 250.074C279.596 251.864 283.046 253.264 285.376 255.974C289.306 260.534 288.916 267.474 286.836 273.124C284.016 280.774 278.486 287.384 271.466 291.514C266.956 294.174 261.806 295.874 257.976 299.434C252.906 304.154 251.026 311.264 248.076 317.534C241.916 330.654 229.856 341.104 215.726 344.344C200.916 347.734 185.126 343.154 172.346 334.924C171.456 334.354 170.576 333.764 169.716 333.154H169.706C165.026 329.954 157.626 332.374 152.876 335.474C148.116 338.564 144.376 343.024 139.666 346.194C129.026 353.364 113.696 352.624 103.796 344.464C100.876 342.064 98.3865 339.104 95.0665 337.294C91.7565 335.494 87.1465 335.224 84.5965 338.004C83.3365 339.374 82.7365 341.304 81.3265 342.514C77.1965 346.034 71.3665 340.864 68.6365 336.174C48.5065 301.634 38.1865 262.164 36.4665 222.134C35.4765 198.904 37.3765 175.494 41.9365 152.754C42.7165 148.844 43.5765 144.944 44.5365 141.064C50.2965 117.574 59.3165 94.7735 73.6465 75.3835C90.3565 52.7835 114.906 35.1435 142.666 30.7535C170.426 26.3635 201.036 36.8535 217.176 59.8535C228.856 76.5135 232.186 97.8935 230.426 118.154C229.066 133.884 224.896 149.164 220.116 164.254C223.396 173.934 232.066 181.524 240.556 187.224C249.046 192.924 258.266 197.834 265.236 205.314C272.206 212.794 276.596 223.814 272.976 233.374C272.116 235.644 270.846 237.704 269.276 239.514Z" fill="white" fill-opacity="0.75" style="fill:white;fill-opacity:0.75;"/>
<path d="M281.164 252.944C277.124 249.254 271.174 246.604 269.574 241.644C269.534 241.664 269.504 241.694 269.474 241.724C266.204 244.004 264.574 244.914 260.994 246.614C257.074 248.474 253.114 249.834 248.734 250.014C248.184 250.034 247.604 250.054 247.014 250.084C251.144 251.714 254.964 253.884 258.014 257.094C264.024 263.424 265.064 275.214 257.824 280.084C252.784 283.474 245.824 282.384 240.474 285.264C234.094 288.704 231.804 296.634 230.764 303.814C229.724 310.984 229.094 318.794 224.284 324.214C218.374 330.874 208.004 331.554 199.444 329.074C190.884 326.594 183.294 321.594 175.004 318.354C166.704 315.124 156.764 313.874 149.294 318.724C141.304 323.914 137.664 335.064 128.554 337.854C121.374 340.054 113.884 336.034 107.584 331.924C101.294 327.824 94.3338 323.274 86.9038 324.384C81.0638 325.254 75.7538 329.594 69.9038 328.784C65.8538 328.224 62.4738 325.194 60.4638 321.634C58.8838 318.844 56.4737 316.044 55.0938 313.034C58.2838 321.604 63.9538 328.914 68.3638 336.154C70.3238 339.374 72.8338 342.774 76.5438 343.444C80.6438 344.194 84.9637 340.554 84.9237 336.384C93.0637 337.924 99.2738 342.324 105.884 345.864C112.494 349.404 119.984 352.154 127.384 350.904C141.934 348.444 151.844 331.434 166.584 331.964C177.964 341.974 193.604 347.124 208.534 345.274C223.464 343.424 237.384 334.624 245.454 321.934C250.054 314.694 252.874 306.254 258.694 299.954C266.954 291.014 280.614 287.064 285.764 276.044C289.324 268.444 287.364 258.624 281.154 252.964L281.164 252.944Z" fill="black" fill-opacity="0.15" style="fill:black;fill-opacity:0.15;"/>
<ellipse cx="77.3411" cy="112.478" rx="7.9148" ry="6.57367" transform="rotate(11.2397 77.3411 112.478)" fill="black" fill-opacity="0.15" style="fill:black;fill-opacity:0.15;"/>
<ellipse cx="159.298" cy="117.112" rx="9.18965" ry="7.6325" transform="rotate(1.09845 159.298 117.112)" fill="black" fill-opacity="0.15" style="fill:black;fill-opacity:0.15;"/>
<path d="M215.874 177.273C219.894 162.413 223.814 142.313 225.534 127.023C227.254 111.733 226.564 95.913 221.334 81.433C215.094 64.143 202.304 49.293 186.114 40.563C169.934 31.833 146.384 29.923 128.504 34.213" stroke="black" stroke-opacity="0.15" style="stroke:black;stroke-opacity:0.15;" stroke-width="8" stroke-linecap="round" stroke-linejoin="round"/>
<path d="M215.465 236.893C227.535 243.263 239.135 245.703 251.025 242.613C256.315 241.243 261.595 238.593 264.485 233.953C266.955 229.973 267.355 224.933 266.235 220.383C265.115 215.833 262.595 211.733 259.595 208.133C248.055 194.283 230.385 186.043 222.665 169.753" stroke="black" stroke-opacity="0.15" style="stroke:black;stroke-opacity:0.15;" stroke-width="8" stroke-linecap="round" stroke-linejoin="round"/>
<path d="M135.199 99.0493C136.861 97.3621 139.087 96.3307 141.461 96.712C143.841 97.0884 145.634 98.766 146.686 100.889C147.74 103.015 148.124 105.703 147.686 108.459L147.686 108.461C147.242 111.223 146.036 113.657 144.371 115.348C142.709 117.037 140.484 118.07 138.11 117.695L138.107 117.694C135.728 117.312 133.935 115.637 132.883 113.513C131.829 111.386 131.445 108.699 131.883 105.938L131.884 105.935C132.327 103.174 133.533 100.74 135.199 99.0493Z" fill="black" style="fill:black;fill-opacity:1;"/>
<path d="M91.259 96.5763C92.8776 95.104 94.9957 94.2484 97.1834 94.7399C99.3738 95.2309 100.926 96.907 101.762 98.9308C102.6 100.959 102.788 103.463 102.218 105.982C101.654 108.506 100.413 110.691 98.7907 112.169C97.1719 113.643 95.0536 114.498 92.8658 114.007C90.674 113.516 89.1219 111.836 88.2866 109.81C87.4493 107.78 87.2616 105.274 87.8312 102.754C88.3957 100.235 89.6363 98.0523 91.259 96.5763Z" fill="black" style="fill:black;fill-opacity:1;"/>
<path d="M215.876 177.274C217.306 172.944 218.736 168.614 220.116 164.254C224.896 149.164 229.066 133.884 230.426 118.154C232.186 97.8935 228.856 76.5135 217.176 59.8535C201.036 36.8535 170.426 26.3635 142.666 30.7535C114.906 35.1435 90.3565 52.7835 73.6465 75.3835C59.3165 94.7735 50.2965 117.574 44.5365 141.064C43.5765 144.944 42.7165 148.844 41.9365 152.754C37.3765 175.494 35.4765 198.904 36.4665 222.134C38.1865 262.164 48.5065 301.634 68.6365 336.174C71.3665 340.864 77.1965 346.034 81.3265 342.514C82.7365 341.304 83.3365 339.374 84.5965 338.004C87.1465 335.224 91.7565 335.494 95.0665 337.294C98.3865 339.104 100.876 342.064 103.796 344.464C113.696 352.624 129.026 353.364 139.666 346.194C144.376 343.024 148.116 338.564 152.876 335.474C157.626 332.374 165.026 329.954 169.706 333.164" stroke="black" style="stroke:black;stroke-opacity:1;" stroke-width="8" stroke-linecap="round" stroke-linejoin="round"/>
<path d="M169.715 333.154C170.575 333.764 171.455 334.354 172.345 334.924C185.125 343.154 200.915 347.734 215.725 344.344C229.855 341.104 241.915 330.654 248.075 317.534C251.025 311.264 252.905 304.154 257.975 299.434C261.805 295.874 266.955 294.174 271.465 291.514C278.485 287.384 284.015 280.774 286.835 273.124C288.915 267.474 289.305 260.534 285.375 255.974C283.045 253.264 279.595 251.864 276.495 250.074C273.405 248.284 269.725 243.054 269.275 239.514" stroke="black" style="stroke:black;stroke-opacity:1;" stroke-width="8" stroke-linecap="round" stroke-linejoin="round"/>
<path d="M141.766 303.304C151.017 314.623 160.861 325.746 172.898 334.047" stroke="black" style="stroke:black;stroke-opacity:1;" stroke-width="6" stroke-linecap="round" stroke-linejoin="round"/>
<path d="M82.4549 323.214C77.7749 315.774 73.8549 307.844 70.7949 299.604" stroke="black" style="stroke:black;stroke-opacity:1;" stroke-width="6" stroke-linecap="round" stroke-linejoin="round"/>
<path d="M241.835 289.303C225.075 283.193 209.485 273.903 196.125 262.073" stroke="black" style="stroke:black;stroke-opacity:1;" stroke-width="6" stroke-linecap="round" stroke-linejoin="round"/>
<path d="M36.2051 222.143C34.2951 213.943 29.3251 206.053 24.5251 199.133C19.7351 192.213 14.4751 185.563 10.5551 178.113C6.63508 170.653 4.09508 162.173 5.25508 153.823C6.42508 145.483 11.8651 137.433 19.8851 134.853C27.7051 132.343 37.6751 136.543 44.5351 141.063" stroke="black" style="stroke:black;stroke-opacity:1;" stroke-width="8" stroke-linecap="round" stroke-linejoin="round"/>
<path d="M213.234 235.604C219.824 239.414 226.464 243.254 233.654 245.734C240.844 248.214 248.724 249.284 256.104 247.434C261.134 246.174 265.894 243.404 269.274 239.514C270.844 237.704 272.114 235.644 272.974 233.374C276.594 223.814 272.204 212.794 265.234 205.314C258.264 197.834 249.044 192.924 240.554 187.224C232.064 181.524 223.394 173.934 220.114 164.254" stroke="black" style="stroke:black;stroke-opacity:1;" stroke-width="8" stroke-linecap="round" stroke-linejoin="round"/>
<path d="M236.509 15.2622C237.012 17.5666 236.488 20.2235 234.699 21.7582C232.906 23.3 229.247 23.3428 228 21.3355L227.759 21.4727C225.613 17.8774 223.214 14.5786 220.605 11.8057C219.981 9.83982 220.288 7.66492 221.657 6.11687C223.147 4.42634 225.79 4.15089 227.902 4.94176C230.008 5.72991 231.667 7.38708 233.11 9.11721C234.627 10.9328 236.002 12.9481 236.509 15.2622Z" fill="#F2F2F2" style="fill:#F2F2F2;fill:color(display-p3 0.9472 0.9472 0.9472);fill-opacity:1;"/>
<path d="M242.756 74.7379C241.906 91.1779 237.776 107.448 231.136 122.468C230.576 121.658 230.016 120.848 229.436 120.048C224.146 112.588 218.316 105.518 212.016 98.8779L213.026 97.9279C219.056 86.1579 223.816 74.8079 225.916 60.5579C225.916 50.6379 224.706 44.0279 221.616 35.1279H221.626C233.926 48.6779 242.756 64.6879 242.756 74.7379Z" fill="#D5D5D5" style="fill:#D5D5D5;fill:color(display-p3 0.8353 0.8353 0.8353);fill-opacity:1;"/>
<path d="M212.014 98.8772C218.314 105.517 224.144 112.587 229.434 120.047L229.134 120.257C223.914 112.977 216.164 107.537 207.534 105.117C199.364 102.827 190.614 103.197 182.444 100.887C167.024 96.5472 155.894 83.5372 142.714 74.4372C131.644 66.8072 118.474 61.7572 105.034 61.9972C91.5943 62.2472 73.7843 68.6572 65.9743 79.5872C57.2943 78.1172 51.6743 76.6072 45.6043 71.2972C42.3743 68.4772 40.1343 64.7772 39.5343 62.1172C38.5243 57.5872 42.6843 53.6372 46.6343 51.1972C59.5443 43.2472 74.8943 39.7572 90.0443 39.7972C90.2743 39.7972 90.5143 39.7972 90.7443 39.7972C105.664 39.9272 120.424 43.3172 134.484 48.2972C163.844 58.6972 190.604 76.2572 212.014 98.8672V98.8772Z" fill="#D5D5D5" style="fill:#D5D5D5;fill:color(display-p3 0.8353 0.8353 0.8353);fill-opacity:1;"/>
<path d="M221.614 35.1277C224.704 44.0277 225.914 50.6377 225.914 60.5577C223.814 74.8077 219.054 86.1576 213.024 97.9277L212.014 98.8777C190.604 76.2677 163.844 58.7077 134.484 48.3077C120.424 43.3277 105.664 39.9377 90.7441 39.8077V39.5777C99.0541 31.3977 106.354 20.9777 118.654 14.5377C142.474 2.96766 171.584 2.91766 195.384 14.4477C199.864 16.6177 204.334 19.5277 208.634 22.9177C213.214 26.5277 217.604 30.6977 221.624 35.1177H221.614V35.1277Z" fill="#F2F2F2" style="fill:#F2F2F2;fill:color(display-p3 0.9472 0.9472 0.9472);fill-opacity:1;"/>
<path d="M92.7561 39.9902C99.8428 31.3321 106.355 20.9777 118.655 14.5377C142.475 2.96766 171.585 2.91766 195.385 14.4477C199.865 16.6177 204.335 19.5277 208.635 22.9177C213.215 26.5277 217.605 30.6977 221.625 35.1177C233.925 48.6777 240.036 65.4995 240.036 78.7789C240.036 95.2409 237.775 107.448 231.135 122.468M92.7561 39.9902C107.676 40.1202 120.425 43.3277 134.485 48.3077C163.845 58.7077 190.605 76.2677 212.015 98.8777C218.315 105.518 224.145 112.588 229.435 120.048M92.7561 39.9902C92.5261 39.9902 92.9861 39.9902 92.7561 39.9902ZM92.7561 39.9902C77.6061 39.9502 56.9232 42.1526 46.9583 48.3077C41.5146 51.6701 39.048 57.0246 39.5348 62.1277C39.8697 65.6391 42.5376 69.2348 45.7676 72.0548C51.8376 77.3648 59.3562 79.8304 68.0362 81.3004C75.8462 70.3704 91.5948 62.2577 105.035 62.0077C118.475 61.7677 131.645 66.8177 142.715 74.4477C155.895 83.5477 167.025 96.5577 182.445 100.898C190.615 103.208 199.365 102.838 207.535 105.128C216.165 107.548 224.215 112.768 229.435 120.048M231.135 122.468C230.575 121.658 230.015 120.848 229.435 120.048M231.135 122.468C230.815 121.968 229.785 120.538 229.435 120.048" stroke="black" style="stroke:black;stroke-opacity:1;" stroke-width="8" stroke-linecap="round" stroke-linejoin="round"/>
<path d="M220.607 11.8057C219.983 9.83982 220.29 7.66492 221.659 6.11687C223.149 4.42634 225.792 4.15089 227.904 4.94176C230.01 5.72991 231.669 7.38708 233.112 9.11721C234.629 10.9328 236.004 12.9481 236.511 15.2622C237.014 17.5666 236.49 20.2235 234.7 21.7582C232.908 23.3 229.249 23.3428 228.002 21.3355" stroke="black" style="stroke:black;stroke-opacity:1;" stroke-width="8" stroke-linecap="round" stroke-linejoin="round"/>
<path d="M216.702 31.4278C221.875 37.5707 224.693 45.1607 225.329 50.1737C226.202 57.0472 225.588 64.045 223.863 70.7555C221.355 80.5103 217.548 89.101 213.025 97.9279" stroke="black" style="stroke:black;stroke-opacity:1;" stroke-width="6" stroke-linecap="round" stroke-linejoin="round"/>
<path d="M146.322 26.0492C145.759 27.606 146.566 29.3244 148.121 29.8864C149.676 30.4484 151.395 29.6422 151.957 28.0854C152.52 26.5286 151.713 24.8115 150.158 24.2495C148.602 23.6875 146.884 24.4938 146.322 26.0492Z" fill="#8D8D8D" style="fill:#8D8D8D;fill:color(display-p3 0.5513 0.5513 0.5513);fill-opacity:1;"/>
<path d="M153.427 28.6156C152.865 30.1724 153.671 31.8908 155.228 32.4533C156.785 33.0158 158.503 32.2096 159.066 30.6528C159.628 29.096 158.821 27.3789 157.264 26.8164C155.708 26.2539 153.989 27.0602 153.427 28.6156Z" fill="#8D8D8D" style="fill:#8D8D8D;fill:color(display-p3 0.5513 0.5513 0.5513);fill-opacity:1;"/>
<path d="M164.352 30.2331C164.327 25.1574 161.213 20.4217 156.207 18.6131C149.778 16.2903 142.663 19.6756 140.315 26.1746C137.967 32.6735 141.275 39.825 147.704 42.1478C153.061 44.0832 158.894 42.0559 162.049 37.5669L158.928 46.2032" stroke="#8D8D8D" style="stroke:#8D8D8D;stroke:color(display-p3 0.5513 0.5513 0.5513);stroke-opacity:1;" stroke-width="5" stroke-linecap="round" stroke-linejoin="round"/>
<ellipse cx="185.836" cy="394.563" rx="103.381" ry="9.19141" fill="black" fill-opacity="0.15" style="fill:black;fill-opacity:0.15;"/>
</svg>
