<svg width="293" height="404" viewBox="0 0 293 404" fill="none" xmlns="http://www.w3.org/2000/svg">
<path d="M44.289 140.93C43.329 144.81 42.469 148.71 41.689 152.62C37.129 175.36 35.229 198.77 36.219 222H35.959C34.049 213.81 29.079 205.92 24.279 199C19.489 192.08 14.229 185.43 10.309 177.98C6.38899 170.52 3.84899 162.04 5.00899 153.69C6.17899 145.35 11.619 137.3 19.639 134.72C27.459 132.21 37.429 136.41 44.289 140.93Z" fill="white" fill-opacity="0.75" style="fill:white;fill-opacity:0.75;"/>
<path d="M269.03 239.38C269.48 242.92 273.16 248.15 276.25 249.94C279.35 251.73 282.8 253.13 285.13 255.84C289.06 260.4 288.67 267.34 286.59 272.99C283.77 280.64 278.24 287.25 271.22 291.38C266.71 294.04 261.56 295.74 257.73 299.3C252.66 304.02 250.78 311.13 247.83 317.4C241.67 330.52 229.61 340.97 215.48 344.21C200.67 347.6 184.88 343.02 172.1 334.79C171.21 334.22 170.33 333.63 169.47 333.02H169.46C164.78 329.82 157.38 332.24 152.63 335.34C147.87 338.43 144.13 342.89 139.42 346.06C128.78 353.23 113.45 352.49 103.55 344.33C100.63 341.93 98.1404 338.97 94.8204 337.16C91.5104 335.36 86.9004 335.09 84.3504 337.87C83.0904 339.24 82.4904 341.17 81.0804 342.38C76.9504 345.9 71.1204 340.73 68.3904 336.04C48.2604 301.5 37.9404 262.03 36.2204 222C35.2304 198.77 37.1304 175.36 41.6904 152.62C42.4704 148.71 43.3304 144.81 44.2904 140.93C50.0504 117.44 59.0704 94.6397 73.4004 75.2497C90.1104 52.6497 114.66 35.0097 142.42 30.6197C170.18 26.2297 200.79 36.7197 216.93 59.7197C228.61 76.3797 231.94 97.7597 230.18 118.02C228.82 133.75 224.65 149.03 219.87 164.12C223.15 173.8 231.82 181.39 240.31 187.09C248.8 192.79 258.02 197.7 264.99 205.18C271.96 212.66 276.35 223.68 272.73 233.24C271.87 235.51 270.6 237.57 269.03 239.38Z" fill="white" fill-opacity="0.75" style="fill:white;fill-opacity:0.75;"/>
<path d="M280.918 252.81C276.878 249.12 270.928 246.47 269.328 241.51C269.288 241.53 269.258 241.56 269.228 241.59C265.958 243.87 264.328 244.78 260.748 246.48C256.828 248.34 252.868 249.7 248.488 249.88C247.938 249.9 247.358 249.92 246.768 249.95C250.898 251.58 254.718 253.75 257.768 256.96C263.778 263.29 264.818 275.08 257.578 279.95C252.538 283.34 245.578 282.25 240.228 285.13C233.848 288.57 231.558 296.5 230.518 303.68C229.478 310.85 228.848 318.66 224.038 324.08C218.128 330.74 207.758 331.42 199.198 328.94C190.638 326.46 183.048 321.46 174.758 318.22C166.458 314.99 156.518 313.74 149.048 318.59C141.058 323.78 137.418 334.93 128.308 337.72C121.128 339.92 113.638 335.9 107.338 331.79C101.048 327.69 94.0877 323.14 86.6577 324.25C80.8177 325.12 75.5077 329.46 69.6577 328.65C65.6077 328.09 62.2277 325.06 60.2177 321.5C58.6377 318.71 56.2277 315.91 54.8477 312.9C58.0377 321.47 63.7077 328.78 68.1177 336.02C70.0777 339.24 72.5877 342.64 76.2977 343.31C80.3977 344.06 84.7177 340.42 84.6777 336.25C92.8177 337.79 99.0277 342.19 105.638 345.73C112.248 349.27 119.738 352.02 127.138 350.77C141.688 348.31 151.598 331.3 166.338 331.83C177.718 341.84 193.358 346.99 208.288 345.14C223.218 343.29 237.138 334.49 245.208 321.8C249.808 314.56 252.628 306.12 258.448 299.82C266.708 290.88 280.368 286.93 285.518 275.91C289.078 268.31 287.118 258.49 280.908 252.83L280.918 252.81Z" fill="#BCBBFF" fill-opacity="0.4" style="fill:#BCBBFF;fill:color(display-p3 0.7373 0.7333 1.0000);fill-opacity:0.4;"/>
<ellipse cx="77.095" cy="112.344" rx="7.9148" ry="6.57367" transform="rotate(11.2397 77.095 112.344)" fill="#BCBBFF" fill-opacity="0.4" style="fill:#BCBBFF;fill:color(display-p3 0.7373 0.7333 1.0000);fill-opacity:0.4;"/>
<ellipse cx="159.051" cy="116.978" rx="9.18965" ry="7.6325" transform="rotate(1.09845 159.051 116.978)" fill="#BCBBFF" fill-opacity="0.4" style="fill:#BCBBFF;fill:color(display-p3 0.7373 0.7333 1.0000);fill-opacity:0.4;"/>
<path d="M215.628 177.139C219.648 162.279 223.568 142.179 225.288 126.889C227.008 111.599 226.318 95.7792 221.088 81.2992C214.848 64.0092 202.058 49.1592 185.868 40.4292C169.688 31.6992 146.138 29.7892 128.258 34.0792" stroke="#BCBBFF" stroke-opacity="0.4" style="stroke:#BCBBFF;stroke:color(display-p3 0.7373 0.7333 1.0000);stroke-opacity:0.4;" stroke-width="8" stroke-linecap="round" stroke-linejoin="round"/>
<path d="M215.219 236.759C227.289 243.129 238.889 245.569 250.779 242.479C256.069 241.109 261.349 238.459 264.239 233.819C266.709 229.839 267.109 224.799 265.989 220.249C264.869 215.699 262.349 211.599 259.349 207.999C247.809 194.149 230.139 185.909 222.419 169.619" stroke="#BCBBFF" stroke-opacity="0.4" style="stroke:#BCBBFF;stroke:color(display-p3 0.7373 0.7333 1.0000);stroke-opacity:0.4;" stroke-width="8" stroke-linecap="round" stroke-linejoin="round"/>
<path d="M134.952 98.9155C136.615 97.2283 138.841 96.1969 141.215 96.5782C143.595 96.9547 145.388 98.6322 146.44 100.755C147.494 102.881 147.878 105.569 147.44 108.325L147.439 108.327C146.996 111.089 145.79 113.523 144.125 115.214C142.463 116.903 140.238 117.937 137.864 117.561L137.861 117.561C135.482 117.179 133.689 115.503 132.637 113.379C131.583 111.253 131.199 108.565 131.637 105.804L131.637 105.802C132.081 103.04 133.287 100.606 134.952 98.9155Z" fill="black" style="fill:black;fill-opacity:1;"/>
<path d="M91.0129 96.4425C92.6315 94.9702 94.7497 94.1146 96.9373 94.6061C99.1277 95.0971 100.68 96.7732 101.516 98.797C102.354 100.825 102.541 103.329 101.972 105.849C101.408 108.372 100.167 110.557 98.5446 112.035C96.9258 113.509 94.8075 114.365 92.6197 113.873C90.4279 113.382 88.8758 111.702 88.0406 109.677C87.2032 107.646 87.0155 105.14 87.5851 102.62C88.1496 100.101 89.3902 97.9185 91.0129 96.4425Z" fill="black" style="fill:black;fill-opacity:1;"/>
<path d="M215.63 177.14C217.06 172.81 218.49 168.48 219.87 164.12C224.65 149.03 228.82 133.75 230.18 118.02C231.94 97.7597 228.61 76.3797 216.93 59.7197C200.79 36.7197 170.18 26.2297 142.42 30.6197C114.66 35.0097 90.1104 52.6497 73.4004 75.2497C59.0704 94.6397 50.0504 117.44 44.2904 140.93C43.3304 144.81 42.4704 148.71 41.6904 152.62C37.1304 175.36 35.2304 198.77 36.2204 222C37.9404 262.03 48.2604 301.5 68.3904 336.04C71.1204 340.73 76.9504 345.9 81.0804 342.38C82.4904 341.17 83.0904 339.24 84.3504 337.87C86.9004 335.09 91.5104 335.36 94.8204 337.16C98.1404 338.97 100.63 341.93 103.55 344.33C113.45 352.49 128.78 353.23 139.42 346.06C144.13 342.89 147.87 338.43 152.63 335.34C157.38 332.24 164.78 329.82 169.46 333.03" stroke="black" style="stroke:black;stroke-opacity:1;" stroke-width="8" stroke-linecap="round" stroke-linejoin="round"/>
<path d="M169.469 333.02C170.329 333.63 171.209 334.22 172.099 334.79C184.879 343.02 200.669 347.6 215.479 344.21C229.609 340.97 241.669 330.52 247.829 317.4C250.779 311.13 252.659 304.02 257.729 299.3C261.559 295.74 266.709 294.04 271.219 291.38C278.239 287.25 283.769 280.64 286.589 272.99C288.669 267.34 289.059 260.4 285.129 255.84C282.799 253.13 279.349 251.73 276.249 249.94C273.159 248.15 269.479 242.92 269.029 239.38" stroke="black" style="stroke:black;stroke-opacity:1;" stroke-width="8" stroke-linecap="round" stroke-linejoin="round"/>
<path d="M141.52 303.17C150.771 314.489 160.615 325.612 172.652 333.913" stroke="black" style="stroke:black;stroke-opacity:1;" stroke-width="6" stroke-linecap="round" stroke-linejoin="round"/>
<path d="M82.2088 323.08C77.5288 315.64 73.6088 307.71 70.5488 299.47" stroke="black" style="stroke:black;stroke-opacity:1;" stroke-width="6" stroke-linecap="round" stroke-linejoin="round"/>
<path d="M241.589 289.169C224.829 283.059 209.239 273.769 195.879 261.939" stroke="black" style="stroke:black;stroke-opacity:1;" stroke-width="6" stroke-linecap="round" stroke-linejoin="round"/>
<path d="M35.959 222.01C34.049 213.81 29.079 205.92 24.279 199C19.489 192.08 14.229 185.43 10.309 177.98C6.38899 170.52 3.84899 162.04 5.00899 153.69C6.17899 145.35 11.619 137.3 19.639 134.72C27.459 132.21 37.429 136.41 44.289 140.93" stroke="black" style="stroke:black;stroke-opacity:1;" stroke-width="8" stroke-linecap="round" stroke-linejoin="round"/>
<path d="M212.988 235.47C219.578 239.28 226.218 243.12 233.408 245.6C240.598 248.08 248.478 249.15 255.858 247.3C260.888 246.04 265.648 243.27 269.028 239.38C270.598 237.57 271.868 235.51 272.728 233.24C276.348 223.68 271.958 212.66 264.988 205.18C258.018 197.7 248.798 192.79 240.308 187.09C231.818 181.39 223.148 173.8 219.868 164.12" stroke="black" style="stroke:black;stroke-opacity:1;" stroke-width="8" stroke-linecap="round" stroke-linejoin="round"/>
<path d="M236.263 15.1285C236.766 17.4328 236.242 20.0897 234.452 21.6244C232.66 23.1662 229.001 23.209 227.754 21.2017L227.513 21.3389C225.366 17.7436 222.967 14.4448 220.359 11.6719C219.735 9.70603 220.042 7.53113 221.411 5.98308C222.9 4.29256 225.544 4.0171 227.656 4.80797C229.762 5.59612 231.421 7.25329 232.864 8.98342C234.381 10.799 235.756 12.8143 236.263 15.1285Z" fill="#E5E5FF" style="fill:#E5E5FF;fill:color(display-p3 0.8980 0.8980 1.0000);fill-opacity:1;"/>
<path d="M242.51 74.6041C241.66 91.0441 237.53 107.314 230.89 122.334C230.33 121.524 229.77 120.714 229.19 119.914C223.9 112.454 218.07 105.384 211.77 98.7441L212.78 97.7941C218.81 86.0241 223.57 74.6741 225.67 60.4241C225.67 50.5041 224.46 43.8941 221.37 34.9941H221.38C233.68 48.5441 242.51 64.5541 242.51 74.6041Z" fill="#BCBBFF" style="fill:#BCBBFF;fill:color(display-p3 0.7391 0.7337 1.0000);fill-opacity:1;"/>
<path d="M211.768 98.7434C218.068 105.383 223.898 112.453 229.188 119.913L228.888 120.123C223.668 112.843 215.918 107.403 207.288 104.983C199.118 102.693 190.368 103.063 182.198 100.753C166.778 96.4134 155.648 83.4034 142.468 74.3034C131.398 66.6734 118.228 61.6234 104.788 61.8634C91.3482 62.1134 73.5382 68.5234 65.7282 79.4534C57.0482 77.9834 51.4282 76.4734 45.3582 71.1634C42.1282 68.3434 39.8882 64.6434 39.2882 61.9834C38.2782 57.4534 42.4382 53.5034 46.3882 51.0634C59.2982 43.1134 74.6482 39.6234 89.7982 39.6634C90.0282 39.6634 90.2682 39.6634 90.4982 39.6634C105.418 39.7934 120.178 43.1834 134.238 48.1634C163.598 58.5634 190.358 76.1234 211.768 98.7334V98.7434Z" fill="#BCBBFF" style="fill:#BCBBFF;fill:color(display-p3 0.7391 0.7337 1.0000);fill-opacity:1;"/>
<path d="M221.368 34.9939C224.458 43.8939 225.668 50.5039 225.668 60.4239C223.568 74.6739 218.808 86.0239 212.778 97.7939L211.768 98.7439C190.358 76.1339 163.598 58.5739 134.238 48.1739C120.178 43.1939 105.418 39.8039 90.498 39.6739V39.4439C98.808 31.2639 106.108 20.8439 118.408 14.4039C142.228 2.83387 171.338 2.78387 195.138 14.3139C199.618 16.4839 204.088 19.3939 208.388 22.7839C212.968 26.3939 217.358 30.5639 221.378 34.9839H221.368V34.9939Z" fill="#E5E5FF" style="fill:#E5E5FF;fill:color(display-p3 0.8980 0.8980 1.0000);fill-opacity:1;"/>
<path d="M92.51 39.8564C99.5967 31.1983 106.109 20.8439 118.409 14.4039C142.229 2.83387 171.339 2.78387 195.139 14.3139C199.619 16.4839 204.089 19.3939 208.389 22.7839C212.969 26.3939 217.359 30.5639 221.379 34.9839C233.679 48.5439 239.79 65.3657 239.79 78.6451C239.79 95.1071 237.529 107.314 230.889 122.334M92.51 39.8564C107.43 39.9864 120.179 43.1939 134.239 48.1739C163.599 58.5739 190.359 76.1339 211.769 98.7439C218.069 105.384 223.899 112.454 229.189 119.914M92.51 39.8564C92.28 39.8564 92.74 39.8564 92.51 39.8564ZM92.51 39.8564C77.36 39.8164 56.6771 42.0188 46.7122 48.1739C41.2685 51.5363 38.8019 56.8908 39.2887 61.9939C39.6236 65.5054 42.2915 69.101 45.5215 71.921C51.5915 77.231 59.1101 79.6966 67.7901 81.1666C75.6001 70.2366 91.3487 62.1239 104.789 61.8739C118.229 61.6339 131.399 66.6839 142.469 74.3139C155.649 83.4139 166.779 96.4239 182.199 100.764C190.369 103.074 199.119 102.704 207.289 104.994C215.919 107.414 223.969 112.634 229.189 119.914M230.889 122.334C230.329 121.524 229.769 120.714 229.189 119.914M230.889 122.334C230.569 121.834 229.539 120.404 229.189 119.914" stroke="black" style="stroke:black;stroke-opacity:1;" stroke-width="8" stroke-linecap="round" stroke-linejoin="round"/>
<path d="M220.361 11.6719C219.737 9.70603 220.044 7.53113 221.413 5.98308C222.902 4.29256 225.545 4.0171 227.658 4.80797C229.764 5.59612 231.423 7.25329 232.866 8.98342C234.383 10.799 235.757 12.8143 236.265 15.1285C236.768 17.4328 236.244 20.0897 234.454 21.6244C232.662 23.1662 229.003 23.209 227.756 21.2017" stroke="black" style="stroke:black;stroke-opacity:1;" stroke-width="8" stroke-linecap="round" stroke-linejoin="round"/>
<path d="M216.456 31.294C221.629 37.4369 224.447 45.0269 225.083 50.0399C225.956 56.9134 225.342 63.9112 223.617 70.6218C221.109 80.3765 217.301 88.9672 212.779 97.7941" stroke="black" style="stroke:black;stroke-opacity:1;" stroke-width="6" stroke-linecap="round" stroke-linejoin="round"/>
<path d="M147.253 41.2718C149.784 41.8146 152.276 40.2029 152.819 37.672C153.362 35.1412 151.75 32.6495 149.219 32.1067C146.688 31.5639 144.197 33.1755 143.654 35.7064C143.111 38.2373 144.723 40.729 147.253 41.2718Z" fill="#7B7BAC" style="fill:#7B7BAC;fill:color(display-p3 0.4824 0.4824 0.6745);fill-opacity:1;"/>
<path d="M158.665 45.7264C161.195 46.2692 163.687 44.6576 164.23 42.1267C164.773 39.5958 163.161 37.1041 160.63 36.5613C158.099 36.0185 155.608 37.6302 155.065 40.1611C154.522 42.6919 156.134 45.1836 158.665 45.7264Z" fill="#7B7BAC" style="fill:#7B7BAC;fill:color(display-p3 0.4824 0.4824 0.6745);fill-opacity:1;"/>
<path d="M160.97 20.8912C150.025 16.6184 137.733 21.4412 132.203 31.7132C131.433 33.1443 132.197 34.8635 133.711 35.4546V35.4546C135.225 36.0457 136.912 35.2794 137.738 33.8795C142.023 26.6193 150.861 23.2622 158.83 26.3731C166.799 29.4839 171.025 37.9414 169.258 46.1844C168.917 47.7738 169.638 49.4802 171.153 50.0713V50.0713C172.667 50.6623 174.393 49.9152 174.796 48.3406C177.687 37.0385 171.914 25.1635 160.97 20.8912Z" fill="#7B7BAC" style="fill:#7B7BAC;fill:color(display-p3 0.4824 0.4824 0.6745);fill-opacity:1;"/>
<ellipse cx="185.59" cy="394.43" rx="103.381" ry="9.19141" fill="black" fill-opacity="0.15" style="fill:black;fill-opacity:0.15;"/>
</svg>
