<svg width="293" height="379" viewBox="0 0 293 379" fill="none" xmlns="http://www.w3.org/2000/svg">
<path d="M44.289 116.217C43.329 120.097 42.469 123.997 41.689 127.907C37.129 150.647 35.229 174.057 36.219 197.287H35.959C34.049 189.097 29.079 181.207 24.279 174.287C19.489 167.367 14.229 160.717 10.309 153.267C6.38899 145.807 3.84899 137.327 5.00899 128.977C6.17899 120.637 11.619 112.587 19.639 110.007C27.459 107.497 37.429 111.697 44.289 116.217Z" fill="white" fill-opacity="0.75" style="fill:white;fill-opacity:0.75;"/>
<path d="M269.03 214.667C269.48 218.207 273.16 223.437 276.25 225.227C279.35 227.017 282.8 228.417 285.13 231.127C289.06 235.687 288.67 242.627 286.59 248.277C283.77 255.927 278.24 262.537 271.22 266.667C266.71 269.327 261.56 271.027 257.73 274.587C252.66 279.307 250.78 286.417 247.83 292.687C241.67 305.807 229.61 316.257 215.48 319.497C200.67 322.887 184.88 318.307 172.1 310.077C171.21 309.507 170.33 308.917 169.47 308.307H169.46C164.78 305.107 157.38 307.527 152.63 310.627C147.87 313.717 144.13 318.177 139.42 321.347C128.78 328.517 113.45 327.777 103.55 319.617C100.63 317.217 98.1404 314.257 94.8204 312.447C91.5104 310.647 86.9004 310.377 84.3504 313.157C83.0904 314.527 82.4904 316.457 81.0804 317.667C76.9504 321.187 71.1204 316.017 68.3904 311.327C48.2604 276.787 37.9404 237.317 36.2204 197.287C35.2304 174.057 37.1304 150.647 41.6904 127.907C42.4704 123.997 43.3304 120.097 44.2904 116.217C50.0504 92.7269 59.0704 69.9269 73.4004 50.5369C90.1104 27.9369 114.66 10.2969 142.42 5.90686C170.18 1.51686 200.79 12.0069 216.93 35.0069C228.61 51.6669 231.94 73.0469 230.18 93.3069C228.82 109.037 224.65 124.317 219.87 139.407C223.15 149.087 231.82 156.677 240.31 162.377C248.8 168.077 258.02 172.987 264.99 180.467C271.96 187.947 276.35 198.967 272.73 208.527C271.87 210.797 270.6 212.857 269.03 214.667Z" fill="white" fill-opacity="0.75" style="fill:white;fill-opacity:0.75;"/>
<path d="M280.918 228.097C276.878 224.407 270.928 221.757 269.328 216.797C269.288 216.817 269.258 216.847 269.228 216.877C265.958 219.157 264.328 220.067 260.748 221.767C256.828 223.627 252.868 224.987 248.488 225.167C247.938 225.187 247.358 225.207 246.768 225.237C250.898 226.867 254.718 229.037 257.768 232.247C263.778 238.577 264.818 250.367 257.578 255.237C252.538 258.627 245.578 257.537 240.228 260.417C233.848 263.857 231.558 271.787 230.518 278.967C229.478 286.137 228.848 293.947 224.038 299.367C218.128 306.027 207.758 306.707 199.198 304.227C190.638 301.747 183.048 296.747 174.758 293.507C166.458 290.277 156.518 289.027 149.048 293.877C141.058 299.067 137.418 310.217 128.308 313.007C121.128 315.207 113.638 311.187 107.338 307.077C101.048 302.977 94.0877 298.427 86.6577 299.537C80.8177 300.407 75.5077 304.747 69.6577 303.937C65.6077 303.377 62.2277 300.347 60.2177 296.787C58.6377 293.997 56.2277 291.197 54.8477 288.187C58.0377 296.757 63.7077 304.067 68.1177 311.307C70.0777 314.527 72.5877 317.927 76.2977 318.597C80.3977 319.347 84.7177 315.707 84.6777 311.537C92.8177 313.077 99.0277 317.477 105.638 321.017C112.248 324.557 119.738 327.307 127.138 326.057C141.688 323.597 151.598 306.587 166.338 307.117C177.718 317.127 193.358 322.277 208.288 320.427C223.218 318.577 237.138 309.777 245.208 297.087C249.808 289.847 252.628 281.407 258.448 275.107C266.708 266.167 280.368 262.217 285.518 251.197C289.078 243.597 287.118 233.777 280.908 228.117L280.918 228.097Z" fill="#BCBBFF" fill-opacity="0.4" style="fill:#BCBBFF;fill:color(display-p3 0.7373 0.7333 1.0000);fill-opacity:0.4;"/>
<ellipse cx="77.095" cy="87.6309" rx="7.9148" ry="6.57367" transform="rotate(11.2397 77.095 87.6309)" fill="#BCBBFF" fill-opacity="0.4" style="fill:#BCBBFF;fill:color(display-p3 0.7373 0.7333 1.0000);fill-opacity:0.4;"/>
<ellipse cx="159.051" cy="92.2653" rx="9.18965" ry="7.6325" transform="rotate(1.09845 159.051 92.2653)" fill="#BCBBFF" fill-opacity="0.4" style="fill:#BCBBFF;fill:color(display-p3 0.7373 0.7333 1.0000);fill-opacity:0.4;"/>
<path d="M215.628 152.426C219.648 137.566 223.568 117.466 225.288 102.176C227.008 86.8863 226.318 71.0663 221.088 56.5863C214.848 39.2963 202.058 24.4463 185.868 15.7163C169.688 6.98631 146.138 5.07631 128.258 9.36631" stroke="#BCBBFF" stroke-opacity="0.4" style="stroke:#BCBBFF;stroke:color(display-p3 0.7373 0.7333 1.0000);stroke-opacity:0.4;" stroke-width="8" stroke-linecap="round" stroke-linejoin="round"/>
<path d="M215.219 212.046C227.289 218.416 238.889 220.856 250.779 217.766C256.069 216.396 261.349 213.746 264.239 209.106C266.709 205.126 267.109 200.086 265.989 195.536C264.869 190.986 262.349 186.886 259.349 183.286C247.809 169.436 230.139 161.196 222.419 144.906" stroke="#BCBBFF" stroke-opacity="0.4" style="stroke:#BCBBFF;stroke:color(display-p3 0.7373 0.7333 1.0000);stroke-opacity:0.4;" stroke-width="8" stroke-linecap="round" stroke-linejoin="round"/>
<path d="M134.952 74.2026C136.615 72.5154 138.841 71.484 141.215 71.8653C143.595 72.2418 145.388 73.9193 146.44 76.0418C147.494 78.1682 147.878 80.8558 147.44 83.6121L147.439 83.6145C146.996 86.3765 145.79 88.8099 144.125 90.5014C142.463 92.19 140.238 93.2236 137.864 92.8482L137.861 92.8476C135.482 92.4658 133.689 90.7902 132.637 88.6664C131.583 86.5397 131.199 83.8522 131.637 81.0916L131.637 81.0887C132.081 78.3268 133.287 75.8931 134.952 74.2026Z" fill="black" style="fill:black;fill-opacity:1;"/>
<path d="M91.0129 71.7296C92.6315 70.2573 94.7497 69.4017 96.9373 69.8932C99.1277 70.3842 100.68 72.0603 101.516 74.0841C102.354 76.1125 102.541 78.6161 101.972 81.1357C101.408 83.6595 100.167 85.8446 98.5446 87.3221C96.9258 88.796 94.8075 89.6518 92.6197 89.1602C90.4279 88.6689 88.8758 86.9889 88.0406 84.9636C87.2032 82.9332 87.0155 80.4273 87.5851 77.9074C88.1496 75.3881 89.3902 73.2056 91.0129 71.7296Z" fill="black" style="fill:black;fill-opacity:1;"/>
<path d="M215.63 152.427C217.06 148.097 218.49 143.767 219.87 139.407C224.65 124.317 228.82 109.037 230.18 93.3069C231.94 73.0469 228.61 51.6669 216.93 35.0069C200.79 12.0069 170.18 1.51686 142.42 5.90686C114.66 10.2969 90.1104 27.9369 73.4004 50.5369C59.0704 69.9269 50.0504 92.7269 44.2904 116.217C43.3304 120.097 42.4704 123.997 41.6904 127.907C37.1304 150.647 35.2304 174.057 36.2204 197.287C37.9404 237.317 48.2604 276.787 68.3904 311.327C71.1204 316.017 76.9504 321.187 81.0804 317.667C82.4904 316.457 83.0904 314.527 84.3504 313.157C86.9004 310.377 91.5104 310.647 94.8204 312.447C98.1404 314.257 100.63 317.217 103.55 319.617C113.45 327.777 128.78 328.517 139.42 321.347C144.13 318.177 147.87 313.717 152.63 310.627C157.38 307.527 164.78 305.107 169.46 308.317" stroke="black" style="stroke:black;stroke-opacity:1;" stroke-width="8" stroke-linecap="round" stroke-linejoin="round"/>
<path d="M169.469 308.307C170.329 308.917 171.209 309.507 172.099 310.077C184.879 318.307 200.669 322.887 215.479 319.497C229.609 316.257 241.669 305.807 247.829 292.687C250.779 286.417 252.659 279.307 257.729 274.587C261.559 271.027 266.709 269.327 271.219 266.667C278.239 262.537 283.769 255.927 286.589 248.277C288.669 242.627 289.059 235.687 285.129 231.127C282.799 228.417 279.349 227.017 276.249 225.227C273.159 223.437 269.479 218.207 269.029 214.667" stroke="black" style="stroke:black;stroke-opacity:1;" stroke-width="8" stroke-linecap="round" stroke-linejoin="round"/>
<path d="M141.52 278.457C150.771 289.776 160.615 300.899 172.652 309.2" stroke="black" style="stroke:black;stroke-opacity:1;" stroke-width="6" stroke-linecap="round" stroke-linejoin="round"/>
<path d="M82.2088 298.367C77.5288 290.927 73.6088 282.997 70.5488 274.757" stroke="black" style="stroke:black;stroke-opacity:1;" stroke-width="6" stroke-linecap="round" stroke-linejoin="round"/>
<path d="M241.589 264.457C224.829 258.347 209.239 249.057 195.879 237.227" stroke="black" style="stroke:black;stroke-opacity:1;" stroke-width="6" stroke-linecap="round" stroke-linejoin="round"/>
<path d="M35.959 197.297C34.049 189.097 29.079 181.207 24.279 174.287C19.489 167.367 14.229 160.717 10.309 153.267C6.38899 145.807 3.84899 137.327 5.00899 128.977C6.17899 120.637 11.619 112.587 19.639 110.007C27.459 107.497 37.429 111.697 44.289 116.217" stroke="black" style="stroke:black;stroke-opacity:1;" stroke-width="8" stroke-linecap="round" stroke-linejoin="round"/>
<path d="M212.988 210.757C219.578 214.567 226.218 218.407 233.408 220.887C240.598 223.367 248.478 224.437 255.858 222.587C260.888 221.327 265.648 218.557 269.028 214.667C270.598 212.857 271.868 210.797 272.728 208.527C276.348 198.967 271.958 187.947 264.988 180.467C258.018 172.987 248.798 168.077 240.308 162.377C231.818 156.677 223.148 149.087 219.868 139.407" stroke="black" style="stroke:black;stroke-opacity:1;" stroke-width="8" stroke-linecap="round" stroke-linejoin="round"/>
<ellipse cx="185.59" cy="369.717" rx="103.381" ry="9.19141" fill="black" fill-opacity="0.15" style="fill:black;fill-opacity:0.15;"/>
</svg>
