<svg width="293" height="404" viewBox="0 0 293 404" fill="none" xmlns="http://www.w3.org/2000/svg">
<path d="M44.289 141.063C43.329 144.943 42.469 148.843 41.689 152.753C37.129 175.493 35.229 198.903 36.219 222.133H35.959C34.049 213.943 29.079 206.053 24.279 199.133C19.489 192.213 14.229 185.563 10.309 178.113C6.38899 170.653 3.84899 162.173 5.00899 153.823C6.17899 145.483 11.619 137.433 19.639 134.853C27.459 132.343 37.429 136.543 44.289 141.063Z" fill="white" fill-opacity="0.75" style="fill:white;fill-opacity:0.75;"/>
<path d="M269.03 239.514C269.48 243.054 273.16 248.284 276.25 250.074C279.35 251.864 282.8 253.264 285.13 255.974C289.06 260.534 288.67 267.474 286.59 273.124C283.77 280.774 278.24 287.384 271.22 291.514C266.71 294.174 261.56 295.874 257.73 299.434C252.66 304.154 250.78 311.264 247.83 317.534C241.67 330.654 229.61 341.104 215.48 344.344C200.67 347.734 184.88 343.154 172.1 334.924C171.21 334.354 170.33 333.764 169.47 333.154H169.46C164.78 329.954 157.38 332.374 152.63 335.474C147.87 338.564 144.13 343.024 139.42 346.194C128.78 353.364 113.45 352.624 103.55 344.464C100.63 342.064 98.1404 339.104 94.8204 337.294C91.5104 335.494 86.9004 335.224 84.3504 338.004C83.0904 339.374 82.4904 341.304 81.0804 342.514C76.9504 346.034 71.1204 340.864 68.3904 336.174C48.2604 301.634 37.9404 262.164 36.2204 222.134C35.2304 198.904 37.1304 175.494 41.6904 152.754C42.4704 148.844 43.3304 144.944 44.2904 141.064C50.0504 117.574 59.0704 94.7735 73.4004 75.3835C90.1104 52.7835 114.66 35.1435 142.42 30.7535C170.18 26.3635 200.79 36.8535 216.93 59.8535C228.61 76.5135 231.94 97.8935 230.18 118.154C228.82 133.884 224.65 149.164 219.87 164.254C223.15 173.934 231.82 181.524 240.31 187.224C248.8 192.924 258.02 197.834 264.99 205.314C271.96 212.794 276.35 223.814 272.73 233.374C271.87 235.644 270.6 237.704 269.03 239.514Z" fill="white" fill-opacity="0.75" style="fill:white;fill-opacity:0.75;"/>
<path d="M280.918 252.944C276.878 249.254 270.928 246.604 269.328 241.644C269.288 241.664 269.258 241.694 269.228 241.724C265.958 244.004 264.328 244.914 260.748 246.614C256.828 248.474 252.868 249.834 248.488 250.014C247.938 250.034 247.358 250.054 246.768 250.084C250.898 251.714 254.718 253.884 257.768 257.094C263.778 263.424 264.818 275.214 257.578 280.084C252.538 283.474 245.578 282.384 240.228 285.264C233.848 288.704 231.558 296.634 230.518 303.814C229.478 310.984 228.848 318.794 224.038 324.214C218.128 330.874 207.758 331.554 199.198 329.074C190.638 326.594 183.048 321.594 174.758 318.354C166.458 315.124 156.518 313.874 149.048 318.724C141.058 323.914 137.418 335.064 128.308 337.854C121.128 340.054 113.638 336.034 107.338 331.924C101.048 327.824 94.0877 323.274 86.6577 324.384C80.8177 325.254 75.5077 329.594 69.6577 328.784C65.6077 328.224 62.2277 325.194 60.2177 321.634C58.6377 318.844 56.2277 316.044 54.8477 313.034C58.0377 321.604 63.7077 328.914 68.1177 336.154C70.0777 339.374 72.5877 342.774 76.2977 343.444C80.3977 344.194 84.7177 340.554 84.6777 336.384C92.8177 337.924 99.0277 342.324 105.638 345.864C112.248 349.404 119.738 352.154 127.138 350.904C141.688 348.444 151.598 331.434 166.338 331.964C177.718 341.974 193.358 347.124 208.288 345.274C223.218 343.424 237.138 334.624 245.208 321.934C249.808 314.694 252.628 306.254 258.448 299.954C266.708 291.014 280.368 287.064 285.518 276.044C289.078 268.444 287.118 258.624 280.908 252.964L280.918 252.944Z" fill="#BCBBFF" fill-opacity="0.4" style="fill:#BCBBFF;fill:color(display-p3 0.7373 0.7333 1.0000);fill-opacity:0.4;"/>
<ellipse cx="77.095" cy="112.478" rx="7.9148" ry="6.57367" transform="rotate(11.2397 77.095 112.478)" fill="#BCBBFF" fill-opacity="0.4" style="fill:#BCBBFF;fill:color(display-p3 0.7373 0.7333 1.0000);fill-opacity:0.4;"/>
<ellipse cx="159.051" cy="117.112" rx="9.18965" ry="7.6325" transform="rotate(1.09845 159.051 117.112)" fill="#BCBBFF" fill-opacity="0.4" style="fill:#BCBBFF;fill:color(display-p3 0.7373 0.7333 1.0000);fill-opacity:0.4;"/>
<path d="M215.628 177.273C219.648 162.413 223.568 142.313 225.288 127.023C227.008 111.733 226.318 95.913 221.088 81.433C214.848 64.143 202.058 49.293 185.868 40.563C169.688 31.833 146.138 29.923 128.258 34.213" stroke="#BCBBFF" stroke-opacity="0.4" style="stroke:#BCBBFF;stroke:color(display-p3 0.7373 0.7333 1.0000);stroke-opacity:0.4;" stroke-width="8" stroke-linecap="round" stroke-linejoin="round"/>
<path d="M215.219 236.893C227.289 243.263 238.889 245.703 250.779 242.613C256.069 241.243 261.349 238.593 264.239 233.953C266.709 229.973 267.109 224.933 265.989 220.383C264.869 215.833 262.349 211.733 259.349 208.133C247.809 194.283 230.139 186.043 222.419 169.753" stroke="#BCBBFF" stroke-opacity="0.4" style="stroke:#BCBBFF;stroke:color(display-p3 0.7373 0.7333 1.0000);stroke-opacity:0.4;" stroke-width="8" stroke-linecap="round" stroke-linejoin="round"/>
<path d="M134.952 99.0493C136.615 97.3621 138.841 96.3307 141.215 96.712C143.595 97.0884 145.388 98.766 146.44 100.889C147.494 103.015 147.878 105.703 147.44 108.459L147.439 108.461C146.996 111.223 145.79 113.657 144.125 115.348C142.463 117.037 140.238 118.07 137.864 117.695L137.861 117.694C135.482 117.312 133.689 115.637 132.637 113.513C131.583 111.386 131.199 108.699 131.637 105.938L131.637 105.935C132.081 103.174 133.287 100.74 134.952 99.0493Z" fill="black" style="fill:black;fill-opacity:1;"/>
<path d="M91.0129 96.5763C92.6315 95.104 94.7497 94.2484 96.9373 94.7399C99.1277 95.2309 100.68 96.907 101.516 98.9308C102.354 100.959 102.541 103.463 101.972 105.982C101.408 108.506 100.167 110.691 98.5446 112.169C96.9258 113.643 94.8075 114.498 92.6197 114.007C90.4279 113.516 88.8758 111.836 88.0406 109.81C87.2032 107.78 87.0155 105.274 87.5851 102.754C88.1496 100.235 89.3902 98.0523 91.0129 96.5763Z" fill="black" style="fill:black;fill-opacity:1;"/>
<path d="M215.63 177.274C217.06 172.944 218.49 168.614 219.87 164.254C224.65 149.164 228.82 133.884 230.18 118.154C231.94 97.8935 228.61 76.5135 216.93 59.8535C200.79 36.8535 170.18 26.3635 142.42 30.7535C114.66 35.1435 90.1104 52.7835 73.4004 75.3835C59.0704 94.7735 50.0504 117.574 44.2904 141.064C43.3304 144.944 42.4704 148.844 41.6904 152.754C37.1304 175.494 35.2304 198.904 36.2204 222.134C37.9404 262.164 48.2604 301.634 68.3904 336.174C71.1204 340.864 76.9504 346.034 81.0804 342.514C82.4904 341.304 83.0904 339.374 84.3504 338.004C86.9004 335.224 91.5104 335.494 94.8204 337.294C98.1404 339.104 100.63 342.064 103.55 344.464C113.45 352.624 128.78 353.364 139.42 346.194C144.13 343.024 147.87 338.564 152.63 335.474C157.38 332.374 164.78 329.954 169.46 333.164" stroke="black" style="stroke:black;stroke-opacity:1;" stroke-width="8" stroke-linecap="round" stroke-linejoin="round"/>
<path d="M169.469 333.154C170.329 333.764 171.209 334.354 172.099 334.924C184.879 343.154 200.669 347.734 215.479 344.344C229.609 341.104 241.669 330.654 247.829 317.534C250.779 311.264 252.659 304.154 257.729 299.434C261.559 295.874 266.709 294.174 271.219 291.514C278.239 287.384 283.769 280.774 286.589 273.124C288.669 267.474 289.059 260.534 285.129 255.974C282.799 253.264 279.349 251.864 276.249 250.074C273.159 248.284 269.479 243.054 269.029 239.514" stroke="black" style="stroke:black;stroke-opacity:1;" stroke-width="8" stroke-linecap="round" stroke-linejoin="round"/>
<path d="M141.52 303.304C150.771 314.623 160.615 325.746 172.652 334.047" stroke="black" style="stroke:black;stroke-opacity:1;" stroke-width="6" stroke-linecap="round" stroke-linejoin="round"/>
<path d="M82.2088 323.214C77.5288 315.774 73.6088 307.844 70.5488 299.604" stroke="black" style="stroke:black;stroke-opacity:1;" stroke-width="6" stroke-linecap="round" stroke-linejoin="round"/>
<path d="M241.589 289.303C224.829 283.193 209.239 273.903 195.879 262.073" stroke="black" style="stroke:black;stroke-opacity:1;" stroke-width="6" stroke-linecap="round" stroke-linejoin="round"/>
<path d="M35.959 222.143C34.049 213.943 29.079 206.053 24.279 199.133C19.489 192.213 14.229 185.563 10.309 178.113C6.38899 170.653 3.84899 162.173 5.00899 153.823C6.17899 145.483 11.619 137.433 19.639 134.853C27.459 132.343 37.429 136.543 44.289 141.063" stroke="black" style="stroke:black;stroke-opacity:1;" stroke-width="8" stroke-linecap="round" stroke-linejoin="round"/>
<path d="M212.988 235.604C219.578 239.414 226.218 243.254 233.408 245.734C240.598 248.214 248.478 249.284 255.858 247.434C260.888 246.174 265.648 243.404 269.028 239.514C270.598 237.704 271.868 235.644 272.728 233.374C276.348 223.814 271.958 212.794 264.988 205.314C258.018 197.834 248.798 192.924 240.308 187.224C231.818 181.524 223.148 173.934 219.868 164.254" stroke="black" style="stroke:black;stroke-opacity:1;" stroke-width="8" stroke-linecap="round" stroke-linejoin="round"/>
<path d="M236.263 15.2622C236.766 17.5666 236.242 20.2235 234.452 21.7582C232.66 23.3 229.001 23.3428 227.754 21.3355L227.513 21.4727C225.366 17.8774 222.967 14.5786 220.359 11.8057C219.735 9.83982 220.042 7.66492 221.411 6.11687C222.9 4.42634 225.544 4.15089 227.656 4.94176C229.762 5.72991 231.421 7.38708 232.864 9.11721C234.381 10.9328 235.756 12.9481 236.263 15.2622Z" fill="#E5E5FF" style="fill:#E5E5FF;fill:color(display-p3 0.8980 0.8980 1.0000);fill-opacity:1;"/>
<path d="M242.51 74.7379C241.66 91.1779 237.53 107.448 230.89 122.468C230.33 121.658 229.77 120.848 229.19 120.048C223.9 112.588 218.07 105.518 211.77 98.8779L212.78 97.9279C218.81 86.1579 223.57 74.8079 225.67 60.5579C225.67 50.6379 224.46 44.0279 221.37 35.1279H221.38C233.68 48.6779 242.51 64.6879 242.51 74.7379Z" fill="#BCBBFF" style="fill:#BCBBFF;fill:color(display-p3 0.7391 0.7337 1.0000);fill-opacity:1;"/>
<path d="M211.768 98.8772C218.068 105.517 223.898 112.587 229.188 120.047L228.888 120.257C223.668 112.977 215.918 107.537 207.288 105.117C199.118 102.827 190.368 103.197 182.198 100.887C166.778 96.5472 155.648 83.5372 142.468 74.4372C131.398 66.8072 118.228 61.7572 104.788 61.9972C91.3482 62.2472 73.5382 68.6572 65.7282 79.5872C57.0482 78.1172 51.4282 76.6072 45.3582 71.2972C42.1282 68.4772 39.8882 64.7772 39.2882 62.1172C38.2782 57.5872 42.4382 53.6372 46.3882 51.1972C59.2982 43.2472 74.6482 39.7572 89.7982 39.7972C90.0282 39.7972 90.2682 39.7972 90.4982 39.7972C105.418 39.9272 120.178 43.3172 134.238 48.2972C163.598 58.6972 190.358 76.2572 211.768 98.8672V98.8772Z" fill="#BCBBFF" style="fill:#BCBBFF;fill:color(display-p3 0.7391 0.7337 1.0000);fill-opacity:1;"/>
<path d="M221.368 35.1277C224.458 44.0277 225.668 50.6377 225.668 60.5577C223.568 74.8077 218.808 86.1576 212.778 97.9277L211.768 98.8777C190.358 76.2677 163.598 58.7077 134.238 48.3077C120.178 43.3277 105.418 39.9377 90.498 39.8077V39.5777C98.808 31.3977 106.108 20.9777 118.408 14.5377C142.228 2.96766 171.338 2.91766 195.138 14.4477C199.618 16.6177 204.088 19.5277 208.388 22.9177C212.968 26.5277 217.358 30.6977 221.378 35.1177H221.368V35.1277Z" fill="#E5E5FF" style="fill:#E5E5FF;fill:color(display-p3 0.8980 0.8980 1.0000);fill-opacity:1;"/>
<path d="M92.51 39.9902C99.5967 31.3321 106.109 20.9777 118.409 14.5377C142.229 2.96766 171.339 2.91766 195.139 14.4477C199.619 16.6177 204.089 19.5277 208.389 22.9177C212.969 26.5277 217.359 30.6977 221.379 35.1177C233.679 48.6777 239.79 65.4995 239.79 78.7789C239.79 95.2409 237.529 107.448 230.889 122.468M92.51 39.9902C107.43 40.1202 120.179 43.3277 134.239 48.3077C163.599 58.7077 190.359 76.2677 211.769 98.8777C218.069 105.518 223.899 112.588 229.189 120.048M92.51 39.9902C92.28 39.9902 92.74 39.9902 92.51 39.9902ZM92.51 39.9902C77.36 39.9502 56.6771 42.1526 46.7122 48.3077C41.2685 51.6701 38.8019 57.0246 39.2887 62.1277C39.6236 65.6391 42.2915 69.2348 45.5215 72.0548C51.5915 77.3648 59.1101 79.8304 67.7901 81.3004C75.6001 70.3704 91.3487 62.2577 104.789 62.0077C118.229 61.7677 131.399 66.8177 142.469 74.4477C155.649 83.5477 166.779 96.5577 182.199 100.898C190.369 103.208 199.119 102.838 207.289 105.128C215.919 107.548 223.969 112.768 229.189 120.048M230.889 122.468C230.329 121.658 229.769 120.848 229.189 120.048M230.889 122.468C230.569 121.968 229.539 120.538 229.189 120.048" stroke="black" style="stroke:black;stroke-opacity:1;" stroke-width="8" stroke-linecap="round" stroke-linejoin="round"/>
<path d="M220.361 11.8057C219.737 9.83982 220.044 7.66492 221.413 6.11687C222.902 4.42634 225.545 4.15089 227.658 4.94176C229.764 5.72991 231.423 7.38708 232.866 9.11721C234.383 10.9328 235.757 12.9481 236.265 15.2622C236.768 17.5666 236.244 20.2235 234.454 21.7582C232.662 23.3 229.003 23.3428 227.756 21.3355" stroke="black" style="stroke:black;stroke-opacity:1;" stroke-width="8" stroke-linecap="round" stroke-linejoin="round"/>
<path d="M216.456 31.4278C221.629 37.5707 224.447 45.1607 225.083 50.1737C225.956 57.0472 225.342 64.045 223.617 70.7555C221.109 80.5103 217.301 89.101 212.779 97.9279" stroke="black" style="stroke:black;stroke-opacity:1;" stroke-width="6" stroke-linecap="round" stroke-linejoin="round"/>
<path d="M146.322 26.0521C145.759 27.6089 146.566 29.3274 148.121 29.8894C149.676 30.4513 151.395 29.6451 151.957 28.0883C152.52 26.5315 151.713 24.8144 150.158 24.2524C148.602 23.6905 146.884 24.4967 146.322 26.0521Z" fill="#7B7BAC" style="fill:#7B7BAC;fill:color(display-p3 0.4837 0.4809 0.6755);fill-opacity:1;"/>
<path d="M153.427 28.6186C152.865 30.1753 153.671 31.8938 155.228 32.4563C156.785 33.0187 158.503 32.2125 159.066 30.6557C159.628 29.0989 158.821 27.3818 157.264 26.8193C155.708 26.2569 153.989 27.0631 153.427 28.6186Z" fill="#7B7BAC" style="fill:#7B7BAC;fill:color(display-p3 0.4837 0.4809 0.6755);fill-opacity:1;"/>
<path d="M164.352 30.2361C164.327 25.1603 161.213 20.4246 156.207 18.6161C149.778 16.2932 142.663 19.6786 140.315 26.1775C137.967 32.6764 141.275 39.8279 147.704 42.1507C153.061 44.0861 158.894 42.0589 162.049 37.5698L158.928 46.2061" stroke="#7B7BAC" style="stroke:#7B7BAC;stroke:color(display-p3 0.4837 0.4809 0.6755);stroke-opacity:1;" stroke-width="5" stroke-linecap="round" stroke-linejoin="round"/>
<ellipse cx="185.59" cy="394.563" rx="103.381" ry="9.19141" fill="black" fill-opacity="0.15" style="fill:black;fill-opacity:0.15;"/>
</svg>
