<svg width="790" height="492" viewBox="0 0 790 492" fill="none" xmlns="http://www.w3.org/2000/svg">
<path d="M325.264 228.712C324.304 232.592 323.444 236.492 322.664 240.402C318.104 263.142 316.204 286.552 317.194 309.782H316.934C315.024 301.592 310.054 293.702 305.254 286.782C300.464 279.862 295.204 273.212 291.284 265.762C287.364 258.302 284.824 249.822 285.984 241.472C287.154 233.132 292.594 225.082 300.614 222.502C308.434 219.992 318.404 224.192 325.264 228.712Z" fill="white" fill-opacity="0.75" style="fill:white;fill-opacity:0.75;"/>
<path d="M550.003 327.162C550.453 330.702 554.133 335.932 557.223 337.722C560.323 339.512 563.773 340.912 566.103 343.622C570.033 348.182 569.643 355.122 567.563 360.772C564.743 368.422 559.213 375.032 552.193 379.162C547.683 381.822 542.533 383.522 538.703 387.082C533.633 391.802 531.753 398.912 528.803 405.182C522.643 418.302 510.583 428.752 496.453 431.992C481.643 435.382 465.853 430.802 453.073 422.572C452.183 422.002 451.303 421.412 450.443 420.802H450.433C445.753 417.602 438.353 420.022 433.603 423.122C428.843 426.212 425.103 430.672 420.393 433.842C409.753 441.012 394.423 440.272 384.523 432.112C381.603 429.712 379.113 426.752 375.793 424.942C372.483 423.142 367.873 422.872 365.323 425.652C364.063 427.022 363.463 428.952 362.053 430.162C357.923 433.682 352.093 428.512 349.363 423.822C329.233 389.282 318.913 349.812 317.193 309.782C316.203 286.552 318.103 263.142 322.663 240.402C323.443 236.492 324.303 232.592 325.263 228.712C331.023 205.222 340.043 182.422 354.373 163.032C371.083 140.432 395.633 122.792 423.393 118.402C451.153 114.012 481.763 124.502 497.903 147.502C509.583 164.162 512.913 185.542 511.153 205.802C509.793 221.532 505.623 236.812 500.843 251.902C504.123 261.582 512.793 269.172 521.283 274.872C529.773 280.572 538.993 285.482 545.963 292.962C552.933 300.442 557.323 311.462 553.703 321.022C552.843 323.292 551.573 325.352 550.003 327.162Z" fill="white" fill-opacity="0.75" style="fill:white;fill-opacity:0.75;"/>
<path d="M561.894 340.592C557.854 336.902 551.904 334.252 550.304 329.292C550.264 329.312 550.234 329.342 550.204 329.372C546.934 331.652 545.304 332.562 541.724 334.262C537.804 336.122 533.844 337.482 529.464 337.662C528.914 337.682 528.334 337.702 527.744 337.732C531.874 339.362 535.694 341.532 538.744 344.742C544.754 351.072 545.794 362.862 538.554 367.732C533.514 371.122 526.554 370.032 521.204 372.912C514.824 376.352 512.534 384.282 511.494 391.462C510.454 398.632 509.824 406.442 505.014 411.862C499.104 418.522 488.734 419.202 480.174 416.722C471.614 414.242 464.024 409.242 455.734 406.002C447.434 402.772 437.494 401.522 430.024 406.372C422.034 411.562 418.394 422.712 409.284 425.502C402.104 427.702 394.614 423.682 388.314 419.572C382.024 415.472 375.064 410.922 367.634 412.032C361.794 412.902 356.484 417.242 350.634 416.432C346.584 415.872 343.204 412.842 341.194 409.282C339.614 406.492 337.204 403.692 335.824 400.682C339.014 409.252 344.684 416.562 349.094 423.802C351.054 427.022 353.564 430.422 357.274 431.092C361.374 431.842 365.694 428.202 365.654 424.032C373.794 425.572 380.004 429.972 386.614 433.512C393.224 437.052 400.714 439.802 408.114 438.552C422.664 436.092 432.574 419.082 447.314 419.612C458.694 429.622 474.334 434.772 489.264 432.922C504.194 431.072 518.114 422.272 526.184 409.582C530.784 402.342 533.604 393.902 539.424 387.602C547.684 378.662 561.344 374.712 566.494 363.692C570.054 356.092 568.094 346.272 561.884 340.612L561.894 340.592Z" fill="black" fill-opacity="0.15" style="fill:black;fill-opacity:0.15;"/>
<ellipse cx="358.072" cy="200.126" rx="7.9148" ry="6.57367" transform="rotate(11.2397 358.072 200.126)" fill="black" fill-opacity="0.15" style="fill:black;fill-opacity:0.15;"/>
<ellipse cx="440.028" cy="204.76" rx="9.18965" ry="7.6325" transform="rotate(1.09845 440.028 204.76)" fill="black" fill-opacity="0.15" style="fill:black;fill-opacity:0.15;"/>
<path d="M496.604 264.921C500.624 250.061 504.544 229.961 506.264 214.671C507.984 199.381 507.294 183.561 502.064 169.081C495.824 151.791 483.034 136.941 466.844 128.211C450.664 119.481 427.114 117.571 409.234 121.861" stroke="black" stroke-opacity="0.15" style="stroke:black;stroke-opacity:0.15;" stroke-width="8" stroke-linecap="round" stroke-linejoin="round"/>
<path d="M496.195 324.541C508.265 330.911 519.865 333.351 531.755 330.261C537.045 328.891 542.325 326.241 545.215 321.601C547.685 317.621 548.085 312.581 546.965 308.031C545.845 303.481 543.325 299.381 540.325 295.781C528.785 281.931 511.115 273.691 503.395 257.401" stroke="black" stroke-opacity="0.15" style="stroke:black;stroke-opacity:0.15;" stroke-width="8" stroke-linecap="round" stroke-linejoin="round"/>
<path d="M415.929 186.698C417.591 185.011 419.817 183.979 422.191 184.36C424.572 184.737 426.365 186.414 427.417 188.537C428.47 190.663 428.855 193.351 428.416 196.107L428.416 196.11C427.972 198.872 426.767 201.305 425.101 202.997C423.439 204.685 421.214 205.719 418.841 205.343L418.837 205.343C416.459 204.961 414.666 203.285 413.613 201.161C412.56 199.035 412.176 196.347 412.614 193.587L412.614 193.584C413.058 190.822 414.263 188.388 415.929 186.698Z" fill="black" style="fill:black;fill-opacity:1;"/>
<path d="M371.99 184.225C373.608 182.752 375.726 181.897 377.914 182.388C380.104 182.879 381.657 184.555 382.493 186.579C383.33 188.608 383.518 191.111 382.949 193.631C382.384 196.155 381.144 198.34 379.521 199.817C377.902 201.291 375.784 202.147 373.596 201.655C371.405 201.164 369.852 199.484 369.017 197.459C368.18 195.428 367.992 192.922 368.562 190.403C369.126 187.883 370.367 185.701 371.99 184.225Z" fill="black" style="fill:black;fill-opacity:1;"/>
<path d="M496.603 264.922C498.033 260.592 499.463 256.262 500.843 251.902C505.623 236.812 509.793 221.532 511.153 205.802C512.913 185.542 509.583 164.162 497.903 147.502C481.763 124.502 451.153 114.012 423.393 118.402C395.633 122.792 371.083 140.432 354.373 163.032C340.043 182.422 331.023 205.222 325.263 228.712C324.303 232.592 323.443 236.492 322.663 240.402C318.103 263.142 316.203 286.552 317.193 309.782C318.913 349.812 329.233 389.282 349.363 423.822C352.093 428.512 357.923 433.682 362.053 430.162C363.463 428.952 364.063 427.022 365.323 425.652C367.873 422.872 372.483 423.142 375.793 424.942C379.113 426.752 381.603 429.712 384.523 432.112C394.423 440.272 409.753 441.012 420.393 433.842C425.103 430.672 428.843 426.212 433.603 423.122C438.353 420.022 445.753 417.602 450.433 420.812" stroke="black" style="stroke:black;stroke-opacity:1;" stroke-width="8" stroke-linecap="round" stroke-linejoin="round"/>
<path d="M450.443 420.802C451.303 421.412 452.183 422.002 453.073 422.572C465.853 430.802 481.643 435.382 496.453 431.992C510.583 428.752 522.643 418.302 528.803 405.182C531.753 398.912 533.633 391.802 538.703 387.082C542.533 383.522 547.683 381.822 552.193 379.162C559.213 375.032 564.743 368.422 567.563 360.772C569.643 355.122 570.033 348.182 566.103 343.622C563.773 340.912 560.323 339.512 557.223 337.722C554.133 335.932 550.453 330.702 550.003 327.162" stroke="black" style="stroke:black;stroke-opacity:1;" stroke-width="8" stroke-linecap="round" stroke-linejoin="round"/>
<path d="M422.492 390.952C431.744 402.271 441.588 413.394 453.625 421.695" stroke="black" style="stroke:black;stroke-opacity:1;" stroke-width="6" stroke-linecap="round" stroke-linejoin="round"/>
<path d="M363.183 410.862C358.503 403.422 354.583 395.492 351.523 387.252" stroke="black" style="stroke:black;stroke-opacity:1;" stroke-width="6" stroke-linecap="round" stroke-linejoin="round"/>
<path d="M522.564 376.952C505.804 370.842 490.214 361.552 476.854 349.722" stroke="black" style="stroke:black;stroke-opacity:1;" stroke-width="6" stroke-linecap="round" stroke-linejoin="round"/>
<path d="M316.934 309.792C315.024 301.592 310.054 293.702 305.254 286.782C300.464 279.862 295.204 273.212 291.284 265.762C287.364 258.302 284.824 249.822 285.984 241.472C287.154 233.132 292.594 225.082 300.614 222.502C308.434 219.992 318.404 224.192 325.264 228.712" stroke="black" style="stroke:black;stroke-opacity:1;" stroke-width="8" stroke-linecap="round" stroke-linejoin="round"/>
<path d="M493.965 323.252C500.555 327.062 507.195 330.902 514.385 333.382C521.575 335.862 529.455 336.932 536.835 335.082C541.865 333.822 546.625 331.052 550.005 327.162C551.575 325.352 552.845 323.292 553.705 321.022C557.325 311.462 552.935 300.442 545.965 292.962C538.995 285.482 529.775 280.572 521.285 274.872C512.795 269.172 504.125 261.582 500.845 251.902" stroke="black" style="stroke:black;stroke-opacity:1;" stroke-width="8" stroke-linecap="round" stroke-linejoin="round"/>
<path d="M517.238 102.911C517.741 105.215 517.217 107.872 515.427 109.407C513.635 110.948 509.975 110.991 508.728 108.984L508.488 109.121C506.341 105.526 503.942 102.227 501.334 99.4541C500.71 97.4883 501.017 95.3134 502.386 93.7653C503.875 92.0748 506.518 91.7993 508.631 92.5902C510.737 93.3783 512.396 95.0355 513.839 96.7656C515.355 98.5813 516.73 100.596 517.238 102.911Z" fill="#F2F2F2" style="fill:#F2F2F2;fill:color(display-p3 0.9472 0.9472 0.9472);fill-opacity:1;"/>
<path d="M523.482 162.386C522.632 178.826 518.502 195.096 511.862 210.116C511.302 209.306 510.742 208.496 510.162 207.696C504.872 200.236 499.042 193.166 492.742 186.526L493.752 185.576C499.782 173.806 504.542 162.456 506.642 148.206C506.642 138.286 505.432 131.676 502.342 122.776H502.352C514.652 136.326 523.482 152.336 523.482 162.386Z" fill="#D5D5D5" style="fill:#D5D5D5;fill:color(display-p3 0.8353 0.8353 0.8353);fill-opacity:1;"/>
<path d="M492.743 186.526C499.043 193.166 504.873 200.236 510.163 207.696L509.863 207.906C504.643 200.626 496.893 195.186 488.263 192.766C480.093 190.476 471.343 190.846 463.173 188.536C447.753 184.196 436.623 171.186 423.443 162.086C412.373 154.456 399.203 149.406 385.763 149.646C372.323 149.896 354.513 156.306 346.703 167.236C338.023 165.766 332.403 164.256 326.333 158.946C323.103 156.126 320.863 152.426 320.263 149.766C319.253 145.236 323.413 141.286 327.363 138.846C340.273 130.896 355.623 127.406 370.773 127.446C371.003 127.446 371.243 127.446 371.473 127.446C386.393 127.576 401.153 130.966 415.213 135.946C444.573 146.346 471.333 163.906 492.743 186.516V186.526Z" fill="#D5D5D5" style="fill:#D5D5D5;fill:color(display-p3 0.8353 0.8353 0.8353);fill-opacity:1;"/>
<path d="M502.343 122.776C505.433 131.676 506.643 138.286 506.643 148.206C504.543 162.456 499.783 173.806 493.753 185.576L492.743 186.526C471.333 163.916 444.573 146.356 415.213 135.956C401.153 130.976 386.393 127.586 371.473 127.456V127.226C379.783 119.046 387.083 108.626 399.383 102.186C423.203 90.6161 452.313 90.5661 476.113 102.096C480.593 104.266 485.063 107.176 489.363 110.566C493.943 114.176 498.333 118.346 502.353 122.766H502.343V122.776Z" fill="#F2F2F2" style="fill:#F2F2F2;fill:color(display-p3 0.9472 0.9472 0.9472);fill-opacity:1;"/>
<path d="M373.485 127.639C380.571 118.981 387.083 108.626 399.383 102.186C423.203 90.6161 452.313 90.5661 476.113 102.096C480.593 104.266 485.063 107.176 489.363 110.566C493.943 114.176 498.333 118.346 502.353 122.766C514.653 136.326 520.764 153.148 520.764 166.427C520.764 182.889 518.503 195.096 511.863 210.116M373.485 127.639C388.405 127.769 401.153 130.976 415.213 135.956C444.573 146.356 471.333 163.916 492.743 186.526C499.043 193.166 504.873 200.236 510.163 207.696M373.485 127.639C373.255 127.639 373.715 127.639 373.485 127.639ZM373.485 127.639C358.335 127.599 337.652 129.801 327.687 135.956C322.243 139.319 319.777 144.673 320.263 149.776C320.598 153.288 323.266 156.883 326.496 159.703C332.566 165.013 340.085 167.479 348.765 168.949C356.575 158.019 372.323 149.906 385.763 149.656C399.203 149.416 412.373 154.466 423.443 162.096C436.623 171.196 447.753 184.206 463.173 188.546C471.343 190.856 480.093 190.486 488.263 192.776C496.893 195.196 504.943 200.416 510.163 207.696M511.863 210.116C511.303 209.306 510.743 208.496 510.163 207.696M511.863 210.116C511.543 209.616 510.513 208.186 510.163 207.696" stroke="black" style="stroke:black;stroke-opacity:1;" stroke-width="8" stroke-linecap="round" stroke-linejoin="round"/>
<path d="M501.334 99.4541C500.71 97.4883 501.017 95.3134 502.386 93.7653C503.875 92.0748 506.518 91.7993 508.631 92.5902C510.737 93.3783 512.396 95.0355 513.839 96.7656C515.355 98.5813 516.73 100.596 517.238 102.911C517.741 105.215 517.217 107.872 515.427 109.407C513.635 110.948 509.975 110.991 508.728 108.984" stroke="black" style="stroke:black;stroke-opacity:1;" stroke-width="8" stroke-linecap="round" stroke-linejoin="round"/>
<path d="M497.431 119.076C502.604 125.219 505.421 132.809 506.058 137.822C506.93 144.696 506.316 151.693 504.591 158.404C502.084 168.159 498.276 176.749 493.754 185.576" stroke="black" style="stroke:black;stroke-opacity:1;" stroke-width="6" stroke-linecap="round" stroke-linejoin="round"/>
<path d="M427.294 113.701C426.732 115.257 427.538 116.976 429.094 117.538C430.649 118.1 432.367 117.294 432.93 115.737C433.492 114.18 432.686 112.463 431.13 111.901C429.575 111.339 427.856 112.145 427.294 113.701Z" fill="#8D8D8D" style="fill:#8D8D8D;fill:color(display-p3 0.5513 0.5513 0.5513);fill-opacity:1;"/>
<path d="M434.4 116.267C433.837 117.824 434.644 119.542 436.2 120.105C437.757 120.667 439.476 119.861 440.038 118.304C440.601 116.747 439.794 115.03 438.237 114.468C436.68 113.905 434.962 114.712 434.4 116.267Z" fill="#8D8D8D" style="fill:#8D8D8D;fill:color(display-p3 0.5513 0.5513 0.5513);fill-opacity:1;"/>
<path d="M445.325 117.885C445.299 112.809 442.186 108.073 437.18 106.264C430.751 103.942 423.636 107.327 421.287 113.826C418.939 120.325 422.248 127.476 428.677 129.799C434.033 131.735 439.866 129.707 443.021 125.218L439.901 133.855" stroke="#8D8D8D" style="stroke:#8D8D8D;stroke:color(display-p3 0.5513 0.5513 0.5513);stroke-opacity:1;" stroke-width="5" stroke-linecap="round" stroke-linejoin="round"/>
<ellipse cx="466.564" cy="482.212" rx="103.381" ry="9.19141" fill="black" fill-opacity="0.15" style="fill:black;fill-opacity:0.15;"/>
<rect x="4.78906" y="63.4854" width="298.693" height="188.648" rx="8" fill="white" fill-opacity="0.75" style="fill:white;fill-opacity:0.75;"/>
<path d="M165.313 158.416C165.313 158.416 182.098 130.116 199.756 121.068C223.091 109.11 242.488 130.643 266.897 121.068C283.251 114.652 303.482 94.8931 303.482 94.8931V252.135H4.78906C4.78906 252.135 23.5736 216.363 45.3677 207.175C71.3912 196.203 90.6429 226.642 117.061 216.658C144.691 206.217 165.313 158.416 165.313 158.416Z" fill="black" fill-opacity="0.15" style="fill:black;fill-opacity:0.15;"/>
<path d="M9.91602 249.361C22.5738 228.055 39.2956 200.737 65.7922 203.618C79.8523 204.561 97.274 217.407 111.426 215.801C148.902 211.103 162.865 149.229 193.919 126.648C219.087 105.866 246.486 130.001 274.071 117.234C286.176 111.611 294.108 100.514 303.482 90.6646" stroke="black" stroke-opacity="0.5" style="stroke:black;stroke-opacity:0.5;" stroke-width="8" stroke-linecap="round" stroke-linejoin="round"/>
<rect x="4.78906" y="63.4854" width="298.693" height="188.648" rx="8" stroke="black" style="stroke:black;stroke-opacity:1;" stroke-width="8" stroke-linecap="round" stroke-linejoin="round"/>
<rect x="569.945" y="4.00977" width="215.322" height="135.993" rx="8" fill="white" fill-opacity="0.75" style="fill:white;fill-opacity:0.75;"/>
<path d="M783.195 6.97168L572.291 136.082H783.195V6.97168Z" fill="black" fill-opacity="0.15" style="fill:black;fill-opacity:0.15;"/>
<rect x="569.945" y="4.00977" width="215.322" height="135.993" rx="8" stroke="black" style="stroke:black;stroke-opacity:1;" stroke-width="8" stroke-linecap="round" stroke-linejoin="round"/>
<path d="M599.91 98.7085C612.639 98.7085 611.501 106.78 619.334 106.78C627.166 106.78 630.925 98.7085 638.757 98.7085C646.589 98.7085 650.348 106.78 658.181 106.78C666.013 106.78 669.772 98.7085 677.604 98.7085C685.436 98.7085 689.196 106.78 697.028 106.78C704.86 106.78 708.619 98.7085 716.451 98.7085C724.284 98.7085 728.043 106.78 735.875 106.78C743.707 106.78 744.78 98.7085 755.298 98.7085" stroke="black" stroke-opacity="0.5" style="stroke:black;stroke-opacity:0.5;" stroke-width="8" stroke-linecap="round" stroke-linejoin="round"/>
<path d="M599.91 67.9707C612.639 67.9707 611.501 76.0421 619.334 76.0421C627.166 76.0421 630.925 67.9707 638.757 67.9707C646.589 67.9707 650.348 76.0421 658.181 76.0421C666.013 76.0421 669.772 67.9707 677.604 67.9707C685.436 67.9707 689.196 76.0421 697.028 76.0421C704.86 76.0421 708.619 67.9707 716.451 67.9707C724.284 67.9707 728.043 76.0421 735.875 76.0421C743.707 76.0421 744.78 67.9707 755.298 67.9707" stroke="black" stroke-opacity="0.5" style="stroke:black;stroke-opacity:0.5;" stroke-width="8" stroke-linecap="round" stroke-linejoin="round"/>
<path d="M599.91 37.2339C612.639 37.2339 611.501 45.3053 619.334 45.3053C627.166 45.3053 630.925 37.2339 638.757 37.2339C646.589 37.2339 650.348 45.3053 658.181 45.3053C666.013 45.3053 669.772 37.2339 677.604 37.2339C685.436 37.2339 689.196 45.3053 697.028 45.3053C704.86 45.3053 708.619 37.2339 716.451 37.2339C724.284 37.2339 728.043 45.3053 735.875 45.3053C743.707 45.3053 744.78 37.2339 755.298 37.2339" stroke="black" stroke-opacity="0.5" style="stroke:black;stroke-opacity:0.5;" stroke-width="8" stroke-linecap="round" stroke-linejoin="round"/>
<rect x="655.844" y="264.922" width="89.5811" height="89.5811" rx="8" fill="white" fill-opacity="0.75" style="fill:white;fill-opacity:0.75;"/>
<path d="M700.643 297.767V265.195H740.743L745.817 269.778V348.834L742.871 353.908H700.643V321.991L709.154 318.718L712.755 309.552L709.154 301.368L700.643 297.767Z" fill="black" fill-opacity="0.15" style="fill:black;fill-opacity:0.15;"/>
<path d="M700.634 321.657C707.23 321.657 712.578 316.309 712.578 309.712C712.578 303.116 707.23 297.768 700.634 297.768M700.634 321.657C694.037 321.657 688.689 316.309 688.689 309.712C688.689 303.116 694.037 297.768 700.634 297.768M700.634 321.657V354.503M700.634 297.768V264.922" stroke="black" stroke-opacity="0.5" style="stroke:black;stroke-opacity:0.5;" stroke-width="8" stroke-linecap="round" stroke-linejoin="round"/>
<rect x="655.844" y="264.922" width="89.5811" height="89.5811" rx="8" stroke="black" style="stroke:black;stroke-opacity:1;" stroke-width="8" stroke-linecap="round" stroke-linejoin="round"/>
</svg>
