<svg width="790" height="493" viewBox="0 0 790 493" fill="none" xmlns="http://www.w3.org/2000/svg">
<path d="M325.264 229.319C324.304 233.199 323.444 237.099 322.664 241.009C318.104 263.749 316.204 287.159 317.194 310.389H316.934C315.024 302.199 310.054 294.309 305.254 287.389C300.464 280.469 295.204 273.819 291.284 266.369C287.364 258.909 284.824 250.429 285.984 242.079C287.154 233.739 292.594 225.689 300.614 223.109C308.434 220.599 318.404 224.799 325.264 229.319Z" fill="white" fill-opacity="0.75" style="fill:white;fill-opacity:0.75;"/>
<path d="M550.003 327.769C550.453 331.309 554.133 336.539 557.223 338.329C560.323 340.119 563.773 341.519 566.103 344.229C570.033 348.789 569.643 355.729 567.563 361.379C564.743 369.029 559.213 375.639 552.193 379.769C547.683 382.429 542.533 384.129 538.703 387.689C533.633 392.409 531.753 399.519 528.803 405.789C522.643 418.909 510.583 429.359 496.453 432.599C481.643 435.989 465.853 431.409 453.073 423.179C452.183 422.609 451.303 422.019 450.443 421.409H450.433C445.753 418.209 438.353 420.629 433.603 423.729C428.843 426.819 425.103 431.279 420.393 434.449C409.753 441.619 394.423 440.879 384.523 432.719C381.603 430.319 379.113 427.359 375.793 425.549C372.483 423.749 367.873 423.479 365.323 426.259C364.063 427.629 363.463 429.559 362.053 430.769C357.923 434.289 352.093 429.119 349.363 424.429C329.233 389.889 318.913 350.419 317.193 310.389C316.203 287.159 318.103 263.749 322.663 241.009C323.443 237.099 324.303 233.199 325.263 229.319C331.023 205.829 340.043 183.029 354.373 163.639C371.083 141.039 395.633 123.399 423.393 119.009C451.153 114.619 481.763 125.109 497.903 148.109C509.583 164.769 512.913 186.149 511.153 206.409C509.793 222.139 505.623 237.419 500.843 252.509C504.123 262.189 512.793 269.779 521.283 275.479C529.773 281.179 538.993 286.089 545.963 293.569C552.933 301.049 557.323 312.069 553.703 321.629C552.843 323.899 551.573 325.959 550.003 327.769Z" fill="white" fill-opacity="0.75" style="fill:white;fill-opacity:0.75;"/>
<path d="M561.894 341.199C557.854 337.509 551.904 334.859 550.304 329.899C550.264 329.919 550.234 329.949 550.204 329.979C546.934 332.259 545.304 333.169 541.724 334.869C537.804 336.729 533.844 338.089 529.464 338.269C528.914 338.289 528.334 338.309 527.744 338.339C531.874 339.969 535.694 342.139 538.744 345.349C544.754 351.679 545.794 363.469 538.554 368.339C533.514 371.729 526.554 370.639 521.204 373.519C514.824 376.959 512.534 384.889 511.494 392.069C510.454 399.239 509.824 407.049 505.014 412.469C499.104 419.129 488.734 419.809 480.174 417.329C471.614 414.849 464.024 409.849 455.734 406.609C447.434 403.379 437.494 402.129 430.024 406.979C422.034 412.169 418.394 423.319 409.284 426.109C402.104 428.309 394.614 424.289 388.314 420.179C382.024 416.079 375.064 411.529 367.634 412.639C361.794 413.509 356.484 417.849 350.634 417.039C346.584 416.479 343.204 413.449 341.194 409.889C339.614 407.099 337.204 404.299 335.824 401.289C339.014 409.859 344.684 417.169 349.094 424.409C351.054 427.629 353.564 431.029 357.274 431.699C361.374 432.449 365.694 428.809 365.654 424.639C373.794 426.179 380.004 430.579 386.614 434.119C393.224 437.659 400.714 440.409 408.114 439.159C422.664 436.699 432.574 419.689 447.314 420.219C458.694 430.229 474.334 435.379 489.264 433.529C504.194 431.679 518.114 422.879 526.184 410.189C530.784 402.949 533.604 394.509 539.424 388.209C547.684 379.269 561.344 375.319 566.494 364.299C570.054 356.699 568.094 346.879 561.884 341.219L561.894 341.199Z" fill="black" fill-opacity="0.15" style="fill:black;fill-opacity:0.15;"/>
<ellipse cx="358.072" cy="200.733" rx="7.9148" ry="6.57367" transform="rotate(11.2397 358.072 200.733)" fill="black" fill-opacity="0.15" style="fill:black;fill-opacity:0.15;"/>
<ellipse cx="440.028" cy="205.368" rx="9.18965" ry="7.6325" transform="rotate(1.09845 440.028 205.368)" fill="black" fill-opacity="0.15" style="fill:black;fill-opacity:0.15;"/>
<path d="M496.604 265.529C500.624 250.669 504.544 230.569 506.264 215.279C507.984 199.989 507.294 184.169 502.064 169.689C495.824 152.399 483.034 137.549 466.844 128.819C450.664 120.089 427.114 118.179 409.234 122.469" stroke="black" stroke-opacity="0.15" style="stroke:black;stroke-opacity:0.15;" stroke-width="8" stroke-linecap="round" stroke-linejoin="round"/>
<path d="M496.195 325.149C508.265 331.519 519.865 333.959 531.755 330.869C537.045 329.499 542.325 326.849 545.215 322.209C547.685 318.229 548.085 313.189 546.965 308.639C545.845 304.089 543.325 299.989 540.325 296.389C528.785 282.539 511.115 274.299 503.395 258.009" stroke="black" stroke-opacity="0.15" style="stroke:black;stroke-opacity:0.15;" stroke-width="8" stroke-linecap="round" stroke-linejoin="round"/>
<path d="M415.929 187.305C417.591 185.618 419.817 184.587 422.191 184.968C424.572 185.344 426.365 187.022 427.417 189.144C428.47 191.271 428.855 193.958 428.416 196.715L428.416 196.717C427.972 199.479 426.767 201.912 425.101 203.604C423.439 205.292 421.214 206.326 418.841 205.951L418.837 205.95C416.459 205.568 414.666 203.893 413.613 201.769C412.56 199.642 412.176 196.955 412.614 194.194L412.614 194.191C413.058 191.429 414.263 188.996 415.929 187.305Z" fill="black" style="fill:black;fill-opacity:1;"/>
<path d="M371.99 184.832C373.608 183.36 375.726 182.504 377.914 182.996C380.104 183.487 381.657 185.163 382.493 187.187C383.33 189.215 383.518 191.719 382.949 194.238C382.384 196.762 381.144 198.947 379.521 200.425C377.902 201.899 375.784 202.754 373.596 202.263C371.405 201.771 369.852 200.091 369.017 198.066C368.18 196.036 367.992 193.53 368.562 191.01C369.126 188.491 370.367 186.308 371.99 184.832Z" fill="black" style="fill:black;fill-opacity:1;"/>
<path d="M496.603 265.529C498.033 261.199 499.463 256.869 500.843 252.509C505.623 237.419 509.793 222.139 511.153 206.409C512.913 186.149 509.583 164.769 497.903 148.109C481.763 125.109 451.153 114.619 423.393 119.009C395.633 123.399 371.083 141.039 354.373 163.639C340.043 183.029 331.023 205.829 325.263 229.319C324.303 233.199 323.443 237.099 322.663 241.009C318.103 263.749 316.203 287.159 317.193 310.389C318.913 350.419 329.233 389.889 349.363 424.429C352.093 429.119 357.923 434.289 362.053 430.769C363.463 429.559 364.063 427.629 365.323 426.259C367.873 423.479 372.483 423.749 375.793 425.549C379.113 427.359 381.603 430.319 384.523 432.719C394.423 440.879 409.753 441.619 420.393 434.449C425.103 431.279 428.843 426.819 433.603 423.729C438.353 420.629 445.753 418.209 450.433 421.419" stroke="black" style="stroke:black;stroke-opacity:1;" stroke-width="8" stroke-linecap="round" stroke-linejoin="round"/>
<path d="M450.443 421.41C451.303 422.02 452.183 422.61 453.073 423.18C465.853 431.41 481.643 435.99 496.453 432.6C510.583 429.36 522.643 418.91 528.803 405.79C531.753 399.52 533.633 392.41 538.703 387.69C542.533 384.13 547.683 382.43 552.193 379.77C559.213 375.64 564.743 369.03 567.563 361.38C569.643 355.73 570.033 348.79 566.103 344.23C563.773 341.52 560.323 340.12 557.223 338.33C554.133 336.54 550.453 331.31 550.003 327.77" stroke="black" style="stroke:black;stroke-opacity:1;" stroke-width="8" stroke-linecap="round" stroke-linejoin="round"/>
<path d="M422.492 391.56C431.744 402.878 441.588 414.002 453.625 422.303" stroke="black" style="stroke:black;stroke-opacity:1;" stroke-width="6" stroke-linecap="round" stroke-linejoin="round"/>
<path d="M363.183 411.469C358.503 404.029 354.583 396.099 351.523 387.859" stroke="black" style="stroke:black;stroke-opacity:1;" stroke-width="6" stroke-linecap="round" stroke-linejoin="round"/>
<path d="M522.564 377.559C505.804 371.449 490.214 362.159 476.854 350.329" stroke="black" style="stroke:black;stroke-opacity:1;" stroke-width="6" stroke-linecap="round" stroke-linejoin="round"/>
<path d="M316.934 310.399C315.024 302.199 310.054 294.309 305.254 287.389C300.464 280.469 295.204 273.819 291.284 266.369C287.364 258.909 284.824 250.429 285.984 242.079C287.154 233.739 292.594 225.689 300.614 223.109C308.434 220.599 318.404 224.799 325.264 229.319" stroke="black" style="stroke:black;stroke-opacity:1;" stroke-width="8" stroke-linecap="round" stroke-linejoin="round"/>
<path d="M493.965 323.86C500.555 327.67 507.195 331.51 514.385 333.99C521.575 336.47 529.455 337.54 536.835 335.69C541.865 334.43 546.625 331.66 550.005 327.77C551.575 325.96 552.845 323.9 553.705 321.63C557.325 312.07 552.935 301.05 545.965 293.57C538.995 286.09 529.775 281.18 521.285 275.48C512.795 269.78 504.125 262.19 500.845 252.51" stroke="black" style="stroke:black;stroke-opacity:1;" stroke-width="8" stroke-linecap="round" stroke-linejoin="round"/>
<ellipse cx="466.564" cy="482.819" rx="103.381" ry="9.19141" fill="black" fill-opacity="0.15" style="fill:black;fill-opacity:0.15;"/>
<rect x="4.78906" y="64.0928" width="298.693" height="188.648" rx="8" fill="white" fill-opacity="0.75" style="fill:white;fill-opacity:0.75;"/>
<path d="M165.313 159.023C165.313 159.023 182.098 130.723 199.756 121.675C223.091 109.717 242.488 131.25 266.897 121.675C283.251 115.259 303.482 95.5 303.482 95.5V252.742H4.78906C4.78906 252.742 23.5736 216.97 45.3677 207.782C71.3912 196.81 90.6429 227.249 117.061 217.265C144.691 206.823 165.313 159.023 165.313 159.023Z" fill="black" fill-opacity="0.15" style="fill:black;fill-opacity:0.15;"/>
<path d="M9.91602 249.969C22.5738 228.663 39.2956 201.345 65.7922 204.226C79.8523 205.169 97.274 218.015 111.426 216.408C148.902 211.711 162.865 149.837 193.919 127.256C219.087 106.474 246.486 130.609 274.071 117.842C286.176 112.219 294.108 101.122 303.482 91.2725" stroke="black" stroke-opacity="0.5" style="stroke:black;stroke-opacity:0.5;" stroke-width="8" stroke-linecap="round" stroke-linejoin="round"/>
<rect x="4.78906" y="64.0928" width="298.693" height="188.648" rx="8" stroke="black" style="stroke:black;stroke-opacity:1;" stroke-width="8" stroke-linecap="round" stroke-linejoin="round"/>
<rect x="569.945" y="4.61719" width="215.322" height="135.993" rx="8" fill="white" fill-opacity="0.75" style="fill:white;fill-opacity:0.75;"/>
<path d="M783.195 7.5791L572.291 136.689H783.195V7.5791Z" fill="black" fill-opacity="0.15" style="fill:black;fill-opacity:0.15;"/>
<rect x="569.945" y="4.61719" width="215.322" height="135.993" rx="8" stroke="black" style="stroke:black;stroke-opacity:1;" stroke-width="8" stroke-linecap="round" stroke-linejoin="round"/>
<path d="M599.91 99.3154C612.639 99.3154 611.501 107.387 619.334 107.387C627.166 107.387 630.925 99.3154 638.757 99.3154C646.589 99.3154 650.348 107.387 658.181 107.387C666.013 107.387 669.772 99.3154 677.604 99.3154C685.436 99.3154 689.196 107.387 697.028 107.387C704.86 107.387 708.619 99.3154 716.451 99.3154C724.284 99.3154 728.043 107.387 735.875 107.387C743.707 107.387 744.78 99.3154 755.298 99.3154" stroke="black" stroke-opacity="0.5" style="stroke:black;stroke-opacity:0.5;" stroke-width="8" stroke-linecap="round" stroke-linejoin="round"/>
<path d="M599.91 68.5776C612.639 68.5776 611.501 76.649 619.334 76.649C627.166 76.649 630.925 68.5776 638.757 68.5776C646.589 68.5776 650.348 76.649 658.181 76.649C666.013 76.649 669.772 68.5776 677.604 68.5776C685.436 68.5776 689.196 76.649 697.028 76.649C704.86 76.649 708.619 68.5776 716.451 68.5776C724.284 68.5776 728.043 76.649 735.875 76.649C743.707 76.649 744.78 68.5776 755.298 68.5776" stroke="black" stroke-opacity="0.5" style="stroke:black;stroke-opacity:0.5;" stroke-width="8" stroke-linecap="round" stroke-linejoin="round"/>
<path d="M599.91 37.8408C612.639 37.8408 611.501 45.9122 619.334 45.9122C627.166 45.9122 630.925 37.8408 638.757 37.8408C646.589 37.8408 650.348 45.9122 658.181 45.9122C666.013 45.9122 669.772 37.8408 677.604 37.8408C685.436 37.8408 689.196 45.9122 697.028 45.9122C704.86 45.9122 708.619 37.8408 716.451 37.8408C724.284 37.8408 728.043 45.9122 735.875 45.9122C743.707 45.9122 744.78 37.8408 755.298 37.8408" stroke="black" stroke-opacity="0.5" style="stroke:black;stroke-opacity:0.5;" stroke-width="8" stroke-linecap="round" stroke-linejoin="round"/>
<rect x="655.844" y="265.529" width="89.5811" height="89.5811" rx="8" fill="white" fill-opacity="0.75" style="fill:white;fill-opacity:0.75;"/>
<path d="M700.643 298.375V265.804H740.743L745.817 270.387V349.442L742.871 354.516H700.643V322.599L709.154 319.326L712.755 310.16L709.154 301.976L700.643 298.375Z" fill="black" fill-opacity="0.15" style="fill:black;fill-opacity:0.15;"/>
<path d="M700.634 322.264C707.23 322.264 712.578 316.916 712.578 310.32C712.578 303.723 707.23 298.376 700.634 298.376M700.634 322.264C694.037 322.264 688.689 316.916 688.689 310.32C688.689 303.723 694.037 298.376 700.634 298.376M700.634 322.264V355.11M700.634 298.376V265.529" stroke="black" stroke-opacity="0.5" style="stroke:black;stroke-opacity:0.5;" stroke-width="8" stroke-linecap="round" stroke-linejoin="round"/>
<rect x="655.844" y="265.529" width="89.5811" height="89.5811" rx="8" stroke="black" style="stroke:black;stroke-opacity:1;" stroke-width="8" stroke-linecap="round" stroke-linejoin="round"/>
</svg>
