<svg width="789" height="492" viewBox="0 0 789 492" fill="none" xmlns="http://www.w3.org/2000/svg">
<path d="M324.785 228.712C323.825 232.592 322.965 236.492 322.185 240.402C317.625 263.142 315.725 286.552 316.715 309.782H316.455C314.545 301.592 309.575 293.702 304.775 286.782C299.985 279.862 294.725 273.212 290.805 265.762C286.885 258.302 284.345 249.822 285.505 241.472C286.675 233.132 292.115 225.082 300.135 222.502C307.955 219.992 317.925 224.192 324.785 228.712Z" fill="white" fill-opacity="0.75" style="fill:white;fill-opacity:0.75;"/>
<path d="M549.526 327.162C549.976 330.702 553.656 335.932 556.746 337.722C559.846 339.512 563.296 340.912 565.626 343.622C569.556 348.182 569.166 355.122 567.086 360.772C564.266 368.422 558.736 375.032 551.716 379.162C547.206 381.822 542.056 383.522 538.226 387.082C533.156 391.802 531.276 398.912 528.326 405.182C522.166 418.302 510.106 428.752 495.976 431.992C481.166 435.382 465.376 430.802 452.596 422.572C451.706 422.002 450.826 421.412 449.966 420.802H449.956C445.276 417.602 437.876 420.022 433.126 423.122C428.366 426.212 424.626 430.672 419.916 433.842C409.276 441.012 393.946 440.272 384.046 432.112C381.126 429.712 378.636 426.752 375.316 424.942C372.006 423.142 367.396 422.872 364.846 425.652C363.586 427.022 362.986 428.952 361.576 430.162C357.446 433.682 351.616 428.512 348.886 423.822C328.756 389.282 318.436 349.812 316.716 309.782C315.726 286.552 317.626 263.142 322.186 240.402C322.966 236.492 323.826 232.592 324.786 228.712C330.546 205.222 339.566 182.422 353.896 163.032C370.606 140.432 395.156 122.792 422.916 118.402C450.676 114.012 481.286 124.502 497.426 147.502C509.106 164.162 512.436 185.542 510.676 205.802C509.316 221.532 505.146 236.812 500.366 251.902C503.646 261.582 512.316 269.172 520.806 274.872C529.296 280.572 538.516 285.482 545.486 292.962C552.456 300.442 556.846 311.462 553.226 321.022C552.366 323.292 551.096 325.352 549.526 327.162Z" fill="white" fill-opacity="0.75" style="fill:white;fill-opacity:0.75;"/>
<path d="M561.414 340.592C557.374 336.902 551.424 334.252 549.824 329.292C549.784 329.312 549.754 329.342 549.724 329.372C546.454 331.652 544.824 332.562 541.244 334.262C537.324 336.122 533.364 337.482 528.984 337.662C528.434 337.682 527.854 337.702 527.264 337.732C531.394 339.362 535.214 341.532 538.264 344.742C544.274 351.072 545.314 362.862 538.074 367.732C533.034 371.122 526.074 370.032 520.724 372.912C514.344 376.352 512.054 384.282 511.014 391.462C509.974 398.632 509.344 406.442 504.534 411.862C498.624 418.522 488.254 419.202 479.694 416.722C471.134 414.242 463.544 409.242 455.254 406.002C446.954 402.772 437.014 401.522 429.544 406.372C421.554 411.562 417.914 422.712 408.804 425.502C401.624 427.702 394.134 423.682 387.834 419.572C381.544 415.472 374.584 410.922 367.154 412.032C361.314 412.902 356.004 417.242 350.154 416.432C346.104 415.872 342.724 412.842 340.714 409.282C339.134 406.492 336.724 403.692 335.344 400.682C338.534 409.252 344.204 416.562 348.614 423.802C350.574 427.022 353.084 430.422 356.794 431.092C360.894 431.842 365.214 428.202 365.174 424.032C373.314 425.572 379.524 429.972 386.134 433.512C392.744 437.052 400.234 439.802 407.634 438.552C422.184 436.092 432.094 419.082 446.834 419.612C458.214 429.622 473.854 434.772 488.784 432.922C503.714 431.072 517.634 422.272 525.704 409.582C530.304 402.342 533.124 393.902 538.944 387.602C547.204 378.662 560.864 374.712 566.014 363.692C569.574 356.092 567.614 346.272 561.404 340.612L561.414 340.592Z" fill="#BCBBFF" fill-opacity="0.4" style="fill:#BCBBFF;fill:color(display-p3 0.7373 0.7333 1.0000);fill-opacity:0.4;"/>
<ellipse cx="357.591" cy="200.126" rx="7.9148" ry="6.57367" transform="rotate(11.2397 357.591 200.126)" fill="#BCBBFF" fill-opacity="0.4" style="fill:#BCBBFF;fill:color(display-p3 0.7373 0.7333 1.0000);fill-opacity:0.4;"/>
<ellipse cx="439.547" cy="204.76" rx="9.18965" ry="7.6325" transform="rotate(1.09845 439.547 204.76)" fill="#BCBBFF" fill-opacity="0.4" style="fill:#BCBBFF;fill:color(display-p3 0.7373 0.7333 1.0000);fill-opacity:0.4;"/>
<path d="M496.124 264.921C500.144 250.061 504.064 229.961 505.784 214.671C507.504 199.381 506.814 183.561 501.584 169.081C495.344 151.791 482.554 136.941 466.364 128.211C450.184 119.481 426.634 117.571 408.754 121.861" stroke="#BCBBFF" stroke-opacity="0.4" style="stroke:#BCBBFF;stroke:color(display-p3 0.7373 0.7333 1.0000);stroke-opacity:0.4;" stroke-width="8" stroke-linecap="round" stroke-linejoin="round"/>
<path d="M495.715 324.541C507.785 330.911 519.385 333.351 531.275 330.261C536.565 328.891 541.845 326.241 544.735 321.601C547.205 317.621 547.605 312.581 546.485 308.031C545.365 303.481 542.845 299.381 539.845 295.781C528.305 281.931 510.635 273.691 502.915 257.401" stroke="#BCBBFF" stroke-opacity="0.4" style="stroke:#BCBBFF;stroke:color(display-p3 0.7373 0.7333 1.0000);stroke-opacity:0.4;" stroke-width="8" stroke-linecap="round" stroke-linejoin="round"/>
<path d="M415.449 186.698C417.111 185.011 419.337 183.979 421.711 184.36C424.091 184.737 425.884 186.414 426.936 188.537C427.99 190.663 428.374 193.351 427.936 196.107L427.936 196.11C427.492 198.872 426.286 201.305 424.621 202.997C422.959 204.685 420.734 205.719 418.36 205.343L418.357 205.343C415.978 204.961 414.185 203.285 413.133 201.161C412.079 199.035 411.695 196.347 412.133 193.587L412.134 193.584C412.577 190.822 413.783 188.388 415.449 186.698Z" fill="black" style="fill:black;fill-opacity:1;"/>
<path d="M371.509 184.225C373.128 182.752 375.246 181.897 377.433 182.388C379.624 182.879 381.176 184.555 382.012 186.579C382.85 188.608 383.038 191.111 382.468 193.631C381.904 196.155 380.663 198.34 379.041 199.817C377.422 201.291 375.304 202.147 373.116 201.655C370.924 201.164 369.372 199.484 368.537 197.459C367.699 195.428 367.512 192.922 368.081 190.403C368.646 187.883 369.886 185.701 371.509 184.225Z" fill="black" style="fill:black;fill-opacity:1;"/>
<path d="M496.126 264.922C497.556 260.592 498.986 256.262 500.366 251.902C505.146 236.812 509.316 221.532 510.676 205.802C512.436 185.542 509.106 164.162 497.426 147.502C481.286 124.502 450.676 114.012 422.916 118.402C395.156 122.792 370.606 140.432 353.896 163.032C339.566 182.422 330.546 205.222 324.786 228.712C323.826 232.592 322.966 236.492 322.186 240.402C317.626 263.142 315.726 286.552 316.716 309.782C318.436 349.812 328.756 389.282 348.886 423.822C351.616 428.512 357.446 433.682 361.576 430.162C362.986 428.952 363.586 427.022 364.846 425.652C367.396 422.872 372.006 423.142 375.316 424.942C378.636 426.752 381.126 429.712 384.046 432.112C393.946 440.272 409.276 441.012 419.916 433.842C424.626 430.672 428.366 426.212 433.126 423.122C437.876 420.022 445.276 417.602 449.956 420.812" stroke="black" style="stroke:black;stroke-opacity:1;" stroke-width="8" stroke-linecap="round" stroke-linejoin="round"/>
<path d="M449.965 420.802C450.825 421.412 451.705 422.002 452.595 422.572C465.375 430.802 481.165 435.382 495.975 431.992C510.105 428.752 522.165 418.302 528.325 405.182C531.275 398.912 533.155 391.802 538.225 387.082C542.055 383.522 547.205 381.822 551.715 379.162C558.735 375.032 564.265 368.422 567.085 360.772C569.165 355.122 569.555 348.182 565.625 343.622C563.295 340.912 559.845 339.512 556.745 337.722C553.655 335.932 549.975 330.702 549.525 327.162" stroke="black" style="stroke:black;stroke-opacity:1;" stroke-width="8" stroke-linecap="round" stroke-linejoin="round"/>
<path d="M422.016 390.952C431.267 402.271 441.111 413.394 453.148 421.695" stroke="black" style="stroke:black;stroke-opacity:1;" stroke-width="6" stroke-linecap="round" stroke-linejoin="round"/>
<path d="M362.705 410.862C358.025 403.422 354.105 395.492 351.045 387.252" stroke="black" style="stroke:black;stroke-opacity:1;" stroke-width="6" stroke-linecap="round" stroke-linejoin="round"/>
<path d="M522.085 376.952C505.325 370.842 489.735 361.552 476.375 349.722" stroke="black" style="stroke:black;stroke-opacity:1;" stroke-width="6" stroke-linecap="round" stroke-linejoin="round"/>
<path d="M316.455 309.792C314.545 301.592 309.575 293.702 304.775 286.782C299.985 279.862 294.725 273.212 290.805 265.762C286.885 258.302 284.345 249.822 285.505 241.472C286.675 233.132 292.115 225.082 300.135 222.502C307.955 219.992 317.925 224.192 324.785 228.712" stroke="black" style="stroke:black;stroke-opacity:1;" stroke-width="8" stroke-linecap="round" stroke-linejoin="round"/>
<path d="M493.484 323.252C500.074 327.062 506.714 330.902 513.904 333.382C521.094 335.862 528.974 336.932 536.354 335.082C541.384 333.822 546.144 331.052 549.524 327.162C551.094 325.352 552.364 323.292 553.224 321.022C556.844 311.462 552.454 300.442 545.484 292.962C538.514 285.482 529.294 280.572 520.804 274.872C512.314 269.172 503.644 261.582 500.364 251.902" stroke="black" style="stroke:black;stroke-opacity:1;" stroke-width="8" stroke-linecap="round" stroke-linejoin="round"/>
<path d="M516.759 102.911C517.262 105.215 516.738 107.872 514.949 109.407C513.156 110.948 509.497 110.991 508.25 108.984L508.009 109.121C505.863 105.526 503.464 102.227 500.855 99.4541C500.231 97.4883 500.538 95.3134 501.907 93.7653C503.397 92.0748 506.04 91.7993 508.152 92.5902C510.258 93.3783 511.917 95.0355 513.36 96.7656C514.877 98.5813 516.252 100.596 516.759 102.911Z" fill="#E5E5FF" style="fill:#E5E5FF;fill:color(display-p3 0.8980 0.8980 1.0000);fill-opacity:1;"/>
<path d="M523.006 162.386C522.156 178.826 518.026 195.096 511.386 210.116C510.826 209.306 510.266 208.496 509.686 207.696C504.396 200.236 498.566 193.166 492.266 186.526L493.276 185.576C499.306 173.806 504.066 162.456 506.166 148.206C506.166 138.286 504.956 131.676 501.866 122.776H501.876C514.176 136.326 523.006 152.336 523.006 162.386Z" fill="#BCBBFF" style="fill:#BCBBFF;fill:color(display-p3 0.7391 0.7337 1.0000);fill-opacity:1;"/>
<path d="M492.264 186.526C498.564 193.166 504.394 200.236 509.684 207.696L509.384 207.906C504.164 200.626 496.414 195.186 487.784 192.766C479.614 190.476 470.864 190.846 462.694 188.536C447.274 184.196 436.144 171.186 422.964 162.086C411.894 154.456 398.724 149.406 385.284 149.646C371.844 149.896 354.034 156.306 346.224 167.236C337.544 165.766 331.924 164.256 325.854 158.946C322.624 156.126 320.384 152.426 319.784 149.766C318.774 145.236 322.934 141.286 326.884 138.846C339.794 130.896 355.144 127.406 370.294 127.446C370.524 127.446 370.764 127.446 370.994 127.446C385.914 127.576 400.674 130.966 414.734 135.946C444.094 146.346 470.854 163.906 492.264 186.516V186.526Z" fill="#BCBBFF" style="fill:#BCBBFF;fill:color(display-p3 0.7391 0.7337 1.0000);fill-opacity:1;"/>
<path d="M501.864 122.776C504.954 131.676 506.164 138.286 506.164 148.206C504.064 162.456 499.304 173.806 493.274 185.576L492.264 186.526C470.854 163.916 444.094 146.356 414.734 135.956C400.674 130.976 385.914 127.586 370.994 127.456V127.226C379.304 119.046 386.604 108.626 398.904 102.186C422.724 90.6161 451.834 90.5661 475.634 102.096C480.114 104.266 484.584 107.176 488.884 110.566C493.464 114.176 497.854 118.346 501.874 122.766H501.864V122.776Z" fill="#E5E5FF" style="fill:#E5E5FF;fill:color(display-p3 0.8980 0.8980 1.0000);fill-opacity:1;"/>
<path d="M373.006 127.639C380.093 118.981 386.605 108.626 398.905 102.186C422.725 90.6161 451.835 90.5661 475.635 102.096C480.115 104.266 484.585 107.176 488.885 110.566C493.465 114.176 497.855 118.346 501.875 122.766C514.175 136.326 520.286 153.148 520.286 166.427C520.286 182.889 518.025 195.096 511.385 210.116M373.006 127.639C387.926 127.769 400.675 130.976 414.735 135.956C444.095 146.356 470.855 163.916 492.265 186.526C498.565 193.166 504.395 200.236 509.685 207.696M373.006 127.639C372.776 127.639 373.236 127.639 373.006 127.639ZM373.006 127.639C357.856 127.599 337.173 129.801 327.208 135.956C321.765 139.319 319.298 144.673 319.785 149.776C320.12 153.288 322.788 156.883 326.018 159.703C332.088 165.013 339.606 167.479 348.286 168.949C356.096 158.019 371.845 149.906 385.285 149.656C398.725 149.416 411.895 154.466 422.965 162.096C436.145 171.196 447.275 184.206 462.695 188.546C470.865 190.856 479.615 190.486 487.785 192.776C496.415 195.196 504.465 200.416 509.685 207.696M511.385 210.116C510.825 209.306 510.265 208.496 509.685 207.696M511.385 210.116C511.065 209.616 510.035 208.186 509.685 207.696" stroke="black" style="stroke:black;stroke-opacity:1;" stroke-width="8" stroke-linecap="round" stroke-linejoin="round"/>
<path d="M500.857 99.4541C500.233 97.4883 500.54 95.3134 501.909 93.7653C503.399 92.0748 506.042 91.7993 508.154 92.5902C510.26 93.3783 511.919 95.0355 513.362 96.7656C514.879 98.5813 516.254 100.596 516.761 102.911C517.264 105.215 516.74 107.872 514.95 109.407C513.158 110.948 509.499 110.991 508.252 108.984" stroke="black" style="stroke:black;stroke-opacity:1;" stroke-width="8" stroke-linecap="round" stroke-linejoin="round"/>
<path d="M496.952 119.076C502.125 125.219 504.943 132.809 505.579 137.822C506.452 144.696 505.838 151.693 504.113 158.404C501.605 168.159 497.798 176.749 493.275 185.576" stroke="black" style="stroke:black;stroke-opacity:1;" stroke-width="6" stroke-linecap="round" stroke-linejoin="round"/>
<path d="M426.818 113.701C426.255 115.257 427.062 116.976 428.617 117.538C430.172 118.1 431.891 117.294 432.453 115.737C433.016 114.18 432.209 112.463 430.654 111.901C429.098 111.339 427.38 112.145 426.818 113.701Z" fill="#7B7BAC" style="fill:#7B7BAC;fill:color(display-p3 0.4837 0.4809 0.6755);fill-opacity:1;"/>
<path d="M433.923 116.267C433.361 117.824 434.167 119.542 435.724 120.105C437.281 120.667 438.999 119.861 439.562 118.304C440.124 116.747 439.317 115.03 437.761 114.468C436.204 113.905 434.485 114.712 433.923 116.267Z" fill="#7B7BAC" style="fill:#7B7BAC;fill:color(display-p3 0.4837 0.4809 0.6755);fill-opacity:1;"/>
<path d="M444.848 117.885C444.823 112.809 441.709 108.073 436.703 106.264C430.274 103.942 423.159 107.327 420.811 113.826C418.463 120.325 421.771 127.476 428.2 129.799C433.557 131.735 439.39 129.707 442.545 125.218L439.424 133.855" stroke="#7B7BAC" style="stroke:#7B7BAC;stroke:color(display-p3 0.4837 0.4809 0.6755);stroke-opacity:1;" stroke-width="5" stroke-linecap="round" stroke-linejoin="round"/>
<ellipse cx="466.086" cy="482.212" rx="103.381" ry="9.19141" fill="black" fill-opacity="0.15" style="fill:black;fill-opacity:0.15;"/>
<rect x="4.31055" y="63.4854" width="298.693" height="188.648" rx="8" fill="white" fill-opacity="0.75" style="fill:white;fill-opacity:0.75;"/>
<path d="M164.834 158.416C164.834 158.416 181.619 130.115 199.277 121.067C222.612 109.11 242.009 130.643 266.419 121.067C282.773 114.652 303.004 94.8926 303.004 94.8926V252.135H4.31055C4.31055 252.135 23.0951 216.363 44.8892 207.174C70.9127 196.202 90.1644 226.641 116.583 216.657C144.212 206.216 164.834 158.416 164.834 158.416Z" fill="#BCBBFF" fill-opacity="0.4" style="fill:#BCBBFF;fill:color(display-p3 0.7373 0.7333 1.0000);fill-opacity:0.4;"/>
<path d="M9.4375 249.361C22.0953 228.055 38.8171 200.737 65.3137 203.618C79.3738 204.561 96.7955 217.407 110.948 215.801C148.423 211.103 162.386 149.229 193.441 126.648C218.609 105.866 246.008 130.001 273.593 117.234C285.697 111.611 293.63 100.514 303.003 90.6646" stroke="#020075" stroke-opacity="0.4" style="stroke:#020075;stroke:color(display-p3 0.0067 0.0000 0.4578);stroke-opacity:0.4;" stroke-width="8" stroke-linecap="round" stroke-linejoin="round"/>
<rect x="4.31055" y="63.4854" width="298.693" height="188.648" rx="8" stroke="black" style="stroke:black;stroke-opacity:1;" stroke-width="8" stroke-linecap="round" stroke-linejoin="round"/>
<rect x="569.467" y="4.00977" width="215.322" height="135.993" rx="8" fill="white" fill-opacity="0.75" style="fill:white;fill-opacity:0.75;"/>
<path d="M782.717 6.97168L571.812 136.082H782.717V6.97168Z" fill="#BCBBFF" fill-opacity="0.4" style="fill:#BCBBFF;fill:color(display-p3 0.7373 0.7333 1.0000);fill-opacity:0.4;"/>
<rect x="569.467" y="4.00977" width="215.322" height="135.993" rx="8" stroke="black" style="stroke:black;stroke-opacity:1;" stroke-width="8" stroke-linecap="round" stroke-linejoin="round"/>
<path d="M599.432 98.7085C612.16 98.7085 611.023 106.78 618.855 106.78C626.687 106.78 630.446 98.7085 638.279 98.7085C646.111 98.7085 649.87 106.78 657.702 106.78C665.534 106.78 669.293 98.7085 677.126 98.7085C684.958 98.7085 688.717 106.78 696.549 106.78C704.381 106.78 708.141 98.7085 715.973 98.7085C723.805 98.7085 727.564 106.78 735.396 106.78C743.229 106.78 744.301 98.7085 754.82 98.7085" stroke="#020075" stroke-opacity="0.4" style="stroke:#020075;stroke:color(display-p3 0.0067 0.0000 0.4578);stroke-opacity:0.4;" stroke-width="8" stroke-linecap="round" stroke-linejoin="round"/>
<path d="M599.432 67.9707C612.16 67.9707 611.023 76.0421 618.855 76.0421C626.687 76.0421 630.446 67.9707 638.279 67.9707C646.111 67.9707 649.87 76.0421 657.702 76.0421C665.534 76.0421 669.293 67.9707 677.126 67.9707C684.958 67.9707 688.717 76.0421 696.549 76.0421C704.381 76.0421 708.141 67.9707 715.973 67.9707C723.805 67.9707 727.564 76.0421 735.396 76.0421C743.229 76.0421 744.301 67.9707 754.82 67.9707" stroke="#020075" stroke-opacity="0.4" style="stroke:#020075;stroke:color(display-p3 0.0067 0.0000 0.4578);stroke-opacity:0.4;" stroke-width="8" stroke-linecap="round" stroke-linejoin="round"/>
<path d="M599.432 37.2339C612.16 37.2339 611.023 45.3053 618.855 45.3053C626.687 45.3053 630.446 37.2339 638.279 37.2339C646.111 37.2339 649.87 45.3053 657.702 45.3053C665.534 45.3053 669.293 37.2339 677.126 37.2339C684.958 37.2339 688.717 45.3053 696.549 45.3053C704.381 45.3053 708.141 37.2339 715.973 37.2339C723.805 37.2339 727.564 45.3053 735.396 45.3053C743.229 45.3053 744.301 37.2339 754.82 37.2339" stroke="#020075" stroke-opacity="0.4" style="stroke:#020075;stroke:color(display-p3 0.0067 0.0000 0.4578);stroke-opacity:0.4;" stroke-width="8" stroke-linecap="round" stroke-linejoin="round"/>
<rect x="655.367" y="264.922" width="89.5811" height="89.5811" rx="8" fill="white" fill-opacity="0.75" style="fill:white;fill-opacity:0.75;"/>
<path d="M700.166 297.767V265.195H737.093C739.136 265.195 741.106 265.953 742.621 267.322C744.353 268.886 745.341 271.11 745.341 273.443V346.964C745.341 348.189 745.017 349.392 744.402 350.451C743.159 352.591 740.871 353.908 738.397 353.908H700.166V321.991L703.953 320.535C706.963 319.377 709.349 317.008 710.528 314.007L710.605 313.81C711.676 311.085 711.615 308.044 710.435 305.364C709.306 302.797 707.239 300.759 704.657 299.667L700.166 297.767Z" fill="#BCBBFF" fill-opacity="0.4" style="fill:#BCBBFF;fill:color(display-p3 0.7373 0.7333 1.0000);fill-opacity:0.4;"/>
<path d="M700.157 321.657C706.754 321.657 712.101 316.309 712.101 309.712C712.101 303.116 706.754 297.768 700.157 297.768M700.157 321.657C693.56 321.657 688.213 316.309 688.213 309.712C688.213 303.116 693.56 297.768 700.157 297.768M700.157 321.657V354.503M700.157 297.768V264.922" stroke="#020075" stroke-opacity="0.4" style="stroke:#020075;stroke:color(display-p3 0.0067 0.0000 0.4578);stroke-opacity:0.4;" stroke-width="8" stroke-linecap="round" stroke-linejoin="round"/>
<rect x="655.367" y="264.922" width="89.5811" height="89.5811" rx="8" stroke="black" style="stroke:black;stroke-opacity:1;" stroke-width="8" stroke-linecap="round" stroke-linejoin="round"/>
</svg>
