<svg width="789" height="493" viewBox="0 0 789 493" fill="none" xmlns="http://www.w3.org/2000/svg">
<path d="M324.785 229.319C323.825 233.199 322.965 237.099 322.185 241.009C317.625 263.749 315.725 287.159 316.715 310.389H316.455C314.545 302.199 309.575 294.309 304.775 287.389C299.985 280.469 294.725 273.819 290.805 266.369C286.885 258.909 284.345 250.429 285.505 242.079C286.675 233.739 292.115 225.689 300.135 223.109C307.955 220.599 317.925 224.799 324.785 229.319Z" fill="white" fill-opacity="0.75" style="fill:white;fill-opacity:0.75;"/>
<path d="M549.526 327.769C549.976 331.309 553.656 336.539 556.746 338.329C559.846 340.119 563.296 341.519 565.626 344.229C569.556 348.789 569.166 355.729 567.086 361.379C564.266 369.029 558.736 375.639 551.716 379.769C547.206 382.429 542.056 384.129 538.226 387.689C533.156 392.409 531.276 399.519 528.326 405.789C522.166 418.909 510.106 429.359 495.976 432.599C481.166 435.989 465.376 431.409 452.596 423.179C451.706 422.609 450.826 422.019 449.966 421.409H449.956C445.276 418.209 437.876 420.629 433.126 423.729C428.366 426.819 424.626 431.279 419.916 434.449C409.276 441.619 393.946 440.879 384.046 432.719C381.126 430.319 378.636 427.359 375.316 425.549C372.006 423.749 367.396 423.479 364.846 426.259C363.586 427.629 362.986 429.559 361.576 430.769C357.446 434.289 351.616 429.119 348.886 424.429C328.756 389.889 318.436 350.419 316.716 310.389C315.726 287.159 317.626 263.749 322.186 241.009C322.966 237.099 323.826 233.199 324.786 229.319C330.546 205.829 339.566 183.029 353.896 163.639C370.606 141.039 395.156 123.399 422.916 119.009C450.676 114.619 481.286 125.109 497.426 148.109C509.106 164.769 512.436 186.149 510.676 206.409C509.316 222.139 505.146 237.419 500.366 252.509C503.646 262.189 512.316 269.779 520.806 275.479C529.296 281.179 538.516 286.089 545.486 293.569C552.456 301.049 556.846 312.069 553.226 321.629C552.366 323.899 551.096 325.959 549.526 327.769Z" fill="white" fill-opacity="0.75" style="fill:white;fill-opacity:0.75;"/>
<path d="M561.414 341.199C557.374 337.509 551.424 334.859 549.824 329.899C549.784 329.919 549.754 329.949 549.724 329.979C546.454 332.259 544.824 333.169 541.244 334.869C537.324 336.729 533.364 338.089 528.984 338.269C528.434 338.289 527.854 338.309 527.264 338.339C531.394 339.969 535.214 342.139 538.264 345.349C544.274 351.679 545.314 363.469 538.074 368.339C533.034 371.729 526.074 370.639 520.724 373.519C514.344 376.959 512.054 384.889 511.014 392.069C509.974 399.239 509.344 407.049 504.534 412.469C498.624 419.129 488.254 419.809 479.694 417.329C471.134 414.849 463.544 409.849 455.254 406.609C446.954 403.379 437.014 402.129 429.544 406.979C421.554 412.169 417.914 423.319 408.804 426.109C401.624 428.309 394.134 424.289 387.834 420.179C381.544 416.079 374.584 411.529 367.154 412.639C361.314 413.509 356.004 417.849 350.154 417.039C346.104 416.479 342.724 413.449 340.714 409.889C339.134 407.099 336.724 404.299 335.344 401.289C338.534 409.859 344.204 417.169 348.614 424.409C350.574 427.629 353.084 431.029 356.794 431.699C360.894 432.449 365.214 428.809 365.174 424.639C373.314 426.179 379.524 430.579 386.134 434.119C392.744 437.659 400.234 440.409 407.634 439.159C422.184 436.699 432.094 419.689 446.834 420.219C458.214 430.229 473.854 435.379 488.784 433.529C503.714 431.679 517.634 422.879 525.704 410.189C530.304 402.949 533.124 394.509 538.944 388.209C547.204 379.269 560.864 375.319 566.014 364.299C569.574 356.699 567.614 346.879 561.404 341.219L561.414 341.199Z" fill="#BCBBFF" fill-opacity="0.4" style="fill:#BCBBFF;fill:color(display-p3 0.7373 0.7333 1.0000);fill-opacity:0.4;"/>
<ellipse cx="357.591" cy="200.733" rx="7.9148" ry="6.57367" transform="rotate(11.2397 357.591 200.733)" fill="#BCBBFF" fill-opacity="0.4" style="fill:#BCBBFF;fill:color(display-p3 0.7373 0.7333 1.0000);fill-opacity:0.4;"/>
<ellipse cx="439.547" cy="205.368" rx="9.18965" ry="7.6325" transform="rotate(1.09845 439.547 205.368)" fill="#BCBBFF" fill-opacity="0.4" style="fill:#BCBBFF;fill:color(display-p3 0.7373 0.7333 1.0000);fill-opacity:0.4;"/>
<path d="M496.124 265.529C500.144 250.669 504.064 230.569 505.784 215.279C507.504 199.989 506.814 184.169 501.584 169.689C495.344 152.399 482.554 137.549 466.364 128.819C450.184 120.089 426.634 118.179 408.754 122.469" stroke="#BCBBFF" stroke-opacity="0.4" style="stroke:#BCBBFF;stroke:color(display-p3 0.7373 0.7333 1.0000);stroke-opacity:0.4;" stroke-width="8" stroke-linecap="round" stroke-linejoin="round"/>
<path d="M495.715 325.149C507.785 331.519 519.385 333.959 531.275 330.869C536.565 329.499 541.845 326.849 544.735 322.209C547.205 318.229 547.605 313.189 546.485 308.639C545.365 304.089 542.845 299.989 539.845 296.389C528.305 282.539 510.635 274.299 502.915 258.009" stroke="#BCBBFF" stroke-opacity="0.4" style="stroke:#BCBBFF;stroke:color(display-p3 0.7373 0.7333 1.0000);stroke-opacity:0.4;" stroke-width="8" stroke-linecap="round" stroke-linejoin="round"/>
<path d="M415.449 187.305C417.111 185.618 419.337 184.587 421.711 184.968C424.091 185.344 425.884 187.022 426.936 189.144C427.99 191.271 428.374 193.958 427.936 196.715L427.936 196.717C427.492 199.479 426.286 201.912 424.621 203.604C422.959 205.292 420.734 206.326 418.36 205.951L418.357 205.95C415.978 205.568 414.185 203.893 413.133 201.769C412.079 199.642 411.695 196.955 412.133 194.194L412.134 194.191C412.577 191.429 413.783 188.996 415.449 187.305Z" fill="black" style="fill:black;fill-opacity:1;"/>
<path d="M371.509 184.832C373.128 183.36 375.246 182.504 377.433 182.996C379.624 183.487 381.176 185.163 382.012 187.187C382.85 189.215 383.038 191.719 382.468 194.238C381.904 196.762 380.663 198.947 379.041 200.425C377.422 201.899 375.304 202.754 373.116 202.263C370.924 201.771 369.372 200.091 368.537 198.066C367.699 196.036 367.512 193.53 368.081 191.01C368.646 188.491 369.886 186.308 371.509 184.832Z" fill="black" style="fill:black;fill-opacity:1;"/>
<path d="M496.126 265.529C497.556 261.199 498.986 256.869 500.366 252.509C505.146 237.419 509.316 222.139 510.676 206.409C512.436 186.149 509.106 164.769 497.426 148.109C481.286 125.109 450.676 114.619 422.916 119.009C395.156 123.399 370.606 141.039 353.896 163.639C339.566 183.029 330.546 205.829 324.786 229.319C323.826 233.199 322.966 237.099 322.186 241.009C317.626 263.749 315.726 287.159 316.716 310.389C318.436 350.419 328.756 389.889 348.886 424.429C351.616 429.119 357.446 434.289 361.576 430.769C362.986 429.559 363.586 427.629 364.846 426.259C367.396 423.479 372.006 423.749 375.316 425.549C378.636 427.359 381.126 430.319 384.046 432.719C393.946 440.879 409.276 441.619 419.916 434.449C424.626 431.279 428.366 426.819 433.126 423.729C437.876 420.629 445.276 418.209 449.956 421.419" stroke="black" style="stroke:black;stroke-opacity:1;" stroke-width="8" stroke-linecap="round" stroke-linejoin="round"/>
<path d="M449.965 421.41C450.825 422.02 451.705 422.61 452.595 423.18C465.375 431.41 481.165 435.99 495.975 432.6C510.105 429.36 522.165 418.91 528.325 405.79C531.275 399.52 533.155 392.41 538.225 387.69C542.055 384.13 547.205 382.43 551.715 379.77C558.735 375.64 564.265 369.03 567.085 361.38C569.165 355.73 569.555 348.79 565.625 344.23C563.295 341.52 559.845 340.12 556.745 338.33C553.655 336.54 549.975 331.31 549.525 327.77" stroke="black" style="stroke:black;stroke-opacity:1;" stroke-width="8" stroke-linecap="round" stroke-linejoin="round"/>
<path d="M422.016 391.56C431.267 402.878 441.111 414.002 453.148 422.303" stroke="black" style="stroke:black;stroke-opacity:1;" stroke-width="6" stroke-linecap="round" stroke-linejoin="round"/>
<path d="M362.705 411.469C358.025 404.029 354.105 396.099 351.045 387.859" stroke="black" style="stroke:black;stroke-opacity:1;" stroke-width="6" stroke-linecap="round" stroke-linejoin="round"/>
<path d="M522.085 377.559C505.325 371.449 489.735 362.159 476.375 350.329" stroke="black" style="stroke:black;stroke-opacity:1;" stroke-width="6" stroke-linecap="round" stroke-linejoin="round"/>
<path d="M316.455 310.399C314.545 302.199 309.575 294.309 304.775 287.389C299.985 280.469 294.725 273.819 290.805 266.369C286.885 258.909 284.345 250.429 285.505 242.079C286.675 233.739 292.115 225.689 300.135 223.109C307.955 220.599 317.925 224.799 324.785 229.319" stroke="black" style="stroke:black;stroke-opacity:1;" stroke-width="8" stroke-linecap="round" stroke-linejoin="round"/>
<path d="M493.484 323.86C500.074 327.67 506.714 331.51 513.904 333.99C521.094 336.47 528.974 337.54 536.354 335.69C541.384 334.43 546.144 331.66 549.524 327.77C551.094 325.96 552.364 323.9 553.224 321.63C556.844 312.07 552.454 301.05 545.484 293.57C538.514 286.09 529.294 281.18 520.804 275.48C512.314 269.78 503.644 262.19 500.364 252.51" stroke="black" style="stroke:black;stroke-opacity:1;" stroke-width="8" stroke-linecap="round" stroke-linejoin="round"/>
<ellipse cx="466.086" cy="482.819" rx="103.381" ry="9.19141" fill="black" fill-opacity="0.15" style="fill:black;fill-opacity:0.15;"/>
<rect x="4.31055" y="64.0928" width="298.693" height="188.648" rx="8" fill="white" fill-opacity="0.75" style="fill:white;fill-opacity:0.75;"/>
<path d="M164.834 159.023C164.834 159.023 181.619 130.723 199.277 121.675C222.612 109.717 242.009 131.25 266.419 121.675C282.773 115.259 303.004 95.5 303.004 95.5V252.742H4.31055C4.31055 252.742 23.0951 216.97 44.8892 207.782C70.9127 196.81 90.1644 227.249 116.583 217.265C144.212 206.823 164.834 159.023 164.834 159.023Z" fill="#BCBBFF" fill-opacity="0.4" style="fill:#BCBBFF;fill:color(display-p3 0.7373 0.7333 1.0000);fill-opacity:0.4;"/>
<path d="M9.4375 249.969C22.0953 228.663 38.8171 201.345 65.3137 204.226C79.3738 205.169 96.7955 218.015 110.948 216.408C148.423 211.711 162.386 149.837 193.441 127.256C218.609 106.474 246.008 130.609 273.593 117.842C285.697 112.219 293.63 101.122 303.003 91.2725" stroke="#020075" stroke-opacity="0.4" style="stroke:#020075;stroke:color(display-p3 0.0067 0.0000 0.4578);stroke-opacity:0.4;" stroke-width="8" stroke-linecap="round" stroke-linejoin="round"/>
<rect x="4.31055" y="64.0928" width="298.693" height="188.648" rx="8" stroke="black" style="stroke:black;stroke-opacity:1;" stroke-width="8" stroke-linecap="round" stroke-linejoin="round"/>
<rect x="569.467" y="4.61719" width="215.322" height="135.993" rx="8" fill="white" fill-opacity="0.75" style="fill:white;fill-opacity:0.75;"/>
<path d="M782.717 7.5791L571.812 136.689H782.717V7.5791Z" fill="#BCBBFF" fill-opacity="0.4" style="fill:#BCBBFF;fill:color(display-p3 0.7373 0.7333 1.0000);fill-opacity:0.4;"/>
<rect x="569.467" y="4.61719" width="215.322" height="135.993" rx="8" stroke="black" style="stroke:black;stroke-opacity:1;" stroke-width="8" stroke-linecap="round" stroke-linejoin="round"/>
<path d="M599.432 99.3154C612.16 99.3154 611.023 107.387 618.855 107.387C626.687 107.387 630.446 99.3154 638.279 99.3154C646.111 99.3154 649.87 107.387 657.702 107.387C665.534 107.387 669.293 99.3154 677.126 99.3154C684.958 99.3154 688.717 107.387 696.549 107.387C704.381 107.387 708.141 99.3154 715.973 99.3154C723.805 99.3154 727.564 107.387 735.396 107.387C743.229 107.387 744.301 99.3154 754.82 99.3154" stroke="#020075" stroke-opacity="0.4" style="stroke:#020075;stroke:color(display-p3 0.0067 0.0000 0.4578);stroke-opacity:0.4;" stroke-width="8" stroke-linecap="round" stroke-linejoin="round"/>
<path d="M599.432 68.5776C612.16 68.5776 611.023 76.649 618.855 76.649C626.687 76.649 630.446 68.5776 638.279 68.5776C646.111 68.5776 649.87 76.649 657.702 76.649C665.534 76.649 669.293 68.5776 677.126 68.5776C684.958 68.5776 688.717 76.649 696.549 76.649C704.381 76.649 708.141 68.5776 715.973 68.5776C723.805 68.5776 727.564 76.649 735.396 76.649C743.229 76.649 744.301 68.5776 754.82 68.5776" stroke="#020075" stroke-opacity="0.4" style="stroke:#020075;stroke:color(display-p3 0.0067 0.0000 0.4578);stroke-opacity:0.4;" stroke-width="8" stroke-linecap="round" stroke-linejoin="round"/>
<path d="M599.432 37.8408C612.16 37.8408 611.023 45.9122 618.855 45.9122C626.687 45.9122 630.446 37.8408 638.279 37.8408C646.111 37.8408 649.87 45.9122 657.702 45.9122C665.534 45.9122 669.293 37.8408 677.126 37.8408C684.958 37.8408 688.717 45.9122 696.549 45.9122C704.381 45.9122 708.141 37.8408 715.973 37.8408C723.805 37.8408 727.564 45.9122 735.396 45.9122C743.229 45.9122 744.301 37.8408 754.82 37.8408" stroke="#020075" stroke-opacity="0.4" style="stroke:#020075;stroke:color(display-p3 0.0067 0.0000 0.4578);stroke-opacity:0.4;" stroke-width="8" stroke-linecap="round" stroke-linejoin="round"/>
<rect x="655.367" y="265.529" width="89.5811" height="89.5811" rx="8" fill="white" fill-opacity="0.75" style="fill:white;fill-opacity:0.75;"/>
<path d="M700.166 298.375V265.804H737.093C739.136 265.804 741.106 266.562 742.621 267.931C744.353 269.494 745.341 271.718 745.341 274.051V347.573C745.341 348.797 745.017 350 744.402 351.059C743.159 353.199 740.871 354.516 738.397 354.516H700.166V322.599L703.953 321.143C706.963 319.985 709.349 317.617 710.528 314.615L710.605 314.419C711.676 311.693 711.615 308.653 710.435 305.972C709.306 303.406 707.239 301.368 704.657 300.275L700.166 298.375Z" fill="#BCBBFF" fill-opacity="0.4" style="fill:#BCBBFF;fill:color(display-p3 0.7373 0.7333 1.0000);fill-opacity:0.4;"/>
<path d="M700.157 322.264C706.754 322.264 712.101 316.916 712.101 310.32C712.101 303.723 706.754 298.376 700.157 298.376M700.157 322.264C693.56 322.264 688.213 316.916 688.213 310.32C688.213 303.723 693.56 298.376 700.157 298.376M700.157 322.264V355.11M700.157 298.376V265.529" stroke="#020075" stroke-opacity="0.4" style="stroke:#020075;stroke:color(display-p3 0.0067 0.0000 0.4578);stroke-opacity:0.4;" stroke-width="8" stroke-linecap="round" stroke-linejoin="round"/>
<rect x="655.367" y="265.529" width="89.5811" height="89.5811" rx="8" stroke="black" style="stroke:black;stroke-opacity:1;" stroke-width="8" stroke-linecap="round" stroke-linejoin="round"/>
</svg>
