<svg width="542" height="137" viewBox="0 0 542 137" fill="none" xmlns="http://www.w3.org/2000/svg">
<path d="M472.543 108.403C454.674 108.403 438.796 95.4561 434.706 77.5809H540.799C540.799 77.5809 541.369 71.1041 541.369 68.8129C541.369 30.8736 510.502 0 472.562 0C434.623 0 403.756 30.8672 403.756 68.8129C403.756 106.759 434.45 136.909 472.562 136.909C510.674 136.909 532.927 108.832 538.482 88.5057H506.143C506.143 88.5057 495.858 108.403 472.543 108.403ZM472.562 28.4928C489.695 28.4928 504.569 39.808 509.663 56.6721H435.461C440.537 39.808 455.417 28.4928 472.562 28.4928Z" fill="white" style="fill:white;fill-opacity:1;"/>
<path d="M67.6993 136.909C29.76 136.909 0 106.362 0 68.8129C0 31.264 30.8672 0 68.8065 0C106.746 0 137.613 32.0832 137.613 68.4481C137.613 83.9425 137.613 133.498 137.613 133.498H110.899V111.789L108.954 111.277C104.25 122.81 87.2065 136.909 67.6929 136.909H67.6993ZM68.8065 28.4928C47.3792 28.4928 29.9392 46.4833 29.9392 68.6017C29.9392 90.7201 47.3728 108.41 68.8065 108.41C90.2401 108.41 107.674 90.5537 107.674 68.6017C107.674 46.6497 90.2401 28.4928 68.8065 28.4928Z" fill="white" style="fill:white;fill-opacity:1;"/>
<path d="M213.842 136.909C175.903 136.909 146.143 106.362 146.143 68.8129C146.143 31.264 177.01 0 214.949 0C252.888 0 283.756 32.0832 283.756 68.4481C283.756 83.9425 283.756 133.498 283.756 133.498H257.042V111.789L255.096 111.277C250.392 122.81 233.349 136.909 213.835 136.909H213.842ZM214.949 28.4928C193.522 28.4928 176.082 46.4833 176.082 68.6017C176.082 90.7201 193.515 108.41 214.949 108.41C236.383 108.41 253.816 90.5537 253.816 68.6017C253.816 46.6497 236.383 28.4928 214.949 28.4928Z" fill="white" style="fill:white;fill-opacity:1;"/>
<path d="M328.6 133.483L273.771 3.42188H303.768L343.954 99.23L384.146 3.42188H414.136L359.314 133.483H328.6Z" fill="white" style="fill:white;fill-opacity:1;"/>
</svg>
