<?xml version="1.0" encoding="UTF-8"?>
<svg id="Layer_1" data-name="Layer 1" xmlns="http://www.w3.org/2000/svg" viewBox="0 0 3033.63 663.06">
  <defs>
    <style>
      .cls-1 {
        fill: #201d1d;
        stroke-width: 0px;
      }
    </style>
  </defs>
  <path class="cls-1" d="M1321.78,107.06c-106.12,0-192.45,86.34-192.45,192.47s85.85,190.47,192.45,190.47,168.84-78.53,184.38-135.39h-90.45s-28.77,55.65-93.98,55.65c-49.98,0-94.39-36.21-105.83-86.21h296.75s1.59-18.12,1.59-24.52c0-106.12-86.34-192.47-192.45-192.47ZM1218.01,265.57c14.19-47.17,55.81-78.82,103.77-78.82s89.52,31.65,103.77,78.82h-207.55Z"/>
  <path class="cls-1" d="M192.46,107.06C86.34,107.06,0,194.51,0,299.53s83.24,190.46,189.35,190.47c54.58,0,102.24-39.44,115.4-71.69l5.44,1.43v60.72h74.72v-181.95c0-101.71-86.34-191.45-192.46-191.45ZM192.46,410.29c-59.95,0-108.71-49.48-108.71-111.34s48.78-112.19,108.71-112.19,108.71,50.79,108.71,112.19-48.76,111.34-108.71,111.34Z"/>
  <path class="cls-1" d="M601.22,107.06c-106.12,0-192.45,87.45-192.45,192.47s83.24,190.46,189.35,190.47c54.58,0,102.24-39.44,115.4-71.69l5.44,1.43v60.72h74.72v-181.95c0-101.71-86.33-191.45-192.45-191.45ZM601.22,410.29c-59.95,0-108.71-49.48-108.71-111.34s48.78-112.19,108.71-112.19,108.71,50.79,108.71,112.19-48.76,111.34-108.71,111.34Z"/>
  <polygon class="cls-1" points="1074.47 116.63 962.05 384.61 849.66 116.63 765.75 116.63 919.11 480.41 1005.02 480.41 1158.36 116.63 1074.47 116.63"/>
  <path class="cls-1" d="M2451.7,105.6l.06.06c-71.92,0-106.66,53.11-114.84,71.67l-5.05-1.08V0h-79.59v480.46h84.24v-186.63c1.93-59.92,47.34-108.1,106.33-108.1s94.57,41.88,94.57,101.74v192.93h84.24v-200.19c-1.7-104.01-64.37-174.6-169.96-174.6Z"/>
  <path class="cls-1" d="M2840.27,105.66c-106.78,0-193.35,86.02-193.35,192.08s86.57,192.08,193.35,192.08,193.35-86.02,193.35-192.08-86.57-192.08-193.35-192.08ZM2840.27,410.09c-60.11,0-108.88-50.28-108.88-112.24s48.77-112.24,108.88-112.24,108.88,50.28,108.88,112.24-48.77,112.24-108.88,112.24Z"/>
  <path class="cls-1" d="M2122.51,163.71l-3.24,1.7c-8.17-18.56-50.58-59.87-112.79-59.87-106.61,0-186.48,85.68-186.48,192.31s83.56,192.31,190.17,192.31c54.84,0,102.69-39.61,115.92-72.01l5.45,1.42v56.51c0,59.64-59.78,111.5-118.19,111.5-50.52,0-96.16-33.93-109.39-81.54h-81.63c13.97,91.64,94.06,157.01,191.02,157.01,105.02,0,193.35-79.44,193.35-186.86V115.48h-84.19v48.23ZM2013.35,409.98c-60.23,0-109.22-50.16-109.22-111.79s48.99-112.64,109.22-112.64,109.22,50.5,109.22,112.64-48.99,111.79-109.22,111.79Z"/>
  <polygon class="cls-1" points="1537.59 539.12 1605.4 539.12 1796.76 20.78 1728.96 20.78 1537.59 539.12"/>
</svg>