<?xml version="1.0" encoding="UTF-8"?>
<svg id="Layer_1" data-name="Layer 1" xmlns="http://www.w3.org/2000/svg" viewBox="0 0 1416.01 773.91">
  <defs>
    <style>
      .cls-1 {
        fill: #fff;
        stroke-width: 0px;
      }
    </style>
  </defs>
  <path class="cls-1" d="M737.15,123.34c-83.92,0-124.47,61.99-133.99,83.65l-5.87-1.29V0h-92.85v560.81h98.27v-217.83c2.23-69.96,55.24-126.18,124.08-126.18s110.36,48.91,110.36,118.79v225.22s98.27,0,98.27,0v-233.64c-1.96-121.43-75.13-203.82-198.28-203.82Z"/>
  <path class="cls-1" d="M1190.43,123.34c-124.58,0-225.57,100.39-225.57,224.22s100.99,224.23,225.57,224.23,225.57-100.39,225.57-224.23-100.99-224.22-225.57-224.22ZM1190.43,478.66c-70.17,0-127.05-58.67-127.05-131.04s56.88-131.04,127.05-131.04,127.05,58.67,127.05,131.04-56.88,131.04-127.05,131.04Z"/>
  <path class="cls-1" d="M352.98,191.1l-3.78,1.99c-9.52-21.66-59.04-69.9-131.61-69.9C93.2,123.19,0,223.19,0,347.62s97.52,224.44,221.9,224.44c63.97,0,119.85-46.23,135.26-84.03l6.39,1.67v66c0,69.58-69.72,130.12-137.93,130.12-58.92,0-112.22-39.59-127.65-95.2H2.72c16.26,106.94,109.78,183.28,222.9,183.28,122.51,0,225.61-92.73,225.61-218.09h0V134.82h-98.26v56.28ZM225.62,478.55c-70.25,0-127.41-58.54-127.41-130.49s57.15-131.48,127.41-131.48,127.4,58.98,127.4,131.48-57.15,130.49-127.4,130.49Z"/>
</svg>