<?xml version="1.0" encoding="UTF-8"?>
<svg id="Layer_1" data-name="Layer 1" xmlns="http://www.w3.org/2000/svg" viewBox="0 0 2555.89 850.72">
  <defs>
    <style>
      .cls-1 {
        fill: #fff;
        stroke-width: 0px;
      }
    </style>
  </defs>
  <path class="cls-1" d="M207.38,341.47c0,46.16,37.42,83.59,83.59,83.59s83.59-37.42,83.59-83.59-37.42-83.59-83.59-83.59-83.59,37.42-83.59,83.59Z"/>
  <path class="cls-1" d="M418.04,341.47c0,46.16,37.42,83.59,83.59,83.59s83.59-37.42,83.59-83.59-37.42-83.59-83.59-83.59-83.59,37.42-83.59,83.59Z"/>
  <path class="cls-1" d="M684.88,341.47h107.51C763.03,148.08,594.22,0,396.19,0,177.37,0-.06,180.81,0,403.77c-.06,222.96,177.37,403.77,396.19,403.77,137.68,0,233.74-63.79,292.65-164.17,1.36.42,2.86.76,4.16,1.12v138.86h99.38v-333.09h-107.51c-21.73,143.73-140.31,248.37-288.69,248.37-163.96,0-294.98-127.77-294.98-294.87S232.23,106.49,396.19,106.49c142.92,0,260.78,98.93,288.69,234.98Z"/>
  <path class="cls-1" d="M1877.04,200.15c-83.92,0-124.47,61.99-133.99,83.65l-5.87-1.29V76.81h-92.85v560.81h98.27v-217.83c2.23-69.96,55.24-126.18,124.08-126.18s110.36,48.91,110.36,118.79v225.22s98.27,0,98.27,0v-233.64c-1.96-121.43-75.13-203.82-198.28-203.82Z"/>
  <path class="cls-1" d="M2330.32,200.15c-124.58,0-225.57,100.39-225.57,224.22s100.99,224.23,225.57,224.23,225.57-100.39,225.57-224.23-100.99-224.22-225.57-224.22ZM2330.32,555.47c-70.17,0-127.05-58.67-127.05-131.04s56.88-131.04,127.05-131.04,127.05,58.67,127.05,131.04-56.88,131.04-127.05,131.04Z"/>
  <path class="cls-1" d="M1492.86,267.9l-3.78,1.99c-9.52-21.66-59.04-69.9-131.61-69.9-124.38,0-217.59,100-217.59,224.44s97.52,224.44,221.9,224.44c63.97,0,119.85-46.23,135.26-84.03l6.39,1.67v66c0,69.58-69.72,130.12-137.93,130.12-58.92,0-112.22-39.59-127.65-95.2h-95.25c16.26,106.94,109.78,183.28,222.9,183.28,122.51,0,225.61-92.73,225.61-218.09h0V211.63h-98.26v56.28ZM1365.5,555.35c-70.25,0-127.41-58.54-127.41-130.49s57.15-131.48,127.41-131.48,127.4,58.98,127.4,131.48-57.15,130.49-127.4,130.49Z"/>
</svg>