<svg width="200" height="200" viewBox="0 0 200 200" fill="none" xmlns="http://www.w3.org/2000/svg">
<rect width="200" height="200" rx="100" fill="#9391F7" style="fill:#9391F7;fill:color(display-p3 0.5765 0.5686 0.9686);fill-opacity:1;"/>
<circle cx="100" cy="100" r="83" fill="white" style="fill:white;fill-opacity:1;"/>
<path d="M84.5697 104.048C91.687 102.893 96.5201 96.1863 95.3648 89.069C94.2095 81.9517 87.5033 77.1186 80.386 78.2739C73.2687 79.4292 68.4356 86.1354 69.5909 93.2527C70.7462 100.37 77.4524 105.203 84.5697 104.048Z" fill="#9391F7" style="fill:#9391F7;fill:color(display-p3 0.5765 0.5686 0.9686);fill-opacity:1;"/>
<path d="M118.693 104.048C125.81 102.893 130.644 96.1863 129.488 89.069C128.333 81.9517 121.627 77.1186 114.509 78.2739C107.392 79.4292 102.559 86.1354 103.714 93.2527C104.87 100.37 111.576 105.203 118.693 104.048Z" fill="#9391F7" style="fill:#9391F7;fill:color(display-p3 0.5765 0.5686 0.9686);fill-opacity:1;"/>
<path d="M99.5178 37.2676C64.0686 37.2676 35.3282 66.5554 35.3375 102.673H51.7336C51.7336 75.6056 72.958 53.6606 99.5178 53.6606C126.078 53.6606 147.302 75.6056 147.302 102.673H163.698C163.704 66.5554 134.964 37.2676 99.5178 37.2676Z" fill="#9391F7" style="fill:#9391F7;fill:color(display-p3 0.5765 0.5686 0.9686);fill-opacity:1;"/>
</svg>
