<svg width="254" height="254" viewBox="0 0 254 254" fill="none" xmlns="http://www.w3.org/2000/svg">
<rect width="254" height="254" rx="8" fill="#9391F7" style="fill:#9391F7;fill:color(display-p3 0.5765 0.5686 0.9686);fill-opacity:1;"/>
<rect width="254" height="254" fill="#9391F7" style="fill:#9391F7;fill:color(display-p3 0.5765 0.5686 0.9686);fill-opacity:1;"/>
<path d="M103.39 133.194C114.28 131.426 121.675 121.164 119.908 110.274C118.14 99.3838 107.878 91.9885 96.9882 93.7562C86.0979 95.524 78.7026 105.785 80.4703 116.676C82.2381 127.566 92.4994 134.961 103.39 133.194Z" fill="white" style="fill:white;fill-opacity:1;"/>
<path d="M155.604 133.194C166.494 131.426 173.889 121.164 172.121 110.274C170.354 99.3838 160.092 91.9885 149.202 93.7562C138.312 95.524 130.916 105.785 132.684 116.676C134.452 127.566 144.713 134.961 155.604 133.194Z" fill="white" style="fill:white;fill-opacity:1;"/>
<path d="M126.262 31.0117C72.0206 31.0117 28.0444 75.8256 28.0586 131.089H53.1466C53.1466 89.6735 85.6224 56.095 126.262 56.095C166.902 56.095 199.378 89.6735 199.378 131.089H224.466C224.475 75.8256 180.499 31.0117 126.262 31.0117Z" fill="white" style="fill:white;fill-opacity:1;"/>
</svg>
