<svg width="647" height="72" viewBox="0 0 647 72" fill="none" xmlns="http://www.w3.org/2000/svg">
<path d="M291.213 51.9024C284.409 51.9024 278.365 46.9721 276.807 40.1651H317.205C317.205 40.1651 317.422 37.6988 317.422 36.8263C317.422 22.3789 305.668 10.6245 291.223 10.6245C276.778 10.6245 265.024 22.3789 265.024 36.8263C265.024 51.2737 276.71 62.7551 291.223 62.7551C305.736 62.7551 314.208 52.0657 316.323 44.3254H304.008C304.008 44.3254 300.092 51.9 291.216 51.9L291.213 51.9024ZM291.221 21.4747C297.742 21.4747 303.409 25.7811 305.346 32.203H277.092C279.025 25.7811 284.691 21.4747 291.218 21.4747H291.221Z" fill="#201D1D" style="fill:#201D1D;fill:color(display-p3 0.1255 0.1137 0.1137);fill-opacity:1;"/>
<path d="M137.062 62.755C122.614 62.755 111.284 51.1226 111.284 36.8263C111.284 22.53 123.039 10.6245 137.483 10.6245C151.928 10.6245 163.683 22.8395 163.683 36.6873C163.683 42.5877 163.683 61.456 163.683 61.456H153.513V53.1892L152.772 52.9943C150.98 57.386 144.49 62.755 137.062 62.755ZM137.483 21.4722C129.324 21.4722 122.685 28.323 122.685 36.7434C122.685 45.1637 129.324 51.9 137.483 51.9C145.643 51.9 152.282 45.1004 152.282 36.7434C152.282 28.3864 145.643 21.4722 137.483 21.4722Z" fill="#201D1D" style="fill:#201D1D;fill:color(display-p3 0.1255 0.1137 0.1137);fill-opacity:1;"/>
<path d="M192.708 62.755C178.261 62.755 166.931 51.1226 166.931 36.8263C166.931 22.53 178.685 10.6245 193.13 10.6245C207.575 10.6245 219.329 22.8395 219.329 36.6873C219.329 42.5877 219.329 61.456 219.329 61.456H209.159V53.1892L208.418 52.9943C206.627 57.386 200.137 62.755 192.708 62.755ZM193.13 21.4722C184.97 21.4722 178.332 28.323 178.332 36.7434C178.332 45.1637 184.97 51.9 193.13 51.9C201.29 51.9 207.928 45.1004 207.928 36.7434C207.928 28.3864 201.29 21.4722 193.13 21.4722Z" fill="#201D1D" style="fill:#201D1D;fill:color(display-p3 0.1255 0.1137 0.1137);fill-opacity:1;"/>
<path d="M236.405 61.4559L215.528 11.9331H226.949L242.252 48.4147L257.557 11.9331H268.975L248.101 61.4559H236.405Z" fill="#201D1D" style="fill:#201D1D;fill:color(display-p3 0.1255 0.1137 0.1137);fill-opacity:1;"/>
<path d="M50.5683 9.84717C22.6386 9.84717 -0.00730967 32.9269 1.76992e-06 61.3855H12.9193C12.9193 40.058 29.643 22.7665 50.5708 22.7665C71.4985 22.7665 88.2222 40.058 88.2222 61.3855H101.142C101.149 32.9269 78.5029 9.84961 50.5732 9.84961L50.5683 9.84717Z" fill="#201D1D" style="fill:#201D1D;fill:color(display-p3 0.1255 0.1137 0.1137);fill-opacity:1;"/>
<path d="M45.3767 43.7461C41.7526 41.9085 37.2098 44.9037 37.1221 48.7569C37.0368 44.9135 32.4939 41.9182 28.8699 43.7461C23.3741 46.5317 26.3133 53.7969 27.8097 55.9538C29.8423 58.8881 32.7035 61.5348 35.7207 62.6827C36.6273 63.0215 37.629 63.0215 38.5259 62.6827C41.5406 61.5348 44.4042 58.8808 46.4368 55.9538C47.9357 53.7871 50.8846 46.5196 45.3767 43.7461Z" fill="#201D1D" style="fill:#201D1D;fill:color(display-p3 0.1255 0.1137 0.1137);fill-opacity:1;"/>
<path d="M72.2661 43.7969C68.6421 41.9593 64.0993 44.9545 64.0115 48.8076C63.9262 44.9642 59.3834 41.969 55.7593 43.7969C50.2636 46.5825 53.2028 53.8477 54.6992 56.0045C56.7318 58.9389 59.593 61.5856 62.6102 62.7335C63.5168 63.0722 64.5185 63.0722 65.4153 62.7335C68.4301 61.5856 71.2937 58.9315 73.3263 56.0045C74.8251 53.8379 77.7741 46.5703 72.2661 43.7969Z" fill="#201D1D" style="fill:#201D1D;fill:color(display-p3 0.1255 0.1137 0.1137);fill-opacity:1;"/>
<path d="M483.854 53.9622C477.049 53.9622 471.002 49.0316 469.444 42.2242H509.847C509.847 42.2242 510.064 39.7576 510.064 38.8851C510.064 24.4367 498.309 12.6792 483.861 12.6792C469.413 12.6792 457.658 24.4343 457.658 38.8851C457.658 53.3358 469.347 64.818 483.861 64.818C498.375 64.818 506.85 54.1255 508.965 46.3847H496.649C496.649 46.3847 492.733 53.9622 483.854 53.9622ZM483.861 23.5301C490.386 23.5301 496.05 27.8392 497.99 34.2615H469.732C471.665 27.8392 477.331 23.5301 483.861 23.5301Z" fill="#8F8E8E" style="fill:#8F8E8E;fill:color(display-p3 0.5608 0.5569 0.5569);fill-opacity:1;"/>
<path d="M587.039 51.3529C585.352 49.9003 584.512 47.6556 584.512 44.6187V23.246H596.588V13.9867H584.512V0.847168H573.095V13.9867H564.377V23.246H573.095V45.0281C573.095 51.2701 574.762 56.0764 578.101 59.4472C581.438 62.818 585.928 64.5022 591.567 64.5022C593.902 64.5022 594.819 64.3023 596.588 63.9026V53.003C596.588 53.003 595.209 53.5295 593.576 53.5295C590.639 53.5295 588.726 52.8031 587.041 51.3505L587.039 51.3529Z" fill="#8F8E8E" style="fill:#8F8E8E;fill:color(display-p3 0.5608 0.5569 0.5569);fill-opacity:1;"/>
<path d="M429.039 63.5206L408.163 13.9946H419.584L434.888 50.4786L450.192 13.9946H461.613L440.735 63.5206H429.039Z" fill="#8F8E8E" style="fill:#8F8E8E;fill:color(display-p3 0.5608 0.5569 0.5569);fill-opacity:1;"/>
<path d="M563.899 36.4137C563.67 22.3091 555.173 12.7378 540.866 12.7378C531.117 12.7378 526.408 19.9376 525.302 22.4553L524.619 22.3042V13.9857H513.834V63.5117H525.248V38.249C525.506 30.1231 531.666 23.5911 539.662 23.5911C547.659 23.5911 552.483 29.2724 552.483 37.3887V63.5092H563.899V36.4089V36.4137Z" fill="#8F8E8E" style="fill:#8F8E8E;fill:color(display-p3 0.5608 0.5569 0.5569);fill-opacity:1;"/>
<path d="M356.438 1.1001L330.271 71.9768H321L347.167 1.1001H356.438Z" fill="#8F8E8E" style="fill:#8F8E8E;fill:color(display-p3 0.5608 0.5569 0.5569);fill-opacity:1;"/>
<path d="M385.433 53.9622C378.628 53.9622 372.581 49.0316 371.023 42.2242H411.427C411.427 42.2242 411.643 39.7576 411.643 38.8851C411.643 24.4367 399.888 12.6792 385.44 12.6792C370.992 12.6792 359.237 24.4343 359.237 38.8851C359.237 53.3358 370.926 64.818 385.44 64.818C399.954 64.818 408.429 54.1255 410.544 46.3847H398.229C398.229 46.3847 394.312 53.9622 385.433 53.9622ZM385.44 23.5301C391.965 23.5301 397.629 27.8392 399.569 34.2615H371.311C373.244 27.8392 378.91 23.5301 385.44 23.5301Z" fill="#8F8E8E" style="fill:#8F8E8E;fill:color(display-p3 0.5608 0.5569 0.5569);fill-opacity:1;"/>
<path d="M623.011 65.376C616.538 65.376 599.913 63.6235 598.909 47.006H610.291C610.873 51.6003 614.344 54.9467 623.325 54.9467C632.307 54.9467 635.507 51.4053 635.507 48.968C635.507 46.3382 634.006 44.9562 628.229 43.9253C627.108 43.7254 614.083 41.8316 611.919 41.2857C602.959 39.0238 600.11 34.1249 600.11 28.1754C600.11 16.3837 613.186 12.8765 621.59 12.8765C631.539 12.8765 642.646 16.2107 644.978 29.2576H633.752C632.343 23.1448 624.278 22.6354 621.634 22.6354C618.67 22.6354 611.339 23.7249 611.339 27.7684C611.339 30.0424 612.872 31.2513 616.326 31.7777C620.791 32.4602 629.229 33.8275 631.997 34.2394C636.448 34.9024 646.126 37.1496 646.126 48.4391C646.126 53.8963 641.62 65.3711 623.013 65.3711L623.011 65.376Z" fill="#8F8E8E" style="fill:#8F8E8E;fill:color(display-p3 0.5608 0.5569 0.5569);fill-opacity:1;"/>
</svg>
