<svg width="868" height="86" viewBox="0 0 868 86" fill="none" xmlns="http://www.w3.org/2000/svg">
<path d="M50.5683 18.6172C22.6387 18.6172 -0.00974544 41.6945 3.14589e-06 70.1531H12.9193C12.9193 48.8256 29.643 31.5341 50.5708 31.5341C71.4985 31.5341 88.2222 48.8256 88.2222 70.1531H101.142C101.149 41.6945 78.5029 18.6172 50.5732 18.6172H50.5683Z" fill="#201D1D" style="fill:#201D1D;fill:color(display-p3 0.1255 0.1137 0.1137);fill-opacity:1;"/>
<path d="M34.5695 50.4329C35.4493 48.064 38.7979 48.064 39.6778 50.4329L41.2156 54.5712C41.4861 55.2999 42.0564 55.8775 42.7802 56.1602L46.9989 57.8053C49.3118 58.707 49.3118 61.9826 46.9989 62.8843L42.7802 64.5294C42.0564 64.8121 41.4861 65.3897 41.2156 66.1184L39.6778 70.2567C38.7979 72.6256 35.4493 72.6256 34.5695 70.2567L33.0317 66.1184C32.7611 65.3897 32.1908 64.8121 31.467 64.5294L27.2483 62.8843C24.9355 61.9826 24.9355 58.707 27.2483 57.8053L31.467 56.1602C32.1908 55.8775 32.7611 55.2999 33.0317 54.5712L34.5695 50.4329Z" fill="#201D1D" style="fill:#201D1D;fill:color(display-p3 0.1255 0.1137 0.1137);fill-opacity:1;"/>
<path d="M61.4572 50.4329C62.337 48.064 65.6856 48.064 66.5654 50.4329L68.1033 54.5712C68.3738 55.2999 68.9441 55.8775 69.6679 56.1602L73.8866 57.8053C76.1995 58.707 76.1995 61.9826 73.8866 62.8843L69.6679 64.5294C68.9441 64.8121 68.3738 65.3897 68.1033 66.1184L66.5654 70.2567C65.6856 72.6256 62.337 72.6256 61.4572 70.2567L59.9194 66.1184C59.6488 65.3897 59.0785 64.8121 58.3547 64.5294L54.136 62.8843C51.8232 61.9826 51.8232 58.707 54.136 57.8053L58.3547 56.1602C59.0785 55.8775 59.6488 55.2999 59.9194 54.5712L61.4572 50.4329Z" fill="#201D1D" style="fill:#201D1D;fill:color(display-p3 0.1255 0.1137 0.1137);fill-opacity:1;"/>
<path d="M291.001 60.6178C284.197 60.6178 278.153 55.6874 276.595 48.8805H316.993C316.993 48.8805 317.21 46.4141 317.21 45.5416C317.21 31.0942 305.456 19.3398 291.011 19.3398C276.566 19.3398 264.812 31.0942 264.812 45.5416C264.812 59.989 276.498 71.4704 291.011 71.4704C305.524 71.4704 313.996 60.781 316.111 53.0407H303.796C303.796 53.0407 299.88 60.6153 291.004 60.6153L291.001 60.6178ZM291.009 30.19C297.53 30.19 303.197 34.4964 305.134 40.9183H276.88C278.813 34.4964 284.479 30.19 291.006 30.19H291.009Z" fill="#201D1D" style="fill:#201D1D;fill:color(display-p3 0.1255 0.1137 0.1137);fill-opacity:1;"/>
<path d="M136.85 71.4704C122.403 71.4704 111.072 59.8379 111.072 45.5416C111.072 31.2453 122.827 19.3398 137.272 19.3398C151.717 19.3398 163.471 31.5548 163.471 45.4027C163.471 51.303 163.471 70.1714 163.471 70.1714H153.301V61.9046L152.56 61.7096C150.768 66.1014 144.278 71.4704 136.85 71.4704ZM137.272 30.1876C129.112 30.1876 122.473 37.0384 122.473 45.4587C122.473 53.8791 129.112 60.6154 137.272 60.6154C145.431 60.6154 152.07 53.8157 152.07 45.4587C152.07 37.1018 145.431 30.1876 137.272 30.1876Z" fill="#201D1D" style="fill:#201D1D;fill:color(display-p3 0.1255 0.1137 0.1137);fill-opacity:1;"/>
<path d="M192.497 71.4704C178.049 71.4704 166.719 59.8379 166.719 45.5416C166.719 31.2453 178.473 19.3398 192.918 19.3398C207.363 19.3398 219.118 31.5548 219.118 45.4027C219.118 51.303 219.118 70.1714 219.118 70.1714H208.947V61.9046L208.206 61.7096C206.415 66.1014 199.925 71.4704 192.497 71.4704ZM192.918 30.1876C184.759 30.1876 178.12 37.0384 178.12 45.4587C178.12 53.8791 184.759 60.6154 192.918 60.6154C201.078 60.6154 207.717 53.8157 207.717 45.4587C207.717 37.1018 201.078 30.1876 192.918 30.1876Z" fill="#201D1D" style="fill:#201D1D;fill:color(display-p3 0.1255 0.1137 0.1137);fill-opacity:1;"/>
<path d="M236.193 70.1713L215.316 20.6484H226.737L242.04 57.1276L257.345 20.6484H268.763L247.889 70.1713H236.193Z" fill="#201D1D" style="fill:#201D1D;fill:color(display-p3 0.1255 0.1137 0.1137);fill-opacity:1;"/>
<path d="M536.205 19.3477C522.952 19.3477 517.302 30.5536 517.288 30.5805C513.654 23.8003 507.505 19.3477 499.063 19.3477C489.314 19.3477 484.457 26.547 483.351 29.0646L482.668 28.9135V20.6466H471.884V70.1792H483.297V44.8597C483.555 36.7343 488.781 30.2027 496.777 30.2027C504.773 30.2027 509.306 36.7416 509.306 44.8597V70.1792H520.722V44.8597C520.983 36.7343 525.893 30.2052 533.89 30.2052C541.886 30.2052 546.733 36.744 546.733 44.8621V70.1646H558.149V43.9921C557.92 29.8883 550.509 19.3525 536.205 19.3525V19.3477Z" fill="#8F8E8E" style="fill:#8F8E8E;fill:color(display-p3 0.5608 0.5569 0.5569);fill-opacity:1;"/>
<path d="M628.356 19.3477C615.103 19.3477 609.454 30.5536 609.439 30.5805C605.805 23.8003 599.656 19.3477 591.214 19.3477C581.466 19.3477 576.608 26.547 575.502 29.0646L574.82 28.9135V20.6466H564.035V70.1792H575.448V44.8597C575.707 36.7343 580.932 30.2027 588.928 30.2027C596.924 30.2027 601.458 36.7416 601.458 44.8597V70.1792H612.873V44.8597C613.134 36.7343 618.045 30.2052 626.041 30.2052C634.037 30.2052 638.885 36.744 638.885 44.8621V70.1646H650.3V43.9921C650.071 29.8883 642.66 19.3525 628.356 19.3525V19.3477Z" fill="#8F8E8E" style="fill:#8F8E8E;fill:color(display-p3 0.5608 0.5569 0.5569);fill-opacity:1;"/>
<path d="M762.794 43.0728C762.565 28.9691 754.069 19.3984 739.763 19.3984C730.014 19.3984 725.306 26.5978 724.199 29.1153L723.517 28.9642V20.6463H712.732V70.169H724.146V44.908C724.404 36.7826 730.563 30.251 738.559 30.251C746.555 30.251 751.378 35.932 751.378 44.0477V70.1666H762.794V43.068V43.0728Z" fill="#8F8E8E" style="fill:#8F8E8E;fill:color(display-p3 0.5608 0.5569 0.5569);fill-opacity:1;"/>
<path d="M655.804 47.7554C656.033 61.8591 664.529 71.4298 678.835 71.4298C688.583 71.4298 693.292 64.2304 694.398 61.7129L695.081 61.864V70.1673H705.865V20.6445H694.452V45.9202C694.194 54.0456 688.035 60.5772 680.039 60.5772C672.042 60.5772 667.219 54.8962 667.219 46.7805V20.647H655.804V47.7578V47.7554Z" fill="#8F8E8E" style="fill:#8F8E8E;fill:color(display-p3 0.5608 0.5569 0.5569);fill-opacity:1;"/>
<path d="M441.402 19.3594C426.933 19.3594 415.203 31.0187 415.203 45.4027C415.203 59.7867 426.933 71.446 441.402 71.446C455.872 71.446 467.602 59.7867 467.602 45.4027C467.602 31.0187 455.872 19.3594 441.402 19.3594ZM441.402 60.63C433.253 60.63 426.645 53.8157 426.645 45.41C426.645 37.0043 433.253 30.19 441.402 30.19C449.552 30.19 456.159 37.0043 456.159 45.41C456.159 53.8157 449.552 60.63 441.402 60.63Z" fill="#8F8E8E" style="fill:#8F8E8E;fill:color(display-p3 0.5608 0.5569 0.5569);fill-opacity:1;"/>
<path d="M399.527 50.8034C397.414 56.5429 392.048 60.63 385.74 60.63C377.591 60.63 370.983 53.8157 370.983 45.41C370.983 37.0043 377.591 30.19 385.74 30.19C392.079 30.19 397.47 34.321 399.559 40.1092H411.399C408.937 28.2647 398.387 19.3594 385.74 19.3594C371.271 19.3594 359.541 31.0187 359.541 45.4027C359.541 59.7867 371.271 71.446 385.74 71.446C398.348 71.446 408.871 62.5943 411.374 50.801H399.527V50.8034Z" fill="#8F8E8E" style="fill:#8F8E8E;fill:color(display-p3 0.5608 0.5569 0.5569);fill-opacity:1;"/>
<path d="M867.282 20.6523H855.864L840.505 57.1876L825.258 20.6523H813.838L834.941 70.2312L828.658 85.2367H840.074L867.282 20.6523Z" fill="#8F8E8E" style="fill:#8F8E8E;fill:color(display-p3 0.5608 0.5569 0.5569);fill-opacity:1;"/>
<path d="M806.961 58.0011C805.274 56.5485 804.434 54.3039 804.434 51.2672V29.8959H817.935L816.512 20.6445H804.436V7.49609H793.02V20.6445H784.303V29.8959H793.02V51.6767C793.02 57.9182 794.687 62.7243 798.026 66.0948C801.363 69.4654 805.852 71.1495 811.492 71.1495C813.826 71.1495 814.743 70.9496 816.512 70.5499V59.651C816.512 59.651 815.133 60.1774 813.5 60.1774C810.563 60.1774 808.65 59.4512 806.966 57.9986L806.961 58.0011Z" fill="#8F8E8E" style="fill:#8F8E8E;fill:color(display-p3 0.5608 0.5569 0.5569);fill-opacity:1;"/>
<path d="M780.108 20.6445H768.692V70.1674H780.108V20.6445Z" fill="#8F8E8E" style="fill:#8F8E8E;fill:color(display-p3 0.5608 0.5569 0.5569);fill-opacity:1;"/>
<path d="M774.397 15.3979C778.649 15.3979 782.096 11.951 782.096 7.69895C782.096 3.44694 778.649 0 774.397 0C770.145 0 766.698 3.44694 766.698 7.69895C766.698 11.951 770.145 15.3979 774.397 15.3979Z" fill="#8F8E8E" style="fill:#8F8E8E;fill:color(display-p3 0.5608 0.5569 0.5569);fill-opacity:1;"/>
<path d="M356.744 7.75781L330.579 78.63H321.308L347.473 7.75781H356.744Z" fill="#8F8E8E" style="fill:#8F8E8E;fill:color(display-p3 0.5608 0.5569 0.5569);fill-opacity:1;"/>
</svg>
