<svg width="525" height="74" viewBox="0 0 525 74" fill="none" xmlns="http://www.w3.org/2000/svg">
<path d="M50.5683 13.8149C22.6387 13.8149 -0.00974544 36.8923 3.14589e-06 65.3508H12.9193C12.9193 44.0234 29.643 26.7318 50.5708 26.7318C71.4985 26.7318 88.2222 44.0234 88.2222 65.3508H101.142C101.149 36.8923 78.5029 13.8149 50.5732 13.8149H50.5683Z" fill="#201D1D" style="fill:#201D1D;fill:color(display-p3 0.1255 0.1137 0.1137);fill-opacity:1;"/>
<path d="M34.9935 46.5041L27.373 54.1246C26.1956 55.3019 26.1956 57.2108 27.373 58.3881L34.9935 66.0086C36.1708 67.186 38.0797 67.186 39.257 66.0086L46.8775 58.3881C48.0548 57.2108 48.0549 55.3019 46.8775 54.1246L39.257 46.5041C38.0797 45.3268 36.1708 45.3267 34.9935 46.5041Z" fill="#201D1D" style="fill:#201D1D;fill:color(display-p3 0.1255 0.1137 0.1137);fill-opacity:1;"/>
<path d="M61.8831 46.5041L54.2626 54.1246C53.0853 55.3019 53.0853 57.2108 54.2626 58.3881L61.8832 66.0086C63.0605 67.186 64.9693 67.186 66.1466 66.0086L73.7672 58.3881C74.9445 57.2108 74.9445 55.3019 73.7672 54.1246L66.1467 46.5041C64.9693 45.3268 63.0605 45.3267 61.8831 46.5041Z" fill="#201D1D" style="fill:#201D1D;fill:color(display-p3 0.1255 0.1137 0.1137);fill-opacity:1;"/>
<path d="M291.001 55.8272C284.197 55.8272 278.153 50.8969 276.595 44.0899H316.994C316.994 44.0899 317.21 41.6236 317.21 40.7511C317.21 26.3037 305.456 14.5493 291.011 14.5493C276.566 14.5493 264.812 26.3037 264.812 40.7511C264.812 55.1985 276.498 66.6798 291.011 66.6798C305.524 66.6798 313.996 55.9905 316.111 48.2502H303.796C303.796 48.2502 299.88 55.8248 291.004 55.8248L291.001 55.8272ZM291.009 25.3995C297.53 25.3995 303.197 29.7059 305.134 36.1278H276.881C278.813 29.7059 284.48 25.3995 291.006 25.3995H291.009Z" fill="#201D1D" style="fill:#201D1D;fill:color(display-p3 0.1255 0.1137 0.1137);fill-opacity:1;"/>
<path d="M136.85 66.6798C122.403 66.6798 111.072 55.0474 111.072 40.7511C111.072 26.4548 122.827 14.5493 137.272 14.5493C151.717 14.5493 163.471 26.7643 163.471 40.6121C163.471 46.5125 163.471 65.3809 163.471 65.3809H153.301V57.114L152.56 56.9191C150.768 61.3108 144.278 66.6798 136.85 66.6798ZM137.272 25.3971C129.112 25.3971 122.473 32.2478 122.473 40.6682C122.473 49.0885 129.112 55.8248 137.272 55.8248C145.431 55.8248 152.07 49.0252 152.07 40.6682C152.07 32.3112 145.431 25.3971 137.272 25.3971Z" fill="#201D1D" style="fill:#201D1D;fill:color(display-p3 0.1255 0.1137 0.1137);fill-opacity:1;"/>
<path d="M192.496 66.6798C178.049 66.6798 166.719 55.0474 166.719 40.7511C166.719 26.4548 178.473 14.5493 192.918 14.5493C207.363 14.5493 219.117 26.7643 219.117 40.6121C219.117 46.5125 219.117 65.3809 219.117 65.3809H208.947V57.114L208.206 56.9191C206.415 61.3108 199.925 66.6798 192.496 66.6798ZM192.918 25.3971C184.759 25.3971 178.12 32.2478 178.12 40.6682C178.12 49.0885 184.759 55.8248 192.918 55.8248C201.078 55.8248 207.716 49.0252 207.716 40.6682C207.716 32.3112 201.078 25.3971 192.918 25.3971Z" fill="#201D1D" style="fill:#201D1D;fill:color(display-p3 0.1255 0.1137 0.1137);fill-opacity:1;"/>
<path d="M236.193 65.3808L215.316 15.8579H226.737L242.04 52.3371L257.345 15.8579H268.763L247.889 65.3808H236.193Z" fill="#201D1D" style="fill:#201D1D;fill:color(display-p3 0.1255 0.1137 0.1137);fill-opacity:1;"/>
<path d="M442.358 66.6759C427.91 66.6759 416.58 55.0435 416.58 40.7472C416.58 26.4509 428.334 14.5454 442.779 14.5454C457.224 14.5454 468.979 26.7604 468.979 40.6082C468.979 46.5086 468.979 65.377 468.979 65.377H458.808V57.1101L458.068 56.9152C456.276 61.3069 449.786 66.6759 442.358 66.6759ZM442.779 25.3931C434.62 25.3931 427.981 32.2439 427.981 40.6643C427.981 49.0846 434.62 55.8209 442.779 55.8209C450.939 55.8209 457.578 49.0213 457.578 40.6643C457.578 32.3073 450.939 25.3931 442.779 25.3931Z" fill="#1F807B" style="fill:#1F807B;fill:color(display-p3 0.1210 0.5025 0.4806);fill-opacity:1;"/>
<path d="M400.538 0.239256V22.4344L400.099 22.6659C398.993 20.1507 393.241 14.5453 384.813 14.5453C370.366 14.5453 359.54 26.1607 359.54 40.613C359.54 55.0653 370.868 66.6807 385.315 66.6807C392.746 66.6807 399.236 61.3117 401.025 56.92L401.766 57.1149V65.3817H411.951V0.236816H400.538V0.239256ZM385.744 55.8233C377.585 55.8233 370.946 49.0236 370.946 40.6666C370.946 32.3096 377.585 25.3955 385.744 25.3955C393.904 25.3955 400.543 32.2463 400.543 40.6666C400.543 49.0869 393.904 55.8233 385.744 55.8233Z" fill="#1F807B" style="fill:#1F807B;fill:color(display-p3 0.1210 0.5025 0.4806);fill-opacity:1;"/>
<path d="M356.744 2.9751L330.579 73.8473H321.308L347.473 2.9751H356.744Z" fill="#1F807B" style="fill:#1F807B;fill:color(display-p3 0.1210 0.5025 0.4806);fill-opacity:1;"/>
<path d="M498.683 14.5688C484.213 14.5688 472.483 26.2281 472.483 40.6122C472.483 54.9962 484.213 66.6555 498.683 66.6555C513.152 66.6555 524.882 54.9962 524.882 40.6122C524.882 26.2281 513.152 14.5688 498.683 14.5688ZM498.683 55.8394C490.533 55.8394 483.926 49.0252 483.926 40.6195C483.926 32.2138 490.533 25.3995 498.683 25.3995C506.833 25.3995 513.44 32.2138 513.44 40.6195C513.44 49.0252 506.833 55.8394 498.683 55.8394Z" fill="#1F807B" style="fill:#1F807B;fill:color(display-p3 0.1210 0.5025 0.4806);fill-opacity:1;"/>
</svg>
