<svg width="256" height="320" viewBox="0 0 256 320" fill="none" xmlns="http://www.w3.org/2000/svg">
<g clip-path="url(#clip0_92_1907)">
<rect width="256" height="320" fill="#1F807B" style="fill:#1F807B;fill:color(display-p3 0.1210 0.5025 0.4806);fill-opacity:1;"/>
<path d="M359.154 59.1298C317.732 130.874 225.994 155.455 154.25 114.034L304.25 -145.774C375.994 -104.353 400.575 -12.614 359.154 59.1298Z" fill="#9DEBE7" style="fill:#9DEBE7;fill:color(display-p3 0.6157 0.9216 0.9059);fill-opacity:1;"/>
<path d="M99.3462 -90.8701C140.768 -162.614 232.506 -187.195 304.25 -145.774L154.25 114.034C82.5061 72.6123 57.9248 -19.1262 99.3462 -90.8701Z" fill="#63BBB6" style="fill:#63BBB6;fill:color(display-p3 0.3882 0.7333 0.7137);fill-opacity:1;"/>
<path d="M294.202 21.6299C273.491 57.5018 227.622 69.7925 191.75 49.0818L266.75 -80.822C302.622 -60.1113 314.913 -14.242 294.202 21.6299Z" fill="#63BBB6" style="fill:#63BBB6;fill:color(display-p3 0.3882 0.7333 0.7137);fill-opacity:1;"/>
<path d="M164.298 -53.3701C185.009 -89.2421 230.878 -101.533 266.75 -80.822L191.75 49.0818C155.878 28.3711 143.587 -17.4982 164.298 -53.3701Z" fill="#9DEBE7" style="fill:#9DEBE7;fill:color(display-p3 0.6157 0.9216 0.9059);fill-opacity:1;"/>
<path d="M-103.154 259.87C-144.575 331.614 -119.994 423.352 -48.2499 464.774L101.75 204.966C30.0061 163.545 -61.7324 188.126 -103.154 259.87Z" fill="#9DEBE7" style="fill:#9DEBE7;fill:color(display-p3 0.6157 0.9216 0.9059);fill-opacity:1;"/>
<path d="M156.654 409.87C198.075 338.126 173.494 246.388 101.75 204.966L-48.25 464.774C23.4939 506.195 115.232 481.614 156.654 409.87Z" fill="#63BBB6" style="fill:#63BBB6;fill:color(display-p3 0.3882 0.7333 0.7137);fill-opacity:1;"/>
<path d="M-38.2019 297.37C-58.9126 333.242 -46.6219 379.111 -10.75 399.822L64.25 269.918C28.378 249.208 -17.4912 261.498 -38.2019 297.37Z" fill="#63BBB6" style="fill:#63BBB6;fill:color(display-p3 0.3882 0.7333 0.7137);fill-opacity:1;"/>
<path d="M91.7019 372.37C112.413 336.498 100.122 290.629 64.25 269.918L-10.75 399.822C25.122 420.532 70.9912 408.242 91.7019 372.37Z" fill="#9DEBE7" style="fill:#9DEBE7;fill:color(display-p3 0.6157 0.9216 0.9059);fill-opacity:1;"/>
</g>
<defs>
<clipPath id="clip0_92_1907">
<rect width="256" height="320" fill="white" style="fill:white;fill-opacity:1;"/>
</clipPath>
</defs>
</svg>
